<svg aria-hidden="true" style="position: absolute; width: 0; height: 0; overflow: hidden;" version="1.1" xmlns="http://www.w3.org/2000/svg" xmlns:xlink="http://www.w3.org/1999/xlink">
<defs>
<symbol id="icon-facebook" viewBox="0 0 32 32">
<title>facebook</title>
<path fill="#4e598f" style="fill: var(--color1, #4e598f)" d="M32 16c0 8.837-7.163 16-16 16s-16-7.163-16-16c0-8.837 7.163-16 16-16s16 7.163 16 16z"></path>
<path fill="#364270" style="fill: var(--color2, #364270)" d="M31.975 15.106l-7.536-7.538c-0.125 0.038-0.436-0.107-0.573-0.080-3.232 0.539-6.357 0-9.481 0.862-1.508 0.431-1.616 2.263-2.155 3.448-0.754 2.155-0.646 4.525-1.616 6.572-0.646 1.401-2.155 2.263-2.694 3.879-0.18 0.674-0.169 1.524-0.372 2.168l7.561 7.558c0.295 0.016 0.592 0.025 0.892 0.025 8.836 0 16-7.163 16-16 0-0.3-0.009-0.598-0.025-0.894z"></path>
<path fill="#fff" style="fill: var(--color3, #fff)" d="M22.69 6.842h-13.38c-1.363 0-2.468 1.105-2.468 2.468v13.38c0 1.363 1.105 2.468 2.468 2.468h6.599l0.011-6.545h-1.701c-0.221 0-0.4-0.179-0.401-0.4l-0.008-2.11c-0.001-0.222 0.179-0.403 0.401-0.403h1.698v-2.039c0-2.366 1.445-3.654 3.555-3.654h1.732c0.221 0 0.401 0.18 0.401 0.401v1.779c0 0.222-0.18 0.401-0.401 0.401l-1.063 0.001c-1.148 0-1.37 0.545-1.37 1.346v1.765h2.522c0.241 0 0.427 0.21 0.398 0.448l-0.25 2.11c-0.024 0.202-0.195 0.354-0.398 0.354h-2.261l-0.011 6.545h3.927c1.363 0 2.468-1.105 2.468-2.468v-13.381c0-1.363-1.105-2.468-2.468-2.468v0z"></path>
<path fill="#fff" style="fill: var(--color3, #fff)" d="M15.909 25.158l0.011-6.545h-0.028v6.545z"></path>
<path fill="#d1d1d1" style="fill: var(--color4, #d1d1d1)" d="M22.69 6.842h-6.798v8.859h0.017v-2.039c0-2.366 1.445-3.654 3.555-3.654h1.732c0.221 0 0.401 0.18 0.401 0.401v1.779c0 0.222-0.18 0.401-0.401 0.401l-1.063 0.001c-1.148 0-1.37 0.545-1.37 1.346v1.765h2.522c0.241 0 0.427 0.21 0.398 0.448l-0.25 2.11c-0.024 0.202-0.195 0.354-0.398 0.354h-2.261l-0.011 6.545h3.927c1.363 0 2.468-1.105 2.468-2.468v-13.38c0-1.363-1.105-2.468-2.468-2.468z"></path>
</symbol>
<symbol id="icon-google-plus" viewBox="0 0 32 32">
<title>google-plus</title>
<path fill="#cf4c3c" style="fill: var(--color5, #cf4c3c)" d="M32 16c0 8.837-7.163 16-16 16s-16-7.163-16-16c0-8.837 7.163-16 16-16s16 7.163 16 16z"></path>
<path fill="#ad3228" style="fill: var(--color6, #ad3228)" d="M23.311 13.469l-2.283 2.746-4.298-4.47h-5.938l-2.403 2.602v5.62l11.539 11.546c5.225-1.319 9.426-5.207 11.182-10.243l-7.8-7.801z"></path>
<path fill="#fff" style="fill: var(--color3, #fff)" d="M13.268 17.209h2.862c-0.502 1.42-1.863 2.438-3.455 2.427-1.932-0.014-3.531-1.56-3.606-3.491-0.080-2.070 1.58-3.78 3.633-3.78 0.939 0 1.795 0.358 2.441 0.944 0.153 0.139 0.386 0.14 0.536-0.002l1.051-0.989c0.164-0.155 0.165-0.416 0.001-0.571-1.024-0.97-2.397-1.575-3.912-1.604-3.231-0.063-5.954 2.586-5.976 5.817-0.023 3.256 2.609 5.902 5.86 5.902 3.126 0 5.679-2.447 5.85-5.53 0.005-0.039 0.008-1.345 0.008-1.345h-5.291c-0.217 0-0.393 0.176-0.393 0.393v1.439c-0 0.217 0.176 0.393 0.393 0.393v0z"></path>
<path fill="#d1d1d1" style="fill: var(--color4, #d1d1d1)" d="M23.408 15.115v-1.406c0-0.19-0.154-0.344-0.344-0.344h-1.183c-0.19 0-0.344 0.154-0.344 0.344v1.406h-1.406c-0.19 0-0.344 0.154-0.344 0.344v1.183c0 0.19 0.154 0.344 0.344 0.344h1.406v1.406c0 0.19 0.154 0.344 0.344 0.344h1.183c0.19 0 0.344-0.154 0.344-0.344v-1.406h1.406c0.19 0 0.344-0.154 0.344-0.344v-1.183c0-0.19-0.154-0.344-0.344-0.344h-1.406z"></path>
</symbol>
<symbol id="icon-instagram" viewBox="0 0 32 32">
<title>instagram</title>
<path fill="#6c27b3" style="fill: var(--color7, #6c27b3)" d="M32 16c0 8.837-7.163 16-16 16s-16-7.163-16-16c0-8.837 7.163-16 16-16s16 7.163 16 16z"></path>
<path fill="#501a96" style="fill: var(--color8, #501a96)" d="M23.419 8.308c-1.912 0.242-3.905 0.234-5.911 0.043-2.801-0.216-6.896-1.508-8.404 1.077-2.423 4.14-1.228 9.44-0.663 14.13l8.421 8.419c8.149-0.433 14.68-6.963 15.114-15.112l-8.557-8.557z"></path>
<path fill="#fff" style="fill: var(--color3, #fff)" d="M19.702 6.842h-7.403c-3.009 0-5.457 2.448-5.457 5.456v7.403c0 3.009 2.448 5.457 5.457 5.457h7.403c3.009 0 5.457-2.448 5.457-5.457v-7.403c-0-3.009-2.448-5.457-5.457-5.457v0zM23.316 19.702c0 1.996-1.618 3.614-3.614 3.614h-7.403c-1.996 0-3.614-1.618-3.614-3.614v-7.403c0-1.996 1.618-3.614 3.614-3.614h7.403c1.996 0 3.614 1.618 3.614 3.614v7.403z"></path>
<path fill="#fff" style="fill: var(--color3, #fff)" d="M16 11.263c-2.612 0-4.737 2.125-4.737 4.737s2.125 4.737 4.737 4.737 4.737-2.125 4.737-4.737-2.125-4.737-4.737-4.737v0zM16 18.895c-1.599 0-2.895-1.296-2.895-2.895s1.296-2.895 2.895-2.895 2.895 1.296 2.895 2.895c0 1.599-1.296 2.895-2.895 2.895v0z"></path>
<path fill="#d1d1d1" style="fill: var(--color4, #d1d1d1)" d="M21.881 11.298c0 0.627-0.508 1.135-1.135 1.135s-1.135-0.508-1.135-1.135c0-0.627 0.508-1.135 1.135-1.135s1.135 0.508 1.135 1.135v0z"></path>
<path fill="#d1d1d1" style="fill: var(--color4, #d1d1d1)" d="M19.702 6.842h-3.738v1.843h3.738c1.996 0 3.614 1.618 3.614 3.614v7.403c0 1.996-1.618 3.614-3.614 3.614h-3.738v1.843h3.738c3.009 0 5.457-2.448 5.457-5.457v-7.403c0-3.009-2.448-5.457-5.456-5.457z"></path>
<path fill="#d1d1d1" style="fill: var(--color4, #d1d1d1)" d="M16 11.263c-0.012 0-0.024 0.001-0.036 0.001v1.843c0.012-0 0.024-0.001 0.036-0.001 1.599 0 2.895 1.296 2.895 2.895s-1.296 2.895-2.895 2.895c-0.012 0-0.024-0.001-0.036-0.001v1.843c0.012 0 0.024 0.001 0.036 0.001 2.612 0 4.737-2.125 4.737-4.737s-2.125-4.737-4.737-4.737z"></path>
</symbol>
<symbol id="icon-linkedin" viewBox="0 0 32 32">
<title>linkedin</title>
<path fill="#4376b1" style="fill: var(--color9, #4376b1)" d="M32 16c0 8.837-7.163 16-16 16s-16-7.163-16-16c0-8.837 7.163-16 16-16s16 7.163 16 16z"></path>
<path fill="#369" style="fill: var(--color10, #369)" d="M31.938 14.602l-7.268-7.277c-4.44 0.577-9.079 0.491-13.519 0.594-1.832 0-3.663 0.862-3.34 2.909 0.646 4.094 0.97 8.081 0.216 12.283-0.119 0.534-0.369 1.068-0.695 1.566l7.26 7.26c0.464 0.040 0.933 0.062 1.407 0.062 8.836 0 16-7.163 16-16 0-0.471-0.021-0.937-0.061-1.398z"></path>
<path fill="#fff" style="fill: var(--color3, #fff)" d="M23.501 6.842h-15.003c-0.915 0-1.657 0.742-1.657 1.657v15.003c0 0.915 0.742 1.657 1.657 1.657h15.003c0.915 0 1.657-0.742 1.657-1.657v-15.003c0-0.915-0.742-1.657-1.657-1.657v0zM12.51 22.657c0 0.266-0.216 0.482-0.482 0.482h-2.052c-0.266 0-0.482-0.216-0.482-0.482v-8.604c0-0.266 0.216-0.482 0.482-0.482h2.052c0.266 0 0.482 0.216 0.482 0.482v8.604h-0zM11.001 12.76c-1.077 0-1.95-0.873-1.95-1.95s0.873-1.95 1.95-1.95c1.077 0 1.95 0.873 1.95 1.95s-0.873 1.95-1.95 1.95v0zM23.236 22.696c0 0.245-0.198 0.444-0.443 0.444h-2.203c-0.245 0-0.443-0.199-0.443-0.444v-4.036c0-0.602 0.177-2.638-1.573-2.638-1.357 0-1.633 1.394-1.688 2.019v4.655c0 0.245-0.198 0.444-0.443 0.444h-2.13c-0.245 0-0.444-0.199-0.444-0.444v-8.681c0-0.245 0.199-0.444 0.444-0.444h2.13c0.245 0 0.443 0.199 0.443 0.444v0.751c0.503-0.755 1.251-1.338 2.844-1.338 3.527 0 3.507 3.295 3.507 5.105v4.164h-0z"></path>
<path fill="#d1d1d1" style="fill: var(--color4, #d1d1d1)" d="M23.501 6.842h-7.537v6.729h0.478c0.245 0 0.443 0.199 0.443 0.444v0.751c0.503-0.755 1.251-1.338 2.844-1.338 3.527 0 3.507 3.295 3.507 5.105v4.164c0 0.245-0.198 0.444-0.443 0.444h-2.203c-0.245 0-0.443-0.199-0.443-0.444v-4.036c0-0.602 0.177-2.638-1.573-2.638-1.357 0-1.633 1.394-1.688 2.019v4.655c0 0.245-0.198 0.444-0.443 0.444h-0.478v2.019h7.537c0.915 0 1.657-0.742 1.657-1.657v-15.003c-0-0.915-0.742-1.657-1.657-1.657z"></path>
</symbol>
<symbol id="icon-twitter" viewBox="0 0 32 32">
<title>twitter</title>
<path fill="#65a2d9" style="fill: var(--color11, #65a2d9)" d="M32 16c0 8.837-7.163 16-16 16s-16-7.163-16-16c0-8.837 7.163-16 16-16s16 7.163 16 16z"></path>
<path fill="#3a7ca5" style="fill: var(--color12, #3a7ca5)" d="M24.563 8.708c-1.669 1.448-3.328 2.717-4.685 4.491-3.336 4.023-7.413 9.731-12.962 8.88l9.913 9.9c8.404-0.43 15.094-7.343 15.168-15.836l-7.435-7.435z"></path>
<path fill="#fff" style="fill: var(--color3, #fff)" d="M24.867 10.154c-0.407 0.181-0.829 0.323-1.263 0.426 0.478-0.454 0.837-1.022 1.039-1.655 0.058-0.181-0.139-0.337-0.302-0.241-0.603 0.358-1.253 0.626-1.931 0.798-0.039 0.010-0.080 0.015-0.121 0.015-0.124 0-0.244-0.046-0.338-0.129-0.721-0.636-1.649-0.986-2.613-0.986-0.417 0-0.838 0.065-1.251 0.193-1.28 0.397-2.268 1.453-2.579 2.756-0.116 0.489-0.148 0.978-0.094 1.454 0.006 0.055-0.020 0.093-0.036 0.111-0.028 0.031-0.068 0.049-0.109 0.049-0.005 0-0.009-0-0.014-0.001-2.803-0.261-5.33-1.611-7.117-3.802-0.091-0.112-0.266-0.098-0.338 0.026-0.35 0.6-0.535 1.287-0.535 1.985 0 1.070 0.43 2.079 1.177 2.815-0.314-0.075-0.618-0.192-0.901-0.349-0.137-0.076-0.305 0.022-0.307 0.178-0.019 1.59 0.912 3.005 2.307 3.643-0.028 0.001-0.056 0.001-0.084 0.001-0.221 0-0.445-0.021-0.665-0.063-0.154-0.029-0.283 0.117-0.236 0.266 0.453 1.414 1.67 2.456 3.126 2.692-1.209 0.811-2.616 1.239-4.081 1.239l-0.457-0c-0.141 0-0.26 0.092-0.296 0.228-0.035 0.134 0.030 0.276 0.15 0.346 1.651 0.961 3.534 1.468 5.446 1.468 1.674 0 3.24-0.332 4.654-0.987 1.297-0.601 2.442-1.459 3.405-2.552 0.897-1.018 1.599-2.193 2.085-3.492 0.464-1.239 0.709-2.56 0.709-3.822v-0.060c0-0.203 0.092-0.393 0.252-0.523 0.607-0.493 1.135-1.072 1.57-1.723 0.115-0.172-0.066-0.387-0.255-0.303v0z"></path>
<path fill="#d1d1d1" style="fill: var(--color4, #d1d1d1)" d="M24.867 10.154c-0.407 0.181-0.829 0.323-1.263 0.426 0.478-0.454 0.837-1.022 1.040-1.655 0.058-0.181-0.139-0.337-0.302-0.241-0.603 0.358-1.253 0.626-1.931 0.798-0.039 0.010-0.080 0.015-0.121 0.015-0.124 0-0.244-0.046-0.338-0.129-0.721-0.636-1.649-0.986-2.613-0.986-0.417 0-0.838 0.065-1.251 0.193-0.895 0.278-1.646 0.878-2.124 1.659v12.842c0.389-0.127 0.768-0.275 1.137-0.446 1.297-0.601 2.442-1.459 3.405-2.552 0.897-1.018 1.599-2.193 2.085-3.492 0.464-1.239 0.709-2.56 0.709-3.822v-0.060c0-0.203 0.092-0.393 0.252-0.523 0.607-0.493 1.135-1.072 1.57-1.723 0.115-0.172-0.066-0.387-0.255-0.303z"></path>
</symbol>
<symbol id="icon-whatsapp" viewBox="0 0 32 32">
<title>whatsapp</title>
<path fill="#75b73b" style="fill: var(--color13, #75b73b)" d="M32 16c0 8.837-7.163 16-16 16s-16-7.163-16-16c0-8.837 7.163-16 16-16s16 7.163 16 16z"></path>
<path fill="#52891d" style="fill: var(--color14, #52891d)" d="M22.515 9.489c-0.928-0.232-2.292-1.033-3.175-1.354-3.448-1.077-8.081-0.215-9.374 3.771-0.108 0.108-0.323 0.108-0.431 0.108-2.586 3.017-0.862 6.68-1.077 10.020-0.074 1.177-0.693 2.219-1.489 3.099l6.705 6.698c0.76 0.111 1.536 0.169 2.326 0.169 7.902 0 14.466-5.729 15.765-13.26l-9.25-9.251z"></path>
<path fill="#fff" style="fill: var(--color3, #fff)" d="M15.552 6.778c-4.877 0.232-8.725 4.293-8.711 9.176 0.005 1.487 0.364 2.891 0.997 4.131l-0.972 4.72c-0.053 0.255 0.178 0.479 0.431 0.419l4.625-1.096c1.188 0.592 2.523 0.934 3.935 0.955 4.985 0.076 9.141-3.882 9.296-8.864 0.166-5.341-4.242-9.696-9.601-9.44v0zM21.071 20.996c-1.354 1.354-3.155 2.1-5.071 2.1-1.121 0-2.195-0.252-3.192-0.748l-0.644-0.321-2.836 0.672 0.597-2.897-0.317-0.621c-0.517-1.013-0.78-2.108-0.78-3.255 0-1.915 0.746-3.716 2.1-5.071 1.342-1.342 3.172-2.1 5.071-2.1 1.915 0 3.716 0.746 5.070 2.1s2.1 3.155 2.1 5.070c0 1.898-0.758 3.729-2.1 5.071v0z"></path>
<path fill="#fff" style="fill: var(--color3, #fff)" d="M20.445 17.911l-1.774-0.509c-0.233-0.067-0.484-0.001-0.654 0.172l-0.434 0.442c-0.183 0.186-0.46 0.246-0.703 0.148-0.839-0.34-2.604-1.909-3.055-2.694-0.13-0.226-0.109-0.509 0.051-0.716l0.379-0.49c0.148-0.192 0.18-0.45 0.082-0.672l-0.746-1.688c-0.179-0.404-0.695-0.522-1.033-0.236-0.495 0.419-1.082 1.055-1.154 1.76-0.126 1.243 0.407 2.81 2.423 4.691 2.329 2.174 4.193 2.461 5.408 2.166 0.689-0.167 1.239-0.835 1.586-1.383 0.237-0.374 0.050-0.869-0.375-0.991v0z"></path>
<path fill="#d1d1d1" style="fill: var(--color4, #d1d1d1)" d="M22.25 9.232l-1.389 1.424c0.071 0.065 0.141 0.131 0.209 0.199 1.354 1.354 2.1 3.155 2.1 5.070 0 1.898-0.758 3.729-2.1 5.071-1.354 1.354-3.155 2.1-5.071 2.1-1.121 0-2.195-0.252-3.192-0.748l-0.644-0.321-2.836 0.672 0.059-0.285-2.511 2.573c0.055 0.166 0.232 0.28 0.421 0.235l4.625-1.096c1.188 0.592 2.523 0.934 3.935 0.955 4.985 0.076 9.141-3.882 9.296-8.864 0.086-2.758-1.048-5.253-2.903-6.986z"></path>
<path fill="#d1d1d1" style="fill: var(--color4, #d1d1d1)" d="M20.445 17.911l-1.774-0.509c-0.233-0.067-0.484-0.001-0.654 0.172l-0.434 0.442c-0.183 0.186-0.46 0.246-0.703 0.148-0.485-0.196-1.278-0.803-1.949-1.431l-1.233 1.264c0.042 0.041 0.085 0.081 0.128 0.122 2.329 2.174 4.193 2.461 5.408 2.166 0.689-0.167 1.239-0.835 1.586-1.383 0.237-0.374 0.050-0.869-0.375-0.991z"></path>
</symbol>
<symbol id="icon-youtube" viewBox="0 0 32 32">
<title>youtube</title>
<path fill="#d22215" style="fill: var(--color15, #d22215)" d="M32 16c0 8.837-7.163 16-16 16s-16-7.163-16-16c0-8.837 7.163-16 16-16s16 7.163 16 16z"></path>
<path fill="#a81411" style="fill: var(--color16, #a81411)" d="M24.054 10.646c-0.48 0.146-0.98 0.272-1.481 0.398-3.556 0.754-8.296-1.293-10.343 2.047-1.707 2.656-2.246 5.979-4.189 8.354l10.374 10.374c6.904-1.045 12.361-6.502 13.405-13.407l-7.765-7.766z"></path>
<path fill="#fff" style="fill: var(--color3, #fff)" d="M21.353 9.521h-10.706c-2.101 0-3.803 1.703-3.803 3.803v5.352c0 2.101 1.703 3.803 3.803 3.803h10.706c2.101 0 3.803-1.703 3.803-3.803v-5.352c0-2.1-1.703-3.803-3.803-3.803v0zM18.781 16.26l-5.008 2.388c-0.133 0.064-0.288-0.034-0.288-0.181v-4.926c0-0.15 0.158-0.247 0.292-0.179l5.008 2.538c0.149 0.075 0.146 0.289-0.004 0.361v0z"></path>
<path fill="#d1d1d1" style="fill: var(--color4, #d1d1d1)" d="M21.353 9.521h-5.461v4.913l2.893 1.466c0.149 0.075 0.146 0.289-0.004 0.361l-2.889 1.378v4.841h5.461c2.101 0 3.803-1.703 3.803-3.803v-5.352c0-2.1-1.703-3.803-3.803-3.803z"></path>
</symbol>
</defs>
</svg>
