<svg xmlns="http://www.w3.org/2000/svg" viewBox="168.532 578.235 327.478 275.36">
  <defs>
    <style>
      .cls-1 {
        fill: #53c7f0;
      }

      .cls-2 {
        fill: #87e0ff;
      }

      .cls-15, .cls-3 {
        fill: #fff;
      }

      .cls-4 {
        fill: #ff6473;
      }

      .cls-5 {
        fill: #1d97c1;
      }

      .cls-6 {
        fill: #333;
      }

      .cls-7 {
        fill: #c7cfe2;
      }

      .cls-8 {
        fill: #707487;
      }

      .cls-9 {
        fill: #5b5d6e;
      }

      .cls-10 {
        fill: #ff6464;
      }

      .cls-11 {
        fill: #8f96ac;
      }

      .cls-12 {
        fill: #d7deed;
      }

      .cls-13 {
        fill: #636e72;
      }

      .cls-14 {
        fill: #2d3436;
      }

      .cls-15 {
        opacity: 0.78;
      }

      .cls-16 {
        fill: #00d2ff;
      }

      .cls-17 {
        fill: #9be6d2;
      }

      .cls-18 {
        fill: #c3e678;
      }

      .cls-19 {
        fill: #18bdf6;
      }

      .cls-20 {
        fill: #78d2be;
      }

      .cls-21 {
        fill: #e4af18;
      }

      .cls-22 {
        fill: #f4bf1a;
      }

      .cls-23 {
        fill: #ffd949;
      }

      .cls-24 {
        fill: #dca815;
      }

      .cls-25 {
        fill: #c49214;
      }

      .cls-26 {
        fill: #fcc62d;
      }

      .cls-27 {
        fill: #ff97a1;
      }

      .cls-28 {
        fill: #ff4254;
      }

      .cls-29 {
        fill: #b90012;
      }

      .cls-30 {
        fill: #7383bf;
      }

      .cls-31 {
        fill: #434c6d;
      }

      .cls-32, .cls-33 {
        stroke: none;
      }

      .cls-33 {
        fill: #707070;
      }
    </style>
  </defs>
  <g id="Accounting_and_Advisory_Services" data-name="Accounting and Advisory Services" transform="translate(-106.468 360)">
    <g id="paper" transform="translate(388.77 218.235)">
      <g id="contract" transform="translate(0 9.988)">
        <g id="Group_2" data-name="Group 2" transform="translate(0)">
          <g id="Group_1" data-name="Group 1">
            <path id="Path_1" data-name="Path 1" class="cls-1" d="M110.261,50.292c-3.878-5.477-10.188-5.476-14.067,0l-9.975,14.1v-37.1a17.279,17.279,0,0,0-2.913-9.932L73.929,4.114C72.05,1.461,69.552,0,66.9,0H9.964C4.48,0,.018,6.3.018,14.046V145.763c0,7.745,4.462,14.046,9.946,14.046H76.273c5.484,0,9.946-6.3,9.946-14.046V104.135l24.042-33.979C114.148,64.667,114.149,55.782,110.261,50.292ZM66.327,9.364a2.985,2.985,0,0,1,2.913,1.371l9.377,13.243a6.6,6.6,0,0,1,.971,4.114H66.327Zm13.261,136.4c0,2.582-1.487,4.682-3.315,4.682H9.964c-1.828,0-3.315-2.1-3.315-4.682V14.046c0-2.582,1.487-4.682,3.315-4.682H59.7v23.41c0,2.586,1.484,4.682,3.315,4.682H79.588V73.763L69.806,87.588,65.12,94.206a5.265,5.265,0,0,0-.8,1.83L59.63,115.9a6.122,6.122,0,0,0,.8,4.791,2.68,2.68,0,0,0,3.393,1.131L77.89,115.2a3.382,3.382,0,0,0,1.3-1.131l.4-.568v32.261ZM72.153,97.517l4.689,6.621-1.791,2.529-7.033,3.31,2.344-9.932Zm9.376,0-4.689-6.621L92.778,68.369l4.689,6.621Zm24.042-33.979-3.418,4.83-4.689-6.621,3.419-4.832a2.692,2.692,0,0,1,4.689,0A6.125,6.125,0,0,1,105.571,63.536Z" transform="translate(-0.018)"/>
          </g>
        </g>
        <g id="Group_4" data-name="Group 4" transform="translate(13.262 46.819)">
          <g id="Group_3" data-name="Group 3">
            <path id="Path_2" data-name="Path 2" class="cls-2" d="M109.749,150H63.333c-1.831,0-3.315,2.1-3.315,4.682s1.484,4.682,3.315,4.682h46.416c1.831,0,3.315-2.1,3.315-4.682S111.58,150,109.749,150Z" transform="translate(-60.018 -150)"/>
          </g>
        </g>
        <g id="Group_6" data-name="Group 6" transform="translate(13.262 65.547)">
          <g id="Group_5" data-name="Group 5">
            <path id="Path_3" data-name="Path 3" class="cls-2" d="M96.488,210H63.333c-1.831,0-3.315,2.1-3.315,4.682s1.484,4.682,3.315,4.682H96.488c1.831,0,3.315-2.1,3.315-4.682S98.319,210,96.488,210Z" transform="translate(-60.018 -210)"/>
          </g>
        </g>
        <g id="Group_8" data-name="Group 8" transform="translate(13.262 84.274)">
          <g id="Group_7" data-name="Group 7">
            <path id="Path_4" data-name="Path 4" class="cls-2" d="M96.488,270H63.333c-1.831,0-3.315,2.1-3.315,4.682s1.484,4.682,3.315,4.682H96.488c1.831,0,3.315-2.1,3.315-4.682S98.319,270,96.488,270Z" transform="translate(-60.018 -270)"/>
          </g>
        </g>
        <g id="Group_10" data-name="Group 10" transform="translate(13.262 103.002)">
          <g id="Group_9" data-name="Group 9">
            <path id="Path_5" data-name="Path 5" class="cls-2" d="M96.488,330H63.333c-1.831,0-3.315,2.1-3.315,4.682s1.484,4.682,3.315,4.682H96.488c1.831,0,3.315-2.1,3.315-4.682S98.319,330,96.488,330Z" transform="translate(-60.018 -330)"/>
          </g>
        </g>
        <g id="Group_12" data-name="Group 12" transform="translate(39.785 131.717)">
          <g id="Group_11" data-name="Group 11">
            <path id="Path_6" data-name="Path 6" d="M203.226,422H183.333c-1.831,0-3.315,2.1-3.315,4.682s1.484,4.682,3.315,4.682h19.893c1.831,0,3.315-2.1,3.315-4.682S205.057,422,203.226,422Z" transform="translate(-180.018 -422)"/>
          </g>
        </g>
      </g>
      <path id="Path_7" data-name="Path 7" class="cls-3" d="M0,0H84.658V159.809H0Z" transform="translate(28.508)"/>
      <g id="contract-2" data-name="contract" transform="translate(28.513)">
        <g id="Group_2-2" data-name="Group 2" transform="translate(0)">
          <g id="Group_1-2" data-name="Group 1">
            <path id="Path_1-2" data-name="Path 1" class="cls-1" d="M110.261,50.292c-3.878-5.477-10.188-5.476-14.067,0l-9.975,14.1v-37.1a17.279,17.279,0,0,0-2.913-9.932L73.929,4.114C72.05,1.461,69.552,0,66.9,0H9.964C4.48,0,.018,6.3.018,14.046V145.763c0,7.745,4.462,14.046,9.946,14.046H76.273c5.484,0,9.946-6.3,9.946-14.046V104.135l24.042-33.979C114.148,64.667,114.149,55.782,110.261,50.292ZM66.327,9.364a2.985,2.985,0,0,1,2.913,1.371l9.377,13.243a6.6,6.6,0,0,1,.971,4.114H66.327Zm13.261,136.4c0,2.582-1.487,4.682-3.315,4.682H9.964c-1.828,0-3.315-2.1-3.315-4.682V14.046c0-2.582,1.487-4.682,3.315-4.682H59.7v23.41c0,2.586,1.484,4.682,3.315,4.682H79.588V73.763L69.806,87.588,65.12,94.206a5.265,5.265,0,0,0-.8,1.83L59.63,115.9a6.122,6.122,0,0,0,.8,4.791,2.68,2.68,0,0,0,3.393,1.131L77.89,115.2a3.382,3.382,0,0,0,1.3-1.131l.4-.568v32.261ZM72.153,97.517l4.689,6.621-1.791,2.529-7.033,3.31,2.344-9.932Zm9.376,0-4.689-6.621L92.778,68.369l4.689,6.621Zm24.042-33.979-3.418,4.83-4.689-6.621,3.419-4.832a2.692,2.692,0,0,1,4.689,0A6.125,6.125,0,0,1,105.571,63.536Z" transform="translate(-0.018)"/>
          </g>
        </g>
        <g id="Group_4-2" data-name="Group 4" transform="translate(13.262 46.819)">
          <g id="Group_3-2" data-name="Group 3">
            <path id="Path_2-2" data-name="Path 2" class="cls-4" d="M109.749,150H63.333c-1.831,0-3.315,2.1-3.315,4.682s1.484,4.682,3.315,4.682h46.416c1.831,0,3.315-2.1,3.315-4.682S111.58,150,109.749,150Z" transform="translate(-60.018 -150)"/>
          </g>
        </g>
        <g id="Group_6-2" data-name="Group 6" transform="translate(13.262 65.547)">
          <g id="Group_5-2" data-name="Group 5">
            <path id="Path_3-2" data-name="Path 3" class="cls-5" d="M96.488,210H63.333c-1.831,0-3.315,2.1-3.315,4.682s1.484,4.682,3.315,4.682H96.488c1.831,0,3.315-2.1,3.315-4.682S98.319,210,96.488,210Z" transform="translate(-60.018 -210)"/>
          </g>
        </g>
        <g id="Group_8-2" data-name="Group 8" transform="translate(13.262 84.274)">
          <g id="Group_7-2" data-name="Group 7">
            <path id="Path_4-2" data-name="Path 4" class="cls-5" d="M96.488,270H63.333c-1.831,0-3.315,2.1-3.315,4.682s1.484,4.682,3.315,4.682H96.488c1.831,0,3.315-2.1,3.315-4.682S98.319,270,96.488,270Z" transform="translate(-60.018 -270)"/>
          </g>
        </g>
        <g id="Group_10-2" data-name="Group 10" transform="translate(13.262 103.002)">
          <g id="Group_9-2" data-name="Group 9">
            <path id="Path_5-2" data-name="Path 5" class="cls-5" d="M96.488,330H63.333c-1.831,0-3.315,2.1-3.315,4.682s1.484,4.682,3.315,4.682H96.488c1.831,0,3.315-2.1,3.315-4.682S98.319,330,96.488,330Z" transform="translate(-60.018 -330)"/>
          </g>
        </g>
        <g id="Group_12-2" data-name="Group 12" transform="translate(39.785 131.717)">
          <g id="Group_11-2" data-name="Group 11">
            <path id="Path_6-2" data-name="Path 6" class="cls-6" d="M203.226,422H183.333c-1.831,0-3.315,2.1-3.315,4.682s1.484,4.682,3.315,4.682h19.893c1.831,0,3.315-2.1,3.315-4.682S205.057,422,203.226,422Z" transform="translate(-180.018 -422)"/>
          </g>
        </g>
      </g>
    </g>
    <g id="calculating" transform="translate(546.206 277.379) rotate(18)">
      <path id="Path_8" data-name="Path 8" class="cls-7" d="M57.187,92.152,9.752,86.624c-1.248-.145-2.377-1.6-2.522-3.247L.122,2.824C-.023,1.177.87-.041,2.118.1L49.552,5.632c1.248.145,2.377,1.6,2.522,3.247l7.108,80.553C59.327,91.08,58.434,92.3,57.187,92.152Z" transform="translate(0 0)"/>
      <path id="Path_9" data-name="Path 9" class="cls-8" d="M54.444,35.73,2.491,29.675.122,2.824C-.023,1.177.87-.041,2.118.1L49.552,5.632c1.248.145,2.377,1.6,2.522,3.247L54.444,35.73Z" transform="translate(0 0)"/>
      <g id="Group_13" data-name="Group 13" transform="translate(7.606 36.248)">
        <path id="Path_10" data-name="Path 10" class="cls-9" d="M6.366,9.529,1.849,9A1.729,1.729,0,0,1,.588,7.379L.061,1.412c-.073-.824.374-1.433,1-1.36L5.576.579A1.729,1.729,0,0,1,6.838,2.2l.526,5.967C7.437,8.993,6.99,9.6,6.366,9.529Z" transform="translate(0 0)"/>
        <path id="Path_11" data-name="Path 11" class="cls-9" d="M6.366,9.529,1.849,9A1.729,1.729,0,0,1,.588,7.379L.061,1.412c-.073-.824.374-1.433,1-1.36L5.576.579A1.729,1.729,0,0,1,6.838,2.2l.526,5.967C7.437,8.993,6.99,9.6,6.366,9.529Z" transform="translate(2.106 23.868)"/>
        <path id="Path_12" data-name="Path 12" class="cls-9" d="M6.366,9.529,1.849,9A1.729,1.729,0,0,1,.588,7.379L.061,1.412c-.073-.824.374-1.433,1-1.36L5.576.579A1.729,1.729,0,0,1,6.838,2.2l.526,5.967C7.437,8.993,6.99,9.6,6.366,9.529Z" transform="translate(1.053 11.934)"/>
      </g>
      <path id="Path_13" data-name="Path 13" class="cls-10" d="M6.366,9.529,1.849,9A1.729,1.729,0,0,1,.588,7.379L.061,1.412c-.073-.824.374-1.433,1-1.36L5.576.579A1.729,1.729,0,0,1,6.838,2.2l.526,5.967C7.437,8.993,6.99,9.6,6.366,9.529Z" transform="translate(10.765 72.05)"/>
      <g id="Group_14" data-name="Group 14" transform="translate(16.641 37.301)">
        <path id="Path_14" data-name="Path 14" class="cls-11" d="M6.366,9.529,1.849,9A1.729,1.729,0,0,1,.588,7.379L.061,1.412c-.073-.824.374-1.433,1-1.36L5.576.579A1.729,1.729,0,0,1,6.838,2.2l.526,5.967C7.437,8.993,6.99,9.6,6.366,9.529Z" transform="translate(0 0)"/>
        <path id="Path_15" data-name="Path 15" class="cls-11" d="M6.366,9.529,1.849,9A1.729,1.729,0,0,1,.588,7.379L.061,1.412c-.073-.824.374-1.433,1-1.36L5.576.579A1.729,1.729,0,0,1,6.838,2.2l.526,5.967C7.437,8.993,6.99,9.6,6.366,9.529Z" transform="translate(2.106 23.868)"/>
        <path id="Path_16" data-name="Path 16" class="cls-11" d="M6.366,9.529,1.849,9A1.729,1.729,0,0,1,.588,7.379L.061,1.412c-.073-.824.374-1.433,1-1.36L5.576.579A1.729,1.729,0,0,1,6.838,2.2l.526,5.967C7.437,8.993,6.99,9.6,6.366,9.529Z" transform="translate(1.053 11.934)"/>
        <path id="Path_17" data-name="Path 17" class="cls-11" d="M6.366,9.529,1.849,9A1.729,1.729,0,0,1,.588,7.379L.061,1.412c-.073-.824.374-1.433,1-1.36L5.576.579A1.729,1.729,0,0,1,6.838,2.2l.526,5.967C7.437,8.993,6.99,9.6,6.366,9.529Z" transform="translate(3.159 35.801)"/>
        <path id="Path_18" data-name="Path 18" class="cls-11" d="M6.366,9.529,1.849,9A1.729,1.729,0,0,1,.588,7.379L.061,1.412c-.073-.824.374-1.433,1-1.36L5.576.579A1.729,1.729,0,0,1,6.838,2.2l.526,5.967C7.437,8.993,6.99,9.6,6.366,9.529Z" transform="translate(9.035 1.053)"/>
        <path id="Path_19" data-name="Path 19" class="cls-11" d="M6.366,9.529,1.849,9A1.729,1.729,0,0,1,.588,7.379L.061,1.412c-.073-.824.374-1.433,1-1.36L5.576.579A1.729,1.729,0,0,1,6.838,2.2l.526,5.967C7.437,8.993,6.99,9.6,6.366,9.529Z" transform="translate(11.141 24.921)"/>
        <path id="Path_20" data-name="Path 20" class="cls-11" d="M6.366,9.529,1.849,9A1.729,1.729,0,0,1,.588,7.379L.061,1.412c-.073-.824.374-1.433,1-1.36L5.576.579A1.729,1.729,0,0,1,6.838,2.2l.526,5.967C7.437,8.993,6.99,9.6,6.366,9.529Z" transform="translate(10.088 12.987)"/>
        <path id="Path_21" data-name="Path 21" class="cls-11" d="M6.366,9.529,1.849,9A1.729,1.729,0,0,1,.588,7.379L.061,1.412c-.073-.824.374-1.433,1-1.36L5.576.579A1.729,1.729,0,0,1,6.838,2.2l.526,5.967C7.437,8.993,6.99,9.6,6.366,9.529Z" transform="translate(12.194 36.854)"/>
        <path id="Path_22" data-name="Path 22" class="cls-11" d="M6.366,9.529,1.849,9A1.729,1.729,0,0,1,.588,7.379L.061,1.412c-.073-.824.374-1.433,1-1.36L5.576.579A1.729,1.729,0,0,1,6.838,2.2l.526,5.967C7.437,8.993,6.99,9.6,6.366,9.529Z" transform="translate(18.07 2.106)"/>
        <path id="Path_23" data-name="Path 23" class="cls-11" d="M6.366,9.529,1.849,9A1.729,1.729,0,0,1,.588,7.379L.061,1.412c-.073-.824.374-1.433,1-1.36L5.576.579A1.729,1.729,0,0,1,6.838,2.2l.526,5.967C7.437,8.993,6.99,9.6,6.366,9.529Z" transform="translate(20.176 25.973)"/>
        <path id="Path_24" data-name="Path 24" class="cls-11" d="M6.366,9.529,1.849,9A1.729,1.729,0,0,1,.588,7.379L.061,1.412c-.073-.824.374-1.433,1-1.36L5.576.579A1.729,1.729,0,0,1,6.838,2.2l.526,5.967C7.437,8.993,6.99,9.6,6.366,9.529Z" transform="translate(19.123 14.04)"/>
      </g>
      <g id="Group_15" data-name="Group 15" transform="translate(36.405 40.114)">
        <path id="Path_25" data-name="Path 25" class="cls-9" d="M6.366,9.529,1.849,9A1.729,1.729,0,0,1,.588,7.379L.061,1.412c-.073-.824.374-1.433,1-1.36L5.576.579A1.729,1.729,0,0,1,6.838,2.2l.526,5.967C7.437,8.993,6.99,9.6,6.366,9.529Z" transform="translate(1.465 35.095)"/>
        <path id="Path_26" data-name="Path 26" class="cls-9" d="M6.366,9.529,1.849,9A1.729,1.729,0,0,1,.588,7.379L.061,1.412c-.073-.824.374-1.433,1-1.36L5.576.579A1.729,1.729,0,0,1,6.838,2.2l.526,5.967C7.437,8.993,6.99,9.6,6.366,9.529Z" transform="translate(7.342 0.346)"/>
        <path id="Path_27" data-name="Path 27" class="cls-9" d="M6.366,9.529,1.849,9A1.729,1.729,0,0,1,.588,7.379L.061,1.412c-.073-.824.374-1.433,1-1.36L5.576.579A1.729,1.729,0,0,1,6.838,2.2l.526,5.967C7.437,8.993,6.99,9.6,6.366,9.529Z" transform="translate(8.394 12.28)"/>
        <path id="Path_28" data-name="Path 28" class="cls-9" d="M7.419,21.463,2.9,20.936a1.729,1.729,0,0,1-1.261-1.623L.061,1.412c-.073-.824.374-1.433,1-1.36L5.576.579A1.729,1.729,0,0,1,6.838,2.2L8.417,20.1C8.49,20.926,8.043,21.536,7.419,21.463Z" transform="translate(9.447 24.214)"/>
      </g>
      <path id="Path_29" data-name="Path 29" class="cls-12" d="M43.034,19.708,2.375,14.969a1.729,1.729,0,0,1-1.261-1.623L.061,1.412c-.073-.824.374-1.433,1-1.36L41.717,4.79a1.729,1.729,0,0,1,1.261,1.623l1.053,11.934C44.1,19.172,43.657,19.78,43.034,19.708Z" transform="translate(4.973 6.414)"/>
      <g id="Group_16" data-name="Group 16" transform="translate(7.496 9.66)">
        <path id="Path_30" data-name="Path 30" class="cls-7" d="M4.107,9.266,1.849,9A1.728,1.728,0,0,1,.588,7.379L.061,1.412c-.073-.824.373-1.433,1-1.36L3.318.315A1.728,1.728,0,0,1,4.579,1.939l.526,5.967C5.178,8.73,4.732,9.338,4.107,9.266Z" transform="translate(0 0)"/>
        <path id="Path_31" data-name="Path 31" class="cls-7" d="M4.107,9.266,1.849,9A1.728,1.728,0,0,1,.588,7.379L.061,1.412c-.073-.824.373-1.433,1-1.36L3.318.315A1.728,1.728,0,0,1,4.579,1.939l.526,5.967C5.178,8.73,4.732,9.338,4.107,9.266Z" transform="translate(6.776 0.79)"/>
        <path id="Path_32" data-name="Path 32" class="cls-7" d="M4.107,9.266,1.849,9A1.728,1.728,0,0,1,.588,7.379L.061,1.412c-.073-.824.373-1.433,1-1.36L3.318.315A1.728,1.728,0,0,1,4.579,1.939l.526,5.967C5.178,8.73,4.732,9.338,4.107,9.266Z" transform="translate(13.553 1.579)"/>
        <path id="Path_33" data-name="Path 33" class="cls-7" d="M4.107,9.266,1.849,9A1.728,1.728,0,0,1,.588,7.379L.061,1.412c-.073-.824.373-1.433,1-1.36L3.318.315A1.728,1.728,0,0,1,4.579,1.939l.526,5.967C5.178,8.73,4.732,9.338,4.107,9.266Z" transform="translate(20.329 2.369)"/>
      </g>
      <g id="Group_17" data-name="Group 17" transform="translate(34.601 12.819)">
        <path id="Path_34" data-name="Path 34" class="cls-11" d="M4.107,9.266,1.849,9A1.728,1.728,0,0,1,.588,7.379L.061,1.412c-.073-.824.373-1.433,1-1.36L3.318.315A1.728,1.728,0,0,1,4.579,1.939l.526,5.967C5.178,8.73,4.732,9.338,4.107,9.266Z" transform="translate(0 0)"/>
        <path id="Path_35" data-name="Path 35" class="cls-11" d="M4.107,9.266,1.849,9A1.728,1.728,0,0,1,.588,7.379L.061,1.412c-.073-.824.373-1.433,1-1.36L3.318.315A1.728,1.728,0,0,1,4.579,1.939l.526,5.967C5.178,8.73,4.732,9.338,4.107,9.266Z" transform="translate(6.776 0.79)"/>
      </g>
      <path id="Path_166" data-name="Path 166" class="cls-9" d="M0,0,51.952,6.055l.395,4.475L.395,4.475Z" transform="translate(2.097 25.2)"/>
    </g>
    <g id="seacrh" transform="translate(437.848 296.571) rotate(16)">
      <g id="magnifier-tool" transform="translate(0 0)">
        <g id="Group_18" data-name="Group 18" transform="translate(0 0)">
          <path id="Path_36" data-name="Path 36" class="cls-13" d="M51.245,35.8C49.843,18.073,37.5,2.514,23.675,1.05S-.221,12.772,1.181,30.5,14.928,63.783,28.752,65.246,52.647,53.525,51.245,35.8ZM28.117,57.222C17.764,56.125,8.489,44.436,7.439,31.161S13.957,7.979,24.309,9.075,43.938,21.861,44.987,35.137,38.469,58.318,28.117,57.222Z"/>
          <path id="Path_37" data-name="Path 37" class="cls-14" d="M25.224,21.617,8.357.357A26.666,26.666,0,0,1,.4,10.766l16.868,21.26c2.693,3.393,6.657,3.813,8.849.937S27.917,25.01,25.224,21.617Z" transform="translate(44.023 55.555)"/>
        </g>
      </g>
      <g id="Path_167" data-name="Path 167" class="cls-15" transform="translate(6.341 5.958)">
        <path class="cls-32" d="M 23.57804298400879 51.50603866577148 C 23.09549331665039 51.50603866577148 22.60189247131348 51.47968673706055 22.11094284057617 51.42769622802734 C 11.8109130859375 50.3370361328125 2.538973331451416 38.16767883300781 1.442243456840515 24.30015754699707 C 0.8439633846282959 16.73514747619629 2.783343315124512 9.926227569580078 6.763113498687744 5.619297504425049 C 9.424623489379883 2.7389976978302 12.78988361358643 1.216557621955872 16.49510383605957 1.216557621955872 C 16.97765350341797 1.216557621955872 17.47125434875488 1.242907643318176 17.96220397949219 1.294897556304932 C 28.26223373413086 2.385567665100098 37.53417205810547 14.55492782592773 38.63090515136719 28.42243766784668 C 39.22918319702148 35.98744583129883 37.28980255126953 42.79635620117188 33.31002426147461 47.10329818725586 C 30.64852333068848 49.98359680175781 27.28326416015625 51.50603866577148 23.57804298400879 51.50603866577148 Z"/>
        <path class="cls-33" d="M 23.57804298400879 51.00603866577148 C 27.14014434814453 51.00603866577148 30.37843322753906 49.53915786743164 32.94280242919922 46.76396942138672 C 34.79653167724609 44.75784683227539 36.25069427490234 42.08583831787109 37.14807510375977 39.03681945800781 C 38.10033416748047 35.80135726928711 38.43152236938477 32.24342727661133 38.13245391845703 28.46185684204102 C 37.86706161499023 25.10607719421387 37.11861419677734 21.79838752746582 35.90789413452148 18.63063812255859 C 34.73989486694336 15.57466793060303 33.19413375854492 12.77939796447754 31.31354331970215 10.32246780395508 C 29.44485282897949 7.881097793579102 27.34235382080078 5.900107383728027 25.06442260742188 4.434517383575439 C 22.73763275146484 2.937487602233887 20.33039283752441 2.048457622528076 17.90955352783203 1.792117595672607 C 17.43604278564453 1.741977572441101 16.96015357971191 1.716557621955872 16.49510383605957 1.716557621955872 C 12.93299293518066 1.716557621955872 9.694713592529297 3.183437585830688 7.130343437194824 5.958627700805664 C 5.276613235473633 7.964747428894043 3.822453498840332 10.63675785064697 2.925073385238647 13.68577766418457 C 1.972813367843628 16.92123794555664 1.641623377799988 20.47916793823242 1.940693378448486 24.26073837280273 C 2.206083297729492 27.61651802062988 2.954533338546753 30.92421722412109 4.165253639221191 34.09195709228516 C 5.333253383636475 37.14792633056641 6.879013538360596 39.94320678710938 8.759603500366211 42.40012741088867 C 10.62828350067139 44.84149932861328 12.73079299926758 46.8224983215332 15.00872325897217 48.2880859375 C 17.33550262451172 49.78510665893555 19.74275398254395 50.67413711547852 22.16359329223633 50.93047714233398 C 22.63710403442383 50.98061752319336 23.11299324035645 51.00603866577148 23.57804298400879 51.00603866577148 M 23.57803916931152 52.00604248046875 C 23.07828903198242 52.00604248046875 22.57252502441406 51.9793701171875 22.05829429626465 51.92491912841797 C 11.51364326477051 50.80835723876953 2.060373306274414 38.45797729492188 0.9438034296035767 24.33957672119141 C -0.1183052062988281 10.90969085693359 6.747159957885742 0.7165527939796448 16.4951057434082 0.7165527939796448 C 16.9948558807373 0.7165527939796448 17.5006217956543 0.7432262301445007 18.01485252380371 0.7976776361465454 C 28.55949401855469 1.914247632026672 38.01277160644531 14.26461791992188 39.12934494018555 28.38301849365234 C 40.19145202636719 41.81289291381836 33.32598495483398 52.00604248046875 23.57803916931152 52.00604248046875 Z"/>
      </g>
    </g>
    <g id="finances" transform="translate(275 361.674)">
      <path id="Path_36-2" data-name="Path 36" class="cls-16" d="M100.522,126.711,68.36,164.56,38.168,123.63c-7.228,10.624-11.685,25.033-11.685,40.93,0,32.66,18.749,59.137,41.877,59.137s41.877-26.477,41.877-59.137C110.237,150.157,106.583,136.967,100.522,126.711Z" transform="translate(-26.483 -91.776)"/>
      <path id="Path_37-2" data-name="Path 37" class="cls-17" d="M90.475,71.16l30.2,40.943V52.966C108.8,52.966,98.1,59.953,90.475,71.16Z" transform="translate(-78.799 -39.319)"/>
      <path id="Path_38" data-name="Path 38" class="cls-18" d="M312.7,21.288l0-.012C305.024,8.276,293.468,0,280.541,0V59.137Z" transform="translate(-234.186)"/>
      <path id="Path_39" data-name="Path 39" class="cls-19" d="M78.024,214.6c-23.128,0-41.877-26.477-41.877-59.137a78.868,78.868,0,0,1,4.941-27.874l-2.919-3.957c-7.228,10.624-11.685,25.033-11.685,40.93,0,32.66,18.749,59.137,41.877,59.137,10.664,0,20.392-5.639,27.785-14.908A32.051,32.051,0,0,1,78.024,214.6Z" transform="translate(-26.483 -91.776)"/>
      <path id="Path_40" data-name="Path 40" class="cls-20" d="M102.514,75.713A46.331,46.331,0,0,0,90.476,88.046L93.4,92.017A60.8,60.8,0,0,1,102.514,75.713Z" transform="translate(-78.8 -56.205)"/>
    </g>
    <g id="coins" transform="translate(386.112 398.11)">
      <path id="XMLID_148_" class="cls-21" d="M23.92,48.817C12.366,48.817,3,45.452,3,42v7.949c.006,3.45,9.37,6.822,20.92,6.822S44.833,53.4,44.84,49.949V42c0,3.452-9.366,6.817-20.92,6.817" transform="translate(-0.586 2.313)"/>
      <path id="XMLID_147_" class="cls-22" d="M20.92,37.817C9.366,37.817,0,34.452,0,31v7.949c.006,3.45,9.37,6.822,20.92,6.822S41.833,42.4,41.84,38.949V31c0,3.452-9.366,6.817-20.92,6.817" transform="translate(0 0.814)"/>
      <path id="XMLID_146_" class="cls-21" d="M26.92,26.817C15.366,26.817,6,23.452,6,20v7.949c.006,3.45,9.37,6.822,20.92,6.822S47.833,31.4,47.84,27.949V20c0,3.452-9.366,6.817-20.92,6.817" transform="translate(-1.172 -0.684)"/>
      <path id="XMLID_145_" class="cls-23" d="M41.84,8.829c0,3.451-9.366,6.67-20.92,6.67S0,12.28,0,8.829,9.366,3,20.92,3,41.84,5.377,41.84,8.829" transform="translate(0 -3)"/>
      <path id="XMLID_144_" class="cls-22" d="M20.92,14.817C9.366,14.817,0,11.452,0,8v7.949c.006,3.45,9.37,6.822,20.92,6.822S41.833,19.4,41.84,15.949V8c0,3.452-9.366,6.817-20.92,6.817" transform="translate(0 -2.319)"/>
      <path id="XMLID_143_" class="cls-24" d="M4,11.074v7.948q.734.382,1.609.734V11.807Q4.733,11.456,4,11.074" transform="translate(-0.782 -1.9)"/>
      <path id="XMLID_142_" class="cls-24" d="M46,11.807v7.949q.876-.351,1.609-.734V11.074q-.734.382-1.609.733" transform="translate(-8.988 -1.9)"/>
      <path id="XMLID_141_" class="cls-24" d="M9,12.445V20.4q.772.227,1.609.429v-7.95q-.836-.2-1.609-.429" transform="translate(-1.759 -1.713)"/>
      <path id="XMLID_140_" class="cls-24" d="M41,12.874v7.951q.836-.2,1.609-.431v-7.95q-.772.227-1.609.429" transform="translate(-8.011 -1.713)"/>
      <path id="XMLID_139_" class="cls-24" d="M14,13.269V21.22c.525.1,1.06.184,1.609.264V13.533c-.55-.08-1.085-.169-1.609-.264" transform="translate(-2.736 -1.601)"/>
      <path id="XMLID_138_" class="cls-24" d="M36,13.534v7.951c.55-.081,1.085-.169,1.609-.264V13.269c-.525.1-1.06.185-1.609.265" transform="translate(-7.034 -1.601)"/>
      <path id="XMLID_137_" class="cls-24" d="M19,13.759v7.952c.529.052,1.064.1,1.609.136V13.894q-.817-.056-1.609-.135" transform="translate(-3.712 -1.534)"/>
      <path id="XMLID_136_" class="cls-24" d="M31,13.894v7.954c.545-.037,1.081-.084,1.609-.136V13.759q-.793.078-1.609.135" transform="translate(-6.057 -1.534)"/>
      <path id="XMLID_135_" class="cls-24" d="M25.8,14c-.27,0-.537,0-.8-.007v7.954c.267,0,.535.007.8.007s.537,0,.8-.007V13.994c-.267,0-.535.007-.8.007" transform="translate(-4.885 -1.502)"/>
      <path id="XMLID_134_" class="cls-25" d="M10,23.074v7.948q.734.382,1.609.734V23.807q-.876-.351-1.609-.733" transform="translate(-1.954 -0.265)"/>
      <path id="XMLID_133_" class="cls-25" d="M52,23.807v7.949q.876-.351,1.609-.734V23.074q-.734.382-1.609.733" transform="translate(-10.16 -0.265)"/>
      <path id="XMLID_132_" class="cls-25" d="M15,24.445V32.4q.772.227,1.609.429v-7.95q-.836-.2-1.609-.429" transform="translate(-2.931 -0.079)"/>
      <path id="XMLID_131_" class="cls-25" d="M47,24.874v7.951q.836-.2,1.609-.431v-7.95q-.772.227-1.609.429" transform="translate(-9.184 -0.079)"/>
      <path id="XMLID_130_" class="cls-25" d="M20,25.27v7.951c.525.1,1.06.184,1.609.264V25.534c-.55-.081-1.085-.169-1.609-.264" transform="translate(-3.908 0.034)"/>
      <path id="XMLID_129_" class="cls-25" d="M42,25.532v7.952c.55-.081,1.085-.169,1.609-.264V25.27c-.525.1-1.06.184-1.609.262" transform="translate(-8.207 0.034)"/>
      <path id="XMLID_128_" class="cls-25" d="M25,25.759v7.952c.529.052,1.064.1,1.609.136V25.894q-.817-.056-1.609-.135" transform="translate(-4.885 0.1)"/>
      <path id="XMLID_127_" class="cls-25" d="M37,25.894v7.954c.545-.037,1.081-.084,1.609-.136V25.759q-.793.078-1.609.135" transform="translate(-7.23 0.1)"/>
      <path id="XMLID_126_" class="cls-25" d="M31.8,26c-.27,0-.537,0-.8-.007v7.954c.267,0,.535.007.8.007s.537,0,.8-.007V25.994c-.267,0-.535.007-.8.007" transform="translate(-6.057 0.132)"/>
      <path id="XMLID_125_" class="cls-24" d="M4,34.074v7.948q.734.382,1.609.734V34.807Q4.733,34.456,4,34.074" transform="translate(-0.782 1.233)"/>
      <path id="XMLID_124_" class="cls-24" d="M46,34.807v7.949q.876-.351,1.609-.734V34.074q-.734.382-1.609.733" transform="translate(-8.988 1.233)"/>
      <path id="XMLID_123_" class="cls-24" d="M9,35.445V43.4q.772.227,1.609.429v-7.95q-.836-.2-1.609-.429" transform="translate(-1.759 1.42)"/>
      <path id="XMLID_122_" class="cls-24" d="M41,35.874v7.951q.836-.2,1.609-.431v-7.95q-.772.227-1.609.429" transform="translate(-8.011 1.42)"/>
      <path id="XMLID_121_" class="cls-24" d="M14,36.27v7.951c.525.1,1.06.184,1.609.264V36.534c-.55-.081-1.085-.169-1.609-.264" transform="translate(-2.736 1.532)"/>
      <path id="XMLID_120_" class="cls-24" d="M36,36.532v7.952c.55-.081,1.085-.169,1.609-.264V36.27c-.525.1-1.06.184-1.609.262" transform="translate(-7.034 1.532)"/>
      <path id="XMLID_119_" class="cls-24" d="M19,36.759v7.952c.529.052,1.064.1,1.609.136V36.894q-.817-.056-1.609-.135" transform="translate(-3.712 1.599)"/>
      <path id="XMLID_118_" class="cls-24" d="M31,36.894v7.954c.545-.037,1.081-.084,1.609-.136V36.759q-.793.078-1.609.135" transform="translate(-6.057 1.599)"/>
      <path id="XMLID_117_" class="cls-24" d="M25.8,37c-.27,0-.537,0-.8-.007v7.954c.267,0,.535.007.8.007s.537,0,.8-.007V36.994c-.267,0-.535.007-.8.007" transform="translate(-4.885 1.631)"/>
      <path id="XMLID_116_" class="cls-25" d="M7,45.074v7.948q.734.382,1.609.734V45.807Q7.733,45.456,7,45.074" transform="translate(-1.368 2.732)"/>
      <path id="XMLID_115_" class="cls-25" d="M49,45.807v7.949q.876-.351,1.609-.734V45.074q-.734.382-1.609.733" transform="translate(-9.574 2.732)"/>
      <path id="XMLID_114_" class="cls-25" d="M12,46.445V54.4q.772.227,1.609.429v-7.95q-.836-.2-1.609-.429" transform="translate(-2.345 2.919)"/>
      <path id="XMLID_113_" class="cls-25" d="M44,46.874v7.951q.836-.2,1.609-.431v-7.95q-.772.227-1.609.429" transform="translate(-8.597 2.919)"/>
      <path id="XMLID_112_" class="cls-25" d="M17,47.27v7.951c.525.1,1.06.184,1.609.264V47.534c-.55-.081-1.085-.169-1.609-.264" transform="translate(-3.322 3.031)"/>
      <path id="XMLID_111_" class="cls-25" d="M39,47.532v7.952c.55-.081,1.085-.169,1.609-.264V47.27c-.525.1-1.06.184-1.609.262" transform="translate(-7.62 3.031)"/>
      <path id="XMLID_110_" class="cls-25" d="M22,47.759v7.952c.529.052,1.064.1,1.609.136V47.894q-.817-.056-1.609-.135" transform="translate(-4.299 3.098)"/>
      <path id="XMLID_109_" class="cls-25" d="M34,47.894v7.954c.545-.037,1.081-.084,1.609-.136V47.759q-.793.078-1.609.135" transform="translate(-6.643 3.098)"/>
      <path id="XMLID_108_" class="cls-25" d="M28.8,48c-.27,0-.537,0-.8-.007v7.954c.267,0,.535.007.8.007s.537,0,.8-.007V47.994c-.267,0-.535.007-.8.007" transform="translate(-5.471 3.13)"/>
      <path id="XMLID_107_" class="cls-26" d="M41.792,39.372c-2.285,2.838-10.5,5.258-20.286,5.258-7.652,0-14.34-1.481-17.988-3.483A2.2,2.2,0,0,0,3,42.506c0,3.452,9.366,6.67,20.92,6.67s20.92-3.218,20.92-6.67c0-1.19-1.114-2.253-3.048-3.134" transform="translate(-0.586 1.955)"/>
      <path id="XMLID_106_" class="cls-23" d="M25.747,33.72c-10.631,0-19.4-2.858-20.738-6C1.888,28.716,0,30.046,0,31.595c0,3.451,9.366,6.67,20.92,6.67s20.92-3.219,20.92-6.67a1.88,1.88,0,0,0-.06-.449A45.661,45.661,0,0,1,25.747,33.72" transform="translate(0 0.367)"/>
      <path id="XMLID_105_" class="cls-26" d="M42.2,16.549c-2.5,2.75-10.556,5.057-20.11,5.057A46.671,46.671,0,0,1,6.549,19.22,2.227,2.227,0,0,0,6,20.618c0,3.452,9.366,6.67,20.92,6.67s20.92-3.218,20.92-6.67c0-1.65-2.143-3.053-5.638-4.069" transform="translate(-1.172 -1.154)"/>
    </g>
    <g id="pen" transform="translate(325.639 294.841) rotate(-45)">
      <path id="Path_41" data-name="Path 41" class="cls-27" d="M3.026,4.438a.881.881,0,0,1-.792-.208L.113,2.11A1.261,1.261,0,0,1,.4.405a1.259,1.259,0,0,1,1.7-.291L4.23,2.235a1.259,1.259,0,0,1-.291,1.7,1.741,1.741,0,0,1-.913.5" transform="translate(60.161 13.431)"/>
      <path id="Path_42" data-name="Path 42" class="cls-28" d="M-3.777,50.114l53.89-53.89,5.654,5.654L1.877,55.767Z" transform="translate(12.492 5.68)"/>
      <g id="Group_18-2" data-name="Group 18" transform="translate(-0.278 3.685)">
        <path id="Path_43" data-name="Path 43" class="cls-27" d="M.766,4.173a.881.881,0,0,1-.792-.208,1.259,1.259,0,0,1,.291-1.7l2-2a1.259,1.259,0,0,1,1.7-.291,1.259,1.259,0,0,1-.291,1.7l-2,2a1.742,1.742,0,0,1-.913.5" transform="translate(-5.12 67.936)"/>
        <path id="Path_44" data-name="Path 44" class="cls-27" d="M7.978,3.986,3.987,7.977-.28,3.712,3.713-.28Z" transform="translate(63.843 -4.811)"/>
        <path id="Path_45" data-name="Path 45" class="cls-27" d="M.161,28.1l-2.12-2.12L25.985-1.958,28.1.161Z" transform="translate(42.676 9.947)"/>
        <path id="Path_46" data-name="Path 46" class="cls-27" d="M5.234,11.221-.42,5.567,5.569-.42l5.654,5.653Z" transform="translate(3.424 52.53)"/>
      </g>
      <g id="Group_19" data-name="Group 19" transform="translate(3.058 -0.23)">
        <path id="Path_47" data-name="Path 47" class="cls-28" d="M5.132-.387h0L9.372,3.854h0A13.323,13.323,0,0,1,1.117,9.4l-1.849.316.316-1.849A13.323,13.323,0,0,1,5.132-.387" transform="translate(-4.756 63.106)"/>
        <path id="Path_48" data-name="Path 48" class="cls-29" d="M3.961,7.952-.28,3.712,3.713-.28,7.952,3.961Z" transform="translate(64.525 -4.863)"/>
      </g>
      <path id="Path_49" data-name="Path 49" class="cls-27" d="M.169,38.091l-2.826-2.826L35.265-2.658,38.091.169Z" transform="translate(19.357 12.546)"/>
    </g>
    <g id="pen-2" data-name="pen" transform="translate(308.385 294.841) rotate(-45)">
      <path id="Path_41-2" data-name="Path 41" class="cls-30" d="M3.026,4.438a.881.881,0,0,1-.792-.208L.113,2.11A1.261,1.261,0,0,1,.4.405a1.259,1.259,0,0,1,1.7-.291L4.23,2.235a1.259,1.259,0,0,1-.291,1.7,1.741,1.741,0,0,1-.913.5" transform="translate(60.161 13.431)"/>
      <path id="Path_42-2" data-name="Path 42" class="cls-31" d="M-3.777,50.114l53.89-53.89,5.654,5.654L1.877,55.767Z" transform="translate(12.492 5.68)"/>
      <g id="Group_18-3" data-name="Group 18" transform="translate(-0.278 3.685)">
        <path id="Path_43-2" data-name="Path 43" class="cls-30" d="M.766,4.173a.881.881,0,0,1-.792-.208,1.259,1.259,0,0,1,.291-1.7l2-2a1.259,1.259,0,0,1,1.7-.291,1.259,1.259,0,0,1-.291,1.7l-2,2a1.742,1.742,0,0,1-.913.5" transform="translate(-5.12 67.936)"/>
        <path id="Path_44-2" data-name="Path 44" class="cls-30" d="M7.978,3.986,3.987,7.977-.28,3.712,3.713-.28Z" transform="translate(63.843 -4.811)"/>
        <path id="Path_45-2" data-name="Path 45" class="cls-30" d="M.161,28.1l-2.12-2.12L25.985-1.958,28.1.161Z" transform="translate(42.676 9.947)"/>
        <path id="Path_46-2" data-name="Path 46" class="cls-30" d="M5.234,11.221-.42,5.567,5.569-.42l5.654,5.653Z" transform="translate(3.424 52.53)"/>
      </g>
      <g id="Group_19-2" data-name="Group 19" transform="translate(3.058 -0.23)">
        <path id="Path_47-2" data-name="Path 47" class="cls-31" d="M5.132-.387h0L9.372,3.854h0A13.323,13.323,0,0,1,1.117,9.4l-1.849.316.316-1.849A13.323,13.323,0,0,1,5.132-.387" transform="translate(-4.756 63.106)"/>
        <path id="Path_48-2" data-name="Path 48" class="cls-31" d="M3.961,7.952-.28,3.712,3.713-.28,7.952,3.961Z" transform="translate(64.525 -4.863)"/>
      </g>
      <path id="Path_49-2" data-name="Path 49" class="cls-30" d="M.169,38.091l-2.826-2.826L35.265-2.658,38.091.169Z" transform="translate(19.357 12.546)"/>
    </g>
  </g>
</svg>
