<svg xmlns="http://www.w3.org/2000/svg" viewBox="1417 578.116 318.66 275.36">
  <defs>
    <style>
      .cls-1, .cls-8 {
        fill: #fdcb6e;
      }

      .cls-1 {
        fill-rule: evenodd;
      }

      .cls-2 {
        fill: #fff;
      }

      .cls-3 {
        fill: #3b3b3b;
      }

      .cls-4 {
        fill: #2d3436;
      }

      .cls-5 {
        fill: #0984e3;
      }

      .cls-6 {
        fill: #e0632e;
      }

      .cls-7 {
        fill: #dfe6e9;
      }
    </style>
  </defs>
  <g id="Governance_and_Risk_Assurance" data-name="Governance and Risk Assurance" transform="translate(873 477.566)">
    <g id="settings" transform="translate(556.25 174.893)">
      <g id="settings-work-tool" transform="translate(56.488 8.679)">
        <g id="Group_116" data-name="Group 116" transform="translate(0 0)">
          <path id="Path_175" data-name="Path 175" class="cls-1" d="M180,58.494c-.286-1.85-3.245-3.24-5.8-3.24-8.273,0-15.615-3.541-18.694-9.016-3.145-5.608-1.117-12.149,5.049-16.271,1.941-1.293,2.177-3.458.549-4.962a81.7,81.7,0,0,0-14.3-10.527,6.428,6.428,0,0,0-6.861.4c-5.381,4.344-15.047,5.958-22.517,3.687-7.773-2.383-12.675-8.124-12.195-14.286.158-1.936-1.783-3.618-4.431-3.843A123.483,123.483,0,0,0,80.478.4c-2.617.211-4.558,1.854-4.47,3.765.294,6.1-4.666,11.742-12.362,14.039-7.38,2.2-16.978.6-22.349-3.709a6.447,6.447,0,0,0-6.813-.418A82.8,82.8,0,0,0,19.879,24.6c-1.667,1.511-1.422,3.7.539,5C26.7,33.749,28.73,40.347,25.466,46.02c-3.117,5.409-10.822,8.894-19.644,8.894-2.863-.067-4.9,1.333-5.215,3.23A48.178,48.178,0,0,0,.568,73.109c.284,1.858,3.333,3.236,5.92,3.236,7.862-.146,15.41,3.4,18.576,9.017s1.127,12.145-5.048,16.271c-1.931,1.293-2.177,3.454-.549,4.958a81.923,81.923,0,0,0,14.282,10.531,6.422,6.422,0,0,0,6.871-.4c5.4-4.354,15.067-5.966,22.507-3.69,7.792,2.376,12.694,8.116,12.214,14.281-.157,1.937,1.794,3.622,4.431,3.844q5.175.44,10.4.44,4.955,0,9.911-.4c2.618-.211,4.558-1.854,4.47-3.768-.3-6.1,4.666-11.738,12.352-14.032,7.43-2.212,16.988-.593,22.359,3.708a6.463,6.463,0,0,0,6.814.415A82.99,82.99,0,0,0,160.683,107c1.666-1.508,1.431-3.7-.539-5-6.284-4.147-8.323-10.746-5.058-16.415,3.069-5.337,10.488-8.92,18.469-8.92l1.117.021c2.589.153,4.97-1.3,5.284-3.226A48.138,48.138,0,0,0,180,58.494ZM90.425,87.887c-16.606,0-30.114-9.845-30.114-21.948S73.819,43.991,90.425,43.991s30.113,9.845,30.113,21.948S107.03,87.887,90.425,87.887Z" transform="translate(-0.003 0)"/>
        </g>
      </g>
      <ellipse id="Ellipse_13" data-name="Ellipse 13" class="cls-2" cx="46.896" cy="34.179" rx="46.896" ry="34.179" transform="translate(99.917 40.178)"/>
      <ellipse id="Ellipse_14" data-name="Ellipse 14" class="cls-3" cx="28.329" cy="20.508" rx="28.329" ry="20.508" transform="translate(118.293 57.198)"/>
      <rect id="Rectangle_33" data-name="Rectangle 33" class="cls-2" width="294.392" height="77.566" transform="translate(0)"/>
    </g>
    <g id="umbrella" transform="translate(544 100.549)">
      <path id="Path_168" data-name="Path 168" class="cls-4" d="M213.814,242.965c-4.09,0-7.408-2.418-7.408-5.4V5.4c0-2.981,3.318-5.4,7.408-5.4s7.408,2.418,7.408,5.4V237.566C221.222,240.547,217.9,242.965,213.814,242.965Zm0,0" transform="translate(-54.466 0)"/>
      <path id="Path_169" data-name="Path 169" class="cls-5" d="M5.836,185.915c-22.5-62,28.222-125.547,113.286-141.945a212.868,212.868,0,0,1,22.593-3.105C229.2,33.626,308.168,79.445,318.1,143.2a85.9,85.9,0,0,1-4.243,42.71v-.031c-11.98-14.584-37.91-19.328-57.92-10.6a39.067,39.067,0,0,0-14.115,10.094l-.487.534-4.4-5.134c-12.357-14.416-38.406-18.8-58.185-9.794a40.253,40.253,0,0,0-11.406,7.634l-7.5,7.294-7.5-7.288c-13.991-13.6-40.458-16.353-59.116-6.155a37.3,37.3,0,0,0-10.475,8.313l-4.4,5.13-.461-.54c-12.357-14.414-38.409-18.8-58.185-9.79a38.4,38.4,0,0,0-13.85,10.288Zm0,0" transform="translate(-0.501 -18.539)"/>
      <path id="Path_170" data-name="Path 170" class="cls-6" d="M216.445,40.156,236.366,56c39.605,31.483,61.572,72.644,61.566,115.359v14.578l5.327-5.1c15.813-12.447,42.479-13.2,59.557-1.67a36.118,36.118,0,0,1,6.31,5.363l1.747.1C392.4,122.481,340.742,59.383,255.479,43.69a215.829,215.829,0,0,0-39.034-3.534Zm0,0" transform="translate(-57.098 -18.559)"/>
      <path id="Path_171" data-name="Path 171" class="cls-7" d="M187.5,40.156,167.576,56c-39.6,31.483-61.566,72.644-61.561,115.354v14.578l4.4-5.134c12.357-14.416,38.406-18.8,58.185-9.794a40.253,40.253,0,0,1,11.406,7.634l7.5,7.294Zm0,0" transform="translate(-28.155 -18.56)"/>
      <path id="Path_172" data-name="Path 172" class="cls-8" d="M236.038,470.241c16.367,0,29.632-9.67,29.632-21.6v-10.8c0-2.983-3.315-5.4-7.408-5.4s-7.408,2.416-7.408,5.4v10.8c0,5.964-6.633,10.8-14.816,10.8s-14.816-4.834-14.816-10.8v-27H206.407v27c0,11.926,13.268,21.6,29.632,21.6Zm0,0" transform="translate(-54.467 -194.881)"/>
      <path id="Path_173" data-name="Path 173" class="cls-5" d="M297.932,185.935V171.357c0-42.708-21.964-83.863-61.561-115.344L216.445,40.156V185.935l7.5-7.288c13.994-13.6,40.461-16.353,59.116-6.155a37.264,37.264,0,0,1,10.475,8.315v.025Z" transform="translate(-57.098 -18.56)"/>
      <path id="Path_174" data-name="Path 174" class="cls-7" d="M374.88,144.107a86.26,86.26,0,0,0-2.185-10.431c-.118-.437-.222-.876-.349-1.313a90.007,90.007,0,0,0-3.45-9.8c-.207-.492-.406-.994-.623-1.485a96,96,0,0,0-4.667-9.288c-.271-.492-.553-.979-.845-1.458a105.456,105.456,0,0,0-5.851-8.859c-.32-.433-.654-.859-.98-1.286q-3.295-4.355-7.074-8.487c-.3-.33-.623-.647-.934-.977-2.637-2.807-5.422-5.544-8.379-8.168-.19-.168-.392-.326-.585-.492-3.119-2.737-6.393-5.4-9.838-7.895s-7.036-4.859-10.763-7.136c-.274-.162-.525-.336-.8-.5-3.6-2.16-7.347-4.179-11.2-6.1-.438-.221-.876-.447-1.32-.664-3.785-1.853-7.7-3.58-11.711-5.189-.556-.221-1.1-.447-1.652-.664q-6.01-2.348-12.328-4.319l-1.764-.54q-6.377-1.929-13.009-3.471c-.562-.13-1.133-.25-1.7-.374-4.517-1-9.117-1.878-13.8-2.586l-1.332-.183c-4.854-.7-9.78-1.269-14.816-1.62l-.556-.034c-5.252-.42-10.541-.637-15.92-.637L236.366,56c39.6,31.485,61.572,72.647,61.566,115.361v14.578l.461-.54c12.36-14.414,38.412-18.794,58.185-9.786a38.377,38.377,0,0,1,13.85,10.288v.034a86.922,86.922,0,0,0,5.258-29.7C375.718,152.46,374.917,144.4,374.88,144.107Zm.1.874" transform="translate(-57.098 -18.559)"/>
    </g>
  </g>
</svg>
