<svg xmlns="http://www.w3.org/2000/svg" viewBox="1033 577.922 318.66 275.36">
  <defs>
    <style>
      .cls-1 {
        fill: #b2bec3;
      }

      .cls-2 {
        fill: #53c7f0;
      }

      .cls-3 {
        fill: #ffd949;
      }

      .cls-4 {
        fill: #f4bf1a;
      }

      .cls-5 {
        fill: #dca815;
      }

      .cls-6 {
        fill: #2d3436;
        font-size: 7px;
        font-family: Montserrat-Regular, Montserrat;
      }

      .cls-7 {
        fill: #2b8272;
      }

      .cls-8 {
        fill: #4b9587;
      }

      .cls-9 {
        fill: #359685;
      }

      .cls-10 {
        fill: #53a697;
      }

      .cls-11 {
        fill: #3db39e;
      }

      .cls-12 {
        fill: #81cec0;
      }

      .cls-13 {
        fill: #7383bf;
      }

      .cls-14 {
        fill: #434c6d;
      }

      .cls-15 {
        fill: #424c59;
      }

      .cls-16 {
        fill: #576271;
      }

      .cls-17 {
        fill: #73c1dd;
      }

      .cls-18 {
        fill: #6d7a8a;
      }

      .cls-19 {
        fill: #1277bd;
      }

      .cls-20 {
        fill: #f6ab35;
      }

      .cls-21 {
        fill: #d73d2b;
      }

      .cls-22 {
        fill: #fff;
      }
    </style>
  </defs>
  <g id="payroll" transform="translate(634 494.035)">
    <g id="contract1" transform="translate(424.795 112.547)">
      <g id="Group_316" data-name="Group 316" transform="translate(0 0)">
        <g id="Group_315" data-name="Group 315">
          <path id="Path_231" data-name="Path 231" class="cls-1" d="M142.4,35.146,138.8,33.908a10.483,10.483,0,0,0-2.93-.5c-4.057,0-7.663,2.97-9.015,7.178l-2.028,6.683v-5.2a3.173,3.173,0,0,0-.9-1.98L86.963.743A2.33,2.33,0,0,0,85.385,0H13.04a2.24,2.24,0,0,0-2.254,2.475v7.673H2.448A2.24,2.24,0,0,0,.194,12.622V160.879a2.24,2.24,0,0,0,2.254,2.475H111.979a2.24,2.24,0,0,0,2.254-2.475v-7.673h8.339a2.24,2.24,0,0,0,2.254-2.475V117.318l6.31-9.405.225-.743,16.9-59.154C150.067,42.571,147.362,36.878,142.4,35.146ZM87.638,8.415,117.162,39.6H87.638ZM109.725,158.4H4.7V15.1h6.085V150.731a2.24,2.24,0,0,0,2.254,2.475h96.685v5.2Zm10.818-10.148H15.294V4.95H83.131V42.076a2.24,2.24,0,0,0,2.254,2.475h35.158V63.114L109.95,99.745v.743l.451,31.433a2.349,2.349,0,0,0,1.578,2.227,2.051,2.051,0,0,0,2.479-.99l6.085-8.91v24.008Zm-5.86-24.008-.451-20.543,11.269,3.96Zm29.524-77.717L127.98,103.21l-13.072-4.7,16.227-56.431c.9-2.722,3.606-4.455,6.085-3.465l3.606,1.238A5.317,5.317,0,0,1,144.207,46.531Z" transform="translate(35.919 10.138)"/>
          <path id="Path_232" data-name="Path 232" class="cls-2" d="M96.565,73.866h32.454a2.24,2.24,0,0,0,2.254-2.475V46.146a2.24,2.24,0,0,0-2.254-2.475H96.565a2.24,2.24,0,0,0-2.254,2.475V71.392A2.552,2.552,0,0,0,96.565,73.866Zm2.254-25.246h27.946v20.3H98.819Z" transform="translate(-30.027 -19.177)"/>
          <path id="Path_234" data-name="Path 234" class="cls-2" d="M81.507,251.163H150.02a2.486,2.486,0,0,0,0-4.95H81.507a2.486,2.486,0,0,0,0,4.95Z" transform="translate(-19.476 -155.14)"/>
          <path id="Path_235" data-name="Path 235" class="cls-2" d="M81.507,306.127H150.02a2.486,2.486,0,0,0,0-4.95H81.507a2.486,2.486,0,0,0,0,4.95Z" transform="translate(-19.476 -192.036)"/>
          <path id="Path_236" data-name="Path 236" class="cls-2" d="M152.048,358.617a2.24,2.24,0,0,0-2.254-2.475H81.507a2.486,2.486,0,0,0,0,4.95H150.02A2.367,2.367,0,0,0,152.048,358.617Z" transform="translate(-19.476 -228.933)"/>
          <path id="Path_237" data-name="Path 237" class="cls-2" d="M262.361,411.106H228.33a2.486,2.486,0,0,0,0,4.95h33.806a2.24,2.24,0,0,0,2.254-2.475A2.209,2.209,0,0,0,262.361,411.106Z" transform="translate(-122.352 -265.829)"/>
          <g id="Group_317" data-name="Group 317">
            <g id="coin" transform="translate(0 1.491)">
              <path id="XMLID_99_" class="cls-3" d="M22.605,39.592C13.71,39.592,6.5,30.729,6.5,19.8S13.71,0,22.605,0,38.71,8.863,38.71,19.8s-7.21,19.8-16.105,19.8" transform="translate(-2.556)"/>
              <path id="XMLID_132_" class="cls-4" d="M4.444,19.8C4.444,9.684,10.613,1.349,18.577.153A13.3,13.3,0,0,0,16.605,0C7.71,0,.5,8.863.5,19.8s7.21,19.8,16.105,19.8a13.3,13.3,0,0,0,1.972-.153C10.613,38.243,4.444,29.907,4.444,19.8" transform="translate(-0.5)"/>
              <path id="XMLID_115_" class="cls-4" d="M24.26,37.325H24.2a10.9,10.9,0,0,1-1.377-.088.7.7,0,0,1-.575-.786.674.674,0,0,1,.731-.618,9.632,9.632,0,0,0,1.221.078.707.707,0,0,1,.686.707.661.661,0,0,1-.629.707m3.822-.761a.661.661,0,0,1-.615-.458.723.723,0,0,1,.383-.911,10.442,10.442,0,0,0,1.121-.535.635.635,0,0,1,.885.306.733.733,0,0,1-.285.952,11.8,11.8,0,0,1-1.258.6.606.606,0,0,1-.231.046m-8.9-.54a.616.616,0,0,1-.3-.077,12.348,12.348,0,0,1-1.189-.741.74.74,0,0,1-.19-.978.631.631,0,0,1,.91-.2,10.967,10.967,0,0,0,1.064.663.733.733,0,0,1,.289.95.653.653,0,0,1-.586.387M32.4,33.508a.634.634,0,0,1-.463-.205.745.745,0,0,1,0-1c.286-.31.564-.643.826-.991a.627.627,0,0,1,.925-.1.744.744,0,0,1,.1.995c-.29.383-.6.752-.913,1.094a.635.635,0,0,1-.467.209m-17.234-1a.641.641,0,0,1-.509-.258c-.285-.375-.559-.771-.814-1.177a.741.741,0,0,1,.177-.982.629.629,0,0,1,.912.191c.232.37.481.731.741,1.071a.745.745,0,0,1-.091,1,.628.628,0,0,1-.417.16M35.294,28.88a.621.621,0,0,1-.262-.059.729.729,0,0,1-.341-.931c.165-.406.316-.827.448-1.251a.649.649,0,0,1,.833-.445.721.721,0,0,1,.413.9c-.145.462-.309.921-.488,1.364a.66.66,0,0,1-.6.425m-22.63-1.249a.665.665,0,0,1-.623-.479c-.145-.458-.274-.93-.383-1.4a.71.71,0,0,1,.479-.856.655.655,0,0,1,.8.515c.1.433.219.867.352,1.287a.721.721,0,0,1-.41.9.606.606,0,0,1-.212.039m23.872-4.169-.051,0a.694.694,0,0,1-.6-.76c.031-.428.047-.866.047-1.3a.7.7,0,0,1,.657-.73.663.663,0,0,1,.657.684V21.4c0,.47-.017.944-.051,1.409a.679.679,0,0,1-.655.653M11.823,22.115a.677.677,0,0,1-.657-.7V21.4c0-.482.018-.967.053-1.44a.675.675,0,0,1,.707-.649.693.693,0,0,1,.6.761c-.032.437-.049.884-.049,1.328a.691.691,0,0,1-.657.715M36.1,17.9a.667.667,0,0,1-.636-.534c-.1-.435-.221-.867-.355-1.287a.721.721,0,0,1,.409-.9.646.646,0,0,1,.835.44c.146.457.275.928.386,1.4a.712.712,0,0,1-.477.858.573.573,0,0,1-.162.022M12.656,16.615a.62.62,0,0,1-.212-.038.721.721,0,0,1-.412-.9c.145-.46.31-.918.491-1.363a.641.641,0,0,1,.866-.365.729.729,0,0,1,.339.931c-.166.408-.317.829-.45,1.251a.664.664,0,0,1-.623.481M34,12.8a.645.645,0,0,1-.545-.311c-.233-.369-.482-.729-.743-1.069a.745.745,0,0,1,.089-1,.627.627,0,0,1,.926.1c.286.374.561.769.816,1.176a.741.741,0,0,1-.176.982A.623.623,0,0,1,34,12.8M15.151,11.727a.627.627,0,0,1-.415-.16.743.743,0,0,1-.093-.995c.29-.382.6-.749.914-1.092a.626.626,0,0,1,.929,0,.745.745,0,0,1,0,1c-.287.31-.566.643-.83.99a.636.636,0,0,1-.509.259M30.324,8.877a.618.618,0,0,1-.358-.115A11.011,11.011,0,0,0,28.9,8.1a.733.733,0,0,1-.29-.949.636.636,0,0,1,.883-.312,12.15,12.15,0,0,1,1.19.737.74.74,0,0,1,.192.978.644.644,0,0,1-.552.321M19.161,8.206a.653.653,0,0,1-.586-.386.733.733,0,0,1,.287-.951,11.731,11.731,0,0,1,1.259-.6.645.645,0,0,1,.846.414.724.724,0,0,1-.386.91,10.387,10.387,0,0,0-1.123.532.614.614,0,0,1-.3.077m6.315-1.237a.562.562,0,0,1-.077,0,9.671,9.671,0,0,0-1.2-.074.7.7,0,0,1-.671-.707.673.673,0,0,1,.644-.707H24.2a10.88,10.88,0,0,1,1.348.084.7.7,0,0,1,.577.783.676.676,0,0,1-.652.626" transform="translate(-4.155 -1.605)"/>
              <path id="XMLID_114_" class="cls-5" d="M4.443,29H.5c.013.476.038.947.078,1.414H4.524q-.061-.7-.082-1.414" transform="translate(-0.5 -8.497)"/>
              <path id="XMLID_113_" class="cls-5" d="M4.609,24H.668c-.055.466-.094.938-.121,1.414H4.49c.028-.476.064-.948.119-1.414" transform="translate(-0.516 -7.032)"/>
              <path id="XMLID_112_" class="cls-5" d="M4.992,34H1.047q.128.717.3,1.414H5.287q-.168-.7-.3-1.414" transform="translate(-0.687 -9.962)"/>
              <path id="XMLID_111_" class="cls-5" d="M6.39,39H2.443c.168.482.353.952.55,1.414H6.938q-.3-.691-.548-1.414" transform="translate(-1.166 -11.427)"/>
              <path id="XMLID_110_" class="cls-5" d="M5.537,19H1.6c-.128.464-.248.935-.348,1.414H5.2c.1-.478.211-.951.339-1.414" transform="translate(-0.757 -5.567)"/>
              <path id="XMLID_109_" class="cls-5" d="M7.391,14H3.447c-.217.46-.421.931-.608,1.414H6.786q.28-.723.605-1.414" transform="translate(-1.301 -4.102)"/>
              <path id="XMLID_108_" class="cls-5" d="M11.231,8H7.282q-.561.674-1.066,1.414h3.947Q10.669,8.675,11.231,8" transform="translate(-2.459 -2.344)"/>
              <path id="XMLID_107_" class="cls-5" d="M16.894,3H12.941a15.808,15.808,0,0,0-1.93,1.414h3.95A15.834,15.834,0,0,1,16.894,3" transform="translate(-4.102 -0.879)"/>
              <path id="XMLID_106_" class="cls-5" d="M9.462,45H5.516q.458.735.968,1.414h3.949q-.511-.679-.97-1.414" transform="translate(-2.219 -13.185)"/>
              <path id="XMLID_105_" class="cls-5" d="M9.832,50a16.554,16.554,0,0,0,1.659,1.414h3.953A16.41,16.41,0,0,1,13.775,50Z" transform="translate(-3.698 -14.65)"/>
            </g>
            <g id="coin-2" data-name="coin" transform="translate(11.132 29.521)">
              <path id="XMLID_99_2" data-name="XMLID_99_" class="cls-3" d="M22.605,39.592C13.71,39.592,6.5,30.729,6.5,19.8S13.71,0,22.605,0,38.71,8.863,38.71,19.8s-7.21,19.8-16.105,19.8" transform="translate(-2.556)"/>
              <path id="XMLID_132_2" data-name="XMLID_132_" class="cls-4" d="M4.444,19.8C4.444,9.684,10.613,1.349,18.577.153A13.3,13.3,0,0,0,16.605,0C7.71,0,.5,8.863.5,19.8s7.21,19.8,16.105,19.8a13.3,13.3,0,0,0,1.972-.153C10.613,38.243,4.444,29.907,4.444,19.8" transform="translate(-0.5)"/>
              <path id="XMLID_115_2" data-name="XMLID_115_" class="cls-4" d="M24.26,37.325H24.2a10.9,10.9,0,0,1-1.377-.088.7.7,0,0,1-.575-.786.674.674,0,0,1,.731-.618,9.632,9.632,0,0,0,1.221.078.707.707,0,0,1,.686.707.661.661,0,0,1-.629.707m3.822-.761a.661.661,0,0,1-.615-.458.723.723,0,0,1,.383-.911,10.442,10.442,0,0,0,1.121-.535.635.635,0,0,1,.885.306.733.733,0,0,1-.285.952,11.8,11.8,0,0,1-1.258.6.606.606,0,0,1-.231.046m-8.9-.54a.616.616,0,0,1-.3-.077,12.348,12.348,0,0,1-1.189-.741.74.74,0,0,1-.19-.978.631.631,0,0,1,.91-.2,10.967,10.967,0,0,0,1.064.663.733.733,0,0,1,.289.95.653.653,0,0,1-.586.387M32.4,33.508a.634.634,0,0,1-.463-.205.745.745,0,0,1,0-1c.286-.31.564-.643.826-.991a.627.627,0,0,1,.925-.1.744.744,0,0,1,.1.995c-.29.383-.6.752-.913,1.094a.635.635,0,0,1-.467.209m-17.234-1a.641.641,0,0,1-.509-.258c-.285-.375-.559-.771-.814-1.177a.741.741,0,0,1,.177-.982.629.629,0,0,1,.912.191c.232.37.481.731.741,1.071a.745.745,0,0,1-.091,1,.628.628,0,0,1-.417.16M35.294,28.88a.621.621,0,0,1-.262-.059.729.729,0,0,1-.341-.931c.165-.406.316-.827.448-1.251a.649.649,0,0,1,.833-.445.721.721,0,0,1,.413.9c-.145.462-.309.921-.488,1.364a.66.66,0,0,1-.6.425m-22.63-1.249a.665.665,0,0,1-.623-.479c-.145-.458-.274-.93-.383-1.4a.71.71,0,0,1,.479-.856.655.655,0,0,1,.8.515c.1.433.219.867.352,1.287a.721.721,0,0,1-.41.9.606.606,0,0,1-.212.039m23.872-4.169-.051,0a.694.694,0,0,1-.6-.76c.031-.428.047-.866.047-1.3a.7.7,0,0,1,.657-.73.663.663,0,0,1,.657.684V21.4c0,.47-.017.944-.051,1.409a.679.679,0,0,1-.655.653M11.823,22.115a.677.677,0,0,1-.657-.7V21.4c0-.482.018-.967.053-1.44a.675.675,0,0,1,.707-.649.693.693,0,0,1,.6.761c-.032.437-.049.884-.049,1.328a.691.691,0,0,1-.657.715M36.1,17.9a.667.667,0,0,1-.636-.534c-.1-.435-.221-.867-.355-1.287a.721.721,0,0,1,.409-.9.646.646,0,0,1,.835.44c.146.457.275.928.386,1.4a.712.712,0,0,1-.477.858.573.573,0,0,1-.162.022M12.656,16.615a.62.62,0,0,1-.212-.038.721.721,0,0,1-.412-.9c.145-.46.31-.918.491-1.363a.641.641,0,0,1,.866-.365.729.729,0,0,1,.339.931c-.166.408-.317.829-.45,1.251a.664.664,0,0,1-.623.481M34,12.8a.645.645,0,0,1-.545-.311c-.233-.369-.482-.729-.743-1.069a.745.745,0,0,1,.089-1,.627.627,0,0,1,.926.1c.286.374.561.769.816,1.176a.741.741,0,0,1-.176.982A.623.623,0,0,1,34,12.8M15.151,11.727a.627.627,0,0,1-.415-.16.743.743,0,0,1-.093-.995c.29-.382.6-.749.914-1.092a.626.626,0,0,1,.929,0,.745.745,0,0,1,0,1c-.287.31-.566.643-.83.99a.636.636,0,0,1-.509.259M30.324,8.877a.618.618,0,0,1-.358-.115A11.011,11.011,0,0,0,28.9,8.1a.733.733,0,0,1-.29-.949.636.636,0,0,1,.883-.312,12.15,12.15,0,0,1,1.19.737.74.74,0,0,1,.192.978.644.644,0,0,1-.552.321M19.161,8.206a.653.653,0,0,1-.586-.386.733.733,0,0,1,.287-.951,11.731,11.731,0,0,1,1.259-.6.645.645,0,0,1,.846.414.724.724,0,0,1-.386.91,10.387,10.387,0,0,0-1.123.532.614.614,0,0,1-.3.077m6.315-1.237a.562.562,0,0,1-.077,0,9.671,9.671,0,0,0-1.2-.074.7.7,0,0,1-.671-.707.673.673,0,0,1,.644-.707H24.2a10.88,10.88,0,0,1,1.348.084.7.7,0,0,1,.577.783.676.676,0,0,1-.652.626" transform="translate(-4.155 -1.605)"/>
              <path id="XMLID_114_2" data-name="XMLID_114_" class="cls-5" d="M4.443,29H.5c.013.476.038.947.078,1.414H4.524q-.061-.7-.082-1.414" transform="translate(-0.5 -8.497)"/>
              <path id="XMLID_113_2" data-name="XMLID_113_" class="cls-5" d="M4.609,24H.668c-.055.466-.094.938-.121,1.414H4.49c.028-.476.064-.948.119-1.414" transform="translate(-0.516 -7.032)"/>
              <path id="XMLID_112_2" data-name="XMLID_112_" class="cls-5" d="M4.992,34H1.047q.128.717.3,1.414H5.287q-.168-.7-.3-1.414" transform="translate(-0.687 -9.962)"/>
              <path id="XMLID_111_2" data-name="XMLID_111_" class="cls-5" d="M6.39,39H2.443c.168.482.353.952.55,1.414H6.938q-.3-.691-.548-1.414" transform="translate(-1.166 -11.427)"/>
              <path id="XMLID_110_2" data-name="XMLID_110_" class="cls-5" d="M5.537,19H1.6c-.128.464-.248.935-.348,1.414H5.2c.1-.478.211-.951.339-1.414" transform="translate(-0.757 -5.567)"/>
              <path id="XMLID_109_2" data-name="XMLID_109_" class="cls-5" d="M7.391,14H3.447c-.217.46-.421.931-.608,1.414H6.786q.28-.723.605-1.414" transform="translate(-1.301 -4.102)"/>
              <path id="XMLID_108_2" data-name="XMLID_108_" class="cls-5" d="M11.231,8H7.282q-.561.674-1.066,1.414h3.947Q10.669,8.675,11.231,8" transform="translate(-2.459 -2.344)"/>
              <path id="XMLID_107_2" data-name="XMLID_107_" class="cls-5" d="M16.894,3H12.941a15.808,15.808,0,0,0-1.93,1.414h3.95A15.834,15.834,0,0,1,16.894,3" transform="translate(-4.102 -0.879)"/>
              <path id="XMLID_106_2" data-name="XMLID_106_" class="cls-5" d="M9.462,45H5.516q.458.735.968,1.414h3.949q-.511-.679-.97-1.414" transform="translate(-2.219 -13.185)"/>
              <path id="XMLID_105_2" data-name="XMLID_105_" class="cls-5" d="M9.832,50a16.554,16.554,0,0,0,1.659,1.414h3.953A16.41,16.41,0,0,1,13.775,50Z" transform="translate(-3.698 -14.65)"/>
            </g>
            <g id="coin-3" data-name="coin" transform="translate(23.622)">
              <path id="XMLID_99_3" data-name="XMLID_99_" class="cls-3" d="M22.605,39.592C13.71,39.592,6.5,30.729,6.5,19.8S13.71,0,22.605,0,38.71,8.863,38.71,19.8s-7.21,19.8-16.105,19.8" transform="translate(-2.556)"/>
              <path id="XMLID_132_3" data-name="XMLID_132_" class="cls-4" d="M4.444,19.8C4.444,9.684,10.613,1.349,18.577.153A13.3,13.3,0,0,0,16.605,0C7.71,0,.5,8.863.5,19.8s7.21,19.8,16.105,19.8a13.3,13.3,0,0,0,1.972-.153C10.613,38.243,4.444,29.907,4.444,19.8" transform="translate(-0.5)"/>
              <path id="XMLID_115_3" data-name="XMLID_115_" class="cls-4" d="M24.26,37.325H24.2a10.9,10.9,0,0,1-1.377-.088.7.7,0,0,1-.575-.786.674.674,0,0,1,.731-.618,9.632,9.632,0,0,0,1.221.078.707.707,0,0,1,.686.707.661.661,0,0,1-.629.707m3.822-.761a.661.661,0,0,1-.615-.458.723.723,0,0,1,.383-.911,10.442,10.442,0,0,0,1.121-.535.635.635,0,0,1,.885.306.733.733,0,0,1-.285.952,11.8,11.8,0,0,1-1.258.6.606.606,0,0,1-.231.046m-8.9-.54a.616.616,0,0,1-.3-.077,12.348,12.348,0,0,1-1.189-.741.74.74,0,0,1-.19-.978.631.631,0,0,1,.91-.2,10.967,10.967,0,0,0,1.064.663.733.733,0,0,1,.289.95.653.653,0,0,1-.586.387M32.4,33.508a.634.634,0,0,1-.463-.205.745.745,0,0,1,0-1c.286-.31.564-.643.826-.991a.627.627,0,0,1,.925-.1.744.744,0,0,1,.1.995c-.29.383-.6.752-.913,1.094a.635.635,0,0,1-.467.209m-17.234-1a.641.641,0,0,1-.509-.258c-.285-.375-.559-.771-.814-1.177a.741.741,0,0,1,.177-.982.629.629,0,0,1,.912.191c.232.37.481.731.741,1.071a.745.745,0,0,1-.091,1,.628.628,0,0,1-.417.16M35.294,28.88a.621.621,0,0,1-.262-.059.729.729,0,0,1-.341-.931c.165-.406.316-.827.448-1.251a.649.649,0,0,1,.833-.445.721.721,0,0,1,.413.9c-.145.462-.309.921-.488,1.364a.66.66,0,0,1-.6.425m-22.63-1.249a.665.665,0,0,1-.623-.479c-.145-.458-.274-.93-.383-1.4a.71.71,0,0,1,.479-.856.655.655,0,0,1,.8.515c.1.433.219.867.352,1.287a.721.721,0,0,1-.41.9.606.606,0,0,1-.212.039m23.872-4.169-.051,0a.694.694,0,0,1-.6-.76c.031-.428.047-.866.047-1.3a.7.7,0,0,1,.657-.73.663.663,0,0,1,.657.684V21.4c0,.47-.017.944-.051,1.409a.679.679,0,0,1-.655.653M11.823,22.115a.677.677,0,0,1-.657-.7V21.4c0-.482.018-.967.053-1.44a.675.675,0,0,1,.707-.649.693.693,0,0,1,.6.761c-.032.437-.049.884-.049,1.328a.691.691,0,0,1-.657.715M36.1,17.9a.667.667,0,0,1-.636-.534c-.1-.435-.221-.867-.355-1.287a.721.721,0,0,1,.409-.9.646.646,0,0,1,.835.44c.146.457.275.928.386,1.4a.712.712,0,0,1-.477.858.573.573,0,0,1-.162.022M12.656,16.615a.62.62,0,0,1-.212-.038.721.721,0,0,1-.412-.9c.145-.46.31-.918.491-1.363a.641.641,0,0,1,.866-.365.729.729,0,0,1,.339.931c-.166.408-.317.829-.45,1.251a.664.664,0,0,1-.623.481M34,12.8a.645.645,0,0,1-.545-.311c-.233-.369-.482-.729-.743-1.069a.745.745,0,0,1,.089-1,.627.627,0,0,1,.926.1c.286.374.561.769.816,1.176a.741.741,0,0,1-.176.982A.623.623,0,0,1,34,12.8M15.151,11.727a.627.627,0,0,1-.415-.16.743.743,0,0,1-.093-.995c.29-.382.6-.749.914-1.092a.626.626,0,0,1,.929,0,.745.745,0,0,1,0,1c-.287.31-.566.643-.83.99a.636.636,0,0,1-.509.259M30.324,8.877a.618.618,0,0,1-.358-.115A11.011,11.011,0,0,0,28.9,8.1a.733.733,0,0,1-.29-.949.636.636,0,0,1,.883-.312,12.15,12.15,0,0,1,1.19.737.74.74,0,0,1,.192.978.644.644,0,0,1-.552.321M19.161,8.206a.653.653,0,0,1-.586-.386.733.733,0,0,1,.287-.951,11.731,11.731,0,0,1,1.259-.6.645.645,0,0,1,.846.414.724.724,0,0,1-.386.91,10.387,10.387,0,0,0-1.123.532.614.614,0,0,1-.3.077m6.315-1.237a.562.562,0,0,1-.077,0,9.671,9.671,0,0,0-1.2-.074.7.7,0,0,1-.671-.707.673.673,0,0,1,.644-.707H24.2a10.88,10.88,0,0,1,1.348.084.7.7,0,0,1,.577.783.676.676,0,0,1-.652.626" transform="translate(-4.155 -1.605)"/>
              <path id="XMLID_114_3" data-name="XMLID_114_" class="cls-5" d="M4.443,29H.5c.013.476.038.947.078,1.414H4.524q-.061-.7-.082-1.414" transform="translate(-0.5 -8.497)"/>
              <path id="XMLID_113_3" data-name="XMLID_113_" class="cls-5" d="M4.609,24H.668c-.055.466-.094.938-.121,1.414H4.49c.028-.476.064-.948.119-1.414" transform="translate(-0.516 -7.032)"/>
              <path id="XMLID_112_3" data-name="XMLID_112_" class="cls-5" d="M4.992,34H1.047q.128.717.3,1.414H5.287q-.168-.7-.3-1.414" transform="translate(-0.687 -9.962)"/>
              <path id="XMLID_111_3" data-name="XMLID_111_" class="cls-5" d="M6.39,39H2.443c.168.482.353.952.55,1.414H6.938q-.3-.691-.548-1.414" transform="translate(-1.166 -11.427)"/>
              <path id="XMLID_110_3" data-name="XMLID_110_" class="cls-5" d="M5.537,19H1.6c-.128.464-.248.935-.348,1.414H5.2c.1-.478.211-.951.339-1.414" transform="translate(-0.757 -5.567)"/>
              <path id="XMLID_109_3" data-name="XMLID_109_" class="cls-5" d="M7.391,14H3.447c-.217.46-.421.931-.608,1.414H6.786q.28-.723.605-1.414" transform="translate(-1.301 -4.102)"/>
              <path id="XMLID_108_3" data-name="XMLID_108_" class="cls-5" d="M11.231,8H7.282q-.561.674-1.066,1.414h3.947Q10.669,8.675,11.231,8" transform="translate(-2.459 -2.344)"/>
              <path id="XMLID_107_3" data-name="XMLID_107_" class="cls-5" d="M16.894,3H12.941a15.808,15.808,0,0,0-1.93,1.414h3.95A15.834,15.834,0,0,1,16.894,3" transform="translate(-4.102 -0.879)"/>
              <path id="XMLID_106_3" data-name="XMLID_106_" class="cls-5" d="M9.462,45H5.516q.458.735.968,1.414h3.949q-.511-.679-.97-1.414" transform="translate(-2.219 -13.185)"/>
              <path id="XMLID_105_3" data-name="XMLID_105_" class="cls-5" d="M9.832,50a16.554,16.554,0,0,0,1.659,1.414h3.953A16.41,16.41,0,0,1,13.775,50Z" transform="translate(-3.698 -14.65)"/>
            </g>
          </g>
          <g id="Group_318" data-name="Group 318" transform="translate(10.589 111.522)">
            <g id="coin-4" data-name="coin" transform="translate(0 1.107)">
              <path id="XMLID_99_4" data-name="XMLID_99_" class="cls-3" d="M18.463,29.408C11.856,29.408,6.5,22.825,6.5,14.7S11.856,0,18.463,0,30.425,6.583,30.425,14.7s-5.356,14.7-11.963,14.7" transform="translate(-3.57)"/>
              <path id="XMLID_132_4" data-name="XMLID_132_" class="cls-4" d="M3.43,14.7C3.43,7.193,8.012,1,13.927.113A9.878,9.878,0,0,0,12.463,0C5.856,0,.5,6.583.5,14.7s5.356,14.7,11.963,14.7a9.878,9.878,0,0,0,1.465-.113c-5.915-.889-10.5-7.08-10.5-14.59" transform="translate(-0.5)"/>
              <path id="XMLID_115_4" data-name="XMLID_115_" class="cls-4" d="M20.892,29.132H20.85a8.1,8.1,0,0,1-1.023-.065.519.519,0,0,1-.427-.584.5.5,0,0,1,.543-.459,7.154,7.154,0,0,0,.907.058.525.525,0,0,1,.509.525.491.491,0,0,1-.467.525m2.839-.566a.491.491,0,0,1-.457-.34.537.537,0,0,1,.285-.676,7.756,7.756,0,0,0,.833-.4.472.472,0,0,1,.658.227.545.545,0,0,1-.212.707,8.766,8.766,0,0,1-.935.446.45.45,0,0,1-.172.034m-6.609-.4a.457.457,0,0,1-.221-.057,9.171,9.171,0,0,1-.883-.55.55.55,0,0,1-.141-.727.469.469,0,0,1,.676-.152,8.147,8.147,0,0,0,.79.493.545.545,0,0,1,.214.706.485.485,0,0,1-.436.288M26.941,26.3a.471.471,0,0,1-.344-.152.553.553,0,0,1,0-.743c.212-.23.419-.478.614-.736a.466.466,0,0,1,.687-.076.553.553,0,0,1,.071.739c-.215.285-.443.558-.678.813a.472.472,0,0,1-.347.155m-12.8-.739a.476.476,0,0,1-.378-.192c-.212-.278-.416-.572-.6-.874a.551.551,0,0,1,.132-.729.467.467,0,0,1,.678.142c.172.275.357.543.55.8a.553.553,0,0,1-.068.739.466.466,0,0,1-.31.119m14.948-2.7a.461.461,0,0,1-.195-.044.542.542,0,0,1-.253-.692c.123-.3.234-.614.333-.929a.482.482,0,0,1,.619-.33.536.536,0,0,1,.307.665c-.107.343-.229.684-.363,1.014a.49.49,0,0,1-.448.316m-16.809-.928a.494.494,0,0,1-.462-.356c-.108-.34-.2-.691-.285-1.041a.528.528,0,0,1,.355-.636.486.486,0,0,1,.592.382c.075.322.163.644.262.956a.535.535,0,0,1-.3.666.45.45,0,0,1-.158.029m17.731-3.1-.038,0a.515.515,0,0,1-.449-.565c.023-.318.035-.643.035-.965a.523.523,0,0,1,.488-.542.493.493,0,0,1,.488.508V17.3c0,.349-.013.7-.038,1.047a.5.5,0,0,1-.486.485m-18.356-1a.5.5,0,0,1-.488-.519V17.3c0-.358.013-.718.039-1.07a.5.5,0,0,1,.525-.482.515.515,0,0,1,.448.565c-.024.325-.036.656-.036.987a.513.513,0,0,1-.488.531M29.689,14.7a.5.5,0,0,1-.473-.4c-.076-.323-.164-.644-.264-.956a.536.536,0,0,1,.3-.667.48.48,0,0,1,.62.327c.108.339.2.689.287,1.039a.529.529,0,0,1-.354.638.425.425,0,0,1-.12.016M12.272,13.75a.461.461,0,0,1-.157-.028.535.535,0,0,1-.306-.666c.108-.341.23-.682.365-1.012a.476.476,0,0,1,.643-.271.541.541,0,0,1,.252.692c-.124.3-.236.616-.334.929a.493.493,0,0,1-.462.357m15.854-2.832a.479.479,0,0,1-.4-.231c-.173-.274-.358-.541-.552-.794a.553.553,0,0,1,.066-.739.466.466,0,0,1,.687.071c.212.278.416.571.606.873a.55.55,0,0,1-.13.729.463.463,0,0,1-.273.09m-14-.8A.466.466,0,0,1,13.817,10a.552.552,0,0,1-.069-.739c.215-.284.444-.557.679-.811a.465.465,0,0,1,.69,0,.553.553,0,0,1,0,.743c-.213.231-.42.478-.616.736a.472.472,0,0,1-.378.193M25.4,8a.459.459,0,0,1-.266-.085,8.18,8.18,0,0,0-.792-.49.544.544,0,0,1-.215-.705.473.473,0,0,1,.656-.232,9.025,9.025,0,0,1,.884.548.55.55,0,0,1,.143.727A.479.479,0,0,1,25.4,8M17.1,7.5a.485.485,0,0,1-.436-.287.545.545,0,0,1,.213-.706,8.714,8.714,0,0,1,.936-.443.479.479,0,0,1,.628.308.538.538,0,0,1-.287.676,7.716,7.716,0,0,0-.834.4A.456.456,0,0,1,17.1,7.5m4.69-.918a.417.417,0,0,1-.057,0,7.183,7.183,0,0,0-.888-.055.516.516,0,0,1-.5-.525.5.5,0,0,1,.478-.525h.021a8.081,8.081,0,0,1,1,.062.517.517,0,0,1,.429.582.5.5,0,0,1-.484.465" transform="translate(-5.958 -2.6)"/>
              <path id="XMLID_114_4" data-name="XMLID_114_" class="cls-5" d="M3.429,29H.5c.01.353.028.7.058,1.05H3.489q-.045-.52-.061-1.05" transform="translate(-0.5 -13.771)"/>
              <path id="XMLID_113_4" data-name="XMLID_113_" class="cls-5" d="M3.564,24H.637c-.041.346-.07.7-.09,1.05H3.476c.021-.353.048-.7.088-1.05" transform="translate(-0.524 -11.397)"/>
              <path id="XMLID_112_4" data-name="XMLID_112_" class="cls-5" d="M3.977,34H1.047q.1.532.22,1.05H4.2q-.125-.518-.219-1.05" transform="translate(-0.78 -16.145)"/>
              <path id="XMLID_111_4" data-name="XMLID_111_" class="cls-5" d="M5.375,39H2.443c.125.358.262.707.409,1.05h2.93q-.22-.514-.407-1.05" transform="translate(-1.494 -18.52)"/>
              <path id="XMLID_110_4" data-name="XMLID_110_" class="cls-5" d="M4.434,19H1.508c-.1.345-.184.694-.258,1.05H4.183c.074-.355.157-.706.251-1.05" transform="translate(-0.884 -9.022)"/>
              <path id="XMLID_109_4" data-name="XMLID_109_" class="cls-5" d="M6.22,14H3.291c-.161.342-.313.692-.452,1.05H5.771q.208-.537.45-1.05" transform="translate(-1.697 -6.648)"/>
              <path id="XMLID_108_4" data-name="XMLID_108_" class="cls-5" d="M9.941,8H7.008q-.417.5-.792,1.05H9.148Q9.524,8.5,9.941,8" transform="translate(-3.425 -3.799)"/>
              <path id="XMLID_107_4" data-name="XMLID_107_" class="cls-5" d="M15.38,3H12.445a11.742,11.742,0,0,0-1.434,1.05h2.934A11.762,11.762,0,0,1,15.38,3" transform="translate(-5.879 -1.425)"/>
              <path id="XMLID_106_4" data-name="XMLID_106_" class="cls-5" d="M8.447,45H5.516q.34.546.719,1.05H9.168q-.379-.5-.721-1.05" transform="translate(-3.067 -21.369)"/>
              <path id="XMLID_105_4" data-name="XMLID_105_" class="cls-5" d="M9.832,50a12.3,12.3,0,0,0,1.232,1.05H14A12.189,12.189,0,0,1,12.761,50Z" transform="translate(-5.276 -23.743)"/>
            </g>
            <g id="coin-5" data-name="coin" transform="translate(8.269 21.927)">
              <path id="XMLID_99_5" data-name="XMLID_99_" class="cls-3" d="M18.463,29.408C11.856,29.408,6.5,22.825,6.5,14.7S11.856,0,18.463,0,30.425,6.583,30.425,14.7s-5.356,14.7-11.963,14.7" transform="translate(-3.57)"/>
              <path id="XMLID_132_5" data-name="XMLID_132_" class="cls-4" d="M3.43,14.7C3.43,7.193,8.012,1,13.927.113A9.878,9.878,0,0,0,12.463,0C5.856,0,.5,6.583.5,14.7s5.356,14.7,11.963,14.7a9.878,9.878,0,0,0,1.465-.113c-5.915-.889-10.5-7.08-10.5-14.59" transform="translate(-0.5)"/>
              <path id="XMLID_115_5" data-name="XMLID_115_" class="cls-4" d="M20.892,29.132H20.85a8.1,8.1,0,0,1-1.023-.065.519.519,0,0,1-.427-.584.5.5,0,0,1,.543-.459,7.154,7.154,0,0,0,.907.058.525.525,0,0,1,.509.525.491.491,0,0,1-.467.525m2.839-.566a.491.491,0,0,1-.457-.34.537.537,0,0,1,.285-.676,7.756,7.756,0,0,0,.833-.4.472.472,0,0,1,.658.227.545.545,0,0,1-.212.707,8.766,8.766,0,0,1-.935.446.45.45,0,0,1-.172.034m-6.609-.4a.457.457,0,0,1-.221-.057,9.171,9.171,0,0,1-.883-.55.55.55,0,0,1-.141-.727.469.469,0,0,1,.676-.152,8.147,8.147,0,0,0,.79.493.545.545,0,0,1,.214.706.485.485,0,0,1-.436.288M26.941,26.3a.471.471,0,0,1-.344-.152.553.553,0,0,1,0-.743c.212-.23.419-.478.614-.736a.466.466,0,0,1,.687-.076.553.553,0,0,1,.071.739c-.215.285-.443.558-.678.813a.472.472,0,0,1-.347.155m-12.8-.739a.476.476,0,0,1-.378-.192c-.212-.278-.416-.572-.6-.874a.551.551,0,0,1,.132-.729.467.467,0,0,1,.678.142c.172.275.357.543.55.8a.553.553,0,0,1-.068.739.466.466,0,0,1-.31.119m14.948-2.7a.461.461,0,0,1-.195-.044.542.542,0,0,1-.253-.692c.123-.3.234-.614.333-.929a.482.482,0,0,1,.619-.33.536.536,0,0,1,.307.665c-.107.343-.229.684-.363,1.014a.49.49,0,0,1-.448.316m-16.809-.928a.494.494,0,0,1-.462-.356c-.108-.34-.2-.691-.285-1.041a.528.528,0,0,1,.355-.636.486.486,0,0,1,.592.382c.075.322.163.644.262.956a.535.535,0,0,1-.3.666.45.45,0,0,1-.158.029m17.731-3.1-.038,0a.515.515,0,0,1-.449-.565c.023-.318.035-.643.035-.965a.523.523,0,0,1,.488-.542.493.493,0,0,1,.488.508V17.3c0,.349-.013.7-.038,1.047a.5.5,0,0,1-.486.485m-18.356-1a.5.5,0,0,1-.488-.519V17.3c0-.358.013-.718.039-1.07a.5.5,0,0,1,.525-.482.515.515,0,0,1,.448.565c-.024.325-.036.656-.036.987a.513.513,0,0,1-.488.531M29.689,14.7a.5.5,0,0,1-.473-.4c-.076-.323-.164-.644-.264-.956a.536.536,0,0,1,.3-.667.48.48,0,0,1,.62.327c.108.339.2.689.287,1.039a.529.529,0,0,1-.354.638.425.425,0,0,1-.12.016M12.272,13.75a.461.461,0,0,1-.157-.028.535.535,0,0,1-.306-.666c.108-.341.23-.682.365-1.012a.476.476,0,0,1,.643-.271.541.541,0,0,1,.252.692c-.124.3-.236.616-.334.929a.493.493,0,0,1-.462.357m15.854-2.832a.479.479,0,0,1-.4-.231c-.173-.274-.358-.541-.552-.794a.553.553,0,0,1,.066-.739.466.466,0,0,1,.687.071c.212.278.416.571.606.873a.55.55,0,0,1-.13.729.463.463,0,0,1-.273.09m-14-.8A.466.466,0,0,1,13.817,10a.552.552,0,0,1-.069-.739c.215-.284.444-.557.679-.811a.465.465,0,0,1,.69,0,.553.553,0,0,1,0,.743c-.213.231-.42.478-.616.736a.472.472,0,0,1-.378.193M25.4,8a.459.459,0,0,1-.266-.085,8.18,8.18,0,0,0-.792-.49.544.544,0,0,1-.215-.705.473.473,0,0,1,.656-.232,9.025,9.025,0,0,1,.884.548.55.55,0,0,1,.143.727A.479.479,0,0,1,25.4,8M17.1,7.5a.485.485,0,0,1-.436-.287.545.545,0,0,1,.213-.706,8.714,8.714,0,0,1,.936-.443.479.479,0,0,1,.628.308.538.538,0,0,1-.287.676,7.716,7.716,0,0,0-.834.4A.456.456,0,0,1,17.1,7.5m4.69-.918a.417.417,0,0,1-.057,0,7.183,7.183,0,0,0-.888-.055.516.516,0,0,1-.5-.525.5.5,0,0,1,.478-.525h.021a8.081,8.081,0,0,1,1,.062.517.517,0,0,1,.429.582.5.5,0,0,1-.484.465" transform="translate(-5.958 -2.6)"/>
              <path id="XMLID_114_5" data-name="XMLID_114_" class="cls-5" d="M3.429,29H.5c.01.353.028.7.058,1.05H3.489q-.045-.52-.061-1.05" transform="translate(-0.5 -13.771)"/>
              <path id="XMLID_113_5" data-name="XMLID_113_" class="cls-5" d="M3.564,24H.637c-.041.346-.07.7-.09,1.05H3.476c.021-.353.048-.7.088-1.05" transform="translate(-0.524 -11.397)"/>
              <path id="XMLID_112_5" data-name="XMLID_112_" class="cls-5" d="M3.977,34H1.047q.1.532.22,1.05H4.2q-.125-.518-.219-1.05" transform="translate(-0.78 -16.145)"/>
              <path id="XMLID_111_5" data-name="XMLID_111_" class="cls-5" d="M5.375,39H2.443c.125.358.262.707.409,1.05h2.93q-.22-.514-.407-1.05" transform="translate(-1.494 -18.52)"/>
              <path id="XMLID_110_5" data-name="XMLID_110_" class="cls-5" d="M4.434,19H1.508c-.1.345-.184.694-.258,1.05H4.183c.074-.355.157-.706.251-1.05" transform="translate(-0.884 -9.022)"/>
              <path id="XMLID_109_5" data-name="XMLID_109_" class="cls-5" d="M6.22,14H3.291c-.161.342-.313.692-.452,1.05H5.771q.208-.537.45-1.05" transform="translate(-1.697 -6.648)"/>
              <path id="XMLID_108_5" data-name="XMLID_108_" class="cls-5" d="M9.941,8H7.008q-.417.5-.792,1.05H9.148Q9.524,8.5,9.941,8" transform="translate(-3.425 -3.799)"/>
              <path id="XMLID_107_5" data-name="XMLID_107_" class="cls-5" d="M15.38,3H12.445a11.742,11.742,0,0,0-1.434,1.05h2.934A11.762,11.762,0,0,1,15.38,3" transform="translate(-5.879 -1.425)"/>
              <path id="XMLID_106_5" data-name="XMLID_106_" class="cls-5" d="M8.447,45H5.516q.34.546.719,1.05H9.168q-.379-.5-.721-1.05" transform="translate(-3.067 -21.369)"/>
              <path id="XMLID_105_5" data-name="XMLID_105_" class="cls-5" d="M9.832,50a12.3,12.3,0,0,0,1.232,1.05H14A12.189,12.189,0,0,1,12.761,50Z" transform="translate(-5.276 -23.743)"/>
            </g>
            <g id="coin-6" data-name="coin" transform="translate(17.546 0)">
              <path id="XMLID_99_6" data-name="XMLID_99_" class="cls-3" d="M18.463,29.408C11.856,29.408,6.5,22.825,6.5,14.7S11.856,0,18.463,0,30.425,6.583,30.425,14.7s-5.356,14.7-11.963,14.7" transform="translate(-3.57)"/>
              <path id="XMLID_132_6" data-name="XMLID_132_" class="cls-4" d="M3.43,14.7C3.43,7.193,8.012,1,13.927.113A9.878,9.878,0,0,0,12.463,0C5.856,0,.5,6.583.5,14.7s5.356,14.7,11.963,14.7a9.878,9.878,0,0,0,1.465-.113c-5.915-.889-10.5-7.08-10.5-14.59" transform="translate(-0.5)"/>
              <path id="XMLID_115_6" data-name="XMLID_115_" class="cls-4" d="M20.892,29.132H20.85a8.1,8.1,0,0,1-1.023-.065.519.519,0,0,1-.427-.584.5.5,0,0,1,.543-.459,7.154,7.154,0,0,0,.907.058.525.525,0,0,1,.509.525.491.491,0,0,1-.467.525m2.839-.566a.491.491,0,0,1-.457-.34.537.537,0,0,1,.285-.676,7.756,7.756,0,0,0,.833-.4.472.472,0,0,1,.658.227.545.545,0,0,1-.212.707,8.766,8.766,0,0,1-.935.446.45.45,0,0,1-.172.034m-6.609-.4a.457.457,0,0,1-.221-.057,9.171,9.171,0,0,1-.883-.55.55.55,0,0,1-.141-.727.469.469,0,0,1,.676-.152,8.147,8.147,0,0,0,.79.493.545.545,0,0,1,.214.706.485.485,0,0,1-.436.288M26.941,26.3a.471.471,0,0,1-.344-.152.553.553,0,0,1,0-.743c.212-.23.419-.478.614-.736a.466.466,0,0,1,.687-.076.553.553,0,0,1,.071.739c-.215.285-.443.558-.678.813a.472.472,0,0,1-.347.155m-12.8-.739a.476.476,0,0,1-.378-.192c-.212-.278-.416-.572-.6-.874a.551.551,0,0,1,.132-.729.467.467,0,0,1,.678.142c.172.275.357.543.55.8a.553.553,0,0,1-.068.739.466.466,0,0,1-.31.119m14.948-2.7a.461.461,0,0,1-.195-.044.542.542,0,0,1-.253-.692c.123-.3.234-.614.333-.929a.482.482,0,0,1,.619-.33.536.536,0,0,1,.307.665c-.107.343-.229.684-.363,1.014a.49.49,0,0,1-.448.316m-16.809-.928a.494.494,0,0,1-.462-.356c-.108-.34-.2-.691-.285-1.041a.528.528,0,0,1,.355-.636.486.486,0,0,1,.592.382c.075.322.163.644.262.956a.535.535,0,0,1-.3.666.45.45,0,0,1-.158.029m17.731-3.1-.038,0a.515.515,0,0,1-.449-.565c.023-.318.035-.643.035-.965a.523.523,0,0,1,.488-.542.493.493,0,0,1,.488.508V17.3c0,.349-.013.7-.038,1.047a.5.5,0,0,1-.486.485m-18.356-1a.5.5,0,0,1-.488-.519V17.3c0-.358.013-.718.039-1.07a.5.5,0,0,1,.525-.482.515.515,0,0,1,.448.565c-.024.325-.036.656-.036.987a.513.513,0,0,1-.488.531M29.689,14.7a.5.5,0,0,1-.473-.4c-.076-.323-.164-.644-.264-.956a.536.536,0,0,1,.3-.667.48.48,0,0,1,.62.327c.108.339.2.689.287,1.039a.529.529,0,0,1-.354.638.425.425,0,0,1-.12.016M12.272,13.75a.461.461,0,0,1-.157-.028.535.535,0,0,1-.306-.666c.108-.341.23-.682.365-1.012a.476.476,0,0,1,.643-.271.541.541,0,0,1,.252.692c-.124.3-.236.616-.334.929a.493.493,0,0,1-.462.357m15.854-2.832a.479.479,0,0,1-.4-.231c-.173-.274-.358-.541-.552-.794a.553.553,0,0,1,.066-.739.466.466,0,0,1,.687.071c.212.278.416.571.606.873a.55.55,0,0,1-.13.729.463.463,0,0,1-.273.09m-14-.8A.466.466,0,0,1,13.817,10a.552.552,0,0,1-.069-.739c.215-.284.444-.557.679-.811a.465.465,0,0,1,.69,0,.553.553,0,0,1,0,.743c-.213.231-.42.478-.616.736a.472.472,0,0,1-.378.193M25.4,8a.459.459,0,0,1-.266-.085,8.18,8.18,0,0,0-.792-.49.544.544,0,0,1-.215-.705.473.473,0,0,1,.656-.232,9.025,9.025,0,0,1,.884.548.55.55,0,0,1,.143.727A.479.479,0,0,1,25.4,8M17.1,7.5a.485.485,0,0,1-.436-.287.545.545,0,0,1,.213-.706,8.714,8.714,0,0,1,.936-.443.479.479,0,0,1,.628.308.538.538,0,0,1-.287.676,7.716,7.716,0,0,0-.834.4A.456.456,0,0,1,17.1,7.5m4.69-.918a.417.417,0,0,1-.057,0,7.183,7.183,0,0,0-.888-.055.516.516,0,0,1-.5-.525.5.5,0,0,1,.478-.525h.021a8.081,8.081,0,0,1,1,.062.517.517,0,0,1,.429.582.5.5,0,0,1-.484.465" transform="translate(-5.958 -2.6)"/>
              <path id="XMLID_114_6" data-name="XMLID_114_" class="cls-5" d="M3.429,29H.5c.01.353.028.7.058,1.05H3.489q-.045-.52-.061-1.05" transform="translate(-0.5 -13.771)"/>
              <path id="XMLID_113_6" data-name="XMLID_113_" class="cls-5" d="M3.564,24H.637c-.041.346-.07.7-.09,1.05H3.476c.021-.353.048-.7.088-1.05" transform="translate(-0.524 -11.397)"/>
              <path id="XMLID_112_6" data-name="XMLID_112_" class="cls-5" d="M3.977,34H1.047q.1.532.22,1.05H4.2q-.125-.518-.219-1.05" transform="translate(-0.78 -16.145)"/>
              <path id="XMLID_111_6" data-name="XMLID_111_" class="cls-5" d="M5.375,39H2.443c.125.358.262.707.409,1.05h2.93q-.22-.514-.407-1.05" transform="translate(-1.494 -18.52)"/>
              <path id="XMLID_110_6" data-name="XMLID_110_" class="cls-5" d="M4.434,19H1.508c-.1.345-.184.694-.258,1.05H4.183c.074-.355.157-.706.251-1.05" transform="translate(-0.884 -9.022)"/>
              <path id="XMLID_109_6" data-name="XMLID_109_" class="cls-5" d="M6.22,14H3.291c-.161.342-.313.692-.452,1.05H5.771q.208-.537.45-1.05" transform="translate(-1.697 -6.648)"/>
              <path id="XMLID_108_6" data-name="XMLID_108_" class="cls-5" d="M9.941,8H7.008q-.417.5-.792,1.05H9.148Q9.524,8.5,9.941,8" transform="translate(-3.425 -3.799)"/>
              <path id="XMLID_107_6" data-name="XMLID_107_" class="cls-5" d="M15.38,3H12.445a11.742,11.742,0,0,0-1.434,1.05h2.934A11.762,11.762,0,0,1,15.38,3" transform="translate(-5.879 -1.425)"/>
              <path id="XMLID_106_6" data-name="XMLID_106_" class="cls-5" d="M8.447,45H5.516q.34.546.719,1.05H9.168q-.379-.5-.721-1.05" transform="translate(-3.067 -21.369)"/>
              <path id="XMLID_105_6" data-name="XMLID_105_" class="cls-5" d="M9.832,50a12.3,12.3,0,0,0,1.232,1.05H14A12.189,12.189,0,0,1,12.761,50Z" transform="translate(-5.276 -23.743)"/>
            </g>
          </g>
          <g id="Group_319" data-name="Group 319" transform="translate(142.006 134.955)">
            <g id="coin-7" data-name="coin" transform="translate(0 1.37)">
              <path id="XMLID_99_7" data-name="XMLID_99_" class="cls-3" d="M21.3,36.382c-8.174,0-14.8-8.144-14.8-18.191S13.126,0,21.3,0,36.1,8.144,36.1,18.191,29.473,36.382,21.3,36.382" transform="translate(-2.876)"/>
              <path id="XMLID_132_7" data-name="XMLID_132_" class="cls-4" d="M4.124,18.191C4.124,8.9,9.794,1.24,17.112.14A12.221,12.221,0,0,0,15.3,0C7.126,0,.5,8.144.5,18.191S7.126,36.382,15.3,36.382a12.22,12.22,0,0,0,1.812-.14c-7.318-1.1-12.987-8.759-12.987-18.051" transform="translate(-0.5 0)"/>
              <path id="XMLID_115_7" data-name="XMLID_115_" class="cls-4" d="M23.2,34.743h-.052a10.02,10.02,0,0,1-1.266-.081.642.642,0,0,1-.529-.722.62.62,0,0,1,.672-.568,8.851,8.851,0,0,0,1.122.071.649.649,0,0,1,.63.65.607.607,0,0,1-.578.65m3.513-.7a.607.607,0,0,1-.565-.421.664.664,0,0,1,.352-.837,9.6,9.6,0,0,0,1.031-.492.584.584,0,0,1,.814.281.674.674,0,0,1-.262.874A10.845,10.845,0,0,1,26.924,34a.557.557,0,0,1-.213.042m-8.176-.5a.566.566,0,0,1-.273-.071,11.347,11.347,0,0,1-1.093-.681.68.68,0,0,1-.175-.9.58.58,0,0,1,.837-.188,10.079,10.079,0,0,0,.977.609.674.674,0,0,1,.265.873.6.6,0,0,1-.539.356m12.148-2.312a.582.582,0,0,1-.425-.188.685.685,0,0,1,0-.919c.263-.285.518-.591.759-.911a.576.576,0,0,1,.85-.094.684.684,0,0,1,.088.914c-.266.352-.548.691-.839,1.006a.584.584,0,0,1-.429.192m-15.837-.915a.589.589,0,0,1-.468-.237c-.262-.344-.514-.708-.748-1.082a.681.681,0,0,1,.163-.9.578.578,0,0,1,.838.175c.213.34.442.672.681.984a.685.685,0,0,1-.084.915.577.577,0,0,1-.383.147m18.493-3.337a.571.571,0,0,1-.241-.054.67.67,0,0,1-.313-.856c.152-.373.29-.76.411-1.149a.6.6,0,0,1,.765-.409.663.663,0,0,1,.38.823c-.133.424-.284.847-.449,1.254a.606.606,0,0,1-.554.39m-20.8-1.148a.611.611,0,0,1-.572-.44c-.133-.421-.252-.854-.352-1.288a.653.653,0,0,1,.44-.787.6.6,0,0,1,.732.473c.092.4.2.8.324,1.182a.662.662,0,0,1-.376.824.557.557,0,0,1-.2.036M34.479,22l-.047,0a.637.637,0,0,1-.556-.7c.028-.394.043-.8.043-1.194a.648.648,0,0,1,.6-.67.609.609,0,0,1,.6.628v.042c0,.432-.016.867-.047,1.295a.624.624,0,0,1-.6.6M11.77,20.766a.622.622,0,0,1-.6-.643v-.014c0-.443.016-.889.048-1.323a.621.621,0,0,1,.65-.6.637.637,0,0,1,.555.7c-.03.4-.045.812-.045,1.221a.635.635,0,0,1-.6.657m22.312-3.874A.613.613,0,0,1,33.5,16.4c-.094-.4-.2-.8-.326-1.183a.663.663,0,0,1,.376-.825.593.593,0,0,1,.767.4c.134.42.253.852.355,1.286a.655.655,0,0,1-.438.789.526.526,0,0,1-.149.02m-21.547-1.18a.57.57,0,0,1-.195-.035.662.662,0,0,1-.378-.824c.133-.422.285-.844.451-1.253a.589.589,0,0,1,.8-.335.67.67,0,0,1,.312.856c-.153.375-.292.762-.414,1.149a.61.61,0,0,1-.572.442m19.614-3.5a.593.593,0,0,1-.5-.286c-.214-.339-.443-.67-.683-.982a.684.684,0,0,1,.082-.915.576.576,0,0,1,.851.088c.263.344.515.707.75,1.08a.681.681,0,0,1-.161.9.573.573,0,0,1-.338.112M14.828,11.22a.576.576,0,0,1-.382-.147.683.683,0,0,1-.085-.914c.266-.351.549-.689.84-1a.575.575,0,0,1,.854,0,.685.685,0,0,1,0,.919c-.263.285-.52.591-.762.91a.585.585,0,0,1-.468.238M28.771,8.6a.568.568,0,0,1-.329-.105,10.119,10.119,0,0,0-.98-.607.674.674,0,0,1-.266-.873.585.585,0,0,1,.811-.287,11.165,11.165,0,0,1,1.094.678.68.68,0,0,1,.176.9.592.592,0,0,1-.507.295M18.513,7.984a.6.6,0,0,1-.539-.355.674.674,0,0,1,.264-.874A10.781,10.781,0,0,1,19.4,6.208a.592.592,0,0,1,.777.381.665.665,0,0,1-.355.836,9.546,9.546,0,0,0-1.032.489.564.564,0,0,1-.273.071m5.8-1.136a.516.516,0,0,1-.071,0,8.887,8.887,0,0,0-1.1-.068.639.639,0,0,1-.617-.65.618.618,0,0,1,.591-.65h.025a10,10,0,0,1,1.238.077.64.64,0,0,1,.53.72.621.621,0,0,1-.6.575" transform="translate(-4.723 -1.918)"/>
              <path id="XMLID_114_7" data-name="XMLID_114_" class="cls-5" d="M4.123,29H.5c.012.437.035.871.072,1.3H4.2q-.056-.643-.075-1.3" transform="translate(-0.5 -10.159)"/>
              <path id="XMLID_113_7" data-name="XMLID_113_" class="cls-5" d="M4.28,24H.658c-.05.428-.086.862-.111,1.3H4.171c.025-.437.059-.871.109-1.3" transform="translate(-0.519 -8.408)"/>
              <path id="XMLID_112_7" data-name="XMLID_112_" class="cls-5" d="M4.672,34H1.047q.118.659.272,1.3H4.943q-.154-.64-.271-1.3" transform="translate(-0.717 -11.911)"/>
              <path id="XMLID_111_7" data-name="XMLID_111_" class="cls-5" d="M6.07,39H2.443c.154.443.324.875.506,1.3H6.574q-.272-.635-.5-1.3" transform="translate(-1.269 -13.662)"/>
              <path id="XMLID_110_7" data-name="XMLID_110_" class="cls-5" d="M5.19,19H1.57c-.118.427-.228.859-.32,1.3H4.879c.092-.439.194-.874.311-1.3" transform="translate(-0.797 -6.656)"/>
              <path id="XMLID_109_7" data-name="XMLID_109_" class="cls-5" d="M7.022,14H3.4c-.2.423-.387.856-.559,1.3H6.466q.257-.665.556-1.3" transform="translate(-1.426 -4.904)"/>
              <path id="XMLID_108_7" data-name="XMLID_108_" class="cls-5" d="M10.824,8H7.2q-.516.62-.98,1.3H9.843q.465-.679.981-1.3" transform="translate(-2.763 -2.803)"/>
              <path id="XMLID_107_7" data-name="XMLID_107_" class="cls-5" d="M16.417,3H12.785a14.526,14.526,0,0,0-1.774,1.3h3.63A14.551,14.551,0,0,1,16.417,3" transform="translate(-4.662 -1.051)"/>
              <path id="XMLID_106_7" data-name="XMLID_106_" class="cls-5" d="M9.142,45H5.516q.42.675.889,1.3h3.629q-.469-.624-.892-1.3" transform="translate(-2.486 -15.764)"/>
              <path id="XMLID_105_7" data-name="XMLID_105_" class="cls-5" d="M9.832,50a15.213,15.213,0,0,0,1.525,1.3H14.99A15.081,15.081,0,0,1,13.455,50Z" transform="translate(-4.195 -17.516)"/>
            </g>
            <g id="coin-8" data-name="coin" transform="translate(10.23 27.128)">
              <path id="XMLID_99_8" data-name="XMLID_99_" class="cls-3" d="M21.3,36.382c-8.174,0-14.8-8.144-14.8-18.191S13.126,0,21.3,0,36.1,8.144,36.1,18.191,29.473,36.382,21.3,36.382" transform="translate(-2.876)"/>
              <path id="XMLID_132_8" data-name="XMLID_132_" class="cls-4" d="M4.124,18.191C4.124,8.9,9.794,1.24,17.112.14A12.221,12.221,0,0,0,15.3,0C7.126,0,.5,8.144.5,18.191S7.126,36.382,15.3,36.382a12.22,12.22,0,0,0,1.812-.14c-7.318-1.1-12.987-8.759-12.987-18.051" transform="translate(-0.5 0)"/>
              <path id="XMLID_115_8" data-name="XMLID_115_" class="cls-4" d="M23.2,34.743h-.052a10.02,10.02,0,0,1-1.266-.081.642.642,0,0,1-.529-.722.62.62,0,0,1,.672-.568,8.851,8.851,0,0,0,1.122.071.649.649,0,0,1,.63.65.607.607,0,0,1-.578.65m3.513-.7a.607.607,0,0,1-.565-.421.664.664,0,0,1,.352-.837,9.6,9.6,0,0,0,1.031-.492.584.584,0,0,1,.814.281.674.674,0,0,1-.262.874A10.845,10.845,0,0,1,26.924,34a.557.557,0,0,1-.213.042m-8.176-.5a.566.566,0,0,1-.273-.071,11.347,11.347,0,0,1-1.093-.681.68.68,0,0,1-.175-.9.58.58,0,0,1,.837-.188,10.079,10.079,0,0,0,.977.609.674.674,0,0,1,.265.873.6.6,0,0,1-.539.356m12.148-2.312a.582.582,0,0,1-.425-.188.685.685,0,0,1,0-.919c.263-.285.518-.591.759-.911a.576.576,0,0,1,.85-.094.684.684,0,0,1,.088.914c-.266.352-.548.691-.839,1.006a.584.584,0,0,1-.429.192m-15.837-.915a.589.589,0,0,1-.468-.237c-.262-.344-.514-.708-.748-1.082a.681.681,0,0,1,.163-.9.578.578,0,0,1,.838.175c.213.34.442.672.681.984a.685.685,0,0,1-.084.915.577.577,0,0,1-.383.147m18.493-3.337a.571.571,0,0,1-.241-.054.67.67,0,0,1-.313-.856c.152-.373.29-.76.411-1.149a.6.6,0,0,1,.765-.409.663.663,0,0,1,.38.823c-.133.424-.284.847-.449,1.254a.606.606,0,0,1-.554.39m-20.8-1.148a.611.611,0,0,1-.572-.44c-.133-.421-.252-.854-.352-1.288a.653.653,0,0,1,.44-.787.6.6,0,0,1,.732.473c.092.4.2.8.324,1.182a.662.662,0,0,1-.376.824.557.557,0,0,1-.2.036M34.479,22l-.047,0a.637.637,0,0,1-.556-.7c.028-.394.043-.8.043-1.194a.648.648,0,0,1,.6-.67.609.609,0,0,1,.6.628v.042c0,.432-.016.867-.047,1.295a.624.624,0,0,1-.6.6M11.77,20.766a.622.622,0,0,1-.6-.643v-.014c0-.443.016-.889.048-1.323a.621.621,0,0,1,.65-.6.637.637,0,0,1,.555.7c-.03.4-.045.812-.045,1.221a.635.635,0,0,1-.6.657m22.312-3.874A.613.613,0,0,1,33.5,16.4c-.094-.4-.2-.8-.326-1.183a.663.663,0,0,1,.376-.825.593.593,0,0,1,.767.4c.134.42.253.852.355,1.286a.655.655,0,0,1-.438.789.526.526,0,0,1-.149.02m-21.547-1.18a.57.57,0,0,1-.195-.035.662.662,0,0,1-.378-.824c.133-.422.285-.844.451-1.253a.589.589,0,0,1,.8-.335.67.67,0,0,1,.312.856c-.153.375-.292.762-.414,1.149a.61.61,0,0,1-.572.442m19.614-3.5a.593.593,0,0,1-.5-.286c-.214-.339-.443-.67-.683-.982a.684.684,0,0,1,.082-.915.576.576,0,0,1,.851.088c.263.344.515.707.75,1.08a.681.681,0,0,1-.161.9.573.573,0,0,1-.338.112M14.828,11.22a.576.576,0,0,1-.382-.147.683.683,0,0,1-.085-.914c.266-.351.549-.689.84-1a.575.575,0,0,1,.854,0,.685.685,0,0,1,0,.919c-.263.285-.52.591-.762.91a.585.585,0,0,1-.468.238M28.771,8.6a.568.568,0,0,1-.329-.105,10.119,10.119,0,0,0-.98-.607.674.674,0,0,1-.266-.873.585.585,0,0,1,.811-.287,11.165,11.165,0,0,1,1.094.678.68.68,0,0,1,.176.9.592.592,0,0,1-.507.295M18.513,7.984a.6.6,0,0,1-.539-.355.674.674,0,0,1,.264-.874A10.781,10.781,0,0,1,19.4,6.208a.592.592,0,0,1,.777.381.665.665,0,0,1-.355.836,9.546,9.546,0,0,0-1.032.489.564.564,0,0,1-.273.071m5.8-1.136a.516.516,0,0,1-.071,0,8.887,8.887,0,0,0-1.1-.068.639.639,0,0,1-.617-.65.618.618,0,0,1,.591-.65h.025a10,10,0,0,1,1.238.077.64.64,0,0,1,.53.72.621.621,0,0,1-.6.575" transform="translate(-4.723 -1.918)"/>
              <path id="XMLID_114_8" data-name="XMLID_114_" class="cls-5" d="M4.123,29H.5c.012.437.035.871.072,1.3H4.2q-.056-.643-.075-1.3" transform="translate(-0.5 -10.159)"/>
              <path id="XMLID_113_8" data-name="XMLID_113_" class="cls-5" d="M4.28,24H.658c-.05.428-.086.862-.111,1.3H4.171c.025-.437.059-.871.109-1.3" transform="translate(-0.519 -8.408)"/>
              <path id="XMLID_112_8" data-name="XMLID_112_" class="cls-5" d="M4.672,34H1.047q.118.659.272,1.3H4.943q-.154-.64-.271-1.3" transform="translate(-0.717 -11.911)"/>
              <path id="XMLID_111_8" data-name="XMLID_111_" class="cls-5" d="M6.07,39H2.443c.154.443.324.875.506,1.3H6.574q-.272-.635-.5-1.3" transform="translate(-1.269 -13.662)"/>
              <path id="XMLID_110_8" data-name="XMLID_110_" class="cls-5" d="M5.19,19H1.57c-.118.427-.228.859-.32,1.3H4.879c.092-.439.194-.874.311-1.3" transform="translate(-0.797 -6.656)"/>
              <path id="XMLID_109_8" data-name="XMLID_109_" class="cls-5" d="M7.022,14H3.4c-.2.423-.387.856-.559,1.3H6.466q.257-.665.556-1.3" transform="translate(-1.426 -4.904)"/>
              <path id="XMLID_108_8" data-name="XMLID_108_" class="cls-5" d="M10.824,8H7.2q-.516.62-.98,1.3H9.843q.465-.679.981-1.3" transform="translate(-2.763 -2.803)"/>
              <path id="XMLID_107_8" data-name="XMLID_107_" class="cls-5" d="M16.417,3H12.785a14.526,14.526,0,0,0-1.774,1.3h3.63A14.551,14.551,0,0,1,16.417,3" transform="translate(-4.662 -1.051)"/>
              <path id="XMLID_106_8" data-name="XMLID_106_" class="cls-5" d="M9.142,45H5.516q.42.675.889,1.3h3.629q-.469-.624-.892-1.3" transform="translate(-2.486 -15.764)"/>
              <path id="XMLID_105_8" data-name="XMLID_105_" class="cls-5" d="M9.832,50a15.213,15.213,0,0,0,1.525,1.3H14.99A15.081,15.081,0,0,1,13.455,50Z" transform="translate(-4.195 -17.516)"/>
            </g>
            <g id="coin-9" data-name="coin" transform="translate(21.708 0)">
              <path id="XMLID_99_9" data-name="XMLID_99_" class="cls-3" d="M21.3,36.382c-8.174,0-14.8-8.144-14.8-18.191S13.126,0,21.3,0,36.1,8.144,36.1,18.191,29.473,36.382,21.3,36.382" transform="translate(-2.876)"/>
              <path id="XMLID_132_9" data-name="XMLID_132_" class="cls-4" d="M4.124,18.191C4.124,8.9,9.794,1.24,17.112.14A12.221,12.221,0,0,0,15.3,0C7.126,0,.5,8.144.5,18.191S7.126,36.382,15.3,36.382a12.22,12.22,0,0,0,1.812-.14c-7.318-1.1-12.987-8.759-12.987-18.051" transform="translate(-0.5 0)"/>
              <path id="XMLID_115_9" data-name="XMLID_115_" class="cls-4" d="M23.2,34.743h-.052a10.02,10.02,0,0,1-1.266-.081.642.642,0,0,1-.529-.722.62.62,0,0,1,.672-.568,8.851,8.851,0,0,0,1.122.071.649.649,0,0,1,.63.65.607.607,0,0,1-.578.65m3.513-.7a.607.607,0,0,1-.565-.421.664.664,0,0,1,.352-.837,9.6,9.6,0,0,0,1.031-.492.584.584,0,0,1,.814.281.674.674,0,0,1-.262.874A10.845,10.845,0,0,1,26.924,34a.557.557,0,0,1-.213.042m-8.176-.5a.566.566,0,0,1-.273-.071,11.347,11.347,0,0,1-1.093-.681.68.68,0,0,1-.175-.9.58.58,0,0,1,.837-.188,10.079,10.079,0,0,0,.977.609.674.674,0,0,1,.265.873.6.6,0,0,1-.539.356m12.148-2.312a.582.582,0,0,1-.425-.188.685.685,0,0,1,0-.919c.263-.285.518-.591.759-.911a.576.576,0,0,1,.85-.094.684.684,0,0,1,.088.914c-.266.352-.548.691-.839,1.006a.584.584,0,0,1-.429.192m-15.837-.915a.589.589,0,0,1-.468-.237c-.262-.344-.514-.708-.748-1.082a.681.681,0,0,1,.163-.9.578.578,0,0,1,.838.175c.213.34.442.672.681.984a.685.685,0,0,1-.084.915.577.577,0,0,1-.383.147m18.493-3.337a.571.571,0,0,1-.241-.054.67.67,0,0,1-.313-.856c.152-.373.29-.76.411-1.149a.6.6,0,0,1,.765-.409.663.663,0,0,1,.38.823c-.133.424-.284.847-.449,1.254a.606.606,0,0,1-.554.39m-20.8-1.148a.611.611,0,0,1-.572-.44c-.133-.421-.252-.854-.352-1.288a.653.653,0,0,1,.44-.787.6.6,0,0,1,.732.473c.092.4.2.8.324,1.182a.662.662,0,0,1-.376.824.557.557,0,0,1-.2.036M34.479,22l-.047,0a.637.637,0,0,1-.556-.7c.028-.394.043-.8.043-1.194a.648.648,0,0,1,.6-.67.609.609,0,0,1,.6.628v.042c0,.432-.016.867-.047,1.295a.624.624,0,0,1-.6.6M11.77,20.766a.622.622,0,0,1-.6-.643v-.014c0-.443.016-.889.048-1.323a.621.621,0,0,1,.65-.6.637.637,0,0,1,.555.7c-.03.4-.045.812-.045,1.221a.635.635,0,0,1-.6.657m22.312-3.874A.613.613,0,0,1,33.5,16.4c-.094-.4-.2-.8-.326-1.183a.663.663,0,0,1,.376-.825.593.593,0,0,1,.767.4c.134.42.253.852.355,1.286a.655.655,0,0,1-.438.789.526.526,0,0,1-.149.02m-21.547-1.18a.57.57,0,0,1-.195-.035.662.662,0,0,1-.378-.824c.133-.422.285-.844.451-1.253a.589.589,0,0,1,.8-.335.67.67,0,0,1,.312.856c-.153.375-.292.762-.414,1.149a.61.61,0,0,1-.572.442m19.614-3.5a.593.593,0,0,1-.5-.286c-.214-.339-.443-.67-.683-.982a.684.684,0,0,1,.082-.915.576.576,0,0,1,.851.088c.263.344.515.707.75,1.08a.681.681,0,0,1-.161.9.573.573,0,0,1-.338.112M14.828,11.22a.576.576,0,0,1-.382-.147.683.683,0,0,1-.085-.914c.266-.351.549-.689.84-1a.575.575,0,0,1,.854,0,.685.685,0,0,1,0,.919c-.263.285-.52.591-.762.91a.585.585,0,0,1-.468.238M28.771,8.6a.568.568,0,0,1-.329-.105,10.119,10.119,0,0,0-.98-.607.674.674,0,0,1-.266-.873.585.585,0,0,1,.811-.287,11.165,11.165,0,0,1,1.094.678.68.68,0,0,1,.176.9.592.592,0,0,1-.507.295M18.513,7.984a.6.6,0,0,1-.539-.355.674.674,0,0,1,.264-.874A10.781,10.781,0,0,1,19.4,6.208a.592.592,0,0,1,.777.381.665.665,0,0,1-.355.836,9.546,9.546,0,0,0-1.032.489.564.564,0,0,1-.273.071m5.8-1.136a.516.516,0,0,1-.071,0,8.887,8.887,0,0,0-1.1-.068.639.639,0,0,1-.617-.65.618.618,0,0,1,.591-.65h.025a10,10,0,0,1,1.238.077.64.64,0,0,1,.53.72.621.621,0,0,1-.6.575" transform="translate(-4.723 -1.918)"/>
              <path id="XMLID_114_9" data-name="XMLID_114_" class="cls-5" d="M4.123,29H.5c.012.437.035.871.072,1.3H4.2q-.056-.643-.075-1.3" transform="translate(-0.5 -10.159)"/>
              <path id="XMLID_113_9" data-name="XMLID_113_" class="cls-5" d="M4.28,24H.658c-.05.428-.086.862-.111,1.3H4.171c.025-.437.059-.871.109-1.3" transform="translate(-0.519 -8.408)"/>
              <path id="XMLID_112_9" data-name="XMLID_112_" class="cls-5" d="M4.672,34H1.047q.118.659.272,1.3H4.943q-.154-.64-.271-1.3" transform="translate(-0.717 -11.911)"/>
              <path id="XMLID_111_9" data-name="XMLID_111_" class="cls-5" d="M6.07,39H2.443c.154.443.324.875.506,1.3H6.574q-.272-.635-.5-1.3" transform="translate(-1.269 -13.662)"/>
              <path id="XMLID_110_9" data-name="XMLID_110_" class="cls-5" d="M5.19,19H1.57c-.118.427-.228.859-.32,1.3H4.879c.092-.439.194-.874.311-1.3" transform="translate(-0.797 -6.656)"/>
              <path id="XMLID_109_9" data-name="XMLID_109_" class="cls-5" d="M7.022,14H3.4c-.2.423-.387.856-.559,1.3H6.466q.257-.665.556-1.3" transform="translate(-1.426 -4.904)"/>
              <path id="XMLID_108_9" data-name="XMLID_108_" class="cls-5" d="M10.824,8H7.2q-.516.62-.98,1.3H9.843q.465-.679.981-1.3" transform="translate(-2.763 -2.803)"/>
              <path id="XMLID_107_9" data-name="XMLID_107_" class="cls-5" d="M16.417,3H12.785a14.526,14.526,0,0,0-1.774,1.3h3.63A14.551,14.551,0,0,1,16.417,3" transform="translate(-4.662 -1.051)"/>
              <path id="XMLID_106_9" data-name="XMLID_106_" class="cls-5" d="M9.142,45H5.516q.42.675.889,1.3h3.629q-.469-.624-.892-1.3" transform="translate(-2.486 -15.764)"/>
              <path id="XMLID_105_9" data-name="XMLID_105_" class="cls-5" d="M9.832,50a15.213,15.213,0,0,0,1.525,1.3H14.99A15.081,15.081,0,0,1,13.455,50Z" transform="translate(-4.195 -17.516)"/>
            </g>
          </g>
        </g>
      </g>
    </g>
    <text id="HR_Payroll_Services" data-name="HR &amp; Payroll Services" class="cls-6" transform="translate(481.814 178.589)"><tspan x="0" y="0">HR &amp; Payroll Services</tspan></text>
    <g id="money" transform="translate(399 208.862)">
      <path id="Path_238" data-name="Path 238" class="cls-7" d="M81.068,83.669l54.111-11.744a2.946,2.946,0,0,1,3.422,2.466l21.174,110.863a3.221,3.221,0,0,1-2.246,3.758l-54.218,11.744a2.946,2.946,0,0,1-3.422-2.466L78.823,87.428A3.133,3.133,0,0,1,81.068,83.669Z" transform="translate(-78.761 -50.434)"/>
      <path id="Path_239" data-name="Path 239" class="cls-8" d="M153.4,120.628,148.481,94.2a1.561,1.561,0,0,0-1.711-1.292L101,102.9a1.694,1.694,0,0,0-1.176,1.879l4.919,26.424a1.561,1.561,0,0,0,1.711,1.292,1.694,1.694,0,0,0,1.176-1.879l-4.6-24.9,42.882-9.4,4.6,24.9a1.561,1.561,0,0,0,1.711,1.292A1.774,1.774,0,0,0,153.4,120.628Z" transform="translate(-94.095 -65.197)"/>
      <path id="Path_240" data-name="Path 240" class="cls-9" d="M131.16,35.786l54.966-5.872a3.044,3.044,0,0,1,3.208,2.818l13.153,118.38a3.01,3.01,0,0,1-2.566,3.406l-54.966,5.872a3.044,3.044,0,0,1-3.208-2.818L128.594,39.191A3.164,3.164,0,0,1,131.16,35.786Z" transform="translate(-115.058 -20.988)"/>
      <path id="Path_241" data-name="Path 241" class="cls-10" d="M198.359,51a1.491,1.491,0,0,0-1.6-1.409l-46.411,4.932a1.564,1.564,0,0,0-1.283,1.762l2.459,26.894a1.491,1.491,0,0,0,1.6,1.409,1.564,1.564,0,0,0,1.283-1.762l-2.246-25.25L195.685,53l2.246,25.25a1.491,1.491,0,0,0,1.6,1.409,1.564,1.564,0,0,0,1.283-1.762S198.359,51,198.359,51Z" transform="translate(-129.964 -34.797)"/>
      <path id="Path_242" data-name="Path 242" class="cls-11" d="M199.741,0h56.142a3.144,3.144,0,0,1,2.994,3.288V126.013a3.148,3.148,0,0,1-2.994,3.288H199.741a3.144,3.144,0,0,1-2.994-3.288V3.288A3.078,3.078,0,0,1,199.741,0Z" transform="translate(-164.711)"/>
      <path id="Path_243" data-name="Path 243" class="cls-12" d="M220.717,78.412c0,13.036,9.624,23.488,21.388,23.488s21.388-10.57,21.388-23.488c0-11.846-8.093-21.717-18.59-23.286a19.183,19.183,0,0,0-2.8-.2C230.341,54.924,220.717,65.494,220.717,78.412Zm9.945-.587h1.6a8.088,8.088,0,0,1,3.422-6.107,1.849,1.849,0,0,1,.749-.235,1.507,1.507,0,0,1,1.5,1.527,1.465,1.465,0,0,1-.642,1.292,7.1,7.1,0,0,0-2.139,4.933c0,2.7.856,3.993,2.566,3.993,4.171,0,2.246-10.922,9.09-10.922,2.566,0,4.705,1.644,5.133,5.52h1.6a1.409,1.409,0,0,1,0,2.818h-1.6c-.321,2.349-1.176,4.345-2.566,5.4a1.237,1.237,0,0,1-.963.352,1.539,1.539,0,0,1-1.5-1.644,1.866,1.866,0,0,1,.642-1.292,6.367,6.367,0,0,0,1.5-4.228c0-2.466-1.069-3.406-2.246-3.406-3.743,0-2.032,10.922-9.09,10.922-3.1,0-5.133-2.114-5.561-6.107h-1.6a1.384,1.384,0,0,1-1.39-1.409A1.551,1.551,0,0,1,230.662,77.825Zm35.5,35.819a1.731,1.731,0,0,0-1.6,1.762v18.2H219.647v-18.2a1.611,1.611,0,1,0-3.208,0v19.965a1.731,1.731,0,0,0,1.6,1.762h48.122a1.731,1.731,0,0,0,1.6-1.762V115.406A1.731,1.731,0,0,0,266.165,113.644Zm0-93.952H218.043a1.731,1.731,0,0,0-1.6,1.762V41.419a1.611,1.611,0,1,0,3.208,0v-18.2h44.914v18.2a1.611,1.611,0,1,0,3.208,0V21.454A1.732,1.732,0,0,0,266.165,19.692ZM238.9,118.342a3.222,3.222,0,1,0,3.208-3.523A3.388,3.388,0,0,0,238.9,118.342Zm6.416-79.859a3.222,3.222,0,1,0-6.416,0,3.222,3.222,0,1,0,6.416,0Z" transform="translate(-179.056 -13.82)"/>
      <path id="Path_245" data-name="Path 245" class="cls-12" d="M21.45,0C33.3,0,42.9,10.547,42.9,23.557c0,10.8-6.616,19.9-15.72,22.707a19.538,19.538,0,0,1-5.73.85C9.6,47.114,0,36.567,0,23.557S9.6,0,21.45,0Z" transform="translate(41.814 41.15)"/>
    </g>
    <g id="money-2" data-name="money" transform="translate(399 208.862)">
      <path id="Path_238-2" data-name="Path 238" class="cls-7" d="M81.068,83.669l54.111-11.744a2.946,2.946,0,0,1,3.422,2.466l21.174,110.863a3.221,3.221,0,0,1-2.246,3.758l-54.218,11.744a2.946,2.946,0,0,1-3.422-2.466L78.823,87.428A3.133,3.133,0,0,1,81.068,83.669Z" transform="translate(-78.761 -50.434)"/>
      <path id="Path_239-2" data-name="Path 239" class="cls-8" d="M153.4,120.628,148.481,94.2a1.561,1.561,0,0,0-1.711-1.292L101,102.9a1.694,1.694,0,0,0-1.176,1.879l4.919,26.424a1.561,1.561,0,0,0,1.711,1.292,1.694,1.694,0,0,0,1.176-1.879l-4.6-24.9,42.882-9.4,4.6,24.9a1.561,1.561,0,0,0,1.711,1.292A1.774,1.774,0,0,0,153.4,120.628Z" transform="translate(-94.095 -65.197)"/>
      <path id="Path_240-2" data-name="Path 240" class="cls-9" d="M131.16,35.786l54.966-5.872a3.044,3.044,0,0,1,3.208,2.818l13.153,118.38a3.01,3.01,0,0,1-2.566,3.406l-54.966,5.872a3.044,3.044,0,0,1-3.208-2.818L128.594,39.191A3.164,3.164,0,0,1,131.16,35.786Z" transform="translate(-115.058 -20.988)"/>
      <path id="Path_241-2" data-name="Path 241" class="cls-10" d="M198.359,51a1.491,1.491,0,0,0-1.6-1.409l-46.411,4.932a1.564,1.564,0,0,0-1.283,1.762l2.459,26.894a1.491,1.491,0,0,0,1.6,1.409,1.564,1.564,0,0,0,1.283-1.762l-2.246-25.25L195.685,53l2.246,25.25a1.491,1.491,0,0,0,1.6,1.409,1.564,1.564,0,0,0,1.283-1.762S198.359,51,198.359,51Z" transform="translate(-129.964 -34.797)"/>
      <path id="Path_242-2" data-name="Path 242" class="cls-11" d="M199.741,0h56.142a3.144,3.144,0,0,1,2.994,3.288V126.013a3.148,3.148,0,0,1-2.994,3.288H199.741a3.144,3.144,0,0,1-2.994-3.288V3.288A3.078,3.078,0,0,1,199.741,0Z" transform="translate(-164.711)"/>
      <path id="Path_243-2" data-name="Path 243" class="cls-12" d="M220.717,78.412c0,13.036,9.624,23.488,21.388,23.488s21.388-10.57,21.388-23.488c0-11.846-8.093-21.717-18.59-23.286a19.183,19.183,0,0,0-2.8-.2C230.341,54.924,220.717,65.494,220.717,78.412Zm9.945-.587h1.6a8.088,8.088,0,0,1,3.422-6.107,1.849,1.849,0,0,1,.749-.235,1.507,1.507,0,0,1,1.5,1.527,1.465,1.465,0,0,1-.642,1.292,7.1,7.1,0,0,0-2.139,4.933c0,2.7.856,3.993,2.566,3.993,4.171,0,2.246-10.922,9.09-10.922,2.566,0,4.705,1.644,5.133,5.52h1.6a1.409,1.409,0,0,1,0,2.818h-1.6c-.321,2.349-1.176,4.345-2.566,5.4a1.237,1.237,0,0,1-.963.352,1.539,1.539,0,0,1-1.5-1.644,1.866,1.866,0,0,1,.642-1.292,6.367,6.367,0,0,0,1.5-4.228c0-2.466-1.069-3.406-2.246-3.406-3.743,0-2.032,10.922-9.09,10.922-3.1,0-5.133-2.114-5.561-6.107h-1.6a1.384,1.384,0,0,1-1.39-1.409A1.551,1.551,0,0,1,230.662,77.825Zm35.5,35.819a1.731,1.731,0,0,0-1.6,1.762v18.2H219.647v-18.2a1.611,1.611,0,1,0-3.208,0v19.965a1.731,1.731,0,0,0,1.6,1.762h48.122a1.731,1.731,0,0,0,1.6-1.762V115.406A1.731,1.731,0,0,0,266.165,113.644Zm0-93.952H218.043a1.731,1.731,0,0,0-1.6,1.762V41.419a1.611,1.611,0,1,0,3.208,0v-18.2h44.914v18.2a1.611,1.611,0,1,0,3.208,0V21.454A1.732,1.732,0,0,0,266.165,19.692ZM238.9,118.342a3.222,3.222,0,1,0,3.208-3.523A3.388,3.388,0,0,0,238.9,118.342Zm6.416-79.859a3.222,3.222,0,1,0-6.416,0,3.222,3.222,0,1,0,6.416,0Z" transform="translate(-179.056 -13.82)"/>
      <path id="Path_245-2" data-name="Path 245" class="cls-12" d="M21.45,0C33.3,0,42.9,10.547,42.9,23.557c0,10.8-6.616,19.9-15.72,22.707a19.538,19.538,0,0,1-5.73.85C9.6,47.114,0,36.567,0,23.557S9.6,0,21.45,0Z" transform="translate(41.814 41.15)"/>
    </g>
    <g id="rupee" transform="translate(473.391 265.661) rotate(90)">
      <g id="Group_320" data-name="Group 320">
        <path id="Path_244" data-name="Path 244" class="cls-11" d="M16.187,5.266H13.1a6.707,6.707,0,0,0-.578-1.342h3.666a2.067,2.067,0,0,0,2.154-1.962A2.067,2.067,0,0,0,16.187,0H2.154A2.067,2.067,0,0,0,0,1.962,2.067,2.067,0,0,0,2.154,3.923H5.46A3.781,3.781,0,0,1,8.371,5.266H2.154A2.067,2.067,0,0,0,0,7.227,2.067,2.067,0,0,0,2.154,9.189H8.377A3.785,3.785,0,0,1,5.46,10.531H2.154A2.062,2.062,0,0,0,0,12.48,1.857,1.857,0,0,0,.681,13.9l9.281,9.339A2.307,2.307,0,0,0,13,23.379a1.884,1.884,0,0,0,.706-1.357,1.848,1.848,0,0,0-.554-1.415L6.9,14.321a7.991,7.991,0,0,0,5.479-3.591.369.369,0,0,0-.161-.528.448.448,0,0,0-.58.146,7.2,7.2,0,0,1-5.631,3.3.423.423,0,0,0-.362.243.361.361,0,0,0,.08.4l6.8,6.834a1.118,1.118,0,0,1,.335.856,1.141,1.141,0,0,1-.428.821,1.4,1.4,0,0,1-1.842-.082L1.3,13.372l-.027-.025A1.123,1.123,0,0,1,.85,12.48a1.246,1.246,0,0,1,1.3-1.174H5.46A4.569,4.569,0,0,0,9.511,8.968.357.357,0,0,0,9.487,8.6a.436.436,0,0,0-.36-.181H2.154A1.251,1.251,0,0,1,.85,7.227a1.251,1.251,0,0,1,1.3-1.187H9.123a.436.436,0,0,0,.36-.181.357.357,0,0,0,.024-.374A4.569,4.569,0,0,0,5.46,3.149H2.154A1.251,1.251,0,0,1,.85,1.962,1.251,1.251,0,0,1,2.154.774H16.187a1.251,1.251,0,0,1,1.3,1.187,1.251,1.251,0,0,1-1.3,1.187H11.779a.433.433,0,0,0-.375.2.358.358,0,0,0,.021.4,5.867,5.867,0,0,1,.93,1.99.419.419,0,0,0,.414.3h3.419a1.251,1.251,0,0,1,1.3,1.187,1.251,1.251,0,0,1-1.3,1.187H12.756a.389.389,0,1,0,0,.774h3.431a2.067,2.067,0,0,0,2.154-1.962A2.067,2.067,0,0,0,16.187,5.266Z"/>
      </g>
    </g>
    <g id="pen" transform="matrix(-0.978, 0.208, -0.208, -0.978, 682.818, 284.526)">
      <path id="Path_41" data-name="Path 41" class="cls-13" d="M3.054,4.455a.929.929,0,0,1-.709-.308L.243,1.852A1.174,1.174,0,0,1,.272.3.953.953,0,0,1,1.7.267L3.8,2.561a1.171,1.171,0,0,1-.028,1.557,1.008,1.008,0,0,1-.721.337" transform="translate(46.565 13.915)"/>
      <path id="Path_42" data-name="Path 42" class="cls-14" d="M-1.466,41.209,37.9-1.6l5.6,6.115L4.139,47.324Z" transform="translate(9.137 4.915)"/>
      <g id="Group_18" data-name="Group 18" transform="translate(-0.108 3.024)">
        <path id="Path_43" data-name="Path 43" class="cls-13" d="M.9,3.687A.929.929,0,0,1,.19,3.378,1.171,1.171,0,0,1,.218,1.821L1.676.236A.953.953,0,0,1,3.105.207a1.171,1.171,0,0,1-.028,1.557L1.619,3.35A1.008,1.008,0,0,1,.9,3.687" transform="translate(-2.001 56.257)"/>
        <path id="Path_44" data-name="Path 44" class="cls-13" d="M7.036,4.5,4.121,7.666-.109,3.052,2.808-.119Z" transform="translate(47.927 -2.029)"/>
        <path id="Path_45" data-name="Path 45" class="cls-13" d="M1.341,23.66l-2.1-2.293L19.651-.832l2.1,2.293Z" transform="translate(33.741 11.113)"/>
        <path id="Path_46" data-name="Path 46" class="cls-13" d="M5.442,10.693l-5.6-6.115L4.211-.178l5.6,6.114Z" transform="translate(3.568 43.278)"/>
      </g>
      <g id="Group_19" data-name="Group 19" transform="translate(2.385 -0.101)">
        <path id="Path_47" data-name="Path 47" class="cls-14" d="M3.459-.146h0l4.2,4.587h0A7.605,7.605,0,0,1,1.279,8.459l-1.551.031L-.241,6.8a8.554,8.554,0,0,1,3.7-6.947" transform="translate(-1.846 51.892)"/>
        <path id="Path_48" data-name="Path 48" class="cls-14" d="M4.1,7.639l-4.2-4.587L2.808-.119l4.2,4.587Z" transform="translate(48.376 -2.048)"/>
      </g>
      <path id="Path_49" data-name="Path 49" class="cls-13" d="M1.77,32.056-1.032,29,26.67-1.129l2.8,3.057Z" transform="translate(14.535 10.782)"/>
    </g>
    <g id="pen-2" data-name="pen" transform="matrix(-0.978, 0.208, -0.208, -0.978, 682.818, 284.526)">
      <path id="Path_41-2" data-name="Path 41" class="cls-13" d="M3.054,4.455a.929.929,0,0,1-.709-.308L.243,1.852A1.174,1.174,0,0,1,.272.3.953.953,0,0,1,1.7.267L3.8,2.561a1.171,1.171,0,0,1-.028,1.557,1.008,1.008,0,0,1-.721.337" transform="translate(46.565 13.915)"/>
      <path id="Path_42-2" data-name="Path 42" class="cls-14" d="M-1.466,41.209,37.9-1.6l5.6,6.115L4.139,47.324Z" transform="translate(9.137 4.915)"/>
      <g id="Group_18-2" data-name="Group 18" transform="translate(-0.108 3.024)">
        <path id="Path_43-2" data-name="Path 43" class="cls-13" d="M.9,3.687A.929.929,0,0,1,.19,3.378,1.171,1.171,0,0,1,.218,1.821L1.676.236A.953.953,0,0,1,3.105.207a1.171,1.171,0,0,1-.028,1.557L1.619,3.35A1.008,1.008,0,0,1,.9,3.687" transform="translate(-2.001 56.257)"/>
        <path id="Path_44-2" data-name="Path 44" class="cls-13" d="M7.036,4.5,4.121,7.666-.109,3.052,2.808-.119Z" transform="translate(47.927 -2.029)"/>
        <path id="Path_45-2" data-name="Path 45" class="cls-13" d="M1.341,23.66l-2.1-2.293L19.651-.832l2.1,2.293Z" transform="translate(33.741 11.113)"/>
        <path id="Path_46-2" data-name="Path 46" class="cls-13" d="M5.442,10.693l-5.6-6.115L4.211-.178l5.6,6.114Z" transform="translate(3.568 43.278)"/>
      </g>
      <g id="Group_19-2" data-name="Group 19" transform="translate(2.385 -0.101)">
        <path id="Path_47-2" data-name="Path 47" class="cls-14" d="M3.459-.146h0l4.2,4.587h0A7.605,7.605,0,0,1,1.279,8.459l-1.551.031L-.241,6.8a8.554,8.554,0,0,1,3.7-6.947" transform="translate(-1.846 51.892)"/>
        <path id="Path_48-2" data-name="Path 48" class="cls-14" d="M4.1,7.639l-4.2-4.587L2.808-.119l4.2,4.587Z" transform="translate(48.376 -2.048)"/>
      </g>
      <path id="Path_49-2" data-name="Path 49" class="cls-13" d="M1.77,32.056-1.032,29,26.67-1.129l2.8,3.057Z" transform="translate(14.535 10.782)"/>
    </g>
    <g id="Group_313" data-name="Group 313" transform="translate(609.182 83.888)">
      <g id="Group_178" data-name="Group 178" transform="translate(0 0)">
        <g id="Group_160" data-name="Group 160" transform="translate(18.847)">
          <path id="Path_178" data-name="Path 178" class="cls-15" d="M930.58,278.818a6.617,6.617,0,0,0-3.856-8.141L873.506,252.19a5.813,5.813,0,0,0-7.413,4.234L860.5,275.866,924.96,298.29Z" transform="translate(-860.5 -251.888)"/>
        </g>
        <g id="Group_161" data-name="Group 161" transform="translate(0 23.948)">
          <path id="Path_179" data-name="Path 179" class="cls-16" d="M809.935,332.2l-18.572,64.409a6.617,6.617,0,0,0,3.856,8.141l53.218,18.488A5.813,5.813,0,0,0,855.849,419l18.572-64.409Z" transform="translate(-791.088 -332.2)"/>
        </g>
        <g id="Group_162" data-name="Group 162" transform="translate(29.927 9.936)">
          <path id="Path_180" data-name="Path 180" class="cls-17" d="M944.288,312.7l-40.837-14.194a3.484,3.484,0,0,1-2.009-4.234l1.928-6.709a3.06,3.06,0,0,1,3.856-2.207l40.837,14.194a3.484,3.484,0,0,1,2.009,4.234l-1.928,6.709A3.028,3.028,0,0,1,944.288,312.7Z" transform="translate(-901.309 -285.209)"/>
        </g>
        <g id="Group_163" data-name="Group 163" transform="translate(24.176 32.454)">
          <path id="Path_181" data-name="Path 181" class="cls-18" d="M886.228,371.9l-4.67-1.64a2.292,2.292,0,0,1-1.331-2.833l1.493-5.129a2.011,2.011,0,0,1,2.579-1.461l4.67,1.64a2.292,2.292,0,0,1,1.33,2.833l-1.493,5.129A2.011,2.011,0,0,1,886.228,371.9Z" transform="translate(-880.126 -360.726)"/>
        </g>
        <g id="Group_164" data-name="Group 164" transform="translate(36.856 36.867)">
          <path id="Path_182" data-name="Path 182" class="cls-18" d="M932.928,386.7l-4.67-1.64a2.292,2.292,0,0,1-1.33-2.833l1.493-5.129A2.011,2.011,0,0,1,931,375.638l4.67,1.64A2.292,2.292,0,0,1,937,380.11l-1.493,5.129A2,2,0,0,1,932.928,386.7Z" transform="translate(-926.826 -375.526)"/>
        </g>
        <g id="Group_165" data-name="Group 165" transform="translate(49.563 41.281)">
          <path id="Path_183" data-name="Path 183" class="cls-18" d="M979.728,401.5l-4.67-1.64a2.292,2.292,0,0,1-1.33-2.833l1.493-5.129a2.011,2.011,0,0,1,2.579-1.461l4.67,1.64a2.292,2.292,0,0,1,1.33,2.833l-1.493,5.129A2.011,2.011,0,0,1,979.728,401.5Z" transform="translate(-973.626 -390.326)"/>
        </g>
        <g id="Group_166" data-name="Group 166" transform="translate(62.243 45.694)">
          <path id="Path_184" data-name="Path 184" class="cls-19" d="M1026.428,416.3l-4.67-1.64a2.292,2.292,0,0,1-1.331-2.833l1.493-5.129a2.011,2.011,0,0,1,2.579-1.461l4.67,1.64a2.292,2.292,0,0,1,1.33,2.833l-1.493,5.129A2,2,0,0,1,1026.428,416.3Z" transform="translate(-1020.326 -405.126)"/>
        </g>
        <g id="Group_167" data-name="Group 167" transform="translate(19.479 48.705)">
          <path id="Path_185" data-name="Path 185" class="cls-18" d="M868.928,426.4l-4.67-1.64a2.292,2.292,0,0,1-1.33-2.833l1.493-5.129A2.011,2.011,0,0,1,867,415.338l4.67,1.64A2.292,2.292,0,0,1,873,419.81l-1.493,5.129A2,2,0,0,1,868.928,426.4Z" transform="translate(-862.826 -415.226)"/>
        </g>
        <g id="Group_168" data-name="Group 168" transform="translate(32.186 53.119)">
          <path id="Path_186" data-name="Path 186" class="cls-18" d="M915.728,441.2l-4.67-1.64a2.292,2.292,0,0,1-1.331-2.833l1.493-5.129a2.011,2.011,0,0,1,2.579-1.461l4.67,1.64a2.292,2.292,0,0,1,1.331,2.833l-1.493,5.129A2.011,2.011,0,0,1,915.728,441.2Z" transform="translate(-909.626 -430.026)"/>
        </g>
        <g id="Group_169" data-name="Group 169" transform="translate(44.866 57.532)">
          <path id="Path_187" data-name="Path 187" class="cls-18" d="M962.428,456l-4.67-1.64a2.292,2.292,0,0,1-1.33-2.833l1.493-5.129a2.011,2.011,0,0,1,2.579-1.461l4.67,1.64a2.292,2.292,0,0,1,1.33,2.833l-1.493,5.129A2,2,0,0,1,962.428,456Z" transform="translate(-956.326 -444.826)"/>
        </g>
        <g id="Group_170" data-name="Group 170" transform="translate(57.573 61.945)">
          <path id="Path_188" data-name="Path 188" class="cls-20" d="M1009.228,470.8l-4.67-1.64a2.292,2.292,0,0,1-1.331-2.833l1.493-5.129a2.011,2.011,0,0,1,2.579-1.461l4.67,1.64a2.292,2.292,0,0,1,1.331,2.833l-1.493,5.129A2.011,2.011,0,0,1,1009.228,470.8Z" transform="translate(-1003.126 -459.626)"/>
        </g>
        <g id="Group_171" data-name="Group 171" transform="translate(14.808 64.957)">
          <path id="Path_189" data-name="Path 189" class="cls-18" d="M851.728,480.9l-4.67-1.64a2.292,2.292,0,0,1-1.33-2.833l1.493-5.129a2.011,2.011,0,0,1,2.579-1.461l4.67,1.64a2.292,2.292,0,0,1,1.33,2.833l-1.493,5.129A2.011,2.011,0,0,1,851.728,480.9Z" transform="translate(-845.626 -469.726)"/>
        </g>
        <g id="Group_172" data-name="Group 172" transform="translate(27.488 69.37)">
          <path id="Path_190" data-name="Path 190" class="cls-18" d="M898.428,495.7l-4.67-1.64a2.292,2.292,0,0,1-1.331-2.833l1.493-5.129a2.011,2.011,0,0,1,2.58-1.461l4.67,1.64a2.292,2.292,0,0,1,1.331,2.833l-1.493,5.129A2,2,0,0,1,898.428,495.7Z" transform="translate(-892.326 -484.526)"/>
        </g>
        <g id="Group_173" data-name="Group 173" transform="translate(40.196 73.783)">
          <path id="Path_191" data-name="Path 191" class="cls-18" d="M945.228,510.5l-4.67-1.64a2.292,2.292,0,0,1-1.33-2.833l1.493-5.129a2.011,2.011,0,0,1,2.579-1.461l4.67,1.64a2.292,2.292,0,0,1,1.331,2.833l-1.493,5.129A2.011,2.011,0,0,1,945.228,510.5Z" transform="translate(-939.126 -499.326)"/>
        </g>
        <g id="Group_174" data-name="Group 174" transform="translate(47.88 78.196)">
          <path id="Path_192" data-name="Path 192" class="cls-21" d="M973.528,542.625l-4.67-1.64a2.292,2.292,0,0,1-1.331-2.833L973.99,515.7a2.011,2.011,0,0,1,2.58-1.461l4.67,1.64a2.292,2.292,0,0,1,1.331,2.833l-6.462,22.454A2,2,0,0,1,973.528,542.625Z" transform="translate(-967.426 -514.126)"/>
        </g>
        <g id="Group_175" data-name="Group 175" transform="translate(10.111 81.208)">
          <path id="Path_193" data-name="Path 193" class="cls-18" d="M834.428,535.4l-4.67-1.64a2.292,2.292,0,0,1-1.33-2.833l1.493-5.129a2.011,2.011,0,0,1,2.579-1.461l4.67,1.64a2.292,2.292,0,0,1,1.33,2.833l-1.493,5.129A2.022,2.022,0,0,1,834.428,535.4Z" transform="translate(-828.326 -524.226)"/>
        </g>
        <g id="Group_176" data-name="Group 176" transform="translate(22.818 85.621)">
          <path id="Path_194" data-name="Path 194" class="cls-18" d="M881.228,550.2l-4.67-1.64a2.292,2.292,0,0,1-1.331-2.833l1.493-5.129a2.011,2.011,0,0,1,2.579-1.461l4.67,1.64a2.292,2.292,0,0,1,1.33,2.833l-1.493,5.129A2.032,2.032,0,0,1,881.228,550.2Z" transform="translate(-875.126 -539.026)"/>
        </g>
        <g id="Group_177" data-name="Group 177" transform="translate(35.498 90.034)">
          <path id="Path_195" data-name="Path 195" class="cls-18" d="M927.928,565l-4.67-1.64a2.292,2.292,0,0,1-1.33-2.833l1.493-5.129A2.011,2.011,0,0,1,926,553.938l4.67,1.64A2.292,2.292,0,0,1,932,558.41l-1.493,5.129A2.022,2.022,0,0,1,927.928,565Z" transform="translate(-921.826 -553.826)"/>
        </g>
      </g>
      <g id="Group_312" data-name="Group 312" transform="translate(69.948 160.071)">
        <g id="Group_298" data-name="Group 298" transform="translate(0 0)">
          <path id="Path_225" data-name="Path 225" class="cls-22" d="M918.7,638.7v55.016l2.417-3.847,2.389,3.847,2.417-3.847,2.417,3.847,2.389-3.847,2.417,3.847,2.389-3.847,2.417,3.847,2.389-3.847,2.417,3.847,2.389-3.847,2.417,3.847,2.417-3.847,2.389,3.847,2.417-3.847,2.389,3.847V638.7Z" transform="translate(-918.7 -638.7)"/>
        </g>
        <g id="Group_322" data-name="Group 322" transform="translate(1.982 3.012)">
          <g id="Group_299" data-name="Group 299">
            <rect id="Rectangle_61" data-name="Rectangle 61" class="cls-15" width="34.863" height="13.329"/>
          </g>
        </g>
        <g id="Group_304" data-name="Group 304" transform="translate(9.721 4.801)">
          <g id="Group_300" data-name="Group 300">
            <path id="Path_226" data-name="Path 226" class="cls-22" d="M959.279,658.706a3.2,3.2,0,0,1,.9,1.133,3.233,3.233,0,0,1,.326,1.431,2.925,2.925,0,0,1-.271,1.282,3.369,3.369,0,0,1-.733,1.044,3.568,3.568,0,0,1-1.086.716,3.2,3.2,0,0,1-1.3.268H954.5V654.8h2.362a2.506,2.506,0,0,1,1.059.209,3.026,3.026,0,0,1,.869.567,3.5,3.5,0,0,1,.6.835,2.636,2.636,0,0,1,.217,1.044A2.366,2.366,0,0,1,959.279,658.706Zm-2.715-1.67v.895h.326a.877.877,0,0,0,.489-.149.378.378,0,0,0,.19-.3c0-.089-.054-.179-.19-.3a.694.694,0,0,0-.489-.149Zm.543,5.278a1.453,1.453,0,0,0,.516-.089,2.1,2.1,0,0,0,.434-.239,1.1,1.1,0,0,0,.3-.328.735.735,0,0,0,.109-.418.8.8,0,0,0-.109-.417,1.74,1.74,0,0,0-.3-.358,2.1,2.1,0,0,0-.434-.239,1.451,1.451,0,0,0-.516-.089h-.57v2.147h.57Z" transform="translate(-954.5 -654.8)"/>
          </g>
          <g id="Group_301" data-name="Group 301" transform="translate(6.761 0.03)">
            <path id="Path_227" data-name="Path 227" class="cls-22" d="M981.436,664.651H979.4V654.9h2.036Z" transform="translate(-979.4 -654.9)"/>
          </g>
          <g id="Group_302" data-name="Group 302" transform="translate(9.992 0.03)">
            <path id="Path_228" data-name="Path 228" class="cls-22" d="M996.568,664.651H991.3V654.9h2.036v7.484h3.231Z" transform="translate(-991.3 -654.9)"/>
          </g>
          <g id="Group_303" data-name="Group 303" transform="translate(16.101 0.03)">
            <path id="Path_229" data-name="Path 229" class="cls-22" d="M1019.067,664.651H1013.8V654.9h2.036v7.484h3.231Z" transform="translate(-1013.8 -654.9)"/>
          </g>
        </g>
        <g id="Group_305" data-name="Group 305" transform="translate(1.982 20.307)">
          <rect id="Rectangle_62" data-name="Rectangle 62" class="cls-15" width="21.45" height="1.193"/>
        </g>
        <g id="Group_306" data-name="Group 306" transform="translate(1.982 26.181)">
          <rect id="Rectangle_63" data-name="Rectangle 63" class="cls-15" width="21.45" height="1.193"/>
        </g>
        <g id="Group_307" data-name="Group 307" transform="translate(1.982 32.085)">
          <rect id="Rectangle_64" data-name="Rectangle 64" class="cls-15" width="21.45" height="1.193"/>
        </g>
        <g id="Group_308" data-name="Group 308" transform="translate(1.982 37.959)">
          <rect id="Rectangle_65" data-name="Rectangle 65" class="cls-15" width="21.45" height="1.193"/>
        </g>
        <g id="Group_309" data-name="Group 309" transform="translate(1.982 43.834)">
          <rect id="Rectangle_66" data-name="Rectangle 66" class="cls-15" width="21.45" height="1.193"/>
        </g>
      </g>
    </g>
    <g id="Group_321" data-name="Group 321" transform="translate(703.647 263.533)">
      <path id="Path_246" data-name="Path 246" class="cls-15" d="M69.773,5.377H66.7a5.966,5.966,0,0,0-2.426-4.182h5.5a.6.6,0,0,0,.605-.6.6.6,0,0,0-.605-.6H56.97a.6.6,0,0,0-.605.6.6.6,0,0,0,.605.6h3.667a4.869,4.869,0,0,1,4.846,4.182H56.97a.6.6,0,1,0,0,1.195h8.513a4.876,4.876,0,0,1-4.846,4.242h-3.66a.607.607,0,0,0-.417,1.045l9.154,8.549a.6.6,0,1,0,.829-.878l-8.053-7.522h2.142A6.083,6.083,0,0,0,66.7,6.572h3.074a.6.6,0,1,0,0-1.195Z" transform="translate(-56.365)"/>
    </g>
    <g id="Group_167-2" data-name="Group 167" transform="translate(703.647 263.533)">
      <path id="Path_246-2" data-name="Path 246" class="cls-15" d="M69.773,5.377H66.7a5.966,5.966,0,0,0-2.426-4.182h5.5a.6.6,0,0,0,.605-.6.6.6,0,0,0-.605-.6H56.97a.6.6,0,0,0-.605.6.6.6,0,0,0,.605.6h3.667a4.869,4.869,0,0,1,4.846,4.182H56.97a.6.6,0,1,0,0,1.195h8.513a4.876,4.876,0,0,1-4.846,4.242h-3.66a.607.607,0,0,0-.417,1.045l9.154,8.549a.6.6,0,1,0,.829-.878l-8.053-7.522h2.142A6.083,6.083,0,0,0,66.7,6.572h3.074a.6.6,0,1,0,0-1.195Z" transform="translate(-56.365)"/>
    </g>
  </g>
</svg>
