<svg xmlns="http://www.w3.org/2000/svg" viewBox="188 903 318.66 275.36">
  <defs>
    <style>
      .cls-1 {
        fill: #a8e3f7;
      }

      .cls-2 {
        fill: #e6af78;
      }

      .cls-3 {
        fill: #eff2fa;
      }

      .cls-4 {
        fill: #d29b6e;
      }

      .cls-5 {
        fill: #f0c087;
      }

      .cls-6 {
        fill: #e4eaf6;
      }

      .cls-7 {
        fill: #5b5d6e;
      }

      .cls-8 {
        fill: #515262;
      }

      .cls-9 {
        fill: #785550;
      }

      .cls-10 {
        fill: #694b4b;
      }

      .cls-11 {
        fill: #5a4146;
      }

      .cls-12 {
        fill: #fdcb6e;
      }

      .cls-13 {
        fill: #1d97c1;
      }
    </style>
  </defs>
  <g id="Management_Consulting" data-name="Management Consulting" transform="translate(-353 826)">
    <ellipse id="Ellipse_15" data-name="Ellipse 15" class="cls-1" cx="130.949" cy="117.73" rx="130.949" ry="117.73" transform="translate(541 116.899)"/>
    <g id="boss" transform="translate(600.068 151.741)">
      <path id="Path_176" data-name="Path 176" class="cls-2" d="M226.215,317.511V300.15H176.558v17.361l24.829,19.842Z" transform="translate(-129.659 -215.814)"/>
      <path id="Path_177" data-name="Path 177" class="cls-3" d="M161.442,369.241,127.3,362.02a5.846,5.846,0,0,1-1.434-.519L98.222,376,71.651,360.8a5.707,5.707,0,0,1-2.511,1.22L35,369.242c-4.985,1.055-8.508,5.053-8.508,9.657v19.425a5.261,5.261,0,0,0,5.517,4.96H164.431a5.261,5.261,0,0,0,5.517-4.96V378.9C169.949,374.295,166.426,370.3,161.442,369.241Z" transform="translate(-26.495 -259.423)"/>
      <path id="Path_178" data-name="Path 178" class="cls-4" d="M176.558,300.149v18.318c31.277,10.131,49.657-15.225,49.657-15.225v-3.093H176.558Z" transform="translate(-129.659 -215.813)"/>
      <path id="Path_179" data-name="Path 179" class="cls-5" d="M141.249,97.127l2.4,47.55a14.509,14.509,0,0,0,6.6,11.229l11.407,7.692a17.811,17.811,0,0,0,9.932,2.976H182.63a17.809,17.809,0,0,0,9.932-2.976l11.407-7.692a14.509,14.509,0,0,0,6.6-11.229l2.4-47.55Z" transform="translate(-105.385 -69.837)"/>
      <path id="Path_180" data-name="Path 180" class="cls-2" d="M168.837,107.047c11.035,0,27.587-2.48,31.513-9.921h-59.1l2.4,47.55a14.509,14.509,0,0,0,6.6,11.229l11.407,7.692a17.811,17.811,0,0,0,9.932,2.976h5.517c-5.517,0-16.552-9.921-16.552-22.322V114.488A8.347,8.347,0,0,1,168.837,107.047Z" transform="translate(-105.385 -69.836)"/>
      <g id="Group_117" data-name="Group 117" transform="translate(0.001 113.328)">
        <path id="Path_181" data-name="Path 181" class="cls-6" d="M46.75,417.769,28.874,403.332A9.294,9.294,0,0,0,26.5,409.48v19.425a5.261,5.261,0,0,0,5.517,4.96H51.327v-6.871A11.886,11.886,0,0,0,46.75,417.769Z" transform="translate(-26.498 -403.332)"/>
        <path id="Path_182" data-name="Path 182" class="cls-6" d="M410.639,417.769l17.876-14.437a9.294,9.294,0,0,1,2.376,6.148v19.425a5.261,5.261,0,0,1-5.517,4.96H406.063v-6.871A11.884,11.884,0,0,1,410.639,417.769Z" transform="translate(-287.438 -403.332)"/>
      </g>
      <path id="Path_183" data-name="Path 183" class="cls-7" d="M247.728,454.878H233.934l1.724-22.322H246Z" transform="translate(-169.103 -311.017)"/>
      <path id="Path_184" data-name="Path 184" class="cls-8" d="M247.728,414.9H233.934v4.668a2.941,2.941,0,0,0,3.084,2.773h7.625a2.941,2.941,0,0,0,3.084-2.773V414.9Z" transform="translate(-169.103 -298.323)"/>
      <g id="Group_118" data-name="Group 118" transform="translate(38.623 95.539)">
        <path id="Path_185" data-name="Path 185" class="cls-6" d="M157.967,340.657l25.216,20.4a96.714,96.714,0,0,0-15.776,9.665,3.747,3.747,0,0,1-5.481-1.114l-11.847-23.432,3.748-5.054A2.955,2.955,0,0,1,157.967,340.657Z" transform="translate(-150.078 -340.021)"/>
        <path id="Path_186" data-name="Path 186" class="cls-6" d="M281.218,340.657,256,361.061a96.714,96.714,0,0,1,15.776,9.665,3.747,3.747,0,0,0,5.481-1.114l11.847-23.432-3.748-5.054A2.955,2.955,0,0,0,281.218,340.657Z" transform="translate(-222.898 -340.021)"/>
      </g>
      <path id="Path_187" data-name="Path 187" class="cls-9" d="M309.516,34.7,312.1,51.136c11.806,2.123,13.507,18.78,13.752,23.537a4.561,4.561,0,0,0,.872,2.423l4.5,6.282s-1.542-10.386,5.517-17.362C336.748,66.017,339.172,24.783,309.516,34.7Z" transform="translate(-221.064 -23.845)"/>
      <path id="Path_188" data-name="Path 188" class="cls-5" d="M363.079,191.78l-3.114,11.2a3.27,3.27,0,0,1-3.218,2.259h0a3.216,3.216,0,0,1-3.291-2.612l-1.593-11.456c-.426-3.066,2.233-5.774,5.67-5.774h0C361.253,185.4,363.981,188.538,363.079,191.78Z" transform="translate(-250.145 -133.304)"/>
      <path id="Path_189" data-name="Path 189" class="cls-10" d="M125.126,6.416l4.08,2.506c-18.449,12.246-15,33.251-15,33.251,5.517,4.96,5.517,17.362,5.517,17.362l5.517-4.96s-2.129-14.329,8.276-19.842c9.656-5.116,18.1-2.48,26.725-2.48,23.1,0,29.57-7.828,28.449-17.362-.58-4.933-8.969-15.208-30.346-14.882C149.718.14,133.517,2.489,125.126,6.416Z" transform="translate(-86.618 -0.001)"/>
      <path id="Path_190" data-name="Path 190" class="cls-11" d="M123.516,52.91s-2.931-10.386,5.69-21.159C110.757,44,114.205,65,114.205,65c5.517,4.96,5.517,17.362,5.517,17.362l5.517-4.96s-2.129-14.329,8.276-19.842c9.656-5.116,18.1-2.48,26.725-2.48a75.265,75.265,0,0,0,9.948-.614C152.4,55,141.908,42.886,123.516,52.91Z" transform="translate(-86.618 -22.83)"/>
      <path id="Path_191" data-name="Path 191" class="cls-2" d="M123.772,191.78l3.114,11.2a3.27,3.27,0,0,0,3.218,2.259h0a3.216,3.216,0,0,0,3.291-2.612l1.593-11.456c.426-3.066-2.233-5.774-5.67-5.774h0C125.6,185.4,122.87,188.538,123.772,191.78Z" transform="translate(-93.251 -133.304)"/>
      <path id="Path_192" data-name="Path 192" class="cls-6" d="M322.208,494.346H302.9a2.631,2.631,0,0,0-2.759,2.48v2.48h24.828v-2.48A2.631,2.631,0,0,0,322.208,494.346Z" transform="translate(-214.617 -355.445)"/>
    </g>
    <g id="comments" transform="translate(699.764 77)">
      <g id="Group_119" data-name="Group 119" transform="translate(0)">
        <path id="Path_193" data-name="Path 193" class="cls-12" d="M94.36,131.453q14.5-5.5,22.886-14.962t8.387-20.616q0-11.151-8.387-20.617T94.36,60.3A88.29,88.29,0,0,0,62.817,54.8a88.3,88.3,0,0,0-31.543,5.5q-14.5,5.5-22.886,14.962T0,95.875a29.375,29.375,0,0,0,6.337,17.971,50.551,50.551,0,0,0,17.4,14.2q-.892,1.927-1.829,3.531a20.247,20.247,0,0,1-2.231,3.088q-1.294,1.486-2.007,2.325t-2.32,2.366q-1.607,1.524-2.052,2c0-.054-.12.067-.357.362s-.372.427-.4.4-.149.1-.357.4l-.313.441-.223.4a1.565,1.565,0,0,0-.178.481,2.829,2.829,0,0,0-.045.521,1.48,1.48,0,0,0,.089.521,2.6,2.6,0,0,0,1.026,1.685,2.973,2.973,0,0,0,1.83.64h.268q4.461-.561,7.673-1.284A79.216,79.216,0,0,0,47.113,135.66a99.4,99.4,0,0,0,15.7,1.284A88.218,88.218,0,0,0,94.36,131.453Zm-49.923-6.7-3.927,2.486q-2.5,1.523-5.532,3.13l3.124-6.74-8.655-4.492a39.924,39.924,0,0,1-13.3-10.589,20.433,20.433,0,0,1-4.729-12.675q0-8.184,7.005-15.323T37.3,69.24a76.431,76.431,0,0,1,25.519-4.172A76.431,76.431,0,0,1,88.336,69.24q11.867,4.173,18.873,11.312t7,15.323q0,8.182-7,15.322T88.336,122.508a76.413,76.413,0,0,1-25.519,4.171,85.714,85.714,0,0,1-13.652-1.123Z" transform="translate(0 -54.801)"/>
        <path id="Path_194" data-name="Path 194" class="cls-13" d="M274.463,208.313a28.776,28.776,0,0,0-.355-36.461,51.6,51.6,0,0,0-18.2-14.279,37.565,37.565,0,0,1,2.051,12.194,37.981,37.981,0,0,1-5.978,20.376,56.177,56.177,0,0,1-17.132,17.006A82.956,82.956,0,0,1,211.288,217.5a104.119,104.119,0,0,1-27.571,3.61q-2.676,0-7.851-.319,17.934,10.587,42.115,10.589a99.449,99.449,0,0,0,15.7-1.284,79.2,79.2,0,0,0,24.805,10.27q3.212.724,7.674,1.284a2.9,2.9,0,0,0,1.964-.561,2.931,2.931,0,0,0,1.159-1.763c-.028-.321,0-.5.09-.523s.073-.2-.045-.52-.178-.482-.178-.482l-.223-.4a3.816,3.816,0,0,0-.312-.44,3.63,3.63,0,0,0-.357-.4c-.088-.08-.22-.214-.4-.4s-.3-.307-.357-.361q-.446-.482-2.051-2.006a33.081,33.081,0,0,1-2.32-2.365q-.714-.843-2.008-2.327a20.2,20.2,0,0,1-2.231-3.088q-.937-1.6-1.829-3.529A50.764,50.764,0,0,0,274.463,208.313Z" transform="translate(-120.903 -128.696)"/>
      </g>
    </g>
  </g>
</svg>
