<svg xmlns="http://www.w3.org/2000/svg" xmlns:xlink="http://www.w3.org/1999/xlink" viewBox="602.984 919.531 310.836 284.549">
  <defs>
    <style>
      .cls-1 {
        fill: #fff;
        stroke: #707070;
      }

      .cls-2 {
        fill: #2b8272;
      }

      .cls-3 {
        fill: #4b9587;
      }

      .cls-4 {
        fill: #359685;
      }

      .cls-5 {
        fill: #53a697;
      }

      .cls-6 {
        fill: #3db39e;
      }

      .cls-7 {
        fill: #81cec0;
      }

      .cls-8 {
        fill: #f8f8f8;
      }

      .cls-9 {
        clip-path: url(#clip-path);
      }

      .cls-10 {
        fill: #424c59;
      }

      .cls-11 {
        fill: #ff6473;
      }

      .cls-12 {
        fill: #1d97c1;
      }
    </style>
    <clipPath id="clip-path">
      <rect id="Rectangle_34" data-name="Rectangle 34" class="cls-1" width="301.852" height="235.112" transform="translate(0)"/>
    </clipPath>
  </defs>
  <g id="tax" transform="translate(449 731)">
    <g id="money" transform="matrix(0.799, -0.602, 0.602, 0.799, -51.063, 381.384)">
      <path id="Path_250" data-name="Path 250" class="cls-2" d="M119.972,95.217l43.411-10.226a2.158,2.158,0,0,1,2.663,1.729l14.01,81.464a2.575,2.575,0,0,1-1.886,2.845l-43.5,10.229a2.158,2.158,0,0,1-2.663-1.729L118.087,98.062A2.5,2.5,0,0,1,119.972,95.217Z" transform="translate(36.851 50.223)"/>
      <path id="Path_251" data-name="Path 251" class="cls-3" d="M95.518,67.566l-3.238-19.42a1.136,1.136,0,0,0-1.33-.908L54.23,55.924a1.362,1.362,0,0,0-.986,1.424l3.238,19.42a1.136,1.136,0,0,0,1.33.908,1.362,1.362,0,0,0,.986-1.424l-3.021-18.3,34.405-8.169,3.021,18.3a1.136,1.136,0,0,0,1.33.908A1.425,1.425,0,0,0,95.518,67.566Z" transform="translate(106.142 92.689)"/>
      <path id="Path_252" data-name="Path 252" class="cls-4" d="M132.6,97.523l43.941-5.9a2.184,2.184,0,0,1,2.483,2l7.426,87.254a2.463,2.463,0,0,1-2.132,2.594l-43.941,5.9a2.184,2.184,0,0,1-2.483-2l-7.426-87.255A2.592,2.592,0,0,1,132.6,97.523Z" transform="translate(35.69 33.878)"/>
      <path id="Path_253" data-name="Path 253" class="cls-5" d="M92.169,48.2a1.07,1.07,0,0,0-1.242-1l-37.1,4.965a1.276,1.276,0,0,0-1.068,1.34l1.266,19.838a1.07,1.07,0,0,0,1.242,1A1.276,1.276,0,0,0,56.334,73L55.2,54.375l34.792-4.623,1.138,18.627a1.07,1.07,0,0,0,1.242,1,1.276,1.276,0,0,0,1.068-1.34S92.169,48.2,92.169,48.2Z" transform="translate(117.743 82.765)"/>
      <path id="Path_254" data-name="Path 254" class="cls-6" d="M149.954,102.458l44.727-1.59a2.211,2.211,0,0,1,2.3,2.349l-3.165,90.843a2.621,2.621,0,0,1-2.47,2.519l-44.727,1.59a2.211,2.211,0,0,1-2.3-2.349l3.165-90.843A2.561,2.561,0,0,1,149.954,102.458Z" transform="translate(33.796 17.453)"/>
      <path id="Path_255" data-name="Path 255" class="cls-7" d="M141.119,134.182Zm28.59,24.423a1.444,1.444,0,0,0-1.323,1.349l-.469,13.474L132.134,174.7l.469-13.474a1.215,1.215,0,0,0-1.233-1.259,1.444,1.444,0,0,0-1.323,1.349l-.515,14.778a1.215,1.215,0,0,0,1.233,1.259l38.338-1.363a1.444,1.444,0,0,0,1.323-1.349l.515-14.778A1.215,1.215,0,0,0,169.709,158.6Zm2.423-69.545-38.337,1.363a1.444,1.444,0,0,0-1.323,1.349l-.515,14.778a1.215,1.215,0,0,0,1.233,1.259,1.444,1.444,0,0,0,1.323-1.349l.469-13.474,35.782-1.272-.469,13.474a1.215,1.215,0,0,0,1.233,1.259,1.444,1.444,0,0,0,1.323-1.349l.515-14.778A1.216,1.216,0,0,0,172.132,89.06Zm-24.268,73.795a2.333,2.333,0,0,0,2.465,2.517,2.76,2.76,0,0,0,2.647-2.7,2.333,2.333,0,0,0-2.465-2.517A2.822,2.822,0,0,0,147.863,162.855Zm7.171-59.295a2.333,2.333,0,0,0-2.465-2.517,2.76,2.76,0,0,0-2.647,2.7,2.333,2.333,0,0,0,2.465,2.517A2.76,2.76,0,0,0,155.034,103.56Z" transform="translate(52.957 33.723)"/>
      <path id="Path_257" data-name="Path 257" class="cls-7" d="M54.969,30.549A14.564,14.564,0,0,1,70.094,45.994a17.261,17.261,0,0,1-16.24,16.56A14.564,14.564,0,0,1,38.729,47.109,17.261,17.261,0,0,1,54.969,30.549Z" transform="translate(151.53 121.628)"/>
    </g>
    <path id="Path_249" data-name="Path 249" class="cls-8" d="M5.03,3.723,143.977-1.835c7.069.009,9.616-1.806,9.625,5.878l3.036,175.6c0,1.614-1.374,4.478-3.636,8.031-8.406,13.2-30.5,35.718-36.082,35.71L13.267,225.214c-7.069-.009-9.432-1.022-9.442-8.707L.2,6.75C.189-.934-2.038,3.714,5.03,3.723Z" transform="matrix(1, 0.017, -0.017, 1, 236.163, 193.607)"/>
    <g id="Mask_Group_1" data-name="Mask Group 1" class="cls-9" transform="translate(162.968 188.531)">
      <g id="tax-2" data-name="tax" transform="translate(67.219)">
        <g id="Group_118" data-name="Group 118" transform="translate(0)">
          <g id="Group_117" data-name="Group 117">
            <path id="Path_176" data-name="Path 176" class="cls-10" d="M317.914,0H171.939c-5.911,0-10.72,5.174-10.72,11.535V223.578c0,6.36,4.809,11.535,10.72,11.535H285.07a3.3,3.3,0,0,0,2.419-1.078l40.143-43.194a3.826,3.826,0,0,0,1-2.6V11.535C328.634,5.174,323.825,0,317.914,0ZM288.491,222.544V196.091a4.038,4.038,0,0,1,3.878-4.172h24.585Zm33.3-37.988H292.368c-5.911,0-10.72,5.174-10.72,11.535V227.75H171.939a4.038,4.038,0,0,1-3.878-4.172V11.535a4.038,4.038,0,0,1,3.878-4.172H317.914a4.038,4.038,0,0,1,3.878,4.172V184.556Z" transform="translate(-161.219)"/>
          </g>
        </g>
        <g id="Group_120" data-name="Group 120" transform="translate(29.195 31.414)">
          <g id="Group_119" data-name="Group 119">
            <path id="Path_177" data-name="Path 177" class="cls-11" d="M378.085,184.25H348.891a3.691,3.691,0,0,0,0,7.363h11.176V227.2a3.431,3.431,0,1,0,6.843,0V191.613h11.176a3.691,3.691,0,0,0,0-7.363Z" transform="translate(-345.469 -184.25)"/>
          </g>
        </g>
        <g id="Group_122" data-name="Group 122" transform="translate(62.038 31.414)">
          <g id="Group_121" data-name="Group 121">
            <path id="Path_178" data-name="Path 178" class="cls-12" d="M588.636,226.141l-10.168-36.469a7.113,7.113,0,0,0-6.772-5.422h-1.868a7.113,7.113,0,0,0-6.772,5.422l-10.168,36.469a3.734,3.734,0,0,0,2.294,4.584,3.387,3.387,0,0,0,4.26-2.468l1.458-5.23h19.725l1.458,5.23a3.463,3.463,0,0,0,3.276,2.624,3.208,3.208,0,0,0,.985-.156A3.734,3.734,0,0,0,588.636,226.141Zm-25.684-10.477,6.657-23.876a.232.232,0,0,1,.218-.175H571.7a.232.232,0,0,1,.219.175l6.657,23.876Z" transform="translate(-552.742 -184.25)"/>
          </g>
        </g>
        <g id="Group_124" data-name="Group 124" transform="translate(102.181 31.413)">
          <g id="Group_123" data-name="Group 123">
            <path id="Path_179" data-name="Path 179" class="cls-12" d="M837.859,225.086l-11.4-17.522,11.4-17.522a3.862,3.862,0,0,0-.841-5.127,3.271,3.271,0,0,0-4.765.9l-9.97,15.325-9.97-15.325a3.271,3.271,0,0,0-4.765-.9,3.861,3.861,0,0,0-.841,5.127l11.4,17.522-11.4,17.522a3.862,3.862,0,0,0,.841,5.127,3.24,3.24,0,0,0,1.959.665,3.35,3.35,0,0,0,2.806-1.57l9.97-15.325,9.97,15.325a3.351,3.351,0,0,0,2.806,1.57,3.242,3.242,0,0,0,1.959-.665A3.862,3.862,0,0,0,837.859,225.086Z" transform="translate(-806.089 -184.248)"/>
          </g>
        </g>
        <g id="Group_126" data-name="Group 126" transform="translate(21.896 98.168)">
          <g id="Group_125" data-name="Group 125">
            <path id="Path_180" data-name="Path 180" d="M310.127,575.784h-7.3a3.691,3.691,0,0,0,0,7.363h7.3a3.691,3.691,0,0,0,0-7.363Z" transform="translate(-299.407 -575.784)"/>
          </g>
        </g>
        <g id="Group_128" data-name="Group 128" transform="translate(21.896 113.875)">
          <g id="Group_127" data-name="Group 127">
            <path id="Path_181" data-name="Path 181" d="M310.127,667.908h-7.3a3.691,3.691,0,0,0,0,7.363h7.3a3.691,3.691,0,0,0,0-7.363Z" transform="translate(-299.407 -667.908)"/>
          </g>
        </g>
        <g id="Group_130" data-name="Group 130" transform="translate(21.896 129.582)">
          <g id="Group_129" data-name="Group 129">
            <path id="Path_182" data-name="Path 182" d="M310.127,760.034h-7.3a3.691,3.691,0,0,0,0,7.363h7.3a3.691,3.691,0,0,0,0-7.363Z" transform="translate(-299.407 -760.034)"/>
          </g>
        </g>
        <g id="Group_132" data-name="Group 132" transform="translate(131.377 98.168)">
          <g id="Group_131" data-name="Group 131">
            <path id="Path_183" data-name="Path 183" d="M1001.066,575.784h-7.3a3.691,3.691,0,0,0,0,7.363h7.3a3.691,3.691,0,0,0,0-7.363Z" transform="translate(-990.346 -575.784)"/>
          </g>
        </g>
        <g id="Group_134" data-name="Group 134" transform="translate(131.377 113.875)">
          <g id="Group_133" data-name="Group 133">
            <path id="Path_184" data-name="Path 184" d="M1001.066,667.908h-7.3a3.691,3.691,0,0,0,0,7.363h7.3a3.691,3.691,0,0,0,0-7.363Z" transform="translate(-990.346 -667.908)"/>
          </g>
        </g>
        <g id="Group_136" data-name="Group 136" transform="translate(131.377 129.582)">
          <g id="Group_135" data-name="Group 135">
            <path id="Path_185" data-name="Path 185" d="M1001.066,760.034h-7.3a3.691,3.691,0,0,0,0,7.363h7.3a3.691,3.691,0,0,0,0-7.363Z" transform="translate(-990.346 -760.034)"/>
          </g>
        </g>
        <g id="Group_138" data-name="Group 138" transform="translate(43.793 98.168)">
          <g id="Group_137" data-name="Group 137">
            <path id="Path_186" data-name="Path 186" d="M484.809,575.784H441.017a3.691,3.691,0,0,0,0,7.363H484.81a3.691,3.691,0,0,0,0-7.363Z" transform="translate(-437.596 -575.784)"/>
          </g>
        </g>
        <g id="Group_140" data-name="Group 140" transform="translate(43.793 113.875)">
          <g id="Group_139" data-name="Group 139">
            <path id="Path_187" data-name="Path 187" d="M470.212,667.908H441.017a3.691,3.691,0,0,0,0,7.363h29.195a3.691,3.691,0,0,0,0-7.363Z" transform="translate(-437.596 -667.908)"/>
          </g>
        </g>
        <g id="Group_142" data-name="Group 142" transform="translate(43.793 129.582)">
          <g id="Group_141" data-name="Group 141">
            <path id="Path_188" data-name="Path 188" d="M484.809,760.034H441.017a3.691,3.691,0,0,0,0,7.363H484.81a3.691,3.691,0,0,0,0-7.363Z" transform="translate(-437.596 -760.034)"/>
          </g>
        </g>
        <g id="Group_146" data-name="Group 146" transform="translate(58.39 160.995)">
          <g id="Group_145" data-name="Group 145">
            <path id="Path_190" data-name="Path 190" d="M558.686,944.284H533.141a3.691,3.691,0,0,0,0,7.363h25.546a3.691,3.691,0,0,0,0-7.363Z" transform="translate(-529.719 -944.284)"/>
          </g>
        </g>
        <g id="Group_148" data-name="Group 148" transform="translate(58.39 192.409)">
          <g id="Group_147" data-name="Group 147">
            <path id="Path_191" data-name="Path 191" d="M547.738,1128.534h-14.6a3.691,3.691,0,0,0,0,7.363h14.6a3.691,3.691,0,0,0,0-7.363Z" transform="translate(-529.719 -1128.534)"/>
          </g>
        </g>
        <g id="Group_150" data-name="Group 150" transform="translate(87.585 192.409)">
          <g id="Group_149" data-name="Group 149">
            <path id="Path_192" data-name="Path 192" d="M724.692,1128.534h-7.3a3.691,3.691,0,0,0,0,7.363h7.3a3.691,3.691,0,0,0,0-7.363Z" transform="translate(-713.972 -1128.534)"/>
          </g>
        </g>
        <g id="Group_152" data-name="Group 152" transform="translate(58.39 176.703)">
          <g id="Group_151" data-name="Group 151">
            <path id="Path_193" data-name="Path 193" d="M580.582,1036.41H533.141a3.691,3.691,0,0,0,0,7.363h47.442a3.691,3.691,0,0,0,0-7.363Z" transform="translate(-529.719 -1036.41)"/>
          </g>
        </g>
        <g id="Group_154" data-name="Group 154" transform="translate(87.585 113.875)">
          <g id="Group_153" data-name="Group 153">
            <ellipse id="Ellipse_15" data-name="Ellipse 15" cx="3.421" cy="3.681" rx="3.421" ry="3.681"/>
          </g>
        </g>
        <g id="Group_156" data-name="Group 156" transform="translate(102.182 113.875)">
          <g id="Group_155" data-name="Group 155">
            <ellipse id="Ellipse_16" data-name="Ellipse 16" cx="3.421" cy="3.681" rx="3.421" ry="3.681"/>
          </g>
        </g>
        <g id="Group_158" data-name="Group 158" transform="translate(116.78 113.875)">
          <g id="Group_157" data-name="Group 157">
            <ellipse id="Ellipse_17" data-name="Ellipse 17" cx="3.421" cy="3.681" rx="3.421" ry="3.681"/>
          </g>
        </g>
        <g id="Group_160" data-name="Group 160" transform="translate(102.182 98.168)">
          <g id="Group_159" data-name="Group 159">
            <ellipse id="Ellipse_18" data-name="Ellipse 18" cx="3.421" cy="3.681" rx="3.421" ry="3.681"/>
          </g>
        </g>
        <g id="Group_162" data-name="Group 162" transform="translate(116.78 98.168)">
          <g id="Group_161" data-name="Group 161">
            <ellipse id="Ellipse_19" data-name="Ellipse 19" cx="3.421" cy="3.681" rx="3.421" ry="3.681"/>
          </g>
        </g>
        <g id="Group_164" data-name="Group 164" transform="translate(102.182 129.582)">
          <g id="Group_163" data-name="Group 163">
            <ellipse id="Ellipse_20" data-name="Ellipse 20" cx="3.421" cy="3.681" rx="3.421" ry="3.681"/>
          </g>
        </g>
        <g id="Group_166" data-name="Group 166" transform="translate(116.78 129.582)">
          <g id="Group_165" data-name="Group 165">
            <ellipse id="Ellipse_21" data-name="Ellipse 21" cx="3.421" cy="3.681" rx="3.421" ry="3.681"/>
          </g>
        </g>
      </g>
    </g>
    <path id="Path_247" data-name="Path 247" class="cls-12" d="M86.142,11.7H79.316a12.931,12.931,0,0,0-5.388-9.1H86.142a1.326,1.326,0,0,0,1.344-1.3A1.326,1.326,0,0,0,86.142,0H57.709a1.326,1.326,0,0,0-1.344,1.3,1.326,1.326,0,0,0,1.344,1.3h8.143a10.744,10.744,0,0,1,10.763,9.1H57.709a1.3,1.3,0,1,0,0,2.6H76.615a10.758,10.758,0,0,1-10.763,9.23h-8.13a1.342,1.342,0,0,0-1.344,1.339,1.321,1.321,0,0,0,.417.936l20.331,18.6a1.371,1.371,0,0,0,1.895-.052,1.3,1.3,0,0,0-.054-1.859L61.081,26.129h4.757A13.411,13.411,0,0,0,79.316,14.3h6.826a1.3,1.3,0,1,0,0-2.6Z" transform="translate(196.494 339.506)"/>
    <path id="Path_256" data-name="Path 256" class="cls-6" d="M15.2,5.693l-3.472-.12a6.458,6.458,0,0,0-2.889-4.3l6.213.214A.6.6,0,0,0,15.718.91a.705.705,0,0,0-.7-.624L.55-.213A.6.6,0,0,0-.112.365a.705.705,0,0,0,.7.624l4.142.143a5.813,5.813,0,0,1,5.623,4.394L.741,5.195a.6.6,0,0,0-.662.577.705.705,0,0,0,.7.624l9.617.331c-.256,2.421-2.543,4.167-5.325,4.077L.94,10.662a.6.6,0,0,0-.662.6.635.635,0,0,0,.227.44l10.644,8.953a.747.747,0,0,0,.963.009.566.566,0,0,0-.058-.86L2.691,11.923l2.42.083c3.568.123,6.429-2.179,6.663-5.231l3.472.12a.6.6,0,0,0,.662-.577A.705.705,0,0,0,15.2,5.693Z" transform="translate(218.315 381.074) rotate(54)"/>
  </g>
</svg>
