<svg xmlns="http://www.w3.org/2000/svg" xmlns:xlink="http://www.w3.org/1999/xlink" viewBox="0 0 655.32 685.47"><defs><style>.cls-1{isolation:isolate;}.cls-2{opacity:0.31;}.cls-3{opacity:0.7;mix-blend-mode:hard-light;fill:url(#linear-gradient);}.cls-4{fill:url(#linear-gradient-2);}.cls-5{opacity:0.67;mix-blend-mode:soft-light;fill:url(#linear-gradient-3);}</style><linearGradient id="linear-gradient" x1="80.18" y1="345.86" x2="645.48" y2="345.86" gradientTransform="translate(-46.92) scale(1.05 1)" gradientUnits="userSpaceOnUse"><stop offset="0" stop-color="#f5f6f7"/><stop offset="0.42" stop-color="#eceff0"/><stop offset="1" stop-color="#d8dee1"/></linearGradient><linearGradient id="linear-gradient-2" x1="655.05" y1="-80.93" x2="109.74" y2="613.58" gradientUnits="userSpaceOnUse"><stop offset="0" stop-color="#c5ced2"/><stop offset="1" stop-color="#cfd6d9"/></linearGradient><linearGradient id="linear-gradient-3" y1="355.87" x2="655.32" y2="355.87" gradientUnits="userSpaceOnUse"><stop offset="0.01" stop-color="#c5ced2" stop-opacity="0.7"/><stop offset="0.24" stop-color="#c5ced2" stop-opacity="0.72"/><stop offset="0.51" stop-color="#c5ced2" stop-opacity="0.79"/><stop offset="0.81" stop-color="#c5ced2" stop-opacity="0.91"/><stop offset="1" stop-color="#c5ced2"/></linearGradient></defs><title>Asset 2</title><g class="cls-1"><g id="Layer_2" data-name="Layer 2"><g id="Layer_1-2" data-name="Layer 1"><g class="cls-2"><path class="cls-3" d="M628.05,438.6a175.66,175.66,0,0,0-2.37-28.72l.05.11S605,249.44,473.6,120.5l.06.1c-34.7-37-85.08-60.35-141.17-60.35S226.1,83.52,191.4,120.51C60.4,249.06,39.41,409,39.28,410a175.45,175.45,0,0,0-2.36,28.62c0,79.48,53.51,147,128,171.44,0,0,118.08,43.26,307.73,6.85h0C561,601.56,628.05,527.57,628.05,438.6Z"/><path class="cls-4" d="M492.17,5.15A126,126,0,0,0,465.89.76l.11,0s-149.29-16-305.66,102.33l.1,0c-43.95,30.5-80.68,82.34-98.52,146.45s-13.14,127.36,8.7,176.16c72.61,181.52,208.12,245.07,208.91,245.44a126.1,126.1,0,0,0,24.69,9.78C374.86,700.49,451.88,656,497.28,577c0,0,76-124.27,103.93-350.05h0C615.69,122.07,571.25,27.14,492.17,5.15Z"/><path class="cls-5" d="M603,609.69a129.66,129.66,0,0,0,14.18-23.49v.12s72.05-136.88,18.2-331.58v.11c-12.5-53.68-48.17-108.56-102.78-150s-117-61-172-58.63C159.15,46.75,46.78,152.35,46.13,153A130.48,130.48,0,0,0,27.38,172.9C-18.28,233.07-5,323.73,53.47,397.24c0,0,90.11,120,295.69,232.57h0C444,683.53,551.84,677.06,603,609.69Z"/></g></g></g></g></svg>