<svg aria-hidden="true" style="position: absolute; width: 0; height: 0; overflow: hidden;" version="1.1" xmlns="http://www.w3.org/2000/svg" xmlns:xlink="http://www.w3.org/1999/xlink">
<defs>
<symbol id="icon-about-us" viewBox="0 0 32 32">
<title>about-us</title>
<path fill="#53c7f0" style="fill: var(--color1, #53c7f0)" d="M17.094 12.285c0.002 0.001 0.004 0.001 0.006 0.002 1.915 0.622 3.972-0.426 4.594-2.341s-0.426-3.972-2.341-4.594c-1.915-0.622-3.972 0.426-4.594 2.341-0 0-0 0-0 0.001v-0c-0 0-0 0.001-0 0.001-0.621 1.912 0.424 3.966 2.335 4.59l0 0z"></path>
<path fill="#53c7f0" style="fill: var(--color1, #53c7f0)" d="M19.682 13.735l-5.558-1.806c-0.994-0.323-2.104 0.324-2.467 1.441l-1.814 5.583c-0.020 0.061-0.006 0.126-0.024 0.191l9.1 2.957c0.027-0.044 0.059-0.101 0.087-0.16l0.004-0.009 1.814-5.583c0.367-1.116-0.151-2.292-1.143-2.614z"></path>
<path fill="#87e0ff" style="fill: var(--color2, #87e0ff)" d="M25.863 16.985c0.002 0.001 0.004 0.001 0.006 0.002 1.535 0.499 3.183-0.341 3.682-1.876s-0.341-3.183-1.876-3.682c-1.535-0.499-3.183 0.341-3.682 1.876-0 0-0 0.001-0 0.001l0-0c-0 0.001-0.001 0.002-0.001 0.003-0.498 1.532 0.34 3.177 1.872 3.676l0 0z"></path>
<path fill="#87e0ff" style="fill: var(--color2, #87e0ff)" d="M27.938 18.148l-4.454-1.447c-0.799-0.26-1.69 0.258-1.982 1.157l-1.453 4.473c-0.016 0.048-0.007 0.101-0.021 0.155l7.299 2.372c0.020-0.051 0.058-0.090 0.073-0.138l1.453-4.473c0.296-0.898-0.118-1.839-0.916-2.099z"></path>
<path fill="#87e0ff" style="fill: var(--color2, #87e0ff)" d="M7.239 10.884c0.001 0 0.003 0.001 0.004 0.001 1.535 0.499 3.183-0.341 3.682-1.876s-0.341-3.183-1.876-3.682c-1.535-0.499-3.183 0.341-3.682 1.876-0 0-0 0.001-0 0.001l0-0c-0 0.001-0.001 0.002-0.001 0.003-0.498 1.532 0.34 3.178 1.873 3.677h0z"></path>
<path fill="#87e0ff" style="fill: var(--color2, #87e0ff)" d="M9.314 12.049l-4.458-1.448c-0.797-0.259-1.685 0.259-1.977 1.158l-1.453 4.473c-0.016 0.048-0.007 0.101-0.020 0.155l7.299 2.372c0.020-0.051 0.056-0.090 0.072-0.138l1.453-4.473c0.294-0.898-0.12-1.84-0.916-2.099z"></path>
</symbol>
<symbol id="icon-contact" viewBox="0 0 32 32">
<title>contact</title>
<path fill="#87e0ff" style="fill: var(--color2, #87e0ff)" d="M31.199 10.671l-9.869-9.87c-0.496-0.495-1.181-0.801-1.937-0.801s-1.441 0.306-1.937 0.801l-15.402 15.402c-0.495 0.496-0.801 1.181-0.801 1.937s0.306 1.441 0.801 1.937l2.476 2.476-2.719 2.719c-0.113 0.113-0.183 0.269-0.183 0.442 0 0.345 0.28 0.625 0.625 0.625 0.173 0 0.329-0.070 0.442-0.183l2.719-2.72 1.133 1.133-6.362 6.363c-0.107 0.112-0.173 0.264-0.173 0.432 0 0.345 0.28 0.625 0.625 0.625 0.168 0 0.32-0.066 0.432-0.173l6.362-6.362 4.493 4.493c0.496 0.495 1.181 0.801 1.937 0.801s1.441-0.306 1.937-0.801l15.402-15.402c0.496-0.496 0.803-1.181 0.803-1.937s-0.307-1.441-0.802-1.937v0zM13.405 29.428c-0.235-0.076-0.436-0.201-0.599-0.364l-9.869-9.87c-0.269-0.269-0.435-0.641-0.435-1.052 0-0.138 0.019-0.272 0.054-0.398l-0.002 0.010h10.852zM11.146 16.504l1.853-1.853c0.113-0.113 0.183-0.269 0.183-0.442 0-0.345-0.28-0.625-0.625-0.625-0.173 0-0.329 0.070-0.442 0.183l-2.737 2.737h-1.822l5.651-5.65c0.11-0.112 0.177-0.266 0.177-0.436 0-0.345-0.28-0.625-0.625-0.625-0.17 0-0.323 0.068-0.436 0.177l-6.534 6.534h-2.27l14.236-14.236v12.746c-0.001 0.822-0.667 1.489-1.49 1.49h-0zM30.315 13.661l-15.402 15.403c-0.076 0.076-0.16 0.143-0.251 0.201l-0.006 0.004v-11.514h1.611c1.512-0.002 2.738-1.227 2.74-2.74v-1.611h7.164l-3.617 3.617c-0.11 0.112-0.177 0.266-0.177 0.436 0 0.345 0.28 0.625 0.625 0.625 0.17 0 0.323-0.068 0.436-0.177l4.5-4.5h2.584c-0.062 0.097-0.13 0.181-0.206 0.257l-0 0zM19.006 12.154v-10.852c0.116-0.033 0.25-0.051 0.388-0.051 0.411 0 0.783 0.166 1.052 0.435l9.869 9.87c0.164 0.163 0.289 0.364 0.363 0.589l0.003 0.010z"></path>
<path fill="#53c7f0" style="fill: var(--color1, #53c7f0)" d="M14.738 8.44c-0.113-0.113-0.269-0.183-0.442-0.183-0.345 0-0.625 0.28-0.625 0.625s0.28 0.625 0.625 0.625c0.345 0 0.625-0.28 0.625-0.625 0-0 0-0 0-0v0c-0-0.172-0.070-0.329-0.183-0.442v0z"></path>
<path fill="#53c7f0" style="fill: var(--color1, #53c7f0)" d="M1.069 26.897c-0.113-0.113-0.269-0.183-0.442-0.183s-0.329 0.070-0.442 0.183v0c-0.113 0.113-0.183 0.269-0.183 0.442 0 0.345 0.28 0.625 0.625 0.625h0c0.345-0 0.625-0.28 0.625-0.625 0-0.173-0.070-0.329-0.183-0.442v0z"></path>
<path fill="#87e0ff" style="fill: var(--color2, #87e0ff)" d="M7.939 28.094c-0.113-0.113-0.269-0.183-0.442-0.183s-0.329 0.070-0.442 0.183l-2.839 2.839c-0.109 0.112-0.177 0.266-0.177 0.436 0 0.345 0.28 0.625 0.625 0.625 0.17 0 0.323-0.068 0.436-0.177l2.838-2.838c0.113-0.113 0.183-0.27 0.183-0.442s-0.070-0.329-0.183-0.442v0z"></path>
</symbol>
<symbol id="icon-facebook" viewBox="0 0 32 32">
<title>facebook</title>
<path fill="#53c7f0" style="fill: var(--color1, #53c7f0)" d="M31.999 16c0 8.836-7.163 16-16 16s-16-7.163-16-16c0-8.836 7.163-16 16-16s16 7.163 16 16z"></path>
<path fill="#fff" style="fill: var(--color3, #fff)" d="M20.023 16.626h-2.855v10.459h-4.325v-10.459h-2.058v-3.676h2.057v-2.379c0-1.701 0.807-4.364 4.364-4.364l3.204 0.013v3.568h-2.324c-0.014-0.001-0.029-0.001-0.045-0.001-0.486 0-0.881 0.394-0.881 0.881 0 0.043 0.003 0.086 0.009 0.127l-0.001-0.005v2.163h3.232z"></path>
</symbol>
<symbol id="icon-instagram" viewBox="0 0 32 32">
<title>instagram</title>
<path fill="#53c7f0" style="fill: var(--color1, #53c7f0)" d="M20.769 8.513h-9.538c-1.524 0.002-2.759 1.237-2.761 2.76v9.538c0.002 1.524 1.237 2.759 2.76 2.761h9.538c1.524-0.002 2.759-1.237 2.761-2.761v-9.538c-0.002-1.524-1.237-2.759-2.761-2.761h-0zM16 21c-2.738 0-4.958-2.22-4.958-4.958s2.22-4.958 4.958-4.958c2.738 0 4.958 2.22 4.958 4.958v0c-0.003 2.737-2.221 4.954-4.957 4.958h-0zM21.114 12.11c-0.648 0-1.173-0.525-1.173-1.173s0.525-1.173 1.173-1.173c0.648 0 1.173 0.525 1.173 1.173v0c-0.001 0.646-0.524 1.171-1.17 1.173h-0z"></path>
<path fill="#53c7f0" style="fill: var(--color1, #53c7f0)" d="M16 13.181c-1.581 0-2.862 1.282-2.862 2.862s1.282 2.862 2.862 2.862c1.581 0 2.862-1.282 2.862-2.862 0-0.001 0-0.002 0-0.003v0c-0.004-1.579-1.283-2.857-2.862-2.86h-0z"></path>
<path fill="#53c7f0" style="fill: var(--color1, #53c7f0)" d="M16 0c-8.837 0-16 7.163-16 16s7.163 16 16 16c8.837 0 16-7.163 16-16v0c-0.002-8.836-7.164-15.998-16-16h-0zM25.626 20.812c-0.003 2.681-2.175 4.853-4.856 4.856h-9.54c-2.681-0.003-4.853-2.175-4.856-4.856v-9.539c0.003-2.681 2.175-4.853 4.856-4.856h9.538c2.682 0.002 4.855 2.174 4.858 4.856v0z"></path>
</symbol>
<symbol id="icon-like" viewBox="0 0 32 32">
<title>like</title>
<path fill="#c03a2b" style="fill: var(--color4, #c03a2b)" d="M15.904 6.481c1.274-3.055 4.223-5.17 7.67-5.201l0.004-0c4.623 0 7.952 3.955 8.371 8.668 0.033 0.282 0.051 0.608 0.051 0.939 0 0.832-0.118 1.637-0.338 2.398l0.015-0.061c-0.735 2.942-2.288 5.452-4.402 7.348l-0.014 0.012-11.357 10.136-11.168-10.134c-2.128-1.908-3.681-4.418-4.395-7.26l-0.021-0.1c-0.204-0.699-0.321-1.501-0.321-2.331 0-0.334 0.019-0.663 0.056-0.987l-0.004 0.040c0.419-4.713 3.748-8.668 8.371-8.668 3.398 0.038 6.29 2.16 7.463 5.146l0.019 0.055z"></path>
<path fill="#ed7161" style="fill: var(--color5, #ed7161)" d="M3.84 11.57c-0.353 0-0.64-0.287-0.64-0.64v0c0.004-3.533 2.867-6.396 6.4-6.4h0c0.353 0 0.64 0.287 0.64 0.64s-0.287 0.64-0.64 0.64v0c-2.826 0.003-5.117 2.294-5.12 5.12v0c0 0.353-0.287 0.64-0.64 0.64v0z"></path>
</symbol>
<symbol id="icon-newspaper" viewBox="0 0 32 32">
<title>newspaper</title>
<path fill="#53c7f0" style="fill: var(--color1, #53c7f0)" d="M31.117 3c-0.456 0.001-0.826 0.371-0.828 0.827v21.966c-0.002 2.323-1.884 4.205-4.207 4.207h-20.221c-2.323-0.002-4.205-1.884-4.207-4.207v-23.697h24.228v21.311c0 0.457 0.371 0.828 0.828 0.828s0.828-0.371 0.828-0.828v0-22.138c-0.001-0.457-0.371-0.826-0.827-0.828h-25.883c-0.457 0.001-0.826 0.371-0.828 0.827v24.518c0.002 3.237 2.625 5.86 5.862 5.862h20.214c3.237-0.002 5.86-2.625 5.862-5.862v-21.959c0-0.002 0-0.005 0-0.008 0-0.453-0.367-0.82-0.82-0.82-0 0-0.001 0-0.001 0h0z"></path>
<path fill="#87e0ff" style="fill: var(--color2, #87e0ff)" d="M22.71 6.869c0.457 0 0.828-0.371 0.828-0.828s-0.371-0.828-0.828-0.828v0h-18.041c-0.457 0-0.828 0.371-0.828 0.828s0.371 0.828 0.828 0.828v0z"></path>
<path fill="#87e0ff" style="fill: var(--color2, #87e0ff)" d="M22.71 22.083h-18.041c-0.457 0-0.828 0.371-0.828 0.828s0.371 0.828 0.828 0.828v0h18.035c0.001 0 0.002 0 0.003 0 0.457 0 0.828-0.371 0.828-0.828 0-0.456-0.369-0.826-0.824-0.828h-0z"></path>
<path fill="#87e0ff" style="fill: var(--color2, #87e0ff)" d="M22.71 26.324h-15.179c-0.457 0-0.828 0.371-0.828 0.828s0.371 0.828 0.828 0.828v0h15.179c0.457 0 0.828-0.371 0.828-0.828s-0.371-0.828-0.828-0.828v0z"></path>
<path fill="#87e0ff" style="fill: var(--color2, #87e0ff)" d="M3.565 9.759v8.952c0.001 0.456 0.371 0.826 0.827 0.828h8.986c0.457-0.001 0.826-0.371 0.828-0.827v-8.952c-0.001-0.457-0.371-0.826-0.827-0.828h-8.986c-0.457 0.001-0.826 0.371-0.828 0.827v0zM5.221 10.586h7.331v7.297h-7.331z"></path>
<path fill="#87e0ff" style="fill: var(--color2, #87e0ff)" d="M23.152 9.758h-5.952c-0.457 0-0.828 0.371-0.828 0.828s0.371 0.828 0.828 0.828v0h5.952c0.457 0 0.828-0.371 0.828-0.828s-0.371-0.828-0.828-0.828v0z"></path>
<path fill="#87e0ff" style="fill: var(--color2, #87e0ff)" d="M23.152 13.496h-5.952c-0.457 0-0.828 0.371-0.828 0.828s0.371 0.828 0.828 0.828v0h5.952c0.457 0 0.828-0.371 0.828-0.828s-0.371-0.828-0.828-0.828v0z"></path>
<path fill="#87e0ff" style="fill: var(--color2, #87e0ff)" d="M23.979 18.297c-0.001-0.456-0.371-0.826-0.827-0.828h-5.952c-0.457 0-0.828 0.371-0.828 0.828s0.371 0.828 0.828 0.828v0h5.952c0.001 0 0.001 0 0.002 0 0.456 0 0.826-0.37 0.826-0.826 0-0.001 0-0.001 0-0.002v0z"></path>
</symbol>
<symbol id="icon-quotation" viewBox="0 0 32 32">
<title>quotation</title>
<path fill="#53c7f0" style="fill: var(--color1, #53c7f0)" d="M16 0.205c8.837 0 16 7.072 16 15.795s-7.163 15.795-16 15.795-16-7.072-16-15.795 7.163-15.795 16-15.795z"></path>
<path fill="#ffffe3" style="fill: var(--color6, #ffffe3)" d="M14.588 8.721v2.938c0 0.398-0.323 0.721-0.721 0.721-0 0-0 0-0 0h0c-1.422 0-2.195 1.458-2.302 4.336h2.302c0.399 0 0.722 0.323 0.722 0.722v0 6.205c0 0.398-0.323 0.721-0.721 0.721-0 0-0 0-0 0h-6.139c-0.398 0-0.721-0.323-0.721-0.721v-6.204c-0-0.048-0.001-0.104-0.001-0.16 0-1.278 0.151-2.521 0.435-3.712l-0.022 0.108c0.265-1.13 0.707-2.126 1.302-3.011l-0.021 0.033c0.562-0.826 1.292-1.497 2.145-1.973l0.032-0.016c0.834-0.446 1.825-0.708 2.876-0.708 0.040 0 0.079 0 0.119 0.001l-0.006-0c0.398 0 0.721 0.323 0.721 0.721v0zM23.893 12.381c0.398 0 0.721-0.323 0.722-0.721v-2.938c-0-0.398-0.323-0.721-0.722-0.721v0c-0.048-0.001-0.104-0.002-0.16-0.002-2.084 0-3.919 1.063-4.992 2.677l-0.014 0.022c-0.574 0.853-1.016 1.848-1.269 2.917l-0.012 0.061c-0.263 1.083-0.413 2.326-0.413 3.605 0 0.056 0 0.111 0.001 0.167l-0-0.008v6.204c0 0.398 0.323 0.721 0.722 0.721h6.138c0.398-0 0.721-0.323 0.721-0.721v-6.204c0-0.398-0.323-0.721-0.721-0.722h-2.27c0.106-2.878 0.868-4.336 2.27-4.336z"></path>
</symbol>
<symbol id="icon-services" viewBox="0 0 32 32">
<title>services</title>
<path fill="#1d97c1" opacity="0.68" style="fill: var(--color7, #1d97c1)" d="M23.805 12.964l-1.231-0.548c0.034-0.306 0.039-0.578 0.021-0.847l0.001 0.028 1.257-0.482c0.151-0.058 0.279-0.173 0.35-0.332s0.070-0.332 0.013-0.482l-0.568-1.48c-0.058-0.15-0.173-0.279-0.332-0.35s-0.331-0.071-0.482-0.013h0l-1.257 0.482c-0.148-0.191-0.334-0.389-0.537-0.572l-0.027-0.022 0.548-1.231c0.141-0.318-0.002-0.69-0.319-0.832l-1.448-0.645c-0.318-0.141-0.69 0.002-0.832 0.32v0l-0.548 1.231c-0.306-0.034-0.578-0.039-0.847-0.021l0.028-0.001-0.482-1.257c-0.058-0.15-0.173-0.279-0.332-0.35s-0.331-0.071-0.482-0.013h0l-1.48 0.568c-0.151 0.058-0.279 0.173-0.35 0.332s-0.070 0.332-0.013 0.482l0.482 1.257c-0.191 0.148-0.389 0.334-0.572 0.537l-0.022 0.027-1.231-0.548c-0.318-0.141-0.69 0.002-0.832 0.32v0l-0.645 1.448c-0.141 0.318 0.002 0.69 0.319 0.832l0 0 1.231 0.548c-0.034 0.306-0.039 0.578-0.021 0.847l-0.001-0.028-1.257 0.482c-0.15 0.058-0.279 0.173-0.35 0.332s-0.071 0.332-0.013 0.482v-0l0.568 1.48c0.058 0.15 0.173 0.279 0.332 0.35s0.332 0.071 0.482 0.013v0l1.257-0.482c0.148 0.191 0.334 0.389 0.537 0.572l0.027 0.022-0.548 1.231c-0.141 0.318 0.002 0.69 0.319 0.832l0 0 1.448 0.645c0.318 0.141 0.69-0.002 0.832-0.319l0-0 0.548-1.23c0.306 0.034 0.578 0.039 0.847 0.021l-0.028 0.001 0.482 1.257c0.058 0.151 0.173 0.279 0.332 0.35s0.332 0.071 0.482 0.013v0l1.48-0.568c0.151-0.058 0.279-0.173 0.35-0.332s0.070-0.332 0.013-0.482l-0.482-1.257c0.191-0.148 0.389-0.334 0.572-0.537l0.022-0.027 1.231 0.548c0.318 0.141 0.69-0.002 0.832-0.319l0-0 0.645-1.448c0.142-0.318-0.001-0.691-0.319-0.833h-0zM22.772 14.646l-1.303-0.58c-0.192-0.085-0.411-0.024-0.533 0.135l-0.002 0.003c-0.27 0.353-0.574 0.635-0.912 0.862l0.015-0.011c-0.066 0.044-0.121 0.108-0.157 0.187-0.050 0.112-0.050 0.234-0.009 0.34l0.511 1.332-0.997 0.383-0.511-1.332c-0.041-0.106-0.122-0.197-0.234-0.247-0.079-0.035-0.164-0.046-0.244-0.034l0.002-0c-0.384 0.056-0.799 0.050-1.21-0.027l-0.026-0.006c-0.2-0.037-0.404 0.064-0.49 0.255v0l-0.581 1.304-0.975-0.434 0.581-1.304c0.085-0.192 0.024-0.411-0.135-0.533l-0.003-0.002c-0.353-0.27-0.635-0.574-0.862-0.912l0.011 0.015c-0.044-0.065-0.108-0.121-0.187-0.157-0.112-0.050-0.234-0.050-0.34-0.009l-1.332 0.511-0.382-0.996 1.332-0.511c0.106-0.041 0.197-0.122 0.247-0.234 0.035-0.079 0.046-0.164 0.034-0.244l0 0.002c-0.056-0.384-0.050-0.799 0.027-1.21l0.006-0.026c0.037-0.2-0.064-0.404-0.255-0.49l-1.304-0.58 0.434-0.975 1.303 0.58c0.192 0.085 0.411 0.024 0.533-0.135l0.002-0.003c0.27-0.353 0.574-0.635 0.912-0.862l-0.015 0.011c0.066-0.044 0.121-0.108 0.157-0.187 0.050-0.112 0.050-0.234 0.009-0.34l-0.511-1.332 0.996-0.382 0.511 1.332c0.041 0.106 0.122 0.197 0.234 0.247 0.079 0.035 0.164 0.046 0.244 0.034l-0.002 0c0.384-0.056 0.799-0.050 1.21 0.027l0.026 0.006c0.2 0.037 0.404-0.064 0.49-0.255v-0l0.581-1.304 0.974 0.434-0.581 1.304c-0.085 0.192-0.024 0.411 0.135 0.533l0.003 0.002c0.353 0.27 0.635 0.574 0.862 0.912l-0.011-0.015c0.044 0.065 0.108 0.121 0.187 0.157 0.112 0.050 0.234 0.050 0.34 0.009l1.332-0.511 0.382 0.996-1.332 0.511c-0.106 0.041-0.197 0.122-0.247 0.234-0.035 0.079-0.046 0.164-0.034 0.244l-0-0.002c0.056 0.384 0.050 0.799-0.027 1.21l-0.006 0.026c-0.037 0.2 0.064 0.404 0.255 0.49l1.304 0.58z"></path>
<path fill="#87e0ff" opacity="0.68" style="fill: var(--color2, #87e0ff)" d="M18.849 9.706c-1.202-0.535-2.611 0.005-3.146 1.208s0.005 2.611 1.208 3.146c1.202 0.535 2.611-0.005 3.146-1.208v0c0.534-1.202-0.006-2.61-1.207-3.146l-0-0zM17.272 13.248c-0.754-0.336-1.092-1.218-0.757-1.972s1.218-1.092 1.972-0.757c0.754 0.336 1.092 1.218 0.757 1.972v0c-0.336 0.753-1.218 1.091-1.972 0.757l-0-0z"></path>
<path fill="#233142" opacity="0.68" style="fill: var(--color8, #233142)" d="M8.718 7.317l-1.348-0.6c-0.224-0.1-0.487 0.001-0.587 0.225s0.001 0.487 0.225 0.587l1.348 0.6c0.224 0.1 0.487-0.001 0.587-0.225s-0.001-0.487-0.225-0.587v0z"></path>
<path fill="#233142" opacity="0.68" style="fill: var(--color8, #233142)" d="M28.752 16.238l-1.348-0.6c-0.224-0.1-0.487 0.001-0.587 0.225s0.001 0.487 0.225 0.587l1.348 0.6c0.224 0.1 0.487-0.001 0.587-0.225s-0.001-0.487-0.225-0.587v0z"></path>
<path fill="#233142" opacity="0.68" style="fill: var(--color8, #233142)" d="M8.747 15.389c-0.041-0.106-0.122-0.197-0.234-0.247s-0.234-0.050-0.34-0.009l-1.378 0.529c-0.106 0.041-0.197 0.122-0.247 0.234-0.1 0.224 0.001 0.487 0.225 0.587 0.112 0.050 0.234 0.050 0.34 0.009l1.378-0.529c0.106-0.041 0.197-0.122 0.247-0.234s0.050-0.234 0.009-0.34v0z"></path>
<path fill="#233142" opacity="0.68" style="fill: var(--color8, #233142)" d="M29.221 7.531c-0.041-0.106-0.122-0.197-0.234-0.247s-0.234-0.050-0.34-0.009l-1.378 0.529c-0.102 0.042-0.189 0.122-0.238 0.231-0.1 0.225 0.001 0.488 0.225 0.587 0.109 0.049 0.227 0.050 0.331 0.012l-0 0 1.378-0.529c0.106-0.041 0.197-0.122 0.247-0.234s0.050-0.234 0.009-0.34v0z"></path>
<path fill="#233142" opacity="0.68" style="fill: var(--color8, #233142)" d="M22.821 0.786c-0.224-0.1-0.487 0.001-0.587 0.225l-0.601 1.349c-0.1 0.224 0.001 0.487 0.225 0.587s0.487-0.001 0.587-0.225l0.601-1.349c0.1-0.224-0.001-0.487-0.225-0.587-0-0-0-0-0-0v0z"></path>
<path fill="#233142" opacity="0.68" style="fill: var(--color8, #233142)" d="M22.488 22.65l-0.529-1.378c-0.040-0.11-0.122-0.205-0.238-0.257-0.224-0.1-0.488 0.001-0.587 0.225-0.051 0.116-0.050 0.241-0.005 0.35l0 0 0.529 1.378c0.042 0.102 0.122 0.189 0.231 0.238 0.224 0.1 0.488-0.001 0.587-0.225 0.049-0.109 0.050-0.227 0.012-0.331l0 0z"></path>
<path fill="#233142" opacity="0.68" style="fill: var(--color8, #233142)" d="M14.631 2.176l-0.529-1.378c-0.041-0.106-0.122-0.197-0.234-0.247-0.224-0.1-0.487 0.001-0.587 0.225-0.050 0.112-0.050 0.234-0.009 0.34v0l0.529 1.378c0.041 0.106 0.122 0.197 0.234 0.247 0.224 0.1 0.487-0.001 0.587-0.225 0.050-0.112 0.050-0.234 0.009-0.34v0z"></path>
<path fill="#53c7f0" opacity="0.68" style="fill: var(--color1, #53c7f0)" d="M26.43 14.498c1.205-3.939-0.41-8.172-3.89-10.287l-0.039-0.022c-0.018-0.012-0.040-0.024-0.063-0.034-0.224-0.1-0.488 0.001-0.587 0.225-0.095 0.213-0.009 0.461 0.192 0.571l0.001 0.001c3.18 1.913 4.638 5.735 3.549 9.245l-0.012 0.036c-0.066 0.214 0.036 0.446 0.243 0.538l0 0c0.017 0.007 0.034 0.014 0.051 0.019l-0.002-0.001c0.214 0.066 0.447-0.036 0.539-0.243 0.007-0.017 0.014-0.033 0.019-0.050l-0.001 0.002z"></path>
<path fill="#53c7f0" opacity="0.68" style="fill: var(--color1, #53c7f0)" d="M25.383 15.878c-0.015-0.009-0.032-0.018-0.050-0.026-0.206-0.092-0.445-0.014-0.56 0.174l-0.001 0.002c-1.29 2.115-3.405 3.448-5.71 3.784l-0.038 0.004c-0.999 0.143-1.892 0.772-2.326 1.747-0 0.001-0.001 0.002-0.001 0.003l0-0-0.745 1.672-5.222-2.325 0.761-1.709c0.422-0.95 0.298-2.003-0.236-2.81l-0.008-0.011c-1.521-2.256-1.874-5.178-0.703-7.808 1.667-3.743 5.841-5.587 9.664-4.435l0.038 0.012c0.217 0.074 0.456-0.028 0.551-0.24 0.1-0.224-0.001-0.487-0.225-0.587-0.023-0.010-0.045-0.018-0.068-0.024l0.003 0.001c-4.288-1.294-8.924 0.754-10.775 4.911-1.301 2.921-0.908 6.166 0.756 8.636l0.025 0.035c0.375 0.568 0.46 1.299 0.167 1.958-0 0-0 0.001-0 0.001l0-0-0.788 1.769c-0.483-0.038-0.95 0.222-1.156 0.681l-0 0-0.258 0.579c-0.11 0.247-0.126 0.511-0.063 0.754l-0.001-0.003c-0.219 0.114-0.405 0.303-0.515 0.55-0 0-0 0-0 0v0l-0.258 0.579c-0.259 0.584 0.003 1.267 0.586 1.527l1.278 0.569-0.409 0.919c-0.236 0.531 0.003 1.152 0.533 1.389l1.68 0.748c0.531 0.236 1.152-0.003 1.389-0.533l0-0 0.409-0.919 1.278 0.569c0.584 0.259 1.267-0.003 1.527-0.586l0-0 0.258-0.579c0 0 0-0 0-0 0.11-0.247 0.126-0.511 0.063-0.754l0.001 0.003c0.219-0.114 0.405-0.303 0.515-0.55 0-0 0-0 0-0v0l0.258-0.58c0.204-0.46 0.084-0.981-0.261-1.309l-0.006-0.006 0.771-1.731c0-0 0-0 0-0 0.306-0.688 0.936-1.131 1.63-1.23l0.010-0.001c2.602-0.378 4.951-1.859 6.36-4.169l0.023-0.039c0.009-0.014 0.018-0.032 0.026-0.050 0.092-0.206 0.014-0.444-0.173-0.559l-0.002-0.001zM11.884 28.007c-0.037 0.081-0.132 0.117-0.214 0.082l-0-0-1.679-0.748c-0.081-0.037-0.117-0.132-0.082-0.214l0-0 0.409-0.919 1.976 0.88zM15.098 27.071c-0.061 0.133-0.218 0.193-0.352 0.135l-0-0-6.157-2.742c-0.133-0.061-0.193-0.218-0.135-0.352l0-0 0.258-0.579c0.061-0.133 0.218-0.193 0.352-0.135l0 0 6.157 2.742c0.133 0.061 0.193 0.218 0.135 0.352l-0 0zM15.935 25.192c-0.061 0.133-0.218 0.193-0.352 0.135l-0-0-6.157-2.742c-0.133-0.061-0.193-0.218-0.135-0.352l0-0 0.258-0.58c0.061-0.133 0.218-0.193 0.352-0.135l0 0 6.157 2.742c0.133 0.061 0.193 0.218 0.135 0.352l-0 0z"></path>
</symbol>
<symbol id="icon-twitter" viewBox="0 0 32 32">
<title>twitter</title>
<path fill="#53c7f0" style="fill: var(--color1, #53c7f0)" d="M31.999 16c0 8.836-7.163 16-16 16s-16-7.163-16-16c0-8.836 7.163-16 16-16s16 7.163 16 16z"></path>
<path fill="#f1f2f2" style="fill: var(--color9, #f1f2f2)" d="M25.801 11.499c-0.64 0.291-1.382 0.503-2.16 0.598l-0.037 0.004c0.791-0.479 1.385-1.214 1.674-2.088l0.008-0.027c-0.699 0.422-1.513 0.744-2.379 0.92l-0.049 0.008c-0.7-0.743-1.69-1.206-2.789-1.206-2.114 0-3.828 1.714-3.828 3.828 0 0.308 0.036 0.607 0.105 0.893l-0.005-0.026c-3.186-0.164-5.989-1.678-7.867-3.977l-0.015-0.019c-0.327 0.552-0.52 1.217-0.52 1.926 0 1.321 0.669 2.485 1.686 3.174l0.014 0.009c-0.638-0.021-1.231-0.196-1.749-0.489l0.019 0.010c0 0.016 0 0.032 0 0.048 0.001 1.844 1.306 3.383 3.043 3.744l0.025 0.004c-0.302 0.085-0.649 0.134-1.007 0.134-0.255 0-0.504-0.025-0.744-0.072l0.024 0.004c0.503 1.531 1.906 2.623 3.569 2.656l0.004 0c-1.296 1.020-2.952 1.636-4.752 1.636-0.321 0-0.638-0.020-0.948-0.058l0.037 0.004c1.654 1.079 3.679 1.72 5.853 1.72 0.004 0 0.008 0 0.011 0h-0.001c7.036 0 10.882-5.827 10.882-10.882q0-0.249-0.011-0.495c0.752-0.547 1.385-1.203 1.891-1.952l0.017-0.027z"></path>
</symbol>
</defs>
</svg>
