<svg xmlns="http://www.w3.org/2000/svg" viewBox="0 0 53.38 85.91"><defs><style>.cls-1{fill:#953d23;stroke:#231815;stroke-miterlimit:22.93;stroke-width:0.57px;}.cls-1,.cls-10,.cls-2,.cls-3,.cls-4,.cls-5,.cls-6,.cls-7,.cls-9{fill-rule:evenodd;}.cls-2{fill:#ceacca;}.cls-3{fill:#f6c085;}.cls-4{fill:#d8b3d2;}.cls-5{fill:#f8c997;}.cls-6{fill:#cc5827;}.cls-7,.cls-8{fill:#3e3b3a;}.cls-9{fill:#d6825b;}.cls-10{fill:#e5b17d;}</style></defs><title>Asset 4</title><g id="Layer_2" data-name="Layer 2"><g id="OBJECTS"><path class="cls-1" d="M49,43.3c-.23,2.42-8.78,20.49-8.78,20.49l-20.44-.41S7,54,6.11,47.11a71.5,71.5,0,0,1-.4-13.4l43.07-1.05Z"/><path class="cls-2" d="M40.36,77.78C40.83,77.43,47,65.31,47,65.31c4.59,1.51,5.91,14.53,6.38,20.6h-11Z"/><path class="cls-3" d="M27.1,56.72H22.26v3.06c0,3.62-9.63,3.95-12.9,5,.88,7.56,7.9,13.11,18.22,20.16h2.5c4.2-6.24,14.77-10.06,15-20.16-3.31-1.06-13.16-1.33-13.15-5V56.72Z"/><path class="cls-2" d="M14.44,76.39c-.46-.34-7-11.08-7-11.08C2.89,66.82,1.56,79.84,1.1,85.91h11Z"/><path class="cls-4" d="M9.36,64.77A7.42,7.42,0,0,0,7,65.54c5.24,9.95-2.5,13.94.36,20.37H47.06c2.85-6.43-4.89-10.42.36-20.37a7.41,7.41,0,0,0-2.33-.77c-1.28,6.61-8.79,11.68-17.86,11.68S10.65,71.38,9.36,64.77Z"/><path class="cls-5" d="M27.63,3.51h-.06L24.72,3.4v.22l-.3,0A19.52,19.52,0,0,0,9.72,11.72C6.23,16.46,5.76,22.44,6,28.16,6.75,42.87,15,59.38,27.63,59.5c12.65-.12,20.88-16.63,21.59-31.34.27-5.72-.19-11.7-3.68-16.44A19.52,19.52,0,0,0,30.83,3.64l-.3,0V3.4l-2.85.11Z"/><path class="cls-6" d="M42.71,30.5c1,.41-.66-2.28-5.53-2.39C31.5,28,29.77,30.72,32,29.94A15,15,0,0,1,42.71,30.5Z"/><path class="cls-7" d="M18.25,35.79a1.68,1.68,0,1,0-1.68-1.68A1.68,1.68,0,0,0,18.25,35.79Z"/><circle class="cls-8" cx="37.12" cy="34.11" r="1.67"/><path class="cls-9" d="M21,47.68a13.37,13.37,0,0,0,12.87,0C32.9,54.18,22.14,54,21,47.68Z"/><path class="cls-10" d="M23.85,44.12s0,0,0,0a.32.32,0,0,1,.13-.24,35.81,35.81,0,0,0,2.66-9.43c.68,0-.67,7.23-1.25,8.94a12.66,12.66,0,0,1,2.08-.16c2,0,3.62.4,3.62.89s-1.62.9-3.62.9S24,44.59,23.85,44.12Z"/><path class="cls-6" d="M12.26,30.54c-1,.41.65-2.28,5.53-2.38C23.47,28,25.2,30.77,23,30A15,15,0,0,0,12.26,30.54Z"/><path class="cls-6" d="M12.28,8.85C20.16,13.51,44,21.31,43.34,44.52c0,0,1.68-9.29,1.73-8.86a39.76,39.76,0,0,1-.52,14.68c-1.73,8.49-8.77,18.43-8.48,18a31,31,0,0,0,12-13.92C60.64,25.62,50.64-5.44,20.77.81,14.36,2.15,9.43,7.17,12.28,8.85Z"/><path class="cls-6" d="M21,11.67c-16.56,8.74-9.93,39-3.33,49.11,3.15,4.85,6.39,8,5.26,7s-9.3-.33-18-16.83c-7-13.27-9.35-46.58,12.46-46.58Z"/><path class="cls-6" d="M5.45,21.15c.93-.81,5.44-6.17,5.44-6.17-4.33,18.17,3.66,33.4,3.62,33.35C7.83,36.86,6.87,34.22,5.45,21.15Z"/></g></g></svg>