<svg xmlns="http://www.w3.org/2000/svg" viewBox="0 0 52.01 84.11"><defs><style>.cls-1{fill:#443d47;}.cls-1,.cls-2,.cls-3,.cls-4,.cls-5,.cls-6,.cls-7,.cls-8,.cls-9{fill-rule:evenodd;}.cls-2{fill:#f5b67e;}.cls-3{fill:#4d4351;}.cls-4{fill:#f6c085;}.cls-5{fill:#f8c997;}.cls-6{fill:#a95c40;}.cls-7{fill:#3e3b3a;}.cls-8{fill:#d6825b;}.cls-9{fill:#e5b17d;}</style></defs><title>Asset 11</title><g id="Layer_2" data-name="Layer 2"><g id="OBJECTS"><path class="cls-1" d="M16.86,71.42c-.46-.35-10.77-5.21-10.77-5.21C1.5,67.73.47,78,0,84.11H11Z"/><path class="cls-1" d="M35.14,71.42c.46-.35,10.77-5.21,10.77-5.21C50.5,67.73,51.53,78,52,84.11H41Z"/><path class="cls-2" d="M26,54.92H21.16v3c0,1.9-.31,1.51-2.09,2.49A14.45,14.45,0,0,1,16.84,62C19,69,20.55,77.86,24.75,84.11h2.5C31.45,77.86,33,69,35.16,62a14.45,14.45,0,0,1-2.23-1.57c-1.78-1-2.09-.59-2.09-2.49v-3Z"/><path class="cls-3" d="M26,71.56c-8-.63-6.84-11-6.93-11.07-2.58,1.17-12,4.86-13,5.77.85,1.87,2.15,9.57,3.27,17.85H42.7c1.12-8.28,2.42-16,3.27-17.85-1-.91-10.46-4.6-13-5.77C32.84,60.54,34,70.93,26,71.56Z"/><path class="cls-4" d="M39,33.36a6.61,6.61,0,0,0,5.22,7.92,6.42,6.42,0,0,0,7.72-5.36c.69-3.94-1.64-7.7-5.21-8.41S39.64,29.42,39,33.36Z"/><path class="cls-4" d="M14,33.36A6.61,6.61,0,0,1,8.8,41.28a6.42,6.42,0,0,1-7.72-5.36C.39,32,2.72,28.22,6.29,27.51S13.33,29.42,14,33.36Z"/><path class="cls-5" d="M44.32,9.91A19.52,19.52,0,0,0,29.61,1.83h-.3V1.59l-2.85.12-2.85-.12v.23h-.3A19.52,19.52,0,0,0,8.62,9.91C5.13,14.66,4.67,20.63,4.94,26.36c.21,4.32,1,11.3,1.19,15.63,5.56,20.77,35.51,21.11,40.68,0,.22-4.33,1-11.31,1.19-15.63C48.27,20.63,47.81,14.66,44.32,9.91Z"/><path class="cls-6" d="M8.79,17.88c-.28.6,1.31-5.4,4.79-5.51,3.64-.11,26.28,1.27,27.44-.24,3.83,4.85,6.63,24.1,6.85,24.06.51-.1.57-2,.62-2.39A65.2,65.2,0,0,0,49,25.19c0-5.28,1.53-15.44-8-21.77-5.87-3.89-18-4.28-24.77-2.08-4.7,1.54-9.22,5.54-10.89,10.2-1.85,5.12-1.8,9.12-1.19,19.26.06,1.1.19,2.2.34,3.29.11.72.2,1.47.38,2.18C5.75,40.13,5.84,22.44,8.79,17.88Z"/><path class="cls-6" d="M44.54,8.13c-.74,7.4-10.34,13.13-17.46,13.13l2.08-2c-8,2.44-12.48.78-12.47.78A25.9,25.9,0,0,0,20,18.72c-4.55.14-9.15.21-12.68-3.09l5.09-9Z"/><path class="cls-7" d="M15.54,36.59a1.68,1.68,0,1,0-1.68-1.67A1.67,1.67,0,0,0,15.54,36.59Z"/><path class="cls-7" d="M37.41,36.59a1.68,1.68,0,1,0-1.68-1.67A1.67,1.67,0,0,0,37.41,36.59Z"/><path class="cls-6" d="M9.78,30.23C9.17,29.34,12,28.68,15,28.47c4.92-.34,7.73,1.85,5.36,1.93C18.55,30.47,10,30.48,9.78,30.23Z"/><path class="cls-6" d="M42.19,30.36c.64-.86-2.19-1.63-5.11-2-4.9-.54-7.8,1.55-5.44,1.72C33.41,30.25,42,30.61,42.19,30.36Z"/><path class="cls-8" d="M32,46.78c-1,5.75-10.29,5.75-11.31,0A33.76,33.76,0,0,0,32,46.78Z"/><path class="cls-9" d="M22.75,43.4s0,0,0,0a.34.34,0,0,1,.14-.25,35.56,35.56,0,0,0,2.66-9.43c.68,0-.67,7.23-1.26,8.94a12.75,12.75,0,0,1,2.08-.16c2,0,3.63.4,3.63.9s-1.63.89-3.63.89S22.86,43.87,22.75,43.4Z"/></g></g></svg>