<svg xmlns="http://www.w3.org/2000/svg" viewBox="0 0 52.01 94.06"><defs><style>.cls-1{fill:#34333c;}.cls-1,.cls-10,.cls-11,.cls-2,.cls-3,.cls-4,.cls-5,.cls-6,.cls-7,.cls-9{fill-rule:evenodd;}.cls-2{fill:#f5b67e;}.cls-3{fill:#bed53b;}.cls-4{fill:#f6c085;}.cls-5{fill:#f8c997;}.cls-6{fill:#973823;}.cls-7,.cls-8{fill:#3e3b3a;}.cls-9{fill:#d6825b;}.cls-10{fill:#e5b17d;}.cls-11{fill:#d99e67;}</style></defs><title>Asset 16</title><g id="Layer_2" data-name="Layer 2"><g id="OBJECTS"><path class="cls-1" d="M16.86,81.36c-.46-.34-10.77-5.2-10.77-5.2C1.5,77.68.47,88,0,94.06H11Z"/><path class="cls-1" d="M35.14,81.36c.46-.34,10.77-5.2,10.77-5.2C50.5,77.68,51.53,88,52,94.06H41Z"/><path class="cls-2" d="M26,64.86H21.16v3.06c0,1.9-.31,1.5-2.09,2.49A15.17,15.17,0,0,1,16.84,72c2.15,6.92,4.39,13.43,8.6,19.68h2.49C32.14,85.41,33,78.9,35.16,72a15.17,15.17,0,0,1-2.23-1.57c-1.78-1-2.09-.59-2.09-2.49V64.86Z"/><path class="cls-3" d="M26,81.5c-8-.63-6.84-11-6.93-11.07-2.58,1.18-12,4.87-13,5.78.85,1.87,2.15,9.57,3.27,17.85H42.7c1.12-8.28,2.42-16,3.27-17.85-1-.91-10.46-4.6-13-5.78C32.84,70.49,34,80.87,26,81.5Z"/><path class="cls-4" d="M39,43.31a6.62,6.62,0,0,0,5.22,7.92,6.43,6.43,0,0,0,7.72-5.37c.69-3.93-1.64-7.7-5.21-8.4S39.64,39.37,39,43.31Z"/><path class="cls-4" d="M14,43.31A6.62,6.62,0,0,1,8.8,51.23a6.43,6.43,0,0,1-7.72-5.37c-.69-3.93,1.64-7.7,5.21-8.4S13.33,39.37,14,43.31Z"/><path class="cls-5" d="M44.32,19.86a19.52,19.52,0,0,0-14.71-8.08h-.3v-.23l-2.85.11-2.85-.11v.23h-.3A19.52,19.52,0,0,0,8.62,19.86C5.13,24.6,4.67,30.58,4.94,36.3c.21,4.33,1,11.31,1.19,15.63,5.55,20.78,35.51,21.11,40.68,0,.22-4.32,1-11.3,1.19-15.63C48.27,30.58,47.81,24.6,44.32,19.86Z"/><path class="cls-6" d="M8.79,27.82c-.28.6,1.31-5.4,4.79-5.5,3.64-.11,26.28,1.27,27.44-.25,3.83,4.86,6.63,24.11,6.85,24.07.51-.1.57-2,.62-2.39A65.29,65.29,0,0,0,49,35.14c0-5.28,1.53-15.44-8-21.77-5.87-3.9-18-4.29-24.77-2.08a17.92,17.92,0,0,0-10.9,10.2c-1.84,5.12-1.79,9.12-1.18,19.25.06,1.1.19,2.2.34,3.29.11.73.2,1.47.38,2.18C5.75,50.07,5.84,32.39,8.79,27.82Z"/><path class="cls-7" d="M15.54,46.48a1.68,1.68,0,1,0-1.68-1.67A1.67,1.67,0,0,0,15.54,46.48Z"/><circle class="cls-8" cx="37.41" cy="44.92" r="1.67"/><path class="cls-6" d="M9.78,40.17C9.17,39.29,12,38.63,15,38.42c4.92-.35,7.73,1.85,5.36,1.93C18.55,40.41,10,40.43,9.78,40.17Z"/><path class="cls-6" d="M42.19,40.22c.64-.86-2.19-1.63-5.11-1.95-4.9-.54-7.8,1.54-5.44,1.72C33.41,40.12,42,40.47,42.19,40.22Z"/><path class="cls-9" d="M32,56.72c-1,5.75-10.29,5.75-11.31,0A33.5,33.5,0,0,0,32,56.72Z"/><path class="cls-10" d="M22.75,53.34s0,0,0-.05a.34.34,0,0,1,.14-.24,35.81,35.81,0,0,0,2.66-9.43c.68,0-.67,7.23-1.26,8.94a12.75,12.75,0,0,1,2.08-.16c2,0,3.62.4,3.62.89s-1.62.9-3.62.9S22.86,53.81,22.75,53.34Z"/><path class="cls-6" d="M8.58,24.82c-.38-2.27-2.27-2.4-1.92-5.06S11,11.92,13.17,9.82A12.17,12.17,0,0,1,17.93,7s-1.46,2.35-.86,1.75S20.67,6.78,22,6s1.88-1.67,1.71-1.24-1,2-.39,1.59S25.47,5.88,27.36,4A22.58,22.58,0,0,0,30.27.05C30.1.48,33,3.86,33.91,5.58S35,8.32,35.2,7.85s1.07-2.23,1.07-2.23a43.85,43.85,0,0,1,4.88,5c1.38,1.89,1.68,3.21,1.85,2.74s.51-1.63.51-1.63,1.84,4.59,1.33,6.9a44.82,44.82,0,0,1-1.6,5.19S30.7,27,26.24,27.05c-2.11,0-15.64-3.71-15.9-4.76Z"/><path class="cls-11" d="M26,81.51c-8-.64-6.84-11-6.93-11.08l-.07,0-2.15.93c0,.19,0,.37,0,.56v0A14.16,14.16,0,0,0,20,81.21a7.73,7.73,0,0,0,5.81,2.87c3.09,0,5.83-2.12,7.44-5.34a14.77,14.77,0,0,0,1.48-5.41q.06-.67.06-1.38V71.8c0-.19,0-.37,0-.56-.74-.31-1.36-.58-1.8-.78l-.07,0C32.84,70.49,34,80.87,26,81.51Z"/><path class="cls-1" d="M26,81.51c-8-.64-6.84-11-6.93-11.08l-.07,0-2.15.93c0,.19,0,.37,0,.56v0A14.16,14.16,0,0,0,20,81.21a7.73,7.73,0,0,0,5.81,2.87c3.09,0,5.83-2.12,7.44-5.34a14.77,14.77,0,0,0,1.48-5.41q.06-.67.06-1.38v-.71c-.74-.31-1.36-.58-1.8-.78l-.07,0C32.84,70.49,34,80.87,26,81.51Z"/></g></g></svg>