<svg xmlns="http://www.w3.org/2000/svg" viewBox="0 0 52.84 84.99"><defs><style>.cls-1{fill:#402412;}.cls-1,.cls-2,.cls-3,.cls-4,.cls-5,.cls-6,.cls-7,.cls-8,.cls-9{fill-rule:evenodd;}.cls-2{fill:#9b5538;}.cls-3{fill:#f5b67e;}.cls-4{fill:#ed8322;}.cls-5{fill:#f6c085;}.cls-6{fill:#f8c997;}.cls-7{fill:#3e3b3a;}.cls-8{fill:#e5b17d;}.cls-9{fill:#d6825b;}</style></defs><title>Asset 15</title><g id="Layer_2" data-name="Layer 2"><g id="OBJECTS"><path class="cls-1" d="M50.07,44.7c0,6.65,4.68,12,1.86,19.28-4.39,11.3-14.28,8.82-21.61,8.82h-9.6c-7.53,0-16.43.91-19.61-10-2.19-7.51,1.71-11.47,1.71-17.46L2.48,28.42C3.06,6,11.14,2.47,26.49,2.47c18.05-2.42,22.94,7,24,26Z"/><path class="cls-2" d="M35.4,72.29l10.48-7.91C50.47,65.89,51.8,78.91,52.26,85h-11Z"/><path class="cls-3" d="M26,55.79H21.16v3.06c0,1.9-.31,1.5-2.09,2.49a15.17,15.17,0,0,1-2.23,1.57C19,69.83,20.55,78.74,24.75,85h2.5c4.2-6.25,5.76-15.16,7.91-22.08a15.17,15.17,0,0,1-2.23-1.57c-1.78-1-2.09-.59-2.09-2.49V55.79Z"/><path class="cls-2" d="M16.86,72.29,6.38,64.38C1.79,65.89.47,78.91,0,85H11Z"/><path class="cls-4" d="M23,68.17c-4.26-1.57-4.79-6.14-3.93-6.81-1.9.87-7.54,1.73-10.8,2.48l-.06,0H8.1l0,0H7.94l-.1,0H7.69l-.05,0H7.49l0,0h0l-.13,0H7.09l0,0H6.92l0,0H6.81l-.08,0h0l-.11,0h0l-.07,0H6.43l-.08,0h0l-.09,0h0l-.08,0h0l-.06,0h0l-.06,0H6l-.06.05c.47,1,1.08,4.47,1.73,8.74C7,77.72,4.46,80.85,6.3,85H46c1.84-4.14-.71-7.27-1.37-11.63a55,55,0,0,1,1.73-8.74l0-.05h0l-.06,0h0l-.07,0h0l-.08,0h0l-.08,0h0l-.08,0h-.06l-.06,0h0l-.1,0h0l-.07,0h-.08l0,0h-.12l0,0H45l-.13,0h0l0,0h-.15l0,0h-.16l-.1,0h-.11l-.05,0h-.11l0,0c-3.27-.75-8.91-1.61-10.81-2.48.87.67.33,5.24-3.93,6.81h0l-3,5L26.13,73l-.13.22-3-5Z"/><path class="cls-5" d="M11.77,31.93c.8,3.61-.79,6.61-3.52,7.26s-5.56-1.31-6.36-4.92.76-7.05,3.49-7.7S11,28.32,11.77,31.93Z"/><path class="cls-5" d="M41.29,31.93c-.8,3.61.8,6.61,3.53,7.26s5.56-1.31,6.36-4.92-.76-7.05-3.49-7.7S42.1,28.32,41.29,31.93Z"/><path class="cls-6" d="M26.53,2.58h-.06l-2.85-.11V2.7h-.3A19.52,19.52,0,0,0,8.62,10.79C5.13,15.54,4.67,21.51,4.94,27.23c.71,14.71,9,31.22,21.59,31.34,12.65-.12,20.89-16.63,21.59-31.34.28-5.72-.19-11.69-3.68-16.44A19.52,19.52,0,0,0,29.73,2.71h-.29V2.47l-2.84.11Z"/><path class="cls-1" d="M35.52,8.28c-.17.81,0,5.13,5,11.77s5.37,7.21,5.37,7.21.23,11.2.86,9.87,1.55-11,1.55-11A24.64,24.64,0,0,0,48.16,16c-1.27-5.19-2.87-7.15-5.07-8S35.52,8.28,35.52,8.28Z"/><path class="cls-1" d="M7.76,22.3c-.86,1-3.67,1.09-3.67,1.09C4.21,24.29,5.42,38,6.55,37Z"/><path class="cls-1" d="M45.85,27.26c.23-3.79,2.17-12.45,1.22-14.81C44.32,5.64,39.28,2.88,30.83,2a26.35,26.35,0,0,0-4.76,0C30.92,10,35,20.65,45.85,27.26Z"/><path class="cls-1" d="M37.7,10.34C36,21,13.43,17.58,6,30.44-2.26,17.94,10.4-7.67,32.44,2.22Z"/><path class="cls-7" d="M16.6,36.45a1.67,1.67,0,1,0-1.68-1.67A1.67,1.67,0,0,0,16.6,36.45Z"/><path class="cls-7" d="M37.47,36.45a1.67,1.67,0,1,0-1.68-1.67A1.67,1.67,0,0,0,37.47,36.45Z"/><path class="cls-8" d="M23.83,43.31s0,0,0-.05A.34.34,0,0,1,24,43a35.56,35.56,0,0,0,2.66-9.43c.68,0-.67,7.23-1.26,8.94a12.79,12.79,0,0,1,2.09-.16c2,0,3.62.4,3.62.89s-1.62.9-3.62.9S23.94,43.78,23.83,43.31Z"/><path class="cls-1" d="M31.48,30.75c-1,.41.65-2.28,5.53-2.38,5.68-.13,7.4,2.6,5.17,1.82A15,15,0,0,0,31.48,30.75Z"/><path class="cls-1" d="M21.59,30.75c1,.41-.66-2.28-5.53-2.38-5.68-.13-7.41,2.6-5.17,1.82A15,15,0,0,1,21.59,30.75Z"/><path class="cls-9" d="M32.22,47.41c-1,4.52-10.29,4.52-11.31,0A7.83,7.83,0,0,0,32.22,47.41Z"/></g></g></svg>