<svg xmlns="http://www.w3.org/2000/svg" viewBox="0 0 52.26 84.92"><defs><style>.cls-1{fill:#b24d26;}.cls-1,.cls-10,.cls-11,.cls-2,.cls-3,.cls-4,.cls-5,.cls-6,.cls-8,.cls-9{fill-rule:evenodd;}.cls-2{fill:#f5b67e;}.cls-3{fill:#d8465e;}.cls-4{fill:#e8556b;}.cls-5{fill:#f8c997;}.cls-6{fill:#cc5827;}.cls-7{fill:#3e3b3a;}.cls-8{fill:#e5b17d;}.cls-9{fill:#913e22;}.cls-10{fill:#d6825b;}.cls-11{fill:#fff;}</style></defs><title>Asset 14</title><g id="Layer_2" data-name="Layer 2"><g id="OBJECTS"><path class="cls-1" d="M45.28,52.85c-.26.14-4,4.5-4,4.5s-5-3.27-15.25-3.16-14.62,3.05-14.62,3.05a12.48,12.48,0,0,1-4-6.1c-1.16-4-2.15-15.6-1.56-15.75s42.41-.52,42.41-.52Z"/><path class="cls-2" d="M35.4,72.23l10.48-7.91c4.59,1.51,5.92,14.53,6.38,20.6h-11Z"/><path class="cls-3" d="M40.15,68.58l5.73-4.33c4,1.34,5.55,11.59,6.17,18.16H40.15Z"/><path class="cls-2" d="M26,55.73H21.16v3.05c0,1.9-.31,1.51-2.09,2.5a15.17,15.17,0,0,1-2.23,1.57c2.15,6.92,3.71,15.83,7.91,22.07h2.5c4.2-6.24,5.76-15.15,7.91-22.07a15.17,15.17,0,0,1-2.23-1.57c-1.78-1-2.09-.6-2.09-2.5V55.73Z"/><path class="cls-2" d="M16.86,72.23,6.38,64.32C1.79,65.83.47,78.85,0,84.92H11Z"/><path class="cls-3" d="M12.11,68.64,6.38,64.32C2.34,65.65.83,75.9.21,82.47h11.9Z"/><path class="cls-4" d="M23,68.1c-4.26-1.56-4.79-6.13-3.93-6.8-1.9.87-7.54,1.72-10.8,2.48H8.21l-.05,0H8l-.06,0-.1,0h0l0,0h-.1l0,0H7.45l0,0-.13,0h0l0,0H7.05l0,0H6.85l0,0-.08,0h0l-.11,0h0l-.07,0,0,0h0l-.08,0h0l-.09,0h0l-.08,0h0l-.06,0h0l-.06,0H6l-.06,0C6.41,65.57,7,69,7.67,73.3,7,77.65,4.46,80.78,6.3,84.92H46c1.84-4.14-.71-7.27-1.37-11.62a55.17,55.17,0,0,1,1.73-8.75l0,0h0l-.06,0h0l-.07,0h0l-.08,0h0l-.08,0h0l-.08,0h0l0,0-.06,0h0l-.1,0h0l-.07,0,0,0h-.16l0,0h-.13L45,64h0l-.13,0,0,0h-.15l-.05,0h-.1l-.05,0h0l-.1,0,0,0h-.16l-.06,0h0c-3.27-.76-8.91-1.61-10.81-2.48.87.67.33,5.24-3.93,6.8h0l-1.81,6-1.54,5.43L23,68.1Z"/><path class="cls-5" d="M26.53,2.52h-.06l-2.85-.11v.22h-.3A19.53,19.53,0,0,0,8.62,10.73C5.13,15.47,4.67,21.45,4.94,27.17c.71,14.7,9,31.21,21.59,31.34,12.65-.13,20.89-16.64,21.59-31.34.28-5.72-.19-11.7-3.68-16.44A19.53,19.53,0,0,0,29.73,2.64h-.29V2.41l-2.84.11Z"/><path class="cls-6" d="M36.37,8.21c-.17.81,0,5.14,5,11.78S46.7,27.2,46.7,27.2s-.52,10.21-.46,9.69S49,26.64,49,26.64a26.57,26.57,0,0,0,0-10.75c-1.27-5.19-2.87-7.15-5.07-8S36.37,8.21,36.37,8.21Z"/><path class="cls-6" d="M5.93,23.26c-.86,1-2.88,3-2.88,3L5.3,36.54Z"/><path class="cls-6" d="M46.51,31C46.74,27.22,49,15,48,12.59,43.61,1.72,25.38-4.51,21.11,6.67c-1.28,3.35,9.55,0,10.3,4.47C32.39,17,39.69,27,46.51,31Z"/><path class="cls-6" d="M37.35,9.47C42.22,14,27.12,24.24,7.25,28.76-2.87,19,10.4-7.74,32.44,2.16Z"/><path class="cls-6" d="M3.51,19.73C2.25,28.61.23,56.19,12.11,58.31c-4.46-6.19-4.76-20-4.88-30.83-.08-7.43-.46-11.87-.54-17.83C5,11.85,3.89,17.11,3.51,19.73Z"/><path class="cls-6" d="M48.76,19.73C50,28.61,52,56.19,40.16,58.31c7.5-10.5,5.18-34.13,5.42-48.66C47.27,11.85,48.38,17.11,48.76,19.73Z"/><circle class="cls-7" cx="17.6" cy="35.13" r="1.67"/><circle class="cls-7" cx="35.47" cy="35.13" r="1.67"/><path class="cls-8" d="M23.33,43.67s0,0,0-.05a.31.31,0,0,1,.14-.24A35.81,35.81,0,0,0,26.12,34c.68,0-.67,7.22-1.26,8.94A12.79,12.79,0,0,1,27,42.73c2,0,3.62.4,3.62.89s-1.62.89-3.62.89S23.44,44.14,23.33,43.67Z"/><path class="cls-9" d="M30.48,31.1c-1,.41.65-2.27,5.53-2.38,5.68-.12,7.4,2.61,5.17,1.83A15,15,0,0,0,30.48,31.1Z"/><path class="cls-9" d="M22.59,31.1c1,.41-.66-2.27-5.53-2.38-5.68-.12-7.41,2.61-5.17,1.83A15,15,0,0,1,22.59,31.1Z"/><path class="cls-10" d="M21,47.54c2.14,1.43,9.23,1.45,11.4,0C33.85,53.49,19.45,53.49,21,47.54Z"/><path class="cls-11" d="M18.47,61.1l1.58-.49L23,68.1s-2.83,2.6-5.26,2.78S15,66,16,63.73,18.47,61.1,18.47,61.1Z"/><path class="cls-11" d="M33.8,61.1l-1.59-.49L29.26,68.1s2.83,2.6,5.26,2.78,2.8-4.84,1.76-7.15S33.8,61.1,33.8,61.1Z"/><path class="cls-6" d="M25.77,14.91c.81.18,8,.85,8,.85S32,19.51,25.34,23.63,11.21,29.26,11.4,29.05s6.26-2.51,9.41-5.25a20.23,20.23,0,0,0,4.41-5.16Z"/><path class="cls-6" d="M35.72,9.07c-.78-.26-7.3-3.4-7.3-3.4S28,9.81,31.61,16.77s9.2,12.11,9.14,11.82-4.07-5.37-5.35-9.34a20.22,20.22,0,0,1-1.12-6.7Z"/></g></g></svg>