<svg xmlns="http://www.w3.org/2000/svg" viewBox="0 0 52.01 84.48"><defs><style>.cls-1{fill:#9f2025;}.cls-1,.cls-10,.cls-11,.cls-2,.cls-3,.cls-4,.cls-5,.cls-6,.cls-7,.cls-8,.cls-9{fill-rule:evenodd;}.cls-2{fill:#f5b67e;}.cls-3{fill:#841b21;}.cls-4{fill:#f6c085;}.cls-5{fill:#f8c997;}.cls-6{fill:#d6825b;}.cls-7{fill:#59341a;}.cls-8{fill:#402412;}.cls-9{fill:#5d331a;}.cls-10{fill:#3e3b3a;}.cls-11{fill:#e5b17d;}</style></defs><title>Asset 18</title><g id="Layer_2" data-name="Layer 2"><g id="OBJECTS"><path class="cls-1" d="M16.86,71.78c-.46-.34-10.77-5.2-10.77-5.2C1.5,68.1.47,78.41,0,84.48H11Z"/><path class="cls-1" d="M35.14,71.78c.46-.34,10.77-5.2,10.77-5.2C50.5,68.1,51.53,78.41,52,84.48H41Z"/><path class="cls-2" d="M26,55.28H21.16v3.06c0,1.9-.31,1.5-2.09,2.49a15.17,15.17,0,0,1-2.23,1.57c2.15,6.93,3.71,15.83,7.91,22.08h2.5c4.2-6.25,5.76-15.15,7.91-22.08a15.17,15.17,0,0,1-2.23-1.57c-1.78-1-2.09-.59-2.09-2.49V55.28Z"/><path class="cls-3" d="M23,67.66c-4.26-1.57-4.79-6.13-3.93-6.8-2.58,1.17-12,4.86-13,5.77C6.88,68.5,8.18,76.2,9.3,84.48H42.7c1.12-8.28,2.42-16,3.27-17.85-1-.91-10.46-4.6-13-5.77.86.67.33,5.23-3.93,6.8h0l-3,5-3-5Z"/><path class="cls-4" d="M39,33.17a6.1,6.1,0,0,0,5.22,7.26c3.57.65,7-1.31,7.72-4.91a6.54,6.54,0,0,0-5.21-7.71A6.71,6.71,0,0,0,39,33.17Z"/><path class="cls-4" d="M14,33.17A6.1,6.1,0,0,1,8.8,40.43c-3.57.65-7-1.31-7.72-4.91a6.54,6.54,0,0,1,5.21-7.71A6.71,6.71,0,0,1,14,33.17Z"/><path class="cls-5" d="M44.32,10.28A19.52,19.52,0,0,0,29.61,2.2h-.3V2l-2.85.11L23.62,2v.23h-.3A19.52,19.52,0,0,0,8.62,10.28C5.13,15,4.67,21,4.94,26.73c.71,14.7,2,31.17,21.59,31.33S47.29,41.33,48,26.73C48.27,21,47.81,15,44.32,10.28Z"/><path class="cls-6" d="M32.22,45.74c-1,5.75-10.29,5.75-11.31,0A33.76,33.76,0,0,0,32.22,45.74Z"/><path class="cls-7" d="M6,31.18C6.28,25.76,6.35,16,11.1,16c3.51,0,4.46.81,15.14.81,9.45,0,12.19-1.07,15.73-1.07,3.79,0,4.73,5.1,4.8,12.18,0,1.46.12,2.92.2,4.38.05.85.11,1.71.15,2.56,0,.35.11,1.28.56,1.19s.56-2,.61-2.38a68,68,0,0,0,.46-8.56c0-5.25,1.51-15.36-7.91-21.66C35-.47,23.07-.86,16.4,1.34A17.68,17.68,0,0,0,5.65,11.48c-1.82,5.09-1.77,9.07-1.17,19.15.06,1.1.19,2.19.34,3.28a19.48,19.48,0,0,0,.37,2.16c.38,1.55.9.45.89-.51C6.05,34.09,6,32.64,6,31.18Z"/><path class="cls-8" d="M17.5,46a14.42,14.42,0,0,1-2.48.26,8.92,8.92,0,0,1-7-3.08A6.17,6.17,0,0,1,6.9,40.42c-.1-.75-.5-2.61-.56-3.25C6,33.49,5.19,36.14,5.15,39a9.3,9.3,0,0,0,.34,2.07,54.38,54.38,0,0,0-.35,5.54C6,57.37,19.83,60.2,26.64,61.2,30,60.71,39.16,58.49,41.31,57c5.5-3.8,7.27-8.09,6.47-15.94A9.3,9.3,0,0,0,48.12,39c0-2.85-.81-5.5-1.18-1.82-.06.64-.47,2.5-.56,3.25a6.17,6.17,0,0,1-1.08,2.76,8.93,8.93,0,0,1-7,3.08A14.22,14.22,0,0,1,35.78,46a4.08,4.08,0,0,1,.58,2.08c0,2.73-2.88,5-6.84,5.81a3.39,3.39,0,0,1-.79-.39,7.71,7.71,0,0,1-2-2,7.4,7.4,0,0,1-2,2,3.4,3.4,0,0,1-.86.42c-4-.74-7-3.08-7-5.84A4.08,4.08,0,0,1,17.5,46Z"/><path class="cls-9" d="M26.64,41.47c-2.22-1.8-7.55,2.71-8.69,3.19a4.56,4.56,0,0,1-5.45-1.44,9.3,9.3,0,0,0,2.05,3.86c2.89,3.25,9,2.39,12.09-.4,3.1,2.79,9.2,3.65,12.09.4a9.45,9.45,0,0,0,2.05-3.86,4.57,4.57,0,0,1-5.46,1.44C34.19,44.18,28.85,39.67,26.64,41.47Z"/><path class="cls-10" d="M15.36,37.94a1.67,1.67,0,1,0-1.68-1.67A1.67,1.67,0,0,0,15.36,37.94Z"/><path class="cls-10" d="M37.59,37.94a1.67,1.67,0,1,0-1.68-1.67A1.67,1.67,0,0,0,37.59,37.94Z"/><path class="cls-7" d="M10,31.16c-.55-.91,2.34-1.4,5.28-1.42,4.93,0,7.61,2.33,5.23,2.26C18.77,32,10.2,31.43,10,31.16Z"/><path class="cls-7" d="M42.91,31c.55-.92-2.35-1.37-5.29-1.35C32.69,29.7,30,32.1,32.41,32,34.18,31.93,42.75,31.3,42.91,31Z"/><path class="cls-11" d="M24.31,40.4s0,0,0,0a.27.27,0,0,1,.12-.2,30,30,0,0,0,2.2-7.8c.56,0-.56,6-1,7.4a9.64,9.64,0,0,1,1.72-.14c1.65,0,3,.34,3,.74s-1.34.74-3,.74S24.4,40.78,24.31,40.4Z"/></g></g></svg>