<svg xmlns="http://www.w3.org/2000/svg" viewBox="0 0 52.01 85.42"><defs><style>.cls-1{fill:#d33f27;}.cls-1,.cls-2,.cls-3,.cls-4,.cls-5,.cls-6,.cls-7,.cls-8,.cls-9{fill-rule:evenodd;}.cls-2{fill:#f5b67e;}.cls-3{fill:#e43f25;}.cls-4{fill:#f6c085;}.cls-5{fill:#f8c997;}.cls-6{fill:#ed7f22;}.cls-7{fill:#3e3b3a;}.cls-8{fill:#d6825b;}.cls-9{fill:#e5b17d;}</style></defs><title>Asset 3</title><g id="Layer_2" data-name="Layer 2"><g id="OBJECTS"><path class="cls-1" d="M16.86,72.73c-.46-.35-10.77-5.2-10.77-5.2C1.5,69,.47,79.35,0,85.42H11Z"/><path class="cls-1" d="M35.14,72.73c.46-.35,10.77-5.2,10.77-5.2C50.5,69,51.53,79.35,52,85.42H41Z"/><path class="cls-2" d="M26,56.23H21.16v3.05c0,1.9-.31,1.51-2.09,2.49,0,0-7.08,5.91-7.6,6.07C13.63,74.77,18.76,76,23,82.25l2.92.92,3.1-.46c4.21-6.25,10.55-6.26,12.7-13.18-.52-.17-8.75-7.76-8.75-7.76-1.78-1-2.09-.59-2.09-2.49V56.23Z"/><path class="cls-3" d="M19.07,61.8c-2.58,1.17-12,4.86-13,5.77.85,1.87,2.15,9.57,3.27,17.85H42.7c1.12-8.28,2.42-16,3.27-17.85-1-.91-10.46-4.6-13-5.77,1.5,7.11,0,13.79-6.77,13.82S17.76,68,19.07,61.8Z"/><path class="cls-4" d="M39,34.12a6.1,6.1,0,0,0,5.22,7.25c3.57.65,7-1.3,7.72-4.91a6.52,6.52,0,0,0-5.21-7.7A6.69,6.69,0,0,0,39,34.12Z"/><path class="cls-4" d="M14,34.12A6.1,6.1,0,0,1,8.8,41.37c-3.57.65-7-1.3-7.72-4.91a6.52,6.52,0,0,1,5.21-7.7A6.69,6.69,0,0,1,14,34.12Z"/><path class="cls-5" d="M44.32,11.22A19.52,19.52,0,0,0,29.61,3.14h-.3V2.9L26.47,3,23.62,2.9v.23h-.3A19.52,19.52,0,0,0,8.62,11.22C5.13,16,4.67,21.94,4.94,27.67,5.65,42.37,7,58.84,26.53,59S47.29,42.27,48,27.67C48.27,21.94,47.81,16,44.32,11.22Z"/><path class="cls-6" d="M6,32.12c.26-5.42.33-15.22,5.08-15.22,3.51,0,9.66,2.17,15.33,2.46,5.33-.34,12-2.73,15.54-2.73,3.79,0,4.73,5.1,4.8,12.18,0,1.46.12,2.92.2,4.38.05.85.11,1.71.15,2.56,0,.35.11,1.28.56,1.19s.56-2,.61-2.38A68,68,0,0,0,48.75,26c0-3.88-.1-9.91-3.48-15.6-1.19-2-2-4.42-4.43-6.06C35,.47,23.07.09,16.4,2.28A17.74,17.74,0,0,0,5.65,12.42c-1.82,5.09-1.77,9.07-1.17,19.16.06,1.09.19,2.19.34,3.27A20.07,20.07,0,0,0,5.19,37c.38,1.54.9.44.89-.52C6.05,35,6,33.58,6,32.12Z"/><path class="cls-6" d="M4.42,29.44c-.64-6.84-2-24.68,3.16-27.32C9.76,1,21.16-.11,26.54,0h0c5.38-.12,16.78,1,19,2.11,5.13,2.64,3.8,20.48,3.16,27.32,0,0-2.65-10.85-5.59-15.23S28.36,12,26.57,12.82h-.06C24.72,12,13,9.82,10,14.21S4.42,29.44,4.42,29.44Z"/><path class="cls-7" d="M15.54,35.83a1.67,1.67,0,1,0-1.68-1.67A1.67,1.67,0,0,0,15.54,35.83Z"/><path class="cls-7" d="M37.41,35.83a1.68,1.68,0,1,0-1.68-1.67A1.67,1.67,0,0,0,37.41,35.83Z"/><path class="cls-8" d="M19,45.82a13,13,0,0,0,15.85,0C36.92,54.76,16.87,54.76,19,45.82Z"/><path class="cls-9" d="M22.84,44.11s0,0,0,0a.34.34,0,0,1,.14-.25,36,36,0,0,0,2.66-9.42c.68,0-.68,7.22-1.26,8.94a11.66,11.66,0,0,1,2.08-.17c2,0,3.62.4,3.62.9s-1.62.89-3.62.89S22.94,44.58,22.84,44.11Z"/><path class="cls-6" d="M10.44,29c-.54-.93,2.36-1.37,5.3-1.34,4.93,0,7.57,2.44,5.2,2.34C19.17,29.89,10.6,29.24,10.44,29Z"/><path class="cls-6" d="M42.94,28.91c.56-.92-2.33-1.41-5.27-1.45-4.93-.06-7.62,2.3-5.24,2.24C34.2,29.66,42.78,29.18,42.94,28.91Z"/></g></g></svg>