<svg xmlns="http://www.w3.org/2000/svg" viewBox="0 0 52 83.63"><defs><style>.cls-1{fill:#1b8ec1;}.cls-1,.cls-10,.cls-11,.cls-12,.cls-2,.cls-3,.cls-4,.cls-5,.cls-6,.cls-7,.cls-8,.cls-9{fill-rule:evenodd;}.cls-2{fill:#0095d3;}.cls-3{fill:#f5b67e;}.cls-4{fill:#008bcf;}.cls-5{fill:#007ab4;}.cls-6{fill:#2aa5dd;}.cls-7{fill:#f6c085;}.cls-8{fill:#f8c997;}.cls-9{fill:#bf9141;}.cls-10{fill:#3e3b3a;}.cls-11{fill:#d6825b;}.cls-12{fill:#e5b17d;}</style></defs><title>Asset 5</title><g id="Layer_2" data-name="Layer 2"><g id="OBJECTS"><polygon class="cls-1" points="19.43 61.5 19.29 56.91 33.77 56.91 33.63 61.35 19.43 61.5"/><path class="cls-2" d="M16.86,70.93c-.46-.34-10.77-5.2-10.77-5.2C1.5,67.25.47,77.56,0,83.63H11Z"/><path class="cls-2" d="M35.14,70.93c.46-.34,10.77-5.2,10.77-5.2,4.59,1.52,5.62,11.83,6.09,17.9H41Z"/><path class="cls-3" d="M26,54.43H21.16v3.06c0,1.9-.31,1.5-2.09,2.49a15.17,15.17,0,0,1-2.23,1.57C19,68.48,20.72,75.71,24.92,82h2.5c4.21-6.24,5.59-13.47,7.74-20.4A15.17,15.17,0,0,1,32.93,60c-1.78-1-2.09-.59-2.09-2.49V54.43Z"/><path class="cls-4" d="M26.43,71.25s-1.51-2-2.2-3.12C22.13,64.71,19.14,60,19.07,60c-2.58,1.17-12,4.86-13,5.77.85,1.87,2.15,9.57,3.27,17.85H42.7c1.12-8.28,2.42-16,3.27-17.85-1-.91-10.46-4.6-13-5.77a59.33,59.33,0,0,1-4.1,8.12C27.93,69.48,26.43,71.25,26.43,71.25Z"/><path class="cls-5" d="M21.48,64.18c.26,0,1.72.23,1.72.23l1,3.72-3.67-1.7Z"/><path class="cls-6" d="M19.29,56.91l3.91,7.5s-4,4-4,3.78-1.8-7.16-1.66-7.53S19.29,56.91,19.29,56.91Z"/><path class="cls-5" d="M31.57,64.18c-.26,0-1.72.23-1.72.23l-1,3.72,3.67-1.7Z"/><path class="cls-6" d="M33.77,56.91l-3.92,7.5s4,4,4,3.78,1.81-7.16,1.67-7.53S33.77,56.91,33.77,56.91Z"/><path class="cls-7" d="M38.48,32.16a6.1,6.1,0,0,0,5.22,7.26c3.57.65,7-1.31,7.72-4.92a6.53,6.53,0,0,0-5.22-7.7A6.69,6.69,0,0,0,38.48,32.16Z"/><path class="cls-7" d="M13.55,32.16a6.11,6.11,0,0,1-5.22,7.26c-3.57.65-7-1.31-7.72-4.92a6.53,6.53,0,0,1,5.21-7.7A6.7,6.7,0,0,1,13.55,32.16Z"/><path class="cls-8" d="M43.85,9.27A19.52,19.52,0,0,0,29.14,1.19h-.3V1L26,1.06,23.15,1v.23h-.3A19.52,19.52,0,0,0,8.15,9.27C4.66,14,4.2,20,4.47,25.71c.71,14.71,2,31.18,21.59,31.34S46.82,40.31,47.53,25.71C47.8,20,47.34,14,43.85,9.27Z"/><path class="cls-9" d="M6.61,30.45c.25-5.42.32-15.22,5.07-15.22.12,0,14.41-5.93,30.87-5.93,3.79,0,4.73,10.76,4.81,17.84,0,6.1-1.09,8.92-.65,9.11s2.63-3.32,2.62-11.92c0-3.88-.1-9.91-3.48-15.6-1.19-2-2-4.42-4.43-6.06-5.79-3.87-18.17-3-24.84-.79C-1.86,8,4.7,36.17,5.3,36.11S6.57,31.2,6.61,30.45Z"/><path class="cls-9" d="M28.3,6.15C30.61,6,41.9,9.06,41.9,9.06c-8.43,8.39-22.13,14-34,11.8,0,0,5.42-3.46,5-3.12A20.09,20.09,0,0,1,6.25,18.9c-1.59-.2-1.51-.78-1.51-.78C14,9.6,13.74,9.68,28.3,6.15Z"/><path class="cls-10" d="M23.45,28.3a3.86,3.86,0,0,0-1.56-1.18C18,25.71,7.14,26.3,4.25,27c-.37.09-.41.08-.45.33a8,8,0,0,0,.07,2c.12.23.69.32,1.19,1.06.91,1.33.84,6.17,3,8.45s10.7,2.46,13-.69a25.82,25.82,0,0,0,3.07-6.64,1.87,1.87,0,0,1,1.3-.6,4.08,4.08,0,0,1,1.14,0,1.87,1.87,0,0,1,1.3.6A25.53,25.53,0,0,0,31,38.13c2.29,3.15,10.76,3.07,13,.69s2.09-7.12,3-8.45c.5-.74,1.07-.83,1.19-1.06a8,8,0,0,0,.07-2c0-.25-.08-.24-.45-.33-2.89-.72-13.72-1.31-17.64.1a3.86,3.86,0,0,0-1.56,1.18,7.41,7.41,0,0,1-2.55.15,7.41,7.41,0,0,1-2.55-.15Zm20.36-.51h0A1.79,1.79,0,0,1,45.23,29a11.88,11.88,0,0,1,0,4.79,10.52,10.52,0,0,1-1.51,4.07c-2.34,2.91-10.08,2.57-12,.06-1.48-1.93-4-7.67-.92-9.3,2.66-1.4,10.3-1.69,13-.78Zm-35.62,0h0c2.71-.91,10.35-.62,13,.78,3.1,1.63.57,7.37-.92,9.3-1.93,2.51-9.67,2.85-12-.06a10.85,10.85,0,0,1-1.51-4.07,11.88,11.88,0,0,1,0-4.79A1.79,1.79,0,0,1,8.19,27.79Z"/><path class="cls-10" d="M15.07,35.11a1.68,1.68,0,1,0-1.68-1.68A1.68,1.68,0,0,0,15.07,35.11Z"/><path class="cls-10" d="M36.94,35.11a1.68,1.68,0,1,0-1.68-1.68A1.68,1.68,0,0,0,36.94,35.11Z"/><path class="cls-11" d="M34.05,45.67A9.62,9.62,0,0,1,26.46,49a9.62,9.62,0,0,1-7.59-3.28,13.13,13.13,0,0,0,7.51,2.72A13.62,13.62,0,0,0,34.05,45.67Z"/><path class="cls-12" d="M22.63,43.39s0,0,0-.06a.34.34,0,0,1,.14-.24,35.56,35.56,0,0,0,2.66-9.43c.68,0-.67,7.23-1.26,8.94a12.75,12.75,0,0,1,2.08-.16c2,0,3.62.4,3.62.89s-1.62.9-3.62.9S22.74,43.86,22.63,43.39Z"/><path class="cls-9" d="M9.15,24.88c-.54-.92,2.36-1.36,5.3-1.34,4.93,0,7.57,2.45,5.2,2.34C17.88,25.81,9.31,25.15,9.15,24.88Z"/><path class="cls-9" d="M42.68,24.77c.54-.93-2.36-1.37-5.3-1.35-4.93,0-7.57,2.45-5.2,2.35C34,25.69,42.52,25,42.68,24.77Z"/></g></g></svg>