<svg xmlns="http://www.w3.org/2000/svg" viewBox="0 0 55.52 83.43"><defs><style>.cls-1{fill:#4a1e12;}.cls-1,.cls-10,.cls-2,.cls-3,.cls-4,.cls-5,.cls-6,.cls-7,.cls-8,.cls-9{fill-rule:evenodd;}.cls-2{fill:#df2e26;}.cls-3{fill:#f5b67e;}.cls-4{fill:#e53825;}.cls-5{fill:#f6c085;}.cls-6{fill:#f8c997;}.cls-7{fill:#efefef;}.cls-8{fill:#3e3b3a;}.cls-9{fill:#d6825b;}.cls-10{fill:#e5b17d;}</style></defs><title>Asset 6</title><g id="Layer_2" data-name="Layer 2"><g id="OBJECTS"><path class="cls-1" d="M6.78,28.88C6.9,30,9.45,40,8.59,47.23A139.53,139.53,0,0,1,6,61.51c16,3.34,26,1.44,41.52-1,0,0,1-4.73-.88-13.73s2.41-19.27,2.41-19.27Z"/><path class="cls-1" d="M37.37,4.34C68.1-.92,39,46.91,55.24,59.22c2.32,1.75-10.55,9.47-15.35,1.52-3-5,6.83-14.1,7.46-26.93s-3.88-17.24-6.64-22.09A31.2,31.2,0,0,1,37.37,4.34Z"/><path class="cls-1" d="M41.59,6.25c.83,7.27-1.11,8.15-7,12s-8.39,3.88-7.44,3.41,5.46-8.32,5.46-8.32a56.35,56.35,0,0,1-12.27,7.37c-6.18,2.45-8.39,1.5-8.39,1.5s5.46-7.12,4.75-6.57-5.94,4-6.65,5.54-2.24,8.7-1.37,16.54S17.8,60.51,13.13,63.6c-6.28,4.15-14.3-3.53-13-3.86C9.91,57.27,4.68,19.5,5,17.25A20,20,0,0,1,12.73,4.38C20.52-1.82,40.69-1.65,41.59,6.25Z"/><path class="cls-2" d="M37,70.74l10.48-7.91c4.59,1.51,5.92,14.53,6.38,20.6h-11Z"/><path class="cls-3" d="M27.57,54.24H22.73v3c0,1.9-.31,1.51-2.09,2.49a14.45,14.45,0,0,1-2.23,1.57c2.15,6.93,3.71,15.83,7.91,22.08h2.5c4.21-6.25,5.76-15.15,7.91-22.08a14.45,14.45,0,0,1-2.23-1.57c-1.77-1-2.09-.59-2.09-2.49v-3Z"/><path class="cls-2" d="M18.43,70.74,8,62.83C3.36,64.34,2,77.36,1.57,83.43h11Z"/><path class="cls-4" d="M20.64,59.81C18.06,61,9.16,62,8.1,62.94c.86,1.87,6.21,10.83,2.77,20.49H44.53a36,36,0,0,1,3.36-20.37c-1-.91-10.6-1.93-13.18-3.11,3.13,2.43-2.51,9.91-7.14,10.23C22.93,69.85,17.56,62.2,20.64,59.81Z"/><path class="cls-5" d="M13.34,30.37c.81,3.61-.79,6.61-3.52,7.26s-5.56-1.31-6.36-4.91S4.22,25.66,7,25,12.54,26.77,13.34,30.37Z"/><path class="cls-5" d="M42.87,30.37c-.81,3.61.79,6.61,3.52,7.26s5.56-1.31,6.36-4.91S52,25.66,49.26,25,43.67,26.77,42.87,30.37Z"/><path class="cls-6" d="M28.1,1H28L25.2.92v.22h-.3A19.51,19.51,0,0,0,10.2,9.24C6.7,14,6.24,20,6.51,25.68c.71,14.7,9,31.21,21.59,31.34C40.75,56.89,49,40.38,49.69,25.68,50,20,49.51,14,46,9.24a19.53,19.53,0,0,0-14.7-8.09H31V.92L28.17,1Z"/><path class="cls-1" d="M17.82,2.17C18,1.58,26,.45,26.79.41,31.28.13,37.14,1.05,40,2.6s6.69,5.54,7.27,7,.46,1.62-6.69,6.58-17.89,7.24-15.12,6.35,5-5.47,5-5.47-1.9,2.23-11.36,5.58S7.11,25,7.11,25a12.47,12.47,0,0,1-1.37-9.89c1.65-5.44,3-5.86,6.17-9A14.63,14.63,0,0,1,17.82,2.17Z"/><path class="cls-1" d="M37.09,6.72c-.17.81,0,5.14,5,11.77s5.37,7.22,5.37,7.22.15,12.14.21,11.63,2.66-12.59,2.66-12.59a31.27,31.27,0,0,0-.56-10.35c-1.27-5.2-2.87-7.15-5.07-8S37.09,6.72,37.09,6.72Z"/><path class="cls-1" d="M9.34,20.75C8.47,21.73,5.82,24,5.82,24L8.68,37.43Z"/><path class="cls-4" d="M10.24,62.29a7.32,7.32,0,0,0-2.32.77c5.24,10-2.5,13.94.35,20.37H47.94C50.79,77,43.05,73,48.29,63.06A7.42,7.42,0,0,0,46,62.29C44.68,68.9,37.18,74,28.1,74S11.53,68.9,10.24,62.29Z"/><path class="cls-7" d="M27.57,70.18C24.4,70,20.88,66.31,20,63.26c-.42-1.41-.29-2.69.68-3.45l-.06,0c-.2.09-.44.17-.7.26-1.23.53-3.59,1.67-4.37,2.87a1.28,1.28,0,0,0-.24,1c.37,2,3.4,2,3.4,2a7,7,0,0,0,.06,2.28c.43,2.77,1.53,4.24,2.94,4.66C23.38,73.4,25.56,72.35,27.57,70.18Z"/><path class="cls-7" d="M27.57,70.18c3.18-.23,6.69-3.87,7.61-6.92.43-1.41.3-2.72-.68-3.48a7.35,7.35,0,0,0,.77.32c1.23.53,3.59,1.67,4.37,2.87a1.33,1.33,0,0,1,.24,1c-.38,2-3.41,2-3.41,2a6.77,6.77,0,0,1,0,2.28c-.44,2.77-1.54,4.24-3,4.66C31.76,73.4,29.58,72.35,27.57,70.18Z"/><path class="cls-8" d="M27,31.62a3.2,3.2,0,0,1,1.14-.15,3.23,3.23,0,0,1,1.15.15,1.33,1.33,0,0,1,.83,1c.16.6.31,1.2.48,1.79a14.22,14.22,0,0,0,1.4,3.4c1,1.67,2.68,1.9,4.18,2.09a21,21,0,0,0,8.28-.29,4.93,4.93,0,0,0,1.18-.47,3,3,0,0,0,1.31-1.51,21.89,21.89,0,0,0,.81-2.32l.51-1.71a3,3,0,0,1,.48-1,9.6,9.6,0,0,0,.5-.83,1.51,1.51,0,0,0,.16-.63c0-.79.08-1.61.09-2.4,0-2.12-9.69-1.75-10.82-1.7-.52,0-1,.06-1.54.1a25,25,0,0,0-5.36.93A13.85,13.85,0,0,1,28.1,29a13.77,13.77,0,0,1-3.63-.85,25,25,0,0,0-5.36-.93c-.51,0-1-.08-1.54-.1-1.13-.05-10.86-.42-10.82,1.7,0,.79,0,1.61.09,2.4a1.51,1.51,0,0,0,.16.63,9.6,9.6,0,0,0,.5.83,3,3,0,0,1,.48,1l.51,1.71a21.89,21.89,0,0,0,.81,2.32,3,3,0,0,0,1.31,1.51,4.93,4.93,0,0,0,1.18.47,21,21,0,0,0,8.28.29c1.5-.19,3.16-.42,4.18-2.09a14.64,14.64,0,0,0,1.4-3.4c.17-.59.32-1.19.48-1.79a1.33,1.33,0,0,1,.83-1Zm4.23-1.39h0a1.7,1.7,0,0,1,.84-1A14.05,14.05,0,0,1,36.75,28,40.57,40.57,0,0,1,44.62,28a5.67,5.67,0,0,1,2.44.74,1.8,1.8,0,0,1,.54,1.35,20.47,20.47,0,0,1-.46,4.48A11,11,0,0,1,46,37.83a2.8,2.8,0,0,1-1.37,1.07,6.82,6.82,0,0,1-.88.26,17.78,17.78,0,0,1-7.44.15c-.57-.09-1.14-.22-1.7-.35a3,3,0,0,1-2.09-1.54,13.09,13.09,0,0,1-1.33-4.26,10.4,10.4,0,0,1-.15-1.93,3.72,3.72,0,0,1,.14-1Zm-6.17,0h0a3.72,3.72,0,0,1,.14,1A11.33,11.33,0,0,1,25,33.16a13.09,13.09,0,0,1-1.33,4.26A3,3,0,0,1,21.59,39c-.56.13-1.13.26-1.7.35a17.78,17.78,0,0,1-7.44-.15,6.82,6.82,0,0,1-.88-.26,2.8,2.8,0,0,1-1.37-1.07,11,11,0,0,1-1.13-3.28,20.47,20.47,0,0,1-.46-4.48,1.8,1.8,0,0,1,.54-1.35A5.67,5.67,0,0,1,11.59,28a40.58,40.58,0,0,1,7.87.05,14.05,14.05,0,0,1,4.72,1.17A1.7,1.7,0,0,1,25,30.23Z"/><path class="cls-1" d="M11.34,26.63c-1,.41.66-2.28,5.53-2.38,5.68-.13,7.41,2.6,5.17,1.82A15,15,0,0,0,11.34,26.63Z"/><path class="cls-8" d="M17.1,33.73a1.68,1.68,0,0,0,0-3.35,1.68,1.68,0,1,0,0,3.35Z"/><path class="cls-8" d="M39.11,33.73a1.68,1.68,0,1,0-1.67-1.67A1.67,1.67,0,0,0,39.11,33.73Z"/><path class="cls-1" d="M45.85,26.63c1,.41-.66-2.28-5.53-2.38-5.68-.13-7.41,2.6-5.17,1.82A15.05,15.05,0,0,1,45.85,26.63Z"/><path class="cls-9" d="M32.8,46.64a4.46,4.46,0,0,1,.11,1,4.34,4.34,0,1,1-8.67,0,4.46,4.46,0,0,1,.11-1Z"/><path class="cls-10" d="M25,42.43s0,0,0,0a.34.34,0,0,1,.14-.24,35.68,35.68,0,0,0,2.66-9.43c.68,0-.67,7.23-1.26,8.94a12.79,12.79,0,0,1,2.09-.16c2,0,3.62.4,3.62.89s-1.62.9-3.62.9S25.07,42.9,25,42.43Z"/></g></g></svg>