<svg xmlns="http://www.w3.org/2000/svg" viewBox="0 0 52.26 89.76"><defs><style>.cls-1{fill:#bc6b4e;}.cls-1,.cls-10,.cls-2,.cls-3,.cls-4,.cls-5,.cls-6,.cls-7,.cls-8,.cls-9{fill-rule:evenodd;}.cls-2{fill:#f5b67e;}.cls-3{fill:#a3465f;}.cls-4{fill:#f6c085;}.cls-5{fill:#f8c997;}.cls-6{fill:#a95c40;}.cls-7{fill:#3e3b3a;}.cls-8{fill:#e5b17d;}.cls-9{fill:#913e22;}.cls-10{fill:#d6825b;}</style></defs><title>Asset 9</title><g id="Layer_2" data-name="Layer 2"><g id="OBJECTS"><path class="cls-1" d="M27.1,14.54c5,0,9.17-3.26,9.17-7.27S32.15,0,27.1,0s-9.17,3.27-9.17,7.27S22.05,14.54,27.1,14.54Z"/><path class="cls-2" d="M35.4,77.06l10.48-7.91c4.59,1.51,5.92,14.53,6.38,20.61h-11Z"/><path class="cls-2" d="M26,60.56H21.16v3.06c0,1.9-.31,1.5-2.09,2.49a15.17,15.17,0,0,1-2.23,1.57C19,74.6,10.1,83.51,14.31,89.76h23.1c4.2-6.25-3.14-15-2.25-22.08a15.17,15.17,0,0,1-2.23-1.57c-1.78-1-2.09-.59-2.09-2.49V60.56Z"/><path class="cls-2" d="M16.86,77.06,6.38,69.15C1.79,70.66.47,83.68,0,89.76H11Z"/><path class="cls-3" d="M19.07,66.11c-3.18,1.45-11.31,1.66-13.15,3.24a55,55,0,0,1,1.75,8.78C7,82.49,4.46,85.62,6.3,89.76H46c1.84-4.14-.71-7.27-1.37-11.63a55.22,55.22,0,0,1,1.75-8.79c-1.26-1.09-12.15-2.66-13.41-3.23C41.12,90.66,9.75,89.76,19.07,66.11Z"/><path class="cls-4" d="M11.77,38.54c.8,3.61-.79,6.61-3.52,7.26s-5.56-1.31-6.36-4.91.76-7.06,3.49-7.71S11,34.94,11.77,38.54Z"/><path class="cls-4" d="M41.29,38.54c-.8,3.61.8,6.61,3.53,7.26s5.56-1.31,6.36-4.91-.76-7.06-3.49-7.71S42.1,34.94,41.29,38.54Z"/><path class="cls-5" d="M26.53,7.35h-.06l-2.85-.11v.22l-.3,0A19.52,19.52,0,0,0,8.62,15.56C5.13,20.3,4.67,26.28,4.94,32c.71,14.71,9,31.22,21.59,31.34C39.18,63.22,47.42,46.71,48.12,32c.28-5.72-.19-11.7-3.68-16.44a19.52,19.52,0,0,0-14.7-8.08l-.3,0V7.24l-2.84.11Z"/><path class="cls-6" d="M36.1,13.53c-.17.81,0,5.14,5,11.77s5.36,7.22,5.36,7.22,0,10.51,0,10S48.73,32,48.73,32a26.57,26.57,0,0,0,0-10.75c-1.27-5.2-2.87-7.15-5.07-8S36.1,13.53,36.1,13.53Z"/><path class="cls-6" d="M7.76,27.07c-.86,1-3,6.3-3,6.3l1.86,9.09Z"/><path class="cls-6" d="M46.43,32.52c.23-3.79,1.59-12.94.64-15.3C44.32,10.41,39.28,7.65,30.83,6.8a25.86,25.86,0,0,0-4.76,0C30.92,14.78,35.6,25.9,46.43,32.52Z"/><path class="cls-6" d="M37.7,15.11C36,25.8,13.43,22.35,6,35.21,4.43,37.94-2.15,6.93,26.64,6.73Z"/><path class="cls-7" d="M16.6,41.63A1.67,1.67,0,1,0,14.93,40,1.67,1.67,0,0,0,16.6,41.63Z"/><path class="cls-7" d="M36.47,41.63A1.67,1.67,0,1,0,34.8,40,1.67,1.67,0,0,0,36.47,41.63Z"/><path class="cls-8" d="M22.85,48.44s0,0,0,0a.33.33,0,0,1,.13-.25,35.58,35.58,0,0,0,2.66-9.42c.68,0-.67,7.22-1.25,8.94a11.58,11.58,0,0,1,2.08-.17c2,0,3.62.4,3.62.9s-1.62.89-3.62.89S23,48.91,22.85,48.44Z"/><path class="cls-9" d="M30.48,35.67c-1,.42.65-2.27,5.53-2.38,5.68-.12,7.4,2.61,5.17,1.83A15,15,0,0,0,30.48,35.67Z"/><path class="cls-9" d="M22.59,35.67c1,.41-.66-2.27-5.53-2.38-5.68-.12-7.41,2.61-5.17,1.83A15,15,0,0,1,22.59,35.67Z"/><path class="cls-10" d="M30.58,53.33c-.74,4.19-7.49,4.19-8.24,0A24.73,24.73,0,0,0,30.58,53.33Z"/></g></g></svg>