<svg xmlns="http://www.w3.org/2000/svg" viewBox="0 0 52.01 84.79"><defs><style>.cls-1{fill:#9b5538;}.cls-1,.cls-10,.cls-11,.cls-2,.cls-3,.cls-4,.cls-5,.cls-6,.cls-7,.cls-8,.cls-9{fill-rule:evenodd;}.cls-2{fill:#f5b67e;}.cls-3{fill:#a95c40;}.cls-4{fill:#934d33;}.cls-5{fill:#f6c085;}.cls-6{fill:#f8c997;}.cls-7{fill:#bf9141;}.cls-8{fill:#3e3b3a;}.cls-9{fill:#d6825b;}.cls-10{fill:#e5b17d;}.cls-11{fill:#d97b5a;}</style></defs><title>Asset 10</title><g id="Layer_2" data-name="Layer 2"><g id="OBJECTS"><path class="cls-1" d="M16.86,72.1c-.46-.35-10.77-5.2-10.77-5.2C1.5,68.41.47,78.72,0,84.79H11Z"/><path class="cls-1" d="M35.14,72.1c.46-.35,10.77-5.2,10.77-5.2C50.5,68.41,51.53,78.72,52,84.79H41Z"/><path class="cls-2" d="M26,55.6H21.16v3c0,1.9-.31,1.51-2.09,2.49a14.45,14.45,0,0,1-2.23,1.57c2.15,6.93,3.71,15.83,7.91,22.08h2.5c4.2-6.25,5.76-15.15,7.91-22.08a14.45,14.45,0,0,1-2.23-1.57c-1.78-1-2.09-.59-2.09-2.49v-3Z"/><path class="cls-3" d="M19.07,61.17c-2.58,1.17-12,4.86-13,5.77.85,1.87,2.15,9.57,3.27,17.85H42.7c1.12-8.28,2.42-16,3.27-17.85-1-.91-10.46-4.6-13-5.77C36.23,63.73,27.79,70.86,26,73l-3.58-4C22.15,68.3,16,63.59,19.07,61.17Z"/><polygon class="cls-4" points="25.22 72.63 26 73.01 26.78 72.63 26.78 84.79 25.22 84.79 25.22 72.63"/><path class="cls-5" d="M39,33.49a6.1,6.1,0,0,0,5.22,7.25c3.57.65,7-1.3,7.72-4.91a6.52,6.52,0,0,0-5.21-7.7A6.69,6.69,0,0,0,39,33.49Z"/><path class="cls-5" d="M14,33.49A6.1,6.1,0,0,1,8.8,40.74c-3.57.65-7-1.3-7.72-4.91a6.52,6.52,0,0,1,5.21-7.7A6.69,6.69,0,0,1,14,33.49Z"/><path class="cls-6" d="M44.32,10.59A19.52,19.52,0,0,0,29.61,2.51h-.3V2.27l-2.85.12-2.85-.12V2.5h-.3A19.52,19.52,0,0,0,8.62,10.59C5.13,15.34,4.67,21.32,4.94,27c.71,14.7,2,31.17,21.59,31.33S47.29,41.64,48,27C48.27,21.32,47.81,15.34,44.32,10.59Z"/><path class="cls-7" d="M47.5,34.76c0-.57,3.07-15.77,2.33-22.24s-5-6.78-5.89-6.91a4.25,4.25,0,0,1-1.38-.39s-3.78-3-11.33-4.83S13,4.17,7.16,1C4.36,3.92,6,9.64,6,9.64a4.76,4.76,0,0,0-2.67,3.68c-.55,2.9,2.15,21.56,2.15,21.56S6.64,20.49,8.39,18.47c0,0,12.45,2.28,35-6.25C47.93,10.49,46.35,29.3,47.5,34.76Z"/><path class="cls-8" d="M15.54,37.23a1.68,1.68,0,1,0-1.68-1.67A1.67,1.67,0,0,0,15.54,37.23Z"/><path class="cls-8" d="M37.41,37.23a1.68,1.68,0,1,0-1.68-1.67A1.67,1.67,0,0,0,37.41,37.23Z"/><path class="cls-7" d="M10.22,30.37c-.54-.93,2.36-1.37,5.3-1.35,4.93,0,7.57,2.45,5.2,2.35C19,31.29,10.38,30.64,10.22,30.37Z"/><path class="cls-7" d="M42.72,30.58c.56-.92-2.33-1.41-5.27-1.45-4.93-.06-7.62,2.3-5.25,2.24C34,31.33,42.55,30.85,42.72,30.58Z"/><path class="cls-9" d="M32.82,47c-1,5.74-10.29,5.74-11.31,0C24.58,51.06,29.75,51.06,32.82,47Z"/><path class="cls-10" d="M23.39,44s0,0,0,0a.34.34,0,0,1,.14-.25,35.56,35.56,0,0,0,2.66-9.43c.68,0-.67,7.23-1.26,8.94A12.75,12.75,0,0,1,27,43c2,0,3.62.4,3.62.9s-1.62.89-3.62.89S23.5,44.45,23.39,44Z"/><path class="cls-11" d="M16.79,66.87C20.58,71.68,26.21,73.33,26,73s-5.55-7.67-5.95-9.69a3.4,3.4,0,0,1,.82-3.14c.42-.49.29-1.58.29-2.3C15.56,57.7,13,62.06,16.79,66.87Z"/><path class="cls-11" d="M35.22,66.87C31.42,71.68,25.79,73.33,26,73s5.55-7.67,6-9.69a3.42,3.42,0,0,0-.83-3.14c-.42-.49-.29-1.58-.29-2.3C36.44,57.7,39,62.06,35.22,66.87Z"/></g></g></svg>