<!-- Generated by IcoMoon.io -->
<svg version="1.1" xmlns="http://www.w3.org/2000/svg" width="32" height="32" viewBox="0 0 32 32">
<title>about-us</title>
<path fill="#53c7f0" d="M17.094 12.285c0.002 0.001 0.004 0.001 0.006 0.002 1.915 0.622 3.972-0.426 4.594-2.341s-0.426-3.972-2.341-4.594c-1.915-0.622-3.972 0.426-4.594 2.341-0 0-0 0-0 0.001v-0c-0 0-0 0.001-0 0.001-0.621 1.912 0.424 3.966 2.335 4.59l0 0z"></path>
<path fill="#53c7f0" d="M19.682 13.735l-5.558-1.806c-0.994-0.323-2.104 0.324-2.467 1.441l-1.814 5.583c-0.020 0.061-0.006 0.126-0.024 0.191l9.1 2.957c0.027-0.044 0.059-0.101 0.087-0.16l0.004-0.009 1.814-5.583c0.367-1.116-0.151-2.292-1.143-2.614z"></path>
<path fill="#87e0ff" d="M25.863 16.985c0.002 0.001 0.004 0.001 0.006 0.002 1.535 0.499 3.183-0.341 3.682-1.876s-0.341-3.183-1.876-3.682c-1.535-0.499-3.183 0.341-3.682 1.876-0 0-0 0.001-0 0.001l0-0c-0 0.001-0.001 0.002-0.001 0.003-0.498 1.532 0.34 3.177 1.872 3.676l0 0z"></path>
<path fill="#87e0ff" d="M27.938 18.148l-4.454-1.447c-0.799-0.26-1.69 0.258-1.982 1.157l-1.453 4.473c-0.016 0.048-0.007 0.101-0.021 0.155l7.299 2.372c0.020-0.051 0.058-0.090 0.073-0.138l1.453-4.473c0.296-0.898-0.118-1.839-0.916-2.099z"></path>
<path fill="#87e0ff" d="M7.239 10.884c0.001 0 0.003 0.001 0.004 0.001 1.535 0.499 3.183-0.341 3.682-1.876s-0.341-3.183-1.876-3.682c-1.535-0.499-3.183 0.341-3.682 1.876-0 0-0 0.001-0 0.001l0-0c-0 0.001-0.001 0.002-0.001 0.003-0.498 1.532 0.34 3.178 1.873 3.677h0z"></path>
<path fill="#87e0ff" d="M9.314 12.049l-4.458-1.448c-0.797-0.259-1.685 0.259-1.977 1.158l-1.453 4.473c-0.016 0.048-0.007 0.101-0.020 0.155l7.299 2.372c0.020-0.051 0.056-0.090 0.072-0.138l1.453-4.473c0.294-0.898-0.12-1.84-0.916-2.099z"></path>
</svg>
