<svg xmlns="http://www.w3.org/2000/svg" xmlns:xlink="http://www.w3.org/1999/xlink" viewBox="0 0 730.51 545.8"><defs><style>.cls-1{fill:url(#linear-gradient);}.cls-2{fill:url(#Degradado_sin_nombre_5);}.cls-3{fill:url(#Degradado_sin_nombre_5-2);}.cls-4{fill:url(#Degradado_sin_nombre_5-3);}.cls-5{fill:url(#Degradado_sin_nombre_5-4);}.cls-6{fill:url(#Degradado_sin_nombre_5-5);}.cls-7{fill:url(#Degradado_sin_nombre_5-6);}.cls-8{fill:url(#Degradado_sin_nombre_5-7);}.cls-9{fill:url(#Degradado_sin_nombre_5-8);}</style><linearGradient id="linear-gradient" x1="-10.89" y1="581.24" x2="822.46" y2="-52.28" gradientUnits="userSpaceOnUse"><stop offset="0" stop-color="#e0f5fc"/><stop offset="0.99" stop-color="#d0f0fb"/></linearGradient><linearGradient id="Degradado_sin_nombre_5" x1="88.72" y1="211.59" x2="192.39" y2="211.59" gradientUnits="userSpaceOnUse"><stop offset="0" stop-color="#fac739"/><stop offset="1" stop-color="#fb0d6a"/></linearGradient><linearGradient id="Degradado_sin_nombre_5-2" x1="87.9" y1="210.89" x2="158.3" y2="210.89" xlink:href="#Degradado_sin_nombre_5"/><linearGradient id="Degradado_sin_nombre_5-3" x1="418.96" y1="442.82" x2="522.62" y2="442.82" xlink:href="#Degradado_sin_nombre_5"/><linearGradient id="Degradado_sin_nombre_5-4" x1="430" y1="442.12" x2="492.4" y2="442.12" xlink:href="#Degradado_sin_nombre_5"/><linearGradient id="Degradado_sin_nombre_5-5" x1="390.2" y1="449.32" x2="493.86" y2="449.32" xlink:href="#Degradado_sin_nombre_5"/><linearGradient id="Degradado_sin_nombre_5-6" x1="389.38" y1="448.61" x2="459.78" y2="448.61" xlink:href="#Degradado_sin_nombre_5"/><linearGradient id="Degradado_sin_nombre_5-7" x1="420.07" y1="213.69" x2="523.73" y2="213.69" xlink:href="#Degradado_sin_nombre_5"/><linearGradient id="Degradado_sin_nombre_5-8" x1="429.92" y1="212.99" x2="493.12" y2="212.99" xlink:href="#Degradado_sin_nombre_5"/></defs><title>Asset 5</title><g id="Layer_2" data-name="Layer 2"><g id="OBJECTS"><path class="cls-1" d="M663.89,37.3a27.41,27.41,0,1,1,25.32,29.25A27.36,27.36,0,0,1,663.89,37.3ZM326.42,33.38a16.71,16.71,0,1,0-15.51-17.9A16.75,16.75,0,0,0,326.42,33.38ZM32.35,298.27a17.37,17.37,0,1,0,16.12,18.6A17.41,17.41,0,0,0,32.35,298.27Zm688.78,40.81c5.3-6.69,5.89-15.57.92-21.31a14.17,14.17,0,0,0-7.59-4.49c-7.38-1.72-13.53-6.87-15.73-14.12-.35-1.14-.61-2.18-.81-3.13l23.3-20a26.67,26.67,0,0,0-8.55-45.37c-13-4.57-21.41-17.26-19.52-30.93.16-1.17.34-2.24.53-3.19a32.94,32.94,0,0,0-6-32.3,32.45,32.45,0,0,0-4.46-4.25c-12.8-10-19.87-25.71-17.84-41.85,0-.36.09-.72.14-1.08a39.64,39.64,0,0,0,3.95-22.58c.2-.91.32-1.42.32-1.42l-.46.36a32.79,32.79,0,0,0-7.58-16.35c-13.17-15.2-37.88-15.46-55.19-.59L590.63,90.13A28.59,28.59,0,0,1,549.2,85.8l-.13-.16a27,27,0,0,0-6-11.93c-10.88-12.56-31.31-12.78-45.61-.48l-53.4,45.88a18.77,18.77,0,0,1-29.79-7.49l-.06-.19a29,29,0,0,0-2.64-11.69h0a28.17,28.17,0,0,0-4.27-6.63c-10.88-12.57-30.73-13.28-44.32-1.6l-11.56,9.92a15.87,15.87,0,0,1-25.79-8.38,25,25,0,0,1-.58-3.53.19.19,0,0,0,0-.08,20.82,20.82,0,0,0-9.3-12.57,37.46,37.46,0,0,1-10-8.45c-9.12-11.41-8.07-21.93-8.07-21.93v0a16.53,16.53,0,0,0-3.92-12.72,16.72,16.72,0,0,0-23.5-1.73L90.3,186.59A16.55,16.55,0,0,0,94,214.09a11.33,11.33,0,0,1,1.91,1.11c.12.08.23.17.34.26a19.3,19.3,0,0,1,.93,30.08l-31.56,27.1a23,23,0,0,0-1.8,1.75c-9.05,9.87-4.53,25.81,8.08,30.3A105.06,105.06,0,0,1,82.22,309l.12,0a12.79,12.79,0,0,1,2.79,21.22l-73.3,63C-1.77,404.9-4,424.55,6.92,437.12s30.73,13.27,44.32,1.6L109,389.13l.16.09a16.44,16.44,0,0,1,7.29,19c-2.9,9.7-1.3,20,5.26,27.59a27.39,27.39,0,0,0,13.39,8.41,46.86,46.86,0,0,1,17.27,8.62,53.19,53.19,0,0,1,7.49,7.43l-.46.39c-17.3,14.87-20.66,39.25-7.49,54.45s37.88,15.46,55.19.58l41.37-35.55a14.2,14.2,0,0,1,3.87,17.68,34,34,0,0,0-1.79,26.38c-1.1,1.58-1.86,2.48-1.86,2.48l2.09-1.86a32,32,0,0,0,5.78,9.71c12.08,14,33.74,15.07,48.38,2.49l62.82-54a13.41,13.41,0,0,1,22.14,10.17h0a26.57,26.57,0,0,0,4,28.62,26.88,26.88,0,0,0,37.81,2.79l33.86-29.08a13.05,13.05,0,0,1,21.14,6.56l0,.17c-2.07,5.53-1.45,11.52,2.23,15.77,5.79,6.67,16.89,6.56,24.8-.24L718.19,342.17l.48-.45"/><path class="cls-2" d="M192.13,210.91a9.28,9.28,0,0,0,.22,1.37A7.83,7.83,0,0,0,192.13,210.91Z"/><path class="cls-3" d="M192.24,210.87h0v0Z"/><path class="cls-4" d="M522.37,442.13a9.09,9.09,0,0,0,.22,1.37A8,8,0,0,0,522.37,442.13Z"/><path class="cls-5" d="M522.48,442.1h0v0Z"/><path class="cls-6" d="M493.61,448.63a9.09,9.09,0,0,0,.22,1.37A8,8,0,0,0,493.61,448.63Z"/><path class="cls-7" d="M493.72,448.59h0v0Z"/><path class="cls-8" d="M523.48,213a9.28,9.28,0,0,0,.22,1.37A9.09,9.09,0,0,0,523.48,213Z"/><path class="cls-9" d="M523.59,213h0a0,0,0,0,1,0,0Z"/></g></g></svg>