<!-- Generated by IcoMoon.io -->
<svg version="1.1" xmlns="http://www.w3.org/2000/svg" width="32" height="32" viewBox="0 0 32 32">
<title>contact</title>
<path fill="#87e0ff" d="M31.199 10.671l-9.869-9.87c-0.496-0.495-1.181-0.801-1.937-0.801s-1.441 0.306-1.937 0.801l-15.402 15.402c-0.495 0.496-0.801 1.181-0.801 1.937s0.306 1.441 0.801 1.937l2.476 2.476-2.719 2.719c-0.113 0.113-0.183 0.269-0.183 0.442 0 0.345 0.28 0.625 0.625 0.625 0.173 0 0.329-0.070 0.442-0.183l2.719-2.72 1.133 1.133-6.362 6.363c-0.107 0.112-0.173 0.264-0.173 0.432 0 0.345 0.28 0.625 0.625 0.625 0.168 0 0.32-0.066 0.432-0.173l6.362-6.362 4.493 4.493c0.496 0.495 1.181 0.801 1.937 0.801s1.441-0.306 1.937-0.801l15.402-15.402c0.496-0.496 0.803-1.181 0.803-1.937s-0.307-1.441-0.802-1.937v0zM13.405 29.428c-0.235-0.076-0.436-0.201-0.599-0.364l-9.869-9.87c-0.269-0.269-0.435-0.641-0.435-1.052 0-0.138 0.019-0.272 0.054-0.398l-0.002 0.010h10.852zM11.146 16.504l1.853-1.853c0.113-0.113 0.183-0.269 0.183-0.442 0-0.345-0.28-0.625-0.625-0.625-0.173 0-0.329 0.070-0.442 0.183l-2.737 2.737h-1.822l5.651-5.65c0.11-0.112 0.177-0.266 0.177-0.436 0-0.345-0.28-0.625-0.625-0.625-0.17 0-0.323 0.068-0.436 0.177l-6.534 6.534h-2.27l14.236-14.236v12.746c-0.001 0.822-0.667 1.489-1.49 1.49h-0zM30.315 13.661l-15.402 15.403c-0.076 0.076-0.16 0.143-0.251 0.201l-0.006 0.004v-11.514h1.611c1.512-0.002 2.738-1.227 2.74-2.74v-1.611h7.164l-3.617 3.617c-0.11 0.112-0.177 0.266-0.177 0.436 0 0.345 0.28 0.625 0.625 0.625 0.17 0 0.323-0.068 0.436-0.177l4.5-4.5h2.584c-0.062 0.097-0.13 0.181-0.206 0.257l-0 0zM19.006 12.154v-10.852c0.116-0.033 0.25-0.051 0.388-0.051 0.411 0 0.783 0.166 1.052 0.435l9.869 9.87c0.164 0.163 0.289 0.364 0.363 0.589l0.003 0.010z"></path>
<path fill="#53c7f0" d="M14.738 8.44c-0.113-0.113-0.269-0.183-0.442-0.183-0.345 0-0.625 0.28-0.625 0.625s0.28 0.625 0.625 0.625c0.345 0 0.625-0.28 0.625-0.625 0-0 0-0 0-0v0c-0-0.172-0.070-0.329-0.183-0.442v0z"></path>
<path fill="#53c7f0" d="M1.069 26.897c-0.113-0.113-0.269-0.183-0.442-0.183s-0.329 0.070-0.442 0.183v0c-0.113 0.113-0.183 0.269-0.183 0.442 0 0.345 0.28 0.625 0.625 0.625h0c0.345-0 0.625-0.28 0.625-0.625 0-0.173-0.070-0.329-0.183-0.442v0z"></path>
<path fill="#87e0ff" d="M7.939 28.094c-0.113-0.113-0.269-0.183-0.442-0.183s-0.329 0.070-0.442 0.183l-2.839 2.839c-0.109 0.112-0.177 0.266-0.177 0.436 0 0.345 0.28 0.625 0.625 0.625 0.17 0 0.323-0.068 0.436-0.177l2.838-2.838c0.113-0.113 0.183-0.27 0.183-0.442s-0.070-0.329-0.183-0.442v0z"></path>
</svg>
