<!-- Generated by IcoMoon.io -->
<svg version="1.1" xmlns="http://www.w3.org/2000/svg" width="32" height="32" viewBox="0 0 32 32">
<title>facebook</title>
<path fill="#53c7f0" d="M31.999 16c0 8.836-7.163 16-16 16s-16-7.163-16-16c0-8.836 7.163-16 16-16s16 7.163 16 16z"></path>
<path fill="#fff" d="M20.023 16.626h-2.855v10.459h-4.325v-10.459h-2.058v-3.676h2.057v-2.379c0-1.701 0.807-4.364 4.364-4.364l3.204 0.013v3.568h-2.324c-0.014-0.001-0.029-0.001-0.045-0.001-0.486 0-0.881 0.394-0.881 0.881 0 0.043 0.003 0.086 0.009 0.127l-0.001-0.005v2.163h3.232z"></path>
</svg>
