<!-- Generated by IcoMoon.io -->
<svg version="1.1" xmlns="http://www.w3.org/2000/svg" width="32" height="32" viewBox="0 0 32 32">
<title>instagram</title>
<path fill="#53c7f0" d="M20.769 8.513h-9.538c-1.524 0.002-2.759 1.237-2.761 2.76v9.538c0.002 1.524 1.237 2.759 2.76 2.761h9.538c1.524-0.002 2.759-1.237 2.761-2.761v-9.538c-0.002-1.524-1.237-2.759-2.761-2.761h-0zM16 21c-2.738 0-4.958-2.22-4.958-4.958s2.22-4.958 4.958-4.958c2.738 0 4.958 2.22 4.958 4.958v0c-0.003 2.737-2.221 4.954-4.957 4.958h-0zM21.114 12.11c-0.648 0-1.173-0.525-1.173-1.173s0.525-1.173 1.173-1.173c0.648 0 1.173 0.525 1.173 1.173v0c-0.001 0.646-0.524 1.171-1.17 1.173h-0z"></path>
<path fill="#53c7f0" d="M16 13.181c-1.581 0-2.862 1.282-2.862 2.862s1.282 2.862 2.862 2.862c1.581 0 2.862-1.282 2.862-2.862 0-0.001 0-0.002 0-0.003v0c-0.004-1.579-1.283-2.857-2.862-2.86h-0z"></path>
<path fill="#53c7f0" d="M16 0c-8.837 0-16 7.163-16 16s7.163 16 16 16c8.837 0 16-7.163 16-16v0c-0.002-8.836-7.164-15.998-16-16h-0zM25.626 20.812c-0.003 2.681-2.175 4.853-4.856 4.856h-9.54c-2.681-0.003-4.853-2.175-4.856-4.856v-9.539c0.003-2.681 2.175-4.853 4.856-4.856h9.538c2.682 0.002 4.855 2.174 4.858 4.856v0z"></path>
</svg>
