<!-- Generated by IcoMoon.io -->
<svg version="1.1" xmlns="http://www.w3.org/2000/svg" width="32" height="32" viewBox="0 0 32 32">
<title>like</title>
<path fill="#c03a2b" d="M15.904 6.481c1.274-3.055 4.223-5.17 7.67-5.201l0.004-0c4.623 0 7.952 3.955 8.371 8.668 0.033 0.282 0.051 0.608 0.051 0.939 0 0.832-0.118 1.637-0.338 2.398l0.015-0.061c-0.735 2.942-2.288 5.452-4.402 7.348l-0.014 0.012-11.357 10.136-11.168-10.134c-2.128-1.908-3.681-4.418-4.395-7.26l-0.021-0.1c-0.204-0.699-0.321-1.501-0.321-2.331 0-0.334 0.019-0.663 0.056-0.987l-0.004 0.040c0.419-4.713 3.748-8.668 8.371-8.668 3.398 0.038 6.29 2.16 7.463 5.146l0.019 0.055z"></path>
<path fill="#ed7161" d="M3.84 11.57c-0.353 0-0.64-0.287-0.64-0.64v0c0.004-3.533 2.867-6.396 6.4-6.4h0c0.353 0 0.64 0.287 0.64 0.64s-0.287 0.64-0.64 0.64v0c-2.826 0.003-5.117 2.294-5.12 5.12v0c0 0.353-0.287 0.64-0.64 0.64v0z"></path>
</svg>
