<svg xmlns="http://www.w3.org/2000/svg" xmlns:xlink="http://www.w3.org/1999/xlink" viewBox="0 0 730.51 574.18"><defs><style>.cls-1{fill:none;}.cls-2{fill:url(#Degradado_sin_nombre_5);}.cls-3{fill:url(#Degradado_sin_nombre_5-2);}.cls-4{fill:url(#linear-gradient);}.cls-5{clip-path:url(#clip-path);}.cls-6{fill:#1e90ff;}.cls-7{fill:#53c7f0;}.cls-8{fill:#929497;opacity:0.3;isolation:isolate;}.cls-9{fill:#fc9;}.cls-10{fill:#fcd19d;}.cls-11{fill:#331f17;}.cls-12{fill:#e2e2e2;}.cls-13{fill:#3c5267;}.cls-14{fill:#ccc;}.cls-15{fill:#e5e6e7;}.cls-16{fill:#cfd1d2;}.cls-17{fill:#babcbe;}.cls-18{fill:#f0f1f1;}.cls-19{fill:#ffdaa6;}.cls-20{fill:#fbe1bf;}.cls-21{fill:url(#Degradado_sin_nombre_5-3);}.cls-22{fill:url(#Degradado_sin_nombre_5-4);}.cls-23{fill:url(#Degradado_sin_nombre_5-5);}.cls-24{fill:url(#Degradado_sin_nombre_5-6);}.cls-25{fill:url(#Degradado_sin_nombre_5-7);}.cls-26{fill:url(#Degradado_sin_nombre_5-8);}.cls-27{fill:url(#Degradado_sin_nombre_5-9);}.cls-28{fill:url(#Degradado_sin_nombre_5-10);}</style><linearGradient id="Degradado_sin_nombre_5" x1="428.89" y1="0.72" x2="533.02" y2="0.72" gradientUnits="userSpaceOnUse"><stop offset="0" stop-color="#fac739"/><stop offset="1" stop-color="#fb0d6a"/></linearGradient><linearGradient id="Degradado_sin_nombre_5-2" x1="416.68" y1="0.02" x2="495.08" y2="0.02" xlink:href="#Degradado_sin_nombre_5"/><linearGradient id="linear-gradient" x1="-10.89" y1="609.62" x2="822.46" y2="-23.9" gradientUnits="userSpaceOnUse"><stop offset="0" stop-color="#e0f5fc"/><stop offset="0.99" stop-color="#d0f0fb"/></linearGradient><clipPath id="clip-path"><circle class="cls-1" cx="410.69" cy="326.6" r="158.06"/></clipPath><linearGradient id="Degradado_sin_nombre_5-3" x1="88.72" y1="239.97" x2="192.39" y2="239.97" xlink:href="#Degradado_sin_nombre_5"/><linearGradient id="Degradado_sin_nombre_5-4" x1="87.9" y1="239.27" x2="158.3" y2="239.27" xlink:href="#Degradado_sin_nombre_5"/><linearGradient id="Degradado_sin_nombre_5-5" x1="418.96" y1="471.2" x2="522.62" y2="471.2" xlink:href="#Degradado_sin_nombre_5"/><linearGradient id="Degradado_sin_nombre_5-6" x1="430" y1="470.5" x2="492.4" y2="470.5" xlink:href="#Degradado_sin_nombre_5"/><linearGradient id="Degradado_sin_nombre_5-7" x1="390.2" y1="477.7" x2="493.86" y2="477.7" xlink:href="#Degradado_sin_nombre_5"/><linearGradient id="Degradado_sin_nombre_5-8" x1="389.38" y1="477" x2="459.78" y2="477" xlink:href="#Degradado_sin_nombre_5"/><linearGradient id="Degradado_sin_nombre_5-9" x1="420.07" y1="242.07" x2="523.73" y2="242.07" xlink:href="#Degradado_sin_nombre_5"/><linearGradient id="Degradado_sin_nombre_5-10" x1="429.92" y1="241.37" x2="493.12" y2="241.37" xlink:href="#Degradado_sin_nombre_5"/></defs><title>Asset 3</title><g id="Layer_2" data-name="Layer 2"><g id="OBJECTS"><path class="cls-2" d="M532.77,0A9.28,9.28,0,0,0,533,1.41,9.09,9.09,0,0,0,532.77,0Z"/><path class="cls-3" d="M532.88,0h0V0Z"/><path class="cls-4" d="M663.89,65.69a27.41,27.41,0,1,1,25.32,29.24A27.35,27.35,0,0,1,663.89,65.69ZM326.42,61.76a16.71,16.71,0,1,0-15.51-17.9A16.74,16.74,0,0,0,326.42,61.76ZM32.35,326.65a17.37,17.37,0,1,0,16.12,18.6A17.41,17.41,0,0,0,32.35,326.65Zm688.78,40.82c5.3-6.7,5.89-15.58.92-21.31a14.18,14.18,0,0,0-7.59-4.5c-7.38-1.72-13.53-6.87-15.73-14.12-.35-1.13-.61-2.17-.81-3.13l23.3-20A26.66,26.66,0,0,0,712.67,259c-13-4.58-21.41-17.26-19.52-30.94.16-1.17.34-2.24.53-3.19a32.94,32.94,0,0,0-6-32.3,32.45,32.45,0,0,0-4.46-4.25c-12.8-10-19.87-25.71-17.84-41.85,0-.36.09-.72.14-1.08a39.63,39.63,0,0,0,3.95-22.58c.2-.91.32-1.42.32-1.42l-.46.36a32.83,32.83,0,0,0-7.58-16.35c-13.17-15.2-37.88-15.46-55.19-.59l-15.89,13.66a28.58,28.58,0,0,1-41.43-4.33l-.13-.16a27,27,0,0,0-6-11.93c-10.88-12.56-31.31-12.77-45.61-.48l-53.4,45.88A18.77,18.77,0,0,1,414.31,140l-.06-.18a29,29,0,0,0-2.64-11.69h0a28,28,0,0,0-4.27-6.63c-10.88-12.57-30.73-13.29-44.32-1.61l-11.56,9.93a15.87,15.87,0,0,1-25.79-8.39,24.75,24.75,0,0,1-.58-3.53.24.24,0,0,0,0-.08,20.75,20.75,0,0,0-9.3-12.56,37.83,37.83,0,0,1-10-8.45c-9.12-11.42-8.07-21.93-8.07-21.93h0a16.54,16.54,0,0,0-3.92-12.72,16.72,16.72,0,0,0-23.5-1.73L90.3,215A16.55,16.55,0,0,0,94,242.47a11.33,11.33,0,0,1,1.91,1.11l.34.26a19.3,19.3,0,0,1,.93,30.08L65.57,301a23,23,0,0,0-1.8,1.75c-9.05,9.87-4.53,25.81,8.08,30.31a105.15,105.15,0,0,1,10.37,4.28l.12.05a12.79,12.79,0,0,1,2.79,21.22l-73.3,63C-1.77,433.29-4,452.94,6.92,465.5s30.73,13.28,44.32,1.6L109,417.51l.16.09a16.44,16.44,0,0,1,7.29,19c-2.9,9.7-1.3,20,5.26,27.59a27.39,27.39,0,0,0,13.39,8.41,47,47,0,0,1,17.27,8.62,54.28,54.28,0,0,1,7.49,7.43l-.46.4c-17.3,14.87-20.66,39.25-7.49,54.44s37.88,15.46,55.19.59l41.37-35.56a14.22,14.22,0,0,1,3.87,17.69,34,34,0,0,0-1.79,26.37c-1.1,1.58-1.86,2.48-1.86,2.48l2.09-1.85a32,32,0,0,0,5.78,9.7c12.08,13.95,33.74,15.07,48.38,2.5l62.82-54a13.4,13.4,0,0,1,22.14,10.16h0a26.57,26.57,0,0,0,4,28.62,26.88,26.88,0,0,0,37.81,2.79L465.56,524a13,13,0,0,1,21.14,6.55l0,.17c-2.07,5.54-1.45,11.52,2.23,15.77,5.79,6.67,16.89,6.57,24.8-.24L718.19,370.55l.48-.45"/><g class="cls-5"><g id="news1"><g id="news_paper1" data-name="news paper1"><g id="Layer_1-2" data-name="Layer 1"><rect id="Rectangle_1" data-name="Rectangle 1" class="cls-6" x="252.63" y="168.54" width="316.13" height="316.13"/><rect id="Rectangle_2" data-name="Rectangle 2" class="cls-7" x="252.63" y="431.32" width="316.13" height="53.35"/></g><g id="Layer_2-2" data-name="Layer 2"><path id="Path_1" data-name="Path 1" class="cls-8" d="M368.65,246.62l-91,91-11.8,1.66-13.24,13.55V484.67H476.69l22.12-22.26Z"/><path id="Path_2" data-name="Path 2" class="cls-9" d="M405.67,248.45v86.4L386,324.92V311.41a34.82,34.82,0,0,1-7.42-18.86s-3.72-.8-5.68-8.95-3.28-14.2,3.6-13.4L381,242.1Z"/><path id="Path_3" data-name="Path 3" class="cls-10" d="M405.67,248.45v86.4l19.64-9.93V311.41a34.79,34.79,0,0,0,7.43-18.86s3.71-.8,5.68-8.95,3.28-14.2-3.6-13.4l-4.48-28.1Z"/><path id="Path_4" data-name="Path 4" class="cls-11" d="M383.86,247.5a80.22,80.22,0,0,0,24.46,7.35c14.41,2,20.94,4.57,20.94,4.57s4.15,11.51,3.72,18.07A17.78,17.78,0,0,0,438.23,267c.88-6.75,2.84-32.37-26.42-39.33S352,249.29,376.43,276.7c0,0,4.15-6.56,3.5-13.51C377.31,252.07,383.86,247.5,383.86,247.5Z"/><path id="Path_5" data-name="Path 5" class="cls-12" d="M385.43,313l-3.76,2.78,24.25,63.72v-52Z"/><path id="Path_6" data-name="Path 6" class="cls-12" d="M426.4,313l3.77,2.78-24.25,63.72v-52Z"/><path id="Path_7" data-name="Path 7" class="cls-13" d="M402.2,340.28l-3.91-10.82,3.91-2.72H410l3.91,2.72L410,340.28Z"/><path id="Path_8" data-name="Path 8" class="cls-13" d="M402.12,340.28l-7.51,42.93,11.71,16.34V340.41l-2.46-2.17Z"/><path id="Path_9" data-name="Path 9" class="cls-13" d="M410.1,340.28l7.51,42.93L405.9,399.55V340.41l2.46-2.17Z"/><path id="Path_10" data-name="Path 10" class="cls-14" d="M382.33,317.43,342.58,336s-8.94,5-9.39,13.32-5,32.53-5,32.53l77.75,55.91V379.45Z"/><path id="Path_11" data-name="Path 11" class="cls-14" d="M429.51,317.43,469.26,336s8.95,5,9.39,13.33,5,32.53,5,32.53l-77.75,55.9V379.45Z"/><path id="Path_12" data-name="Path 12" class="cls-15" d="M406,462.61c-30.7-7.61-62.38-8.39-93,0q-23.55-61.68-47.12-123.35c46.32-8.36,93.71-7.82,140.07,0Q406,400.94,406,462.61Z"/><path id="Path_13" data-name="Path 13" class="cls-16" d="M337.12,386.68a331.32,331.32,0,0,0-44.65,5q-9-24.82-17.9-49.63a443.91,443.91,0,0,1,51.86-5Q331.79,361.87,337.12,386.68Z"/><path id="Path_14" data-name="Path 14" class="cls-17" d="M337.12,386.68a331.32,331.32,0,0,0-44.65,5c-1.37-3.79-2.05-5.69-3.42-9.49a352,352,0,0,1,46-5C335.9,381,336.31,382.88,337.12,386.68Z"/><path id="Path_15" data-name="Path 15" class="cls-17" d="M398.71,361a422.09,422.09,0,0,0-63.91-5Q332.88,346.46,331,337a464.38,464.38,0,0,1,67.36,5Z"/><path id="Path_16" data-name="Path 16" class="cls-16" d="M365.42,358.63c-8.17-.55-16.32-.87-24.5-1,.12.61.17.91.29,1.52,8.15.09,16.26.4,24.39,1Z"/><path id="Path_17" data-name="Path 17" class="cls-16" d="M365.69,360.9c-10-.6-20-.91-30.06-.94l.3,1.53c10,0,19.95.34,29.94.93Z"/><path id="Path_18" data-name="Path 18" class="cls-16" d="M363.51,363q-13.71-.72-27.42-.76c.13.61.18.91.31,1.52,9.12,0,18.2.28,27.3.76C363.62,363.92,363.59,363.62,363.51,363Z"/><path id="Path_19" data-name="Path 19" class="cls-16" d="M366.22,365.47q-14.82-.9-29.67-.94l.31,1.52c9.88,0,19.69.35,29.54.94Z"/><path id="Path_20" data-name="Path 20" class="cls-16" d="M366,367.72c-9.65-.58-19.26-.88-28.93-.9.12.61.19.91.31,1.53,9.62,0,19.2.32,28.8.89C366.06,368.63,366,368.32,366,367.72Z"/><path id="Path_21" data-name="Path 21" class="cls-16" d="M366.76,370c-9.76-.6-19.5-.91-29.28-.94.13.61.19.92.31,1.53,9.74,0,19.43.34,29.14.93Z"/><path id="Path_22" data-name="Path 22" class="cls-16" d="M362.53,372c-8.2-.39-16.37-.61-24.58-.62.12.61.19.92.31,1.52q12.24,0,24.47.62Z"/><path id="Path_23" data-name="Path 23" class="cls-16" d="M367.29,374.61c-9.63-.6-19.23-.91-28.88-.94.13.61.19.92.31,1.53,9.61,0,19.16.34,28.75.93Z"/><path id="Path_24" data-name="Path 24" class="cls-16" d="M366,376.78c-9-.59-18.05-.86-27.11-.82.12.61.18.91.31,1.52,9,0,18,.24,27,.82C366.1,377.69,366.06,377.39,366,376.78Z"/><path id="Path_25" data-name="Path 25" class="cls-16" d="M367.82,379.18q-14.22-.9-28.48-.94c.13.61.19.91.31,1.52,9.49,0,18.9.34,28.35.94Z"/><path id="Path_26" data-name="Path 26" class="cls-16" d="M365,381.23q-12.58-.68-25.19-.7c.12.61.18.91.31,1.52,8.37,0,16.71.26,25.08.71Z"/><path id="Path_27" data-name="Path 27" class="cls-16" d="M368.36,383.75c-9.36-.59-18.7-.91-28.09-.94l.31,1.52c9.34,0,18.64.34,27.95.94C368.46,384.66,368.43,384.36,368.36,383.75Z"/><path id="Path_28" data-name="Path 28" class="cls-16" d="M362.4,385.57c-7.23-.37-14.43-.53-21.67-.5l.31,1.52c7.21,0,14.37.14,21.57.5C362.52,386.48,362.48,386.18,362.4,385.57Z"/><path id="Path_29" data-name="Path 29" class="cls-16" d="M398.41,362.67c-8-1.39-16-2.42-24.11-3.28l.14,1.52c8.05.86,16.05,1.89,24,3.29C398.44,363.59,398.42,363.28,398.41,362.67Z"/><path id="Path_30" data-name="Path 30" class="cls-16" d="M398.44,365c-9.87-1.58-19.73-2.84-29.68-3.81.06.61.1.91.16,1.52,9.91,1,19.74,2.23,29.56,3.81C398.48,365.87,398.47,365.57,398.44,365Z"/><path id="Path_31" data-name="Path 31" class="cls-16" d="M396.13,366.83q-13.51-2.06-27.11-3.4c.07.61.1.91.17,1.52q13.56,1.37,27,3.41Z"/><path id="Path_32" data-name="Path 32" class="cls-16" d="M398.56,369.53c-9.73-1.58-19.47-2.83-29.29-3.82.06.61.1.92.16,1.53,9.78,1,19.47,2.24,29.16,3.81C398.58,370.44,398.57,370.13,398.56,369.53Z"/><path id="Path_33" data-name="Path 33" class="cls-16" d="M398.09,371.72q-14.23-2.3-28.58-3.72c.07.61.1.91.17,1.52,9.54,1,19,2.2,28.45,3.72C398.11,372.63,398.1,372.33,398.09,371.72Z"/><path id="Path_34" data-name="Path 34" class="cls-16" d="M398.66,374.1c-9.6-1.58-19.21-2.83-28.9-3.82.07.61.1.92.17,1.53q14.46,1.47,28.76,3.81C398.68,375,398.67,374.71,398.66,374.1Z"/><path id="Path_35" data-name="Path 35" class="cls-16" d="M394.34,375.62q-12.13-1.83-24.33-3.06c.06.61.1.92.17,1.53q12.15,1.23,24.22,3.05C394.37,376.54,394.36,376.23,394.34,375.62Z"/><path id="Path_36" data-name="Path 36" class="cls-16" d="M398.76,378.67c-9.48-1.58-18.94-2.83-28.51-3.82.07.61.1.92.17,1.53q14.28,1.47,28.38,3.81C398.78,379.57,398.78,379.27,398.76,378.67Z"/><path id="Path_37" data-name="Path 37" class="cls-16" d="M397.29,380.68c-8.9-1.51-17.78-2.67-26.79-3.56.07.61.1.92.16,1.53,9,.86,17.82,2,26.67,3.53Z"/><path id="Path_38" data-name="Path 38" class="cls-16" d="M398.86,383.24c-9.33-1.58-18.68-2.83-28.11-3.82.06.61.1.92.16,1.53,9.39,1,18.69,2.24,28,3.81C398.88,384.15,398.88,383.85,398.86,383.24Z"/><path id="Path_39" data-name="Path 39" class="cls-16" d="M395.92,385c-8.3-1.31-16.57-2.4-24.92-3.27.06.61.1.91.16,1.52q12.45,1.32,24.8,3.27C395.94,385.89,395.93,385.58,395.92,385Z"/><path id="Path_40" data-name="Path 40" class="cls-16" d="M399,387.81c-9.21-1.58-18.43-2.83-27.73-3.82.07.61.1.92.17,1.52,9.26,1,18.43,2.25,27.59,3.82C399,388.72,399,388.41,399,387.81Z"/><path id="Path_41" data-name="Path 41" class="cls-16" d="M393,389c-7.14-1.11-14.27-2-21.47-2.74.06.61.1.92.16,1.53,7.17.71,14.27,1.62,21.38,2.74C393,389.9,393,389.59,393,389Z"/><path id="Path_42" data-name="Path 42" class="cls-17" d="M399.34,404.91c-33.89-6-68.2-6.37-102.06.06l-.47-1.33c34-6.44,68.46-6,102.5-.06C399.33,404.11,399.33,404.38,399.34,404.91Z"/><path id="Path_43" data-name="Path 43" class="cls-17" d="M399.09,393.4c-11.51-2-23-3.42-34.67-4.39.42,3.19.62,4.78,1,8,11.37,1,22.59,2.42,33.81,4.4Z"/><path id="Path_44" data-name="Path 44" class="cls-17" d="M399.38,406.59c-11-2-22.05-3.43-33.24-4.4q1.59,12.07,3.17,24.17c10.31,1,20.46,2.41,30.6,4.39Q399.63,418.66,399.38,406.59Z"/><path id="Path_45" data-name="Path 45" class="cls-16" d="M362.5,388.89a314.08,314.08,0,0,0-69.37,4.57l2.88,8a296.92,296.92,0,0,1,67.57-4.57C363.16,393.67,362.94,392.08,362.5,388.89Z"/><path id="Path_46" data-name="Path 46" class="cls-16" d="M329.64,402.19c-9.41.86-18.7,2.06-28,3.67.26.75.4,1.12.65,1.86,9.23-1.61,18.46-2.81,27.81-3.66C329.92,403.31,329.83,402.94,329.64,402.19Z"/><path id="Path_47" data-name="Path 47" class="cls-16" d="M330.34,405a308,308,0,0,0-31.44,4.45l.67,1.86a304.61,304.61,0,0,1,31.24-4.45Z"/><path id="Path_48" data-name="Path 48" class="cls-16" d="M331,407.77a302.7,302.7,0,0,0-31.14,4.45l.67,1.86a298.91,298.91,0,0,1,30.94-4.45C331.32,408.89,331.23,408.52,331,407.77Z"/><path id="Path_49" data-name="Path 49" class="cls-16" d="M331.75,410.56A299.13,299.13,0,0,0,300.92,415l.67,1.87a290.45,290.45,0,0,1,30.63-4.45C332,411.67,331.93,411.3,331.75,410.56Z"/><path id="Path_50" data-name="Path 50" class="cls-16" d="M332.45,413.34a296.19,296.19,0,0,0-30.53,4.45c.27.75.4,1.12.68,1.87a284.35,284.35,0,0,1,30.32-4.45C332.73,414.46,332.63,414.09,332.45,413.34Z"/><path id="Path_51" data-name="Path 51" class="cls-16" d="M333.14,416.13a287.49,287.49,0,0,0-30.21,4.45c.26.75.39,1.12.66,1.86a281.76,281.76,0,0,1,30-4.45C333.42,417.25,333.33,416.88,333.14,416.13Z"/><path id="Path_52" data-name="Path 52" class="cls-16" d="M333.85,418.92a282.12,282.12,0,0,0-29.92,4.45l.67,1.86a276.12,276.12,0,0,1,29.71-4.45C334.12,420,334,419.67,333.85,418.92Z"/><path id="Path_53" data-name="Path 53" class="cls-16" d="M334.55,421.71a273.56,273.56,0,0,0-29.61,4.45l.67,1.86a244.2,244.2,0,0,1,29.4-4.45C334.82,422.83,334.73,422.46,334.55,421.71Z"/><path id="Path_54" data-name="Path 54" class="cls-16" d="M329,425.07c-7.76,1-15.39,2.28-23,3.88.26.74.39,1.11.66,1.86,7.59-1.61,15.17-2.88,22.87-3.88C329.29,426.2,329.18,425.8,329,425.07Z"/><path id="Path_55" data-name="Path 55" class="cls-16" d="M364.55,402.09c-9.88-.42-19.67-.49-29.53-.2.17.74.26,1.11.43,1.86,9.81-.3,19.55-.22,29.35.21C364.7,403.2,364.65,402.83,364.55,402.09Z"/><path id="Path_56" data-name="Path 56" class="cls-16" d="M364.93,404.86c-11.13-.48-22.18-.49-33.31,0,.19.75.28,1.12.46,1.86,11.07-.51,22-.51,33.1,0C365.08,406,365,405.62,364.93,404.86Z"/><path id="Path_57" data-name="Path 57" class="cls-16" d="M365.31,407.66c-11-.49-22-.49-33,0l.46,1.86c11-.51,21.84-.51,32.8,0C365.46,408.78,365.41,408.42,365.31,407.66Z"/><path id="Path_58" data-name="Path 58" class="cls-16" d="M365.69,410.45c-10.92-.49-21.77-.49-32.69,0,.18.74.28,1.12.46,1.86,10.85-.51,21.63-.51,32.48,0C365.84,411.58,365.79,411.18,365.69,410.45Z"/><path id="Path_59" data-name="Path 59" class="cls-16" d="M366.07,413.24c-10.82-.49-21.56-.49-32.38,0,.19.74.28,1.12.46,1.86,10.75-.51,21.42-.51,32.17,0Z"/><path id="Path_60" data-name="Path 60" class="cls-16" d="M366.44,416c-10.72-.48-21.34-.48-32.07,0,.18.74.27,1.11.46,1.86,10.64-.51,21.22-.51,31.86,0Z"/><path id="Path_61" data-name="Path 61" class="cls-16" d="M366.83,418.81c-10.61-.48-21.15-.49-31.76,0,.18.74.27,1.11.46,1.86,10.54-.51,21-.51,31.55,0Z"/><path id="Path_62" data-name="Path 62" class="cls-16" d="M367.23,421.6c-10.52-.49-21-.49-31.46,0,.19.75.28,1.12.46,1.86,10.44-.51,20.81-.51,31.25,0C367.36,422.72,367.31,422.35,367.23,421.6Z"/><path id="Path_63" data-name="Path 63" class="cls-16" d="M361.09,424.05c-8.23-.17-16.42-.06-24.65.36.19.75.28,1.12.46,1.86,8.18-.42,16.31-.53,24.5-.37Z"/><path id="Path_64" data-name="Path 64" class="cls-17" d="M400,432.92a306.3,306.3,0,0,0-30.37-4.39q1.59,12.08,3.16,24.16a267.45,267.45,0,0,1,27.73,4.39Q400.24,445,400,432.92Z"/><path id="Path_65" data-name="Path 65" class="cls-16" d="M336.26,428.52c-8.58.86-17,2.05-25.47,3.67.26.74.4,1.11.65,1.86,8.39-1.62,16.77-2.82,25.29-3.67Z"/><path id="Path_66" data-name="Path 66" class="cls-16" d="M337,431.31a264.86,264.86,0,0,0-28.56,4.45l.67,1.85a263.7,263.7,0,0,1,28.36-4.44C337.24,432.43,337.15,432.05,337,431.31Z"/><path id="Path_67" data-name="Path 67" class="cls-16" d="M337.66,434.1a259.29,259.29,0,0,0-28.25,4.45l.67,1.86A255.9,255.9,0,0,1,338.14,436C337.94,435.21,337.85,434.84,337.66,434.1Z"/><path id="Path_68" data-name="Path 68" class="cls-16" d="M338.38,436.87a254,254,0,0,0-27.95,4.45l.68,1.86a249.49,249.49,0,0,1,27.74-4.45C338.64,438,338.55,437.63,338.38,436.87Z"/><path id="Path_69" data-name="Path 69" class="cls-16" d="M339.06,439.67a250.46,250.46,0,0,0-27.64,4.45l.67,1.86a242.7,242.7,0,0,1,27.44-4.44Z"/><path id="Path_70" data-name="Path 70" class="cls-16" d="M339.76,442.46a242.73,242.73,0,0,0-27.33,4.45l.67,1.86a239.28,239.28,0,0,1,27.13-4.45Z"/><path id="Path_71" data-name="Path 71" class="cls-16" d="M340.46,445.25a237,237,0,0,0-27,4.45l.67,1.86a233.63,233.63,0,0,1,26.82-4.45Z"/><path id="Path_72" data-name="Path 72" class="cls-16" d="M341.15,448a231.94,231.94,0,0,0-26.72,4.45l.67,1.86a227,227,0,0,1,26.53-4.44C341.44,449.15,341.35,448.78,341.15,448Z"/><path id="Path_73" data-name="Path 73" class="cls-16" d="M336.19,451.4c-7,1-13.87,2.27-20.74,3.88l.67,1.85c6.82-1.6,13.63-2.87,20.58-3.87C336.5,452.51,336.4,452.14,336.19,451.4Z"/><path id="Path_74" data-name="Path 74" class="cls-16" d="M368.14,428.41c-9-.42-18-.5-27-.21l.43,1.86c9-.29,17.85-.21,26.79.21Z"/><path id="Path_75" data-name="Path 75" class="cls-16" d="M368.52,431.2c-10.16-.49-20.24-.49-30.39,0,.18.74.27,1.12.46,1.86,10.08-.51,20.09-.51,30.19,0C368.67,432.32,368.62,432,368.52,431.2Z"/><path id="Path_76" data-name="Path 76" class="cls-16" d="M368.9,434c-10.06-.47-20-.47-30.09,0l.47,1.86c10-.49,19.88-.49,29.88,0C369.05,435.11,369,434.73,368.9,434Z"/><path id="Path_77" data-name="Path 77" class="cls-16" d="M369.28,436.78c-10-.47-19.81-.47-29.78,0l.46,1.86c9.88-.49,19.68-.49,29.58,0Z"/><path id="Path_78" data-name="Path 78" class="cls-16" d="M369.66,439.56c-9.88-.46-19.61-.46-29.47,0,.18.74.28,1.11.46,1.85,9.79-.49,19.47-.49,29.27,0Z"/><path id="Path_79" data-name="Path 79" class="cls-16" d="M370,442.35c-9.75-.46-19.4-.47-29.16,0,.18.74.28,1.11.46,1.85,9.69-.49,19.27-.49,29,0C370.19,443.47,370.15,443.1,370,442.35Z"/><path id="Path_80" data-name="Path 80" class="cls-16" d="M370.42,445.14c-9.65-.47-19.2-.47-28.85,0,.19.75.28,1.12.47,1.86a285,285,0,0,1,28.64,0C370.58,446.26,370.53,445.89,370.42,445.14Z"/><path id="Path_81" data-name="Path 81" class="cls-16" d="M370.8,447.93q-14.26-.71-28.54,0c.18.75.27,1.12.46,1.86a279.05,279.05,0,0,1,28.34,0Z"/><path id="Path_82" data-name="Path 82" class="cls-16" d="M365.29,450.38c-7.48-.16-14.88,0-22.34.36.18.75.27,1.12.46,1.86,7.41-.39,14.76-.52,22.18-.37C365.47,451.49,365.4,451.12,365.29,450.38Z"/><path id="Path_83" data-name="Path 83" class="cls-18" d="M498.89,462.61c-30.61-8.39-62.28-7.61-93,0q0-61.67,0-123.34c46.35-7.83,93.75-8.37,140.06,0Q522.48,400.94,498.89,462.61Z"/><path id="Path_84" data-name="Path 84" class="cls-17" d="M530.31,361.46c-38.88-6.45-78.24-6.08-117.14,0l.39-18.64c41-6.09,82.49-6.45,123.48,0Z"/><path id="Path_85" data-name="Path 85" class="cls-17" d="M527.53,369.15c-38-6.47-76.5-6.07-114.53,0v-.7c38.11-6.07,76.69-6.46,114.77,0C527.68,368.73,527.64,368.87,527.53,369.15Z"/><path id="Path_86" data-name="Path 86" class="cls-16" d="M529.72,363.09c-12.07-2-24.16-3.49-36.39-4.44-.42,1.67-.63,2.52-1.06,4.19,12.08,1,24,2.4,35.94,4.44C528.81,365.61,529.11,364.77,529.72,363.09Z"/><path id="Path_87" data-name="Path 87" class="cls-16" d="M491.27,358.53a400.75,400.75,0,0,0-78.14,4.56c0,1.68-.05,2.51-.08,4.19a391.79,391.79,0,0,1,77.19-4.56C490.65,361.05,490.86,360.21,491.27,358.53Z"/><path id="Path_88" data-name="Path 88" class="cls-17" d="M507.87,421.28a263.37,263.37,0,0,0-57.6-4.65L453.13,398a296.87,296.87,0,0,1,61.4,4.66Q511.2,412,507.87,421.28Z"/><path id="Path_89" data-name="Path 89" class="cls-16" d="M507.29,422.91c-5.83-1.32-11.74-2.35-17.68-3.11l-.32,1.09c5.92.85,11.75,1.88,17.61,3.1C507.05,423.56,507.13,423.34,507.29,422.91Z"/><path id="Path_90" data-name="Path 90" class="cls-16" d="M488.61,419.68A305.06,305.06,0,0,0,450,418.25c-.06.44-.09.66-.16,1.09a302.69,302.69,0,0,1,38.44,1.42C488.43,420.33,488.49,420.11,488.61,419.68Z"/><path id="Path_91" data-name="Path 91" class="cls-16" d="M506.39,425.41c-5.83-1.23-11.62-2.25-17.52-3.11-.13.44-.19.66-.32,1.09,5.88.86,11.65,1.88,17.45,3.11C506.15,426.07,506.23,425.85,506.39,425.41Z"/><path id="Path_92" data-name="Path 92" class="cls-16" d="M487.89,422.18a299.78,299.78,0,0,0-38.25-1.42l-.17,1.09a299.36,299.36,0,0,1,38.11,1.42C487.7,422.84,487.75,422.62,487.89,422.18Z"/><path id="Path_93" data-name="Path 93" class="cls-16" d="M505.49,427.92c-5.77-1.23-11.5-2.25-17.35-3.1l-.32,1.08c5.83.86,11.54,1.88,17.28,3.11Z"/><path id="Path_94" data-name="Path 94" class="cls-16" d="M487.16,424.69a294.35,294.35,0,0,0-37.91-1.42c-.06.44-.1.65-.16,1.09a292.1,292.1,0,0,1,37.76,1.42Z"/><path id="Path_95" data-name="Path 95" class="cls-16" d="M504.59,430.43c-5.71-1.23-11.39-2.25-17.18-3.11l-.32,1.09c5.77.86,11.42,1.88,17.11,3.11C504.35,431.08,504.44,430.87,504.59,430.43Z"/><path id="Path_96" data-name="Path 96" class="cls-16" d="M486.44,427.2a287.42,287.42,0,0,0-37.57-1.42c-.07.43-.1.65-.17,1.09a285.13,285.13,0,0,1,37.42,1.42C486.25,427.85,486.32,427.63,486.44,427.2Z"/><path id="Path_97" data-name="Path 97" class="cls-16" d="M503.69,432.94c-5.65-1.23-11.28-2.25-17-3.11l-.32,1.09c5.72.85,11.32,1.87,16.95,3.11C503.46,433.59,503.56,433.37,503.69,432.94Z"/><path id="Path_98" data-name="Path 98" class="cls-16" d="M485.72,429.7a284.12,284.12,0,0,0-37.24-1.41c-.06.43-.09.65-.16,1.08a283.36,283.36,0,0,1,37.08,1.42C485.53,430.36,485.59,430.15,485.72,429.7Z"/><path id="Path_99" data-name="Path 99" class="cls-16" d="M502.8,435.45c-5.61-1.23-11.17-2.25-16.86-3.11l-.32,1.09c5.66.85,11.21,1.87,16.79,3.1C502.56,436.1,502.64,435.88,502.8,435.45Z"/><path id="Path_100" data-name="Path 100" class="cls-16" d="M485,432.21a278.76,278.76,0,0,0-36.89-1.42c-.07.44-.1.65-.16,1.09a276.79,276.79,0,0,1,36.75,1.42Z"/><path id="Path_101" data-name="Path 101" class="cls-16" d="M501.9,438c-5.54-1.23-11.07-2.25-16.7-3.1l-.31,1.08c5.6.86,11.09,1.88,16.62,3.11Z"/><path id="Path_102" data-name="Path 102" class="cls-16" d="M484.27,434.72a273.72,273.72,0,0,0-36.55-1.42l-.17,1.09a269.84,269.84,0,0,1,36.4,1.42Z"/><path id="Path_103" data-name="Path 103" class="cls-16" d="M443.7,451.59a256.84,256.84,0,0,0-32.19,4.68l2-86.43a432.09,432.09,0,0,1,43.07-4.68Q450.13,408.39,443.7,451.59Z"/><path id="Path_104" data-name="Path 104" class="cls-16" d="M480.27,366q-11.13-.13-22.25.12l.16-1c7.45-.18,14.87-.22,22.31-.12C480.4,365.39,480.36,365.6,480.27,366Z"/><path id="Path_105" data-name="Path 105" class="cls-16" d="M479.85,367.89q-11.07-.13-22.13.12c.07-.42.09-.62.16-1q11.1-.27,22.19-.12C480,367.27,480,367.48,479.85,367.89Z"/><path id="Path_106" data-name="Path 106" class="cls-16" d="M479.45,369.77q-11-.13-22,.12l.16-1q11-.27,22.07-.12C479.58,369.15,479.53,369.36,479.45,369.77Z"/><path id="Path_107" data-name="Path 107" class="cls-16" d="M479.06,371.67q-10.95-.15-21.88.11l.15-1c7.33-.17,14.63-.21,21.95-.11A7.26,7.26,0,0,0,479.06,371.67Z"/><path id="Path_108" data-name="Path 108" class="cls-16" d="M478.63,373.53c-7.26-.09-14.5,0-21.76.12l.16-1q10.92-.27,21.82-.12C478.76,372.92,478.71,373.12,478.63,373.53Z"/><path id="Path_109" data-name="Path 109" class="cls-16" d="M478.21,375.41q-10.81-.14-21.63.12l.16-1c7.24-.18,14.46-.22,21.7-.12C478.35,374.8,478.3,375,478.21,375.41Z"/><path id="Path_110" data-name="Path 110" class="cls-16" d="M477.8,377.29c-7.18-.09-14.33-.05-21.51.12l.16-1q10.8-.27,21.57-.12C477.94,376.68,477.89,376.88,477.8,377.29Z"/><path id="Path_111" data-name="Path 111" class="cls-16" d="M477.39,379.18q-10.71-.15-21.39.11l.16-1q10.74-.27,21.45-.12C477.52,378.56,477.48,378.78,477.39,379.18Z"/><path id="Path_112" data-name="Path 112" class="cls-16" d="M477,381.06q-10.65-.15-21.27.11l.16-1q10.67-.25,21.34-.11C477.11,380.44,477.08,380.65,477,381.06Z"/><path id="Path_113" data-name="Path 113" class="cls-16" d="M476.57,382.94c-7.06-.1-14.09-.06-21.14.11l.15-1q10.62-.25,21.21-.11C476.69,382.34,476.66,382.53,476.57,382.94Z"/><path id="Path_114" data-name="Path 114" class="cls-16" d="M476.16,384.82q-10.53-.15-21,.11l.16-1q10.54-.25,21.08-.11C476.29,384.2,476.25,384.41,476.16,384.82Z"/><path id="Path_115" data-name="Path 115" class="cls-16" d="M475.74,386.68c-7-.1-13.92-.06-20.89.12l.16-1q10.49-.27,21-.12C475.9,386.08,475.83,386.29,475.74,386.68Z"/><path id="Path_116" data-name="Path 116" class="cls-16" d="M475.33,388.58q-10.4-.15-20.77.11l.16-1q10.42-.27,20.84-.11Z"/><path id="Path_117" data-name="Path 117" class="cls-16" d="M474.92,390.46q-10.34-.15-20.65.12l.16-1c6.91-.17,13.8-.21,20.71-.11Z"/><path id="Path_118" data-name="Path 118" class="cls-16" d="M474.51,392.34c-6.85-.1-13.68-.06-20.53.12l.18-1c6.87-.17,13.72-.21,20.59-.12Z"/><path id="Path_119" data-name="Path 119" class="cls-16" d="M474.1,394.22q-10.22-.15-20.4.12l.15-1q10.25-.26,20.47-.11C474.23,393.6,474.19,393.8,474.1,394.22Z"/><path id="Path_120" data-name="Path 120" class="cls-16" d="M473.69,396.1q-10.15-.15-20.28.12l.15-1c6.79-.17,13.56-.21,20.35-.11C473.82,395.48,473.78,395.69,473.69,396.1Z"/><path id="Path_121" data-name="Path 121" class="cls-16" d="M498.73,384.47c-6.88-.64-13.75-1.13-20.65-1.48.1-.4.14-.62.24-1q10.38.54,20.71,1.48C498.9,383.85,498.85,384.06,498.73,384.47Z"/><path id="Path_122" data-name="Path 122" class="cls-16" d="M498.19,386.35q-10.26-1-20.52-1.48c.09-.4.13-.62.22-1,6.89.36,13.74.85,20.59,1.48Z"/><path id="Path_123" data-name="Path 123" class="cls-16" d="M497.63,388.23c-6.8-.64-13.58-1.13-20.4-1.48.09-.4.14-.62.23-1,6.84.36,13.65.85,20.47,1.49Z"/><path id="Path_124" data-name="Path 124" class="cls-16" d="M497.1,390.11q-10.12-1-20.28-1.48l.23-1c6.8.35,13.57.84,20.35,1.48C497.28,389.49,497.23,389.69,497.1,390.11Z"/><path id="Path_125" data-name="Path 125" class="cls-16" d="M496.55,392q-10.07-1-20.15-1.48l.23-1c6.77.36,13.49.84,20.21,1.47C496.74,391.37,496.67,391.58,496.55,392Z"/><path id="Path_126" data-name="Path 126" class="cls-16" d="M496,393.87c-6.67-.63-13.33-1.12-20-1.48.1-.4.14-.62.24-1q10.06.52,20.09,1.48Z"/><path id="Path_127" data-name="Path 127" class="cls-16" d="M495.47,395.75c-6.63-.63-13.25-1.12-19.91-1.48l.23-1q10,.52,20,1.48Z"/><path id="Path_128" data-name="Path 128" class="cls-16" d="M494.93,397.63q-9.89-.94-19.79-1.48l.23-1c6.64.36,13.25.84,19.86,1.48Z"/><path id="Path_129" data-name="Path 129" class="cls-16" d="M526,370.78q-10.35-1.84-20.79-3.07c.13-.42.19-.62.3-1,7,.82,13.93,1.84,20.86,3.07C526.18,370.16,526.1,370.37,526,370.78Z"/><path id="Path_130" data-name="Path 130" class="cls-16" d="M525.29,372.66c-6.86-1.23-13.73-2.24-20.67-3.07l.31-1c7,.83,13.83,1.85,20.73,3.08C525.5,372.06,525.43,372.25,525.29,372.66Z"/><path id="Path_131" data-name="Path 131" class="cls-16" d="M524.61,374.54c-6.83-1.23-13.65-2.24-20.55-3.07.11-.4.18-.62.3-1,6.92.83,13.77,1.85,20.61,3.08Z"/><path id="Path_132" data-name="Path 132" class="cls-16" d="M523.93,376.41c-6.78-1.23-13.57-2.24-20.42-3.08.12-.39.18-.61.3-1,6.88.83,13.68,1.84,20.49,3.08C524.16,375.8,524.08,376,523.93,376.41Z"/><path id="Path_133" data-name="Path 133" class="cls-16" d="M523.26,378.3c-6.75-1.23-13.49-2.24-20.3-3.07.12-.4.18-.62.3-1,6.84.83,13.6,1.84,20.37,3.07C523.48,377.68,523.4,377.89,523.26,378.3Z"/><path id="Path_134" data-name="Path 134" class="cls-16" d="M522.59,380.18c-6.72-1.23-13.41-2.24-20.19-3.07.12-.4.19-.62.31-1,6.8.82,13.52,1.84,20.24,3.07C522.81,379.57,522.73,379.77,522.59,380.18Z"/><path id="Path_135" data-name="Path 135" class="cls-16" d="M521.91,382.06c-6.66-1.23-13.32-2.24-20.06-3.07.13-.4.19-.62.31-1,6.76.82,13.43,1.84,20.12,3.07Z"/><path id="Path_136" data-name="Path 136" class="cls-16" d="M521.24,384c-6.62-1.24-13.24-2.25-19.94-3.08.12-.4.18-.62.3-1,6.72.83,13.36,1.84,20,3.07C521.46,383.32,521.39,383.52,521.24,384Z"/><path id="Path_137" data-name="Path 137" class="cls-16" d="M520.55,385.83c-6.58-1.24-13.16-2.25-19.82-3.08.12-.39.19-.62.3-1,6.68.82,13.29,1.84,19.89,3.07Z"/><path id="Path_138" data-name="Path 138" class="cls-16" d="M519.89,387.71c-6.54-1.24-13.08-2.25-19.69-3.08.12-.39.18-.62.3-1,6.64.83,13.2,1.84,19.76,3.07C520.11,387.08,520,387.29,519.89,387.71Z"/><path id="Path_139" data-name="Path 139" class="cls-16" d="M519.22,389.59c-6.5-1.24-13-2.25-19.58-3.08.13-.41.19-.62.31-1,6.59.83,13.11,1.84,19.64,3.07Z"/><path id="Path_140" data-name="Path 140" class="cls-16" d="M518.54,391.47c-6.46-1.24-12.91-2.25-19.45-3.08.13-.41.19-.62.31-1,6.55.83,13,1.84,19.52,3.07Z"/><path id="Path_141" data-name="Path 141" class="cls-16" d="M517.87,393.35c-6.39-1.3-12.84-2.25-19.33-3.07l.31-1c6.5.83,13,1.77,19.39,3.08Z"/><path id="Path_142" data-name="Path 142" class="cls-16" d="M517.2,395.23c-6.36-1.3-12.76-2.25-19.21-3.08.12-.39.18-.62.3-1,6.47.83,12.9,1.77,19.28,3.08Z"/><path id="Path_143" data-name="Path 143" class="cls-16" d="M516.53,397.11c-6.33-1.3-12.69-2.25-19.09-3.08.12-.39.18-.61.3-1,6.43.83,12.81,1.78,19.15,3.08C516.75,396.49,516.68,396.7,516.53,397.11Z"/><path id="Path_144" data-name="Path 144" class="cls-16" d="M515.85,399c-6.27-1.3-12.6-2.25-19-3.08.12-.39.18-.61.3-1,6.39.83,12.73,1.78,19,3.08Z"/><path id="Path_145" data-name="Path 145" class="cls-16" d="M515.18,400.87c-6.24-1.3-12.52-2.25-18.85-3.08.13-.39.18-.61.31-1,6.34.83,12.64,1.78,18.91,3.08C515.41,400.25,515.32,400.45,515.18,400.87Z"/><path id="Path_146" data-name="Path 146" class="cls-16" d="M500.76,441.14c-5.4-1.22-10.76-2.22-16.24-3.08l.3-1c5.5.85,10.89,1.86,16.31,3.08Z"/><path id="Path_147" data-name="Path 147" class="cls-16" d="M500.08,443c-5.35-1.22-10.67-2.22-16.11-3.08.12-.39.18-.62.3-1,5.46.85,10.8,1.86,16.2,3.08C500.31,442.4,500.23,442.6,500.08,443Z"/><path id="Path_148" data-name="Path 148" class="cls-16" d="M499.41,444.9c-5.31-1.21-10.6-2.22-16-3.08l.3-1c5.42.85,10.72,1.86,16.06,3.07Z"/><path id="Path_149" data-name="Path 149" class="cls-16" d="M498.74,446.78c-5.28-1.22-10.52-2.23-15.87-3.08.11-.39.18-.62.3-1,5.38.85,10.64,1.86,15.94,3.07Z"/><path id="Path_150" data-name="Path 150" class="cls-16" d="M498.07,448.66c-5.24-1.22-10.44-2.22-15.76-3.08.12-.39.18-.62.3-1,5.35.85,10.57,1.86,15.81,3.08Z"/><path id="Path_151" data-name="Path 151" class="cls-16" d="M497.39,450.54c-5.19-1.22-10.35-2.22-15.63-3.08l.3-1c5.3.85,10.48,1.86,15.7,3.07Z"/><path id="Path_152" data-name="Path 152" class="cls-16" d="M496.72,452.42c-5.14-1.22-10.28-2.22-15.51-3.07l.3-1c5.26.86,10.4,1.86,15.58,3.08Z"/><path id="Path_153" data-name="Path 153" class="cls-16" d="M496.05,454.3c-5.12-1.21-10.19-2.22-15.39-3.08.12-.39.18-.61.31-1,5.22.86,10.31,1.86,15.45,3.08C496.27,453.68,496.19,453.89,496.05,454.3Z"/><path id="Path_154" data-name="Path 154" class="cls-16" d="M495.37,456.18c-5.07-1.21-10.11-2.22-15.27-3.07l.31-1c5.18.86,10.24,1.86,15.33,3.08Z"/><path id="Path_155" data-name="Path 155" class="cls-16" d="M483.3,437.9c-5.72-.62-11.41-1.11-17.16-1.48.09-.42.14-.62.24-1,5.76.37,11.48.86,17.22,1.48C483.48,437.26,483.42,437.48,483.3,437.9Z"/><path id="Path_156" data-name="Path 156" class="cls-16" d="M482.76,439.78c-5.68-.62-11.33-1.11-17-1.48.09-.4.14-.62.23-1,5.73.37,11.41.86,17.11,1.48Z"/><path id="Path_157" data-name="Path 157" class="cls-16" d="M482.22,441.66c-5.64-.62-11.26-1.11-16.92-1.48.09-.4.14-.62.23-1,5.69.37,11.33.87,17,1.49Z"/><path id="Path_158" data-name="Path 158" class="cls-16" d="M481.67,443.54c-5.59-.62-11.17-1.11-16.79-1.48.09-.4.14-.62.24-1,5.64.38,11.23.86,16.85,1.49Z"/><path id="Path_159" data-name="Path 159" class="cls-16" d="M481.13,445.42c-5.55-.62-11.09-1.11-16.67-1.48l.23-1c5.61.37,11.16.85,16.74,1.48Z"/><path id="Path_160" data-name="Path 160" class="cls-16" d="M480.59,447.3c-5.54-.62-11-1.11-16.55-1.48l.23-1c5.56.37,11.06.85,16.6,1.48C480.77,446.68,480.7,446.89,480.59,447.3Z"/><path id="Path_161" data-name="Path 161" class="cls-16" d="M480,449.18c-5.47-.62-10.92-1.11-16.42-1.48l.23-1c5.53.37,11,.86,16.49,1.48C480.24,448.56,480.16,448.77,480,449.18Z"/><path id="Path_162" data-name="Path 162" class="cls-16" d="M479.5,451.06c-5.43-.62-10.84-1.11-16.3-1.48l.23-1c5.48.37,10.92.85,16.37,1.48Z"/><path id="Path_163" data-name="Path 163" class="cls-16" d="M479,452.94c-5.39-.62-10.76-1.11-16.18-1.48.09-.39.14-.62.23-1,5.44.37,10.83.86,16.25,1.48Z"/><path id="Path_164" data-name="Path 164" class="cls-16" d="M499.38,382.22c-6.93-.64-13.83-1.13-20.79-1.49L482.1,365q10.93.53,21.81,1.48Z"/><path id="Path_165" data-name="Path 165" class="cls-16" d="M461.58,451.41c-5.56-.08-11.1,0-16.66.12l2.47-16.08c5.92-.16,11.8-.2,17.71-.11Q463.35,443.37,461.58,451.41Z"/><path id="Path_166" data-name="Path 166" class="cls-19" d="M305.51,397.68a4.28,4.28,0,0,1-4,4.49l-13.27,1.47a4.28,4.28,0,0,1-4.9-3.51h0a4.28,4.28,0,0,1,4-4.49l13.27-1.45a4.28,4.28,0,0,1,4.9,3.51Z"/><path id="Path_167" data-name="Path 167" class="cls-19" d="M309.56,404.27a4.28,4.28,0,0,1-4,4.49L289,410.59a4.27,4.27,0,0,1-4.9-3.51h0a4.28,4.28,0,0,1,4-4.49l16.55-1.82A4.27,4.27,0,0,1,309.56,404.27Z"/><path id="Path_168" data-name="Path 168" class="cls-19" d="M310.24,410.46a4.28,4.28,0,0,1-4,4.49l-16.55,1.82a4.28,4.28,0,0,1-4.9-3.5h0a4.28,4.28,0,0,1,4-4.49L305.34,407A4.26,4.26,0,0,1,310.24,410.46Z"/><path id="Path_169" data-name="Path 169" class="cls-19" d="M307.26,416a3.17,3.17,0,0,1-3,3.33L292,420.72a3.18,3.18,0,0,1-3.64-2.6h0a3.17,3.17,0,0,1,3-3.33l12.29-1.36a3.16,3.16,0,0,1,3.63,2.61Z"/><path id="Path_170" data-name="Path 170" class="cls-20" d="M508.33,397.68a4.26,4.26,0,0,0,4,4.49l13.27,1.47a4.28,4.28,0,0,0,4.9-3.51h0a4.28,4.28,0,0,0-4-4.49l-13.27-1.45a4.26,4.26,0,0,0-4.89,3.51Z"/><path id="Path_171" data-name="Path 171" class="cls-20" d="M504.27,404.27a4.28,4.28,0,0,0,4,4.49l16.55,1.83a4.28,4.28,0,0,0,4.9-3.51h0a4.28,4.28,0,0,0-4-4.49l-16.55-1.82A4.27,4.27,0,0,0,504.27,404.27Z"/><path id="Path_172" data-name="Path 172" class="cls-20" d="M503.59,410.46a4.27,4.27,0,0,0,4,4.49l16.55,1.82a4.28,4.28,0,0,0,4.9-3.5h0a4.28,4.28,0,0,0-4-4.49L508.49,407A4.26,4.26,0,0,0,503.59,410.46Z"/><path id="Path_173" data-name="Path 173" class="cls-20" d="M506.57,416a3.17,3.17,0,0,0,3,3.33l12.28,1.35a3.16,3.16,0,0,0,3.63-2.6h0a3.16,3.16,0,0,0-3-3.33l-12.28-1.36A3.17,3.17,0,0,0,506.57,416Z"/></g></g></g></g><path class="cls-21" d="M192.13,239.29a9.09,9.09,0,0,0,.22,1.37A8,8,0,0,0,192.13,239.29Z"/><path class="cls-22" d="M192.24,239.25h0v0Z"/><path class="cls-23" d="M522.37,470.52a9.28,9.28,0,0,0,.22,1.37A8,8,0,0,0,522.37,470.52Z"/><path class="cls-24" d="M522.48,470.48h0v0Z"/><path class="cls-25" d="M493.61,477a9.09,9.09,0,0,0,.22,1.37A8.14,8.14,0,0,0,493.61,477Z"/><path class="cls-26" d="M493.72,477h0v0Z"/><path class="cls-27" d="M523.48,241.39a9.09,9.09,0,0,0,.22,1.37A9.09,9.09,0,0,0,523.48,241.39Z"/><path class="cls-28" d="M523.59,241.35h0a0,0,0,0,1,0,0Z"/></g></g></svg>