<!-- Generated by IcoMoon.io -->
<svg version="1.1" xmlns="http://www.w3.org/2000/svg" width="32" height="32" viewBox="0 0 32 32">
<title>newspaper</title>
<path fill="#53c7f0" d="M31.117 3c-0.456 0.001-0.826 0.371-0.828 0.827v21.966c-0.002 2.323-1.884 4.205-4.207 4.207h-20.221c-2.323-0.002-4.205-1.884-4.207-4.207v-23.697h24.228v21.311c0 0.457 0.371 0.828 0.828 0.828s0.828-0.371 0.828-0.828v0-22.138c-0.001-0.457-0.371-0.826-0.827-0.828h-25.883c-0.457 0.001-0.826 0.371-0.828 0.827v24.518c0.002 3.237 2.625 5.86 5.862 5.862h20.214c3.237-0.002 5.86-2.625 5.862-5.862v-21.959c0-0.002 0-0.005 0-0.008 0-0.453-0.367-0.82-0.82-0.82-0 0-0.001 0-0.001 0h0z"></path>
<path fill="#87e0ff" d="M22.71 6.869c0.457 0 0.828-0.371 0.828-0.828s-0.371-0.828-0.828-0.828v0h-18.041c-0.457 0-0.828 0.371-0.828 0.828s0.371 0.828 0.828 0.828v0z"></path>
<path fill="#87e0ff" d="M22.71 22.083h-18.041c-0.457 0-0.828 0.371-0.828 0.828s0.371 0.828 0.828 0.828v0h18.035c0.001 0 0.002 0 0.003 0 0.457 0 0.828-0.371 0.828-0.828 0-0.456-0.369-0.826-0.824-0.828h-0z"></path>
<path fill="#87e0ff" d="M22.71 26.324h-15.179c-0.457 0-0.828 0.371-0.828 0.828s0.371 0.828 0.828 0.828v0h15.179c0.457 0 0.828-0.371 0.828-0.828s-0.371-0.828-0.828-0.828v0z"></path>
<path fill="#87e0ff" d="M3.565 9.759v8.952c0.001 0.456 0.371 0.826 0.827 0.828h8.986c0.457-0.001 0.826-0.371 0.828-0.827v-8.952c-0.001-0.457-0.371-0.826-0.827-0.828h-8.986c-0.457 0.001-0.826 0.371-0.828 0.827v0zM5.221 10.586h7.331v7.297h-7.331z"></path>
<path fill="#87e0ff" d="M23.152 9.758h-5.952c-0.457 0-0.828 0.371-0.828 0.828s0.371 0.828 0.828 0.828v0h5.952c0.457 0 0.828-0.371 0.828-0.828s-0.371-0.828-0.828-0.828v0z"></path>
<path fill="#87e0ff" d="M23.152 13.496h-5.952c-0.457 0-0.828 0.371-0.828 0.828s0.371 0.828 0.828 0.828v0h5.952c0.457 0 0.828-0.371 0.828-0.828s-0.371-0.828-0.828-0.828v0z"></path>
<path fill="#87e0ff" d="M23.979 18.297c-0.001-0.456-0.371-0.826-0.827-0.828h-5.952c-0.457 0-0.828 0.371-0.828 0.828s0.371 0.828 0.828 0.828v0h5.952c0.001 0 0.001 0 0.002 0 0.456 0 0.826-0.37 0.826-0.826 0-0.001 0-0.001 0-0.002v0z"></path>
</svg>
