<svg xmlns="http://www.w3.org/2000/svg" viewBox="446.611 60.648 922.97 964.548">
  <defs>
    <style>
      .cls-1 {
        fill: #1e90ff;
      }

      .cls-2 {
        fill: #53c7f0;
      }

      .cls-3 {
        fill: #929497;
        opacity: 0.3;
      }

      .cls-4 {
        fill: #fc9;
      }

      .cls-5 {
        fill: #fcd19d;
      }

      .cls-6 {
        fill: #331f17;
      }

      .cls-7 {
        fill: #e2e2e2;
      }

      .cls-8 {
        fill: #3c5267;
      }

      .cls-9 {
        fill: #ccc;
      }

      .cls-10 {
        fill: #e5e6e7;
      }

      .cls-11 {
        fill: #cfd1d2;
      }

      .cls-12 {
        fill: #babcbe;
      }

      .cls-13 {
        fill: #f0f1f1;
      }

      .cls-14 {
        fill: #ffdaa6;
      }

      .cls-15 {
        fill: #fbe1bf;
      }
    </style>
  </defs>
  <g id="news_paper1" data-name="news paper1" transform="translate(536 105)">
    <g id="Layer_1" data-name="Layer 1">
      <path id="Path_174" data-name="Path 174" class="cls-1" d="M-12.656-12.3c-60.377-62.646,42.857-17.119,135.1,0s73.642,85.015,246.514,80.779,286.972-134.2,383-73.815S672.983,59.574,708.78,221.678C749.2,404.7,899.822,693.091,800,800,612.011,1001.334,209.083,913.244,0,800S22.163,466.8-36.332,347.024s5.606-159.18,23.676-188.019C76.358,16.946,47.721,50.345-12.656-12.3Z"/>
      <rect id="Rectangle_2" data-name="Rectangle 2" class="cls-2" width="800" height="135" transform="translate(0 665)"/>
    </g>
    <g id="Layer_2" data-name="Layer 2">
      <path id="Path_1" data-name="Path 1" class="cls-3" d="M293.6,197.6,63.36,427.84l-29.85,4.2L0,466.33V800H567l56-56.33Z"/>
      <path id="Path_2" data-name="Path 2" class="cls-4" d="M387.28,202.19V420.82l-49.69-25.13V361.51S321,342.67,318.8,313.77c0,0-9.4-2-14.37-22.63s-8.29-35.94,9.12-33.92l11.33-71.11Z" transform="translate(0 0.04)"/>
      <path id="Path_3" data-name="Path 3" class="cls-5" d="M387.28,202.19V420.82L437,395.69V361.51s16.58-18.84,18.79-47.74c0,0,9.4-2,14.38-22.63s8.29-35.94-9.12-33.92l-11.34-71.11Z" transform="translate(0 0.04)"/>
      <path id="Path_4" data-name="Path 4" class="cls-6" d="M332.09,199.77s25.42,13.57,61.9,18.6S447,229.93,447,229.93s10.49,29.15,9.39,45.74A45.06,45.06,0,0,0,469.7,249c2.21-17.09,7.18-81.92-66.87-99.52S251.4,204.3,313.3,273.66c0,0,10.5-16.59,8.84-34.18C315.51,211.34,332.09,199.77,332.09,199.77Z" transform="translate(0 0.04)"/>
      <path id="Path_5" data-name="Path 5" class="cls-7" d="M336.07,365.44l-9.53,7.05,61.37,161.24V402.2Z"/>
      <path id="Path_6" data-name="Path 6" class="cls-7" d="M439.75,365.44l9.53,7.05L387.91,533.73V402.2Z"/>
      <path id="Path_7" data-name="Path 7" class="cls-8" d="M378.51,434.6l-9.89-27.38,9.89-6.87h19.78l9.89,6.87-9.89,27.38Z"/>
      <path id="Path_8" data-name="Path 8" class="cls-8" d="M378.31,434.6,359.29,543.25l29.64,41.35V434.94l-6.22-5.49Z"/>
      <path id="Path_9" data-name="Path 9" class="cls-8" d="M398.49,434.6,417.5,543.25,387.86,584.6V434.94l6.22-5.49Z"/>
      <path id="Path_10" data-name="Path 10" class="cls-9" d="M328.21,376.74l-100.59,47s-22.62,12.7-23.76,33.7-12.71,82.34-12.71,82.34L387.91,681.26V533.7Z" transform="translate(0 0.04)"/>
      <path id="Path_11" data-name="Path 11" class="cls-9" d="M447.62,376.74l100.58,47s22.66,12.73,23.76,33.73,12.72,82.34,12.72,82.34L387.91,681.26V533.7Z" transform="translate(0 0.04)"/>
      <path id="Path_12" data-name="Path 12" class="cls-10" d="M388.06,744.14c-77.69-19.26-157.84-21.22-235.31,0Q93.14,588.07,33.51,432c117.21-21.16,237.14-19.8,354.45,0Q388,588.07,388.06,744.14Z" transform="translate(0 0.04)"/>
      <path id="Path_13" data-name="Path 13" class="cls-11" d="M213.82,552a837.117,837.117,0,0,0-113,12.59Q78.16,501.79,55.52,439a1118.532,1118.532,0,0,1,131.23-12.58Q200.3,489.21,213.82,552Z" transform="translate(0 0.04)"/>
      <path id="Path_14" data-name="Path 14" class="cls-12" d="M213.82,552a837.117,837.117,0,0,0-113,12.59c-3.46-9.6-5.19-14.39-8.66-24A889.147,889.147,0,0,1,208.65,528C210.72,537.57,211.75,542.37,213.82,552Z" transform="translate(0 0.04)"/>
      <path id="Path_15" data-name="Path 15" class="cls-12" d="M369.67,486.91a1065.577,1065.577,0,0,0-161.73-12.78q-4.86-23.94-9.74-47.88A1173.227,1173.227,0,0,1,368.65,439Z" transform="translate(0 0.04)"/>
      <path id="Path_16" data-name="Path 16" class="cls-11" d="M285.43,481c-20.67-1.39-41.29-2.2-62-2.43.29,1.55.43,2.32.72,3.86,20.63.23,41.16,1,61.74,2.43Z" transform="translate(0 0.04)"/>
      <path id="Path_17" data-name="Path 17" class="cls-11" d="M286.11,486.75c-25.37-1.51-50.67-2.3-76.08-2.37.31,1.55.47,2.32.78,3.86,25.31.07,50.49.86,75.75,2.37Z" transform="translate(0 0.04)"/>
      <path id="Path_18" data-name="Path 18" class="cls-11" d="M280.59,492.09c-23.13-1.22-46.22-1.86-69.39-1.92.32,1.54.47,2.31.79,3.85,23.07.06,46.05.7,69.08,1.93C280.88,494.4,280.79,493.63,280.59,492.09Z" transform="translate(0 0.04)"/>
      <path id="Path_19" data-name="Path 19" class="cls-11" d="M287.46,498.31q-37.5-2.25-75.08-2.36l.78,3.85c25,.07,49.83.87,74.75,2.37Z" transform="translate(0 0.04)"/>
      <path id="Path_20" data-name="Path 20" class="cls-11" d="M286.77,504c-24.41-1.45-48.75-2.21-73.21-2.27.31,1.54.47,2.31.78,3.86,24.35.06,48.59.81,72.89,2.26C287.05,506.31,287,505.54,286.77,504Z" transform="translate(0 0.04)"/>
      <path id="Path_21" data-name="Path 21" class="cls-11" d="M288.81,509.88c-24.7-1.51-49.33-2.3-74.08-2.37.31,1.54.47,2.31.79,3.86,24.64.07,49.16.86,73.74,2.37Z" transform="translate(0 0.04)"/>
      <path id="Path_22" data-name="Path 22" class="cls-11" d="M278.11,514.87c-20.74-1-41.43-1.54-62.2-1.58.31,1.55.47,2.32.78,3.86q31,0,61.92,1.57Z" transform="translate(0 0.04)"/>
      <path id="Path_23" data-name="Path 23" class="cls-11" d="M290.16,521.45c-24.36-1.51-48.66-2.3-73.08-2.37.32,1.54.48,2.31.79,3.85,24.31.07,48.49.86,72.74,2.37Z" transform="translate(0 0.04)"/>
      <path id="Path_24" data-name="Path 24" class="cls-11" d="M286.87,526.93c-22.88-1.48-45.67-2.17-68.61-2.07.31,1.54.47,2.31.78,3.86,22.84-.1,45.52.59,68.3,2.06C287.15,529.24,287.06,528.47,286.87,526.93Z" transform="translate(0 0.04)"/>
      <path id="Path_25" data-name="Path 25" class="cls-11" d="M291.51,533q-36-2.265-72.07-2.37c.31,1.54.47,2.31.78,3.86,24,.07,47.82.86,71.74,2.36Z" transform="translate(0 0.04)"/>
      <path id="Path_26" data-name="Path 26" class="cls-11" d="M284.37,538.21q-31.87-1.71-63.76-1.79c.31,1.55.47,2.32.79,3.86,21.19.05,42.3.65,63.46,1.79C284.66,540.53,284.57,539.75,284.37,538.21Z" transform="translate(0 0.04)"/>
      <path id="Path_27" data-name="Path 27" class="cls-11" d="M292.87,544.57c-23.7-1.5-47.33-2.29-71.08-2.36l.78,3.85c23.64.07,47.16.86,70.74,2.37C293.13,546.89,293.05,546.12,292.87,544.57Z" transform="translate(0 0.04)"/>
      <path id="Path_28" data-name="Path 28" class="cls-11" d="M277.79,549.17c-18.3-.92-36.52-1.34-54.84-1.26l.78,3.85c18.24-.08,36.37.35,54.58,1.27C278.1,551.49,278,550.72,277.79,549.17Z" transform="translate(0 0.04)"/>
      <path id="Path_29" data-name="Path 29" class="cls-11" d="M368.91,491.23c-20.24-3.52-40.59-6.13-61-8.31l.35,3.85c20.36,2.19,40.62,4.8,60.76,8.32C369,493.55,368.94,492.78,368.91,491.23Z" transform="translate(0 0.04)"/>
      <path id="Path_30" data-name="Path 30" class="cls-11" d="M369,497c-25-4-49.94-7.19-75.12-9.65.16,1.54.25,2.31.41,3.85,25.07,2.46,49.95,5.65,74.79,9.66C369.09,499.33,369.07,498.56,369,497Z" transform="translate(0 0.04)"/>
      <path id="Path_31" data-name="Path 31" class="cls-11" d="M363.15,501.76c-22.81-3.48-45.63-6.33-68.61-8.61.17,1.55.25,2.31.42,3.85q34.31,3.44,68.3,8.62C363.21,504.08,363.19,503.3,363.15,501.76Z" transform="translate(0 0.04)"/>
      <path id="Path_32" data-name="Path 32" class="cls-11" d="M369.29,508.58c-24.63-4-49.27-7.16-74.13-9.65.17,1.54.26,2.32.42,3.86,24.75,2.49,49.28,5.67,73.8,9.65C369.34,510.9,369.32,510.12,369.29,508.58Z" transform="translate(0 0.04)"/>
      <path id="Path_33" data-name="Path 33" class="cls-11" d="M368.1,514.13q-36-5.79-72.31-9.42c.17,1.55.25,2.32.42,3.86,24.13,2.44,48.06,5.55,72,9.42C368.15,516.44,368.14,515.67,368.1,514.13Z" transform="translate(0 0.04)"/>
      <path id="Path_34" data-name="Path 34" class="cls-11" d="M369.55,520.15c-24.3-4-48.61-7.16-73.14-9.65.17,1.54.26,2.31.42,3.85,24.42,2.49,48.62,5.68,72.8,9.65C369.6,522.46,369.58,521.69,369.55,520.15Z" transform="translate(0 0.04)"/>
      <path id="Path_35" data-name="Path 35" class="cls-11" d="M358.62,524q-30.71-4.63-61.58-7.73c.16,1.54.25,2.31.42,3.85,20.52,2.08,40.91,4.65,61.29,7.73C358.69,526.32,358.67,525.55,358.62,524Z" transform="translate(0 0.04)"/>
      <path id="Path_36" data-name="Path 36" class="cls-11" d="M369.81,531.71c-24-4-47.95-7.16-72.15-9.65.17,1.54.25,2.31.42,3.86q36.135,3.72,71.81,9.65C369.86,534,369.84,533.25,369.81,531.71Z" transform="translate(0 0.04)"/>
      <path id="Path_37" data-name="Path 37" class="cls-11" d="M366.09,536.8c-22.52-3.81-45-6.76-67.8-9,.16,1.54.25,2.32.41,3.86,22.67,2.19,45.08,5.15,67.49,8.95Z" transform="translate(0 0.04)"/>
      <path id="Path_38" data-name="Path 38" class="cls-11" d="M370.06,543.28c-23.63-4-47.28-7.16-71.15-9.65.17,1.54.25,2.31.42,3.85,23.76,2.49,47.3,5.68,70.82,9.65C370.11,545.59,370.1,544.82,370.06,543.28Z" transform="translate(0 0.04)"/>
      <path id="Path_39" data-name="Path 39" class="cls-11" d="M362.6,547.68c-21-3.32-41.93-6.07-63.06-8.27.16,1.54.25,2.31.41,3.85q31.5,3.315,62.77,8.28C362.67,550,362.65,549.22,362.6,547.68Z" transform="translate(0 0.04)"/>
      <path id="Path_40" data-name="Path 40" class="cls-11" d="M370.32,554.84c-23.3-4-46.62-7.16-70.16-9.65.17,1.54.25,2.31.42,3.85,23.43,2.49,46.64,5.68,69.83,9.66C370.37,557.15,370.35,556.38,370.32,554.84Z" transform="translate(0 0.04)"/>
      <path id="Path_41" data-name="Path 41" class="cls-11" d="M355.13,557.82c-18.07-2.82-36.13-5.12-54.35-6.93.16,1.54.25,2.31.41,3.86,18.14,1.8,36.11,4.1,54.1,6.93C355.22,560.13,355.19,559.36,355.13,557.82Z" transform="translate(0 0.04)"/>
      <path id="Path_42" data-name="Path 42" class="cls-12" d="M371.28,598.12C285.51,583,198.67,582,113,598.28c-.49-1.35-.73-2-1.21-3.36,86-16.31,173.26-15.26,259.41-.15C371.24,596.11,371.25,596.78,371.28,598.12Z" transform="translate(0 0.04)"/>
      <path id="Path_43" data-name="Path 43" class="cls-12" d="M370.63,569c-29.11-5-58.25-8.66-87.74-11.12,1.06,8.07,1.58,12.1,2.64,20.16,28.77,2.46,57.17,6.12,85.55,11.12Z" transform="translate(0 0.04)"/>
      <path id="Path_44" data-name="Path 44" class="cls-12" d="M371.38,602.36c-27.9-5-55.82-8.66-84.12-11.12q4,30.57,8,61.15c26.1,2.46,51.78,6.12,77.45,11.12Q372,632.92,371.38,602.36Z" transform="translate(0 0.04)"/>
      <path id="Path_45" data-name="Path 45" class="cls-11" d="M278.05,557.59c-59.15-2.33-117.44.9-175.55,11.57l7.27,20.16c56.6-10.68,113.38-13.91,171-11.57C279.71,569.68,279.15,565.66,278.05,557.59Z" transform="translate(0 0.04)"/>
      <path id="Path_46" data-name="Path 46" class="cls-11" d="M194.88,591.25c-23.82,2.16-47.33,5.2-70.85,9.29.65,1.88,1,2.82,1.64,4.7,23.37-4.09,46.72-7.12,70.39-9.28C195.59,594.07,195.36,593.13,194.88,591.25Z" transform="translate(0 0.04)"/>
      <path id="Path_47" data-name="Path 47" class="cls-11" d="M196.66,598.31a781.749,781.749,0,0,0-79.58,11.25l1.7,4.71A774.123,774.123,0,0,1,197.84,603Z" transform="translate(0 0.04)"/>
      <path id="Path_48" data-name="Path 48" class="cls-11" d="M198.43,605.36a769.526,769.526,0,0,0-78.8,11.26l1.7,4.7a756.45,756.45,0,0,1,78.28-11.25C199.14,608.19,198.9,607.25,198.43,605.36Z" transform="translate(0 0.04)"/>
      <path id="Path_49" data-name="Path 49" class="cls-11" d="M200.21,612.42a754.484,754.484,0,0,0-78,11.25l1.7,4.71a741.616,741.616,0,0,1,77.51-11.26C200.91,615.24,200.68,614.3,200.21,612.42Z" transform="translate(0 0.04)"/>
      <path id="Path_50" data-name="Path 50" class="cls-11" d="M202,619.47a739.978,739.978,0,0,0-77.26,11.26c.68,1.88,1,2.82,1.71,4.71a727.01,727.01,0,0,1,76.73-11.26C202.69,622.3,202.45,621.36,202,619.47Z" transform="translate(0 0.04)"/>
      <path id="Path_51" data-name="Path 51" class="cls-11" d="M203.75,626.53a721.787,721.787,0,0,0-76.47,11.26c.68,1.88,1,2.82,1.69,4.7a712.634,712.634,0,0,1,76-11.26C204.46,629.35,204.22,628.41,203.75,626.53Z" transform="translate(0 0.04)"/>
      <path id="Path_52" data-name="Path 52" class="cls-11" d="M205.53,633.59a710.337,710.337,0,0,0-75.71,11.25l1.7,4.7a700.462,700.462,0,0,1,75.19-11.25C206.23,636.41,206,635.47,205.53,633.59Z" transform="translate(0 0.04)"/>
      <path id="Path_53" data-name="Path 53" class="cls-11" d="M207.3,640.64a693.24,693.24,0,0,0-74.93,11.26l1.7,4.7c24.52-5.44,49.35-8.82,74.41-11.25C208,643.47,207.77,642.53,207.3,640.64Z" transform="translate(0 0.04)"/>
      <path id="Path_54" data-name="Path 54" class="cls-11" d="M193.19,649.14c-19.63,2.54-38.94,5.76-58.27,9.81.67,1.88,1,2.82,1.69,4.71,19.2-4.06,38.37-7.27,57.87-9.81C194,652,193.71,651,193.19,649.14Z" transform="translate(0 0.04)"/>
      <path id="Path_55" data-name="Path 55" class="cls-11" d="M283.22,591c-25-1.07-49.76-1.26-74.72-.53.44,1.88.65,2.82,1.09,4.71,24.82-.74,49.47-.55,74.27.53C283.6,593.79,283.47,592.85,283.22,591Z" transform="translate(0 0.04)"/>
      <path id="Path_56" data-name="Path 56" class="cls-11" d="M284.18,598c-28.15-1.23-56.12-1.24-84.28.06.47,1.88.7,2.82,1.16,4.7,28-1.29,55.78-1.29,83.76-.06C284.57,600.85,284.44,599.91,284.18,598Z" transform="translate(0 0.04)"/>
      <path id="Path_57" data-name="Path 57" class="cls-11" d="M285.14,605.08c-27.89-1.23-55.6-1.23-83.5.06l1.17,4.7c27.72-1.29,55.25-1.29,83-.05C285.53,607.91,285.4,607,285.14,605.08Z" transform="translate(0 0.04)"/>
      <path id="Path_58" data-name="Path 58" class="cls-11" d="M286.11,612.14c-27.64-1.23-55.09-1.23-82.72.06.46,1.88.7,2.82,1.16,4.7,27.46-1.29,54.74-1.29,82.2-.06C286.49,615,286.37,614,286.11,612.14Z" transform="translate(0 0.04)"/>
      <path id="Path_59" data-name="Path 59" class="cls-11" d="M287.07,619.2c-27.38-1.24-54.56-1.24-81.94,0,.47,1.88.7,2.83,1.16,4.71,27.2-1.3,54.22-1.29,81.42-.06C287.45,622,287.33,621.08,287.07,619.2Z" transform="translate(0 0.04)"/>
      <path id="Path_60" data-name="Path 60" class="cls-11" d="M288,626.25c-27.11-1.23-54-1.23-81.15.06.46,1.88.69,2.82,1.16,4.7,26.94-1.29,53.69-1.29,80.64,0Z" transform="translate(0 0.04)"/>
      <path id="Path_61" data-name="Path 61" class="cls-11" d="M289,633.31c-26.86-1.23-53.53-1.24-80.38.06.46,1.88.69,2.82,1.16,4.7,26.68-1.29,53.17-1.29,79.86-.06C289.38,636.13,289.25,635.19,289,633.31Z" transform="translate(0 0.04)"/>
      <path id="Path_62" data-name="Path 62" class="cls-11" d="M290,640.36c-26.6-1.23-53-1.23-79.6.06.47,1.88.7,2.82,1.16,4.71,26.43-1.3,52.65-1.3,79.08-.06C290.35,643.19,290.22,642.25,290,640.36Z" transform="translate(0 0.04)"/>
      <path id="Path_63" data-name="Path 63" class="cls-11" d="M274.48,646.55c-20.84-.43-41.56-.13-62.38.93.47,1.88.7,2.82,1.16,4.7,20.69-1.06,41.26-1.35,62-.93Z" transform="translate(0 0.04)"/>
      <path id="Path_64" data-name="Path 64" class="cls-12" d="M372.86,669c-25.46-5-50.95-8.65-76.85-11.11q4,30.57,8,61.15a678.522,678.522,0,0,1,70.18,11.11Q373.54,699.56,372.86,669Z" transform="translate(0 0.04)"/>
      <path id="Path_65" data-name="Path 65" class="cls-11" d="M211.63,657.88c-21.71,2.16-43.07,5.19-64.44,9.28.65,1.88,1,2.82,1.64,4.71,21.22-4.1,42.43-7.13,64-9.29Z" transform="translate(0 0.04)"/>
      <path id="Path_66" data-name="Path 66" class="cls-11" d="M213.4,664.93a672.551,672.551,0,0,0-72.26,11.26l1.7,4.7a662.891,662.891,0,0,1,71.75-11.25C214.11,667.76,213.88,666.81,213.4,664.93Z" transform="translate(0 0.04)"/>
      <path id="Path_67" data-name="Path 67" class="cls-11" d="M215.17,672a656,656,0,0,0-71.48,11.26l1.7,4.7a646.468,646.468,0,0,1,71-11.26C215.89,674.81,215.65,673.87,215.17,672Z" transform="translate(0 0.04)"/>
      <path id="Path_68" data-name="Path 68" class="cls-11" d="M217,679a641.992,641.992,0,0,0-70.72,11.26l1.7,4.7a635.227,635.227,0,0,1,70.2-11.25C217.66,681.87,217.42,680.93,217,679Z" transform="translate(0 0.04)"/>
      <path id="Path_69" data-name="Path 69" class="cls-11" d="M218.72,686.1a628.3,628.3,0,0,0-69.94,11.26l1.7,4.7a616.541,616.541,0,0,1,69.42-11.25C219.43,688.92,219.2,688,218.72,686.1Z" transform="translate(0 0.04)"/>
      <path id="Path_70" data-name="Path 70" class="cls-11" d="M220.5,693.16a614.1,614.1,0,0,0-69.17,11.25l1.7,4.7a605.114,605.114,0,0,1,68.65-11.25Z" transform="translate(0 0.04)"/>
      <path id="Path_71" data-name="Path 71" class="cls-11" d="M222.27,700.22a598.466,598.466,0,0,0-68.39,11.25l1.7,4.7a591.795,591.795,0,0,1,67.87-11.25Z" transform="translate(0 0.04)"/>
      <path id="Path_72" data-name="Path 72" class="cls-11" d="M224,707.27a587.529,587.529,0,0,0-67.62,11.25l1.7,4.71A576.476,576.476,0,0,1,225.23,712C224.75,710.09,224.52,709.15,224,707.27Z" transform="translate(0 0.04)"/>
      <path id="Path_73" data-name="Path 73" class="cls-11" d="M211.46,715.77c-17.73,2.54-35.09,5.75-52.49,9.81l1.7,4.7c17.26-4.06,34.49-7.26,52.08-9.81C212.24,718.59,212,717.65,211.46,715.77Z" transform="translate(0 0.04)"/>
      <path id="Path_74" data-name="Path 74" class="cls-11" d="M292.31,657.6c-22.8-1.07-45.44-1.27-68.26-.53l1.1,4.7c22.66-.73,45.16-.54,67.8.54C292.7,660.42,292.57,659.48,292.31,657.6Z" transform="translate(0 0.04)"/>
      <path id="Path_75" data-name="Path 75" class="cls-11" d="M293.28,664.66c-25.71-1.24-51.22-1.24-76.92.05.46,1.88.7,2.83,1.16,4.71,25.53-1.3,50.86-1.29,76.4-.06C293.66,667.48,293.53,666.54,293.28,664.66Z" transform="translate(0 0.04)"/>
      <path id="Path_76" data-name="Path 76" class="cls-11" d="M294.24,671.71c-25.47-1.18-50.67-1.18-76.14.06l1.17,4.7c25.29-1.24,50.32-1.24,75.61-.05C294.62,674.54,294.5,673.59,294.24,671.71Z" transform="translate(0 0.04)"/>
      <path id="Path_77" data-name="Path 77" class="cls-11" d="M295.2,678.77c-25.2-1.19-50.15-1.19-75.36.06l1.17,4.7c25-1.25,49.8-1.24,74.84-.06Z" transform="translate(0 0.04)"/>
      <path id="Path_78" data-name="Path 78" class="cls-11" d="M296.16,685.82c-25-1.18-49.63-1.18-74.57.06.46,1.88.7,2.82,1.16,4.7,24.77-1.24,49.28-1.24,74.06-.05Z" transform="translate(0 0.04)"/>
      <path id="Path_79" data-name="Path 79" class="cls-11" d="M297.13,692.88c-24.69-1.18-49.11-1.19-73.8.06.46,1.88.7,2.82,1.16,4.7,24.52-1.24,48.76-1.24,73.28-.06C297.51,695.7,297.39,694.76,297.13,692.88Z" transform="translate(0 0.04)"/>
      <path id="Path_80" data-name="Path 80" class="cls-11" d="M298.09,699.94c-24.43-1.19-48.59-1.19-73,0,.47,1.89.7,2.83,1.17,4.71a718.327,718.327,0,0,1,72.49-.06C298.48,702.76,298.35,701.82,298.09,699.94Z" transform="translate(0 0.04)"/>
      <path id="Path_81" data-name="Path 81" class="cls-11" d="M299.05,707a716.081,716.081,0,0,0-72.23.06c.46,1.88.69,2.82,1.16,4.7a706.05,706.05,0,0,1,71.72,0Z" transform="translate(0 0.04)"/>
      <path id="Path_82" data-name="Path 82" class="cls-11" d="M285.09,713.18c-18.91-.39-37.64-.09-56.53.92.47,1.89.7,2.83,1.16,4.71,18.75-1,37.35-1.31,56.13-.93C285.55,716,285.39,715.06,285.09,713.18Z" transform="translate(0 0.04)"/>
      <path id="Path_83" data-name="Path 83" class="cls-13" d="M623.2,744.14c-77.46-21.22-157.62-19.26-235.31,0q0-156.06.1-312.13c117.29-19.81,237.26-21.17,354.45,0Q682.86,588.08,623.2,744.14Z" transform="translate(0 0.04)"/>
      <path id="Path_84" data-name="Path 84" class="cls-12" d="M702.71,488.17c-98.39-16.33-198-15.38-296.45,0q.5-23.6,1-47.17C511,425.59,616,424.68,719.73,441Q711.22,464.58,702.71,488.17Z" transform="translate(0 0.04)"/>
      <path id="Path_85" data-name="Path 85" class="cls-12" d="M695.68,507.62c-96.16-16.35-193.6-15.36-289.84,0v-1.77c96.43-15.36,194.08-16.34,290.44,0C696.06,506.56,695.94,506.92,695.68,507.62Z" transform="translate(0 0.04)"/>
      <path id="Path_86" data-name="Path 86" class="cls-11" d="M701.22,492.29c-30.55-5.16-61.16-8.82-92.1-11.23-1.07,4.24-1.6,6.37-2.67,10.61,30.56,2.41,60.78,6.07,90.93,11.23C698.92,498.66,699.68,496.54,701.22,492.29Z" transform="translate(0 0.04)"/>
      <path id="Path_87" data-name="Path 87" class="cls-11" d="M603.92,480.76a1014.757,1014.757,0,0,0-197.75,11.53c-.09,4.25-.13,6.37-.22,10.61a991.236,991.236,0,0,1,195.36-11.53C602.35,487.12,602.88,485,603.92,480.76Z" transform="translate(0 0.04)"/>
      <path id="Path_88" data-name="Path 88" class="cls-12" d="M645.92,639.55c-48.24-9.51-96.49-12.92-145.76-11.77l7.23-47.09c52.41-1.19,104,2.23,155.38,11.78Q654.34,616,645.92,639.55Z" transform="translate(0 0.04)"/>
      <path id="Path_89" data-name="Path 89" class="cls-11" d="M644.44,643.67c-14.75-3.34-29.7-5.94-44.74-7.86-.32,1.1-.48,1.65-.81,2.75,15,2.17,29.75,4.75,44.56,7.86C643.85,645.32,644.05,644.77,644.44,643.67Z" transform="translate(0 0.04)"/>
      <path id="Path_90" data-name="Path 90" class="cls-11" d="M597.18,635.49a774.472,774.472,0,0,0-97.65-3.6c-.17,1.11-.25,1.66-.42,2.76a766.728,766.728,0,0,1,97.28,3.59C596.71,637.14,596.87,636.59,597.18,635.49Z" transform="translate(0 0.04)"/>
      <path id="Path_91" data-name="Path 91" class="cls-11" d="M642.17,650c-14.74-3.11-29.39-5.69-44.32-7.86-.33,1.1-.49,1.65-.81,2.76,14.87,2.17,29.46,4.75,44.14,7.86C641.57,651.67,641.77,651.12,642.17,650Z" transform="translate(0 0.04)"/>
      <path id="Path_92" data-name="Path 92" class="cls-11" d="M595.35,641.83a759.223,759.223,0,0,0-96.8-3.59c-.17,1.1-.25,1.65-.42,2.75a755.266,755.266,0,0,1,96.43,3.6C594.88,643.49,595,642.93,595.35,641.83Z" transform="translate(0 0.04)"/>
      <path id="Path_93" data-name="Path 93" class="cls-11" d="M639.89,656.36c-14.59-3.11-29.1-5.69-43.9-7.86-.32,1.1-.48,1.65-.81,2.75,14.74,2.18,29.19,4.75,43.73,7.87C639.3,658,639.5,657.46,639.89,656.36Z" transform="translate(0 0.04)"/>
      <path id="Path_94" data-name="Path 94" class="cls-11" d="M593.52,648.18a745.741,745.741,0,0,0-95.94-3.59c-.17,1.1-.25,1.65-.42,2.75a739.954,739.954,0,0,1,95.56,3.59Z" transform="translate(0 0.04)"/>
      <path id="Path_95" data-name="Path 95" class="cls-11" d="M637.62,662.71c-14.46-3.11-28.83-5.69-43.49-7.87l-.8,2.76c14.6,2.17,28.91,4.75,43.3,7.86C637,664.36,637.23,663.81,637.62,662.71Z" transform="translate(0 0.04)"/>
      <path id="Path_96" data-name="Path 96" class="cls-11" d="M591.68,654.53a730.563,730.563,0,0,0-95.07-3.6c-.17,1.1-.26,1.65-.42,2.76a726.72,726.72,0,0,1,94.7,3.59C591.21,656.18,591.37,655.63,591.68,654.53Z" transform="translate(0 0.04)"/>
      <path id="Path_97" data-name="Path 97" class="cls-11" d="M635.35,669.05c-14.32-3.11-28.55-5.69-43.07-7.86-.33,1.1-.49,1.65-.81,2.75,14.46,2.17,28.63,4.75,42.89,7.87C634.75,670.71,635,670.15,635.35,669.05Z" transform="translate(0 0.04)"/>
      <path id="Path_98" data-name="Path 98" class="cls-11" d="M589.85,660.87a719.307,719.307,0,0,0-94.22-3.59c-.17,1.1-.25,1.65-.42,2.75a712,712,0,0,1,93.85,3.6C589.38,662.52,589.53,662,589.85,660.87Z" transform="translate(0 0.04)"/>
      <path id="Path_99" data-name="Path 99" class="cls-11" d="M633.08,675.4c-14.18-3.11-28.27-5.69-42.66-7.87l-.8,2.76c14.32,2.17,28.35,4.75,42.47,7.86C632.49,677.05,632.68,676.5,633.08,675.4Z" transform="translate(0 0.04)"/>
      <path id="Path_100" data-name="Path 100" class="cls-11" d="M588,667.22a704.566,704.566,0,0,0-93.36-3.6c-.17,1.1-.25,1.65-.42,2.76a698.863,698.863,0,0,1,93,3.59Z" transform="translate(0 0.04)"/>
      <path id="Path_101" data-name="Path 101" class="cls-11" d="M630.8,681.74c-14-3.11-28-5.69-42.24-7.86l-.8,2.75c14.19,2.18,28.08,4.76,42.06,7.87Z" transform="translate(0 0.04)"/>
      <path id="Path_102" data-name="Path 102" class="cls-11" d="M586.19,673.56a691.737,691.737,0,0,0-92.5-3.59c-.17,1.1-.26,1.65-.43,2.75a686.1,686.1,0,0,1,92.13,3.6Z" transform="translate(0 0.04)"/>
      <path id="Path_103" data-name="Path 103" class="cls-11" d="M483.52,716.26a645.98,645.98,0,0,0-81.45,11.84q2.49-109.36,5-218.73a1095.429,1095.429,0,0,1,109-11.83Q499.78,606.91,483.52,716.26Z" transform="translate(0 0.04)"/>
      <path id="Path_104" data-name="Path 104" class="cls-11" d="M576.07,499.69q-28.17-.37-56.3.29l.4-2.61c18.84-.44,37.63-.54,56.47-.29C576.41,498.12,576.3,498.64,576.07,499.69Z" transform="translate(0 0.04)"/>
      <path id="Path_105" data-name="Path 105" class="cls-11" d="M575,504.45c-18.68-.25-37.31-.15-56,.29.17-1.05.24-1.57.4-2.61q28.09-.67,56.16-.29C575.37,502.88,575.26,503.41,575,504.45Z" transform="translate(0 0.04)"/>
      <path id="Path_106" data-name="Path 106" class="cls-11" d="M574,509.21q-27.86-.37-55.67.29l.4-2.61q27.94-.67,55.85-.3C574.33,507.64,574.21,508.16,574,509.21Z" transform="translate(0 0.04)"/>
      <path id="Path_107" data-name="Path 107" class="cls-11" d="M573,514q-27.71-.36-55.37.29l.4-2.61c18.53-.43,37-.54,55.54-.29A21.134,21.134,0,0,0,573,514Z" transform="translate(0 0.04)"/>
      <path id="Path_108" data-name="Path 108" class="cls-11" d="M571.91,518.72c-18.37-.24-36.69-.14-55.06.29l.4-2.61q27.63-.66,55.23-.29C572.25,517.16,572.13,517.68,571.91,518.72Z" transform="translate(0 0.04)"/>
      <path id="Path_109" data-name="Path 109" class="cls-11" d="M570.87,523.48q-27.4-.36-54.75.29l.4-2.61c18.32-.44,36.59-.54,54.92-.29C571.21,521.92,571.09,522.44,570.87,523.48Z" transform="translate(0 0.04)"/>
      <path id="Path_110" data-name="Path 110" class="cls-11" d="M569.82,528.24c-18.16-.25-36.27-.15-54.43.29l.4-2.61q27.32-.66,54.6-.29C570.17,526.68,570.05,527.2,569.82,528.24Z" transform="translate(0 0.04)"/>
      <path id="Path_111" data-name="Path 111" class="cls-11" d="M568.78,533q-27.09-.37-54.12.29l.4-2.61q27.16-.66,54.29-.29C569.12,531.44,569,532,568.78,533Z" transform="translate(0 0.04)"/>
      <path id="Path_112" data-name="Path 112" class="cls-11" d="M567.74,537.76q-26.93-.37-53.81.29l.4-2.61q27-.66,54-.29C568.08,536.19,568,536.72,567.74,537.76Z" transform="translate(0 0.04)"/>
      <path id="Path_113" data-name="Path 113" class="cls-11" d="M566.7,542.52c-17.85-.25-35.65-.15-53.5.29l.4-2.61q26.85-.66,53.67-.29C567,541,566.93,541.48,566.7,542.52Z" transform="translate(0 0.04)"/>
      <path id="Path_114" data-name="Path 114" class="cls-11" d="M565.66,547.28q-26.62-.37-53.19.29l.4-2.61q26.7-.66,53.36-.29C566,545.71,565.89,546.24,565.66,547.28Z" transform="translate(0 0.04)"/>
      <path id="Path_115" data-name="Path 115" class="cls-11" d="M564.62,552c-17.65-.25-35.24-.15-52.88.29l.4-2.61q26.54-.66,53.05-.29C565,550.47,564.84,551,564.62,552Z" transform="translate(0 0.04)"/>
      <path id="Path_116" data-name="Path 116" class="cls-11" d="M563.57,556.8q-26.3-.37-52.56.29l.4-2.61q26.38-.68,52.73-.3C563.92,555.23,563.8,555.75,563.57,556.8Z" transform="translate(0 0.04)"/>
      <path id="Path_117" data-name="Path 117" class="cls-11" d="M562.53,561.56q-26.14-.37-52.25.29l.4-2.62c17.49-.43,34.93-.53,52.42-.29Z" transform="translate(0 0.04)"/>
      <path id="Path_118" data-name="Path 118" class="cls-11" d="M561.49,566.32c-17.33-.25-34.61-.15-51.94.29L510,564c17.38-.43,34.72-.53,52.11-.29Z" transform="translate(0 0.04)"/>
      <path id="Path_119" data-name="Path 119" class="cls-11" d="M560.45,571.07c-17.23-.24-34.41-.14-51.63.3l.4-2.62q25.92-.66,51.8-.29C560.79,569.51,560.68,570,560.45,571.07Z" transform="translate(0 0.04)"/>
      <path id="Path_120" data-name="Path 120" class="cls-11" d="M559.41,575.83c-17.13-.25-34.2-.15-51.32.3l.4-2.62c17.18-.44,34.31-.54,51.49-.29C559.76,574.27,559.64,574.79,559.41,575.83Z" transform="translate(0 0.04)"/>
      <path id="Path_121" data-name="Path 121" class="cls-11" d="M622.78,546.39c-17.4-1.61-34.78-2.85-52.24-3.74.24-1,.35-1.57.59-2.62q26.26,1.35,52.41,3.75C623.23,544.82,623.08,545.35,622.78,546.39Z" transform="translate(0 0.04)"/>
      <path id="Path_122" data-name="Path 122" class="cls-11" d="M621.41,551.15q-25.95-2.42-51.93-3.74c.23-1,.35-1.57.58-2.62,17.42.9,34.75,2.14,52.1,3.75Z" transform="translate(0 0.04)"/>
      <path id="Path_123" data-name="Path 123" class="cls-11" d="M620,555.91c-17.2-1.61-34.37-2.85-51.62-3.74.23-1,.35-1.57.58-2.62,17.31.9,34.54,2.14,51.79,3.75Z" transform="translate(0 0.04)"/>
      <path id="Path_124" data-name="Path 124" class="cls-11" d="M618.66,560.67c-17.09-1.61-34.16-2.85-51.31-3.75.23-1,.35-1.56.58-2.61,17.21.9,34.34,2.14,51.49,3.74C619.11,559.1,619,559.62,618.66,560.67Z" transform="translate(0 0.04)"/>
      <path id="Path_125" data-name="Path 125" class="cls-11" d="M617.28,565.42q-25.47-2.4-51-3.74c.23-1,.35-1.56.58-2.61C584,560,601,561.21,618,562.81,617.74,563.86,617.58,564.38,617.28,565.42Z" transform="translate(0 0.04)"/>
      <path id="Path_126" data-name="Path 126" class="cls-11" d="M615.91,570.18c-16.88-1.6-33.74-2.84-50.69-3.74.24-1,.35-1.57.59-2.61,17,.9,33.92,2.13,50.86,3.74C616.36,568.62,616.21,569.14,615.91,570.18Z" transform="translate(0 0.04)"/>
      <path id="Path_127" data-name="Path 127" class="cls-11" d="M614.54,574.94c-16.78-1.6-33.54-2.84-50.38-3.74l.58-2.61q25.35,1.35,50.55,3.74Z" transform="translate(0 0.04)"/>
      <path id="Path_128" data-name="Path 128" class="cls-11" d="M613.16,579.7q-25-2.4-50.06-3.74c.23-1.05.35-1.57.58-2.61,16.8.9,33.51,2.13,50.24,3.74C613.62,578.13,613.47,578.66,613.16,579.7Z" transform="translate(0 0.04)"/>
      <path id="Path_129" data-name="Path 129" class="cls-11" d="M691.68,511.75q-26.22-4.665-52.61-7.77c.31-1.05.46-1.57.76-2.61,17.72,2.09,35.25,4.66,52.78,7.77C692.24,510.19,692.05,510.71,691.68,511.75Z" transform="translate(0 0.04)"/>
      <path id="Path_130" data-name="Path 130" class="cls-11" d="M690,516.51c-17.37-3.11-34.74-5.68-52.3-7.77l.77-2.62c17.61,2.1,35,4.67,52.47,7.78C690.53,515,690.35,515.47,690,516.51Z" transform="translate(0 0.04)"/>
      <path id="Path_131" data-name="Path 131" class="cls-11" d="M688.27,521.27c-17.27-3.11-34.54-5.68-52-7.77.3-1,.45-1.57.76-2.62,17.51,2.1,34.84,4.66,52.17,7.78C688.83,519.71,688.64,520.23,688.27,521.27Z" transform="translate(0 0.04)"/>
      <path id="Path_132" data-name="Path 132" class="cls-11" d="M686.56,526c-17.17-3.11-34.33-5.68-51.68-7.78.31-1,.46-1.56.76-2.61,17.41,2.1,34.63,4.66,51.86,7.78C687.13,524.46,686.94,525,686.56,526Z" transform="translate(0 0.04)"/>
      <path id="Path_133" data-name="Path 133" class="cls-11" d="M684.86,530.79c-17.07-3.12-34.13-5.68-51.38-7.78.31-1,.46-1.56.77-2.61,17.3,2.1,34.42,4.66,51.55,7.78C685.42,529.22,685.23,529.75,684.86,530.79Z" transform="translate(0 0.04)"/>
      <path id="Path_134" data-name="Path 134" class="cls-11" d="M683.16,535.55c-17-3.12-33.93-5.68-51.08-7.78.31-1,.47-1.56.77-2.61,17.21,2.09,34.22,4.66,51.24,7.78C683.72,534,683.53,534.5,683.16,535.55Z" transform="translate(0 0.04)"/>
      <path id="Path_135" data-name="Path 135" class="cls-11" d="M681.45,540.31c-16.86-3.12-33.72-5.68-50.76-7.78.31-1,.46-1.56.77-2.61,17.1,2.09,34,4.66,50.93,7.78C682,538.74,681.83,539.26,681.45,540.31Z" transform="translate(0 0.04)"/>
      <path id="Path_136" data-name="Path 136" class="cls-11" d="M679.75,545.07c-16.76-3.12-33.51-5.68-50.46-7.78.31-1,.46-1.57.77-2.61,17,2.1,33.81,4.66,50.63,7.78C680.31,543.5,680.12,544,679.75,545.07Z" transform="translate(0 0.04)"/>
      <path id="Path_137" data-name="Path 137" class="cls-11" d="M678,549.83c-16.65-3.12-33.3-5.69-50.14-7.78.3-1,.46-1.57.76-2.61,16.9,2.09,33.61,4.66,50.32,7.77Z" transform="translate(0 0.04)"/>
      <path id="Path_138" data-name="Path 138" class="cls-11" d="M676.34,554.59c-16.55-3.12-33.1-5.68-49.84-7.78.31-1,.46-1.57.77-2.61,16.79,2.09,33.4,4.65,50,7.77C676.9,553,676.71,553.54,676.34,554.59Z" transform="translate(0 0.04)"/>
      <path id="Path_139" data-name="Path 139" class="cls-11" d="M674.64,559.35c-16.45-3.13-32.9-5.69-49.54-7.78.31-1.05.46-1.57.77-2.61,16.69,2.09,33.19,4.65,49.7,7.77Z" transform="translate(0 0.04)"/>
      <path id="Path_140" data-name="Path 140" class="cls-11" d="M672.93,564.11c-16.35-3.13-32.69-5.69-49.22-7.78.31-1.05.46-1.57.76-2.62,16.6,2.1,33,4.66,49.4,7.78C673.49,562.54,673.3,563.06,672.93,564.11Z" transform="translate(0 0.04)"/>
      <path id="Path_141" data-name="Path 141" class="cls-11" d="M671.23,568.86c-16.19-3.29-32.5-5.68-48.92-7.77l.77-2.62c16.47,2.1,32.84,4.49,49.08,7.78C671.79,567.3,671.6,567.82,671.23,568.86Z" transform="translate(0 0.04)"/>
      <path id="Path_142" data-name="Path 142" class="cls-11" d="M669.52,573.62c-16.08-3.29-32.29-5.68-48.61-7.78.31-1,.46-1.56.77-2.61,16.37,2.1,32.63,4.49,48.78,7.78C670.08,572.06,669.9,572.58,669.52,573.62Z" transform="translate(0 0.04)"/>
      <path id="Path_143" data-name="Path 143" class="cls-11" d="M667.82,578.38c-16-3.29-32.09-5.68-48.3-7.78.31-1,.46-1.56.76-2.61,16.27,2.1,32.43,4.49,48.47,7.78C668.38,576.81,668.2,577.34,667.82,578.38Z" transform="translate(0 0.04)"/>
      <path id="Path_144" data-name="Path 144" class="cls-11" d="M666.12,583.14c-15.88-3.29-31.89-5.68-48-7.78.31-1,.46-1.56.77-2.61,16.16,2.09,32.22,4.49,48.16,7.78Z" transform="translate(0 0.04)"/>
      <path id="Path_145" data-name="Path 145" class="cls-11" d="M664.41,587.9c-15.78-3.29-31.68-5.69-47.69-7.78.31-1,.46-1.56.77-2.61,16.06,2.09,32,4.49,47.86,7.78C665,586.33,664.78,586.85,664.41,587.9Z" transform="translate(0 0.04)"/>
      <path id="Path_146" data-name="Path 146" class="cls-11" d="M627.92,689.8c-13.66-3.07-27.23-5.62-41.09-7.78l.76-2.61c13.92,2.15,27.55,4.71,41.27,7.78C628.49,688.23,628.3,688.75,627.92,689.8Z" transform="translate(0 0.04)"/>
      <path id="Path_147" data-name="Path 147" class="cls-11" d="M626.21,694.56c-13.55-3.07-27-5.62-40.78-7.78.31-1,.46-1.57.76-2.61,13.82,2.15,27.35,4.7,41,7.78C626.78,693,626.59,693.51,626.21,694.56Z" transform="translate(0 0.04)"/>
      <path id="Path_148" data-name="Path 148" class="cls-11" d="M624.51,699.32c-13.45-3.07-26.82-5.62-40.48-7.78l.77-2.62c13.72,2.16,27.14,4.71,40.65,7.78C625.07,697.75,624.88,698.27,624.51,699.32Z" transform="translate(0 0.04)"/>
      <path id="Path_149" data-name="Path 149" class="cls-11" d="M622.81,704.08c-13.35-3.08-26.61-5.63-40.17-7.78.3-1,.46-1.57.76-2.61,13.62,2.15,26.94,4.7,40.35,7.77C623.37,702.51,623.18,703,622.81,704.08Z" transform="translate(0 0.04)"/>
      <path id="Path_150" data-name="Path 150" class="cls-11" d="M621.11,708.84c-13.26-3.08-26.41-5.63-39.87-7.78.3-1,.46-1.57.76-2.62,13.52,2.16,26.73,4.71,40,7.78Z" transform="translate(0 0.04)"/>
      <path id="Path_151" data-name="Path 151" class="cls-11" d="M619.4,713.6c-13.15-3.08-26.2-5.63-39.56-7.78l.77-2.62c13.41,2.16,26.52,4.71,39.72,7.78Z" transform="translate(0 0.04)"/>
      <path id="Path_152" data-name="Path 152" class="cls-11" d="M617.69,718.35c-13-3.07-26-5.62-39.24-7.77.3-1.05.46-1.57.76-2.62,13.32,2.16,26.32,4.71,39.42,7.78C618.25,716.78,618.07,717.31,617.69,718.35Z" transform="translate(0 0.04)"/>
      <path id="Path_153" data-name="Path 153" class="cls-11" d="M616,723.11c-12.94-3.07-25.78-5.62-38.94-7.78.31-1,.46-1.56.77-2.61,13.21,2.16,26.11,4.7,39.11,7.78C616.55,721.55,616.36,722.07,616,723.11Z" transform="translate(0 0.04)"/>
      <path id="Path_154" data-name="Path 154" class="cls-11" d="M614.29,727.87c-12.84-3.07-25.58-5.62-38.64-7.77l.77-2.62c13.11,2.16,25.91,4.7,38.8,7.78Z" transform="translate(0 0.04)"/>
      <path id="Path_155" data-name="Path 155" class="cls-11" d="M583.74,681.6c-14.47-1.57-28.88-2.81-43.42-3.74.23-1.05.35-1.57.59-2.62,14.59.94,29.06,2.18,43.59,3.75C584.2,680,584.05,680.56,583.74,681.6Z" transform="translate(0 0.04)"/>
      <path id="Path_156" data-name="Path 156" class="cls-11" d="M582.37,686.36c-14.37-1.57-28.68-2.81-43.11-3.74.23-1,.35-1.57.58-2.62,14.49.94,28.86,2.18,43.28,3.75Z" transform="translate(0 0.04)"/>
      <path id="Path_157" data-name="Path 157" class="cls-11" d="M581,691.12c-14.27-1.57-28.48-2.81-42.81-3.74.23-1,.35-1.57.59-2.62,14.39.94,28.65,2.18,43,3.75Z" transform="translate(0 0.04)"/>
      <path id="Path_158" data-name="Path 158" class="cls-11" d="M579.62,695.88c-14.16-1.57-28.26-2.81-42.49-3.74.23-1,.35-1.57.59-2.62,14.28.94,28.44,2.17,42.66,3.75C580.08,694.31,579.92,694.83,579.62,695.88Z" transform="translate(0 0.04)"/>
      <path id="Path_159" data-name="Path 159" class="cls-11" d="M578.25,700.64c-14.06-1.57-28.06-2.81-42.18-3.75.23-1,.35-1.56.58-2.61,14.18.94,28.24,2.17,42.35,3.74Z" transform="translate(0 0.04)"/>
      <path id="Path_160" data-name="Path 160" class="cls-11" d="M576.87,705.4c-14-1.57-27.85-2.81-41.87-3.75.23-1,.35-1.56.58-2.61,14.08.94,28,2.17,42,3.74C577.33,703.83,577.17,704.35,576.87,705.4Z" transform="translate(0 0.04)"/>
      <path id="Path_161" data-name="Path 161" class="cls-11" d="M575.5,710.16c-13.85-1.58-27.64-2.81-41.56-3.75l.58-2.61c14,.94,27.83,2.17,41.74,3.74C576,708.59,575.8,709.11,575.5,710.16Z" transform="translate(0 0.04)"/>
      <path id="Path_162" data-name="Path 162" class="cls-11" d="M574.13,714.91c-13.75-1.57-27.44-2.8-41.26-3.74.24-1,.35-1.57.59-2.61,13.87.94,27.62,2.17,41.42,3.74Z" transform="translate(0 0.04)"/>
      <path id="Path_163" data-name="Path 163" class="cls-11" d="M572.75,719.68c-13.64-1.58-27.23-2.81-40.94-3.75.23-1,.35-1.57.59-2.61,13.77.93,27.41,2.17,41.11,3.74C573.21,718.11,573.06,718.63,572.75,719.68Z" transform="translate(0 0.04)"/>
      <path id="Path_164" data-name="Path 164" class="cls-11" d="M624.43,540.7c-17.53-1.61-35-2.85-52.61-3.75q4.44-19.87,8.89-39.75,27.66,1.35,55.19,3.75Q630.17,520.83,624.43,540.7Z" transform="translate(0 0.04)"/>
      <path id="Path_165" data-name="Path 165" class="cls-11" d="M528.78,715.81c-14.09-.22-28.09-.11-42.17.29l6.24-40.69c15-.4,29.86-.5,44.83-.29Q533.24,695.46,528.78,715.81Z" transform="translate(0 0.04)"/>
      <path id="Path_166" data-name="Path 166" class="cls-14" d="M133.81,579.84c.61,5.58-3.94,10.67-10.17,11.36l-33.57,3.7c-6.23.69-11.78-3.29-12.4-8.87h0c-.62-5.59,3.94-10.67,10.17-11.36L121.41,571c6.23-.68,11.78,3.29,12.4,8.88Z" transform="translate(0 0.04)"/>
      <path id="Path_167" data-name="Path 167" class="cls-14" d="M144.06,596.51c.62,5.59-3.94,10.68-10.16,11.36L92,612.49c-6.23.69-11.78-3.28-12.4-8.87h0C79,598,83.54,593,89.78,592.26l41.88-4.62C137.89,586.95,143.44,590.93,144.06,596.51Z" transform="translate(0 0.04)"/>
      <path id="Path_168" data-name="Path 168" class="cls-14" d="M145.79,612.17c.61,5.59-3.94,10.67-10.17,11.36l-41.89,4.62c-6.23.68-11.78-3.29-12.39-8.88h0c-.62-5.58,3.93-10.67,10.16-11.36l41.89-4.61C139.62,602.61,145.17,606.58,145.79,612.17Z" transform="translate(0 0.04)"/>
      <path id="Path_169" data-name="Path 169" class="cls-14" d="M138.25,626.28c.46,4.14-2.92,7.92-7.54,8.43l-31.08,3.42c-4.62.51-8.74-2.43-9.2-6.58h0c-.46-4.14,2.92-7.92,7.54-8.43l31.09-3.43c4.62-.51,8.74,2.44,9.19,6.59Z" transform="translate(0 0.04)"/>
      <path id="Path_170" data-name="Path 170" class="cls-15" d="M647.07,579.84c-.62,5.58,3.93,10.67,10.16,11.36l33.58,3.7c6.23.69,11.78-3.29,12.39-8.87h0c.62-5.59-3.93-10.67-10.16-11.36L659.46,571c-6.23-.68-11.78,3.29-12.39,8.88Z" transform="translate(0 0.04)"/>
      <path id="Path_171" data-name="Path 171" class="cls-15" d="M636.81,596.51c-.61,5.59,3.94,10.68,10.17,11.36l41.89,4.62c6.23.69,11.78-3.28,12.39-8.87h0c.62-5.59-3.93-10.67-10.16-11.36l-41.89-4.62C642.98,586.95,637.43,590.93,636.81,596.51Z" transform="translate(0 0.04)"/>
      <path id="Path_172" data-name="Path 172" class="cls-15" d="M635.09,612.17c-.62,5.59,3.93,10.67,10.16,11.36l41.89,4.62c6.23.68,11.78-3.29,12.4-8.88h0c.61-5.58-3.94-10.67-10.17-11.36l-41.89-4.61C641.25,602.61,635.7,606.58,635.09,612.17Z" transform="translate(0 0.04)"/>
      <path id="Path_173" data-name="Path 173" class="cls-15" d="M642.62,626.28c-.46,4.14,2.92,7.92,7.54,8.43l31.09,3.42c4.62.51,8.74-2.43,9.19-6.58h0c.46-4.14-2.92-7.92-7.54-8.43l-31.08-3.43C647.19,619.18,643.08,622.13,642.62,626.28Z" transform="translate(0 0.04)"/>
    </g>
  </g>
</svg>
