<svg xmlns="http://www.w3.org/2000/svg" xmlns:xlink="http://www.w3.org/1999/xlink" viewBox="466 174 812 812">
  <defs>
    <style>
      .cls-1 {
        fill: #fff;
        stroke: #707070;
      }

      .cls-2 {
        clip-path: url(#clip-path);
      }

      .cls-3 {
        fill: #1e90ff;
      }

      .cls-4 {
        fill: #53c7f0;
      }

      .cls-5 {
        fill: #929497;
        opacity: 0.3;
      }

      .cls-6 {
        fill: #fc9;
      }

      .cls-7 {
        fill: #fcd19d;
      }

      .cls-8 {
        fill: #331f17;
      }

      .cls-9 {
        fill: #e2e2e2;
      }

      .cls-10 {
        fill: #3c5267;
      }

      .cls-11 {
        fill: #ccc;
      }

      .cls-12 {
        fill: #e5e6e7;
      }

      .cls-13 {
        fill: #cfd1d2;
      }

      .cls-14 {
        fill: #babcbe;
      }

      .cls-15 {
        fill: #f0f1f1;
      }

      .cls-16 {
        fill: #ffdaa6;
      }

      .cls-17 {
        fill: #fbe1bf;
      }
    </style>
    <clipPath id="clip-path">
      <circle id="Ellipse_1" data-name="Ellipse 1" class="cls-1" cx="406" cy="406" r="406" transform="translate(491 186)"/>
    </clipPath>
  </defs>
  <g id="news1" class="cls-2" transform="translate(-25 -12)">
    <g id="news_paper1" data-name="news paper1" transform="translate(491 186)">
      <g id="Layer_1" data-name="Layer 1">
        <rect id="Rectangle_1" data-name="Rectangle 1" class="cls-3" width="812" height="812"/>
        <rect id="Rectangle_2" data-name="Rectangle 2" class="cls-4" width="812" height="137.025" transform="translate(0 674.975)"/>
      </g>
      <g id="Layer_2" data-name="Layer 2">
        <path id="Path_1" data-name="Path 1" class="cls-5" d="M298,200.564,64.31,434.258l-30.3,4.263L0,473.325V812H575.505l56.84-57.175Z"/>
        <path id="Path_2" data-name="Path 2" class="cls-6" d="M393.089,205.223V427.132l-50.435-25.507V366.933s-16.839-19.123-19.072-48.456c0,0-9.541-2.03-14.586-22.969s-8.414-36.479,9.257-34.429l11.5-72.177Z" transform="translate(0 0.041)"/>
        <path id="Path_3" data-name="Path 3" class="cls-7" d="M393.089,205.223V427.132l50.466-25.507V366.933s16.829-19.123,19.072-48.456c0,0,9.541-2.03,14.6-22.969s8.414-36.479-9.257-34.429L456.456,188.9Z" transform="translate(0 0.041)"/>
        <path id="Path_4" data-name="Path 4" class="cls-8" d="M337.071,202.767s25.8,13.774,62.828,18.879S453.7,233.379,453.7,233.379s10.647,29.587,9.531,46.426a45.736,45.736,0,0,0,13.51-27.07c2.243-17.346,7.288-83.149-67.873-101.013S255.171,207.365,318,277.765c0,0,10.658-16.839,8.973-34.693C320.243,214.51,337.071,202.767,337.071,202.767Z" transform="translate(0 0.041)"/>
        <path id="Path_5" data-name="Path 5" class="cls-9" d="M341.111,370.922l-9.673,7.156,62.291,163.659v-133.5Z"/>
        <path id="Path_6" data-name="Path 6" class="cls-9" d="M446.346,370.922l9.673,7.156L393.729,541.736v-133.5Z"/>
        <path id="Path_7" data-name="Path 7" class="cls-10" d="M384.188,441.119l-10.038-27.791,10.038-6.973h20.077l10.038,6.973-10.038,27.791Z"/>
        <path id="Path_8" data-name="Path 8" class="cls-10" d="M383.985,441.119,364.679,551.4l30.085,41.97v-151.9l-6.313-5.572Z"/>
        <path id="Path_9" data-name="Path 9" class="cls-10" d="M404.467,441.119l19.3,110.28-30.085,41.97v-151.9l6.313-5.572Z"/>
        <path id="Path_10" data-name="Path 10" class="cls-11" d="M333.133,382.391l-102.1,47.7s-22.959,12.891-24.116,34.206-12.9,83.575-12.9,83.575l199.711,143.6V541.706Z" transform="translate(0 0.041)"/>
        <path id="Path_11" data-name="Path 11" class="cls-11" d="M454.334,382.391l102.089,47.7s23,12.921,24.116,34.236,12.911,83.575,12.911,83.575L393.729,691.479V541.706Z" transform="translate(0 0.041)"/>
        <path id="Path_12" data-name="Path 12" class="cls-12" d="M393.881,755.3c-78.855-19.549-160.208-21.538-238.84,0Q94.537,596.891,34.013,438.48c118.968-21.477,240.7-20.1,359.767,0Q393.82,596.891,393.881,755.3Z" transform="translate(0 0.041)"/>
        <path id="Path_13" data-name="Path 13" class="cls-13" d="M217.027,560.28a849.672,849.672,0,0,0-114.695,12.779q-23-63.742-45.98-127.474a1135.313,1135.313,0,0,1,133.2-12.769Q203.3,496.548,217.027,560.28Z" transform="translate(0 0.041)"/>
        <path id="Path_14" data-name="Path 14" class="cls-14" d="M217.027,560.28a849.672,849.672,0,0,0-114.695,12.779c-3.512-9.744-5.268-14.606-8.79-24.36A902.493,902.493,0,0,1,211.78,535.92C213.881,545.634,214.926,550.506,217.027,560.28Z" transform="translate(0 0.041)"/>
        <path id="Path_15" data-name="Path 15" class="cls-14" d="M375.215,494.214a1081.562,1081.562,0,0,0-164.156-12.972q-4.933-24.3-9.886-48.6A1190.825,1190.825,0,0,1,374.18,445.585Z" transform="translate(0 0.041)"/>
        <path id="Path_16" data-name="Path 16" class="cls-13" d="M289.711,488.215c-20.98-1.411-41.909-2.233-62.93-2.466.294,1.573.436,2.355.731,3.918,20.939.233,41.777,1.015,62.666,2.466Z" transform="translate(0 0.041)"/>
        <path id="Path_17" data-name="Path 17" class="cls-13" d="M290.4,494.051c-25.751-1.533-51.43-2.334-77.221-2.406.315,1.573.477,2.355.792,3.918,25.69.071,51.247.873,76.886,2.406Z" transform="translate(0 0.041)"/>
        <path id="Path_18" data-name="Path 18" class="cls-13" d="M284.8,499.471c-23.477-1.238-46.913-1.888-70.431-1.949.325,1.563.477,2.345.8,3.908,23.416.061,46.741.711,70.116,1.959C285.093,501.816,285,501.034,284.8,499.471Z" transform="translate(0 0.041)"/>
        <path id="Path_19" data-name="Path 19" class="cls-13" d="M291.772,505.785q-38.062-2.284-76.206-2.4l.792,3.908c25.375.071,50.577.883,75.871,2.406Z" transform="translate(0 0.041)"/>
        <path id="Path_20" data-name="Path 20" class="cls-13" d="M291.072,511.56c-24.776-1.472-49.481-2.243-74.308-2.3.315,1.563.477,2.345.792,3.918,24.715.061,49.319.822,73.983,2.294C291.356,513.9,291.3,513.123,291.072,511.56Z" transform="translate(0 0.041)"/>
        <path id="Path_21" data-name="Path 21" class="cls-13" d="M293.142,517.528c-25.071-1.533-50.07-2.334-75.191-2.406.315,1.563.477,2.345.8,3.918,25.01.071,49.9.873,74.846,2.406Z" transform="translate(0 0.041)"/>
        <path id="Path_22" data-name="Path 22" class="cls-13" d="M282.282,522.593c-21.051-1.015-42.051-1.563-63.133-1.6.315,1.573.477,2.355.792,3.918q31.465,0,62.849,1.594Z" transform="translate(0 0.041)"/>
        <path id="Path_23" data-name="Path 23" class="cls-13" d="M294.512,529.272c-24.725-1.533-49.39-2.334-74.176-2.406.325,1.563.487,2.345.8,3.908,24.675.071,49.217.873,73.831,2.406Z" transform="translate(0 0.041)"/>
        <path id="Path_24" data-name="Path 24" class="cls-13" d="M291.173,534.834c-23.223-1.5-46.355-2.2-69.639-2.1.315,1.563.477,2.345.792,3.918,23.183-.1,46.2.6,69.324,2.091C291.457,537.179,291.366,536.4,291.173,534.834Z" transform="translate(0 0.041)"/>
        <path id="Path_25" data-name="Path 25" class="cls-13" d="M295.883,540.995q-36.54-2.3-73.151-2.406c.315,1.563.477,2.345.792,3.918,24.36.071,48.537.873,72.816,2.4Z" transform="translate(0 0.041)"/>
        <path id="Path_26" data-name="Path 26" class="cls-13" d="M288.636,546.283q-32.348-1.736-64.716-1.817c.315,1.573.477,2.355.8,3.918,21.508.051,42.934.66,64.412,1.817C288.93,548.638,288.839,547.846,288.636,546.283Z" transform="translate(0 0.041)"/>
        <path id="Path_27" data-name="Path 27" class="cls-13" d="M297.263,552.739c-24.056-1.522-48.04-2.324-72.146-2.4l.792,3.908c23.995.071,47.867.873,71.8,2.406C297.527,555.093,297.446,554.312,297.263,552.739Z" transform="translate(0 0.041)"/>
        <path id="Path_28" data-name="Path 28" class="cls-13" d="M281.957,557.408c-18.574-.934-37.068-1.36-55.663-1.279l.792,3.908c18.514-.081,36.916.355,55.4,1.289C282.272,559.762,282.17,558.981,281.957,557.408Z" transform="translate(0 0.041)"/>
        <path id="Path_29" data-name="Path 29" class="cls-13" d="M374.444,498.6c-20.544-3.573-41.2-6.222-61.915-8.435l.355,3.908c20.665,2.223,41.229,4.872,61.671,8.445C374.535,500.953,374.474,500.172,374.444,498.6Z" transform="translate(0 0.041)"/>
        <path id="Path_30" data-name="Path 30" class="cls-13" d="M374.535,504.455c-25.375-4.06-50.689-7.3-76.247-9.795.162,1.563.254,2.345.416,3.908,25.446,2.5,50.7,5.735,75.912,9.8C374.626,506.82,374.606,506.038,374.535,504.455Z" transform="translate(0 0.041)"/>
        <path id="Path_31" data-name="Path 31" class="cls-13" d="M368.6,509.286c-23.152-3.532-46.314-6.425-69.639-8.739.173,1.573.254,2.345.426,3.908q34.825,3.492,69.324,8.749C368.658,511.641,368.638,510.849,368.6,509.286Z" transform="translate(0 0.041)"/>
        <path id="Path_32" data-name="Path 32" class="cls-13" d="M374.829,516.209c-25-4.06-50.009-7.267-75.242-9.795.173,1.563.264,2.355.426,3.918,25.121,2.527,50.019,5.755,74.907,9.795C374.88,518.563,374.86,517.772,374.829,516.209Z" transform="translate(0 0.041)"/>
        <path id="Path_33" data-name="Path 33" class="cls-13" d="M373.621,521.842q-36.54-5.877-73.395-9.561c.173,1.573.254,2.355.426,3.918,24.492,2.477,48.781,5.633,73.08,9.561C373.672,524.187,373.662,523.405,373.621,521.842Z" transform="translate(0 0.041)"/>
        <path id="Path_34" data-name="Path 34" class="cls-13" d="M375.093,527.952c-24.664-4.06-49.339-7.267-74.237-9.795.173,1.563.264,2.345.426,3.908,24.786,2.527,49.349,5.765,73.892,9.795C375.144,530.3,375.124,529.515,375.093,527.952Z" transform="translate(0 0.041)"/>
        <path id="Path_35" data-name="Path 35" class="cls-13" d="M364,531.86q-31.171-4.7-62.5-7.846c.162,1.563.254,2.345.426,3.908,20.828,2.111,41.524,4.72,62.209,7.846C364.07,534.215,364.05,533.433,364,531.86Z" transform="translate(0 0.041)"/>
        <path id="Path_36" data-name="Path 36" class="cls-13" d="M375.357,539.686c-24.36-4.06-48.669-7.267-73.232-9.795.173,1.563.254,2.345.426,3.918q36.677,3.776,72.887,9.795C375.408,542.01,375.388,541.249,375.357,539.686Z" transform="translate(0 0.041)"/>
        <path id="Path_37" data-name="Path 37" class="cls-13" d="M371.581,544.852c-22.858-3.867-45.675-6.861-68.817-9.135.162,1.563.254,2.355.416,3.918,23.01,2.223,45.756,5.227,68.5,9.084Z" transform="translate(0 0.041)"/>
        <path id="Path_38" data-name="Path 38" class="cls-13" d="M375.611,551.429c-23.984-4.06-47.989-7.267-72.217-9.795.173,1.563.254,2.345.426,3.908,24.116,2.527,48.009,5.765,71.882,9.795C375.662,553.774,375.651,552.992,375.611,551.429Z" transform="translate(0 0.041)"/>
        <path id="Path_39" data-name="Path 39" class="cls-13" d="M368.039,555.9c-21.315-3.37-42.559-6.161-64.006-8.394.162,1.563.254,2.345.416,3.908q31.973,3.365,63.712,8.4C368.11,558.25,368.09,557.458,368.039,555.9Z" transform="translate(0 0.041)"/>
        <path id="Path_40" data-name="Path 40" class="cls-13" d="M375.875,563.163c-23.65-4.06-47.319-7.267-71.212-9.795.173,1.563.254,2.345.426,3.908,23.781,2.527,47.34,5.765,70.877,9.8C375.926,565.507,375.905,564.726,375.875,563.163Z" transform="translate(0 0.041)"/>
        <path id="Path_41" data-name="Path 41" class="cls-13" d="M360.457,566.187c-18.341-2.862-36.672-5.2-55.165-7.034.162,1.563.254,2.345.416,3.918,18.412,1.827,36.652,4.161,54.911,7.034C360.548,568.532,360.518,567.75,360.457,566.187Z" transform="translate(0 0.041)"/>
        <path id="Path_42" data-name="Path 42" class="cls-14" d="M376.849,607.092c-87.057-15.347-175.2-16.362-262.154.162-.5-1.37-.741-2.03-1.228-3.41,87.29-16.555,175.859-15.489,263.3-.152C376.809,605.052,376.819,605.732,376.849,607.092Z" transform="translate(0 0.041)"/>
        <path id="Path_43" data-name="Path 43" class="cls-14" d="M376.189,577.535c-29.547-5.075-59.124-8.79-89.056-11.287,1.076,8.191,1.6,12.281,2.68,20.462,29.2,2.5,58.028,6.212,86.833,11.287Z" transform="translate(0 0.041)"/>
        <path id="Path_44" data-name="Path 44" class="cls-14" d="M376.951,611.4c-28.319-5.075-56.657-8.79-85.382-11.287q4.06,31.029,8.12,62.067c26.492,2.5,52.557,6.212,78.612,11.287Q377.58,642.414,376.951,611.4Z" transform="translate(0 0.041)"/>
        <path id="Path_45" data-name="Path 45" class="cls-13" d="M282.221,565.954c-60.037-2.365-119.2.914-178.183,11.744l7.379,20.462c57.449-10.84,115.081-14.119,173.565-11.744C283.906,578.225,283.337,574.145,282.221,565.954Z" transform="translate(0 0.041)"/>
        <path id="Path_46" data-name="Path 46" class="cls-13" d="M197.8,600.119c-24.177,2.192-48.04,5.278-71.913,9.429.66,1.908,1.015,2.862,1.665,4.771,23.721-4.151,47.421-7.227,71.446-9.419C198.524,602.981,198.29,602.027,197.8,600.119Z" transform="translate(0 0.041)"/>
        <path id="Path_47" data-name="Path 47" class="cls-13" d="M199.61,607.285A793.469,793.469,0,0,0,118.836,618.7l1.725,4.781a785.727,785.727,0,0,1,80.246-11.439Z" transform="translate(0 0.041)"/>
        <path id="Path_48" data-name="Path 48" class="cls-13" d="M201.406,614.44a781.072,781.072,0,0,0-79.982,11.429l1.725,4.771A767.794,767.794,0,0,1,202.6,619.221C202.127,617.313,201.883,616.359,201.406,614.44Z" transform="translate(0 0.041)"/>
        <path id="Path_49" data-name="Path 49" class="cls-13" d="M203.213,621.606a765.8,765.8,0,0,0-79.17,11.419l1.725,4.781a752.725,752.725,0,0,1,78.673-11.429C203.924,624.469,203.69,623.514,203.213,621.606Z" transform="translate(0 0.041)"/>
        <path id="Path_50" data-name="Path 50" class="cls-13" d="M205.03,628.762a751.065,751.065,0,0,0-78.419,11.429c.69,1.908,1.015,2.862,1.736,4.781a737.915,737.915,0,0,1,77.881-11.429C205.73,631.634,205.487,630.68,205.03,628.762Z" transform="translate(0 0.041)"/>
        <path id="Path_51" data-name="Path 51" class="cls-13" d="M206.806,635.928a732.619,732.619,0,0,0-77.617,11.429c.69,1.908,1.015,2.862,1.715,4.771a723.334,723.334,0,0,1,77.14-11.429C207.527,638.79,207.283,637.836,206.806,635.928Z" transform="translate(0 0.041)"/>
        <path id="Path_52" data-name="Path 52" class="cls-13" d="M208.613,643.094a720.974,720.974,0,0,0-76.846,11.419l1.725,4.771a710.955,710.955,0,0,1,76.318-11.419C209.323,645.956,209.09,645,208.613,643.094Z" transform="translate(0 0.041)"/>
        <path id="Path_53" data-name="Path 53" class="cls-13" d="M210.41,650.25a703.63,703.63,0,0,0-76.054,11.429l1.726,4.771c24.888-5.522,50.09-8.952,75.526-11.419C211.12,653.122,210.887,652.168,210.41,650.25Z" transform="translate(0 0.041)"/>
        <path id="Path_54" data-name="Path 54" class="cls-13" d="M196.088,658.877c-19.924,2.578-39.524,5.846-59.144,9.957.68,1.908,1.015,2.862,1.715,4.781,19.488-4.121,38.946-7.379,58.738-9.957C196.91,661.78,196.616,660.765,196.088,658.877Z" transform="translate(0 0.041)"/>
        <path id="Path_55" data-name="Path 55" class="cls-13" d="M287.468,599.865c-25.375-1.086-50.506-1.279-75.841-.538.447,1.908.66,2.862,1.106,4.781,25.192-.751,50.212-.558,75.384.538C287.854,602.7,287.722,601.743,287.468,599.865Z" transform="translate(0 0.041)"/>
        <path id="Path_56" data-name="Path 56" class="cls-13" d="M288.443,606.97c-28.572-1.248-56.962-1.259-85.544.061.477,1.908.71,2.862,1.177,4.771,28.42-1.309,56.617-1.309,85.016-.061C288.839,609.863,288.707,608.909,288.443,606.97Z" transform="translate(0 0.041)"/>
        <path id="Path_57" data-name="Path 57" class="cls-13" d="M289.417,614.156c-28.308-1.248-56.434-1.248-84.753.061l1.188,4.771c28.136-1.309,56.079-1.309,84.245-.051C289.813,617.029,289.681,616.1,289.417,614.156Z" transform="translate(0 0.041)"/>
        <path id="Path_58" data-name="Path 58" class="cls-13" d="M290.4,621.322c-28.055-1.248-55.916-1.248-83.961.061.467,1.908.71,2.862,1.177,4.771,27.872-1.309,55.561-1.309,83.433-.061C290.787,624.225,290.666,623.21,290.4,621.322Z" transform="translate(0 0.041)"/>
        <path id="Path_59" data-name="Path 59" class="cls-13" d="M291.376,628.488c-27.791-1.259-55.378-1.259-83.169,0,.477,1.908.71,2.872,1.177,4.781,27.608-1.32,55.033-1.309,82.641-.061C291.762,631.33,291.64,630.4,291.376,628.488Z" transform="translate(0 0.041)"/>
        <path id="Path_60" data-name="Path 60" class="cls-13" d="M292.32,635.644c-27.517-1.248-54.81-1.248-82.367.061.467,1.908.7,2.862,1.177,4.771,27.344-1.309,54.5-1.309,81.85,0Z" transform="translate(0 0.041)"/>
        <path id="Path_61" data-name="Path 61" class="cls-13" d="M293.335,642.81c-27.263-1.248-54.333-1.259-81.586.061.467,1.908.7,2.862,1.177,4.771,27.08-1.309,53.968-1.309,81.058-.061C293.721,645.672,293.589,644.718,293.335,642.81Z" transform="translate(0 0.041)"/>
        <path id="Path_62" data-name="Path 62" class="cls-13" d="M294.35,649.965c-27-1.248-53.8-1.248-80.794.061.477,1.908.711,2.862,1.177,4.781,26.826-1.319,53.44-1.319,80.266-.061C294.705,652.838,294.573,651.884,294.35,649.965Z" transform="translate(0 0.041)"/>
        <path id="Path_63" data-name="Path 63" class="cls-13" d="M278.6,656.248c-21.153-.436-42.183-.132-63.316.944.477,1.908.71,2.862,1.177,4.771,21-1.076,41.879-1.37,62.93-.944Z" transform="translate(0 0.041)"/>
        <path id="Path_64" data-name="Path 64" class="cls-14" d="M378.453,679.035c-25.842-5.075-51.714-8.78-78-11.277q4.06,31.029,8.12,62.067A688.707,688.707,0,0,1,379.8,741.1Q379.143,710.053,378.453,679.035Z" transform="translate(0 0.041)"/>
        <path id="Path_65" data-name="Path 65" class="cls-13" d="M214.8,667.748c-22.036,2.192-43.716,5.268-65.407,9.419.66,1.908,1.015,2.862,1.665,4.781,21.538-4.161,43.066-7.237,64.96-9.429Z" transform="translate(0 0.041)"/>
        <path id="Path_66" data-name="Path 66" class="cls-13" d="M216.6,674.9a682.641,682.641,0,0,0-73.344,11.429l1.725,4.77a672.827,672.827,0,0,1,72.826-11.419C217.322,677.776,217.088,676.812,216.6,674.9Z" transform="translate(0 0.041)"/>
        <path id="Path_67" data-name="Path 67" class="cls-13" d="M218.4,682.08a665.832,665.832,0,0,0-72.552,11.429l1.725,4.771a656.168,656.168,0,0,1,72.065-11.429C219.128,684.932,218.885,683.978,218.4,682.08Z" transform="translate(0 0.041)"/>
        <path id="Path_68" data-name="Path 68" class="cls-13" d="M220.255,689.185a651.618,651.618,0,0,0-71.781,11.429l1.725,4.771a644.757,644.757,0,0,1,71.253-11.419C220.925,692.1,220.681,691.144,220.255,689.185Z" transform="translate(0 0.041)"/>
        <path id="Path_69" data-name="Path 69" class="cls-13" d="M222,696.391a637.713,637.713,0,0,0-70.989,11.429l1.725,4.771A625.806,625.806,0,0,1,223.2,701.172C222.721,699.254,222.488,698.32,222,696.391Z" transform="translate(0 0.041)"/>
        <path id="Path_70" data-name="Path 70" class="cls-13" d="M223.807,703.557A623.3,623.3,0,0,0,153.6,714.976l1.726,4.771a614.178,614.178,0,0,1,69.68-11.419Z" transform="translate(0 0.041)"/>
        <path id="Path_71" data-name="Path 71" class="cls-13" d="M225.6,710.723a607.434,607.434,0,0,0-69.416,11.419l1.725,4.771A600.657,600.657,0,0,1,226.8,715.494Z" transform="translate(0 0.041)"/>
        <path id="Path_72" data-name="Path 72" class="cls-13" d="M227.36,717.879A596.34,596.34,0,0,0,158.726,729.3l1.725,4.781a585.126,585.126,0,0,1,68.157-11.4C228.121,720.741,227.888,719.787,227.36,717.879Z" transform="translate(0 0.041)"/>
        <path id="Path_73" data-name="Path 73" class="cls-13" d="M214.632,726.507c-18,2.578-35.616,5.836-53.277,9.957l1.725,4.771c17.519-4.121,35.007-7.369,52.861-9.957C215.424,729.369,215.18,728.415,214.632,726.507Z" transform="translate(0 0.041)"/>
        <path id="Path_74" data-name="Path 74" class="cls-13" d="M296.695,667.464c-23.142-1.086-46.122-1.289-69.284-.538l1.117,4.771c23-.741,45.837-.548,68.817.548C297.091,670.326,296.959,669.372,296.695,667.464Z" transform="translate(0 0.041)"/>
        <path id="Path_75" data-name="Path 75" class="cls-13" d="M297.679,674.63c-26.1-1.259-51.988-1.259-78.074.051.467,1.908.71,2.872,1.177,4.781,25.913-1.319,51.623-1.309,77.546-.061C298.065,677.492,297.933,676.538,297.679,674.63Z" transform="translate(0 0.041)"/>
        <path id="Path_76" data-name="Path 76" class="cls-13" d="M298.654,681.786c-25.852-1.2-51.43-1.2-77.282.061l1.188,4.771c25.669-1.259,51.075-1.259,76.744-.051C299.039,684.658,298.918,683.694,298.654,681.786Z" transform="translate(0 0.041)"/>
        <path id="Path_77" data-name="Path 77" class="cls-13" d="M299.628,688.952c-25.578-1.208-50.9-1.208-76.49.061l1.188,4.771c25.375-1.269,50.547-1.259,75.963-.061Z" transform="translate(0 0.041)"/>
        <path id="Path_78" data-name="Path 78" class="cls-13" d="M300.6,696.107c-25.375-1.2-50.374-1.2-75.689.061.467,1.908.71,2.862,1.177,4.771,25.142-1.259,50.019-1.259,75.171-.051Z" transform="translate(0 0.041)"/>
        <path id="Path_79" data-name="Path 79" class="cls-13" d="M301.587,703.273c-25.06-1.2-49.847-1.208-74.907.061.467,1.908.71,2.862,1.177,4.771,24.888-1.259,49.491-1.259,74.379-.061C301.973,706.135,301.851,705.181,301.587,703.273Z" transform="translate(0 0.041)"/>
        <path id="Path_80" data-name="Path 80" class="cls-13" d="M302.561,710.439c-24.8-1.208-49.319-1.208-74.1,0,.477,1.918.71,2.872,1.188,4.781a729.1,729.1,0,0,1,73.577-.061C302.957,713.3,302.825,712.347,302.561,710.439Z" transform="translate(0 0.041)"/>
        <path id="Path_81" data-name="Path 81" class="cls-13" d="M303.536,717.6a726.809,726.809,0,0,0-73.313.061c.467,1.908.7,2.862,1.177,4.771a716.626,716.626,0,0,1,72.8,0Z" transform="translate(0 0.041)"/>
        <path id="Path_82" data-name="Path 82" class="cls-13" d="M289.366,723.878c-19.194-.4-38.2-.091-57.378.934.477,1.918.711,2.872,1.177,4.781,19.031-1.015,37.91-1.33,56.972-.944C289.833,726.74,289.671,725.786,289.366,723.878Z" transform="translate(0 0.041)"/>
        <path id="Path_83" data-name="Path 83" class="cls-15" d="M632.548,755.3c-78.622-21.538-159.984-19.549-238.84,0q0-158.4.1-316.812c119.049-20.107,240.819-21.488,359.767,0Q693.1,596.9,632.548,755.3Z" transform="translate(0 0.041)"/>
        <path id="Path_84" data-name="Path 84" class="cls-14" d="M713.251,495.493c-99.866-16.575-200.97-15.611-300.9,0q.508-23.954,1.015-47.878c105.3-15.641,211.871-16.565,317.157,0Q721.888,471.549,713.251,495.493Z" transform="translate(0 0.041)"/>
        <path id="Path_85" data-name="Path 85" class="cls-14" d="M706.115,515.234c-97.6-16.6-196.5-15.59-294.188,0v-1.8c97.876-15.59,196.991-16.585,294.8,0C706.5,514.158,706.379,514.524,706.115,515.234Z" transform="translate(0 0.041)"/>
        <path id="Path_86" data-name="Path 86" class="cls-13" d="M711.738,499.674c-31.008-5.237-62.077-8.952-93.482-11.4-1.086,4.3-1.624,6.466-2.71,10.769,31.018,2.446,61.692,6.161,92.294,11.4C709.4,506.14,710.175,503.988,711.738,499.674Z" transform="translate(0 0.041)"/>
        <path id="Path_87" data-name="Path 87" class="cls-13" d="M612.979,487.971a1029.98,1029.98,0,0,0-200.716,11.7c-.091,4.314-.132,6.465-.223,10.769a1006.1,1006.1,0,0,1,198.291-11.7C611.385,494.427,611.923,492.275,612.979,487.971Z" transform="translate(0 0.041)"/>
        <path id="Path_88" data-name="Path 88" class="cls-14" d="M655.609,649.143c-48.964-9.653-97.937-13.114-147.946-11.947L515,589.4c53.2-1.208,105.56,2.263,157.711,11.957Q664.155,625.24,655.609,649.143Z" transform="translate(0 0.041)"/>
        <path id="Path_89" data-name="Path 89" class="cls-13" d="M654.107,653.325c-14.971-3.39-30.146-6.029-45.411-7.978-.325,1.116-.487,1.675-.822,2.791,15.225,2.2,30.2,4.821,45.228,7.978C653.508,655,653.711,654.442,654.107,653.325Z" transform="translate(0 0.041)"/>
        <path id="Path_90" data-name="Path 90" class="cls-13" d="M606.138,645.022a786.093,786.093,0,0,0-99.115-3.654c-.173,1.127-.254,1.685-.426,2.8a778.239,778.239,0,0,1,98.739,3.644C605.661,646.7,605.823,646.139,606.138,645.022Z" transform="translate(0 0.041)"/>
        <path id="Path_91" data-name="Path 91" class="cls-13" d="M651.8,659.75c-14.961-3.157-29.831-5.775-44.985-7.978-.335,1.117-.5,1.675-.822,2.8,15.093,2.2,29.9,4.821,44.8,7.978C651.194,661.445,651.4,660.887,651.8,659.75Z" transform="translate(0 0.041)"/>
        <path id="Path_92" data-name="Path 92" class="cls-13" d="M604.28,651.457a770.609,770.609,0,0,0-98.252-3.644c-.173,1.117-.254,1.675-.426,2.791a766.6,766.6,0,0,1,97.877,3.654C603.8,653.142,603.925,652.574,604.28,651.457Z" transform="translate(0 0.041)"/>
        <path id="Path_93" data-name="Path 93" class="cls-13" d="M649.488,666.205c-14.809-3.157-29.536-5.775-44.559-7.978-.325,1.117-.487,1.675-.822,2.791,14.961,2.213,29.628,4.821,44.386,7.988C648.889,667.87,649.092,667.322,649.488,666.205Z" transform="translate(0 0.041)"/>
        <path id="Path_94" data-name="Path 94" class="cls-13" d="M602.423,657.9a756.926,756.926,0,0,0-97.379-3.644c-.173,1.117-.254,1.675-.426,2.791a751.062,751.062,0,0,1,96.993,3.644Z" transform="translate(0 0.041)"/>
        <path id="Path_95" data-name="Path 95" class="cls-13" d="M647.184,672.651c-14.677-3.157-29.262-5.775-44.142-7.988l-.812,2.8c14.819,2.2,29.344,4.821,43.949,7.978C646.555,674.325,646.788,673.767,647.184,672.651Z" transform="translate(0 0.041)"/>
        <path id="Path_96" data-name="Path 96" class="cls-13" d="M600.555,664.348a741.524,741.524,0,0,0-96.5-3.654c-.173,1.116-.264,1.675-.426,2.8a737.617,737.617,0,0,1,96.121,3.644C600.078,666.023,600.241,665.464,600.555,664.348Z" transform="translate(0 0.041)"/>
        <path id="Path_97" data-name="Path 97" class="cls-13" d="M644.88,679.086c-14.535-3.157-28.978-5.775-43.716-7.978-.335,1.116-.5,1.675-.822,2.791,14.677,2.2,29.059,4.821,43.533,7.988C644.271,680.771,644.525,680.2,644.88,679.086Z" transform="translate(0 0.041)"/>
        <path id="Path_98" data-name="Path 98" class="cls-13" d="M598.7,670.783a730.1,730.1,0,0,0-95.633-3.644c-.173,1.117-.254,1.675-.426,2.791a722.672,722.672,0,0,1,95.258,3.654C598.221,672.458,598.373,671.93,598.7,670.783Z" transform="translate(0 0.041)"/>
        <path id="Path_99" data-name="Path 99" class="cls-13" d="M642.576,685.531c-14.393-3.157-28.694-5.775-43.3-7.988l-.812,2.8c14.535,2.2,28.775,4.821,43.107,7.978C641.977,687.206,642.17,686.647,642.576,685.531Z" transform="translate(0 0.041)"/>
        <path id="Path_100" data-name="Path 100" class="cls-13" d="M596.82,677.228a715.138,715.138,0,0,0-94.76-3.654c-.173,1.117-.254,1.675-.426,2.8a709.343,709.343,0,0,1,94.4,3.644Z" transform="translate(0 0.041)"/>
        <path id="Path_101" data-name="Path 101" class="cls-13" d="M640.262,691.966c-14.21-3.157-28.42-5.775-42.874-7.978l-.812,2.791c14.4,2.213,28.5,4.831,42.691,7.988Z" transform="translate(0 0.041)"/>
        <path id="Path_102" data-name="Path 102" class="cls-13" d="M594.983,683.663A702.115,702.115,0,0,0,501.1,680.02c-.173,1.116-.264,1.675-.436,2.791a696.382,696.382,0,0,1,93.512,3.654Z" transform="translate(0 0.041)"/>
        <path id="Path_103" data-name="Path 103" class="cls-13" d="M490.773,727A655.659,655.659,0,0,0,408.1,739.022q2.527-111,5.075-222.011A1111.847,1111.847,0,0,1,523.811,505Q507.277,616.014,490.773,727Z" transform="translate(0 0.041)"/>
        <path id="Path_104" data-name="Path 104" class="cls-13" d="M584.711,507.185q-28.593-.376-57.144.294l.406-2.649c19.123-.447,38.194-.548,57.317-.294C585.056,505.592,584.944,506.12,584.711,507.185Z" transform="translate(0 0.041)"/>
        <path id="Path_105" data-name="Path 105" class="cls-13" d="M583.625,512.017c-18.96-.254-37.87-.152-56.84.294.173-1.066.244-1.594.406-2.649q28.511-.68,57-.294C584,510.423,583.889,510.961,583.625,512.017Z" transform="translate(0 0.041)"/>
        <path id="Path_106" data-name="Path 106" class="cls-13" d="M582.61,516.848q-28.278-.376-56.505.294l.406-2.649q28.359-.68,56.688-.3C582.945,515.255,582.823,515.782,582.61,516.848Z" transform="translate(0 0.041)"/>
        <path id="Path_107" data-name="Path 107" class="cls-13" d="M581.595,521.71q-28.126-.365-56.2.294l.406-2.649c18.808-.436,37.555-.548,56.373-.294A21.465,21.465,0,0,0,581.595,521.71Z" transform="translate(0 0.041)"/>
        <path id="Path_108" data-name="Path 108" class="cls-13" d="M580.489,526.5c-18.646-.244-37.24-.142-55.886.294l.406-2.649q28.044-.67,56.058-.294C580.834,524.917,580.712,525.445,580.489,526.5Z" transform="translate(0 0.041)"/>
        <path id="Path_109" data-name="Path 109" class="cls-13" d="M579.433,531.332q-27.811-.365-55.571.294l.406-2.649c18.595-.447,37.139-.548,55.744-.294C579.778,529.749,579.656,530.277,579.433,531.332Z" transform="translate(0 0.041)"/>
        <path id="Path_110" data-name="Path 110" class="cls-13" d="M578.367,536.164c-18.432-.254-36.814-.152-55.246.294l.406-2.649q27.73-.67,55.419-.294C578.723,534.58,578.6,535.108,578.367,536.164Z" transform="translate(0 0.041)"/>
        <path id="Path_111" data-name="Path 111" class="cls-13" d="M577.312,540.995q-27.5-.376-54.932.294l.406-2.649q27.567-.67,55.1-.294C577.657,539.412,577.535,539.98,577.312,540.995Z" transform="translate(0 0.041)"/>
        <path id="Path_112" data-name="Path 112" class="cls-13" d="M576.256,545.826q-27.334-.376-54.617.294l.406-2.649q27.4-.67,54.81-.294C576.6,544.233,576.52,544.771,576.256,545.826Z" transform="translate(0 0.041)"/>
        <path id="Path_113" data-name="Path 113" class="cls-13" d="M575.2,550.658c-18.118-.254-36.185-.152-54.3.294l.406-2.649q27.253-.67,54.475-.294C575.505,549.115,575.434,549.6,575.2,550.658Z" transform="translate(0 0.041)"/>
        <path id="Path_114" data-name="Path 114" class="cls-13" d="M574.145,555.489q-27.019-.375-53.988.294l.406-2.649q27.1-.67,54.16-.294C574.49,553.9,574.378,554.434,574.145,555.489Z" transform="translate(0 0.041)"/>
        <path id="Path_115" data-name="Path 115" class="cls-13" d="M573.089,560.28c-17.915-.254-35.769-.152-53.673.294l.406-2.649q26.938-.67,53.846-.294C573.475,558.727,573.313,559.265,573.089,560.28Z" transform="translate(0 0.041)"/>
        <path id="Path_116" data-name="Path 116" class="cls-13" d="M572.024,565.152q-26.694-.376-53.348.294l.406-2.649q26.776-.69,53.521-.3C572.379,563.558,572.257,564.086,572.024,565.152Z" transform="translate(0 0.041)"/>
        <path id="Path_117" data-name="Path 117" class="cls-13" d="M570.968,569.983q-26.532-.376-53.034.294l.406-2.659c17.752-.436,35.454-.538,53.206-.294Z" transform="translate(0 0.041)"/>
        <path id="Path_118" data-name="Path 118" class="cls-13" d="M569.912,574.815c-17.59-.254-35.129-.152-52.719.294l.457-2.649c17.641-.436,35.241-.538,52.892-.294Z" transform="translate(0 0.041)"/>
        <path id="Path_119" data-name="Path 119" class="cls-13" d="M568.857,579.636c-17.488-.244-34.926-.142-52.4.3l.406-2.659q26.309-.67,52.577-.294C569.2,578.053,569.09,578.55,568.857,579.636Z" transform="translate(0 0.041)"/>
        <path id="Path_120" data-name="Path 120" class="cls-13" d="M567.8,584.467c-17.387-.254-34.713-.152-52.09.3l.406-2.659c17.438-.447,34.825-.548,52.262-.294C568.156,582.884,568.035,583.412,567.8,584.467Z" transform="translate(0 0.041)"/>
        <path id="Path_121" data-name="Path 121" class="cls-13" d="M632.122,554.586c-17.661-1.634-35.3-2.893-53.024-3.8.244-1.015.355-1.594.6-2.659q26.654,1.37,53.2,3.806C632.578,552.992,632.426,553.53,632.122,554.586Z" transform="translate(0 0.041)"/>
        <path id="Path_122" data-name="Path 122" class="cls-13" d="M630.731,559.417q-26.339-2.456-52.709-3.8c.233-1.015.355-1.594.589-2.659,17.681.914,35.271,2.172,52.881,3.806Z" transform="translate(0 0.041)"/>
        <path id="Path_123" data-name="Path 123" class="cls-13" d="M629.3,564.249c-17.458-1.634-34.886-2.893-52.394-3.8.233-1.015.355-1.594.589-2.659,17.57.914,35.058,2.172,52.567,3.806Z" transform="translate(0 0.041)"/>
        <path id="Path_124" data-name="Path 124" class="cls-13" d="M627.94,569.08c-17.346-1.634-34.672-2.893-52.08-3.806.233-1.015.355-1.583.589-2.649,17.468.914,34.855,2.172,52.262,3.8C628.4,567.486,628.285,568.014,627.94,569.08Z" transform="translate(0 0.041)"/>
        <path id="Path_125" data-name="Path 125" class="cls-13" d="M626.539,573.9q-25.852-2.436-51.765-3.8c.233-1.015.355-1.583.589-2.649,17.4.944,34.652,2.172,51.907,3.8C627.006,572.318,626.844,572.846,626.539,573.9Z" transform="translate(0 0.041)"/>
        <path id="Path_126" data-name="Path 126" class="cls-13" d="M625.149,578.733c-17.133-1.624-34.246-2.883-51.45-3.8.244-1.015.355-1.594.6-2.649,17.255.914,34.429,2.162,51.623,3.8C625.605,577.149,625.453,577.677,625.149,578.733Z" transform="translate(0 0.041)"/>
        <path id="Path_127" data-name="Path 127" class="cls-13" d="M623.758,583.564c-17.032-1.624-34.043-2.883-51.136-3.8l.589-2.649q25.73,1.37,51.308,3.8Z" transform="translate(0 0.041)"/>
        <path id="Path_128" data-name="Path 128" class="cls-13" d="M622.357,588.4q-25.375-2.436-50.811-3.8c.233-1.066.355-1.594.589-2.649,17.052.914,34.013,2.162,50.994,3.8C622.824,586.8,622.672,587.34,622.357,588.4Z" transform="translate(0 0.041)"/>
        <path id="Path_129" data-name="Path 129" class="cls-13" d="M702.055,519.426q-26.613-4.735-53.4-7.887c.315-1.066.467-1.594.771-2.649,17.986,2.121,35.779,4.73,53.572,7.887C702.624,517.843,702.431,518.371,702.055,519.426Z" transform="translate(0 0.041)"/>
        <path id="Path_130" data-name="Path 130" class="cls-13" d="M700.35,524.258c-17.631-3.157-35.261-5.765-53.084-7.887l.782-2.659c17.874,2.132,35.525,4.74,53.257,7.9C700.888,522.725,700.705,523.2,700.35,524.258Z" transform="translate(0 0.041)"/>
        <path id="Path_131" data-name="Path 131" class="cls-13" d="M698.594,529.089c-17.529-3.157-35.058-5.765-52.78-7.887.3-1.015.457-1.594.771-2.659,17.773,2.131,35.363,4.73,52.953,7.9C699.162,527.506,698.97,528.033,698.594,529.089Z" transform="translate(0 0.041)"/>
        <path id="Path_132" data-name="Path 132" class="cls-13" d="M696.858,533.89c-17.428-3.157-34.845-5.765-52.455-7.9.315-1.015.467-1.583.771-2.649,17.671,2.131,35.149,4.73,52.638,7.9C697.437,532.327,697.244,532.875,696.858,533.89Z" transform="translate(0 0.041)"/>
        <path id="Path_133" data-name="Path 133" class="cls-13" d="M695.133,538.752c-17.326-3.167-34.642-5.765-52.151-7.9.315-1.015.467-1.583.782-2.649,17.56,2.131,34.936,4.73,52.323,7.9C695.7,537.158,695.508,537.7,695.133,538.752Z" transform="translate(0 0.041)"/>
        <path id="Path_134" data-name="Path 134" class="cls-13" d="M693.407,543.583c-17.255-3.167-34.439-5.765-51.846-7.9.315-1.015.477-1.583.782-2.649,17.468,2.121,34.733,4.73,52.009,7.9C693.976,542.01,693.783,542.518,693.407,543.583Z" transform="translate(0 0.041)"/>
        <path id="Path_135" data-name="Path 135" class="cls-13" d="M691.672,548.415c-17.113-3.167-34.226-5.765-51.521-7.9.315-1.015.467-1.583.782-2.649,17.357,2.121,34.51,4.73,51.694,7.9C692.23,546.821,692.057,547.349,691.672,548.415Z" transform="translate(0 0.041)"/>
        <path id="Path_136" data-name="Path 136" class="cls-13" d="M689.946,553.246c-17.011-3.167-34.013-5.765-51.217-7.9.315-1.015.467-1.594.782-2.649,17.255,2.131,34.317,4.73,51.389,7.9C690.515,551.652,690.322,552.16,689.946,553.246Z" transform="translate(0 0.041)"/>
        <path id="Path_137" data-name="Path 137" class="cls-13" d="M688.17,558.077c-16.9-3.167-33.8-5.775-50.892-7.9.3-1.015.467-1.594.771-2.649,17.154,2.121,34.114,4.73,51.075,7.887Z" transform="translate(0 0.041)"/>
        <path id="Path_138" data-name="Path 138" class="cls-13" d="M686.485,562.909c-16.8-3.167-33.6-5.765-50.588-7.9.315-1.015.467-1.594.782-2.649,17.042,2.121,33.9,4.72,50.75,7.887C687.054,561.295,686.861,561.843,686.485,562.909Z" transform="translate(0 0.041)"/>
        <path id="Path_139" data-name="Path 139" class="cls-13" d="M684.76,567.74c-16.7-3.177-33.393-5.775-50.283-7.9.315-1.066.467-1.594.782-2.649,16.94,2.121,33.688,4.72,50.445,7.887Z" transform="translate(0 0.041)"/>
        <path id="Path_140" data-name="Path 140" class="cls-13" d="M683.024,572.572c-16.6-3.177-33.18-5.775-49.958-7.9.315-1.066.467-1.594.771-2.659,16.849,2.131,33.495,4.73,50.141,7.9C683.592,570.978,683.4,571.506,683.024,572.572Z" transform="translate(0 0.041)"/>
        <path id="Path_141" data-name="Path 141" class="cls-13" d="M681.3,577.393c-16.433-3.339-32.987-5.765-49.654-7.887l.782-2.659c16.717,2.132,33.333,4.557,49.816,7.9C681.867,575.81,681.674,576.337,681.3,577.393Z" transform="translate(0 0.041)"/>
        <path id="Path_142" data-name="Path 142" class="cls-13" d="M679.563,582.224c-16.321-3.339-32.774-5.765-49.339-7.9.315-1.015.467-1.583.782-2.649,16.616,2.131,33.119,4.557,49.512,7.9C680.131,580.641,679.948,581.169,679.563,582.224Z" transform="translate(0 0.041)"/>
        <path id="Path_143" data-name="Path 143" class="cls-13" d="M677.837,587.056c-16.24-3.339-32.571-5.765-49.024-7.9.315-1.015.467-1.583.771-2.649,16.514,2.131,32.916,4.557,49.2,7.9C678.406,585.462,678.223,586,677.837,587.056Z" transform="translate(0 0.041)"/>
        <path id="Path_144" data-name="Path 144" class="cls-13" d="M676.112,591.887c-16.118-3.339-32.368-5.765-48.72-7.9.315-1.015.467-1.583.782-2.649,16.4,2.121,32.7,4.557,48.882,7.9Z" transform="translate(0 0.041)"/>
        <path id="Path_145" data-name="Path 145" class="cls-13" d="M674.376,596.719c-16.017-3.339-32.155-5.775-48.405-7.9.315-1.015.467-1.583.782-2.649,16.3,2.121,32.48,4.557,48.578,7.9C674.975,595.125,674.752,595.653,674.376,596.719Z" transform="translate(0 0.041)"/>
        <path id="Path_146" data-name="Path 146" class="cls-13" d="M637.339,700.147c-13.865-3.116-27.638-5.7-41.706-7.9l.771-2.649c14.129,2.182,27.963,4.781,41.889,7.9C637.917,698.553,637.724,699.081,637.339,700.147Z" transform="translate(0 0.041)"/>
        <path id="Path_147" data-name="Path 147" class="cls-13" d="M635.6,704.978c-13.753-3.116-27.4-5.7-41.392-7.9.315-1.015.467-1.594.771-2.649,14.027,2.182,27.76,4.771,41.615,7.9C636.182,703.4,635.989,703.913,635.6,704.978Z" transform="translate(0 0.041)"/>
        <path id="Path_148" data-name="Path 148" class="cls-13" d="M633.878,709.81c-13.652-3.116-27.222-5.7-41.087-7.9l.782-2.659c13.926,2.192,27.547,4.781,41.26,7.9C634.446,708.216,634.253,708.744,633.878,709.81Z" transform="translate(0 0.041)"/>
        <path id="Path_149" data-name="Path 149" class="cls-13" d="M632.152,714.641c-13.55-3.126-27.009-5.714-40.773-7.9.3-1.015.467-1.594.771-2.649,13.824,2.182,27.344,4.771,40.955,7.887C632.721,713.048,632.528,713.545,632.152,714.641Z" transform="translate(0 0.041)"/>
        <path id="Path_150" data-name="Path 150" class="cls-13" d="M630.427,719.473c-13.459-3.126-26.806-5.714-40.468-7.9.3-1.015.467-1.594.771-2.659,13.723,2.192,27.131,4.781,40.6,7.9Z" transform="translate(0 0.041)"/>
        <path id="Path_151" data-name="Path 151" class="cls-13" d="M628.691,724.3c-13.347-3.126-26.593-5.714-40.153-7.9l.782-2.659c13.611,2.192,26.918,4.781,40.316,7.9Z" transform="translate(0 0.041)"/>
        <path id="Path_152" data-name="Path 152" class="cls-13" d="M626.955,729.125c-13.2-3.116-26.39-5.7-39.829-7.887.3-1.066.467-1.594.771-2.659,13.52,2.192,26.715,4.781,40.011,7.9C627.524,727.532,627.341,728.07,626.955,729.125Z" transform="translate(0 0.041)"/>
        <path id="Path_153" data-name="Path 153" class="cls-13" d="M625.24,733.957c-13.134-3.116-26.167-5.7-39.524-7.9.315-1.015.467-1.583.782-2.649,13.408,2.192,26.5,4.771,39.7,7.9C625.8,732.373,625.605,732.9,625.24,733.957Z" transform="translate(0 0.041)"/>
        <path id="Path_154" data-name="Path 154" class="cls-13" d="M623.5,738.788c-13.033-3.116-25.964-5.7-39.22-7.887l.782-2.659c13.307,2.192,26.3,4.771,39.382,7.9Z" transform="translate(0 0.041)"/>
        <path id="Path_155" data-name="Path 155" class="cls-13" d="M592.5,691.824c-14.687-1.594-29.313-2.852-44.071-3.8.233-1.066.355-1.594.6-2.659,14.809.954,29.5,2.213,44.244,3.806C592.963,690.2,592.811,690.768,592.5,691.824Z" transform="translate(0 0.041)"/>
        <path id="Path_156" data-name="Path 156" class="cls-13" d="M591.106,696.655c-14.586-1.594-29.11-2.852-43.757-3.8.233-1.015.355-1.594.589-2.659,14.707.954,29.293,2.213,43.929,3.806Z" transform="translate(0 0.041)"/>
        <path id="Path_157" data-name="Path 157" class="cls-13" d="M589.715,701.487c-14.484-1.594-28.907-2.852-43.452-3.8.233-1.015.355-1.594.6-2.659,14.606.954,29.08,2.213,43.645,3.806Z" transform="translate(0 0.041)"/>
        <path id="Path_158" data-name="Path 158" class="cls-13" d="M588.314,706.318c-14.372-1.594-28.684-2.852-43.127-3.8.233-1.015.355-1.594.6-2.659,14.494.954,28.867,2.2,43.3,3.806C588.781,704.725,588.619,705.252,588.314,706.318Z" transform="translate(0 0.041)"/>
        <path id="Path_159" data-name="Path 159" class="cls-13" d="M586.924,711.15c-14.271-1.594-28.481-2.852-42.813-3.806.233-1.015.355-1.583.589-2.649,14.393.954,28.664,2.2,42.985,3.8Z" transform="translate(0 0.041)"/>
        <path id="Path_160" data-name="Path 160" class="cls-13" d="M585.523,715.981c-14.21-1.594-28.268-2.852-42.5-3.806.233-1.015.355-1.583.589-2.649,14.291.954,28.42,2.2,42.63,3.8C585.99,714.387,585.828,714.915,585.523,715.981Z" transform="translate(0 0.041)"/>
        <path id="Path_161" data-name="Path 161" class="cls-13" d="M584.133,720.812c-14.058-1.6-28.055-2.852-42.183-3.806l.589-2.649c14.21.954,28.247,2.2,42.366,3.8C584.64,719.219,584.437,719.747,584.133,720.812Z" transform="translate(0 0.041)"/>
        <path id="Path_162" data-name="Path 162" class="cls-13" d="M582.742,725.634c-13.956-1.594-27.852-2.842-41.879-3.8.244-1.015.355-1.594.6-2.649,14.078.954,28.034,2.2,42.041,3.8Z" transform="translate(0 0.041)"/>
        <path id="Path_163" data-name="Path 163" class="cls-13" d="M581.341,730.475c-13.845-1.6-27.638-2.852-41.554-3.806.233-1.015.355-1.594.6-2.649,13.977.944,27.821,2.2,41.727,3.8C581.808,728.882,581.656,729.409,581.341,730.475Z" transform="translate(0 0.041)"/>
        <path id="Path_164" data-name="Path 164" class="cls-13" d="M633.8,548.81C616,547.176,598.271,545.918,580.4,545q4.507-20.168,9.023-40.346,28.075,1.37,56.018,3.806Q639.623,528.642,633.8,548.81Z" transform="translate(0 0.041)"/>
        <path id="Path_165" data-name="Path 165" class="cls-13" d="M536.712,726.547c-14.3-.223-28.511-.112-42.8.294l6.334-41.3c15.225-.406,30.308-.508,45.5-.294Q541.239,705.892,536.712,726.547Z" transform="translate(0 0.041)"/>
        <path id="Path_166" data-name="Path 166" class="cls-16" d="M135.817,588.538c.619,5.664-4,10.83-10.323,11.53l-34.074,3.755c-6.323.7-11.957-3.339-12.586-9h0c-.629-5.674,4-10.83,10.323-11.53l34.074-3.725c6.323-.69,11.957,3.339,12.586,9.013Z" transform="translate(0 0.041)"/>
        <path id="Path_167" data-name="Path 167" class="cls-16" d="M146.221,605.458c.629,5.674-4,10.84-10.312,11.53L93.38,621.677c-6.323.7-11.957-3.329-12.586-9h0c-.609-5.7,4-10.779,10.333-11.53l42.508-4.689C139.958,595.754,145.592,599.794,146.221,605.458Z" transform="translate(0 0.041)"/>
        <path id="Path_168" data-name="Path 168" class="cls-16" d="M147.977,621.353c.619,5.674-4,10.83-10.323,11.53l-42.518,4.689c-6.323.69-11.957-3.339-12.576-9.013h0c-.629-5.664,3.989-10.83,10.312-11.53l42.518-4.679C141.714,611.649,147.348,615.679,147.977,621.353Z" transform="translate(0 0.041)"/>
        <path id="Path_169" data-name="Path 169" class="cls-16" d="M140.324,635.674c.467,4.2-2.964,8.039-7.653,8.556L101.124,647.7c-4.689.518-8.871-2.466-9.338-6.679h0c-.467-4.2,2.964-8.039,7.653-8.556L131,628.985c4.689-.518,8.871,2.477,9.328,6.689Z" transform="translate(0 0.041)"/>
        <path id="Path_170" data-name="Path 170" class="cls-17" d="M656.776,588.538c-.629,5.664,3.989,10.83,10.312,11.53l34.084,3.755c6.323.7,11.957-3.339,12.576-9h0c.629-5.674-3.989-10.83-10.312-11.53l-34.084-3.725c-6.323-.69-11.957,3.339-12.576,9.013Z" transform="translate(0 0.041)"/>
        <path id="Path_171" data-name="Path 171" class="cls-17" d="M646.362,605.458c-.619,5.674,4,10.84,10.323,11.53l42.518,4.689c6.323.7,11.957-3.329,12.576-9h0c.629-5.674-3.989-10.83-10.312-11.53l-42.518-4.689C652.625,595.754,646.991,599.794,646.362,605.458Z" transform="translate(0 0.041)"/>
        <path id="Path_172" data-name="Path 172" class="cls-17" d="M644.616,621.353c-.629,5.674,3.989,10.83,10.312,11.53l42.518,4.689c6.323.69,11.957-3.339,12.586-9.013h0c.619-5.664-4-10.83-10.323-11.53l-42.518-4.679C650.869,611.649,645.235,615.679,644.616,621.353Z" transform="translate(0 0.041)"/>
        <path id="Path_173" data-name="Path 173" class="cls-17" d="M652.259,635.674c-.467,4.2,2.964,8.039,7.653,8.556l31.556,3.471c4.689.518,8.871-2.466,9.328-6.679h0c.467-4.2-2.964-8.039-7.653-8.556L661.6,628.985C656.9,628.468,652.726,631.462,652.259,635.674Z" transform="translate(0 0.041)"/>
      </g>
    </g>
  </g>
</svg>
