<svg xmlns="http://www.w3.org/2000/svg" xmlns:xlink="http://www.w3.org/1999/xlink" viewBox="0 0 655.32 685.47"><defs><style>.cls-1{fill:none;}.cls-10,.cls-2{isolation:isolate;}.cls-3{opacity:0.5;}.cls-4{opacity:0.7;mix-blend-mode:hard-light;fill:url(#linear-gradient);}.cls-5{fill:url(#linear-gradient-2);}.cls-6{opacity:0.67;mix-blend-mode:soft-light;fill:url(#linear-gradient-3);}.cls-7{clip-path:url(#clip-path);}.cls-8{fill:#1e90ff;}.cls-9{fill:#53c7f0;}.cls-10{fill:#929497;opacity:0.3;}.cls-11{fill:#fc9;}.cls-12{fill:#fcd19d;}.cls-13{fill:#331f17;}.cls-14{fill:#e2e2e2;}.cls-15{fill:#3c5267;}.cls-16{fill:#ccc;}.cls-17{fill:#e5e6e7;}.cls-18{fill:#cfd1d2;}.cls-19{fill:#babcbe;}.cls-20{fill:#f0f1f1;}.cls-21{fill:#ffdaa6;}.cls-22{fill:#fbe1bf;}</style><linearGradient id="linear-gradient" x1="80.18" y1="345.86" x2="645.48" y2="345.86" gradientTransform="translate(-46.92) scale(1.05 1)" gradientUnits="userSpaceOnUse"><stop offset="0" stop-color="#f5f6f7"/><stop offset="0.42" stop-color="#eceff0"/><stop offset="1" stop-color="#d8dee1"/></linearGradient><linearGradient id="linear-gradient-2" x1="655.05" y1="-80.93" x2="109.74" y2="613.58" gradientUnits="userSpaceOnUse"><stop offset="0" stop-color="#c5ced2"/><stop offset="1" stop-color="#cfd6d9"/></linearGradient><linearGradient id="linear-gradient-3" y1="355.87" x2="655.32" y2="355.87" gradientUnits="userSpaceOnUse"><stop offset="0.01" stop-color="#c5ced2" stop-opacity="0.7"/><stop offset="0.24" stop-color="#c5ced2" stop-opacity="0.72"/><stop offset="0.51" stop-color="#c5ced2" stop-opacity="0.79"/><stop offset="0.81" stop-color="#c5ced2" stop-opacity="0.91"/><stop offset="1" stop-color="#c5ced2"/></linearGradient><clipPath id="clip-path"><ellipse class="cls-1" cx="351.29" cy="329.36" rx="186.23" ry="183.19"/></clipPath></defs><title>Asset 1</title><g class="cls-2"><g id="Layer_2" data-name="Layer 2"><g id="Layer_1-2" data-name="Layer 1"><g class="cls-3"><path class="cls-4" d="M628.05,438.6a175.66,175.66,0,0,0-2.37-28.72l.05.11S605,249.44,473.6,120.5l.06.1c-34.7-37-85.08-60.35-141.17-60.35S226.1,83.52,191.4,120.51C60.4,249.06,39.41,409,39.28,410a175.45,175.45,0,0,0-2.36,28.62c0,79.48,53.51,147,128,171.44,0,0,118.08,43.26,307.73,6.85h0C561,601.56,628.05,527.57,628.05,438.6Z"/><path class="cls-5" d="M492.17,5.15A126,126,0,0,0,465.89.76l.11,0s-149.29-16-305.66,102.33l.1,0c-43.95,30.5-80.68,82.34-98.52,146.45s-13.14,127.36,8.7,176.16c72.61,181.52,208.12,245.07,208.91,245.44a126.1,126.1,0,0,0,24.69,9.78C374.86,700.49,451.88,656,497.28,577c0,0,76-124.27,103.93-350.05h0C615.69,122.07,571.25,27.14,492.17,5.15Z"/><path class="cls-6" d="M603,609.69a129.66,129.66,0,0,0,14.18-23.49v.12s72.05-136.88,18.2-331.58v.11c-12.5-53.68-48.17-108.56-102.78-150s-117-61-172-58.63C159.15,46.75,46.78,152.35,46.13,153A130.48,130.48,0,0,0,27.38,172.9C-18.28,233.07-5,323.73,53.47,397.24c0,0,90.11,120,295.69,232.57h0C444,683.53,551.84,677.06,603,609.69Z"/></g><g class="cls-7"><g id="news1"><g id="news_paper1" data-name="news paper1"><g id="Layer_1-3" data-name="Layer 1"><rect id="Rectangle_1" data-name="Rectangle 1" class="cls-8" x="165.06" y="146.17" width="372.47" height="366.39"/><rect id="Rectangle_2" data-name="Rectangle 2" class="cls-9" x="165.06" y="450.73" width="372.47" height="61.83"/></g><g id="Layer_2-2" data-name="Layer 2"><path id="Path_1" data-name="Path 1" class="cls-10" d="M301.75,236.66,194.56,342.11,180.66,344l-15.6,15.71V512.55h264l26.07-25.79Z"/><path id="Path_2" data-name="Path 2" class="cls-11" d="M345.37,238.78V338.91L322.24,327.4V311.75a40,40,0,0,1-8.75-21.86s-4.38-.92-6.69-10.37S302.94,263.06,311,264l5.28-32.57Z"/><path id="Path_3" data-name="Path 3" class="cls-12" d="M345.37,238.78V338.91l23.15-11.51V311.75a40.1,40.1,0,0,0,8.75-21.86s4.38-.92,6.7-10.37,3.86-16.46-4.25-15.53l-5.28-32.57Z"/><path id="Path_4" data-name="Path 4" class="cls-13" d="M319.68,237.68a95.56,95.56,0,0,0,28.82,8.51c17,2.31,24.67,5.3,24.67,5.3s4.89,13.35,4.38,20.95a20.51,20.51,0,0,0,6.19-12.22c1-7.82,3.35-37.52-31.13-45.58s-70.5,25.11-41.68,56.88c0,0,4.89-7.6,4.11-15.66C312,243,319.68,237.68,319.68,237.68Z"/><path id="Path_5" data-name="Path 5" class="cls-14" d="M321.53,313.53l-4.44,3.23,28.58,73.85V330.37Z"/><path id="Path_6" data-name="Path 6" class="cls-14" d="M369.8,313.53l4.44,3.23-28.57,73.85V330.37Z"/><path id="Path_7" data-name="Path 7" class="cls-15" d="M341.29,345.21l-4.61-12.54,4.61-3.15h9.21l4.6,3.15-4.6,12.54Z"/><path id="Path_8" data-name="Path 8" class="cls-15" d="M341.2,345.21,332.34,395l13.8,18.93V345.36l-2.9-2.51Z"/><path id="Path_9" data-name="Path 9" class="cls-15" d="M350.59,345.21,359.44,395l-13.8,18.93V345.36l2.9-2.51Z"/><path id="Path_10" data-name="Path 10" class="cls-16" d="M317.87,318.73,271,340.25S260.5,346.07,260,355.68s-5.91,37.71-5.91,37.71l91.6,64.8V390.61Z"/><path id="Path_11" data-name="Path 11" class="cls-16" d="M373.46,318.73l46.83,21.52s10.55,5.83,11.07,15.45,5.92,37.71,5.92,37.71l-91.61,64.78V390.61Z"/><path id="Path_12" data-name="Path 12" class="cls-17" d="M345.73,487c-36.17-8.82-73.48-9.72-109.55,0q-27.75-71.48-55.52-143c54.57-9.69,110.41-9.07,165,0Q345.71,415.52,345.73,487Z"/><path id="Path_13" data-name="Path 13" class="cls-18" d="M264.61,399A396.84,396.84,0,0,0,212,404.76l-21.09-57.52a529.71,529.71,0,0,1,61.1-5.76Z"/><path id="Path_14" data-name="Path 14" class="cls-19" d="M264.61,399A396.84,396.84,0,0,0,212,404.76l-4-11A420,420,0,0,1,262.2,388C263.17,392.38,263.65,394.58,264.61,399Z"/><path id="Path_15" data-name="Path 15" class="cls-19" d="M337.17,369.18a503.38,503.38,0,0,0-75.3-5.85q-2.25-11-4.53-21.93a556.11,556.11,0,0,1,79.36,5.84Z"/><path id="Path_16" data-name="Path 16" class="cls-18" d="M298,366.47c-9.62-.63-19.22-1-28.86-1.11.13.71.2,1.06.33,1.77,9.61.11,19.16.46,28.75,1.11Z"/><path id="Path_17" data-name="Path 17" class="cls-18" d="M298.27,369.11c-11.81-.69-23.59-1.05-35.42-1.09.14.71.22,1.07.36,1.77,11.78,0,23.51.39,35.27,1.09Z"/><path id="Path_18" data-name="Path 18" class="cls-18" d="M295.7,371.55c-10.77-.55-21.52-.85-32.31-.88l.37,1.77c10.74,0,21.44.32,32.16.88C295.83,372.61,295.79,372.26,295.7,371.55Z"/><path id="Path_19" data-name="Path 19" class="cls-18" d="M298.9,374.4q-17.46-1-35-1.08l.36,1.76c11.64,0,23.2.4,34.81,1.09Z"/><path id="Path_20" data-name="Path 20" class="cls-18" d="M298.58,377c-11.37-.67-22.7-1-34.09-1,.15.71.22,1.06.36,1.77,11.34,0,22.63.37,33.94,1C298.71,378.06,298.68,377.71,298.58,377Z"/><path id="Path_21" data-name="Path 21" class="cls-18" d="M299.53,379.7c-11.5-.69-23-1.05-34.49-1.08.14.7.21,1.05.36,1.76,11.47,0,22.89.4,34.33,1.09Z"/><path id="Path_22" data-name="Path 22" class="cls-18" d="M294.54,382c-9.65-.46-19.28-.71-29-.73.15.71.22,1.07.37,1.77q14.43,0,28.83.72Z"/><path id="Path_23" data-name="Path 23" class="cls-18" d="M300.15,385c-11.34-.69-22.65-1.05-34-1.09l.37,1.77c11.31,0,22.57.39,33.86,1.08Z"/><path id="Path_24" data-name="Path 24" class="cls-18" d="M298.62,387.51c-10.65-.68-21.26-1-31.94-.95.14.71.22,1.06.36,1.77,10.64,0,21.19.27,31.8.94C298.75,388.57,298.71,388.22,298.62,387.51Z"/><path id="Path_25" data-name="Path 25" class="cls-18" d="M300.78,390.29q-16.75-1-33.55-1.09c.14.71.22,1.06.36,1.77,11.18,0,22.27.4,33.4,1.09Z"/><path id="Path_26" data-name="Path 26" class="cls-18" d="M297.46,392.68q-14.83-.8-29.69-.82c.15.71.22,1.06.37,1.76,9.87,0,19.69.3,29.55.82C297.59,393.74,297.55,393.38,297.46,392.68Z"/><path id="Path_27" data-name="Path 27" class="cls-18" d="M301.42,395.59c-11-.69-22-1-33.1-1.08l.37,1.76c11,0,21.95.39,32.93,1.09Z"/><path id="Path_28" data-name="Path 28" class="cls-18" d="M294.4,397.7c-8.52-.43-17-.62-25.54-.58l.37,1.76c8.49,0,16.93.16,25.41.58C294.54,398.76,294.49,398.41,294.4,397.7Z"/><path id="Path_29" data-name="Path 29" class="cls-18" d="M336.82,371.16c-9.42-1.61-18.9-2.81-28.4-3.81l.16,1.77c9.48,1,18.91,2.2,28.29,3.81C336.86,372.22,336.83,371.87,336.82,371.16Z"/><path id="Path_30" data-name="Path 30" class="cls-18" d="M336.86,373.8c-11.64-1.83-23.25-3.29-35-4.42.07.71.11,1.06.19,1.77,11.67,1.12,23.25,2.58,34.82,4.42C336.9,374.87,336.89,374.52,336.86,373.8Z"/><path id="Path_31" data-name="Path 31" class="cls-18" d="M334.14,376c-10.62-1.59-21.25-2.9-31.95-3.94l.2,1.76q16,1.57,31.8,3.95Z"/><path id="Path_32" data-name="Path 32" class="cls-18" d="M337,379.11c-11.47-1.84-22.94-3.28-34.52-4.42l.2,1.76c11.52,1.14,22.94,2.6,34.36,4.42C337,380.17,337,379.81,337,379.11Z"/><path id="Path_33" data-name="Path 33" class="cls-18" d="M336.44,381.65q-16.76-2.65-33.66-4.32c.07.71.11,1.07.19,1.77,11.24,1.12,22.38,2.54,33.52,4.32C336.46,382.71,336.46,382.35,336.44,381.65Z"/><path id="Path_34" data-name="Path 34" class="cls-18" d="M337.12,384.4c-11.32-1.83-22.64-3.27-34.06-4.41.08.7.13,1.05.2,1.76,11.37,1.14,22.64,2.6,33.89,4.42C337.14,385.46,337.13,385.11,337.12,384.4Z"/><path id="Path_35" data-name="Path 35" class="cls-18" d="M332,386.17q-14.29-2.13-28.67-3.54c.07.7.12,1.06.19,1.76,9.56.95,19.05,2.13,28.54,3.54C332.06,387.23,332.05,386.88,332,386.17Z"/><path id="Path_36" data-name="Path 36" class="cls-18" d="M337.24,389.7c-11.18-1.83-22.33-3.28-33.59-4.42.08.71.11,1.06.19,1.77q16.83,1.69,33.44,4.42C337.26,390.75,337.25,390.4,337.24,389.7Z"/><path id="Path_37" data-name="Path 37" class="cls-18" d="M335.51,392c-10.49-1.74-21-3.1-31.57-4.12.07.7.12,1.06.19,1.77,10.55,1,21,2.35,31.42,4.1Z"/><path id="Path_38" data-name="Path 38" class="cls-18" d="M337.35,395c-11-1.83-22-3.28-33.12-4.42.08.7.11,1.06.19,1.76,11.07,1.14,22,2.6,33,4.42Z"/><path id="Path_39" data-name="Path 39" class="cls-18" d="M333.88,397c-9.78-1.53-19.52-2.78-29.36-3.79.08.7.12,1.06.19,1.76q14.67,1.51,29.23,3.79C333.91,398.08,333.9,397.72,333.88,397Z"/><path id="Path_40" data-name="Path 40" class="cls-18" d="M337.48,400.29c-10.85-1.83-21.71-3.28-32.67-4.42l.2,1.77c10.9,1.14,21.71,2.6,32.51,4.42C337.5,401.35,337.49,401,337.48,400.29Z"/><path id="Path_41" data-name="Path 41" class="cls-18" d="M330.4,401.66c-8.41-1.29-16.82-2.35-25.3-3.18.07.71.12,1.06.19,1.77,8.45.83,16.81,1.88,25.19,3.18C330.44,402.72,330.43,402.36,330.4,401.66Z"/><path id="Path_42" data-name="Path 42" class="cls-19" d="M337.92,420.11c-39.93-6.92-80.36-7.38-120.25.08-.23-.62-.34-.92-.56-1.54,40-7.47,80.67-7,120.77-.07C337.9,419.19,337.91,419.5,337.92,420.11Z"/><path id="Path_43" data-name="Path 43" class="cls-19" d="M337.62,406.78c-13.55-2.29-27.12-4-40.85-5.1.49,3.7.73,5.55,1.23,9.24,13.39,1.13,26.62,2.8,39.83,5.09Z"/><path id="Path_44" data-name="Path 44" class="cls-19" d="M338,422.06c-13-2.29-26-4-39.17-5.09q1.88,14,3.73,28c12.15,1.13,24.11,2.8,36.06,5.09Q338.26,436.05,338,422.06Z"/><path id="Path_45" data-name="Path 45" class="cls-18" d="M294.52,401.55a375.21,375.21,0,0,0-81.74,5.3l3.39,9.23a356.08,356.08,0,0,1,79.61-5.3C295.29,407.09,295,405.25,294.52,401.55Z"/><path id="Path_46" data-name="Path 46" class="cls-18" d="M255.79,417c-11.09,1-22,2.38-33,4.25.3.86.46,1.29.76,2.16,10.88-1.88,21.75-3.27,32.77-4.25C256.12,418.26,256,417.83,255.79,417Z"/><path id="Path_47" data-name="Path 47" class="cls-18" d="M256.62,420.2a369.56,369.56,0,0,0-37.05,5.15l.79,2.16a364.91,364.91,0,0,1,36.81-5.16Z"/><path id="Path_48" data-name="Path 48" class="cls-18" d="M257.45,423.43a362.18,362.18,0,0,0-36.69,5.16l.79,2.15A357.72,357.72,0,0,1,258,425.59C257.78,424.73,257.66,424.3,257.45,423.43Z"/><path id="Path_49" data-name="Path 49" class="cls-18" d="M258.27,426.66A358.46,358.46,0,0,0,222,431.82l.79,2.15a351,351,0,0,1,36.09-5.15C258.6,428,258.49,427.52,258.27,426.66Z"/><path id="Path_50" data-name="Path 50" class="cls-18" d="M259.11,429.89a351.12,351.12,0,0,0-36,5.16c.31.86.46,1.29.79,2.16a341.55,341.55,0,0,1,35.73-5.16C259.43,431.19,259.32,430.76,259.11,429.89Z"/><path id="Path_51" data-name="Path 51" class="cls-18" d="M259.92,433.13a341.75,341.75,0,0,0-35.6,5.15c.32.86.47,1.29.79,2.16a334.66,334.66,0,0,1,35.38-5.16C260.25,434.42,260.14,434,259.92,433.13Z"/><path id="Path_52" data-name="Path 52" class="cls-18" d="M260.75,436.36a335.21,335.21,0,0,0-35.25,5.15l.79,2.15a330.76,330.76,0,0,1,35-5.15Z"/><path id="Path_53" data-name="Path 53" class="cls-18" d="M261.58,439.59a327.78,327.78,0,0,0-34.89,5.15l.79,2.16a294.17,294.17,0,0,1,34.65-5.16C261.9,440.88,261.8,440.45,261.58,439.59Z"/><path id="Path_54" data-name="Path 54" class="cls-18" d="M255,443.48c-9.14,1.16-18.13,2.64-27.13,4.49.31.86.46,1.29.78,2.16,8.94-1.86,17.87-3.33,27-4.49C255.38,444.79,255.25,444.33,255,443.48Z"/><path id="Path_55" data-name="Path 55" class="cls-18" d="M296.92,416.85c-11.64-.49-23.16-.57-34.79-.24.21.86.31,1.29.51,2.16,11.56-.34,23-.25,34.58.24C297.1,418.13,297,417.7,296.92,416.85Z"/><path id="Path_56" data-name="Path 56" class="cls-18" d="M297.37,420.06c-13.11-.56-26.13-.57-39.24,0,.22.86.33,1.29.54,2.15,13-.59,26-.59,39,0C297.55,421.36,297.49,420.93,297.37,420.06Z"/><path id="Path_57" data-name="Path 57" class="cls-18" d="M297.82,423.3c-13-.56-25.89-.56-38.88,0l.55,2.15c12.9-.59,25.72-.59,38.64,0C298,424.6,297.94,424.18,297.82,423.3Z"/><path id="Path_58" data-name="Path 58" class="cls-18" d="M298.27,426.53c-12.87-.56-25.65-.56-38.52,0,.22.86.33,1.29.54,2.16,12.79-.6,25.49-.6,38.28,0C298.45,427.84,298.39,427.39,298.27,426.53Z"/><path id="Path_59" data-name="Path 59" class="cls-18" d="M298.72,429.77c-12.75-.57-25.41-.57-38.15,0,.21.86.32,1.29.54,2.16,12.66-.6,25.24-.6,37.9,0C298.89,431.05,298.84,430.63,298.72,429.77Z"/><path id="Path_60" data-name="Path 60" class="cls-18" d="M299.15,433c-12.62-.57-25.14-.57-37.78,0,.21.87.32,1.3.54,2.16,12.54-.59,25-.59,37.54,0Z"/><path id="Path_61" data-name="Path 61" class="cls-18" d="M299.61,436.23c-12.5-.56-24.92-.57-37.42,0,.21.86.32,1.29.54,2.15,12.42-.59,24.76-.59,37.18,0Z"/><path id="Path_62" data-name="Path 62" class="cls-18" d="M300.08,439.46c-12.39-.56-24.68-.56-37.06,0,.22.86.33,1.29.54,2.15,12.3-.59,24.51-.59,36.82,0C300.24,440.76,300.18,440.32,300.08,439.46Z"/><path id="Path_63" data-name="Path 63" class="cls-18" d="M292.86,442.29c-9.71-.19-19.35-.06-29.05.43.22.86.33,1.29.54,2.15,9.63-.48,19.21-.62,28.87-.42Z"/><path id="Path_64" data-name="Path 64" class="cls-19" d="M338.66,452.58c-11.86-2.29-23.72-4-35.78-5.09l3.72,28a321.65,321.65,0,0,1,32.68,5.09Q339,466.57,338.66,452.58Z"/><path id="Path_65" data-name="Path 65" class="cls-18" d="M263.59,447.48c-10.11,1-20,2.38-30,4.25.3.86.46,1.29.76,2.16,9.88-1.88,19.76-3.27,29.8-4.25Z"/><path id="Path_66" data-name="Path 66" class="cls-18" d="M264.42,450.71a317.8,317.8,0,0,0-33.65,5.16l.79,2.15A311.23,311.23,0,0,1,265,452.87Z"/><path id="Path_67" data-name="Path 67" class="cls-18" d="M265.24,454A311.4,311.4,0,0,0,232,459.11l.79,2.15a307.4,307.4,0,0,1,33.06-5.16C265.58,455.24,265.46,454.81,265.24,454Z"/><path id="Path_68" data-name="Path 68" class="cls-18" d="M266.09,457.16a302.38,302.38,0,0,0-32.92,5.15l.79,2.16a300.54,300.54,0,0,1,32.68-5.16C266.4,458.47,266.29,458,266.09,457.16Z"/><path id="Path_69" data-name="Path 69" class="cls-18" d="M266.89,460.41a296,296,0,0,0-32.56,5.15l.79,2.16a294.12,294.12,0,0,1,32.32-5.16C267.22,461.7,267.12,461.28,266.89,460.41Z"/><path id="Path_70" data-name="Path 70" class="cls-18" d="M267.72,463.64a289.25,289.25,0,0,0-32.2,5.15l.79,2.16a287.4,287.4,0,0,1,32-5.16Z"/><path id="Path_71" data-name="Path 71" class="cls-18" d="M268.54,466.87A285.68,285.68,0,0,0,236.7,472l.79,2.15a279.21,279.21,0,0,1,31.6-5.15Z"/><path id="Path_72" data-name="Path 72" class="cls-18" d="M269.35,470.1a278.68,278.68,0,0,0-31.48,5.16l.79,2.15a273,273,0,0,1,31.26-5.14C269.7,471.39,269.59,471,269.35,470.1Z"/><path id="Path_73" data-name="Path 73" class="cls-18" d="M263.51,474c-8.25,1.16-16.33,2.63-24.44,4.49l.8,2.15c8-1.86,16-3.32,24.24-4.49C263.88,475.29,263.76,474.86,263.51,474Z"/><path id="Path_74" data-name="Path 74" class="cls-18" d="M301.16,447.35c-10.62-.49-21.16-.58-31.79-.24l.52,2.15c10.55-.33,21-.24,31.56.25C301.34,448.65,301.28,448.22,301.16,447.35Z"/><path id="Path_75" data-name="Path 75" class="cls-18" d="M301.61,450.59c-12-.57-23.85-.57-35.82,0,.22.86.33,1.3.54,2.16,11.89-.6,23.68-.59,35.57,0C301.78,451.88,301.72,451.45,301.61,450.59Z"/><path id="Path_76" data-name="Path 76" class="cls-18" d="M302.05,453.82c-11.85-.54-23.59-.54-35.45,0l.55,2.16c11.77-.57,23.43-.57,35.2,0C302.23,455.11,302.18,454.68,302.05,453.82Z"/><path id="Path_77" data-name="Path 77" class="cls-18" d="M302.5,457.05c-11.73-.54-23.35-.54-35.09,0l.55,2.15c11.64-.57,23.19-.57,34.84,0Z"/><path id="Path_78" data-name="Path 78" class="cls-18" d="M303,460.28c-11.64-.54-23.11-.54-34.72,0,.21.86.32,1.29.54,2.15,11.53-.57,22.94-.57,34.48,0Z"/><path id="Path_79" data-name="Path 79" class="cls-18" d="M303.4,463.51c-11.5-.54-22.87-.54-34.36,0,.21.86.33,1.29.54,2.15,11.42-.57,22.7-.57,34.12,0Z"/><path id="Path_80" data-name="Path 80" class="cls-18" d="M303.85,466.75c-11.38-.55-22.63-.55-34,0,.22.86.32,1.29.54,2.15,11.24-.56,22.51-.57,33.75,0C304,468,304,467.61,303.85,466.75Z"/><path id="Path_81" data-name="Path 81" class="cls-18" d="M304.29,470q-16.8-.83-33.63,0c.22.87.33,1.3.54,2.16a332.22,332.22,0,0,1,33.4,0Z"/><path id="Path_82" data-name="Path 82" class="cls-18" d="M297.79,472.81c-8.8-.18-17.52,0-26.32.42.22.87.33,1.3.54,2.16,8.73-.46,17.39-.6,26.14-.43C298,474.1,297.93,473.67,297.79,472.81Z"/><path id="Path_83" data-name="Path 83" class="cls-20" d="M455.21,487c-36.06-9.72-73.38-8.82-109.55,0q0-71.48,0-142.95c54.61-9.08,110.47-9.7,165,0Q483,415.52,455.21,487Z"/><path id="Path_84" data-name="Path 84" class="cls-19" d="M492.23,369.76c-45.81-7.48-92.18-7.05-138,0q.23-10.81.46-21.6c48.3-7.06,97.19-7.48,145.48,0Z"/><path id="Path_85" data-name="Path 85" class="cls-19" d="M489,378.67c-44.77-7.49-90.14-7-134.95,0v-.82c44.9-7,90.36-7.48,135.23,0C489.13,378.18,489.08,378.35,489,378.67Z"/><path id="Path_86" data-name="Path 86" class="cls-18" d="M491.54,371.65c-14.23-2.37-28.48-4-42.88-5.15l-1.25,4.86c14.23,1.1,28.3,2.78,42.34,5.14C490.46,374.56,490.82,373.59,491.54,371.65Z"/><path id="Path_87" data-name="Path 87" class="cls-18" d="M446.24,366.36a480.71,480.71,0,0,0-92.07,5.28c0,1.95-.06,2.92-.11,4.86a470.09,470.09,0,0,1,91-5.28C445.5,369.28,445.75,368.31,446.24,366.36Z"/><path id="Path_88" data-name="Path 88" class="cls-19" d="M465.79,439.09a315.35,315.35,0,0,0-67.86-5.39l3.36-21.57a356,356,0,0,1,72.35,5.4Q469.71,428.3,465.79,439.09Z"/><path id="Path_89" data-name="Path 89" class="cls-18" d="M465.1,441c-6.87-1.53-13.83-2.73-20.83-3.6-.15.5-.22.75-.38,1.25,7,1,13.86,2.18,20.75,3.6C464.83,441.73,464.92,441.48,465.1,441Z"/><path id="Path_90" data-name="Path 90" class="cls-18" d="M443.1,437.23a367.16,367.16,0,0,0-45.47-1.65c-.08.51-.11.76-.19,1.26a364.27,364.27,0,0,1,45.29,1.65C442.88,438,443,437.73,443.1,437.23Z"/><path id="Path_91" data-name="Path 91" class="cls-18" d="M464,443.87c-6.86-1.42-13.68-2.6-20.63-3.6-.16.51-.23.76-.38,1.27,6.92,1,13.72,2.17,20.55,3.6C463.77,444.64,463.86,444.39,464,443.87Z"/><path id="Path_92" data-name="Path 92" class="cls-18" d="M442.25,440.13a358.91,358.91,0,0,0-45.07-1.64l-.2,1.26a358,358,0,0,1,44.9,1.65C442,440.89,442.08,440.64,442.25,440.13Z"/><path id="Path_93" data-name="Path 93" class="cls-18" d="M463,446.79c-6.79-1.43-13.55-2.61-20.44-3.6-.15.5-.22.75-.37,1.26,6.86,1,13.59,2.17,20.36,3.6Z"/><path id="Path_94" data-name="Path 94" class="cls-18" d="M441.39,443a352.29,352.29,0,0,0-44.66-1.64l-.2,1.25A351.54,351.54,0,0,1,441,444.3Z"/><path id="Path_95" data-name="Path 95" class="cls-18" d="M461.93,449.7c-6.74-1.43-13.43-2.61-20.25-3.61l-.37,1.26c6.79,1,13.46,2.18,20.15,3.6C461.64,450.45,461.74,450.2,461.93,449.7Z"/><path id="Path_96" data-name="Path 96" class="cls-18" d="M440.54,446a344.43,344.43,0,0,0-44.27-1.65c-.08.5-.12.76-.19,1.26a345.33,345.33,0,0,1,44.09,1.65C440.32,446.7,440.39,446.45,440.54,446Z"/><path id="Path_97" data-name="Path 97" class="cls-18" d="M460.87,452.6c-6.67-1.43-13.29-2.61-20.05-3.6-.16.5-.23.75-.38,1.26,6.73,1,13.33,2.17,20,3.6C460.59,453.36,460.71,453.1,460.87,452.6Z"/><path id="Path_98" data-name="Path 98" class="cls-18" d="M439.69,448.85a340,340,0,0,0-43.87-1.64l-.2,1.26a335.57,335.57,0,0,1,43.7,1.65Z"/><path id="Path_99" data-name="Path 99" class="cls-18" d="M459.81,455.51c-6.6-1.43-13.16-2.61-19.86-3.61l-.37,1.27c6.66,1,13.2,2.17,19.77,3.6C459.54,456.26,459.63,456,459.81,455.51Z"/><path id="Path_100" data-name="Path 100" class="cls-18" d="M438.82,451.76a333.66,333.66,0,0,0-43.46-1.65l-.2,1.27a331.2,331.2,0,0,1,43.3,1.64Z"/><path id="Path_101" data-name="Path 101" class="cls-18" d="M458.75,458.41c-6.52-1.42-13-2.61-19.67-3.6l-.37,1.26c6.61,1,13.07,2.18,19.58,3.6Z"/><path id="Path_102" data-name="Path 102" class="cls-18" d="M438,454.66A327.62,327.62,0,0,0,394.92,453l-.2,1.26a323.28,323.28,0,0,1,42.89,1.65Z"/><path id="Path_103" data-name="Path 103" class="cls-18" d="M390.18,474.22a304.48,304.48,0,0,0-37.92,5.42q1.15-50.08,2.33-100.17,25.21-4,50.74-5.42Z"/><path id="Path_104" data-name="Path 104" class="cls-18" d="M433.27,375q-13.11-.16-26.21.14l.18-1.2c8.78-.2,17.52-.25,26.29-.13C433.43,374.32,433.38,374.55,433.27,375Z"/><path id="Path_105" data-name="Path 105" class="cls-18" d="M432.77,377.21c-8.7-.11-17.37-.06-26.07.14.08-.48.11-.72.18-1.2Q420,375.85,433,376C432.94,376.5,432.89,376.74,432.77,377.21Z"/><path id="Path_106" data-name="Path 106" class="cls-18" d="M432.31,379.39q-13-.17-25.92.14l.18-1.2q13-.3,26-.13C432.46,378.68,432.4,378.91,432.31,379.39Z"/><path id="Path_107" data-name="Path 107" class="cls-18" d="M431.84,381.59q-12.9-.16-25.78.13l.19-1.19c8.62-.2,17.22-.25,25.86-.14A8.32,8.32,0,0,0,431.84,381.59Z"/><path id="Path_108" data-name="Path 108" class="cls-18" d="M431.33,383.75q-12.82-.17-25.63.13l.18-1.19q12.87-.3,25.72-.14C431.49,383,431.43,383.27,431.33,383.75Z"/><path id="Path_109" data-name="Path 109" class="cls-18" d="M430.85,385.93q-12.77-.17-25.49.13l.18-1.19q12.79-.3,25.57-.14C431,385.22,431,385.45,430.85,385.93Z"/><path id="Path_110" data-name="Path 110" class="cls-18" d="M430.36,388.11c-8.46-.11-16.89-.07-25.34.13l.18-1.19q12.72-.3,25.42-.13C430.52,387.4,430.47,387.63,430.36,388.11Z"/><path id="Path_111" data-name="Path 111" class="cls-18" d="M429.88,390.29q-12.61-.17-25.2.13l.18-1.19q12.64-.3,25.28-.14C430,389.58,430,389.83,429.88,390.29Z"/><path id="Path_112" data-name="Path 112" class="cls-18" d="M429.39,392.47q-12.54-.17-25.05.13l.18-1.19q12.57-.3,25.15-.14C429.55,391.75,429.51,392,429.39,392.47Z"/><path id="Path_113" data-name="Path 113" class="cls-18" d="M428.91,394.65q-12.46-.16-24.91.13l.19-1.19q12.49-.3,25-.14C429.05,394,429,394.17,428.91,394.65Z"/><path id="Path_114" data-name="Path 114" class="cls-18" d="M428.42,396.83q-12.39-.16-24.76.13l.18-1.19q12.44-.3,24.85-.14Z"/><path id="Path_115" data-name="Path 115" class="cls-18" d="M427.94,399c-8.22-.11-16.41-.07-24.62.13l.18-1.19q12.36-.3,24.7-.13C428.12,398.29,428,398.53,427.94,399Z"/><path id="Path_116" data-name="Path 116" class="cls-18" d="M427.45,401.19q-12.24-.17-24.47.13l.18-1.19q12.29-.31,24.56-.14Z"/><path id="Path_117" data-name="Path 117" class="cls-18" d="M427,403.37q-12.18-.17-24.33.13l.18-1.2c8.15-.19,16.27-.24,24.41-.13Z"/><path id="Path_118" data-name="Path 118" class="cls-18" d="M426.48,405.55c-8.07-.11-16.11-.07-24.18.13l.21-1.19c8.09-.2,16.16-.25,24.26-.14Z"/><path id="Path_119" data-name="Path 119" class="cls-18" d="M426,407.73q-12-.17-24,.13l.19-1.2q12.06-.3,24.11-.13C426.15,407,426.1,407.24,426,407.73Z"/><path id="Path_120" data-name="Path 120" class="cls-18" d="M425.51,409.91q-12-.18-23.89.13l.18-1.2q12-.3,24-.13C425.68,409.19,425.62,409.43,425.51,409.91Z"/><path id="Path_121" data-name="Path 121" class="cls-18" d="M455,396.42q-12.15-1.1-24.33-1.71c.12-.46.17-.72.28-1.2q12.22.62,24.4,1.72Z"/><path id="Path_122" data-name="Path 122" class="cls-18" d="M454.38,398.6q-12.09-1.11-24.18-1.71c.11-.46.16-.72.27-1.2,8.11.41,16.18,1,24.26,1.72Z"/><path id="Path_123" data-name="Path 123" class="cls-18" d="M453.72,400.78c-8-.73-16-1.3-24-1.71.11-.46.16-.72.27-1.2,8.06.41,16.08,1,24.11,1.72Z"/><path id="Path_124" data-name="Path 124" class="cls-18" d="M453.1,403q-11.94-1.09-23.89-1.71c.11-.46.16-.72.27-1.2q12,.61,24,1.71C453.31,402.24,453.26,402.48,453.1,403Z"/><path id="Path_125" data-name="Path 125" class="cls-18" d="M452.46,405.14q-11.86-1.11-23.75-1.72c.11-.46.16-.71.27-1.19,8,.42,15.9,1,23.81,1.71C452.67,404.42,452.6,404.66,452.46,405.14Z"/><path id="Path_126" data-name="Path 126" class="cls-18" d="M451.82,407.32c-7.86-.73-15.71-1.3-23.6-1.72.11-.45.16-.72.27-1.19q11.88.61,23.68,1.71Z"/><path id="Path_127" data-name="Path 127" class="cls-18" d="M451.18,409.5q-11.71-1.1-23.46-1.72l.27-1.19q11.81.62,23.54,1.71Z"/><path id="Path_128" data-name="Path 128" class="cls-18" d="M450.54,411.68q-11.64-1.1-23.31-1.71l.27-1.2c7.82.41,15.6,1,23.39,1.71Z"/><path id="Path_129" data-name="Path 129" class="cls-18" d="M487.1,380.56q-12.21-2.15-24.5-3.56l.35-1.2c8.25,1,16.42,2.14,24.58,3.56Z"/><path id="Path_130" data-name="Path 130" class="cls-18" d="M486.31,382.74c-8.08-1.43-16.17-2.6-24.35-3.56l.36-1.2c8.2,1,16.3,2.14,24.43,3.56C486.56,382.05,486.48,382.26,486.31,382.74Z"/><path id="Path_131" data-name="Path 131" class="cls-18" d="M485.51,384.92c-8-1.43-16.08-2.6-24.21-3.56.13-.46.21-.72.35-1.2,8.15,1,16.22,2.13,24.29,3.56Z"/><path id="Path_132" data-name="Path 132" class="cls-18" d="M484.71,387.08c-8-1.42-16-2.6-24.06-3.56.14-.46.21-.71.35-1.2,8.11,1,16.13,2.14,24.15,3.57C485,386.38,484.89,386.63,484.71,387.08Z"/><path id="Path_133" data-name="Path 133" class="cls-18" d="M483.92,389.28c-7.95-1.43-15.89-2.6-23.92-3.57.14-.45.21-.71.36-1.19,8.05,1,16,2.13,24,3.56C484.18,388.56,484.09,388.8,483.92,389.28Z"/><path id="Path_134" data-name="Path 134" class="cls-18" d="M483.13,391.46c-7.92-1.43-15.8-2.6-23.78-3.57.14-.45.22-.71.36-1.19,8,.95,15.93,2.13,23.85,3.56C483.39,390.75,483.3,391,483.13,391.46Z"/><path id="Path_135" data-name="Path 135" class="cls-18" d="M482.33,393.64c-7.85-1.43-15.7-2.6-23.63-3.57.14-.45.21-.71.36-1.19,8,1,15.83,2.13,23.71,3.56C482.59,392.92,482.51,393.16,482.33,393.64Z"/><path id="Path_136" data-name="Path 136" class="cls-18" d="M481.54,395.82c-7.8-1.43-15.6-2.6-23.49-3.57.14-.45.21-.72.36-1.19,7.91,1,15.74,2.13,23.57,3.56C481.8,395.1,481.71,395.33,481.54,395.82Z"/><path id="Path_137" data-name="Path 137" class="cls-18" d="M480.73,398c-7.76-1.43-15.51-2.61-23.35-3.57.14-.45.22-.72.36-1.19,7.86.95,15.64,2.13,23.42,3.56Z"/><path id="Path_138" data-name="Path 138" class="cls-18" d="M480,400.18c-7.7-1.43-15.41-2.6-23.2-3.57.14-.45.21-.72.36-1.19,7.81,1,15.55,2.13,23.28,3.56C480.21,399.45,480.13,399.7,480,400.18Z"/><path id="Path_139" data-name="Path 139" class="cls-18" d="M479.16,402.36c-7.66-1.44-15.32-2.61-23.06-3.57.14-.48.21-.72.36-1.19,7.77,1,15.45,2.13,23.13,3.56Z"/><path id="Path_140" data-name="Path 140" class="cls-18" d="M478.37,404.54c-7.62-1.44-15.22-2.61-22.92-3.57l.35-1.2c7.73,1,15.37,2.14,23,3.57Z"/><path id="Path_141" data-name="Path 141" class="cls-18" d="M477.57,406.71c-7.53-1.5-15.13-2.6-22.77-3.56l.36-1.2c7.67,1,15.29,2.06,22.85,3.57C477.83,406,477.75,406.24,477.57,406.71Z"/><path id="Path_142" data-name="Path 142" class="cls-18" d="M476.78,408.89c-7.49-1.5-15-2.6-22.63-3.56.14-.46.21-.72.35-1.2,7.63,1,15.2,2.06,22.72,3.57C477,408.18,477,408.42,476.78,408.89Z"/><path id="Path_143" data-name="Path 143" class="cls-18" d="M476,411.07c-7.45-1.5-14.94-2.6-22.49-3.56.14-.46.21-.72.35-1.2,7.58,1,15.1,2.06,22.57,3.57Z"/><path id="Path_144" data-name="Path 144" class="cls-18" d="M475.2,413.25c-7.4-1.5-14.85-2.6-22.35-3.56.14-.46.21-.72.36-1.2,7.52,1,15,2.06,22.42,3.57Z"/><path id="Path_145" data-name="Path 145" class="cls-18" d="M474.4,415.43c-7.35-1.5-14.75-2.6-22.2-3.56.14-.46.21-.72.35-1.2,7.48,1,14.9,2.06,22.29,3.57C474.67,414.71,474.57,415,474.4,415.43Z"/><path id="Path_146" data-name="Path 146" class="cls-18" d="M457.41,462.1c-6.36-1.4-12.68-2.57-19.13-3.56l.35-1.2c6.48,1,12.83,2.16,19.22,3.57C457.67,461.38,457.59,461.62,457.41,462.1Z"/><path id="Path_147" data-name="Path 147" class="cls-18" d="M456.61,464.28c-6.31-1.4-12.57-2.57-19-3.56.14-.46.21-.72.35-1.2,6.43,1,12.73,2.15,19.09,3.57C456.88,463.57,456.79,463.8,456.61,464.28Z"/><path id="Path_148" data-name="Path 148" class="cls-18" d="M455.82,466.46c-6.26-1.4-12.48-2.57-18.84-3.56l.35-1.2c6.39,1,12.64,2.16,18.93,3.56C456.08,465.74,456,466,455.82,466.46Z"/><path id="Path_149" data-name="Path 149" class="cls-18" d="M455,468.64c-6.21-1.41-12.39-2.58-18.7-3.56.14-.46.21-.72.35-1.2,6.34,1,12.54,2.15,18.79,3.56C455.29,467.92,455.2,468.15,455,468.64Z"/><path id="Path_150" data-name="Path 150" class="cls-18" d="M454.24,470.82c-6.17-1.41-12.3-2.58-18.56-3.56.13-.46.21-.72.35-1.2,6.29,1,12.45,2.16,18.62,3.56Z"/><path id="Path_151" data-name="Path 151" class="cls-18" d="M453.44,473c-6.12-1.41-12.2-2.58-18.42-3.56l.36-1.2c6.25,1,12.35,2.15,18.5,3.56Z"/><path id="Path_152" data-name="Path 152" class="cls-18" d="M452.65,475.18c-6.06-1.41-12.11-2.57-18.27-3.56.13-.48.21-.72.35-1.2,6.2,1,12.25,2.16,18.35,3.56Z"/><path id="Path_153" data-name="Path 153" class="cls-18" d="M451.86,477.36c-6-1.41-12-2.57-18.13-3.57.14-.45.21-.71.36-1.19,6.15,1,12.15,2.15,18.21,3.56C452.12,476.64,452,476.88,451.86,477.36Z"/><path id="Path_154" data-name="Path 154" class="cls-18" d="M451.06,479.54c-6-1.41-11.91-2.57-18-3.56l.36-1.2c6.1,1,12.06,2.15,18.06,3.56Z"/><path id="Path_155" data-name="Path 155" class="cls-18" d="M436.84,458.35c-6.73-.72-13.44-1.29-20.21-1.72.1-.48.16-.72.27-1.2,6.79.43,13.53,1,20.3,1.72C437.05,457.61,437,457.87,436.84,458.35Z"/><path id="Path_156" data-name="Path 156" class="cls-18" d="M436.2,460.53c-6.69-.72-13.35-1.29-20.07-1.72.11-.46.16-.72.27-1.2,6.75.43,13.44,1,20.15,1.72Z"/><path id="Path_157" data-name="Path 157" class="cls-18" d="M435.56,462.71c-6.64-.72-13.26-1.29-19.93-1.72.11-.46.17-.72.28-1.2,6.7.43,13.34,1,20,1.72Z"/><path id="Path_158" data-name="Path 158" class="cls-18" d="M434.92,464.89c-6.59-.72-13.16-1.29-19.78-1.72.11-.46.16-.72.27-1.2,6.65.43,13.25,1,19.87,1.72C435.14,464.17,435.06,464.41,434.92,464.89Z"/><path id="Path_159" data-name="Path 159" class="cls-18" d="M434.28,467.07c-6.54-.72-13.06-1.29-19.63-1.72.1-.46.16-.71.27-1.2,6.6.43,13.14,1,19.71,1.72Z"/><path id="Path_160" data-name="Path 160" class="cls-18" d="M433.64,469.25c-6.52-.72-13-1.29-19.49-1.72.1-.46.16-.72.27-1.2,6.55.43,13,1,19.55,1.72C433.86,468.53,433.78,468.77,433.64,469.25Z"/><path id="Path_161" data-name="Path 161" class="cls-18" d="M433,471.43c-6.44-.73-12.86-1.29-19.35-1.72l.27-1.2c6.52.43,13,1,19.44,1.72C433.24,470.71,433.14,471,433,471.43Z"/><path id="Path_162" data-name="Path 162" class="cls-18" d="M432.37,473.6c-6.41-.72-12.78-1.28-19.21-1.71.11-.46.16-.72.27-1.2,6.46.43,12.86,1,19.29,1.72Z"/><path id="Path_163" data-name="Path 163" class="cls-18" d="M431.72,475.79c-6.35-.73-12.67-1.29-19.06-1.72.11-.46.17-.72.28-1.2,6.41.43,12.76,1,19.14,1.72C431.94,475.07,431.87,475.31,431.72,475.79Z"/><path id="Path_164" data-name="Path 164" class="cls-18" d="M455.79,393.82c-8.17-.74-16.3-1.31-24.5-1.72l4.14-18.21q12.88.62,25.7,1.72Z"/><path id="Path_165" data-name="Path 165" class="cls-18" d="M411.25,474c-6.56-.1-13.08-.05-19.63.14l2.9-18.64c7-.18,13.91-.23,20.88-.13Q413.33,464.69,411.25,474Z"/><path id="Path_166" data-name="Path 166" class="cls-21" d="M227.36,411.74c.28,2.56-1.83,4.89-4.73,5.2L207,418.64c-2.91.31-5.49-1.51-5.78-4.06h0c-.29-2.56,1.84-4.89,4.74-5.2l15.63-1.69c2.9-.31,5.48,1.51,5.77,4.07Z"/><path id="Path_167" data-name="Path 167" class="cls-21" d="M232.13,419.38c.29,2.56-1.83,4.89-4.73,5.2l-19.51,2.12c-2.9.31-5.48-1.51-5.77-4.07h0c-.28-2.57,1.84-4.86,4.74-5.2l19.5-2.11C229.26,415,231.84,416.82,232.13,419.38Z"/><path id="Path_168" data-name="Path 168" class="cls-21" d="M232.94,426.55c.28,2.56-1.84,4.89-4.74,5.2l-19.5,2.12c-2.9.31-5.48-1.51-5.77-4.07h0c-.29-2.56,1.83-4.89,4.73-5.2l19.5-2.11C230.07,422.17,232.65,424,232.94,426.55Z"/><path id="Path_169" data-name="Path 169" class="cls-21" d="M229.43,433a3.69,3.69,0,0,1-3.51,3.86l-14.47,1.57a3.75,3.75,0,0,1-4.29-3h0a3.71,3.71,0,0,1,3.51-3.86L225.15,430a3.73,3.73,0,0,1,4.28,3Z"/><path id="Path_170" data-name="Path 170" class="cls-22" d="M466.33,411.74c-.29,2.56,1.83,4.89,4.73,5.2l15.63,1.7c2.9.31,5.48-1.51,5.77-4.06h0c.29-2.56-1.83-4.89-4.73-5.2l-15.64-1.69c-2.9-.31-5.48,1.51-5.76,4.07Z"/><path id="Path_171" data-name="Path 171" class="cls-22" d="M461.55,419.38c-.29,2.56,1.83,4.89,4.73,5.2l19.51,2.12c2.9.31,5.48-1.51,5.77-4.07h0c.28-2.56-1.83-4.88-4.73-5.2l-19.51-2.11C464.42,415,461.84,416.82,461.55,419.38Z"/><path id="Path_172" data-name="Path 172" class="cls-22" d="M460.75,426.55c-.29,2.56,1.83,4.89,4.73,5.2l19.5,2.12c2.9.31,5.49-1.51,5.77-4.07h0c.29-2.56-1.83-4.89-4.73-5.2l-19.5-2.11C463.62,422.17,461,424,460.75,426.55Z"/><path id="Path_173" data-name="Path 173" class="cls-22" d="M464.25,433a3.69,3.69,0,0,0,3.51,3.86l14.48,1.57a3.73,3.73,0,0,0,4.28-3h0a3.71,3.71,0,0,0-3.51-3.86L468.54,430A3.74,3.74,0,0,0,464.25,433Z"/></g></g></g></g></g></g></g></svg>