<!-- Generated by IcoMoon.io -->
<svg version="1.1" xmlns="http://www.w3.org/2000/svg" width="32" height="32" viewBox="0 0 32 32">
<title>quotation</title>
<path fill="#53c7f0" d="M16 0.205c8.837 0 16 7.072 16 15.795s-7.163 15.795-16 15.795-16-7.072-16-15.795 7.163-15.795 16-15.795z"></path>
<path fill="#ffffe3" d="M14.588 8.721v2.938c0 0.398-0.323 0.721-0.721 0.721-0 0-0 0-0 0h0c-1.422 0-2.195 1.458-2.302 4.336h2.302c0.399 0 0.722 0.323 0.722 0.722v0 6.205c0 0.398-0.323 0.721-0.721 0.721-0 0-0 0-0 0h-6.139c-0.398 0-0.721-0.323-0.721-0.721v-6.204c-0-0.048-0.001-0.104-0.001-0.16 0-1.278 0.151-2.521 0.435-3.712l-0.022 0.108c0.265-1.13 0.707-2.126 1.302-3.011l-0.021 0.033c0.562-0.826 1.292-1.497 2.145-1.973l0.032-0.016c0.834-0.446 1.825-0.708 2.876-0.708 0.040 0 0.079 0 0.119 0.001l-0.006-0c0.398 0 0.721 0.323 0.721 0.721v0zM23.893 12.381c0.398 0 0.721-0.323 0.722-0.721v-2.938c-0-0.398-0.323-0.721-0.722-0.721v0c-0.048-0.001-0.104-0.002-0.16-0.002-2.084 0-3.919 1.063-4.992 2.677l-0.014 0.022c-0.574 0.853-1.016 1.848-1.269 2.917l-0.012 0.061c-0.263 1.083-0.413 2.326-0.413 3.605 0 0.056 0 0.111 0.001 0.167l-0-0.008v6.204c0 0.398 0.323 0.721 0.722 0.721h6.138c0.398-0 0.721-0.323 0.721-0.721v-6.204c0-0.398-0.323-0.721-0.721-0.722h-2.27c0.106-2.878 0.868-4.336 2.27-4.336z"></path>
</svg>
