<!-- Generated by IcoMoon.io -->
<svg version="1.1" xmlns="http://www.w3.org/2000/svg" width="32" height="32" viewBox="0 0 32 32">
<title>right-arrow</title>
<path fill="#53c7f0" d="M21.613 5.061c-0.206-0.208-0.493-0.338-0.809-0.338-0.629 0-1.138 0.51-1.138 1.138 0 0.312 0.126 0.595 0.329 0.801l8.203 8.202h-27.066c-0.002 0-0.004 0-0.006 0-0.622 0-1.127 0.505-1.127 1.127 0 0.002 0 0.005 0 0.007v-0c-0 0.003-0 0.006-0 0.009 0 0.627 0.506 1.136 1.132 1.139h27.066l-8.202 8.187c-0.203 0.209-0.328 0.494-0.328 0.809s0.125 0.6 0.328 0.809l-0-0c0.206 0.21 0.492 0.34 0.809 0.34s0.603-0.13 0.809-0.339l0-0 10.143-10.145c0.209-0.203 0.339-0.486 0.339-0.801s-0.13-0.598-0.339-0.8l-0-0z"></path>
</svg>
