<!-- Generated by IcoMoon.io -->
<svg version="1.1" xmlns="http://www.w3.org/2000/svg" width="32" height="32" viewBox="0 0 32 32">
<title>services</title>
<path fill="#1d97c1" opacity="0.68" d="M23.805 12.964l-1.231-0.548c0.034-0.306 0.039-0.578 0.021-0.847l0.001 0.028 1.257-0.482c0.151-0.058 0.279-0.173 0.35-0.332s0.070-0.332 0.013-0.482l-0.568-1.48c-0.058-0.15-0.173-0.279-0.332-0.35s-0.331-0.071-0.482-0.013h0l-1.257 0.482c-0.148-0.191-0.334-0.389-0.537-0.572l-0.027-0.022 0.548-1.231c0.141-0.318-0.002-0.69-0.319-0.832l-1.448-0.645c-0.318-0.141-0.69 0.002-0.832 0.32v0l-0.548 1.231c-0.306-0.034-0.578-0.039-0.847-0.021l0.028-0.001-0.482-1.257c-0.058-0.15-0.173-0.279-0.332-0.35s-0.331-0.071-0.482-0.013h0l-1.48 0.568c-0.151 0.058-0.279 0.173-0.35 0.332s-0.070 0.332-0.013 0.482l0.482 1.257c-0.191 0.148-0.389 0.334-0.572 0.537l-0.022 0.027-1.231-0.548c-0.318-0.141-0.69 0.002-0.832 0.32v0l-0.645 1.448c-0.141 0.318 0.002 0.69 0.319 0.832l0 0 1.231 0.548c-0.034 0.306-0.039 0.578-0.021 0.847l-0.001-0.028-1.257 0.482c-0.15 0.058-0.279 0.173-0.35 0.332s-0.071 0.332-0.013 0.482v-0l0.568 1.48c0.058 0.15 0.173 0.279 0.332 0.35s0.332 0.071 0.482 0.013v0l1.257-0.482c0.148 0.191 0.334 0.389 0.537 0.572l0.027 0.022-0.548 1.231c-0.141 0.318 0.002 0.69 0.319 0.832l0 0 1.448 0.645c0.318 0.141 0.69-0.002 0.832-0.319l0-0 0.548-1.23c0.306 0.034 0.578 0.039 0.847 0.021l-0.028 0.001 0.482 1.257c0.058 0.151 0.173 0.279 0.332 0.35s0.332 0.071 0.482 0.013v0l1.48-0.568c0.151-0.058 0.279-0.173 0.35-0.332s0.070-0.332 0.013-0.482l-0.482-1.257c0.191-0.148 0.389-0.334 0.572-0.537l0.022-0.027 1.231 0.548c0.318 0.141 0.69-0.002 0.832-0.319l0-0 0.645-1.448c0.142-0.318-0.001-0.691-0.319-0.833h-0zM22.772 14.646l-1.303-0.58c-0.192-0.085-0.411-0.024-0.533 0.135l-0.002 0.003c-0.27 0.353-0.574 0.635-0.912 0.862l0.015-0.011c-0.066 0.044-0.121 0.108-0.157 0.187-0.050 0.112-0.050 0.234-0.009 0.34l0.511 1.332-0.997 0.383-0.511-1.332c-0.041-0.106-0.122-0.197-0.234-0.247-0.079-0.035-0.164-0.046-0.244-0.034l0.002-0c-0.384 0.056-0.799 0.050-1.21-0.027l-0.026-0.006c-0.2-0.037-0.404 0.064-0.49 0.255v0l-0.581 1.304-0.975-0.434 0.581-1.304c0.085-0.192 0.024-0.411-0.135-0.533l-0.003-0.002c-0.353-0.27-0.635-0.574-0.862-0.912l0.011 0.015c-0.044-0.065-0.108-0.121-0.187-0.157-0.112-0.050-0.234-0.050-0.34-0.009l-1.332 0.511-0.382-0.996 1.332-0.511c0.106-0.041 0.197-0.122 0.247-0.234 0.035-0.079 0.046-0.164 0.034-0.244l0 0.002c-0.056-0.384-0.050-0.799 0.027-1.21l0.006-0.026c0.037-0.2-0.064-0.404-0.255-0.49l-1.304-0.58 0.434-0.975 1.303 0.58c0.192 0.085 0.411 0.024 0.533-0.135l0.002-0.003c0.27-0.353 0.574-0.635 0.912-0.862l-0.015 0.011c0.066-0.044 0.121-0.108 0.157-0.187 0.050-0.112 0.050-0.234 0.009-0.34l-0.511-1.332 0.996-0.382 0.511 1.332c0.041 0.106 0.122 0.197 0.234 0.247 0.079 0.035 0.164 0.046 0.244 0.034l-0.002 0c0.384-0.056 0.799-0.050 1.21 0.027l0.026 0.006c0.2 0.037 0.404-0.064 0.49-0.255v-0l0.581-1.304 0.974 0.434-0.581 1.304c-0.085 0.192-0.024 0.411 0.135 0.533l0.003 0.002c0.353 0.27 0.635 0.574 0.862 0.912l-0.011-0.015c0.044 0.065 0.108 0.121 0.187 0.157 0.112 0.050 0.234 0.050 0.34 0.009l1.332-0.511 0.382 0.996-1.332 0.511c-0.106 0.041-0.197 0.122-0.247 0.234-0.035 0.079-0.046 0.164-0.034 0.244l-0-0.002c0.056 0.384 0.050 0.799-0.027 1.21l-0.006 0.026c-0.037 0.2 0.064 0.404 0.255 0.49l1.304 0.58z"></path>
<path fill="#87e0ff" opacity="0.68" d="M18.849 9.706c-1.202-0.535-2.611 0.005-3.146 1.208s0.005 2.611 1.208 3.146c1.202 0.535 2.611-0.005 3.146-1.208v0c0.534-1.202-0.006-2.61-1.207-3.146l-0-0zM17.272 13.248c-0.754-0.336-1.092-1.218-0.757-1.972s1.218-1.092 1.972-0.757c0.754 0.336 1.092 1.218 0.757 1.972v0c-0.336 0.753-1.218 1.091-1.972 0.757l-0-0z"></path>
<path fill="#233142" opacity="0.68" d="M8.718 7.317l-1.348-0.6c-0.224-0.1-0.487 0.001-0.587 0.225s0.001 0.487 0.225 0.587l1.348 0.6c0.224 0.1 0.487-0.001 0.587-0.225s-0.001-0.487-0.225-0.587v0z"></path>
<path fill="#233142" opacity="0.68" d="M28.752 16.238l-1.348-0.6c-0.224-0.1-0.487 0.001-0.587 0.225s0.001 0.487 0.225 0.587l1.348 0.6c0.224 0.1 0.487-0.001 0.587-0.225s-0.001-0.487-0.225-0.587v0z"></path>
<path fill="#233142" opacity="0.68" d="M8.747 15.389c-0.041-0.106-0.122-0.197-0.234-0.247s-0.234-0.050-0.34-0.009l-1.378 0.529c-0.106 0.041-0.197 0.122-0.247 0.234-0.1 0.224 0.001 0.487 0.225 0.587 0.112 0.050 0.234 0.050 0.34 0.009l1.378-0.529c0.106-0.041 0.197-0.122 0.247-0.234s0.050-0.234 0.009-0.34v0z"></path>
<path fill="#233142" opacity="0.68" d="M29.221 7.531c-0.041-0.106-0.122-0.197-0.234-0.247s-0.234-0.050-0.34-0.009l-1.378 0.529c-0.102 0.042-0.189 0.122-0.238 0.231-0.1 0.225 0.001 0.488 0.225 0.587 0.109 0.049 0.227 0.050 0.331 0.012l-0 0 1.378-0.529c0.106-0.041 0.197-0.122 0.247-0.234s0.050-0.234 0.009-0.34v0z"></path>
<path fill="#233142" opacity="0.68" d="M22.821 0.786c-0.224-0.1-0.487 0.001-0.587 0.225l-0.601 1.349c-0.1 0.224 0.001 0.487 0.225 0.587s0.487-0.001 0.587-0.225l0.601-1.349c0.1-0.224-0.001-0.487-0.225-0.587-0-0-0-0-0-0v0z"></path>
<path fill="#233142" opacity="0.68" d="M22.488 22.65l-0.529-1.378c-0.040-0.11-0.122-0.205-0.238-0.257-0.224-0.1-0.488 0.001-0.587 0.225-0.051 0.116-0.050 0.241-0.005 0.35l0 0 0.529 1.378c0.042 0.102 0.122 0.189 0.231 0.238 0.224 0.1 0.488-0.001 0.587-0.225 0.049-0.109 0.050-0.227 0.012-0.331l0 0z"></path>
<path fill="#233142" opacity="0.68" d="M14.631 2.176l-0.529-1.378c-0.041-0.106-0.122-0.197-0.234-0.247-0.224-0.1-0.487 0.001-0.587 0.225-0.050 0.112-0.050 0.234-0.009 0.34v0l0.529 1.378c0.041 0.106 0.122 0.197 0.234 0.247 0.224 0.1 0.487-0.001 0.587-0.225 0.050-0.112 0.050-0.234 0.009-0.34v0z"></path>
<path fill="#53c7f0" opacity="0.68" d="M26.43 14.498c1.205-3.939-0.41-8.172-3.89-10.287l-0.039-0.022c-0.018-0.012-0.040-0.024-0.063-0.034-0.224-0.1-0.488 0.001-0.587 0.225-0.095 0.213-0.009 0.461 0.192 0.571l0.001 0.001c3.18 1.913 4.638 5.735 3.549 9.245l-0.012 0.036c-0.066 0.214 0.036 0.446 0.243 0.538l0 0c0.017 0.007 0.034 0.014 0.051 0.019l-0.002-0.001c0.214 0.066 0.447-0.036 0.539-0.243 0.007-0.017 0.014-0.033 0.019-0.050l-0.001 0.002z"></path>
<path fill="#53c7f0" opacity="0.68" d="M25.383 15.878c-0.015-0.009-0.032-0.018-0.050-0.026-0.206-0.092-0.445-0.014-0.56 0.174l-0.001 0.002c-1.29 2.115-3.405 3.448-5.71 3.784l-0.038 0.004c-0.999 0.143-1.892 0.772-2.326 1.747-0 0.001-0.001 0.002-0.001 0.003l0-0-0.745 1.672-5.222-2.325 0.761-1.709c0.422-0.95 0.298-2.003-0.236-2.81l-0.008-0.011c-1.521-2.256-1.874-5.178-0.703-7.808 1.667-3.743 5.841-5.587 9.664-4.435l0.038 0.012c0.217 0.074 0.456-0.028 0.551-0.24 0.1-0.224-0.001-0.487-0.225-0.587-0.023-0.010-0.045-0.018-0.068-0.024l0.003 0.001c-4.288-1.294-8.924 0.754-10.775 4.911-1.301 2.921-0.908 6.166 0.756 8.636l0.025 0.035c0.375 0.568 0.46 1.299 0.167 1.958-0 0-0 0.001-0 0.001l0-0-0.788 1.769c-0.483-0.038-0.95 0.222-1.156 0.681l-0 0-0.258 0.579c-0.11 0.247-0.126 0.511-0.063 0.754l-0.001-0.003c-0.219 0.114-0.405 0.303-0.515 0.55-0 0-0 0-0 0v0l-0.258 0.579c-0.259 0.584 0.003 1.267 0.586 1.527l1.278 0.569-0.409 0.919c-0.236 0.531 0.003 1.152 0.533 1.389l1.68 0.748c0.531 0.236 1.152-0.003 1.389-0.533l0-0 0.409-0.919 1.278 0.569c0.584 0.259 1.267-0.003 1.527-0.586l0-0 0.258-0.579c0 0 0-0 0-0 0.11-0.247 0.126-0.511 0.063-0.754l0.001 0.003c0.219-0.114 0.405-0.303 0.515-0.55 0-0 0-0 0-0v0l0.258-0.58c0.204-0.46 0.084-0.981-0.261-1.309l-0.006-0.006 0.771-1.731c0-0 0-0 0-0 0.306-0.688 0.936-1.131 1.63-1.23l0.010-0.001c2.602-0.378 4.951-1.859 6.36-4.169l0.023-0.039c0.009-0.014 0.018-0.032 0.026-0.050 0.092-0.206 0.014-0.444-0.173-0.559l-0.002-0.001zM11.884 28.007c-0.037 0.081-0.132 0.117-0.214 0.082l-0-0-1.679-0.748c-0.081-0.037-0.117-0.132-0.082-0.214l0-0 0.409-0.919 1.976 0.88zM15.098 27.071c-0.061 0.133-0.218 0.193-0.352 0.135l-0-0-6.157-2.742c-0.133-0.061-0.193-0.218-0.135-0.352l0-0 0.258-0.579c0.061-0.133 0.218-0.193 0.352-0.135l0 0 6.157 2.742c0.133 0.061 0.193 0.218 0.135 0.352l-0 0zM15.935 25.192c-0.061 0.133-0.218 0.193-0.352 0.135l-0-0-6.157-2.742c-0.133-0.061-0.193-0.218-0.135-0.352l0-0 0.258-0.58c0.061-0.133 0.218-0.193 0.352-0.135l0 0 6.157 2.742c0.133 0.061 0.193 0.218 0.135 0.352l-0 0z"></path>
</svg>
