<!-- Generated by IcoMoon.io -->
<svg version="1.1" xmlns="http://www.w3.org/2000/svg" width="32" height="32" viewBox="0 0 32 32">
<title>twitter</title>
<path fill="#53c7f0" d="M31.999 16c0 8.836-7.163 16-16 16s-16-7.163-16-16c0-8.836 7.163-16 16-16s16 7.163 16 16z"></path>
<path fill="#f1f2f2" d="M25.801 11.499c-0.64 0.291-1.382 0.503-2.16 0.598l-0.037 0.004c0.791-0.479 1.385-1.214 1.674-2.088l0.008-0.027c-0.699 0.422-1.513 0.744-2.379 0.92l-0.049 0.008c-0.7-0.743-1.69-1.206-2.789-1.206-2.114 0-3.828 1.714-3.828 3.828 0 0.308 0.036 0.607 0.105 0.893l-0.005-0.026c-3.186-0.164-5.989-1.678-7.867-3.977l-0.015-0.019c-0.327 0.552-0.52 1.217-0.52 1.926 0 1.321 0.669 2.485 1.686 3.174l0.014 0.009c-0.638-0.021-1.231-0.196-1.749-0.489l0.019 0.010c0 0.016 0 0.032 0 0.048 0.001 1.844 1.306 3.383 3.043 3.744l0.025 0.004c-0.302 0.085-0.649 0.134-1.007 0.134-0.255 0-0.504-0.025-0.744-0.072l0.024 0.004c0.503 1.531 1.906 2.623 3.569 2.656l0.004 0c-1.296 1.020-2.952 1.636-4.752 1.636-0.321 0-0.638-0.020-0.948-0.058l0.037 0.004c1.654 1.079 3.679 1.72 5.853 1.72 0.004 0 0.008 0 0.011 0h-0.001c7.036 0 10.882-5.827 10.882-10.882q0-0.249-0.011-0.495c0.752-0.547 1.385-1.203 1.891-1.952l0.017-0.027z"></path>
</svg>
