<!-- Generated by IcoMoon.io -->
<svg version="1.1" xmlns="http://www.w3.org/2000/svg" width="32" height="32" viewBox="0 0 32 32">
<title>analysis</title>
<path fill="#fff" d="M20.414 8.313c0.001 0 0.001 0 0.002 0 0.864 0 1.564-0.7 1.564-1.564s-0.7-1.564-1.564-1.564c-0.864 0-1.564 0.7-1.564 1.564 0 0.355 0.118 0.682 0.317 0.944l-0.003-0.004-2.567 3.588c-0.145-0.049-0.313-0.078-0.487-0.078-0.412 0-0.786 0.16-1.064 0.42l0.001-0.001-1.711-0.971c0.022-0.099 0.035-0.213 0.035-0.329 0-0.863-0.7-1.563-1.563-1.563s-1.563 0.7-1.563 1.563c0 0.117 0.013 0.23 0.037 0.34l-0.002-0.010-1.711 0.971c-0.278-0.258-0.651-0.417-1.061-0.417-0.862 0-1.56 0.699-1.56 1.56s0.699 1.56 1.56 1.56c0.862 0 1.56-0.699 1.56-1.56 0-0.117-0.013-0.23-0.037-0.339l0.002 0.010 1.711-0.971c0.278 0.26 0.652 0.419 1.064 0.419s0.786-0.16 1.064-0.42l-0.001 0.001 1.711 0.971c-0.022 0.099-0.035 0.213-0.035 0.33 0 0.863 0.7 1.563 1.563 1.563s1.563-0.7 1.563-1.563c0-0.354-0.118-0.681-0.317-0.943l0.003 0.004 2.567-3.588c0.145 0.049 0.313 0.078 0.486 0.078h0zM20.414 6.125c0.345 0 0.625 0.28 0.625 0.625s-0.28 0.625-0.625 0.625c-0.345 0-0.625-0.28-0.625-0.625v0c0-0.345 0.28-0.625 0.625-0.625h0zM7.507 13.386c-0.345 0-0.625-0.28-0.625-0.625s0.28-0.625 0.625-0.625c0.345 0 0.625 0.28 0.625 0.625v0c-0 0.345-0.28 0.625-0.625 0.625h-0zM11.809 10.943c-0.345 0-0.625-0.28-0.625-0.625s0.28-0.625 0.625-0.625c0.345 0 0.625 0.28 0.625 0.625v0c-0 0.345-0.28 0.625-0.625 0.625h-0zM16.112 13.386c-0.345 0-0.625-0.28-0.625-0.625s0.28-0.625 0.625-0.625c0.345 0 0.625 0.28 0.625 0.625v0c-0 0.345-0.28 0.625-0.625 0.625h-0z"></path>
<path fill="#fff" d="M26.175 23.557h-24.849c-0.214-0-0.388-0.174-0.388-0.388v-19.339c0-0.214 0.174-0.388 0.388-0.388h2.21c0.259 0 0.469-0.21 0.469-0.469s-0.21-0.469-0.469-0.469v0h-2.21c-0.732 0.001-1.325 0.594-1.326 1.326v19.339c0.001 0.732 0.594 1.325 1.326 1.326h3.232v1.032c0.001 0.588 0.477 1.065 1.066 1.066h4.692l-2.209 4.313c-0.034 0.063-0.054 0.138-0.054 0.218 0 0.259 0.21 0.469 0.469 0.469 0.182 0 0.34-0.104 0.418-0.256l0.001-0.003 2.428-4.74h5.183l2.428 4.74c0.079 0.155 0.237 0.259 0.419 0.259 0.259 0 0.469-0.21 0.469-0.469 0-0.080-0.020-0.154-0.055-0.22l0.001 0.003-2.209-4.313h4.692c0.588-0.001 1.065-0.477 1.066-1.066v-1.032h2.812c0.259 0 0.469-0.21 0.469-0.469s-0.21-0.469-0.469-0.469v0zM22.426 25.526c-0 0.071-0.057 0.128-0.128 0.128h-16.674c-0.071-0-0.128-0.057-0.128-0.128v0-1.032h16.93z"></path>
<path fill="#fff" d="M5.411 3.441h21.184c0.214 0 0.388 0.174 0.388 0.388v4.457c0 0.259 0.21 0.469 0.469 0.469s0.469-0.21 0.469-0.469v0-4.457c-0.001-0.732-0.594-1.325-1.326-1.326h-10.033v-0.921c-0.001-0.649-0.527-1.175-1.176-1.176h-2.851c-0.649 0.001-1.175 0.527-1.176 1.176v0.921h-5.948c-0.259 0-0.469 0.21-0.469 0.469s0.21 0.469 0.469 0.469v0zM12.296 1.582c0-0.132 0.107-0.238 0.239-0.238h2.851c0.132 0 0.238 0.107 0.239 0.238v0.921h-3.328v-0.921z"></path>
<path fill="#fff" d="M6.556 16.72c-0.259 0-0.469 0.21-0.469 0.469v0 4.142c0 0.259 0.21 0.469 0.469 0.469v0h1.902c0.259 0 0.469-0.21 0.469-0.469v0-4.142c0-0.259-0.21-0.469-0.469-0.469v0zM7.989 20.862h-0.964v-3.204h0.964z"></path>
<path fill="#fff" d="M10.859 14.324c-0.259 0-0.469 0.21-0.469 0.469v0 6.537c0 0.259 0.21 0.469 0.469 0.469v0h1.902c0.259 0 0.469-0.21 0.469-0.469v0-6.537c0-0.259-0.21-0.469-0.469-0.469v0zM12.292 20.862h-0.964v-5.6h0.964z"></path>
<path fill="#fff" d="M15.161 16.72c-0.259 0-0.469 0.21-0.469 0.469v0 4.142c0 0.259 0.21 0.469 0.469 0.469v0h1.902c0.259 0 0.469-0.21 0.469-0.469v0-4.142c0-0.259-0.21-0.469-0.469-0.469v0zM16.594 20.862h-0.964v-3.204h0.964z"></path>
<path fill="#fff" d="M19.463 19.486c-0.259 0-0.469 0.21-0.469 0.469v0 1.376c0 0.259 0.21 0.469 0.469 0.469v0h1.902c0.259 0 0.469-0.21 0.469-0.469s-0.21-0.469-0.469-0.469v0h-1.433v-0.907c0-0.259-0.21-0.469-0.469-0.469v0z"></path>
<path fill="#fff" d="M31.761 23.998l-2.689-4.658c1.026-1.093 1.656-2.568 1.656-4.191 0-3.385-2.744-6.13-6.13-6.13s-6.13 2.744-6.13 6.13c0 2.821 1.905 5.196 4.499 5.91l0.043 0.010c0.478 0.134 1.028 0.211 1.595 0.211h0c0 0 0 0 0 0 0.489 0 0.965-0.058 1.421-0.168l-0.041 0.008 2.689 4.658c0.314 0.536 0.887 0.891 1.543 0.891 0.984 0 1.782-0.798 1.782-1.782 0-0.328-0.089-0.635-0.243-0.899l0.005 0.008zM23.253 20.164c-2.233-0.613-3.846-2.624-3.846-5.012 0-2.866 2.323-5.189 5.189-5.189s5.189 2.323 5.189 5.189c0 1.911-1.033 3.58-2.57 4.481l-0.024 0.013c-0.742 0.439-1.636 0.698-2.59 0.698-0.479 0-0.944-0.065-1.384-0.188l0.036 0.009zM30.64 25.62c-0.121 0.071-0.267 0.113-0.422 0.113-0.311 0-0.583-0.168-0.729-0.418l-0.002-0.004-2.587-4.481c0.558-0.23 1.040-0.514 1.475-0.855l-0.013 0.010 2.587 4.482c0.071 0.121 0.113 0.267 0.113 0.423 0 0.311-0.168 0.582-0.418 0.729l-0.004 0.002z"></path>
<path fill="#fff" d="M28.846 16.472c0.128-0.395 0.202-0.85 0.202-1.322 0-0.687-0.156-1.338-0.435-1.918l0.012 0.027c-0.076-0.163-0.238-0.273-0.426-0.273-0.259 0-0.469 0.21-0.469 0.469 0 0.074 0.017 0.145 0.048 0.207l-0.001-0.003c0.21 0.437 0.332 0.949 0.332 1.49 0 1.939-1.572 3.511-3.511 3.511s-3.511-1.572-3.511-3.511c0-1.939 1.572-3.511 3.511-3.511 0.8 0 1.538 0.268 2.129 0.719l-0.009-0.006c0.078 0.061 0.179 0.098 0.287 0.098 0.259 0 0.469-0.21 0.469-0.469 0-0.154-0.074-0.291-0.189-0.376l-0.001-0.001c-0.738-0.564-1.673-0.903-2.688-0.903-2.458 0-4.451 1.993-4.451 4.451s1.993 4.451 4.451 4.451c1.987 0 3.669-1.302 4.242-3.098l0.009-0.032z"></path>
</svg>
