<!-- Generated by IcoMoon.io -->
<svg version="1.1" xmlns="http://www.w3.org/2000/svg" width="32" height="32" viewBox="0 0 32 32">
<title>communication</title>
<path fill="#fff" d="M5.625 17.938c-1.553 0-2.813 1.259-2.813 2.813s1.259 2.813 2.813 2.813c1.553 0 2.813-1.259 2.813-2.813v0c-0.002-1.553-1.26-2.811-2.812-2.813h-0z"></path>
<path fill="#fff" d="M7.5 23.563h-3.75c-2.070 0.002-3.748 1.68-3.75 3.75v3.75c0 0 0 0 0 0.001 0 0.517 0.419 0.937 0.937 0.937 0 0 0 0 0.001 0h9.375c0 0 0 0 0.001 0 0.517 0 0.937-0.419 0.937-0.937 0-0 0-0 0-0.001v0-3.75c-0.002-2.070-1.68-3.748-3.75-3.75h-0z"></path>
<path fill="#fff" d="M26.375 17.938c-1.553 0-2.813 1.259-2.813 2.813s1.259 2.813 2.813 2.813c1.553 0 2.813-1.259 2.813-2.813v0c-0.002-1.553-1.26-2.811-2.812-2.813h-0z"></path>
<path fill="#fff" d="M28.25 23.563h-3.75c-2.070 0.002-3.748 1.68-3.75 3.75v3.75c0 0 0 0 0 0.001 0 0.517 0.419 0.937 0.937 0.937 0 0 0 0 0.001 0h9.375c0 0 0 0 0.001 0 0.517 0 0.937-0.419 0.937-0.937 0-0 0-0 0-0.001v0-3.75c-0.002-2.070-1.68-3.748-3.75-3.75h-0z"></path>
<path fill="#fff" d="M16 0h-7.5c-2.589 0-4.688 2.099-4.688 4.688v0 5.625c0.003 2.256 1.597 4.139 3.719 4.588l0.031 0.005v2.907c0 0.518 0.42 0.937 0.938 0.937 0.259 0 0.493-0.105 0.663-0.275l3.475-3.475h3.362c2.589 0 4.688-2.099 4.688-4.688v0-5.625c0-2.589-2.099-4.688-4.688-4.688v0zM15.725 5.35l-3.75 3.75c-0.17 0.17-0.404 0.275-0.663 0.275s-0.493-0.105-0.663-0.275l-1.875-1.875c-0.175-0.171-0.284-0.409-0.284-0.672 0-0.518 0.42-0.938 0.938-0.938 0.264 0 0.502 0.109 0.672 0.284l1.213 1.212 3.088-3.088c0.171-0.178 0.411-0.289 0.677-0.289 0.518 0 0.938 0.42 0.938 0.937 0 0.266-0.111 0.507-0.289 0.677l-0 0z"></path>
<path fill="#fff" d="M23.5 1.875h-1.596c0.41 0.821 0.653 1.788 0.658 2.811v5.627c0 2.147-1.052 4.039-2.651 5.238l2.925 2.925c0.17 0.17 0.404 0.275 0.663 0.275 0.518 0 0.937-0.42 0.938-0.937v0-2.907c2.153-0.454 3.747-2.337 3.75-4.593v-3.75c0-2.589-2.099-4.688-4.688-4.688v0z"></path>
</svg>
