<!-- Generated by IcoMoon.io -->
<svg version="1.1" xmlns="http://www.w3.org/2000/svg" width="32" height="32" viewBox="0 0 32 32">
<title>hand-shake</title>
<path fill="#fff" d="M7.733 8.467c-1.067-1.067-5.6-1.333-7.067-1.467-0.133 0-0.267 0-0.4 0.133s-0.267 0.4-0.267 0.533v12c0 0.4 0.267 0.667 0.667 0.667h4c0.004 0 0.009 0 0.013 0 0.283 0 0.529-0.161 0.651-0.396l0.002-0.004c0-0.4 2.4-7.467 2.667-10.933-0-0.133-0-0.4-0.267-0.533z"></path>
<path fill="#fff" d="M22 11.667c-1.333-0.4-2.533-0.933-3.6-1.333-2.4-1.067-3.467-0.533-5.6 1.6-0.933 0.933-1.6 2.267-1.467 2.8 0 0.133 0 0.133 0.267 0.267 0.667 0.267 1.6 0.4 2.533-1.067 0.133-0.133 0.267-0.267 0.533-0.267 0.4 0 0.533-0.133 0.933-0.267 0.26-0.14 0.568-0.275 0.888-0.386l0.046-0.014h0.267c0.133 0 0.4 0.133 0.533 0.133 0.667 0.667 1.867 1.6 3.067 2.667 1.867 1.467 3.733 3.067 4.667 4.267h0.133c-0.933-2.667-2.533-7.2-3.2-8.4z"></path>
<path fill="#fff" d="M31.333 8.333c-5.2 0-8.133 1.333-8.267 1.333l-0.4 0.4c0 0.133 0 0.4 0.133 0.533 0.8 1.333 3.467 8.667 3.867 10.533 0.133 0.267 0.4 0.533 0.667 0.533h4c0.4 0 0.667-0.267 0.667-0.667v-12c0-0.4-0.267-0.667-0.667-0.667z"></path>
<path fill="#fff" d="M23.008 20.713c-0.533-1.2-2.8-2.933-4.8-4.533-1.067-0.933-2.133-1.733-2.933-2.4-0.133 0.133-0.4 0.133-0.4 0.267-0.4 0.133-0.533 0.267-1.067 0.267-1.067 1.333-2.4 1.867-3.867 1.333-0.667-0.133-1.067-0.667-1.2-1.2-0.267-1.333 0.933-3.2 1.867-4.133h-2.667c-0.533 2.667-1.467 6.133-2.133 8 0.533 0.533 1.067 1.2 1.467 1.467 2.533 2.133 5.467 4.267 6 4.667 0.4 0.267 1.2 0.533 1.6 0.533h0.4l-2.133-2.133c-0.119-0.119-0.193-0.284-0.193-0.467 0-0.364 0.295-0.66 0.66-0.66 0.182 0 0.347 0.074 0.467 0.193l2.667 2.667c0.267 0.267 0.533 0.133 0.8 0.133 0.4-0.133 0.533-0.4 0.667-0.8l-3.067-3.067c-0.119-0.119-0.193-0.284-0.193-0.467 0-0.364 0.295-0.66 0.66-0.66 0.182 0 0.347 0.074 0.467 0.193l3.333 3.333c0.133 0.133 0.667 0.133 1.067 0 0.133-0.133 0.4-0.267 0.533-0.533l-3.733-3.733c-0.119-0.119-0.193-0.284-0.193-0.467 0-0.364 0.295-0.66 0.66-0.66 0.182 0 0.347 0.074 0.467 0.193v0l3.867 3.867c0.267 0.133 0.533 0 0.8-0.133 0.133-0.133 0.4-0.533 0.133-1.067z"></path>
</svg>
