<!-- Generated by IcoMoon.io -->
<svg version="1.1" xmlns="http://www.w3.org/2000/svg" width="32" height="32" viewBox="0 0 32 32">
<title>progress-report</title>
<path fill="#fff" d="M8.151 24.163c-0.292 0.324-0.48 0.748-0.505 1.215l-0 0.005v5.138h2.982v-8.121c0-0.394-0.226-0.489-0.505-0.209z"></path>
<path fill="#fff" d="M21.253 19.295c-0.292 0.324-0.479 0.748-0.505 1.215l-0 0.005v10.006h2.983v-12.992c0-0.394-0.226-0.488-0.505-0.209z"></path>
<path fill="#fff" d="M25.619 14.922c-0.293 0.324-0.48 0.747-0.506 1.214l-0 0.005v14.379h2.773v-17.147c0-0.394-0.227-0.489-0.506-0.209z"></path>
<path fill="#fff" d="M16.974 23.573s-0.133 0.134-0.297 0.298-0.297 0.618-0.297 1.013v5.637h2.983v-8.62c0-0.394-0.227-0.489-0.506-0.209z"></path>
<path fill="#fff" d="M12.519 22.058c-0.279-0.279-0.506-0.185-0.506 0.209v8.254h2.983v-5.277c0-0.394-0.214-0.928-0.479-1.192l-0.479-0.477z"></path>
<path fill="#fff" d="M4.398 27.919l-0.963 0.965c-0.279 0.279-0.505 0.759-0.505 1.072v0.566h3.329v-3.752c0-0.394-0.226-0.488-0.505-0.209z"></path>
<path fill="#fff" d="M31.483 13.242c0.279 0.279 0.505 0.185 0.505-0.209v-10.211c0-0.731-0.7-1.371-1.427-1.371h-10.152c-0.394 0-0.489 0.227-0.209 0.506l3.611 3.614-1.473 1.466-6.831 6.837-3.613-3.612c-0.129-0.129-0.308-0.209-0.505-0.209s-0.376 0.080-0.505 0.209l-10.047 10.054c-0.517 0.517-0.837 1.232-0.837 2.021s0.32 1.504 0.838 2.022l0.070 0.070c0.517 0.517 1.231 0.837 2.021 0.837s1.504-0.32 2.021-0.838l6.439-6.443 3.613 3.609c0.13 0.129 0.308 0.209 0.505 0.209s0.376-0.080 0.505-0.209l11.91-11.912z"></path>
</svg>
