<!-- Generated by IcoMoon.io -->
<svg version="1.1" xmlns="http://www.w3.org/2000/svg" width="32" height="32" viewBox="0 0 32 32">
<title>settings-work-tool</title>
<path fill="#fff" d="M31.899 14.223c-0.051-0.45-0.575-0.788-1.029-0.788-0.013 0-0.029 0-0.044 0-1.951 0-3.533-1.582-3.533-3.533 0-1.036 0.446-1.967 1.156-2.614l0.003-0.003c0.178-0.163 0.289-0.396 0.289-0.656 0-0.209-0.072-0.401-0.193-0.553l0.001 0.002c-0.756-0.956-1.588-1.796-2.505-2.536l-0.030-0.024c-0.151-0.121-0.345-0.195-0.556-0.195-0.262 0-0.497 0.113-0.66 0.292l-0.001 0.001c-0.954 1.056-2.667 1.449-3.991 0.896-1.284-0.555-2.167-1.81-2.167-3.272 0-0.071 0.002-0.141 0.006-0.211l-0 0.010c0.001-0.016 0.002-0.034 0.002-0.052 0-0.455-0.342-0.83-0.783-0.881l-0.004-0c-0.554-0.068-1.194-0.107-1.844-0.107-0.618 0-1.228 0.035-1.829 0.103l0.073-0.007c-0.448 0.051-0.793 0.428-0.793 0.885 0 0.011 0 0.021 0.001 0.032l-0-0.002c0.001 0.038 0.002 0.082 0.002 0.127 0 1.473-0.894 2.737-2.17 3.278l-0.023 0.009c-1.308 0.535-3.009 0.146-3.961-0.902-0.164-0.179-0.398-0.29-0.659-0.29-0.208 0-0.399 0.071-0.551 0.19l0.002-0.001c-0.968 0.763-1.817 1.603-2.565 2.529l-0.024 0.030c-0.122 0.151-0.196 0.346-0.196 0.557 0 0.261 0.112 0.495 0.291 0.658l0.001 0.001c0.718 0.651 1.167 1.588 1.167 2.629 0 0.492-0.1 0.96-0.281 1.386l0.009-0.023c-0.552 1.315-1.918 2.163-3.481 2.163-0.018-0.001-0.038-0.002-0.059-0.002-0.451 0-0.822 0.344-0.865 0.784l-0 0.004c-0.068 0.555-0.107 1.198-0.107 1.85 0 0.63 0.036 1.252 0.107 1.864l-0.007-0.075c0.050 0.452 0.591 0.787 1.049 0.787 0.012-0 0.026-0 0.039-0 1.464 0 2.718 0.896 3.244 2.169l0.009 0.023c0.164 0.395 0.259 0.853 0.259 1.334 0 1.037-0.444 1.97-1.151 2.621l-0.003 0.002c-0.177 0.163-0.288 0.396-0.288 0.655 0 0.209 0.072 0.401 0.192 0.552l-0.001-0.002c0.756 0.957 1.587 1.797 2.502 2.538l0.030 0.023c0.151 0.122 0.346 0.197 0.558 0.197 0.261 0 0.497-0.113 0.659-0.292l0.001-0.001c0.957-1.059 2.67-1.451 3.989-0.897 1.286 0.552 2.171 1.808 2.171 3.27 0 0.071-0.002 0.142-0.006 0.213l0-0.010c-0.001 0.015-0.002 0.034-0.002 0.052 0 0.455 0.342 0.83 0.783 0.882l0.004 0c0.553 0.068 1.193 0.107 1.842 0.107 0.619 0 1.23-0.035 1.831-0.104l-0.073 0.007c0.448-0.051 0.793-0.428 0.793-0.885 0-0.011-0-0.022-0.001-0.033l0 0.002c-0.001-0.038-0.002-0.083-0.002-0.128 0-1.471 0.894-2.734 2.168-3.275l0.023-0.009c1.317-0.538 3.011-0.144 3.963 0.902 0.164 0.178 0.398 0.289 0.659 0.289 0.208 0 0.399-0.071 0.551-0.19l-0.002 0.001c0.968-0.763 1.817-1.603 2.565-2.529l0.024-0.030c0.123-0.151 0.197-0.346 0.197-0.558 0-0.261-0.112-0.495-0.291-0.658l-0.001-0.001c-0.719-0.651-1.168-1.588-1.168-2.63 0-0.491 0.1-0.959 0.28-1.384l-0.009 0.023c0.56-1.281 1.813-2.161 3.272-2.169h0.001l0.198 0.005c0.016 0.001 0.034 0.002 0.052 0.002 0.455 0 0.83-0.341 0.884-0.782l0-0.004c0.068-0.555 0.107-1.198 0.107-1.849 0-0.631-0.036-1.253-0.107-1.864l0.007 0.074zM16.026 21.371c-0 0-0 0-0 0-2.947 0-5.337-2.389-5.337-5.337s2.389-5.337 5.337-5.337c2.947 0 5.337 2.389 5.337 5.337v0c-0.003 2.946-2.391 5.334-5.336 5.337h-0z"></path>
</svg>
