<!-- Generated by IcoMoon.io -->
<svg version="1.1" xmlns="http://www.w3.org/2000/svg" width="32" height="32" viewBox="0 0 32 32">
<title>tax</title>
<path fill="#fff" d="M5.361 0.719c-1.047 0.376-1.782 1.36-1.782 2.516 0 0.33 0.060 0.646 0.17 0.938l-0.006-0.018 8.952 24.362c0.791 2.155 3.179 3.308 5.332 2.512 1.588-0.599 2.697-2.106 2.697-3.873 0-2.28-1.849-4.129-4.129-4.129-0.983 0-1.886 0.344-2.595 0.918l0.008-0.006-8.646-23.218zM15.939 25.369c0.195-0.074 0.42-0.117 0.656-0.117 1.051 0 1.903 0.852 1.903 1.903s-0.852 1.903-1.903 1.903c-0.815 0-1.511-0.513-1.782-1.234l-0.004-0.013c-0.074-0.195-0.117-0.42-0.117-0.656 0-0.815 0.513-1.511 1.234-1.782l0.013-0.004z"></path>
<path fill="#e2e2e2" d="M14.007 23.937v0l-8.646-23.218c-0.066 0.023-0.13 0.050-0.193 0.077v0q-0.053 0.023-0.104 0.048c-0.015 0.007-0.029 0.015-0.044 0.022q-0.056 0.029-0.11 0.060c-0.009 0.005-0.018 0.010-0.027 0.016q-0.070 0.041-0.136 0.086l-0.004 0.003q-0.063 0.043-0.123 0.090c-0.008 0.006-0.016 0.012-0.024 0.019q-0.053 0.042-0.103 0.086c-0.006 0.006-0.013 0.011-0.019 0.017-0.081 0.072-0.155 0.147-0.225 0.225l-0.002 0.003 9.038 24.346q0.070-0.056 0.142-0.109c0.668-0.805 1.668-1.314 2.788-1.314 1.996 0 3.615 1.618 3.615 3.615 0 1.139-0.527 2.155-1.35 2.818l-0.007 0.005c0.468-0.241 0.866-0.551 1.197-0.921l0.003-0.004c0.003-0.004 0.007-0.008 0.011-0.012 0.037-0.041 0.072-0.084 0.107-0.126 0.006-0.007 0.012-0.015 0.018-0.022 0.033-0.041 0.065-0.082 0.096-0.124 0.007-0.010 0.015-0.020 0.022-0.030q0.045-0.061 0.087-0.123c0.008-0.012 0.016-0.023 0.024-0.035q0.041-0.061 0.079-0.124c0.008-0.013 0.016-0.026 0.024-0.039 0.025-0.041 0.049-0.083 0.072-0.125 0.008-0.014 0.015-0.028 0.023-0.042 0.023-0.042 0.045-0.084 0.066-0.127 0.007-0.014 0.013-0.028 0.020-0.043 0.021-0.043 0.041-0.087 0.060-0.131 0.006-0.013 0.011-0.026 0.017-0.040 0.019-0.046 0.038-0.092 0.056-0.138 0.003-0.008 0.006-0.017 0.009-0.026 0.052-0.132 0.104-0.297 0.145-0.467l0.006-0.028c0.002-0.007 0.004-0.014 0.005-0.020 0.009-0.040 0.017-0.080 0.025-0.12 0.005-0.024 0.010-0.048 0.015-0.072 0.007-0.036 0.012-0.072 0.017-0.108 0.004-0.029 0.009-0.057 0.013-0.086 0.005-0.034 0.008-0.069 0.012-0.103 0.003-0.031 0.007-0.062 0.009-0.093 0.003-0.033 0.005-0.067 0.007-0.1s0.004-0.065 0.005-0.098 0.002-0.065 0.002-0.098c0-0.034 0.001-0.067 0-0.101-0-0.032-0.001-0.064-0.002-0.096q-0.002-0.052-0.005-0.104c-0.002-0.031-0.004-0.063-0.007-0.094-0.003-0.036-0.007-0.071-0.011-0.107-0.003-0.031-0.007-0.061-0.011-0.092-0.005-0.037-0.011-0.073-0.017-0.11-0.005-0.030-0.009-0.060-0.015-0.090-0.007-0.038-0.015-0.076-0.023-0.113-0.006-0.029-0.012-0.057-0.019-0.086-0.009-0.040-0.020-0.079-0.031-0.119-0.007-0.027-0.014-0.053-0.021-0.080-0.012-0.044-0.027-0.088-0.041-0.132-0.007-0.022-0.014-0.044-0.021-0.066q-0.034-0.099-0.073-0.197c-0.134-0.331-0.294-0.617-0.484-0.879l0.008 0.012c-0.059-0.081-0.121-0.16-0.185-0.236-0.057-0.068-0.115-0.134-0.176-0.198-0.004-0.004-0.007-0.008-0.011-0.012q-0.067-0.069-0.137-0.135t-0.142-0.129q-0.145-0.125-0.301-0.236c-0.538-0.388-1.189-0.654-1.894-0.744l-0.021-0.002c-0.013-0.002-0.027-0.003-0.040-0.005-0.122-0.014-0.245-0.023-0.368-0.026-0.029-0.001-0.063-0.001-0.097-0.001-0.38 0-0.748 0.052-1.097 0.15l0.029-0.007q-0.097 0.026-0.193 0.058-0.185 0.060-0.359 0.136v0c-0.052 0.023-0.104 0.046-0.155 0.071-0.015 0.007-0.030 0.015-0.045 0.022q-0.056 0.028-0.111 0.057c-0.015 0.008-0.029 0.016-0.044 0.023-0.197 0.109-0.365 0.221-0.524 0.343l0.010-0.007c-0.027 0.021-0.055 0.041-0.082 0.063z"></path>
<path fill="#fff" d="M31.248 20.183h-29.060c-0.415 0-0.752-0.337-0.752-0.752 0-0 0-0 0-0v0-14.525c0-0.415 0.337-0.752 0.752-0.752h29.060c0 0 0 0 0 0 0.415 0 0.752 0.337 0.752 0.752v0 14.525c0 0 0 0 0 0 0 0.415-0.337 0.752-0.752 0.752-0 0-0 0-0 0v0z"></path>
<path fill="#e2e2e2" d="M31.248 4.154h-2.137v14c0 0.415-0.337 0.752-0.752 0.752h-26.923v0.525c0 0.415 0.337 0.752 0.752 0.752v0h29.060c0 0 0 0 0 0 0.415 0 0.752-0.337 0.752-0.752v-14.525c0-0 0-0 0-0 0-0.415-0.337-0.752-0.752-0.752-0 0-0 0-0 0v0z"></path>
<path fill="#e2e2e2" d="M9.913 4.154h0.929v16.029h-0.929v-16.029z"></path>
<path fill="#e2e2e2" d="M15.363 0.719l-8.646 23.218c-0.701-0.568-1.604-0.911-2.587-0.911-2.28 0-4.129 1.849-4.129 4.129 0 1.766 1.109 3.273 2.668 3.863l0.028 0.009c2.153 0.796 4.54-0.358 5.332-2.512l8.952-24.362c0.104-0.273 0.163-0.589 0.163-0.919 0-1.156-0.735-2.14-1.763-2.51l-0.019-0.006zM5.916 27.811c-0.275 0.734-0.971 1.247-1.786 1.247-1.051 0-1.903-0.852-1.903-1.903s0.852-1.903 1.903-1.903c0.235 0 0.461 0.043 0.669 0.121l-0.013-0.004c0.734 0.275 1.247 0.971 1.247 1.786 0 0.235-0.043 0.461-0.121 0.669l0.004-0.013z"></path>
<path fill="#fff" d="M15.599 0.815c0.251 0.399 0.4 0.884 0.4 1.404 0 0.33-0.060 0.646-0.17 0.937l0.006-0.018-8.952 24.361c-0.791 2.155-3.179 3.308-5.332 2.512-0.265-0.099-0.492-0.211-0.706-0.34l0.018 0.010c0.468 0.603 1.089 1.067 1.805 1.336l0.028 0.009c2.153 0.796 4.54-0.358 5.332-2.512l8.952-24.362c0.103-0.273 0.163-0.589 0.163-0.919 0-1.066-0.625-1.986-1.529-2.413l-0.016-0.007z"></path>
<path fill="#2ed573" d="M18.595 10.152h-2.321c-0.169 0-0.258 0.166-0.258 0.331 0 0.195 0.109 0.337 0.258 0.337h0.804v3.287c0 0.152 0.148 0.258 0.359 0.258 0.178 0 0.359-0.089 0.359-0.258v-3.287h0.799c0.152 0 0.258-0.141 0.258-0.342-0-0.157-0.081-0.325-0.258-0.325z"></path>
<path fill="#2ed573" d="M22.25 10.362c-0.049-0.148-0.222-0.244-0.44-0.244-0.214 0-0.385 0.096-0.434 0.245l-1.113 3.622c-0.006 0.018-0.009 0.039-0.009 0.061 0 0.003 0 0.006 0 0.009l-0-0c0 0.182 0.227 0.309 0.432 0.309 0.177 0 0.243-0.091 0.267-0.168l0.216-0.749h1.288l0.217 0.75c0.034 0.108 0.126 0.167 0.261 0.167 0.206 0 0.437-0.132 0.437-0.309-0.001-0.025-0.006-0.048-0.014-0.070l0 0.001zM21.334 12.847l0.476-1.632 0.476 1.632z"></path>
<path fill="#2ed573" d="M27.97 13.879l-0.949-1.624 0.922-1.613c0.031-0.050 0.050-0.111 0.053-0.175l0-0.001c0-0.195-0.227-0.331-0.431-0.331-0.127 0.005-0.235 0.085-0.278 0.198l-0.001 0.002-0.728 1.331-0.717-1.33c-0.088-0.166-0.2-0.201-0.279-0.201-0.207 0-0.437 0.136-0.437 0.331 0.003 0.066 0.022 0.126 0.054 0.178l-0.001-0.002 0.922 1.613-0.951 1.628c-0.023 0.042-0.038 0.092-0.040 0.145l-0 0.001c0 0.196 0.242 0.353 0.443 0.353 0.108-0.008 0.199-0.073 0.244-0.165l0.001-0.002 0.762-1.388 0.771 1.386c0.042 0.095 0.133 0.161 0.24 0.169l0.001 0c0.207 0 0.448-0.154 0.448-0.353-0.005-0.056-0.022-0.106-0.049-0.15l0.001 0.002z"></path>
<path fill="#2ed573" d="M8.019 9.233c-0-0.111-0.090-0.202-0.202-0.202h-4.278c-0.112 0-0.202 0.090-0.202 0.202s0.090 0.202 0.202 0.202v0h1.224c0.825 0 1.508 0.612 1.62 1.406l0.001 0.009h-2.843c-0.112 0-0.202 0.090-0.202 0.202s0.090 0.202 0.202 0.202h2.843c-0.103 0.812-0.789 1.433-1.62 1.434h-1.225c-0.112 0.001-0.202 0.092-0.202 0.204 0 0.058 0.024 0.11 0.063 0.147l0 0 3.057 2.889c0.036 0.034 0.085 0.055 0.139 0.055 0.058 0 0.11-0.024 0.148-0.063l0-0c0.034-0.037 0.055-0.086 0.055-0.14 0-0.058-0.024-0.111-0.063-0.149l-0-0-2.688-2.54h0.715c1.054-0.002 1.92-0.803 2.026-1.83l0.001-0.009h1.027c0.112 0 0.202-0.090 0.202-0.202s-0.090-0.202-0.202-0.202h-1.026c-0.063-0.582-0.365-1.083-0.805-1.411l-0.005-0.004h1.837c0.111-0 0.202-0.091 0.202-0.202v-0z"></path>
</svg>
