<!-- Generated by IcoMoon.io -->
<svg version="1.1" xmlns="http://www.w3.org/2000/svg" width="20" height="32" viewBox="0 0 20 32">
<title>1</title>
<path fill="#953d23" d="M18.252 16.128c-0.086 0.901-3.27 7.632-3.27 7.632l-7.614-0.153s-4.76-3.494-5.092-6.060c-0.13-0.987-0.204-2.128-0.204-3.287 0-0.6 0.020-1.195 0.059-1.785l-0.004 0.080 16.043-0.391z"></path>
<path fill="#ceacca" d="M15.033 28.972c0.175-0.13 2.473-4.645 2.473-4.645 1.71 0.562 2.201 5.412 2.376 7.673h-4.097z"></path>
<path fill="#f6c085" d="M10.094 21.127h-1.803v1.14c0 1.348-3.587 1.471-4.805 1.862 0.328 2.816 2.943 4.883 6.787 7.509h0.931c1.564-2.324 5.502-3.747 5.587-7.509-1.233-0.395-4.902-0.495-4.898-1.862v-1.14z"></path>
<path fill="#ceacca" d="M5.379 28.454c-0.171-0.127-2.607-4.127-2.607-4.127-1.695 0.562-2.19 5.412-2.362 7.673h4.097z"></path>
<path fill="#d8b3d2" d="M3.486 24.126c-0.329 0.050-0.625 0.15-0.894 0.294l0.015-0.007c1.952 3.706-0.931 5.192 0.134 7.587h14.788c1.062-2.395-1.821-3.881 0.134-7.587-0.251-0.135-0.543-0.236-0.852-0.285l-0.016-0.002c-0.477 2.462-3.274 4.351-6.653 4.351s-6.176-1.889-6.656-4.351z"></path>
<path fill="#f8c997" d="M10.292 1.307h-0.022l-1.062-0.041v0.082h-0.112c-2.258 0.138-4.222 1.287-5.461 2.996l-0.015 0.021c-1.3 1.766-1.475 3.993-1.386 6.124 0.279 5.479 3.352 11.629 8.057 11.674 4.712-0.045 7.777-6.194 8.042-11.674 0.101-2.131-0.071-4.358-1.371-6.124-1.255-1.728-3.221-2.875-5.459-3.009l-0.020-0.001h-0.112v-0.089l-1.062 0.041z"></path>
<path fill="#cc5827" d="M15.909 11.361c0.372 0.153-0.246-0.849-2.060-0.89-2.116-0.041-2.76 0.972-1.929 0.682 0.514-0.172 1.107-0.272 1.722-0.272 0.821 0 1.6 0.177 2.302 0.495l-0.035-0.014z"></path>
<path fill="#3e3b3a" d="M6.798 13.331c0.346 0 0.626-0.28 0.626-0.626s-0.28-0.626-0.626-0.626c-0.346 0-0.626 0.28-0.626 0.626v0c0 0.346 0.28 0.626 0.626 0.626v0z"></path>
<path fill="#3e3b3a" d="M14.449 12.705c0 0.344-0.278 0.622-0.622 0.622s-0.622-0.278-0.622-0.622c0-0.344 0.278-0.622 0.622-0.622s0.622 0.278 0.622 0.622z"></path>
<path fill="#d6825b" d="M7.822 17.76c0.692 0.387 1.518 0.615 2.397 0.615s1.705-0.228 2.422-0.628l-0.025 0.013c-0.361 2.421-4.369 2.354-4.794 0z"></path>
<path fill="#e5b17d" d="M8.884 16.434s0 0 0 0c0.002-0.037 0.021-0.069 0.048-0.089l0-0c0.459-1.020 0.806-2.203 0.982-3.441l0.008-0.071c0.253 0-0.25 2.693-0.466 3.33 0.225-0.038 0.484-0.060 0.748-0.060 0.009 0 0.019 0 0.028 0h-0.001c0.745 0 1.348 0.149 1.348 0.331s-0.603 0.335-1.348 0.335-1.293-0.16-1.348-0.335z"></path>
<path fill="#cc5827" d="M4.567 11.376c-0.372 0.153 0.242-0.849 2.060-0.886 2.116-0.060 2.76 0.972 1.941 0.685-0.519-0.176-1.117-0.277-1.738-0.277-0.819 0-1.597 0.176-2.297 0.493l0.035-0.014z"></path>
<path fill="#cc5827" d="M4.574 3.296c2.935 1.736 11.815 4.641 11.569 13.286 0 0 0.626-3.46 0.644-3.3 0.106 0.667 0.167 1.436 0.167 2.219 0 1.152-0.131 2.273-0.38 3.349l0.019-0.1c-0.644 3.162-3.267 6.865-3.159 6.705 1.97-1.244 3.509-3.013 4.441-5.111l0.029-0.074c4.682-10.727 0.957-22.297-10.169-19.969-2.388 0.499-4.224 2.369-3.162 2.995z"></path>
<path fill="#cc5827" d="M7.822 4.347c-6.168 3.256-3.699 14.527-1.24 18.293 1.173 1.807 2.38 2.98 1.959 2.607s-3.464-0.123-6.705-6.269c-2.607-4.943-3.483-17.35 4.641-17.35z"></path>
<path fill="#cc5827" d="M2.030 7.878c0.346-0.302 2.026-2.298 2.026-2.298-1.613 6.768 1.363 12.441 1.348 12.422-2.488-4.272-2.846-5.256-3.375-10.124z"></path>
</svg>
