<!-- Generated by IcoMoon.io -->
<svg version="1.1" xmlns="http://www.w3.org/2000/svg" width="20" height="32" viewBox="0 0 20 32">
<title>10</title>
<path fill="#443d47" d="M6.414 27.172c-0.175-0.133-4.098-1.982-4.098-1.982-1.746 0.578-2.138 4.486-2.317 6.81h4.185z"></path>
<path fill="#443d47" d="M13.369 27.172c0.175-0.133 4.098-1.982 4.098-1.982 1.746 0.578 2.138 4.486 2.317 6.81h-4.185z"></path>
<path fill="#f5b67e" d="M9.892 20.895h-1.841v1.141c0 0.723-0.118 0.575-0.795 0.947-0.25 0.218-0.527 0.418-0.823 0.591l-0.026 0.014c0.822 2.663 1.412 6.034 3.009 8.412h0.951c1.598-2.378 2.188-5.749 3.009-8.412-0.321-0.185-0.599-0.383-0.856-0.603l0.007 0.006c-0.677-0.38-0.795-0.224-0.795-0.947v-1.141z"></path>
<path fill="#4d4351" d="M9.892 27.225c-3.044-0.24-2.602-4.185-2.637-4.212-0.982 0.445-4.565 1.849-4.946 2.195 0.323 0.711 0.818 3.641 1.244 6.791h12.692c0.426-3.15 0.921-6.087 1.244-6.791-0.38-0.346-3.98-1.75-4.946-2.195-0.049 0.019 0.392 3.972-2.652 4.212z"></path>
<path fill="#f6c085" d="M14.838 12.692c-0.038 0.163-0.059 0.35-0.059 0.543 0 1.223 0.873 2.242 2.029 2.468l0.016 0.003c0.156 0.036 0.335 0.056 0.519 0.056 1.226 0 2.242-0.904 2.416-2.082l0.002-0.013c0.262-1.499-0.624-2.929-1.982-3.2s-2.697 0.727-2.941 2.226z"></path>
<path fill="#f6c085" d="M5.326 12.692c0.038 0.164 0.060 0.351 0.060 0.544 0 1.22-0.869 2.237-2.022 2.467l-0.016 0.003c-0.156 0.036-0.335 0.056-0.519 0.056-1.226 0-2.242-0.904-2.416-2.082l-0.002-0.013c-0.263-1.491 0.624-2.929 1.982-3.2s2.678 0.727 2.933 2.226z"></path>
<path fill="#f8c997" d="M16.862 3.77c-1.282-1.765-3.29-2.936-5.576-3.073l-0.021-0.001h-0.114v-0.091l-1.084 0.046-1.084-0.046v0.088h-0.114c-2.304 0.141-4.309 1.313-5.574 3.056l-0.015 0.022c-1.328 1.807-1.503 4.078-1.4 6.258 0.080 1.644 0.38 4.299 0.453 5.947 2.115 7.902 13.51 8.031 15.477 0 0.084-1.647 0.38-4.303 0.453-5.947 0.103-2.18-0.072-4.451-1.4-6.258z"></path>
<path fill="#a95c40" d="M3.344 6.803c-0.107 0.228 0.498-2.054 1.822-2.096 1.385-0.042 9.998 0.483 10.44-0.091 1.457 1.845 2.522 9.169 2.606 9.154 0.194-0.038 0.217-0.761 0.236-0.909 0.124-0.931 0.195-2.008 0.195-3.101 0-0.061-0-0.123-0.001-0.184l0 0.009c0-2.009 0.582-5.874-3.044-8.283-2.233-1.48-6.848-1.628-9.424-0.791-1.788 0.586-3.508 2.108-4.143 3.881-0.704 1.948-0.685 3.47-0.453 7.328 0.023 0.418 0.072 0.837 0.129 1.252 0.042 0.274 0.076 0.559 0.145 0.829 0.335 1.469 0.369-5.262 1.491-6.997z"></path>
<path fill="#a95c40" d="M16.945 3.093c-0.282 2.815-3.934 4.995-6.643 4.995l0.791-0.761c-3.044 0.928-4.748 0.297-4.744 0.297 0.499-0.161 0.916-0.331 1.317-0.528l-0.058 0.026c-1.731 0.053-3.481 0.080-4.824-1.176l1.937-3.424z"></path>
<path fill="#3e3b3a" d="M5.912 13.921c0.353 0 0.639-0.286 0.639-0.639s-0.286-0.639-0.639-0.639c-0.353 0-0.639 0.286-0.639 0.639 0 0.001 0 0.003 0 0.004v-0c0 0 0 0 0 0 0 0.351 0.284 0.635 0.635 0.635 0.001 0 0.003 0 0.004 0h-0z"></path>
<path fill="#3e3b3a" d="M14.233 13.921c0.353 0 0.639-0.286 0.639-0.639s-0.286-0.639-0.639-0.639c-0.353 0-0.639 0.286-0.639 0.639 0 0.001 0 0.003 0 0.004v-0c0 0 0 0 0 0 0 0.351 0.284 0.635 0.635 0.635 0.001 0 0.003 0 0.004 0h-0z"></path>
<path fill="#a95c40" d="M3.721 11.501c-0.232-0.339 0.845-0.59 1.986-0.67 1.872-0.129 2.941 0.704 2.039 0.734-0.689 0.027-3.942 0.030-4.025-0.065z"></path>
<path fill="#a95c40" d="M16.051 11.551c0.244-0.327-0.833-0.62-1.944-0.761-1.864-0.205-2.968 0.59-2.070 0.654 0.673 0.065 3.941 0.202 4.014 0.107z"></path>
<path fill="#d6825b" d="M12.175 17.798c-0.38 2.188-3.915 2.188-4.303 0 0.647 0.115 1.391 0.181 2.151 0.181s1.505-0.066 2.228-0.193l-0.077 0.011z"></path>
<path fill="#e5b17d" d="M8.655 16.512s0 0 0 0c0.003-0.039 0.023-0.073 0.053-0.095l0-0c0.47-1.042 0.824-2.251 1.004-3.516l0.008-0.072c0.259 0-0.255 2.751-0.479 3.401 0.23-0.039 0.496-0.061 0.766-0.061 0.009 0 0.018 0 0.026 0h-0.001c0.761 0 1.381 0.152 1.381 0.342s-0.62 0.339-1.381 0.339-1.335-0.16-1.377-0.339z"></path>
</svg>
