<!-- Generated by IcoMoon.io -->
<svg version="1.1" xmlns="http://www.w3.org/2000/svg" width="18" height="32" viewBox="0 0 18 32">
<title>11</title>
<path fill="#34333c" d="M5.736 27.679c-0.157-0.116-3.664-1.769-3.664-1.769-1.562 0.517-1.912 4.028-2.072 6.090h3.742z"></path>
<path fill="#34333c" d="M11.955 27.679c0.156-0.116 3.664-1.769 3.664-1.769 1.562 0.517 1.912 4.028 2.072 6.090h-3.742z"></path>
<path fill="#f5b67e" d="M8.845 22.066h-1.647v1.041c0 0.646-0.105 0.51-0.711 0.847-0.224 0.193-0.472 0.372-0.735 0.528l-0.024 0.013c0.731 2.354 1.494 4.569 2.926 6.695h0.847c1.432-2.133 1.725-4.348 2.46-6.695-0.287-0.167-0.535-0.344-0.766-0.54l0.007 0.006c-0.606-0.34-0.711-0.201-0.711-0.847v-1.048z"></path>
<path fill="#bed53b" d="M8.845 27.727c-2.722-0.214-2.327-3.742-2.358-3.766-0.878 0.401-4.082 1.657-4.423 1.966 0.289 0.636 0.731 3.256 1.112 6.073h11.349c0.381-2.817 0.823-5.443 1.112-6.073-0.34-0.31-3.559-1.565-4.423-1.966-0.044 0.020 0.35 3.552-2.371 3.766z"></path>
<path fill="#f6c085" d="M13.268 14.734c-0.033 0.145-0.052 0.312-0.052 0.483 0 1.094 0.78 2.006 1.814 2.21l0.014 0.002c0.139 0.031 0.298 0.049 0.461 0.049 1.098 0 2.007-0.809 2.164-1.864l0.001-0.012c0.235-1.337-0.558-2.62-1.773-2.858s-2.412 0.65-2.63 1.99z"></path>
<path fill="#f6c085" d="M4.763 14.734c0.033 0.145 0.053 0.312 0.053 0.484 0 1.092-0.777 2.002-1.807 2.208l-0.014 0.002c-0.139 0.031-0.298 0.049-0.461 0.049-1.098 0-2.007-0.809-2.164-1.864l-0.001-0.012c-0.235-1.337 0.558-2.62 1.772-2.858s2.395 0.65 2.623 1.99z"></path>
<path fill="#f8c997" d="M15.078 6.757c-1.146-1.579-2.942-2.626-4.986-2.748l-0.018-0.001h-0.102v-0.078l-0.97 0.037-0.97-0.037v0.078h-0.102c-2.060 0.125-3.853 1.172-4.984 2.73l-0.013 0.019c-1.187 1.613-1.344 3.647-1.252 5.593 0.071 1.473 0.34 3.848 0.405 5.317 1.888 7.070 12.081 7.182 13.84 0 0.075-1.47 0.34-3.844 0.405-5.317 0.092-1.946-0.065-3.98-1.252-5.593z"></path>
<path fill="#973823" d="M2.99 9.465c-0.095 0.204 0.446-1.837 1.63-1.871 1.238-0.037 8.941 0.432 9.335-0.085 1.303 1.653 2.256 8.202 2.33 8.189 0.174-0.034 0.194-0.68 0.211-0.813 0.111-0.833 0.174-1.797 0.174-2.775 0-0.054-0-0.108-0.001-0.162l0 0.008c0-1.796 0.521-5.253-2.722-7.406-1.997-1.327-6.124-1.46-8.427-0.708-1.693 0.578-3.024 1.831-3.693 3.43l-0.015 0.040c-0.626 1.742-0.609 3.103-0.401 6.549 0.020 0.374 0.065 0.748 0.116 1.119 0.037 0.248 0.068 0.5 0.129 0.742 0.299 1.313 0.33-4.702 1.334-6.256z"></path>
<path fill="#3e3b3a" d="M5.287 15.813c0.316 0 0.572-0.256 0.572-0.572s-0.256-0.572-0.572-0.572c-0.316 0-0.572 0.256-0.572 0.572 0 0.001 0 0.002 0 0.004v-0c0 0 0 0 0 0 0 0.314 0.254 0.568 0.568 0.568 0.001 0 0.002 0 0.004 0h-0z"></path>
<path fill="#3e3b3a" d="M13.295 15.282c0 0.314-0.254 0.568-0.568 0.568s-0.568-0.254-0.568-0.568c0-0.314 0.254-0.568 0.568-0.568s0.568 0.254 0.568 0.568z"></path>
<path fill="#973823" d="M3.327 13.666c-0.208-0.299 0.755-0.524 1.776-0.595 1.674-0.119 2.63 0.629 1.824 0.657-0.616 0.020-3.525 0.027-3.599-0.061z"></path>
<path fill="#973823" d="M14.353 13.683c0.218-0.293-0.745-0.555-1.738-0.663-1.667-0.184-2.654 0.524-1.851 0.585 0.602 0.044 3.525 0.163 3.589 0.078z"></path>
<path fill="#d6825b" d="M10.887 19.297c-0.34 1.956-3.501 1.956-3.848 0 0.578 0.104 1.244 0.164 1.924 0.164s1.345-0.059 1.992-0.174l-0.069 0.010z"></path>
<path fill="#e5b17d" d="M7.74 18.147s0 0 0-0.017c0.004-0.034 0.022-0.063 0.047-0.081l0-0c0.419-0.931 0.736-2.012 0.897-3.143l0.008-0.065c0.231 0-0.228 2.46-0.429 3.041 0.206-0.035 0.443-0.055 0.685-0.055 0.008 0 0.016 0 0.023 0h-0.001c0.68 0 1.232 0.136 1.232 0.303s-0.551 0.306-1.232 0.306-1.194-0.129-1.232-0.289z"></path>
<path fill="#973823" d="M2.919 8.444c-0.129-0.772-0.772-0.816-0.653-1.721s1.476-2.667 2.215-3.382c0.445-0.427 0.987-0.756 1.59-0.951l0.029-0.008s-0.497 0.8-0.293 0.595 1.225-0.67 1.677-0.936 0.64-0.568 0.582-0.422-0.34 0.68-0.133 0.541 0.731-0.16 1.374-0.8c0.365-0.395 0.692-0.835 0.97-1.308l0.020-0.036c-0.058 0.146 0.929 1.296 1.238 1.881s0.371 0.932 0.439 0.772 0.364-0.759 0.364-0.759c0.6 0.526 1.143 1.082 1.641 1.677l0.019 0.024c0.47 0.643 0.572 1.092 0.629 0.932s0.174-0.555 0.174-0.555 0.626 1.562 0.452 2.347c-0.173 0.708-0.359 1.298-0.58 1.87l0.035-0.104s-4.266 1.082-5.784 1.099c-0.718 0-5.321-1.262-5.409-1.619z"></path>
<path fill="#d99e67" d="M8.845 27.73c-2.722-0.218-2.327-3.742-2.358-3.77h-0.024l-0.731 0.316c0 0.065 0 0.126 0 0.191v0c-0.001 0.038-0.002 0.084-0.002 0.129 0 1.153 0.405 2.211 1.080 3.040l-0.007-0.009c0.472 0.581 1.178 0.955 1.973 0.976l0.004 0c1.051 0 1.983-0.721 2.531-1.817 0.27-0.536 0.45-1.161 0.502-1.823l0.001-0.017q0.020-0.228 0.020-0.47v-0.051c0-0.065 0-0.126 0-0.191-0.252-0.105-0.463-0.197-0.612-0.265h-0.024c-0.027 0.010 0.367 3.542-2.354 3.759z"></path>
<path fill="#34333c" d="M8.845 27.73c-2.722-0.218-2.327-3.742-2.358-3.77h-0.024l-0.731 0.316c0 0.065 0 0.126 0 0.191v0c-0.001 0.038-0.002 0.084-0.002 0.129 0 1.153 0.405 2.211 1.080 3.040l-0.007-0.009c0.472 0.581 1.178 0.955 1.973 0.976l0.004 0c1.051 0 1.983-0.721 2.531-1.817 0.27-0.536 0.45-1.161 0.502-1.823l0.001-0.017q0.020-0.228 0.020-0.47v-0.242c-0.252-0.105-0.463-0.197-0.612-0.265h-0.024c-0.027 0.010 0.367 3.542-2.354 3.759z"></path>
</svg>
