<!-- Generated by IcoMoon.io -->
<svg version="1.1" xmlns="http://www.w3.org/2000/svg" width="20" height="32" viewBox="0 0 20 32">
<title>12</title>
<path fill="#402412" d="M18.852 16.83c0 2.504 1.762 4.518 0.7 7.259-1.653 4.255-5.377 3.321-8.136 3.321h-3.615c-2.835 0-6.186 0.343-7.383-3.765-0.825-2.828 0.644-4.319 0.644-6.574l-0.128-6.371c0.218-8.441 3.261-9.771 9.040-9.771 6.796-0.911 8.637 2.636 9.036 9.789z"></path>
<path fill="#9b5538" d="M13.329 27.218l3.946-2.978c1.728 0.569 2.229 5.471 2.402 7.764h-4.142z"></path>
<path fill="#f5b67e" d="M9.789 21.006h-1.822v1.152c0 0.715-0.117 0.565-0.787 0.938-0.247 0.211-0.522 0.406-0.813 0.577l-0.027 0.015c0.813 2.605 1.397 5.96 2.978 8.317h0.941c1.581-2.353 2.169-5.708 2.978-8.313-0.318-0.185-0.592-0.38-0.848-0.598l0.008 0.007c-0.67-0.377-0.787-0.222-0.787-0.938v-1.156z"></path>
<path fill="#9b5538" d="M6.348 27.218l-3.946-2.978c-1.728 0.569-2.225 5.471-2.402 7.764h4.142z"></path>
<path fill="#ed8322" d="M8.66 25.667c-1.604-0.591-1.803-2.312-1.48-2.564-0.715 0.328-2.839 0.651-4.066 0.934h-0.855l-0.023 0.019c0.177 0.377 0.407 1.683 0.651 3.291-0.252 1.916-1.209 3.095-0.516 4.658h14.948c0.693-1.559-0.267-2.737-0.516-4.379 0.145-1.242 0.374-2.358 0.688-3.437l-0.037 0.146v-0.019h-0.817c-1.231-0.282-3.355-0.606-4.070-0.934 0.328 0.252 0.124 1.973-1.48 2.564v0l-1.13 1.883-0.12-0.343-0.049 0.083-1.13-1.883z"></path>
<path fill="#f6c085" d="M4.432 12.022c0.301 1.359-0.297 2.489-1.325 2.733s-2.093-0.493-2.395-1.852 0.286-2.654 1.314-2.899 2.116 0.659 2.406 2.018z"></path>
<path fill="#f6c085" d="M15.546 12.022c-0.301 1.359 0.301 2.489 1.329 2.733s2.093-0.493 2.395-1.852-0.286-2.654-1.314-2.899-2.105 0.659-2.41 2.018z"></path>
<path fill="#f8c997" d="M9.989 0.971h-0.023l-1.073-0.041v0.087h-0.113c-2.282 0.138-4.267 1.298-5.52 3.025l-0.015 0.021c-1.314 1.788-1.487 4.036-1.386 6.19 0.267 5.539 3.389 11.755 8.129 11.8 4.763-0.045 7.865-6.261 8.129-11.8 0.105-2.154-0.072-4.401-1.386-6.19-1.269-1.747-3.256-2.906-5.518-3.041l-0.020-0.001h-0.109v-0.090l-1.069 0.041z"></path>
<path fill="#402412" d="M13.374 3.118c-0.064 0.305 0 1.932 1.883 4.432s2.022 2.715 2.022 2.715 0.087 4.217 0.324 3.716 0.584-4.142 0.584-4.142c0.11-0.536 0.173-1.151 0.173-1.782 0-0.72-0.082-1.422-0.238-2.095l0.012 0.063c-0.478-1.954-1.081-2.692-1.909-3.012s-2.85 0.105-2.85 0.105z"></path>
<path fill="#402412" d="M2.922 8.396c-0.324 0.377-1.382 0.41-1.382 0.41 0.045 0.339 0.501 5.501 0.926 5.124z"></path>
<path fill="#402412" d="M17.263 10.264c0.087-1.427 0.817-4.688 0.459-5.576-1.035-2.564-2.933-3.603-6.115-3.935-0.269-0.026-0.581-0.041-0.896-0.041s-0.628 0.015-0.935 0.044l0.039-0.003c1.826 3.012 3.362 7.022 7.447 9.511z"></path>
<path fill="#402412" d="M14.195 3.893c-0.64 4.014-9.138 2.726-11.936 7.568-3.11-4.706 1.657-14.349 9.955-10.625z"></path>
<path fill="#3e3b3a" d="M6.25 13.724c0.346-0.002 0.625-0.283 0.625-0.629 0-0.347-0.282-0.629-0.629-0.629s-0.629 0.281-0.629 0.629v0c0 0 0 0 0 0 0 0.347 0.282 0.629 0.629 0.629 0.001 0 0.003 0 0.004 0h-0z"></path>
<path fill="#3e3b3a" d="M14.108 13.724c0.346-0.002 0.625-0.283 0.625-0.629 0-0.347-0.281-0.629-0.629-0.629s-0.629 0.281-0.629 0.629v0c0 0 0 0 0 0 0 0.347 0.281 0.629 0.629 0.629 0.001 0 0.003 0 0.004 0h-0z"></path>
<path fill="#e5b17d" d="M8.972 16.307s0 0 0-0.019c0.005-0.042 0.029-0.078 0.063-0.098l0.001-0c0.465-1.031 0.816-2.227 0.993-3.479l0.008-0.071c0.256 0-0.252 2.722-0.474 3.366 0.228-0.038 0.492-0.060 0.76-0.060 0.010 0 0.019 0 0.029 0h-0.001c0.753 0 1.363 0.151 1.363 0.335s-0.61 0.339-1.363 0.339-1.337-0.136-1.378-0.313z"></path>
<path fill="#402412" d="M11.853 11.578c-0.377 0.154 0.245-0.858 2.082-0.896 2.139-0.049 2.786 0.979 1.947 0.685-0.519-0.174-1.117-0.274-1.739-0.274-0.829 0-1.616 0.179-2.326 0.499l0.036-0.014z"></path>
<path fill="#402412" d="M8.129 11.578c0.377 0.154-0.248-0.858-2.082-0.896-2.139-0.049-2.79 0.979-1.947 0.685 0.519-0.174 1.117-0.274 1.739-0.274 0.829 0 1.616 0.179 2.326 0.499l-0.036-0.014z"></path>
<path fill="#d6825b" d="M12.131 17.851c-0.377 1.702-3.874 1.702-4.258 0 0.538 0.561 1.293 0.909 2.129 0.909s1.592-0.348 2.128-0.908l0.001-0.001z"></path>
</svg>
