<!-- Generated by IcoMoon.io -->
<svg version="1.1" xmlns="http://www.w3.org/2000/svg" width="19" height="32" viewBox="0 0 19 32">
<title>13</title>
<path fill="#7d7873" d="M7.094 23.921l-0.051-1.676h5.286l-0.051 1.621-5.184 0.055z"></path>
<path fill="#7f7a77" d="M6.155 27.382c-0.168-0.128-3.932-1.902-3.932-1.902-1.676 0.54-2.052 4.304-2.223 6.52h4.016z"></path>
<path fill="#7f7a77" d="M12.829 27.382c0.168-0.128 3.932-1.902 3.932-1.902 1.676 0.555 2.052 4.319 2.223 6.535h-4.016z"></path>
<path fill="#f5b67e" d="M9.492 21.339h-1.767v1.117c0 0.694-0.113 0.548-0.763 0.909-0.24 0.206-0.506 0.396-0.789 0.56l-0.025 0.014c0.789 2.53 1.354 5.779 2.888 8.061h0.913c1.533-2.282 2.099-5.531 2.888-8.061-0.308-0.178-0.575-0.367-0.821-0.579l0.007 0.006c-0.65-0.365-0.763-0.215-0.763-0.909v-1.117z"></path>
<path fill="#857e79" d="M9.649 27.48s-0.551-0.73-0.803-1.139c-0.767-1.245-1.858-2.95-1.884-2.965-0.942 0.427-4.381 1.774-4.746 2.107 0.31 0.683 0.785 3.494 1.194 6.517h12.179c0.409-3.023 0.884-5.841 1.194-6.517-0.365-0.332-3.819-1.679-4.746-2.107-0.48 1.156-0.981 2.131-1.551 3.059l0.054-0.094c-0.343 0.497-0.891 1.139-0.891 1.139z"></path>
<path fill="#f6c085" d="M14.238 13.472c-0.036 0.156-0.057 0.336-0.057 0.521 0 1.173 0.838 2.151 1.947 2.368l0.015 0.003c0.15 0.034 0.322 0.054 0.498 0.054 1.177 0 2.151-0.867 2.318-1.998l0.002-0.013c0.252-1.438-0.599-2.815-1.902-3.070s-2.588 0.712-2.822 2.136z"></path>
<path fill="#f6c085" d="M5.111 13.472c0.036 0.157 0.057 0.337 0.057 0.522 0 1.171-0.834 2.147-1.94 2.367l-0.015 0.003c-0.15 0.034-0.322 0.054-0.498 0.054-1.177 0-2.151-0.867-2.318-1.998l-0.002-0.013c-0.252-1.438 0.599-2.815 1.902-3.070s2.57 0.712 2.815 2.136z"></path>
<path fill="#f8c997" d="M16.181 4.91c-1.23-1.694-3.157-2.818-5.351-2.949l-0.020-0.001h-0.11v-0.088l-1.040 0.044-1.040-0.044v0.084h-0.11c-2.211 0.135-4.135 1.26-5.349 2.933l-0.014 0.021c-1.274 1.734-1.442 3.914-1.344 6.006 0.077 1.577 0.365 4.125 0.434 5.706 2.026 7.583 12.964 7.707 14.852 0 0.069-1.581 0.358-4.129 0.434-5.706 0.099-2.092-0.069-4.272-1.344-6.006z"></path>
<path fill="#402412" d="M3.209 7.82c-0.102 0.219 0.478-1.971 1.749-2.012 1.329-0.040 9.595 0.464 10.018-0.088 1.398 1.771 2.326 9.051 2.406 9.036 0.424-0.080 0.507-3.855 0.507-4.268 0-1.928 0.559-5.637-2.921-7.948-2.143-1.424-6.572-1.563-9.043-0.759-1.716 0.562-3.366 2.023-3.976 3.724-0.701 1.869-0.683 3.33-0.46 7.032 0.022 0.402 0.069 0.803 0.124 1.201 0.040 0.263 0.073 0.533 0.139 0.796 0.347 1.409 0.38-5.042 1.457-6.714z"></path>
<path fill="#402412" d="M2.705 5.86c0.055 0.164 0.27 0.96 3.041 1.902 1.557 0.554 3.352 0.887 5.222 0.916l0.014 0c-0.307-0.167-0.572-0.36-0.809-0.582l0.002 0.002s1.99 0.646 3.443 0.511 2.505-0.942 2.326-0.942c-0.377-0.105-0.701-0.23-1.010-0.38l0.035 0.015c1.106-0.553 2.052-1.249 2.86-2.079l0.002-0.002c1.051-1.205 1.387-2.348 1.252-2.234s-1.030 0.559-0.894 0.402 0.245-1.946 0.245-1.946c-0.29 0.21-0.619 0.404-0.967 0.565l-0.037 0.015c-0.226 0.047 0.245-1.46 0.245-1.46s-2.147 0.402-3.377 0.223-1.931-0.562-3.742-0.65c-0.157-0.014-0.339-0.022-0.524-0.022-0.864 0-1.688 0.172-2.439 0.482l0.042-0.016 0.307-0.581s-2.556 0.73-3.209 1.23c-0.503 0.435-0.933 0.936-1.284 1.491l-0.016 0.027c-0.342-0.114-0.736-0.185-1.146-0.193l-0.004-0c-0.001 0-0.001 0-0.002 0-0.263 0-0.513 0.054-0.74 0.151l0.012-0.005 1.161 0.365c-0.357 0.117-0.665 0.295-0.927 0.525l0.003-0.003c-0.391 0.347-0.73 0.748-0.548 0.65 0.329-0.093 0.713-0.16 1.109-0.189l0.019-0.001z"></path>
<path fill="#756e6a" d="M7.842 24.899c0.095 0 0.628 0.088 0.628 0.088l0.365 1.354-1.34-0.617z"></path>
<path fill="#9f9993" d="M7.043 22.245l1.427 2.742s-1.46 1.46-1.46 1.38-0.657-2.618-0.606-2.753 0.639-1.369 0.639-1.369z"></path>
<path fill="#756e6a" d="M11.526 24.899c-0.095 0-0.628 0.084-0.628 0.084l-0.365 1.358 1.34-0.621z"></path>
<path fill="#9f9993" d="M12.329 22.245l-1.431 2.738s1.46 1.46 1.46 1.38 0.661-2.614 0.61-2.749-0.639-1.369-0.639-1.369z"></path>
<path fill="#3e3b3a" d="M2.764 11.442c-0.279 0.299-0.486 0.668-0.591 1.078l-0.004 0.017c-0.148 0.003-0.287 0.041-0.41 0.105l0.005-0.002c-0.046 0.065-0.074 0.146-0.074 0.234s0.028 0.169 0.075 0.235l-0.001-0.001c0.106 0.040 0.229 0.063 0.357 0.063 0.014 0 0.029-0 0.043-0.001l-0.002 0c0 2.191 1.179 3.753 3.435 3.673 1.134-0.006 2.117-0.646 2.614-1.583l0.008-0.016c0.293-0.5 0.518-1.081 0.644-1.698l0.006-0.036c0.058-0.394 0.102-0.588 0.197-0.646 0.152-0.034 0.326-0.053 0.505-0.053 0.033 0 0.066 0.001 0.098 0.002l-0.005-0c0.028-0.001 0.061-0.002 0.094-0.002 0.179 0 0.353 0.019 0.521 0.056l-0.016-0.003c0.095 0.058 0.142 0.252 0.197 0.646 0.133 0.661 0.362 1.248 0.675 1.779l-0.014-0.027c0.505 0.955 1.49 1.595 2.624 1.599h0.001c2.253 0.080 3.432-1.482 3.432-3.673 0.013 0.001 0.027 0.001 0.042 0.001 0.128 0 0.25-0.023 0.363-0.065l-0.007 0.002c0.046-0.065 0.074-0.146 0.074-0.234s-0.028-0.169-0.075-0.235l0.001 0.001c-0.12-0.068-0.262-0.11-0.414-0.117l-0.002-0c-0.109-0.427-0.316-0.797-0.596-1.097l0.001 0.001c-0.307-0.34-1.048-0.591-1.953-0.664-2.249-0.179-7.462-0.164-9.715-0.026-0.986 0.062-1.804 0.325-2.132 0.69zM9.054 12.413v0c-0.055 0.044-0.131-0.095-0.139-0.139-0.077-0.434 0.026-1.059-0.584-1.172h2.665c-0.61 0.113-0.507 0.73-0.584 1.172 0 0.044-0.084 0.179-0.139 0.139-0.183-0.020-0.395-0.031-0.61-0.031s-0.427 0.011-0.636 0.034l0.026-0.002zM11.007 11.398v0c0.378-0.206 0.828-0.329 1.305-0.336l0.002-0c1.008-0.066 3.454-0.117 4.173 0.767 0.249 0.297 0.408 0.675 0.434 1.090l0 0.005c0.002 0.049 0.003 0.107 0.003 0.164 0 0.447-0.055 0.881-0.16 1.296l0.008-0.037c-0.427 1.584-1.482 2.318-3.041 2.234-2.070-0.11-3.1-2.369-3.023-4.22 0.018-0.445 0.084-0.81 0.299-0.978zM8.32 11.398v0c0.215 0.168 0.281 0.533 0.299 0.978 0.077 1.851-0.953 4.111-3.023 4.22-1.559 0.084-2.614-0.65-3.041-2.234-0.097-0.378-0.152-0.812-0.152-1.26 0-0.058 0.001-0.115 0.003-0.173l-0 0.008c0.026-0.42 0.186-0.799 0.437-1.098l-0.002 0.003c0.73-0.883 3.165-0.832 4.173-0.767 0.008-0 0.017-0 0.026-0 0.467 0 0.908 0.112 1.297 0.311l-0.016-0.008z"></path>
<path fill="#5a5858" d="M2.793 11.774c-0.256 0.306-0.419 0.698-0.442 1.127l-0 0.005c-0.002 0.053-0.003 0.116-0.003 0.179 0 0.455 0.057 0.897 0.164 1.318l-0.008-0.037c0.168 0.78 0.621 1.433 1.242 1.859l0.010 0.007c0.445 0.266 0.981 0.423 1.554 0.423 0.102 0 0.203-0.005 0.302-0.015l-0.013 0.001c2.103-0.113 3.154-2.413 3.074-4.297-0.018-0.453-0.084-0.825-0.303-0.997-0.385-0.208-0.841-0.333-1.326-0.343l-0.003-0c-0.836-0.051-2.629-0.095-3.651 0.365-0.236 0.091-0.437 0.229-0.598 0.404l-0.001 0.001z"></path>
<path fill="#5a5858" d="M10.672 12.344c-0.084 1.869 0.967 4.155 3.059 4.268 0.079 0.007 0.172 0.011 0.265 0.011 0.575 0 1.113-0.156 1.575-0.428l-0.015 0.008c0.622-0.432 1.069-1.079 1.234-1.831l0.004-0.020c0.097-0.384 0.153-0.824 0.153-1.278 0-0.064-0.001-0.128-0.003-0.192l0 0.009c-0.022-0.43-0.184-0.818-0.441-1.124l0.002 0.003c-0.154-0.176-0.346-0.315-0.563-0.405l-0.010-0.004c-1.030-0.464-2.818-0.42-3.651-0.365-0.485 0.006-0.939 0.131-1.337 0.347l0.015-0.008c-0.201 0.186-0.267 0.555-0.288 1.008z"></path>
<path fill="#d6825b" d="M12.778 18.766c-0.647 0.737-1.591 1.2-2.644 1.2-0.045 0-0.089-0.001-0.134-0.003l0.006 0c-0.038 0.001-0.083 0.002-0.127 0.002-1.052 0-1.996-0.463-2.64-1.196l-0.003-0.004c0.751 0.585 1.698 0.953 2.729 0.993l0.009 0c1.061-0.041 2.030-0.408 2.816-1.002l-0.013 0.009z"></path>
<path fill="#e5b17d" d="M8.598 17.933s0 0 0-0.022c0.004-0.036 0.023-0.067 0.051-0.087l0-0c0.449-0.999 0.789-2.159 0.963-3.372l0.008-0.070c0.248 0-0.248 2.64-0.46 3.264 0.221-0.037 0.476-0.058 0.736-0.058 0.008 0 0.017 0 0.025 0h-0.001c0.73 0 1.322 0.146 1.322 0.325s-0.591 0.329-1.322 0.329-1.285-0.135-1.322-0.307z"></path>
</svg>
