<!-- Generated by IcoMoon.io -->
<svg version="1.1" xmlns="http://www.w3.org/2000/svg" width="20" height="32" viewBox="0 0 20 32">
<title>14</title>
<path fill="#b24d26" d="M17.063 19.915c-0.098 0.053-1.507 1.696-1.507 1.696s-1.884-1.232-5.747-1.191-5.509 1.149-5.509 1.149c-0.705-0.59-1.231-1.372-1.499-2.265l-0.009-0.033c-0.437-1.507-0.81-5.878-0.588-5.935s15.981-0.196 15.981-0.196z"></path>
<path fill="#f5b67e" d="M13.34 27.218l3.949-2.981c1.73 0.569 2.231 5.475 2.404 7.763h-4.145z"></path>
<path fill="#d8465e" d="M15.13 25.843l2.159-1.632c1.507 0.505 2.091 4.367 2.325 6.843h-4.484z"></path>
<path fill="#f5b67e" d="M9.797 21h-1.824v1.149c0 0.716-0.117 0.569-0.788 0.942-0.247 0.211-0.522 0.407-0.813 0.577l-0.027 0.015c0.81 2.608 1.398 5.965 2.981 8.317h0.942c1.583-2.351 2.171-5.709 2.981-8.317-0.318-0.185-0.593-0.381-0.848-0.598l0.008 0.007c-0.671-0.377-0.788-0.226-0.788-0.942v-1.149z"></path>
<path fill="#f5b67e" d="M6.353 27.218l-3.949-2.981c-1.73 0.569-2.227 5.475-2.404 7.763h4.145z"></path>
<path fill="#d8465e" d="M4.563 25.865l-2.159-1.628c-1.522 0.501-2.091 4.364-2.325 6.839h4.484z"></path>
<path fill="#e8556b" d="M8.667 25.662c-1.605-0.588-1.805-2.31-1.481-2.562-0.716 0.328-2.841 0.648-4.070 0.935h-0.878c0.177 0.675 0.399 1.967 0.652 3.587-0.252 1.639-1.21 2.819-0.516 4.379h14.96c0.693-1.56-0.268-2.74-0.516-4.379 0.145-1.245 0.374-2.363 0.689-3.444l-0.037 0.147h-0.335l-0.177-0.207h-0.301c-1.232-0.286-3.357-0.607-4.073-0.935 0.328 0.252 0.124 1.975-1.481 2.562v0l-0.682 2.261-0.58 2.046-1.172-4.39z"></path>
<path fill="#f8c997" d="M9.997 0.95h-0.023l-1.074-0.041v0.083h-0.113c-2.284 0.14-4.271 1.302-5.525 3.031l-0.015 0.021c-1.315 1.786-1.488 4.040-1.387 6.195 0.268 5.539 3.391 11.761 8.136 11.81 4.767-0.049 7.872-6.27 8.136-11.81 0.105-2.155-0.072-4.409-1.387-6.195-1.27-1.749-3.258-2.911-5.523-3.048l-0.021-0.001h-0.109v-0.087l-1.070 0.041z"></path>
<path fill="#cc5827" d="M13.705 3.094c-0.064 0.305 0 1.937 1.884 4.439s2.008 2.717 2.008 2.717-0.196 3.847-0.173 3.651 1.040-3.862 1.040-3.862c0.132-0.609 0.207-1.308 0.207-2.025s-0.075-1.417-0.219-2.091l0.012 0.066c-0.479-1.956-1.081-2.694-1.91-3.015s-2.849 0.121-2.849 0.121z"></path>
<path fill="#cc5827" d="M2.235 8.765c-0.324 0.377-1.085 1.13-1.085 1.13l0.848 3.874z"></path>
<path fill="#cc5827" d="M17.526 11.682c0.087-1.424 0.938-6.029 0.561-6.937-1.654-4.096-8.524-6.444-10.133-2.231-0.482 1.262 3.599 0 3.881 1.684 0.369 2.208 3.12 5.976 5.69 7.484z"></path>
<path fill="#cc5827" d="M14.074 3.569c1.835 1.707-3.855 5.566-11.342 7.269-3.813-3.678 1.187-13.754 9.492-10.024z"></path>
<path fill="#cc5827" d="M1.323 7.435c-0.475 3.346-1.236 13.739 3.241 14.538-1.681-2.333-1.794-7.537-1.839-11.618-0.030-2.8-0.173-4.473-0.204-6.719-0.637 0.829-1.055 2.811-1.198 3.798z"></path>
<path fill="#cc5827" d="M18.374 7.435c0.467 3.346 1.221 13.739-3.241 14.538 2.826-3.957 1.952-12.861 2.042-18.336 0.637 0.829 1.055 2.811 1.198 3.798z"></path>
<path fill="#3e3b3a" d="M7.261 13.238c0 0.348-0.282 0.629-0.629 0.629s-0.629-0.282-0.629-0.629c0-0.348 0.282-0.629 0.629-0.629s0.629 0.282 0.629 0.629z"></path>
<path fill="#3e3b3a" d="M13.995 13.238c0 0.348-0.282 0.629-0.629 0.629s-0.629-0.282-0.629-0.629c0-0.348 0.282-0.629 0.629-0.629s0.629 0.282 0.629 0.629z"></path>
<path fill="#e5b17d" d="M8.791 16.456s0 0 0-0.019c0.002-0.038 0.023-0.071 0.052-0.090l0-0c0.461-1.026 0.811-2.216 0.99-3.462l0.009-0.072c0.256 0-0.252 2.721-0.475 3.369 0.24-0.046 0.519-0.075 0.803-0.079l0.004-0c0.754 0 1.364 0.151 1.364 0.335s-0.61 0.335-1.364 0.335-1.341-0.139-1.383-0.317z"></path>
<path fill="#913e22" d="M11.486 11.719c-0.377 0.155 0.245-0.855 2.084-0.897 2.14-0.045 2.789 0.983 1.948 0.69-0.521-0.175-1.121-0.276-1.745-0.276-0.828 0-1.614 0.178-2.323 0.498l0.036-0.014z"></path>
<path fill="#913e22" d="M8.512 11.719c0.377 0.155-0.249-0.855-2.084-0.897-2.14-0.045-2.792 0.983-1.948 0.69 0.521-0.175 1.121-0.276 1.745-0.276 0.828 0 1.614 0.178 2.323 0.498l-0.036-0.014z"></path>
<path fill="#d6825b" d="M7.913 17.914c0.806 0.539 3.478 0.546 4.296 0 0.546 2.242-4.88 2.242-4.296 0z"></path>
<path fill="#fff" d="M6.96 23.024l0.595-0.185 1.112 2.822s-1.066 0.98-1.982 1.048-1.032-1.839-0.656-2.694 0.931-0.991 0.931-0.991z"></path>
<path fill="#fff" d="M12.737 23.024l-0.599-0.185-1.112 2.822s1.066 0.98 1.982 1.048 1.055-1.824 0.663-2.694-0.935-0.991-0.935-0.991z"></path>
<path fill="#cc5827" d="M9.711 5.618c0.305 0.068 3.015 0.32 3.015 0.32s-0.667 1.413-3.177 2.966-5.325 2.122-5.253 2.042 2.359-0.946 3.546-1.978c0.654-0.548 1.206-1.19 1.643-1.91l0.019-0.034z"></path>
<path fill="#cc5827" d="M13.46 3.418c-0.294-0.098-2.751-1.281-2.751-1.281s-0.158 1.56 1.202 4.183 3.467 4.563 3.444 4.454-1.534-2.024-2.016-3.52c-0.267-0.745-0.422-1.605-0.422-2.501 0-0.008 0-0.017 0-0.025v0.001z"></path>
</svg>
