<!-- Generated by IcoMoon.io -->
<svg version="1.1" xmlns="http://www.w3.org/2000/svg" width="20" height="32" viewBox="0 0 20 32">
<title>15</title>
<path fill="#9f2025" d="M6.386 27.189c-0.174-0.129-4.080-1.97-4.080-1.97-1.739 0.576-2.129 4.481-2.307 6.78h4.167z"></path>
<path fill="#9f2025" d="M13.311 27.189c0.174-0.129 4.080-1.97 4.080-1.97 1.739 0.576 2.129 4.481 2.307 6.78h-4.167z"></path>
<path fill="#f5b67e" d="M9.848 20.939h-1.833v1.159c0 0.72-0.117 0.568-0.792 0.943-0.249 0.212-0.525 0.409-0.818 0.58l-0.027 0.015c0.814 2.625 1.405 5.996 2.996 8.364h0.947c1.591-2.367 2.182-5.739 2.996-8.364-0.32-0.186-0.596-0.383-0.853-0.601l0.008 0.007c-0.674-0.379-0.792-0.224-0.792-0.943v-1.159z"></path>
<path fill="#841b21" d="M8.712 25.629c-1.614-0.595-1.814-2.322-1.489-2.576-0.977 0.443-4.545 1.841-4.924 2.186 0.307 0.708 0.799 3.625 1.224 6.761h12.652c0.424-3.136 0.917-6.061 1.239-6.761-0.379-0.345-3.962-1.742-4.924-2.186 0.326 0.254 0.125 1.981-1.489 2.576v0l-1.136 1.894-1.136-1.894z"></path>
<path fill="#f6c085" d="M14.773 12.564c-0.029 0.137-0.046 0.296-0.046 0.457 0 1.175 0.877 2.145 2.011 2.291l0.012 0.001c1.352 0.246 2.651-0.496 2.924-1.86 0.031-0.146 0.048-0.314 0.048-0.485 0-1.207-0.863-2.212-2.006-2.433l-0.016-0.002c-0.13-0.023-0.279-0.037-0.431-0.037-1.236 0-2.266 0.882-2.494 2.051l-0.003 0.016z"></path>
<path fill="#f6c085" d="M5.303 12.564c0.029 0.138 0.046 0.296 0.046 0.458 0 1.172-0.873 2.14-2.004 2.29l-0.012 0.001c-1.352 0.246-2.651-0.496-2.924-1.86-0.031-0.146-0.048-0.314-0.048-0.485 0-1.207 0.863-2.212 2.006-2.433l0.016-0.002c0.127-0.023 0.274-0.036 0.424-0.036 1.235 0 2.265 0.881 2.494 2.050l0.003 0.016z"></path>
<path fill="#f8c997" d="M16.788 3.894c-1.277-1.758-3.275-2.923-5.552-3.060l-0.020-0.001h-0.114v-0.076l-1.080 0.042-1.076-0.042v0.087h-0.114c-2.293 0.135-4.29 1.297-5.554 3.028l-0.015 0.021c-1.322 1.788-1.496 4.061-1.394 6.231 0.269 5.568 0.758 11.807 8.178 11.867s7.864-6.337 8.133-11.867c0.102-2.17-0.072-4.443-1.394-6.231z"></path>
<path fill="#d6825b" d="M12.205 17.326c-0.379 2.178-3.898 2.178-4.284 0 0.644 0.115 1.385 0.181 2.142 0.181s1.498-0.066 2.219-0.192l-0.077 0.011z"></path>
<path fill="#59341a" d="M2.273 11.811c0.106-2.053 0.133-5.75 1.932-5.75 1.33 0 1.689 0.307 5.735 0.307 3.58 0 4.617-0.405 5.958-0.405 1.436 0 1.792 1.932 1.818 4.614 0 0.553 0.045 1.106 0.076 1.659 0.019 0.322 0.042 0.648 0.057 0.97 0 0.133 0.042 0.485 0.212 0.451s0.212-0.758 0.231-0.902c0.112-0.901 0.175-1.943 0.175-3.001 0-0.085-0-0.17-0.001-0.255l0 0.013c0-1.989 0.572-5.818-2.996-8.205-2.212-1.485-6.731-1.633-9.258-0.799-1.864 0.641-3.327 2.029-4.056 3.796l-0.016 0.045c-0.689 1.928-0.67 3.436-0.443 7.254 0.023 0.417 0.072 0.83 0.129 1.242 0.037 0.318 0.086 0.596 0.15 0.868l-0.010-0.050c0.144 0.587 0.341 0.17 0.337-0.193-0.011-0.557-0.030-1.106-0.030-1.659z"></path>
<path fill="#402412" d="M6.629 17.424c-0.279 0.057-0.603 0.092-0.934 0.098l-0.005 0c-0.029 0.001-0.062 0.001-0.096 0.001-1.019 0-1.932-0.451-2.552-1.164l-0.004-0.004c-0.216-0.293-0.366-0.648-0.423-1.033l-0.002-0.013c-0.038-0.284-0.189-0.989-0.212-1.231-0.129-1.394-0.436-0.39-0.451 0.693 0.015 0.285 0.061 0.553 0.135 0.809l-0.006-0.025c-0.075 0.62-0.123 1.348-0.132 2.085l-0 0.013c0.326 4.076 5.564 5.148 8.144 5.527 1.273-0.186 4.742-1.026 5.557-1.591 2.083-1.439 2.754-3.064 2.451-6.038 0.068-0.23 0.114-0.497 0.128-0.772l0-0.009c0-1.080-0.307-2.083-0.447-0.689-0.023 0.242-0.178 0.947-0.212 1.231-0.053 0.396-0.199 0.751-0.414 1.053l0.005-0.007c-0.624 0.717-1.538 1.168-2.557 1.168-0.033 0-0.066-0-0.1-0.001l0.005 0c-0.341-0.006-0.67-0.043-0.989-0.108l0.035 0.006c0.137 0.225 0.218 0.497 0.22 0.788v0c0 1.034-1.091 1.894-2.591 2.201-0.114-0.039-0.213-0.089-0.304-0.151l0.005 0.003c-0.299-0.207-0.551-0.458-0.751-0.748l-0.006-0.010c-0.205 0.301-0.457 0.553-0.748 0.751l-0.010 0.006c-0.094 0.064-0.202 0.118-0.317 0.156l-0.009 0.003c-1.515-0.28-2.652-1.167-2.652-2.212 0.007-0.293 0.095-0.564 0.242-0.794l-0.004 0.006z"></path>
<path fill="#5d331a" d="M10.091 15.708c-0.841-0.682-2.86 1.027-3.292 1.208-0.202 0.090-0.438 0.142-0.685 0.142-0.562 0-1.060-0.268-1.376-0.683l-0.003-0.004c0.148 0.567 0.418 1.059 0.78 1.466l-0.003-0.004c1.095 1.231 3.409 0.905 4.58-0.151 1.174 1.057 3.485 1.383 4.58 0.151 0.357-0.404 0.626-0.895 0.771-1.437l0.006-0.025c-0.319 0.42-0.819 0.688-1.381 0.688-0.248 0-0.485-0.052-0.698-0.146l0.011 0.004c-0.428-0.182-2.451-1.89-3.288-1.208z"></path>
<path fill="#3e3b3a" d="M5.818 14.371c0.348-0.002 0.629-0.285 0.629-0.633 0-0.349-0.283-0.633-0.633-0.633s-0.633 0.283-0.633 0.633v0c0 0 0 0 0 0 0 0.349 0.283 0.633 0.633 0.633 0.001 0 0.003 0 0.004 0h-0z"></path>
<path fill="#3e3b3a" d="M14.239 14.371c0.348-0.002 0.629-0.285 0.629-0.633 0-0.349-0.283-0.633-0.633-0.633s-0.633 0.283-0.633 0.633v0c0 0 0 0 0 0 0 0.349 0.283 0.633 0.633 0.633 0.001 0 0.003 0 0.004 0h-0z"></path>
<path fill="#59341a" d="M3.788 11.803c-0.208-0.345 0.886-0.53 2-0.538 1.867 0 2.883 0.883 1.981 0.856-0.659 0-3.905-0.216-3.981-0.318z"></path>
<path fill="#59341a" d="M16.254 11.742c0.208-0.348-0.89-0.519-2.004-0.511-1.867 0.019-2.886 0.928-1.973 0.89 0.67-0.027 3.917-0.265 3.977-0.379z"></path>
<path fill="#e5b17d" d="M9.208 15.303s0 0 0 0c0.003-0.032 0.020-0.059 0.045-0.076l0-0c0.384-0.857 0.676-1.852 0.826-2.893l0.007-0.061c0.212 0-0.212 2.273-0.379 2.803 0.187-0.034 0.401-0.053 0.621-0.053 0.011 0 0.022 0 0.032 0h-0.002c0.625 0 1.136 0.129 1.136 0.28s-0.508 0.28-1.136 0.28-1.117-0.136-1.152-0.28z"></path>
</svg>
