<!-- Generated by IcoMoon.io -->
<svg version="1.1" xmlns="http://www.w3.org/2000/svg" width="20" height="32" viewBox="0 0 20 32">
<title>16</title>
<path fill="#61381b" d="M3.246 4.063c-0.574 1.062-1.188 2.385-1.73 3.744l-0.096 0.274c-0.275 0.712-0.377 5.546 2.417 9.435s8.965 3.456 9.059 3.675c0.282 0.55 0.569 0 1.13 0.591 1.65-1.66 2.842-3.777 3.373-6.143l0.016-0.084c0.817-3.886-0.256-6.649-0.256-6.649z"></path>
<path fill="#ef9095" d="M12.945 20.987c-0.278 0.236-0.453 0.586-0.453 0.977 0 0.054 0.003 0.107 0.010 0.158l-0.001-0.006c0.132 0.377 1.736 0.817 1.943 0.625 1.37-1.242-0.843-1.992-1.499-1.755z"></path>
<path fill="#f5b67e" d="M13.329 27.218l3.946-2.978c1.728 0.569 2.229 5.471 2.402 7.764h-4.142z"></path>
<path fill="#f5b67e" d="M9.789 21.006h-1.822v1.152c0 1.363-3.626 1.487-4.853 1.883 0.444 2.398-0.328 3.445 6.333 7.474h0.941c3.23-1.175 5.682-2.613 6.299-7.447-1.25-0.403-5.075-0.523-5.075-1.909v-1.152z"></path>
<path fill="#f5b67e" d="M5.090 28.028c-0.173-0.132-2.688-3.788-2.688-3.788-1.728 0.569-2.225 5.471-2.402 7.764h4.142z"></path>
<path fill="#7c5e64" d="M3.114 24.037v0h-0.855l-0.023 0.019c0.177 0.377 0.407 1.683 0.651 3.291-0.252 1.916-1.209 3.095-0.516 4.657h14.948c0.693-1.559-0.267-2.737-0.516-4.379 0.145-1.242 0.374-2.358 0.688-3.437l-0.037 0.146v-0.019h-0.798c-0.87 2.945-3.551 5.057-6.725 5.057s-5.854-2.112-6.712-5.008l-0.013-0.050z"></path>
<path fill="#f6c085" d="M4.432 12.022c0.301 1.359-0.297 2.489-1.325 2.733s-2.093-0.493-2.395-1.852 0.286-2.654 1.314-2.899 2.116 0.659 2.406 2.018z"></path>
<path fill="#f6c085" d="M15.546 12.022c-0.301 1.359 0.301 2.489 1.329 2.733s2.093-0.493 2.395-1.852-0.286-2.654-1.314-2.899-2.105 0.659-2.41 2.018z"></path>
<path fill="#f8c997" d="M9.989 0.971h-0.023l-1.073-0.041v0.087h-0.113c-2.282 0.138-4.267 1.298-5.52 3.025l-0.015 0.021c-1.314 1.788-1.487 4.036-1.386 6.19 0.267 5.539 3.389 11.755 8.129 11.8 4.763-0.045 7.865-6.261 8.129-11.8 0.105-2.154-0.072-4.401-1.386-6.19-1.269-1.747-3.256-2.906-5.518-3.041l-0.020-0.001h-0.109v-0.090l-1.069 0.041z"></path>
<path fill="#61381b" d="M13.374 3.118c-0.064 0.305 0 1.932 1.883 4.432s2.022 2.715 2.022 2.715 0.087 4.217 0.324 3.716 0.584-4.142 0.584-4.142c0.11-0.536 0.173-1.151 0.173-1.782 0-0.72-0.082-1.422-0.238-2.095l0.012 0.063c-0.478-1.954-1.081-2.692-1.909-3.012s-2.85 0.105-2.85 0.105z"></path>
<path fill="#61381b" d="M2.922 8.396c-0.324 0.377-1.382 0.41-1.382 0.41 0.045 0.339 0.501 5.501 0.93 5.124z"></path>
<path fill="#61381b" d="M17.263 10.264c0.087-1.427 0.817-4.688 0.459-5.576-1.035-2.564-2.933-3.603-6.115-3.935-0.269-0.026-0.581-0.041-0.896-0.041s-0.628 0.015-0.935 0.044l0.039-0.003c1.826 3.012 3.362 7.022 7.447 9.511z"></path>
<path fill="#61381b" d="M14.195 3.893c-0.64 4.014-9.138 2.726-11.936 7.568-3.11-4.706 1.657-14.349 9.955-10.625z"></path>
<path fill="#3e3b3a" d="M6.627 13.724c0.347 0 0.629-0.281 0.629-0.629s-0.282-0.629-0.629-0.629c-0.347 0-0.629 0.281-0.629 0.629v0c0 0.347 0.282 0.629 0.629 0.629v0z"></path>
<path fill="#3e3b3a" d="M13.732 13.724c0.347 0 0.629-0.281 0.629-0.629s-0.281-0.629-0.629-0.629c-0.347 0-0.629 0.281-0.629 0.629v0c0 0.347 0.281 0.629 0.629 0.629v0z"></path>
<path fill="#e5b17d" d="M8.972 16.307s0 0 0-0.019c0.005-0.042 0.029-0.078 0.063-0.098l0.001-0c0.465-1.031 0.816-2.227 0.993-3.479l0.008-0.071c0.256 0-0.252 2.722-0.474 3.366 0.228-0.038 0.492-0.060 0.76-0.060 0.010 0 0.019 0 0.029 0h-0.001c0.753 0 1.363 0.151 1.363 0.335s-0.61 0.339-1.363 0.339-1.337-0.136-1.378-0.313z"></path>
<path fill="#402412" d="M11.672 11.578c-0.377 0.154 0.245-0.858 2.082-0.896 2.139-0.049 2.786 0.979 1.947 0.685-0.519-0.174-1.117-0.274-1.739-0.274-0.829 0-1.616 0.179-2.326 0.499l0.036-0.014z"></path>
<path fill="#402412" d="M8.694 11.578c0.377 0.154-0.248-0.858-2.082-0.896-2.139-0.049-2.79 0.979-1.947 0.685 0.519-0.174 1.117-0.274 1.739-0.274 0.829 0 1.616 0.179 2.326 0.499l-0.036-0.014z"></path>
<path fill="#d6825b" d="M12.357 18.11c-0.414 1.329-4.176 1.329-4.59 0 0.642 0.446 1.437 0.712 2.295 0.712s1.653-0.266 2.308-0.721l-0.013 0.009z"></path>
<path fill="#61381b" d="M11.039 24.79c-0.975 2.47-0.241 3.246-0.241 3.246l0.113-1.389c0.169 0.797 0.303 1.759 0.372 2.738l0.004 0.071c-0.020 0.914-0.156 1.787-0.394 2.618l0.018-0.072s1.743-0.949 2.598-2.432 0.565-4.292 0.565-4.292c0.118 0.336 0.237 0.613 0.373 0.881l-0.019-0.041c0.078-0.553 0.123-1.191 0.123-1.84 0-0.187-0.004-0.373-0.011-0.559l0.001 0.027c-0.038-0.482 0.056-1.073-0.256-1.506-1.453-2.086-2.899 1.683-3.246 2.553z"></path>
</svg>
