<!-- Generated by IcoMoon.io -->
<svg version="1.1" xmlns="http://www.w3.org/2000/svg" width="19" height="32" viewBox="0 0 19 32">
<title>2</title>
<path fill="#d33f27" d="M6.316 27.246c-0.172-0.131-4.035-1.948-4.035-1.948-1.72 0.551-2.105 4.428-2.281 6.702h4.121z"></path>
<path fill="#d33f27" d="M13.164 27.246c0.172-0.131 4.035-1.948 4.035-1.948 1.72 0.551 2.105 4.428 2.281 6.702h-4.121z"></path>
<path fill="#f5b67e" d="M9.74 21.065h-1.813v1.143c0 0.712-0.116 0.566-0.783 0.933 0 0-2.652 2.214-2.847 2.274 0.809 2.596 2.731 3.057 4.319 5.398l1.094 0.345 1.161-0.172c1.577-2.341 3.952-2.345 4.758-4.938-0.195-0.064-3.278-2.907-3.278-2.907-0.667-0.375-0.783-0.221-0.783-0.933v-1.143z"></path>
<path fill="#e43f25" d="M7.144 23.151c-0.967 0.438-4.495 1.821-4.87 2.162 0.318 0.701 0.805 3.585 1.225 6.687h12.497c0.42-3.102 0.907-5.994 1.225-6.687-0.375-0.341-3.919-1.723-4.87-2.162 0.562 2.664 0 5.166-2.536 5.177s-3.162-2.855-2.671-5.177z"></path>
<path fill="#f6c085" d="M14.61 12.782c-0.028 0.135-0.044 0.29-0.044 0.449 0 1.162 0.867 2.121 1.989 2.266l0.011 0.001c1.337 0.243 2.622-0.487 2.892-1.839 0.031-0.145 0.048-0.312 0.048-0.482 0-1.192-0.855-2.185-1.985-2.4l-0.015-0.002c-0.13-0.024-0.28-0.038-0.432-0.038-1.221 0-2.238 0.873-2.461 2.030l-0.003 0.016z"></path>
<path fill="#f6c085" d="M5.245 12.782c0.028 0.135 0.045 0.29 0.045 0.45 0 1.159-0.863 2.116-1.981 2.265l-0.012 0.001c-1.337 0.243-2.622-0.487-2.892-1.839-0.031-0.145-0.048-0.312-0.048-0.482 0-1.192 0.855-2.185 1.985-2.4l0.015-0.002c0.128-0.023 0.275-0.036 0.425-0.036 1.221 0 2.238 0.873 2.461 2.029l0.003 0.016z"></path>
<path fill="#f8c997" d="M16.603 4.203c-1.262-1.738-3.239-2.891-5.49-3.026l-0.020-0.001h-0.112v-0.090l-1.064 0.037-1.068-0.037v0.086h-0.112c-2.271 0.138-4.246 1.292-5.492 3.010l-0.015 0.021c-1.307 1.791-1.48 4.016-1.379 6.163 0.266 5.507 0.772 11.677 8.088 11.737s7.777-6.267 8.043-11.737c0.101-2.147-0.071-4.372-1.379-6.162z"></path>
<path fill="#ed7f22" d="M2.248 12.033c0.097-2.030 0.124-5.702 1.903-5.702 1.315 0 3.619 0.813 5.743 0.922 1.997-0.127 4.495-1.023 5.822-1.023 1.42 0 1.772 1.911 1.798 4.563 0 0.547 0.045 1.094 0.075 1.641 0.019 0.318 0.041 0.641 0.056 0.959 0 0.131 0.041 0.479 0.21 0.446s0.21-0.749 0.229-0.892c0.115-0.909 0.18-1.96 0.18-3.027 0-0.063-0-0.127-0.001-0.19l0 0.010c0-1.454-0.037-3.712-1.304-5.844-0.446-0.749-0.749-1.656-1.66-2.27-2.188-1.45-6.657-1.592-9.156-0.772-1.842 0.637-3.288 2.008-4.011 3.755l-0.016 0.044c-0.682 1.907-0.663 3.398-0.438 7.178 0.022 0.408 0.071 0.82 0.127 1.225 0.037 0.314 0.086 0.588 0.149 0.856l-0.010-0.051c0.142 0.577 0.337 0.165 0.333-0.195-0.011-0.554-0.030-1.086-0.030-1.633z"></path>
<path fill="#ed7f22" d="M1.656 11.029c-0.24-2.562-0.749-9.246 1.184-10.235 0.817-0.42 5.087-0.835 7.103-0.794v0c2.015-0.045 6.286 0.375 7.118 0.79 1.922 0.989 1.424 7.672 1.184 10.235 0 0-0.993-4.065-2.094-5.705s-5.526-0.824-6.196-0.517h-0.022c-0.671-0.307-5.061-1.124-6.185 0.521s-2.090 5.705-2.090 5.705z"></path>
<path fill="#3e3b3a" d="M5.822 13.423c0.344-0.002 0.622-0.281 0.622-0.626 0-0.346-0.28-0.626-0.626-0.626s-0.626 0.28-0.626 0.626v0c0 0 0 0 0 0 0 0.346 0.28 0.626 0.626 0.626 0.001 0 0.003 0 0.004 0h-0z"></path>
<path fill="#3e3b3a" d="M14.015 13.423c0.348 0 0.629-0.282 0.629-0.629s-0.282-0.629-0.629-0.629c-0.348 0-0.629 0.282-0.629 0.629 0 0.001 0 0.003 0 0.004v-0c0 0 0 0 0 0 0 0.346 0.28 0.626 0.626 0.626 0.001 0 0.003 0 0.004 0h-0z"></path>
<path fill="#d6825b" d="M7.118 17.165c0.813 0.63 1.846 1.010 2.969 1.010s2.156-0.38 2.98-1.018l-0.011 0.008c0.775 3.349-6.736 3.349-5.938 0z"></path>
<path fill="#e5b17d" d="M8.556 16.524s0 0 0 0c0.003-0.039 0.023-0.072 0.052-0.093l0-0c0.46-1.024 0.809-2.213 0.988-3.457l0.009-0.072c0.255 0-0.255 2.705-0.472 3.349 0.224-0.041 0.481-0.064 0.744-0.064 0.012 0 0.025 0 0.037 0h-0.002c0.749 0 1.356 0.15 1.356 0.337s-0.607 0.333-1.356 0.333-1.319-0.157-1.356-0.333z"></path>
<path fill="#ed7f22" d="M3.911 10.864c-0.202-0.348 0.884-0.513 1.985-0.502 1.847 0 2.836 0.914 1.948 0.877-0.663-0.041-3.874-0.285-3.933-0.375z"></path>
<path fill="#ed7f22" d="M16.086 10.83c0.21-0.345-0.873-0.528-1.974-0.543-1.847-0.022-2.855 0.862-1.963 0.839 0.663-0.015 3.877-0.195 3.937-0.296z"></path>
</svg>
