<!-- Generated by IcoMoon.io -->
<svg version="1.1" xmlns="http://www.w3.org/2000/svg" width="20" height="32" viewBox="0 0 20 32">
<title>3</title>
<path fill="#913e22" d="M1.998 11.077c0.441 4.388-0.023 12.857 3.371 15.15 5.186 3.49 3.778 3.744 8.642 0.161s4.219-9.428 4.196-15.845z"></path>
<path fill="#913e22" d="M14.284 2.152c10.195-2.018 3.644 21.057 2.528 25.898-0.483 2.102-1.189 1.565-3.030-1.484 0 0 3.536-8.676 3.778-13.597s-1.488-6.612-2.547-8.473-0.729-2.344-0.729-2.344z"></path>
<path fill="#913e22" d="M15.342 2.397c0.318 2.788-0.426 3.126-2.685 4.603s-3.218 1.488-2.854 1.308 2.094-3.191 2.094-3.191c-1.357 1.086-2.898 2.036-4.551 2.783l-0.136 0.055c-2.37 0.94-3.218 0.575-3.218 0.575s2.094-2.731 1.822-2.52-2.278 1.534-2.551 2.125-0.859 3.341-0.525 6.344c0.226 2.014 4.277 8.315 4.346 11.277 0.038 1.492-2.163 3.69-2.808 2.946-2.627-3.030-3.068-21.222-2.957-22.085 0.327-2.028 1.408-3.757 2.942-4.923l0.019-0.014c3.007-2.378 10.724-2.313 11.062 0.717z"></path>
<path fill="#a9bcc7" d="M13.578 27.133l4.020-3.038c1.761 0.583 2.271 5.577 2.447 7.905h-4.219z"></path>
<path fill="#98c0d4" d="M6.904 24.548c0.042-0.318 0.28-2.478 0.28-2.478l5.715-0.038-0.077 1.776z"></path>
<path fill="#f5b67e" d="M9.972 20.804h-1.856v1.151c0 0.729-0.119 0.579-0.802 0.955-0.252 0.216-0.531 0.416-0.829 0.588l-0.027 0.014c0.825 2.658 1.423 6.072 3.034 8.469h0.959c1.611-2.397 2.209-5.811 3.034-8.469-0.324-0.187-0.604-0.386-0.863-0.608l0.007 0.006c-0.683-0.384-0.802-0.226-0.802-0.955v-1.151z"></path>
<path fill="#a9bcc7" d="M6.467 27.133l-4.020-3.038c-1.761 0.583-2.267 5.577-2.447 7.905h4.219z"></path>
<path fill="#b5ccd8" d="M8.822 25.549c-1.634-0.598-1.837-2.351-1.507-2.608-0.99 0.456-4.63 0.898-5.036 1.247 0.33 0.717 0.859 4.641 1.289 7.813h12.926c0.43-3.172 0.959-7.096 1.289-7.813-0.384-0.349-4.046-0.794-5.036-1.247 0.334 0.257 0.127 2.010-1.507 2.608v0l-1.304 4.369-1.112-4.369z"></path>
<path fill="#f6c085" d="M4.514 12.596c0.307 1.381-0.303 2.535-1.35 2.781s-2.133-0.499-2.439-1.883 0.292-2.708 1.339-2.953 2.156 0.671 2.451 2.056z"></path>
<path fill="#f6c085" d="M15.837 12.596c-0.307 1.381 0.307 2.535 1.354 2.781s2.133-0.499 2.439-1.883-0.291-2.708-1.339-2.953-2.144 0.671-2.455 2.056z"></path>
<path fill="#f8c997" d="M10.176 0.384h-0.023l-1.093-0.031v0.084h-0.115c-2.325 0.143-4.347 1.326-5.623 3.085l-0.015 0.022c-1.339 1.826-1.515 4.127-1.411 6.306 0.272 5.638 3.452 11.971 8.281 12.021 4.852-0.050 8.012-6.382 8.281-12.021 0.107-2.179-0.073-4.48-1.411-6.306-1.292-1.781-3.316-2.963-5.621-3.102l-0.021-0.001h-0.111v-0.088l-1.089 0.031z"></path>
<path fill="#913e22" d="M13.624 2.578c-0.065 0.311 0 1.971 1.918 4.514s2.060 2.769 2.060 2.769c0.545-0.944 0.341-1.4 0.882-0.215 0.134-0.62 0.211-1.332 0.211-2.062s-0.077-1.442-0.223-2.128l0.012 0.067c-0.487-1.994-1.101-2.742-1.945-3.068s-2.915 0.123-2.915 0.123z"></path>
<path fill="#913e22" d="M2.976 7.959c-0.33 0.384-1.599-1.381-1.365 0.767s0.69 4.653 1.316 6.309c-0.307-2.075-0.863-4.495 0.050-7.077z"></path>
<path fill="#913e22" d="M18.073 10.061c0.088-1.454 0.345-4.986 0-5.88-1.074-2.616-3.007-3.674-6.248-3.997-0.997-0.1 0.514 1.58 0.514 1.58 2.685 3.797 1.358 6.708 5.734 8.296z"></path>
<path fill="#913e22" d="M14.46 3.368c-7.476 1.093-6.463 7.514-12.404 6.574-0.345-0.054-0.748-1.853-0.748-1.853s0.644-2.984 1.807-4.695 2.462-2.156 3.763-2.685 4.771-0.932 5.37-0.176z"></path>
<path fill="#abc3cf" d="M8.519 24.548l0.94 0.353-0.211 2.328-1.235-1.481 0.506-1.201z"></path>
<path fill="#c9e1ed" d="M6.313 22.952l0.863-0.886 2.282 2.834-2.182 1.918-0.963-3.866z"></path>
<path fill="#abc3cf" d="M11.549 24.509l-0.94 0.353 0.15 2.263 1.296-1.415-0.506-1.201z"></path>
<path fill="#c9e1ed" d="M13.754 22.914l-0.863-0.882-2.282 2.831 2.182 1.918 0.963-3.866z"></path>
<path fill="#b5ccd8" d="M3.172 23.892c-0.334 0.053-0.635 0.156-0.909 0.303l0.015-0.007c2.010 3.813-0.955 5.347 0.138 7.813h15.227c1.082-2.466-1.887-4 0.123-7.813-0.257-0.139-0.557-0.242-0.874-0.293l-0.016-0.002c-0.579 2.957-3.836 6.689-6.981 6.689s-6.152-3.732-6.724-6.689z"></path>
<path fill="#3e3b3a" d="M6.751 13.658c0.356 0 0.644-0.289 0.644-0.644s-0.288-0.644-0.644-0.644c-0.356 0-0.644 0.289-0.644 0.644v0c0 0.356 0.288 0.644 0.644 0.644v0z"></path>
<path fill="#3e3b3a" d="M13.988 13.658c0.356 0 0.644-0.289 0.644-0.644s-0.288-0.644-0.644-0.644c-0.356 0-0.644 0.289-0.644 0.644v0c0 0.356 0.288 0.644 0.644 0.644v0z"></path>
<path fill="#d6825b" d="M12.657 17.41c-0.384 2.205-3.947 2.205-4.338 0 1.178 1.573 3.16 1.573 4.338 0z"></path>
<path fill="#e5b17d" d="M9.040 16.267s0 0 0 0c0.004-0.038 0.024-0.071 0.053-0.092l0-0c0.47-1.049 0.827-2.268 1.011-3.542l0.009-0.075c0.257 0-0.261 2.773-0.483 3.429 0.232-0.039 0.5-0.061 0.773-0.061 0.009 0 0.018 0 0.026 0h-0.001c0.767 0 1.388 0.153 1.388 0.341s-0.621 0.345-1.388 0.345-1.35-0.165-1.388-0.345z"></path>
<path fill="#913e22" d="M12.074 11.372c-0.384 0.157 0.249-0.874 2.121-0.913 2.179-0.050 2.838 0.997 1.983 0.698-0.529-0.177-1.138-0.279-1.771-0.279-0.845 0-1.647 0.182-2.369 0.509l0.036-0.015z"></path>
<path fill="#913e22" d="M8.665 11.372c0.384 0.157-0.253-0.874-2.121-0.913-2.179-0.050-2.842 0.997-1.983 0.698 0.529-0.177 1.138-0.279 1.771-0.279 0.845 0 1.647 0.182 2.369 0.509l-0.036-0.015z"></path>
<path fill="#913e22" d="M17.341 8.055c0.33 0.384 1.599-1.377 1.365 0.767s-0.679 4.645-1.316 6.302c0.307-2.083 0.867-4.495-0.050-7.069z"></path>
</svg>
