<!-- Generated by IcoMoon.io -->
<svg version="1.1" xmlns="http://www.w3.org/2000/svg" width="20" height="32" viewBox="0 0 20 32">
<title>4</title>
<path fill="#1b8ec1" d="M7.435 23.532l-0.054-1.756h5.541l-0.054 1.699-5.433 0.057z"></path>
<path fill="#0095d3" d="M6.451 27.14c-0.176-0.13-4.121-1.99-4.121-1.99-1.756 0.582-2.15 4.527-2.33 6.849h4.209z"></path>
<path fill="#0095d3" d="M13.446 27.14c0.176-0.13 4.121-1.99 4.121-1.99 1.756 0.582 2.15 4.527 2.33 6.849h-4.209z"></path>
<path fill="#f5b67e" d="M9.949 20.827h-1.852v1.171c0 0.727-0.119 0.574-0.8 0.953-0.251 0.214-0.53 0.413-0.826 0.586l-0.027 0.015c0.827 2.652 1.485 5.418 3.092 7.825h0.957c1.611-2.388 2.139-5.154 2.962-7.806-0.323-0.191-0.602-0.394-0.86-0.618l0.007 0.006c-0.681-0.383-0.8-0.226-0.8-0.953v-1.179z"></path>
<path fill="#008bcf" d="M10.113 27.263s-0.578-0.765-0.842-1.194c-0.804-1.309-1.948-3.111-1.974-3.111-0.987 0.448-4.592 1.86-4.974 2.208 0.325 0.716 0.823 3.662 1.251 6.83h12.765c0.429-3.168 0.926-6.122 1.251-6.83-0.383-0.348-4.002-1.76-4.974-2.208-0.503 1.212-1.028 2.233-1.625 3.206l0.056-0.099c-0.36 0.52-0.934 1.198-0.934 1.198z"></path>
<path fill="#007ab4" d="M8.219 24.558c0.1 0 0.658 0.088 0.658 0.088l0.383 1.423-1.404-0.65z"></path>
<path fill="#2aa5dd" d="M7.381 21.776l1.496 2.87s-1.531 1.531-1.531 1.446-0.689-2.74-0.635-2.881 0.67-1.435 0.67-1.435z"></path>
<path fill="#007ab4" d="M12.080 24.558c-0.1 0-0.658 0.088-0.658 0.088l-0.383 1.423 1.404-0.65z"></path>
<path fill="#2aa5dd" d="M12.922 21.776l-1.5 2.87s1.531 1.531 1.531 1.446 0.693-2.74 0.639-2.881-0.67-1.435-0.67-1.435z"></path>
<path fill="#f6c085" d="M14.724 12.306c-0.029 0.139-0.046 0.299-0.046 0.462 0 1.187 0.886 2.166 2.032 2.315l0.012 0.001c1.366 0.249 2.678-0.501 2.954-1.883 0.031-0.147 0.048-0.316 0.048-0.489 0-1.22-0.874-2.236-2.030-2.455l-0.016-0.002c-0.132-0.024-0.283-0.038-0.438-0.038-1.247 0-2.286 0.892-2.514 2.073l-0.003 0.016z"></path>
<path fill="#f6c085" d="M5.185 12.306c0.029 0.138 0.045 0.296 0.045 0.459 0 1.187-0.885 2.168-2.031 2.318l-0.012 0.001c-1.366 0.249-2.678-0.501-2.954-1.883-0.031-0.147-0.048-0.316-0.048-0.49 0-1.219 0.872-2.233 2.026-2.454l0.016-0.002c0.132-0.024 0.284-0.038 0.438-0.038 1.248 0 2.288 0.892 2.517 2.073l0.003 0.016z"></path>
<path fill="#f8c997" d="M16.779 3.547c-1.29-1.775-3.309-2.953-5.608-3.091l-0.021-0.001h-0.115v-0.073l-1.087 0.023-1.091-0.023v0.088h-0.115c-2.316 0.136-4.333 1.308-5.61 3.055l-0.015 0.021c-1.335 1.81-1.511 4.106-1.408 6.291 0.272 5.629 0.765 11.931 8.261 11.992s7.944-6.405 8.215-11.992c0.103-2.185-0.073-4.481-1.408-6.291z"></path>
<path fill="#bf9141" d="M2.529 11.651c0.096-2.074 0.122-5.824 1.94-5.824 0.046 0 5.514-2.269 11.812-2.269 1.45 0 1.81 4.117 1.84 6.826 0 2.334-0.417 3.413-0.249 3.486s1.006-1.27 1.003-4.561c0-1.485-0.038-3.792-1.332-5.969-0.455-0.765-0.765-1.691-1.695-2.319-2.215-1.481-6.953-1.148-9.505-0.302-7.056 2.342-4.546 13.121-4.316 13.098s0.486-1.879 0.501-2.166z"></path>
<path fill="#bf9141" d="M10.829 2.353c0.884-0.057 5.204 1.113 5.204 1.113-3.226 3.21-8.468 5.357-13.010 4.515 0 0 2.074-1.324 1.913-1.194-0.757 0.278-1.631 0.44-2.543 0.444h-0.002c-0.608-0.077-0.578-0.298-0.578-0.298 3.543-3.26 3.444-3.229 9.015-4.58z"></path>
<path fill="#3e3b3a" d="M8.973 10.829c-0.156-0.197-0.357-0.351-0.587-0.448l-0.010-0.004c-1.488-0.54-5.644-0.314-6.75-0.046-0.142 0.034-0.157 0.031-0.172 0.126-0.008 0.083-0.012 0.179-0.012 0.276 0 0.173 0.014 0.342 0.042 0.507l-0.002-0.018c0.046 0.088 0.264 0.122 0.455 0.406 0.348 0.509 0.321 2.361 1.148 3.233s4.094 0.941 4.974-0.264c0.481-0.731 0.881-1.574 1.156-2.471l0.018-0.070c0.125-0.135 0.3-0.222 0.496-0.23l0.001-0c0.066-0.010 0.141-0.015 0.218-0.015s0.153 0.006 0.227 0.016l-0.008-0.001c0.197 0.008 0.373 0.095 0.497 0.229l0 0c0.301 0.965 0.708 1.805 1.22 2.568l-0.022-0.035c0.876 1.205 4.117 1.175 4.974 0.264s0.8-2.724 1.148-3.233c0.191-0.283 0.409-0.318 0.455-0.406 0.025-0.147 0.039-0.316 0.039-0.489 0-0.097-0.005-0.194-0.013-0.289l0.001 0.012c0-0.096-0.031-0.092-0.172-0.126-1.106-0.275-5.25-0.501-6.75 0.038-0.24 0.101-0.441 0.255-0.595 0.448l-0.002 0.003c-0.196 0.048-0.421 0.076-0.652 0.076-0.114 0-0.227-0.007-0.337-0.020l0.013 0.001c-0.097 0.012-0.21 0.019-0.324 0.019-0.231 0-0.456-0.028-0.671-0.080l0.019 0.004zM16.763 10.633v0c0.256 0.042 0.462 0.221 0.542 0.458l0.001 0.005c0.059 0.275 0.093 0.592 0.093 0.916s-0.034 0.641-0.099 0.946l0.005-0.030c-0.089 0.586-0.293 1.112-0.587 1.573l0.010-0.016c-0.895 1.113-3.857 0.983-4.592 0.023-0.566-0.739-1.531-2.935-0.352-3.559 1.018-0.536 3.941-0.647 4.974-0.298zM3.134 10.633v0c1.037-0.348 3.96-0.237 4.974 0.298 1.186 0.624 0.218 2.82-0.352 3.559-0.739 0.96-3.7 1.091-4.592-0.023-0.282-0.446-0.485-0.971-0.575-1.534l-0.003-0.024c-0.059-0.275-0.093-0.592-0.093-0.916s0.034-0.641 0.099-0.946l-0.005 0.030c0.087-0.235 0.293-0.407 0.543-0.443l0.004-0z"></path>
<path fill="#3e3b3a" d="M5.766 13.434c0.355 0 0.643-0.288 0.643-0.643s-0.288-0.643-0.643-0.643c-0.355 0-0.643 0.288-0.643 0.643v0c0 0.355 0.288 0.643 0.643 0.643v0z"></path>
<path fill="#3e3b3a" d="M14.135 13.434c0.355 0 0.643-0.288 0.643-0.643s-0.288-0.643-0.643-0.643c-0.355 0-0.643 0.288-0.643 0.643v0c0 0.355 0.288 0.643 0.643 0.643v0z"></path>
<path fill="#d6825b" d="M13.029 17.475c-0.679 0.783-1.675 1.276-2.787 1.276-0.041 0-0.082-0.001-0.123-0.002l0.006 0c-0.040 0.002-0.087 0.002-0.134 0.002-1.103 0-2.092-0.485-2.767-1.253l-0.004-0.004c0.789 0.613 1.783 0.998 2.864 1.040l0.010 0c1.113-0.049 2.127-0.44 2.947-1.069l-0.012 0.009z"></path>
<path fill="#e5b17d" d="M8.659 16.603s0 0 0-0.023c0.004-0.038 0.024-0.071 0.053-0.092l0-0c0.473-1.047 0.829-2.263 1.009-3.536l0.008-0.072c0.26 0-0.256 2.766-0.482 3.421 0.232-0.039 0.499-0.061 0.771-0.061 0.009 0 0.018 0 0.026 0h-0.001c0.765 0 1.385 0.153 1.385 0.341s-0.62 0.344-1.385 0.344-1.343-0.142-1.385-0.321z"></path>
<path fill="#bf9141" d="M3.501 9.52c-0.207-0.352 0.903-0.52 2.028-0.513 1.886 0 2.897 0.937 1.99 0.895-0.677-0.027-3.956-0.279-4.018-0.383z"></path>
<path fill="#bf9141" d="M16.331 9.478c0.207-0.356-0.903-0.524-2.028-0.517-1.886 0-2.897 0.937-1.99 0.899 0.696-0.031 3.956-0.295 4.018-0.383z"></path>
</svg>
