<!-- Generated by IcoMoon.io -->
<svg version="1.1" xmlns="http://www.w3.org/2000/svg" width="21" height="32" viewBox="0 0 21 32">
<title>5</title>
<path fill="#4a1e12" d="M2.6 11.077c0.046 0.43 1.024 4.265 0.694 7.038-0.279 2.162-0.627 4.020-1.068 5.843l0.075-0.366c6.137 1.281 9.972 0.552 15.925-0.384 0 0 0.384-1.814-0.338-5.266s0.924-7.391 0.924-7.391z"></path>
<path fill="#4a1e12" d="M14.333 1.665c11.787-2.018 0.625 16.328 6.854 21.049 0.89 0.671-4.047 3.632-5.888 0.583-1.151-1.918 2.62-5.408 2.861-10.329s-1.488-6.612-2.547-8.473c-0.514-0.814-0.949-1.752-1.258-2.746l-0.023-0.085z"></path>
<path fill="#4a1e12" d="M15.952 2.397c0.318 2.788-0.426 3.126-2.685 4.603s-3.218 1.488-2.854 1.308 2.094-3.191 2.094-3.191c-1.362 1.083-2.91 2.029-4.569 2.772l-0.137 0.055c-2.37 0.94-3.218 0.575-3.218 0.575s2.094-2.731 1.822-2.52-2.278 1.534-2.551 2.125-0.859 3.337-0.525 6.344 3.498 8.741 1.707 9.926c-2.409 1.592-5.485-1.354-4.986-1.481 3.751-0.947 1.745-15.434 1.868-16.297 0.328-2.029 1.411-3.758 2.946-4.923l0.019-0.014c2.988-2.378 10.724-2.313 11.069 0.717z"></path>
<path fill="#df2e26" d="M14.192 27.133l4.020-3.034c1.761 0.579 2.271 5.573 2.447 7.901h-4.219z"></path>
<path fill="#f5b67e" d="M10.575 20.804h-1.856v1.151c0 0.729-0.119 0.579-0.802 0.955-0.252 0.216-0.531 0.416-0.829 0.588l-0.027 0.014c0.825 2.658 1.423 6.072 3.034 8.469h0.959c1.615-2.397 2.209-5.811 3.034-8.469-0.324-0.187-0.604-0.386-0.863-0.608l0.007 0.006c-0.679-0.384-0.802-0.226-0.802-0.955v-1.151z"></path>
<path fill="#df2e26" d="M7.069 27.133l-4-3.034c-1.78 0.579-2.301 5.573-2.466 7.901h4.219z"></path>
<path fill="#e53825" d="M7.917 22.94c-0.99 0.456-4.403 0.84-4.81 1.201 0.33 0.717 2.382 4.154 1.062 7.859h12.91c-0.071-0.527-0.112-1.135-0.112-1.754 0-2.206 0.517-4.29 1.437-6.14l-0.036 0.080c-0.384-0.349-4.066-0.74-5.055-1.193 1.201 0.932-0.963 3.801-2.739 3.924-1.78-0.127-3.839-3.061-2.658-3.977z"></path>
<path fill="#f6c085" d="M5.117 11.649c0.311 1.385-0.303 2.535-1.35 2.785s-2.133-0.502-2.439-1.883 0.292-2.708 1.358-2.961 2.125 0.679 2.432 2.060z"></path>
<path fill="#f6c085" d="M16.443 11.649c-0.311 1.385 0.303 2.535 1.35 2.785s2.133-0.502 2.439-1.883-0.288-2.708-1.339-2.961-2.144 0.679-2.451 2.060z"></path>
<path fill="#f8c997" d="M10.778 0.384h-0.038l-1.074-0.031v0.084h-0.115c-2.325 0.141-4.348 1.325-5.623 3.085l-0.015 0.022c-1.342 1.826-1.519 4.127-1.415 6.306 0.272 5.638 3.452 11.971 8.281 12.021 4.852-0.050 8.016-6.382 8.281-12.021 0.119-2.179-0.069-4.48-1.415-6.306-1.291-1.78-3.314-2.961-5.617-3.102l-0.021-0.001h-0.115v-0.088l-1.085 0.031z"></path>
<path fill="#4a1e12" d="M6.835 0.832c0.069-0.226 3.137-0.66 3.44-0.675 1.722-0.107 3.97 0.245 5.067 0.84s2.566 2.125 2.788 2.685 0.176 0.621-2.566 2.524-6.862 2.777-5.799 2.436 1.918-2.098 1.918-2.098-0.729 0.855-4.357 2.14-4.599 0.905-4.599 0.905c-0.442-0.711-0.704-1.574-0.704-2.498 0-0.461 0.065-0.907 0.187-1.329l-0.008 0.034c0.633-2.087 1.151-2.248 2.367-3.452 0.608-0.667 1.369-1.185 2.228-1.499l0.039-0.012z"></path>
<path fill="#4a1e12" d="M14.226 2.578c-0.065 0.311 0 1.971 1.918 4.514s2.060 2.769 2.060 2.769 0.058 4.656 0.081 4.461 1.020-4.829 1.020-4.829c0.048-0.404 0.076-0.872 0.076-1.346 0-0.93-0.106-1.835-0.306-2.705l0.016 0.081c-0.487-1.994-1.101-2.742-1.945-3.068s-2.919 0.123-2.919 0.123z"></path>
<path fill="#4a1e12" d="M3.582 7.959c-0.334 0.376-1.35 1.247-1.35 1.247l1.097 5.151z"></path>
<path fill="#e53825" d="M3.928 23.892c-0.333 0.052-0.632 0.156-0.905 0.303l0.015-0.007c2.010 3.836-0.959 5.347 0.134 7.813h15.216c1.093-2.466-1.876-4 0.134-7.813-0.254-0.138-0.549-0.241-0.862-0.293l-0.017-0.002c-0.506 2.535-3.383 4.491-6.866 4.491s-6.356-1.956-6.85-4.491z"></path>
<path fill="#efefef" d="M10.575 26.918c-1.216-0.069-2.566-1.484-2.904-2.654-0.161-0.541-0.111-1.032 0.261-1.323h-0.023c-0.077 0.035-0.169 0.065-0.269 0.1-0.472 0.203-1.377 0.641-1.676 1.101-0.062 0.081-0.1 0.185-0.1 0.297 0 0.031 0.003 0.061 0.008 0.090l-0-0.003c0.142 0.767 1.304 0.767 1.304 0.767-0.016 0.11-0.025 0.238-0.025 0.368 0 0.179 0.018 0.355 0.051 0.524l-0.003-0.017c0.165 1.062 0.587 1.626 1.128 1.787 0.641 0.199 1.477-0.203 2.248-1.036z"></path>
<path fill="#efefef" d="M10.575 26.918c1.22-0.088 2.566-1.484 2.919-2.654 0.165-0.541 0.115-1.043-0.261-1.335 0.078 0.039 0.176 0.081 0.276 0.117l0.020 0.006c0.472 0.203 1.377 0.641 1.676 1.101 0.062 0.083 0.099 0.188 0.099 0.302 0 0.029-0.002 0.057-0.007 0.085l0-0.003c-0.146 0.767-1.308 0.767-1.308 0.767 0.024 0.131 0.037 0.283 0.037 0.437s-0.014 0.306-0.039 0.453l0.002-0.016c-0.169 1.062-0.591 1.626-1.151 1.787-0.656 0.188-1.492-0.215-2.263-1.047z"></path>
<path fill="#3e3b3a" d="M10.356 12.128c0.112-0.037 0.242-0.059 0.376-0.059 0.021 0 0.043 0.001 0.064 0.002l-0.003-0c0.019-0.001 0.041-0.002 0.063-0.002 0.135 0 0.265 0.022 0.387 0.062l-0.009-0.002c0.164 0.064 0.285 0.207 0.318 0.38l0.001 0.003c0.061 0.23 0.119 0.46 0.184 0.687 0.134 0.496 0.318 0.929 0.551 1.33l-0.014-0.026c0.384 0.641 1.028 0.729 1.603 0.802 0.394 0.068 0.848 0.107 1.312 0.107 0.661 0 1.304-0.080 1.92-0.23l-0.055 0.011c0.172-0.045 0.322-0.106 0.462-0.185l-0.009 0.005c0.228-0.131 0.403-0.331 0.5-0.571l0.003-0.008c0.101-0.232 0.206-0.528 0.296-0.83l0.015-0.059 0.196-0.656c0.040-0.146 0.103-0.274 0.186-0.387l-0.002 0.003c0.060-0.088 0.124-0.192 0.182-0.299l0.010-0.019c0.036-0.070 0.058-0.153 0.061-0.241l0-0.001c0-0.303 0.031-0.618 0.035-0.921 0-0.813-3.717-0.671-4.15-0.652-0.199 0-0.384 0.023-0.591 0.038-0.752 0.048-1.453 0.175-2.124 0.374l0.068-0.017c-0.411 0.172-0.889 0.298-1.387 0.354l-0.024 0.002c-0.513-0.050-0.985-0.165-1.428-0.338l0.036 0.012c-0.603-0.181-1.304-0.308-2.027-0.355l-0.028-0.001c-0.196 0-0.384-0.031-0.591-0.038-0.433-0.019-4.165-0.161-4.15 0.652 0 0.303 0 0.618 0.035 0.921 0.003 0.089 0.025 0.171 0.063 0.245l-0.002-0.003c0.068 0.127 0.132 0.231 0.2 0.331l-0.008-0.013c0.081 0.109 0.144 0.237 0.182 0.375l0.002 0.008 0.196 0.656c0.104 0.362 0.21 0.658 0.331 0.945l-0.021-0.055c0.099 0.248 0.275 0.448 0.497 0.576l0.006 0.003c0.13 0.074 0.281 0.136 0.439 0.177l0.013 0.003c0.56 0.139 1.203 0.219 1.864 0.219 0.463 0 0.917-0.039 1.359-0.114l-0.048 0.007c0.575-0.073 1.212-0.161 1.603-0.802 0.217-0.375 0.401-0.808 0.528-1.265l0.009-0.039c0.065-0.226 0.123-0.456 0.184-0.687 0.033-0.177 0.154-0.319 0.315-0.382l0.003-0.001zM11.978 11.595v0c0.054-0.168 0.169-0.303 0.319-0.382l0.004-0.002c0.524-0.247 1.133-0.415 1.775-0.47l0.020-0.001c0.453-0.047 0.978-0.073 1.509-0.073s1.057 0.027 1.575 0.079l-0.065-0.005c0.348 0.024 0.667 0.127 0.946 0.289l-0.010-0.006c0.128 0.125 0.208 0.3 0.208 0.493 0 0.009-0 0.017-0 0.026l0-0.001c0 0.018 0 0.040 0 0.062 0 0.587-0.064 1.158-0.186 1.708l0.010-0.052c-0.087 0.47-0.239 0.889-0.448 1.272l0.011-0.022c-0.127 0.187-0.307 0.33-0.518 0.408l-0.007 0.002c-0.091 0.035-0.204 0.070-0.32 0.096l-0.018 0.003c-0.469 0.115-1.007 0.181-1.561 0.181-0.457 0-0.904-0.045-1.336-0.131l0.043 0.007c-0.219-0.035-0.437-0.084-0.652-0.134-0.35-0.068-0.638-0.287-0.799-0.585l-0.003-0.006c-0.248-0.474-0.428-1.025-0.507-1.608l-0.003-0.026c-0.037-0.204-0.058-0.438-0.058-0.678 0-0.022 0-0.044 0.001-0.066l-0 0.003c0-0.137 0.020-0.269 0.056-0.394l-0.002 0.010zM9.612 11.595v0c0.034 0.115 0.053 0.247 0.054 0.383v0c-0.005 0.265-0.032 0.52-0.081 0.768l0.005-0.028c-0.082 0.609-0.262 1.16-0.523 1.662l0.013-0.028c-0.16 0.309-0.447 0.533-0.79 0.605l-0.007 0.001c-0.215 0.050-0.433 0.1-0.652 0.134-0.389 0.079-0.835 0.124-1.292 0.124-0.554 0-1.092-0.066-1.608-0.191l0.047 0.009c-0.133-0.030-0.246-0.064-0.356-0.106l0.018 0.006c-0.219-0.081-0.398-0.223-0.523-0.407l-0.002-0.004c-0.198-0.364-0.349-0.786-0.43-1.232l-0.004-0.026c-0.112-0.498-0.177-1.069-0.177-1.656 0-0.022 0-0.044 0-0.065l-0 0.003c-0-0.007-0-0.016-0-0.024 0-0.193 0.079-0.368 0.207-0.493l0-0c0.269-0.16 0.588-0.265 0.928-0.291l0.007-0c0.423-0.041 0.914-0.064 1.411-0.064 0.566 0 1.125 0.030 1.676 0.089l-0.068-0.006c0.665 0.047 1.28 0.208 1.844 0.462l-0.034-0.014c0.151 0.083 0.263 0.219 0.313 0.383l0.001 0.005z"></path>
<path fill="#4a1e12" d="M4.349 10.214c-0.384 0.157 0.253-0.874 2.121-0.913 2.179-0.050 2.842 0.997 1.983 0.698-0.529-0.177-1.138-0.279-1.771-0.279-0.845 0-1.647 0.182-2.369 0.509l0.036-0.015z"></path>
<path fill="#3e3b3a" d="M6.559 12.937c0.334-0.027 0.595-0.304 0.595-0.642s-0.261-0.616-0.592-0.642l-0.002-0c-0.015-0.001-0.032-0.002-0.050-0.002-0.356 0-0.644 0.288-0.644 0.644s0.288 0.644 0.644 0.644c0.017 0 0.035-0.001 0.052-0.002l-0.002 0z"></path>
<path fill="#3e3b3a" d="M15.001 12.937c0.001 0 0.002 0 0.004 0 0.356 0 0.644-0.288 0.644-0.644s-0.288-0.644-0.644-0.644c-0.356 0-0.644 0.288-0.644 0.644 0 0.001 0 0.003 0 0.004v-0c0 0.354 0.287 0.641 0.641 0.641v0z"></path>
<path fill="#4a1e12" d="M17.586 10.214c0.384 0.157-0.253-0.874-2.121-0.913-2.179-0.050-2.842 0.997-1.983 0.698 0.529-0.176 1.138-0.278 1.77-0.278 0.845 0 1.647 0.181 2.37 0.508l-0.036-0.015z"></path>
<path fill="#d6825b" d="M12.581 17.889c0.027 0.113 0.042 0.244 0.042 0.378 0 0.002 0 0.004 0 0.006v-0c0.001 0.024 0.002 0.052 0.002 0.080 0 0.919-0.745 1.665-1.665 1.665s-1.665-0.745-1.665-1.665c0-0.028 0.001-0.056 0.002-0.084l-0 0.004c0-0.002 0-0.004 0-0.006 0-0.134 0.015-0.264 0.044-0.389l-0.002 0.012z"></path>
<path fill="#e5b17d" d="M9.589 16.274s0 0 0 0c0.004-0.038 0.024-0.071 0.053-0.092l0-0c0.473-1.050 0.83-2.269 1.012-3.544l0.008-0.073c0.261 0-0.257 2.773-0.483 3.429 0.233-0.039 0.501-0.061 0.774-0.061 0.010 0 0.019 0 0.029 0h-0.002c0.767 0 1.388 0.153 1.388 0.341s-0.621 0.345-1.388 0.345-1.365-0.165-1.392-0.345z"></path>
</svg>
