<!-- Generated by IcoMoon.io -->
<svg version="1.1" xmlns="http://www.w3.org/2000/svg" width="20" height="32" viewBox="0 0 20 32">
<title>6</title>
<path fill="#3e3b3a" d="M14.353 21.68c0 3.452-1.935 6.25-4.322 6.25s-4.322-2.798-4.322-6.25c0-3.452 1.935-6.25 4.322-6.25s4.322 2.798 4.322 6.25z"></path>
<path fill="#487d72" d="M13.329 27.218l3.946-2.978c1.728 0.569 2.229 5.471 2.402 7.764h-4.142z"></path>
<path fill="#f5b67e" d="M9.789 21.006h-1.822v1.152c0 0.602-2.752 1.386-3.325 1.566-1.709 2.978 3.264 4.706 4.849 7.060h0.941c1.585-2.353 6.024-3.953 4.601-7.060-0.569-0.181-3.423-0.964-3.423-1.566v-1.152z"></path>
<path fill="#487d72" d="M5.945 27.587c-0.177-0.132-3.543-3.347-3.543-3.347-1.728 0.569-2.225 5.471-2.402 7.764h4.142z"></path>
<path fill="#448a7c" d="M4.642 23.72c-0.553 0.109-1.096 0.215-1.529 0.313h-0.855l-0.023 0.019c0.177 0.377 0.407 1.683 0.651 3.291-0.252 1.92-1.209 3.099-0.516 4.661h14.948c0.693-1.559-0.267-2.737-0.516-4.379 0.145-1.242 0.374-2.358 0.688-3.437l-0.037 0.146v-0.019h-0.817c-0.433-0.098-0.979-0.203-1.532-0.313 0.053 0.203 0.083 0.435 0.083 0.674 0 0.005 0 0.010-0 0.015v-0.001c0 2.135-2.361 3.867-5.271 3.867s-5.271-1.732-5.271-3.867c-0.027-0.149-0.042-0.322-0.042-0.497 0-0.168 0.014-0.332 0.040-0.492l-0.002 0.017z"></path>
<path fill="#f6c085" d="M4.432 12.485c0.301 1.359-0.297 2.489-1.325 2.733s-2.093-0.493-2.395-1.852 0.286-2.636 1.314-2.899 2.116 0.659 2.406 2.018z"></path>
<path fill="#f6c085" d="M15.546 12.485c-0.301 1.359 0.301 2.489 1.329 2.733s2.093-0.493 2.395-1.852-0.286-2.636-1.314-2.899-2.105 0.659-2.41 2.018z"></path>
<path fill="#f8c997" d="M9.989 0.971h-0.023l-1.073-0.041v0.087h-0.113c-2.282 0.138-4.267 1.298-5.52 3.025l-0.015 0.021c-1.314 1.788-1.487 4.036-1.386 6.19 0.267 5.539 3.389 11.755 8.129 11.8 4.763-0.045 7.865-6.261 8.129-11.8 0.105-2.154-0.072-4.401-1.386-6.19-1.269-1.747-3.256-2.906-5.518-3.041l-0.020-0.001h-0.109v-0.090l-1.069 0.041z"></path>
<path fill="#3e3b3a" d="M13.374 3.118c-0.064 0.305 0 1.932 1.883 4.432s2.022 2.715 2.022 2.715 0 4.334 0.245 3.803 0.753-3.803 0.753-3.999c0.074-0.488 0.117-1.052 0.117-1.625 0-0.857-0.095-1.692-0.274-2.494l0.014 0.076c-0.478-1.954-1.081-2.692-1.909-3.012s-2.85 0.105-2.85 0.105z"></path>
<path fill="#3e3b3a" d="M2.922 8.396c-0.324 0.377-1.374 1.25-1.374 1.25 0.309 1.487 0.58 4.232 0.934 4.458 0.154-0.403 0.29-3.114 0.441-5.708z"></path>
<path fill="#3e3b3a" d="M17.263 10.264c0.087-1.427 0.817-4.688 0.459-5.576-1.035-2.564-2.933-3.603-6.115-3.935-0.269-0.026-0.581-0.041-0.896-0.041s-0.628 0.015-0.935 0.044l0.039-0.003c1.826 3.012 3.362 7.022 7.447 9.511z"></path>
<path fill="#3e3b3a" d="M14.195 3.893c-0.64 4.014-9.138 2.726-11.936 7.568-3.11-4.706 1.657-14.349 9.955-10.625z"></path>
<path fill="#3e3b3a" d="M5.874 13.532c0.001 0 0.002 0 0.004 0 0.349 0 0.633-0.283 0.633-0.633s-0.283-0.633-0.633-0.633c-0.349 0-0.633 0.283-0.633 0.633 0 0.001 0 0.003 0 0.004v-0c0 0.347 0.282 0.629 0.629 0.629v0z"></path>
<path fill="#3e3b3a" d="M14.737 12.903c0 0.347-0.281 0.629-0.629 0.629s-0.629-0.281-0.629-0.629c0-0.347 0.281-0.629 0.629-0.629s0.629 0.281 0.629 0.629z"></path>
<path fill="#e5b17d" d="M8.69 16.092s0 0 0-0.019c0.004-0.037 0.024-0.069 0.052-0.090l0-0c0.462-1.033 0.812-2.232 0.989-3.486l0.008-0.072c0.252 0-0.256 2.722-0.474 3.366 0.228-0.038 0.491-0.060 0.759-0.060 0.009 0 0.017 0 0.026 0h-0.001c0.753 0 1.363 0.151 1.363 0.335s-0.61 0.339-1.363 0.339-1.322-0.136-1.359-0.313z"></path>
<path fill="#3e3b3a" d="M11.838 10.52c-0.377 0.154 0.245-0.855 2.078-0.896 2.139-0.045 2.79 0.983 1.947 0.689-0.52-0.175-1.119-0.275-1.741-0.275-0.827 0-1.612 0.178-2.319 0.497l0.036-0.014z"></path>
<path fill="#3e3b3a" d="M8.144 10.52c0.377 0.154-0.248-0.855-2.082-0.896-2.139-0.045-2.79 0.983-1.947 0.689 0.521-0.175 1.12-0.276 1.744-0.276 0.827 0 1.613 0.178 2.321 0.497l-0.036-0.014z"></path>
<path fill="#5a5858" d="M15.742 10.942c0.892 0.094 1.224 0.493 1.179 1.412-0.090 1.841-0.693 2.843-2.557 3.11-1.736 0.245-2.76-0.505-3.095-2.342-0.113-0.61-0.068-1.325 0.52-1.672 0.953-0.561 2.82-0.625 3.953-0.508zM4.273 10.942c1.133-0.117 3.001-0.053 3.953 0.508 0.587 0.346 0.629 1.062 0.52 1.672-0.335 1.837-1.363 2.587-3.099 2.342-1.883-0.267-2.477-1.269-2.568-3.11-0.045-0.919 0.282-1.318 1.179-1.412v0zM9.255 11.612v0c-0.104-0.009-0.193-0.070-0.24-0.157l-0.001-0.002c-0.104-0.187-0.255-0.336-0.438-0.434l-0.006-0.003c-0.836-0.474-3.279-0.55-4.232-0.55 0 0-0.858 0-1.273 0.034-0.338 0.010-0.66 0.054-0.97 0.127l0.033-0.007c-0.054 0.036-0.088 0.097-0.088 0.166 0 0.009 0.001 0.018 0.002 0.027l-0-0.001c0 0.282 0.023 0.569 0.056 0.851 0.003 0.050 0.030 0.093 0.071 0.116l0.001 0c0.175 0.095 0.297 0.268 0.32 0.472l0 0.003c0.138 0.913 0.446 1.732 0.893 2.457l-0.016-0.028c0.244 0.35 0.581 0.621 0.976 0.778l0.015 0.005c1.054 0.456 2.636 0.538 3.603-0.218 0.472-0.475 0.828-1.065 1.021-1.726l0.007-0.029c0.093-0.254 0.186-0.575 0.26-0.904l0.011-0.056c0.014-0.058 0.025-0.13 0.033-0.203l0.001-0.008c0-0.102 0.045-0.139 0.147-0.132 0.169 0.015 0.366 0.023 0.565 0.023s0.396-0.008 0.59-0.025l-0.025 0.002c0.105 0 0.139 0.030 0.151 0.132 0.007 0.080 0.018 0.152 0.032 0.223l-0.002-0.012c0.088 0.391 0.181 0.712 0.291 1.025l-0.020-0.065c0.203 0.688 0.558 1.278 1.028 1.755l-0-0.001c0.964 0.753 2.553 0.674 3.607 0.218 0.404-0.165 0.737-0.435 0.974-0.776l0.005-0.007c0.429-0.697 0.738-1.516 0.873-2.392l0.005-0.037c0.020-0.206 0.141-0.38 0.313-0.473l0.003-0.002c0.042-0.024 0.071-0.066 0.075-0.116l0-0.001c0.034-0.282 0.045-0.569 0.053-0.851 0.002-0.009 0.002-0.020 0.002-0.030 0-0.067-0.033-0.126-0.085-0.161l-0.001-0c-0.279-0.067-0.602-0.11-0.934-0.12l-0.008-0c-0.414-0.019-1.273-0.034-1.273-0.034-0.953 0-3.389 0.068-4.232 0.55-0.188 0.102-0.339 0.251-0.441 0.431l-0.003 0.005c-0.047 0.087-0.134 0.148-0.236 0.158l-0.001 0c-0.224 0.038-0.482 0.059-0.745 0.059s-0.521-0.022-0.773-0.063l0.027 0.004z"></path>
<path fill="#d6825b" d="M12.681 17.534c-0.668 0.76-1.642 1.237-2.728 1.237-0.046 0-0.091-0.001-0.136-0.003l0.007 0c-0.038 0.001-0.082 0.002-0.126 0.002-1.086 0-2.060-0.477-2.724-1.233l-0.003-0.004c0.774 0.603 1.749 0.982 2.811 1.024l0.009 0c1.095-0.041 2.094-0.42 2.904-1.033l-0.013 0.009z"></path>
</svg>
