<!-- Generated by IcoMoon.io -->
<svg version="1.1" xmlns="http://www.w3.org/2000/svg" width="20" height="32" viewBox="0 0 20 32">
<title>7</title>
<path fill="#e7a123" d="M7.366 27.29c-0.171-0.126-3.994-1.929-3.994-1.929-1.706 0.564-2.088 4.384-2.259 6.639h4.080z"></path>
<path fill="#e7a123" d="M14.146 27.29c0.171-0.126 3.994-1.929 3.994-1.929 1.702 0.564 2.084 4.384 2.259 6.639h-4.080z"></path>
<path fill="#f5b67e" d="M10.756 21.17h-1.795v1.135c0 0.705-0.119 0.556-0.775 0.924-0.243 0.208-0.514 0.4-0.8 0.568l-0.027 0.014c0.801 2.567 1.372 5.86 2.934 8.189h0.927c1.558-2.329 2.133-5.623 2.934-8.189-0.313-0.182-0.584-0.375-0.835-0.589l0.008 0.007c-0.66-0.371-0.775-0.219-0.775-0.924v-1.135z"></path>
<path fill="#f3ab1c" d="M8.185 23.236c-0.957 0.438-4.451 1.806-4.822 2.144 0.3 0.694 0.783 3.549 1.198 6.62h12.388c0.415-3.071 0.898-5.927 1.224-6.62-0.371-0.337-3.879-1.706-4.822-2.144 0.575 3.839-5.875 3.368-5.166 0z"></path>
<path fill="#f6c085" d="M15.577 12.744c-0.028 0.134-0.044 0.287-0.044 0.444 0 1.15 0.858 2.1 1.969 2.244l0.011 0.001c1.324 0.241 2.596-0.482 2.863-1.821 0.030-0.142 0.047-0.306 0.047-0.474 0-1.188-0.857-2.176-1.987-2.38l-0.015-0.002c-0.122-0.021-0.263-0.034-0.406-0.034-1.208 0-2.214 0.863-2.436 2.006l-0.003 0.016z"></path>
<path fill="#f6c085" d="M6.305 12.744c0.029 0.135 0.045 0.289 0.045 0.448 0 1.148-0.857 2.096-1.966 2.24l-0.011 0.001c-1.328 0.241-2.596-0.482-2.863-1.821-0.031-0.144-0.048-0.31-0.048-0.48 0-1.181 0.848-2.165 1.969-2.373l0.015-0.002c0.127-0.023 0.274-0.037 0.424-0.037 1.208 0 2.214 0.865 2.433 2.009l0.002 0.015z"></path>
<path fill="#f8c997" d="M17.55 4.48c-1.25-1.721-3.207-2.862-5.436-2.996l-0.020-0.001h-0.111v-0.089l-1.057 0.041-1.057-0.041v0.089h-0.111c-2.249 0.134-4.206 1.276-5.441 2.976l-0.014 0.021c-1.287 1.762-1.458 3.976-1.357 6.097 0.263 5.456 0.742 11.564 8.007 11.624s7.7-6.209 7.963-11.624c0.1-2.121-0.070-4.336-1.365-6.097z"></path>
<path fill="#d6825b" d="M12.44 16.69c0.026 0.11 0.041 0.236 0.041 0.365 0 0.002 0 0.004 0 0.006v-0c0.004 0.040 0.006 0.087 0.006 0.134 0 0.889-0.721 1.61-1.61 1.61s-1.61-0.721-1.61-1.61c0-0.047 0.002-0.094 0.006-0.14l-0 0.006c0-0.002 0-0.004 0-0.006 0-0.129 0.015-0.255 0.043-0.376l-0.002 0.011z"></path>
<path fill="#a74125" d="M3.338 12.239c0.096-2.010 0.122-5.645 1.88-5.645 0.045 0 5.348-2.196 11.453-2.196 1.406 0 1.754 3.991 1.78 6.617 0 0.541 0.041 1.083 0.074 1.624 0.019 0.315 0.041 0.63 0.056 0.949 0 0.13 0.041 0.471 0.208 0.441s0.208-0.742 0.226-0.883c0.109-0.883 0.172-1.904 0.172-2.94 0-0.082-0-0.165-0.001-0.247l0 0.013c0-1.443-0.041-3.675-1.294-5.786-0.441-0.742-0.742-1.639-1.643-2.248-2.155-1.446-6.476-0.827-8.946-0.007-1.739 0.567-3.483 1.272-4.095 2.993-0.675 1.888-0.656 3.364-0.434 7.102 0.022 0.408 0.070 0.812 0.126 1.216 0.037 0.267 0.070 0.541 0.134 0.801 0.141 0.571 0.337 0.163 0.334-0.193-0.011-0.541-0.030-1.079-0.030-1.613z"></path>
<path fill="#a74125" d="M17.187 2.63c-0.234-5.378-10.659-0.879-11.994-0.634-3.312 0.601-4.662-1.528-4.662-1.528-2.129 6.071 2.225 11.145 11.82 4.781 1.762-1.168 3.861-0.404 3.861-0.404 1.706 2.225 2.44 2.596 2.789 5.66 0 0 0.256-2.136 0.701-4.358 0.464-2.325-0.586-3.779-2.515-3.516z"></path>
<path fill="#a74125" d="M3.034 14.045c0 0.237 0.961 4.773 1.613 5.63s2.885 2.14 3.256 2.225c0.293 0.067 2.244 0.389 3.056 0.523 0.809-0.134 2.759-0.456 3.052-0.523 0.371-0.085 2.641-1.484 3.256-2.225s1.921-6.249 1.569-5.897c-1.328 2.652-1.528 6.476-6.876 6.476-0.263 0-0.79-0.412-1.001-0.586-0.215 0.174-0.742 0.586-1.005 0.586-5.348 0-5.593-3.564-6.921-6.209z"></path>
<path fill="#a74125" d="M6.216 17.205c1.484 0.831 4.414 0.208 4.703-0.371 0.289 0.567 3.216 1.191 4.703 0.371-2.34-0.467-3.535-1.535-4.703-1.176-1.168-0.36-2.363 0.708-4.703 1.176z"></path>
<path fill="#ed8322" d="M5.389 24.434c0.045 0.152 0.315 7.566 0.315 7.566h1.484l-0.538-8.111z"></path>
<path fill="#ed8322" d="M16.178 24.434c-0.044 0.152-0.315 7.566-0.315 7.566h-1.484l0.541-8.111z"></path>
<path fill="#3e3b3a" d="M6.872 13.845c0.342 0 0.619-0.277 0.619-0.619s-0.277-0.619-0.619-0.619c-0.342 0-0.619 0.277-0.619 0.619v0c0.002 0.341 0.278 0.617 0.619 0.619h0z"></path>
<path fill="#3e3b3a" d="M14.984 13.845c0.342 0 0.619-0.277 0.619-0.619s-0.277-0.619-0.619-0.619c-0.342 0-0.619 0.277-0.619 0.619v0c0.002 0.341 0.278 0.617 0.619 0.619h0z"></path>
<path fill="#ed7f22" d="M4.903 11.323c-0.2-0.345 0.875-0.508 1.966-0.501 1.828 0 2.808 0.909 1.929 0.872-0.638-0.030-3.835-0.271-3.894-0.371z"></path>
<path fill="#ed7f22" d="M16.953 11.401c0.208-0.341-0.864-0.523-1.955-0.538-1.828-0.022-2.822 0.853-1.943 0.831 0.668-0.015 3.839-0.197 3.898-0.293z"></path>
<path fill="#e5b17d" d="M9.599 15.607s0 0 0 0c0.002-0.037 0.020-0.069 0.048-0.089l0-0c0.457-1.015 0.802-2.194 0.978-3.427l0.008-0.071c0.252 0-0.248 2.678-0.464 3.316 0.223-0.038 0.48-0.059 0.742-0.059 0.010 0 0.021 0 0.031 0h-0.002c0.742 0 1.343 0.148 1.343 0.33s-0.601 0.334-1.343 0.334-1.298-0.159-1.343-0.334z"></path>
</svg>
