<!-- Generated by IcoMoon.io -->
<svg version="1.1" xmlns="http://www.w3.org/2000/svg" width="19" height="32" viewBox="0 0 19 32">
<title>8</title>
<path fill="#bc6b4e" d="M9.661 5.184c1.783 0 3.269-1.162 3.269-2.592s-1.469-2.592-3.269-2.592-3.269 1.166-3.269 2.592 1.469 2.592 3.269 2.592z"></path>
<path fill="#f5b67e" d="M12.62 27.472l3.736-2.82c1.636 0.538 2.111 5.18 2.274 7.348h-3.922z"></path>
<path fill="#f5b67e" d="M9.269 21.59h-1.726v1.091c0 0.677-0.111 0.535-0.745 0.888-0.234 0.2-0.494 0.385-0.769 0.546l-0.026 0.014c0.77 2.467-2.403 5.643-0.902 7.872h8.235c1.497-2.228-1.119-5.348-0.802-7.872-0.301-0.175-0.561-0.36-0.803-0.566l0.008 0.006c-0.635-0.357-0.745-0.21-0.745-0.888v-1.091z"></path>
<path fill="#f5b67e" d="M6.011 27.472l-3.736-2.82c-1.636 0.538-2.107 5.18-2.275 7.348h3.922z"></path>
<path fill="#a3465f" d="M6.799 23.569c-1.134 0.517-4.032 0.592-4.688 1.155 0.266 0.888 0.485 1.949 0.615 3.037l0.009 0.093c-0.239 1.554-1.144 2.67-0.488 4.146h14.153c0.656-1.476-0.253-2.592-0.488-4.146 0.139-1.183 0.358-2.245 0.659-3.273l-0.035 0.139c-0.449-0.389-4.332-0.948-4.781-1.151 2.906 8.752-8.278 8.431-4.955 0z"></path>
<path fill="#f6c085" d="M4.196 13.74c0.285 1.287-0.282 2.357-1.255 2.588s-1.982-0.467-2.267-1.75 0.271-2.517 1.244-2.749 2.004 0.627 2.278 1.911z"></path>
<path fill="#f6c085" d="M14.72 13.74c-0.285 1.287 0.285 2.357 1.258 2.588s1.982-0.467 2.267-1.75-0.271-2.517-1.244-2.749-1.993 0.627-2.282 1.911z"></path>
<path fill="#f8c997" d="M9.458 2.62h-0.021l-1.016-0.039v0.078h-0.107c-2.161 0.132-4.041 1.232-5.227 2.867l-0.014 0.020c-1.244 1.69-1.408 3.822-1.312 5.861 0.253 5.244 3.209 11.13 7.697 11.173 4.51-0.043 7.447-5.929 7.697-11.173 0.1-2.039-0.068-4.171-1.312-5.861-1.201-1.653-3.080-2.75-5.221-2.88l-0.019-0.001h-0.107v-0.086l-1.012 0.039z"></path>
<path fill="#a95c40" d="M12.87 4.824c-0.061 0.289 0 1.832 1.783 4.196s1.911 2.574 1.911 2.574 0 3.747 0 3.565 0.809-3.75 0.809-3.75c0.125-0.576 0.196-1.238 0.196-1.916s-0.071-1.34-0.207-1.978l0.011 0.062c-0.453-1.854-1.023-2.549-1.808-2.852s-2.695 0.1-2.695 0.1z"></path>
<path fill="#a95c40" d="M2.767 9.651c-0.307 0.357-1.070 2.246-1.070 2.246l0.663 3.241z"></path>
<path fill="#a95c40" d="M16.553 11.594c0.082-1.351 0.567-4.613 0.228-5.455-0.98-2.428-2.777-3.412-5.79-3.715-0.254-0.025-0.55-0.039-0.848-0.039s-0.594 0.014-0.886 0.042l0.037-0.003c1.729 2.845 3.398 6.809 7.258 9.169z"></path>
<path fill="#a95c40" d="M13.44 5.387c-0.606 3.811-8.652 2.581-11.301 7.166-0.56 0.973-2.906-10.082 7.358-10.153z"></path>
<path fill="#3e3b3a" d="M5.918 14.841c0.329-0 0.595-0.267 0.595-0.595s-0.267-0.595-0.595-0.595-0.595 0.267-0.595 0.595c0 0.005 0 0.010 0 0.015v-0.001c0.008 0.323 0.271 0.581 0.595 0.581 0 0 0 0 0 0v0z"></path>
<path fill="#3e3b3a" d="M13.002 14.841c0.329-0 0.595-0.267 0.595-0.595s-0.267-0.595-0.595-0.595-0.595 0.267-0.595 0.595c0 0.005 0 0.010 0 0.015v-0.001c0.008 0.323 0.271 0.581 0.595 0.581 0 0 0 0 0 0v0z"></path>
<path fill="#e5b17d" d="M8.146 17.269s0 0 0 0c0.001-0.036 0.019-0.068 0.046-0.089l0-0c0.44-0.975 0.772-2.106 0.94-3.291l0.008-0.068c0.242 0-0.239 2.574-0.446 3.187 0.212-0.039 0.456-0.061 0.706-0.061 0.013 0 0.025 0 0.038 0h-0.002c0.713 0 1.291 0.143 1.291 0.321s-0.578 0.317-1.291 0.317-1.237-0.15-1.291-0.317z"></path>
<path fill="#913e22" d="M10.866 12.717c-0.357 0.15 0.232-0.809 1.971-0.848 2.025-0.043 2.638 0.93 1.843 0.652-0.493-0.166-1.061-0.261-1.651-0.261-0.783 0-1.527 0.168-2.197 0.471l0.034-0.014z"></path>
<path fill="#913e22" d="M8.053 12.717c0.357 0.146-0.235-0.809-1.971-0.848-2.025-0.043-2.642 0.93-1.843 0.652 0.493-0.166 1.061-0.261 1.651-0.261 0.783 0 1.527 0.168 2.197 0.471l-0.034-0.014z"></path>
<path fill="#d6825b" d="M10.902 19.012c-0.264 1.494-2.67 1.494-2.938 0 0.442 0.078 0.95 0.123 1.469 0.123s1.027-0.045 1.521-0.131l-0.053 0.008z"></path>
</svg>
