<!-- Generated by IcoMoon.io -->
<svg version="1.1" xmlns="http://www.w3.org/2000/svg" width="20" height="32" viewBox="0 0 20 32">
<title>9</title>
<path fill="#9b5538" d="M6.363 27.211c-0.174-0.132-4.065-1.962-4.065-1.962-1.732 0.57-2.121 4.461-2.298 6.752h4.151z"></path>
<path fill="#9b5538" d="M13.262 27.211c0.174-0.132 4.065-1.962 4.065-1.962 1.732 0.57 2.121 4.461 2.298 6.752h-4.151z"></path>
<path fill="#f5b67e" d="M9.812 20.984h-1.827v1.132c0 0.717-0.117 0.57-0.789 0.94-0.248 0.213-0.523 0.409-0.815 0.579l-0.026 0.014c0.811 2.615 1.4 5.974 2.985 8.333h0.944c1.585-2.359 2.174-5.718 2.985-8.333-0.319-0.184-0.594-0.38-0.849-0.599l0.007 0.006c-0.672-0.377-0.789-0.223-0.789-0.94v-1.132z"></path>
<path fill="#a95c40" d="M7.197 23.086c-0.974 0.442-4.529 1.834-4.906 2.178 0.321 0.706 0.811 3.612 1.234 6.737h12.59c0.423-3.125 0.913-6.038 1.234-6.737-0.377-0.343-3.948-1.736-4.906-2.178 1.23 0.966-1.955 3.657-2.63 4.465l-1.351-1.51c-0.102-0.264-2.423-2.042-1.264-2.955z"></path>
<path fill="#934d33" d="M9.518 27.411l0.294 0.143 0.294-0.143v4.589h-0.589v-4.589z"></path>
<path fill="#f6c085" d="M14.719 12.639c-0.028 0.136-0.045 0.292-0.045 0.452 0 1.17 0.873 2.136 2.003 2.283l0.012 0.001c1.347 0.245 2.642-0.491 2.914-1.853 0.031-0.146 0.049-0.314 0.049-0.486 0-1.201-0.861-2.202-1.999-2.418l-0.015-0.002c-0.131-0.024-0.282-0.038-0.436-0.038-1.23 0-2.255 0.88-2.479 2.045l-0.003 0.016z"></path>
<path fill="#f6c085" d="M5.284 12.639c0.029 0.136 0.045 0.293 0.045 0.453 0 1.168-0.869 2.132-1.996 2.282l-0.012 0.001c-1.347 0.245-2.642-0.491-2.914-1.853-0.031-0.146-0.048-0.314-0.048-0.486 0-1.201 0.861-2.202 1.999-2.418l0.015-0.002c0.129-0.023 0.277-0.037 0.428-0.037 1.23 0 2.254 0.879 2.479 2.044l0.003 0.016z"></path>
<path fill="#f8c997" d="M16.727 3.997c-1.272-1.751-3.263-2.913-5.531-3.048l-0.020-0.001h-0.113v-0.091l-1.076 0.045-1.076-0.045v0.087h-0.113c-2.286 0.14-4.274 1.302-5.529 3.032l-0.015 0.021c-1.317 1.793-1.491 4.050-1.389 6.193 0.268 5.548 0.755 11.764 8.148 11.824s7.835-6.299 8.103-11.824c0.102-2.144-0.072-4.401-1.389-6.193z"></path>
<path fill="#bf9141" d="M17.927 13.119c0-0.215 1.159-5.952 0.879-8.393s-1.887-2.559-2.223-2.608c-0.193-0.021-0.369-0.073-0.53-0.151l0.010 0.004s-1.427-1.132-4.276-1.823-6.88 1.427-9.084 0.23c-1.057 1.102-0.438 3.261-0.438 3.261-0.541 0.262-0.925 0.773-1.007 1.38l-0.001 0.009c-0.208 1.094 0.811 8.137 0.811 8.137s0.438-5.431 1.098-6.193c0 0 4.699 0.86 13.209-2.359 1.713-0.653 1.117 6.446 1.551 8.507z"></path>
<path fill="#3e3b3a" d="M5.865 14.051c0.35 0 0.634-0.284 0.634-0.634s-0.284-0.634-0.634-0.634c-0.35 0-0.634 0.284-0.634 0.634 0 0.001 0 0.003 0 0.004v-0c0 0 0 0 0 0 0 0.348 0.282 0.63 0.63 0.63 0.001 0 0.003 0 0.004 0h-0z"></path>
<path fill="#3e3b3a" d="M14.119 14.051c0.35 0 0.634-0.284 0.634-0.634s-0.284-0.634-0.634-0.634c-0.35 0-0.634 0.284-0.634 0.634 0 0.001 0 0.003 0 0.004v-0c0 0 0 0 0 0 0 0.348 0.282 0.63 0.63 0.63 0.001 0 0.003 0 0.004 0h-0z"></path>
<path fill="#bf9141" d="M3.857 11.462c-0.204-0.351 0.891-0.517 2-0.509 1.861 0 2.857 0.925 1.962 0.887-0.649-0.030-3.902-0.275-3.963-0.377z"></path>
<path fill="#bf9141" d="M16.123 11.541c0.211-0.347-0.879-0.532-1.989-0.547-1.861-0.023-2.876 0.868-1.981 0.845 0.679-0.015 3.906-0.196 3.97-0.298z"></path>
<path fill="#d6825b" d="M12.386 17.738c-0.377 2.166-3.883 2.166-4.268 0 1.159 1.532 3.11 1.532 4.268 0z"></path>
<path fill="#e5b17d" d="M8.827 16.606s0 0 0 0c0.003-0.039 0.023-0.073 0.052-0.094l0-0c0.466-1.033 0.818-2.232 0.996-3.488l0.008-0.071c0.257 0-0.253 2.729-0.476 3.374 0.229-0.050 0.497-0.086 0.771-0.098l0.010-0c0.755 0 1.366 0.151 1.366 0.34s-0.611 0.336-1.366 0.336-1.321-0.128-1.362-0.298z"></path>
<path fill="#d97b5a" d="M6.337 25.237c1.43 1.815 3.555 2.438 3.476 2.313s-2.095-2.895-2.246-3.657c-0.024-0.092-0.037-0.198-0.037-0.308 0-0.34 0.132-0.649 0.348-0.878l-0.001 0.001c0.159-0.185 0.109-0.596 0.109-0.868-2.113-0.064-3.080 1.581-1.649 3.397z"></path>
<path fill="#d97b5a" d="M13.292 25.237c-1.434 1.815-3.559 2.438-3.48 2.313s2.095-2.895 2.264-3.657c0.023-0.091 0.036-0.195 0.036-0.302 0-0.342-0.133-0.653-0.35-0.884l0.001 0.001c-0.159-0.185-0.109-0.596-0.109-0.868 2.098-0.064 3.065 1.581 1.638 3.397z"></path>
</svg>
