<svg id="logoWhite" xmlns="http://www.w3.org/2000/svg" viewBox="865 540 509 128">
  <defs>
    <style>
      .cls-1 {
        fill: #fff;
        font-size: 69px;
        font-family: Montserrat-Regular, Montserrat;
        letter-spacing: 0.521em;
      }

      .cls-2, .cls-4 {
        fill: #dedede;
      }

      .cls-2 {
        stroke: #686868;
      }

      .cls-3 {
        fill: #181818;
      }

      .cls-5 {
        fill: #707070;
      }

      .cls-6 {
        fill: #5dcaf0;
      }

      .cls-7, .cls-9 {
        stroke: none;
      }

      .cls-8 {
        fill: none;
      }

      .cls-9 {
        fill: #686868;
      }
    </style>
  </defs>
  <text id="CIVESTT" class="cls-1" transform="translate(865 651)"><tspan x="0" y="0">CIVESTT</tspan></text>
  <g id="CIRCLE" transform="translate(879.567 540)">
    <g id="Ellipse_1" data-name="Ellipse 1" class="cls-2">
      <circle class="cls-7" cx="22.028" cy="22.028" r="22.028"/>
      <circle class="cls-8" cx="22.028" cy="22.028" r="21.528"/>
    </g>
    <ellipse id="Ellipse_4" data-name="Ellipse 4" class="cls-3" cx="19.359" cy="19.693" rx="19.359" ry="19.693" transform="translate(3.003 2.335)"/>
  </g>
  <g id="CIRCLE-2" data-name="CIRCLE" transform="translate(948.97 540)">
    <g id="Path_1" data-name="Path 1" class="cls-4" transform="translate(0)">
      <path class="cls-7" d="M 22.0277099609375 43.555419921875 C 19.12126922607422 43.555419921875 16.30203056335449 42.98630142211914 13.6483097076416 41.86386871337891 C 11.08485984802246 40.77962875366211 8.782549858093262 39.22732925415039 6.805319786071777 37.25009918212891 C 4.828090190887451 35.27286911010742 3.275789976119995 32.97055816650391 2.191550016403198 30.4071102142334 C 1.069119930267334 27.75338935852051 0.4999999701976776 24.93415069580078 0.4999999701976776 22.0277099609375 C 0.4999999701976776 19.12126922607422 1.069119930267334 16.30203056335449 2.191550016403198 13.6483097076416 C 3.275789976119995 11.08485984802246 4.828090190887451 8.782549858093262 6.805319786071777 6.805319786071777 C 8.782549858093262 4.828090190887451 11.08485984802246 3.275789976119995 13.6483097076416 2.191550016403198 C 16.30203056335449 1.069119930267334 19.12126922607422 0.4999999701976776 22.0277099609375 0.4999999701976776 C 24.93415069580078 0.4999999701976776 27.75338935852051 1.069119930267334 30.4071102142334 2.191550016403198 C 32.97055816650391 3.275789976119995 35.27286911010742 4.828090190887451 37.25009918212891 6.805319786071777 C 39.22732925415039 8.782549858093262 40.77962875366211 11.08485984802246 41.86386871337891 13.6483097076416 C 42.98630142211914 16.30203056335449 43.555419921875 19.12126922607422 43.555419921875 22.0277099609375 C 43.555419921875 24.93415069580078 42.98630142211914 27.75338935852051 41.86386871337891 30.4071102142334 C 40.77962875366211 32.97055816650391 39.22732925415039 35.27286911010742 37.25009918212891 37.25009918212891 C 35.27286911010742 39.22732925415039 32.97055816650391 40.77962875366211 30.4071102142334 41.86386871337891 C 27.75338935852051 42.98630142211914 24.93415069580078 43.555419921875 22.0277099609375 43.555419921875 Z"/>
      <path class="cls-9" d="M 22.0277099609375 43.055419921875 C 24.86687088012695 43.055419921875 27.62058067321777 42.49959182739258 30.21233940124512 41.40336990356445 C 32.71617889404297 40.34432983398438 34.96508026123047 38.82801818847656 36.89654922485352 36.89654922485352 C 38.82801818847656 34.96508026123047 40.34432983398438 32.71617889404297 41.40336990356445 30.21233940124512 C 42.49959182739258 27.62058067321777 43.055419921875 24.86687088012695 43.055419921875 22.0277099609375 C 43.055419921875 19.18854904174805 42.49959182739258 16.43483924865723 41.40336990356445 13.84307956695557 C 40.34432983398438 11.33924007415771 38.82801818847656 9.090339660644531 36.89654922485352 7.158869743347168 C 34.96508026123047 5.227399826049805 32.71617889404297 3.711089849472046 30.21233940124512 2.652050018310547 C 27.62058067321777 1.555830001831055 24.86687088012695 0.9999999403953552 22.0277099609375 0.9999999403953552 C 19.18854904174805 0.9999999403953552 16.43483924865723 1.555830001831055 13.84307956695557 2.652050018310547 C 11.33924007415771 3.711089849472046 9.090339660644531 5.227399826049805 7.158869743347168 7.158869743347168 C 5.227399826049805 9.090339660644531 3.711089849472046 11.33924007415771 2.652050018310547 13.84307956695557 C 1.555830001831055 16.43483924865723 0.9999999403953552 19.18854904174805 0.9999999403953552 22.0277099609375 C 0.9999999403953552 24.86687088012695 1.555830001831055 27.62058067321777 2.652050018310547 30.21233940124512 C 3.711089849472046 32.71617889404297 5.227399826049805 34.96508026123047 7.158869743347168 36.89654922485352 C 9.090339660644531 38.82801818847656 11.33924007415771 40.34432983398438 13.84307956695557 41.40336990356445 C 16.43483924865723 42.49959182739258 19.18854904174805 43.055419921875 22.0277099609375 43.055419921875 M 22.0277099609375 44.055419921875 C 9.862139701843262 44.055419921875 -3.906250256591193e-08 34.19327926635742 -3.906250256591193e-08 22.0277099609375 C -3.906250256591193e-08 9.862139701843262 9.862139701843262 -3.906250256591193e-08 22.0277099609375 -3.906250256591193e-08 C 34.19327926635742 -3.906250256591193e-08 44.055419921875 9.862139701843262 44.055419921875 22.0277099609375 C 44.055419921875 34.19327926635742 34.19327926635742 44.055419921875 22.0277099609375 44.055419921875 Z"/>
    </g>
    <ellipse id="Ellipse_4-2" data-name="Ellipse 4" class="cls-5" cx="19.359" cy="19.693" rx="19.359" ry="19.693" transform="translate(3.003 2.335)"/>
  </g>
  <g id="CIRCLE-3" data-name="CIRCLE" transform="translate(1021.378 540)">
    <g id="Ellipse_1-2" data-name="Ellipse 1" class="cls-2">
      <circle class="cls-7" cx="22.028" cy="22.028" r="22.028"/>
      <circle class="cls-8" cx="22.028" cy="22.028" r="21.528"/>
    </g>
    <ellipse id="Ellipse_4-3" data-name="Ellipse 4" class="cls-6" cx="19.359" cy="19.693" rx="19.359" ry="19.693" transform="translate(3.003 2.335)"/>
  </g>
</svg>
