<svg aria-hidden="true" style="position: absolute; width: 0; height: 0; overflow: hidden;" version="1.1" xmlns="http://www.w3.org/2000/svg" xmlns:xlink="http://www.w3.org/1999/xlink">
<defs>
<symbol id="icon-1" viewBox="0 0 20 32">
<title>1</title>
<path fill="#953d23" style="fill: var(--color1, #953d23)" d="M18.252 16.128c-0.086 0.901-3.27 7.632-3.27 7.632l-7.614-0.153s-4.76-3.494-5.092-6.060c-0.13-0.987-0.204-2.128-0.204-3.287 0-0.6 0.020-1.195 0.059-1.785l-0.004 0.080 16.043-0.391z"></path>
<path fill="#ceacca" style="fill: var(--color2, #ceacca)" d="M15.033 28.972c0.175-0.13 2.473-4.645 2.473-4.645 1.71 0.562 2.201 5.412 2.376 7.673h-4.097z"></path>
<path fill="#f6c085" style="fill: var(--color3, #f6c085)" d="M10.094 21.127h-1.803v1.14c0 1.348-3.587 1.471-4.805 1.862 0.328 2.816 2.943 4.883 6.787 7.509h0.931c1.564-2.324 5.502-3.747 5.587-7.509-1.233-0.395-4.902-0.495-4.898-1.862v-1.14z"></path>
<path fill="#ceacca" style="fill: var(--color2, #ceacca)" d="M5.379 28.454c-0.171-0.127-2.607-4.127-2.607-4.127-1.695 0.562-2.19 5.412-2.362 7.673h4.097z"></path>
<path fill="#d8b3d2" style="fill: var(--color4, #d8b3d2)" d="M3.486 24.126c-0.329 0.050-0.625 0.15-0.894 0.294l0.015-0.007c1.952 3.706-0.931 5.192 0.134 7.587h14.788c1.062-2.395-1.821-3.881 0.134-7.587-0.251-0.135-0.543-0.236-0.852-0.285l-0.016-0.002c-0.477 2.462-3.274 4.351-6.653 4.351s-6.176-1.889-6.656-4.351z"></path>
<path fill="#f8c997" style="fill: var(--color5, #f8c997)" d="M10.292 1.307h-0.022l-1.062-0.041v0.082h-0.112c-2.258 0.138-4.222 1.287-5.461 2.996l-0.015 0.021c-1.3 1.766-1.475 3.993-1.386 6.124 0.279 5.479 3.352 11.629 8.057 11.674 4.712-0.045 7.777-6.194 8.042-11.674 0.101-2.131-0.071-4.358-1.371-6.124-1.255-1.728-3.221-2.875-5.459-3.009l-0.020-0.001h-0.112v-0.089l-1.062 0.041z"></path>
<path fill="#cc5827" style="fill: var(--color6, #cc5827)" d="M15.909 11.361c0.372 0.153-0.246-0.849-2.060-0.89-2.116-0.041-2.76 0.972-1.929 0.682 0.514-0.172 1.107-0.272 1.722-0.272 0.821 0 1.6 0.177 2.302 0.495l-0.035-0.014z"></path>
<path fill="#3e3b3a" style="fill: var(--color7, #3e3b3a)" d="M6.798 13.331c0.346 0 0.626-0.28 0.626-0.626s-0.28-0.626-0.626-0.626c-0.346 0-0.626 0.28-0.626 0.626v0c0 0.346 0.28 0.626 0.626 0.626v0z"></path>
<path fill="#3e3b3a" style="fill: var(--color7, #3e3b3a)" d="M14.449 12.705c0 0.344-0.278 0.622-0.622 0.622s-0.622-0.278-0.622-0.622c0-0.344 0.278-0.622 0.622-0.622s0.622 0.278 0.622 0.622z"></path>
<path fill="#d6825b" style="fill: var(--color8, #d6825b)" d="M7.822 17.76c0.692 0.387 1.518 0.615 2.397 0.615s1.705-0.228 2.422-0.628l-0.025 0.013c-0.361 2.421-4.369 2.354-4.794 0z"></path>
<path fill="#e5b17d" style="fill: var(--color9, #e5b17d)" d="M8.884 16.434s0 0 0 0c0.002-0.037 0.021-0.069 0.048-0.089l0-0c0.459-1.020 0.806-2.203 0.982-3.441l0.008-0.071c0.253 0-0.25 2.693-0.466 3.33 0.225-0.038 0.484-0.060 0.748-0.060 0.009 0 0.019 0 0.028 0h-0.001c0.745 0 1.348 0.149 1.348 0.331s-0.603 0.335-1.348 0.335-1.293-0.16-1.348-0.335z"></path>
<path fill="#cc5827" style="fill: var(--color6, #cc5827)" d="M4.567 11.376c-0.372 0.153 0.242-0.849 2.060-0.886 2.116-0.060 2.76 0.972 1.941 0.685-0.519-0.176-1.117-0.277-1.738-0.277-0.819 0-1.597 0.176-2.297 0.493l0.035-0.014z"></path>
<path fill="#cc5827" style="fill: var(--color6, #cc5827)" d="M4.574 3.296c2.935 1.736 11.815 4.641 11.569 13.286 0 0 0.626-3.46 0.644-3.3 0.106 0.667 0.167 1.436 0.167 2.219 0 1.152-0.131 2.273-0.38 3.349l0.019-0.1c-0.644 3.162-3.267 6.865-3.159 6.705 1.97-1.244 3.509-3.013 4.441-5.111l0.029-0.074c4.682-10.727 0.957-22.297-10.169-19.969-2.388 0.499-4.224 2.369-3.162 2.995z"></path>
<path fill="#cc5827" style="fill: var(--color6, #cc5827)" d="M7.822 4.347c-6.168 3.256-3.699 14.527-1.24 18.293 1.173 1.807 2.38 2.98 1.959 2.607s-3.464-0.123-6.705-6.269c-2.607-4.943-3.483-17.35 4.641-17.35z"></path>
<path fill="#cc5827" style="fill: var(--color6, #cc5827)" d="M2.030 7.878c0.346-0.302 2.026-2.298 2.026-2.298-1.613 6.768 1.363 12.441 1.348 12.422-2.488-4.272-2.846-5.256-3.375-10.124z"></path>
</symbol>
<symbol id="icon-2" viewBox="0 0 19 32">
<title>2</title>
<path fill="#d33f27" style="fill: var(--color10, #d33f27)" d="M6.316 27.246c-0.172-0.131-4.035-1.948-4.035-1.948-1.72 0.551-2.105 4.428-2.281 6.702h4.121z"></path>
<path fill="#d33f27" style="fill: var(--color10, #d33f27)" d="M13.164 27.246c0.172-0.131 4.035-1.948 4.035-1.948 1.72 0.551 2.105 4.428 2.281 6.702h-4.121z"></path>
<path fill="#f5b67e" style="fill: var(--color11, #f5b67e)" d="M9.74 21.065h-1.813v1.143c0 0.712-0.116 0.566-0.783 0.933 0 0-2.652 2.214-2.847 2.274 0.809 2.596 2.731 3.057 4.319 5.398l1.094 0.345 1.161-0.172c1.577-2.341 3.952-2.345 4.758-4.938-0.195-0.064-3.278-2.907-3.278-2.907-0.667-0.375-0.783-0.221-0.783-0.933v-1.143z"></path>
<path fill="#e43f25" style="fill: var(--color12, #e43f25)" d="M7.144 23.151c-0.967 0.438-4.495 1.821-4.87 2.162 0.318 0.701 0.805 3.585 1.225 6.687h12.497c0.42-3.102 0.907-5.994 1.225-6.687-0.375-0.341-3.919-1.723-4.87-2.162 0.562 2.664 0 5.166-2.536 5.177s-3.162-2.855-2.671-5.177z"></path>
<path fill="#f6c085" style="fill: var(--color3, #f6c085)" d="M14.61 12.782c-0.028 0.135-0.044 0.29-0.044 0.449 0 1.162 0.867 2.121 1.989 2.266l0.011 0.001c1.337 0.243 2.622-0.487 2.892-1.839 0.031-0.145 0.048-0.312 0.048-0.482 0-1.192-0.855-2.185-1.985-2.4l-0.015-0.002c-0.13-0.024-0.28-0.038-0.432-0.038-1.221 0-2.238 0.873-2.461 2.030l-0.003 0.016z"></path>
<path fill="#f6c085" style="fill: var(--color3, #f6c085)" d="M5.245 12.782c0.028 0.135 0.045 0.29 0.045 0.45 0 1.159-0.863 2.116-1.981 2.265l-0.012 0.001c-1.337 0.243-2.622-0.487-2.892-1.839-0.031-0.145-0.048-0.312-0.048-0.482 0-1.192 0.855-2.185 1.985-2.4l0.015-0.002c0.128-0.023 0.275-0.036 0.425-0.036 1.221 0 2.238 0.873 2.461 2.029l0.003 0.016z"></path>
<path fill="#f8c997" style="fill: var(--color5, #f8c997)" d="M16.603 4.203c-1.262-1.738-3.239-2.891-5.49-3.026l-0.020-0.001h-0.112v-0.090l-1.064 0.037-1.068-0.037v0.086h-0.112c-2.271 0.138-4.246 1.292-5.492 3.010l-0.015 0.021c-1.307 1.791-1.48 4.016-1.379 6.163 0.266 5.507 0.772 11.677 8.088 11.737s7.777-6.267 8.043-11.737c0.101-2.147-0.071-4.372-1.379-6.162z"></path>
<path fill="#ed7f22" style="fill: var(--color13, #ed7f22)" d="M2.248 12.033c0.097-2.030 0.124-5.702 1.903-5.702 1.315 0 3.619 0.813 5.743 0.922 1.997-0.127 4.495-1.023 5.822-1.023 1.42 0 1.772 1.911 1.798 4.563 0 0.547 0.045 1.094 0.075 1.641 0.019 0.318 0.041 0.641 0.056 0.959 0 0.131 0.041 0.479 0.21 0.446s0.21-0.749 0.229-0.892c0.115-0.909 0.18-1.96 0.18-3.027 0-0.063-0-0.127-0.001-0.19l0 0.010c0-1.454-0.037-3.712-1.304-5.844-0.446-0.749-0.749-1.656-1.66-2.27-2.188-1.45-6.657-1.592-9.156-0.772-1.842 0.637-3.288 2.008-4.011 3.755l-0.016 0.044c-0.682 1.907-0.663 3.398-0.438 7.178 0.022 0.408 0.071 0.82 0.127 1.225 0.037 0.314 0.086 0.588 0.149 0.856l-0.010-0.051c0.142 0.577 0.337 0.165 0.333-0.195-0.011-0.554-0.030-1.086-0.030-1.633z"></path>
<path fill="#ed7f22" style="fill: var(--color13, #ed7f22)" d="M1.656 11.029c-0.24-2.562-0.749-9.246 1.184-10.235 0.817-0.42 5.087-0.835 7.103-0.794v0c2.015-0.045 6.286 0.375 7.118 0.79 1.922 0.989 1.424 7.672 1.184 10.235 0 0-0.993-4.065-2.094-5.705s-5.526-0.824-6.196-0.517h-0.022c-0.671-0.307-5.061-1.124-6.185 0.521s-2.090 5.705-2.090 5.705z"></path>
<path fill="#3e3b3a" style="fill: var(--color7, #3e3b3a)" d="M5.822 13.423c0.344-0.002 0.622-0.281 0.622-0.626 0-0.346-0.28-0.626-0.626-0.626s-0.626 0.28-0.626 0.626v0c0 0 0 0 0 0 0 0.346 0.28 0.626 0.626 0.626 0.001 0 0.003 0 0.004 0h-0z"></path>
<path fill="#3e3b3a" style="fill: var(--color7, #3e3b3a)" d="M14.015 13.423c0.348 0 0.629-0.282 0.629-0.629s-0.282-0.629-0.629-0.629c-0.348 0-0.629 0.282-0.629 0.629 0 0.001 0 0.003 0 0.004v-0c0 0 0 0 0 0 0 0.346 0.28 0.626 0.626 0.626 0.001 0 0.003 0 0.004 0h-0z"></path>
<path fill="#d6825b" style="fill: var(--color8, #d6825b)" d="M7.118 17.165c0.813 0.63 1.846 1.010 2.969 1.010s2.156-0.38 2.98-1.018l-0.011 0.008c0.775 3.349-6.736 3.349-5.938 0z"></path>
<path fill="#e5b17d" style="fill: var(--color9, #e5b17d)" d="M8.556 16.524s0 0 0 0c0.003-0.039 0.023-0.072 0.052-0.093l0-0c0.46-1.024 0.809-2.213 0.988-3.457l0.009-0.072c0.255 0-0.255 2.705-0.472 3.349 0.224-0.041 0.481-0.064 0.744-0.064 0.012 0 0.025 0 0.037 0h-0.002c0.749 0 1.356 0.15 1.356 0.337s-0.607 0.333-1.356 0.333-1.319-0.157-1.356-0.333z"></path>
<path fill="#ed7f22" style="fill: var(--color13, #ed7f22)" d="M3.911 10.864c-0.202-0.348 0.884-0.513 1.985-0.502 1.847 0 2.836 0.914 1.948 0.877-0.663-0.041-3.874-0.285-3.933-0.375z"></path>
<path fill="#ed7f22" style="fill: var(--color13, #ed7f22)" d="M16.086 10.83c0.21-0.345-0.873-0.528-1.974-0.543-1.847-0.022-2.855 0.862-1.963 0.839 0.663-0.015 3.877-0.195 3.937-0.296z"></path>
</symbol>
<symbol id="icon-3" viewBox="0 0 20 32">
<title>3</title>
<path fill="#913e22" style="fill: var(--color14, #913e22)" d="M1.998 11.077c0.441 4.388-0.023 12.857 3.371 15.15 5.186 3.49 3.778 3.744 8.642 0.161s4.219-9.428 4.196-15.845z"></path>
<path fill="#913e22" style="fill: var(--color14, #913e22)" d="M14.284 2.152c10.195-2.018 3.644 21.057 2.528 25.898-0.483 2.102-1.189 1.565-3.030-1.484 0 0 3.536-8.676 3.778-13.597s-1.488-6.612-2.547-8.473-0.729-2.344-0.729-2.344z"></path>
<path fill="#913e22" style="fill: var(--color14, #913e22)" d="M15.342 2.397c0.318 2.788-0.426 3.126-2.685 4.603s-3.218 1.488-2.854 1.308 2.094-3.191 2.094-3.191c-1.357 1.086-2.898 2.036-4.551 2.783l-0.136 0.055c-2.37 0.94-3.218 0.575-3.218 0.575s2.094-2.731 1.822-2.52-2.278 1.534-2.551 2.125-0.859 3.341-0.525 6.344c0.226 2.014 4.277 8.315 4.346 11.277 0.038 1.492-2.163 3.69-2.808 2.946-2.627-3.030-3.068-21.222-2.957-22.085 0.327-2.028 1.408-3.757 2.942-4.923l0.019-0.014c3.007-2.378 10.724-2.313 11.062 0.717z"></path>
<path fill="#a9bcc7" style="fill: var(--color15, #a9bcc7)" d="M13.578 27.133l4.020-3.038c1.761 0.583 2.271 5.577 2.447 7.905h-4.219z"></path>
<path fill="#98c0d4" style="fill: var(--color16, #98c0d4)" d="M6.904 24.548c0.042-0.318 0.28-2.478 0.28-2.478l5.715-0.038-0.077 1.776z"></path>
<path fill="#f5b67e" style="fill: var(--color11, #f5b67e)" d="M9.972 20.804h-1.856v1.151c0 0.729-0.119 0.579-0.802 0.955-0.252 0.216-0.531 0.416-0.829 0.588l-0.027 0.014c0.825 2.658 1.423 6.072 3.034 8.469h0.959c1.611-2.397 2.209-5.811 3.034-8.469-0.324-0.187-0.604-0.386-0.863-0.608l0.007 0.006c-0.683-0.384-0.802-0.226-0.802-0.955v-1.151z"></path>
<path fill="#a9bcc7" style="fill: var(--color15, #a9bcc7)" d="M6.467 27.133l-4.020-3.038c-1.761 0.583-2.267 5.577-2.447 7.905h4.219z"></path>
<path fill="#b5ccd8" style="fill: var(--color17, #b5ccd8)" d="M8.822 25.549c-1.634-0.598-1.837-2.351-1.507-2.608-0.99 0.456-4.63 0.898-5.036 1.247 0.33 0.717 0.859 4.641 1.289 7.813h12.926c0.43-3.172 0.959-7.096 1.289-7.813-0.384-0.349-4.046-0.794-5.036-1.247 0.334 0.257 0.127 2.010-1.507 2.608v0l-1.304 4.369-1.112-4.369z"></path>
<path fill="#f6c085" style="fill: var(--color3, #f6c085)" d="M4.514 12.596c0.307 1.381-0.303 2.535-1.35 2.781s-2.133-0.499-2.439-1.883 0.292-2.708 1.339-2.953 2.156 0.671 2.451 2.056z"></path>
<path fill="#f6c085" style="fill: var(--color3, #f6c085)" d="M15.837 12.596c-0.307 1.381 0.307 2.535 1.354 2.781s2.133-0.499 2.439-1.883-0.291-2.708-1.339-2.953-2.144 0.671-2.455 2.056z"></path>
<path fill="#f8c997" style="fill: var(--color5, #f8c997)" d="M10.176 0.384h-0.023l-1.093-0.031v0.084h-0.115c-2.325 0.143-4.347 1.326-5.623 3.085l-0.015 0.022c-1.339 1.826-1.515 4.127-1.411 6.306 0.272 5.638 3.452 11.971 8.281 12.021 4.852-0.050 8.012-6.382 8.281-12.021 0.107-2.179-0.073-4.48-1.411-6.306-1.292-1.781-3.316-2.963-5.621-3.102l-0.021-0.001h-0.111v-0.088l-1.089 0.031z"></path>
<path fill="#913e22" style="fill: var(--color14, #913e22)" d="M13.624 2.578c-0.065 0.311 0 1.971 1.918 4.514s2.060 2.769 2.060 2.769c0.545-0.944 0.341-1.4 0.882-0.215 0.134-0.62 0.211-1.332 0.211-2.062s-0.077-1.442-0.223-2.128l0.012 0.067c-0.487-1.994-1.101-2.742-1.945-3.068s-2.915 0.123-2.915 0.123z"></path>
<path fill="#913e22" style="fill: var(--color14, #913e22)" d="M2.976 7.959c-0.33 0.384-1.599-1.381-1.365 0.767s0.69 4.653 1.316 6.309c-0.307-2.075-0.863-4.495 0.050-7.077z"></path>
<path fill="#913e22" style="fill: var(--color14, #913e22)" d="M18.073 10.061c0.088-1.454 0.345-4.986 0-5.88-1.074-2.616-3.007-3.674-6.248-3.997-0.997-0.1 0.514 1.58 0.514 1.58 2.685 3.797 1.358 6.708 5.734 8.296z"></path>
<path fill="#913e22" style="fill: var(--color14, #913e22)" d="M14.46 3.368c-7.476 1.093-6.463 7.514-12.404 6.574-0.345-0.054-0.748-1.853-0.748-1.853s0.644-2.984 1.807-4.695 2.462-2.156 3.763-2.685 4.771-0.932 5.37-0.176z"></path>
<path fill="#abc3cf" style="fill: var(--color18, #abc3cf)" d="M8.519 24.548l0.94 0.353-0.211 2.328-1.235-1.481 0.506-1.201z"></path>
<path fill="#c9e1ed" style="fill: var(--color19, #c9e1ed)" d="M6.313 22.952l0.863-0.886 2.282 2.834-2.182 1.918-0.963-3.866z"></path>
<path fill="#abc3cf" style="fill: var(--color18, #abc3cf)" d="M11.549 24.509l-0.94 0.353 0.15 2.263 1.296-1.415-0.506-1.201z"></path>
<path fill="#c9e1ed" style="fill: var(--color19, #c9e1ed)" d="M13.754 22.914l-0.863-0.882-2.282 2.831 2.182 1.918 0.963-3.866z"></path>
<path fill="#b5ccd8" style="fill: var(--color17, #b5ccd8)" d="M3.172 23.892c-0.334 0.053-0.635 0.156-0.909 0.303l0.015-0.007c2.010 3.813-0.955 5.347 0.138 7.813h15.227c1.082-2.466-1.887-4 0.123-7.813-0.257-0.139-0.557-0.242-0.874-0.293l-0.016-0.002c-0.579 2.957-3.836 6.689-6.981 6.689s-6.152-3.732-6.724-6.689z"></path>
<path fill="#3e3b3a" style="fill: var(--color7, #3e3b3a)" d="M6.751 13.658c0.356 0 0.644-0.289 0.644-0.644s-0.288-0.644-0.644-0.644c-0.356 0-0.644 0.289-0.644 0.644v0c0 0.356 0.288 0.644 0.644 0.644v0z"></path>
<path fill="#3e3b3a" style="fill: var(--color7, #3e3b3a)" d="M13.988 13.658c0.356 0 0.644-0.289 0.644-0.644s-0.288-0.644-0.644-0.644c-0.356 0-0.644 0.289-0.644 0.644v0c0 0.356 0.288 0.644 0.644 0.644v0z"></path>
<path fill="#d6825b" style="fill: var(--color8, #d6825b)" d="M12.657 17.41c-0.384 2.205-3.947 2.205-4.338 0 1.178 1.573 3.16 1.573 4.338 0z"></path>
<path fill="#e5b17d" style="fill: var(--color9, #e5b17d)" d="M9.040 16.267s0 0 0 0c0.004-0.038 0.024-0.071 0.053-0.092l0-0c0.47-1.049 0.827-2.268 1.011-3.542l0.009-0.075c0.257 0-0.261 2.773-0.483 3.429 0.232-0.039 0.5-0.061 0.773-0.061 0.009 0 0.018 0 0.026 0h-0.001c0.767 0 1.388 0.153 1.388 0.341s-0.621 0.345-1.388 0.345-1.35-0.165-1.388-0.345z"></path>
<path fill="#913e22" style="fill: var(--color14, #913e22)" d="M12.074 11.372c-0.384 0.157 0.249-0.874 2.121-0.913 2.179-0.050 2.838 0.997 1.983 0.698-0.529-0.177-1.138-0.279-1.771-0.279-0.845 0-1.647 0.182-2.369 0.509l0.036-0.015z"></path>
<path fill="#913e22" style="fill: var(--color14, #913e22)" d="M8.665 11.372c0.384 0.157-0.253-0.874-2.121-0.913-2.179-0.050-2.842 0.997-1.983 0.698 0.529-0.177 1.138-0.279 1.771-0.279 0.845 0 1.647 0.182 2.369 0.509l-0.036-0.015z"></path>
<path fill="#913e22" style="fill: var(--color14, #913e22)" d="M17.341 8.055c0.33 0.384 1.599-1.377 1.365 0.767s-0.679 4.645-1.316 6.302c0.307-2.083 0.867-4.495-0.050-7.069z"></path>
</symbol>
<symbol id="icon-4" viewBox="0 0 20 32">
<title>4</title>
<path fill="#1b8ec1" style="fill: var(--color20, #1b8ec1)" d="M7.435 23.532l-0.054-1.756h5.541l-0.054 1.699-5.433 0.057z"></path>
<path fill="#0095d3" style="fill: var(--color21, #0095d3)" d="M6.451 27.14c-0.176-0.13-4.121-1.99-4.121-1.99-1.756 0.582-2.15 4.527-2.33 6.849h4.209z"></path>
<path fill="#0095d3" style="fill: var(--color21, #0095d3)" d="M13.446 27.14c0.176-0.13 4.121-1.99 4.121-1.99 1.756 0.582 2.15 4.527 2.33 6.849h-4.209z"></path>
<path fill="#f5b67e" style="fill: var(--color11, #f5b67e)" d="M9.949 20.827h-1.852v1.171c0 0.727-0.119 0.574-0.8 0.953-0.251 0.214-0.53 0.413-0.826 0.586l-0.027 0.015c0.827 2.652 1.485 5.418 3.092 7.825h0.957c1.611-2.388 2.139-5.154 2.962-7.806-0.323-0.191-0.602-0.394-0.86-0.618l0.007 0.006c-0.681-0.383-0.8-0.226-0.8-0.953v-1.179z"></path>
<path fill="#008bcf" style="fill: var(--color22, #008bcf)" d="M10.113 27.263s-0.578-0.765-0.842-1.194c-0.804-1.309-1.948-3.111-1.974-3.111-0.987 0.448-4.592 1.86-4.974 2.208 0.325 0.716 0.823 3.662 1.251 6.83h12.765c0.429-3.168 0.926-6.122 1.251-6.83-0.383-0.348-4.002-1.76-4.974-2.208-0.503 1.212-1.028 2.233-1.625 3.206l0.056-0.099c-0.36 0.52-0.934 1.198-0.934 1.198z"></path>
<path fill="#007ab4" style="fill: var(--color23, #007ab4)" d="M8.219 24.558c0.1 0 0.658 0.088 0.658 0.088l0.383 1.423-1.404-0.65z"></path>
<path fill="#2aa5dd" style="fill: var(--color24, #2aa5dd)" d="M7.381 21.776l1.496 2.87s-1.531 1.531-1.531 1.446-0.689-2.74-0.635-2.881 0.67-1.435 0.67-1.435z"></path>
<path fill="#007ab4" style="fill: var(--color23, #007ab4)" d="M12.080 24.558c-0.1 0-0.658 0.088-0.658 0.088l-0.383 1.423 1.404-0.65z"></path>
<path fill="#2aa5dd" style="fill: var(--color24, #2aa5dd)" d="M12.922 21.776l-1.5 2.87s1.531 1.531 1.531 1.446 0.693-2.74 0.639-2.881-0.67-1.435-0.67-1.435z"></path>
<path fill="#f6c085" style="fill: var(--color3, #f6c085)" d="M14.724 12.306c-0.029 0.139-0.046 0.299-0.046 0.462 0 1.187 0.886 2.166 2.032 2.315l0.012 0.001c1.366 0.249 2.678-0.501 2.954-1.883 0.031-0.147 0.048-0.316 0.048-0.489 0-1.22-0.874-2.236-2.030-2.455l-0.016-0.002c-0.132-0.024-0.283-0.038-0.438-0.038-1.247 0-2.286 0.892-2.514 2.073l-0.003 0.016z"></path>
<path fill="#f6c085" style="fill: var(--color3, #f6c085)" d="M5.185 12.306c0.029 0.138 0.045 0.296 0.045 0.459 0 1.187-0.885 2.168-2.031 2.318l-0.012 0.001c-1.366 0.249-2.678-0.501-2.954-1.883-0.031-0.147-0.048-0.316-0.048-0.49 0-1.219 0.872-2.233 2.026-2.454l0.016-0.002c0.132-0.024 0.284-0.038 0.438-0.038 1.248 0 2.288 0.892 2.517 2.073l0.003 0.016z"></path>
<path fill="#f8c997" style="fill: var(--color5, #f8c997)" d="M16.779 3.547c-1.29-1.775-3.309-2.953-5.608-3.091l-0.021-0.001h-0.115v-0.073l-1.087 0.023-1.091-0.023v0.088h-0.115c-2.316 0.136-4.333 1.308-5.61 3.055l-0.015 0.021c-1.335 1.81-1.511 4.106-1.408 6.291 0.272 5.629 0.765 11.931 8.261 11.992s7.944-6.405 8.215-11.992c0.103-2.185-0.073-4.481-1.408-6.291z"></path>
<path fill="#bf9141" style="fill: var(--color25, #bf9141)" d="M2.529 11.651c0.096-2.074 0.122-5.824 1.94-5.824 0.046 0 5.514-2.269 11.812-2.269 1.45 0 1.81 4.117 1.84 6.826 0 2.334-0.417 3.413-0.249 3.486s1.006-1.27 1.003-4.561c0-1.485-0.038-3.792-1.332-5.969-0.455-0.765-0.765-1.691-1.695-2.319-2.215-1.481-6.953-1.148-9.505-0.302-7.056 2.342-4.546 13.121-4.316 13.098s0.486-1.879 0.501-2.166z"></path>
<path fill="#bf9141" style="fill: var(--color25, #bf9141)" d="M10.829 2.353c0.884-0.057 5.204 1.113 5.204 1.113-3.226 3.21-8.468 5.357-13.010 4.515 0 0 2.074-1.324 1.913-1.194-0.757 0.278-1.631 0.44-2.543 0.444h-0.002c-0.608-0.077-0.578-0.298-0.578-0.298 3.543-3.26 3.444-3.229 9.015-4.58z"></path>
<path fill="#3e3b3a" style="fill: var(--color7, #3e3b3a)" d="M8.973 10.829c-0.156-0.197-0.357-0.351-0.587-0.448l-0.010-0.004c-1.488-0.54-5.644-0.314-6.75-0.046-0.142 0.034-0.157 0.031-0.172 0.126-0.008 0.083-0.012 0.179-0.012 0.276 0 0.173 0.014 0.342 0.042 0.507l-0.002-0.018c0.046 0.088 0.264 0.122 0.455 0.406 0.348 0.509 0.321 2.361 1.148 3.233s4.094 0.941 4.974-0.264c0.481-0.731 0.881-1.574 1.156-2.471l0.018-0.070c0.125-0.135 0.3-0.222 0.496-0.23l0.001-0c0.066-0.010 0.141-0.015 0.218-0.015s0.153 0.006 0.227 0.016l-0.008-0.001c0.197 0.008 0.373 0.095 0.497 0.229l0 0c0.301 0.965 0.708 1.805 1.22 2.568l-0.022-0.035c0.876 1.205 4.117 1.175 4.974 0.264s0.8-2.724 1.148-3.233c0.191-0.283 0.409-0.318 0.455-0.406 0.025-0.147 0.039-0.316 0.039-0.489 0-0.097-0.005-0.194-0.013-0.289l0.001 0.012c0-0.096-0.031-0.092-0.172-0.126-1.106-0.275-5.25-0.501-6.75 0.038-0.24 0.101-0.441 0.255-0.595 0.448l-0.002 0.003c-0.196 0.048-0.421 0.076-0.652 0.076-0.114 0-0.227-0.007-0.337-0.020l0.013 0.001c-0.097 0.012-0.21 0.019-0.324 0.019-0.231 0-0.456-0.028-0.671-0.080l0.019 0.004zM16.763 10.633v0c0.256 0.042 0.462 0.221 0.542 0.458l0.001 0.005c0.059 0.275 0.093 0.592 0.093 0.916s-0.034 0.641-0.099 0.946l0.005-0.030c-0.089 0.586-0.293 1.112-0.587 1.573l0.010-0.016c-0.895 1.113-3.857 0.983-4.592 0.023-0.566-0.739-1.531-2.935-0.352-3.559 1.018-0.536 3.941-0.647 4.974-0.298zM3.134 10.633v0c1.037-0.348 3.96-0.237 4.974 0.298 1.186 0.624 0.218 2.82-0.352 3.559-0.739 0.96-3.7 1.091-4.592-0.023-0.282-0.446-0.485-0.971-0.575-1.534l-0.003-0.024c-0.059-0.275-0.093-0.592-0.093-0.916s0.034-0.641 0.099-0.946l-0.005 0.030c0.087-0.235 0.293-0.407 0.543-0.443l0.004-0z"></path>
<path fill="#3e3b3a" style="fill: var(--color7, #3e3b3a)" d="M5.766 13.434c0.355 0 0.643-0.288 0.643-0.643s-0.288-0.643-0.643-0.643c-0.355 0-0.643 0.288-0.643 0.643v0c0 0.355 0.288 0.643 0.643 0.643v0z"></path>
<path fill="#3e3b3a" style="fill: var(--color7, #3e3b3a)" d="M14.135 13.434c0.355 0 0.643-0.288 0.643-0.643s-0.288-0.643-0.643-0.643c-0.355 0-0.643 0.288-0.643 0.643v0c0 0.355 0.288 0.643 0.643 0.643v0z"></path>
<path fill="#d6825b" style="fill: var(--color8, #d6825b)" d="M13.029 17.475c-0.679 0.783-1.675 1.276-2.787 1.276-0.041 0-0.082-0.001-0.123-0.002l0.006 0c-0.040 0.002-0.087 0.002-0.134 0.002-1.103 0-2.092-0.485-2.767-1.253l-0.004-0.004c0.789 0.613 1.783 0.998 2.864 1.040l0.010 0c1.113-0.049 2.127-0.44 2.947-1.069l-0.012 0.009z"></path>
<path fill="#e5b17d" style="fill: var(--color9, #e5b17d)" d="M8.659 16.603s0 0 0-0.023c0.004-0.038 0.024-0.071 0.053-0.092l0-0c0.473-1.047 0.829-2.263 1.009-3.536l0.008-0.072c0.26 0-0.256 2.766-0.482 3.421 0.232-0.039 0.499-0.061 0.771-0.061 0.009 0 0.018 0 0.026 0h-0.001c0.765 0 1.385 0.153 1.385 0.341s-0.62 0.344-1.385 0.344-1.343-0.142-1.385-0.321z"></path>
<path fill="#bf9141" style="fill: var(--color25, #bf9141)" d="M3.501 9.52c-0.207-0.352 0.903-0.52 2.028-0.513 1.886 0 2.897 0.937 1.99 0.895-0.677-0.027-3.956-0.279-4.018-0.383z"></path>
<path fill="#bf9141" style="fill: var(--color25, #bf9141)" d="M16.331 9.478c0.207-0.356-0.903-0.524-2.028-0.517-1.886 0-2.897 0.937-1.99 0.899 0.696-0.031 3.956-0.295 4.018-0.383z"></path>
</symbol>
<symbol id="icon-5" viewBox="0 0 21 32">
<title>5</title>
<path fill="#4a1e12" style="fill: var(--color26, #4a1e12)" d="M2.6 11.077c0.046 0.43 1.024 4.265 0.694 7.038-0.279 2.162-0.627 4.020-1.068 5.843l0.075-0.366c6.137 1.281 9.972 0.552 15.925-0.384 0 0 0.384-1.814-0.338-5.266s0.924-7.391 0.924-7.391z"></path>
<path fill="#4a1e12" style="fill: var(--color26, #4a1e12)" d="M14.333 1.665c11.787-2.018 0.625 16.328 6.854 21.049 0.89 0.671-4.047 3.632-5.888 0.583-1.151-1.918 2.62-5.408 2.861-10.329s-1.488-6.612-2.547-8.473c-0.514-0.814-0.949-1.752-1.258-2.746l-0.023-0.085z"></path>
<path fill="#4a1e12" style="fill: var(--color26, #4a1e12)" d="M15.952 2.397c0.318 2.788-0.426 3.126-2.685 4.603s-3.218 1.488-2.854 1.308 2.094-3.191 2.094-3.191c-1.362 1.083-2.91 2.029-4.569 2.772l-0.137 0.055c-2.37 0.94-3.218 0.575-3.218 0.575s2.094-2.731 1.822-2.52-2.278 1.534-2.551 2.125-0.859 3.337-0.525 6.344 3.498 8.741 1.707 9.926c-2.409 1.592-5.485-1.354-4.986-1.481 3.751-0.947 1.745-15.434 1.868-16.297 0.328-2.029 1.411-3.758 2.946-4.923l0.019-0.014c2.988-2.378 10.724-2.313 11.069 0.717z"></path>
<path fill="#df2e26" style="fill: var(--color27, #df2e26)" d="M14.192 27.133l4.020-3.034c1.761 0.579 2.271 5.573 2.447 7.901h-4.219z"></path>
<path fill="#f5b67e" style="fill: var(--color11, #f5b67e)" d="M10.575 20.804h-1.856v1.151c0 0.729-0.119 0.579-0.802 0.955-0.252 0.216-0.531 0.416-0.829 0.588l-0.027 0.014c0.825 2.658 1.423 6.072 3.034 8.469h0.959c1.615-2.397 2.209-5.811 3.034-8.469-0.324-0.187-0.604-0.386-0.863-0.608l0.007 0.006c-0.679-0.384-0.802-0.226-0.802-0.955v-1.151z"></path>
<path fill="#df2e26" style="fill: var(--color27, #df2e26)" d="M7.069 27.133l-4-3.034c-1.78 0.579-2.301 5.573-2.466 7.901h4.219z"></path>
<path fill="#e53825" style="fill: var(--color28, #e53825)" d="M7.917 22.94c-0.99 0.456-4.403 0.84-4.81 1.201 0.33 0.717 2.382 4.154 1.062 7.859h12.91c-0.071-0.527-0.112-1.135-0.112-1.754 0-2.206 0.517-4.29 1.437-6.14l-0.036 0.080c-0.384-0.349-4.066-0.74-5.055-1.193 1.201 0.932-0.963 3.801-2.739 3.924-1.78-0.127-3.839-3.061-2.658-3.977z"></path>
<path fill="#f6c085" style="fill: var(--color3, #f6c085)" d="M5.117 11.649c0.311 1.385-0.303 2.535-1.35 2.785s-2.133-0.502-2.439-1.883 0.292-2.708 1.358-2.961 2.125 0.679 2.432 2.060z"></path>
<path fill="#f6c085" style="fill: var(--color3, #f6c085)" d="M16.443 11.649c-0.311 1.385 0.303 2.535 1.35 2.785s2.133-0.502 2.439-1.883-0.288-2.708-1.339-2.961-2.144 0.679-2.451 2.060z"></path>
<path fill="#f8c997" style="fill: var(--color5, #f8c997)" d="M10.778 0.384h-0.038l-1.074-0.031v0.084h-0.115c-2.325 0.141-4.348 1.325-5.623 3.085l-0.015 0.022c-1.342 1.826-1.519 4.127-1.415 6.306 0.272 5.638 3.452 11.971 8.281 12.021 4.852-0.050 8.016-6.382 8.281-12.021 0.119-2.179-0.069-4.48-1.415-6.306-1.291-1.78-3.314-2.961-5.617-3.102l-0.021-0.001h-0.115v-0.088l-1.085 0.031z"></path>
<path fill="#4a1e12" style="fill: var(--color26, #4a1e12)" d="M6.835 0.832c0.069-0.226 3.137-0.66 3.44-0.675 1.722-0.107 3.97 0.245 5.067 0.84s2.566 2.125 2.788 2.685 0.176 0.621-2.566 2.524-6.862 2.777-5.799 2.436 1.918-2.098 1.918-2.098-0.729 0.855-4.357 2.14-4.599 0.905-4.599 0.905c-0.442-0.711-0.704-1.574-0.704-2.498 0-0.461 0.065-0.907 0.187-1.329l-0.008 0.034c0.633-2.087 1.151-2.248 2.367-3.452 0.608-0.667 1.369-1.185 2.228-1.499l0.039-0.012z"></path>
<path fill="#4a1e12" style="fill: var(--color26, #4a1e12)" d="M14.226 2.578c-0.065 0.311 0 1.971 1.918 4.514s2.060 2.769 2.060 2.769 0.058 4.656 0.081 4.461 1.020-4.829 1.020-4.829c0.048-0.404 0.076-0.872 0.076-1.346 0-0.93-0.106-1.835-0.306-2.705l0.016 0.081c-0.487-1.994-1.101-2.742-1.945-3.068s-2.919 0.123-2.919 0.123z"></path>
<path fill="#4a1e12" style="fill: var(--color26, #4a1e12)" d="M3.582 7.959c-0.334 0.376-1.35 1.247-1.35 1.247l1.097 5.151z"></path>
<path fill="#e53825" style="fill: var(--color28, #e53825)" d="M3.928 23.892c-0.333 0.052-0.632 0.156-0.905 0.303l0.015-0.007c2.010 3.836-0.959 5.347 0.134 7.813h15.216c1.093-2.466-1.876-4 0.134-7.813-0.254-0.138-0.549-0.241-0.862-0.293l-0.017-0.002c-0.506 2.535-3.383 4.491-6.866 4.491s-6.356-1.956-6.85-4.491z"></path>
<path fill="#efefef" style="fill: var(--color29, #efefef)" d="M10.575 26.918c-1.216-0.069-2.566-1.484-2.904-2.654-0.161-0.541-0.111-1.032 0.261-1.323h-0.023c-0.077 0.035-0.169 0.065-0.269 0.1-0.472 0.203-1.377 0.641-1.676 1.101-0.062 0.081-0.1 0.185-0.1 0.297 0 0.031 0.003 0.061 0.008 0.090l-0-0.003c0.142 0.767 1.304 0.767 1.304 0.767-0.016 0.11-0.025 0.238-0.025 0.368 0 0.179 0.018 0.355 0.051 0.524l-0.003-0.017c0.165 1.062 0.587 1.626 1.128 1.787 0.641 0.199 1.477-0.203 2.248-1.036z"></path>
<path fill="#efefef" style="fill: var(--color29, #efefef)" d="M10.575 26.918c1.22-0.088 2.566-1.484 2.919-2.654 0.165-0.541 0.115-1.043-0.261-1.335 0.078 0.039 0.176 0.081 0.276 0.117l0.020 0.006c0.472 0.203 1.377 0.641 1.676 1.101 0.062 0.083 0.099 0.188 0.099 0.302 0 0.029-0.002 0.057-0.007 0.085l0-0.003c-0.146 0.767-1.308 0.767-1.308 0.767 0.024 0.131 0.037 0.283 0.037 0.437s-0.014 0.306-0.039 0.453l0.002-0.016c-0.169 1.062-0.591 1.626-1.151 1.787-0.656 0.188-1.492-0.215-2.263-1.047z"></path>
<path fill="#3e3b3a" style="fill: var(--color7, #3e3b3a)" d="M10.356 12.128c0.112-0.037 0.242-0.059 0.376-0.059 0.021 0 0.043 0.001 0.064 0.002l-0.003-0c0.019-0.001 0.041-0.002 0.063-0.002 0.135 0 0.265 0.022 0.387 0.062l-0.009-0.002c0.164 0.064 0.285 0.207 0.318 0.38l0.001 0.003c0.061 0.23 0.119 0.46 0.184 0.687 0.134 0.496 0.318 0.929 0.551 1.33l-0.014-0.026c0.384 0.641 1.028 0.729 1.603 0.802 0.394 0.068 0.848 0.107 1.312 0.107 0.661 0 1.304-0.080 1.92-0.23l-0.055 0.011c0.172-0.045 0.322-0.106 0.462-0.185l-0.009 0.005c0.228-0.131 0.403-0.331 0.5-0.571l0.003-0.008c0.101-0.232 0.206-0.528 0.296-0.83l0.015-0.059 0.196-0.656c0.040-0.146 0.103-0.274 0.186-0.387l-0.002 0.003c0.060-0.088 0.124-0.192 0.182-0.299l0.010-0.019c0.036-0.070 0.058-0.153 0.061-0.241l0-0.001c0-0.303 0.031-0.618 0.035-0.921 0-0.813-3.717-0.671-4.15-0.652-0.199 0-0.384 0.023-0.591 0.038-0.752 0.048-1.453 0.175-2.124 0.374l0.068-0.017c-0.411 0.172-0.889 0.298-1.387 0.354l-0.024 0.002c-0.513-0.050-0.985-0.165-1.428-0.338l0.036 0.012c-0.603-0.181-1.304-0.308-2.027-0.355l-0.028-0.001c-0.196 0-0.384-0.031-0.591-0.038-0.433-0.019-4.165-0.161-4.15 0.652 0 0.303 0 0.618 0.035 0.921 0.003 0.089 0.025 0.171 0.063 0.245l-0.002-0.003c0.068 0.127 0.132 0.231 0.2 0.331l-0.008-0.013c0.081 0.109 0.144 0.237 0.182 0.375l0.002 0.008 0.196 0.656c0.104 0.362 0.21 0.658 0.331 0.945l-0.021-0.055c0.099 0.248 0.275 0.448 0.497 0.576l0.006 0.003c0.13 0.074 0.281 0.136 0.439 0.177l0.013 0.003c0.56 0.139 1.203 0.219 1.864 0.219 0.463 0 0.917-0.039 1.359-0.114l-0.048 0.007c0.575-0.073 1.212-0.161 1.603-0.802 0.217-0.375 0.401-0.808 0.528-1.265l0.009-0.039c0.065-0.226 0.123-0.456 0.184-0.687 0.033-0.177 0.154-0.319 0.315-0.382l0.003-0.001zM11.978 11.595v0c0.054-0.168 0.169-0.303 0.319-0.382l0.004-0.002c0.524-0.247 1.133-0.415 1.775-0.47l0.020-0.001c0.453-0.047 0.978-0.073 1.509-0.073s1.057 0.027 1.575 0.079l-0.065-0.005c0.348 0.024 0.667 0.127 0.946 0.289l-0.010-0.006c0.128 0.125 0.208 0.3 0.208 0.493 0 0.009-0 0.017-0 0.026l0-0.001c0 0.018 0 0.040 0 0.062 0 0.587-0.064 1.158-0.186 1.708l0.010-0.052c-0.087 0.47-0.239 0.889-0.448 1.272l0.011-0.022c-0.127 0.187-0.307 0.33-0.518 0.408l-0.007 0.002c-0.091 0.035-0.204 0.070-0.32 0.096l-0.018 0.003c-0.469 0.115-1.007 0.181-1.561 0.181-0.457 0-0.904-0.045-1.336-0.131l0.043 0.007c-0.219-0.035-0.437-0.084-0.652-0.134-0.35-0.068-0.638-0.287-0.799-0.585l-0.003-0.006c-0.248-0.474-0.428-1.025-0.507-1.608l-0.003-0.026c-0.037-0.204-0.058-0.438-0.058-0.678 0-0.022 0-0.044 0.001-0.066l-0 0.003c0-0.137 0.020-0.269 0.056-0.394l-0.002 0.010zM9.612 11.595v0c0.034 0.115 0.053 0.247 0.054 0.383v0c-0.005 0.265-0.032 0.52-0.081 0.768l0.005-0.028c-0.082 0.609-0.262 1.16-0.523 1.662l0.013-0.028c-0.16 0.309-0.447 0.533-0.79 0.605l-0.007 0.001c-0.215 0.050-0.433 0.1-0.652 0.134-0.389 0.079-0.835 0.124-1.292 0.124-0.554 0-1.092-0.066-1.608-0.191l0.047 0.009c-0.133-0.030-0.246-0.064-0.356-0.106l0.018 0.006c-0.219-0.081-0.398-0.223-0.523-0.407l-0.002-0.004c-0.198-0.364-0.349-0.786-0.43-1.232l-0.004-0.026c-0.112-0.498-0.177-1.069-0.177-1.656 0-0.022 0-0.044 0-0.065l-0 0.003c-0-0.007-0-0.016-0-0.024 0-0.193 0.079-0.368 0.207-0.493l0-0c0.269-0.16 0.588-0.265 0.928-0.291l0.007-0c0.423-0.041 0.914-0.064 1.411-0.064 0.566 0 1.125 0.030 1.676 0.089l-0.068-0.006c0.665 0.047 1.28 0.208 1.844 0.462l-0.034-0.014c0.151 0.083 0.263 0.219 0.313 0.383l0.001 0.005z"></path>
<path fill="#4a1e12" style="fill: var(--color26, #4a1e12)" d="M4.349 10.214c-0.384 0.157 0.253-0.874 2.121-0.913 2.179-0.050 2.842 0.997 1.983 0.698-0.529-0.177-1.138-0.279-1.771-0.279-0.845 0-1.647 0.182-2.369 0.509l0.036-0.015z"></path>
<path fill="#3e3b3a" style="fill: var(--color7, #3e3b3a)" d="M6.559 12.937c0.334-0.027 0.595-0.304 0.595-0.642s-0.261-0.616-0.592-0.642l-0.002-0c-0.015-0.001-0.032-0.002-0.050-0.002-0.356 0-0.644 0.288-0.644 0.644s0.288 0.644 0.644 0.644c0.017 0 0.035-0.001 0.052-0.002l-0.002 0z"></path>
<path fill="#3e3b3a" style="fill: var(--color7, #3e3b3a)" d="M15.001 12.937c0.001 0 0.002 0 0.004 0 0.356 0 0.644-0.288 0.644-0.644s-0.288-0.644-0.644-0.644c-0.356 0-0.644 0.288-0.644 0.644 0 0.001 0 0.003 0 0.004v-0c0 0.354 0.287 0.641 0.641 0.641v0z"></path>
<path fill="#4a1e12" style="fill: var(--color26, #4a1e12)" d="M17.586 10.214c0.384 0.157-0.253-0.874-2.121-0.913-2.179-0.050-2.842 0.997-1.983 0.698 0.529-0.176 1.138-0.278 1.77-0.278 0.845 0 1.647 0.181 2.37 0.508l-0.036-0.015z"></path>
<path fill="#d6825b" style="fill: var(--color8, #d6825b)" d="M12.581 17.889c0.027 0.113 0.042 0.244 0.042 0.378 0 0.002 0 0.004 0 0.006v-0c0.001 0.024 0.002 0.052 0.002 0.080 0 0.919-0.745 1.665-1.665 1.665s-1.665-0.745-1.665-1.665c0-0.028 0.001-0.056 0.002-0.084l-0 0.004c0-0.002 0-0.004 0-0.006 0-0.134 0.015-0.264 0.044-0.389l-0.002 0.012z"></path>
<path fill="#e5b17d" style="fill: var(--color9, #e5b17d)" d="M9.589 16.274s0 0 0 0c0.004-0.038 0.024-0.071 0.053-0.092l0-0c0.473-1.050 0.83-2.269 1.012-3.544l0.008-0.073c0.261 0-0.257 2.773-0.483 3.429 0.233-0.039 0.501-0.061 0.774-0.061 0.010 0 0.019 0 0.029 0h-0.002c0.767 0 1.388 0.153 1.388 0.341s-0.621 0.345-1.388 0.345-1.365-0.165-1.392-0.345z"></path>
</symbol>
<symbol id="icon-6" viewBox="0 0 20 32">
<title>6</title>
<path fill="#3e3b3a" style="fill: var(--color7, #3e3b3a)" d="M14.353 21.68c0 3.452-1.935 6.25-4.322 6.25s-4.322-2.798-4.322-6.25c0-3.452 1.935-6.25 4.322-6.25s4.322 2.798 4.322 6.25z"></path>
<path fill="#487d72" style="fill: var(--color30, #487d72)" d="M13.329 27.218l3.946-2.978c1.728 0.569 2.229 5.471 2.402 7.764h-4.142z"></path>
<path fill="#f5b67e" style="fill: var(--color11, #f5b67e)" d="M9.789 21.006h-1.822v1.152c0 0.602-2.752 1.386-3.325 1.566-1.709 2.978 3.264 4.706 4.849 7.060h0.941c1.585-2.353 6.024-3.953 4.601-7.060-0.569-0.181-3.423-0.964-3.423-1.566v-1.152z"></path>
<path fill="#487d72" style="fill: var(--color30, #487d72)" d="M5.945 27.587c-0.177-0.132-3.543-3.347-3.543-3.347-1.728 0.569-2.225 5.471-2.402 7.764h4.142z"></path>
<path fill="#448a7c" style="fill: var(--color31, #448a7c)" d="M4.642 23.72c-0.553 0.109-1.096 0.215-1.529 0.313h-0.855l-0.023 0.019c0.177 0.377 0.407 1.683 0.651 3.291-0.252 1.92-1.209 3.099-0.516 4.661h14.948c0.693-1.559-0.267-2.737-0.516-4.379 0.145-1.242 0.374-2.358 0.688-3.437l-0.037 0.146v-0.019h-0.817c-0.433-0.098-0.979-0.203-1.532-0.313 0.053 0.203 0.083 0.435 0.083 0.674 0 0.005 0 0.010-0 0.015v-0.001c0 2.135-2.361 3.867-5.271 3.867s-5.271-1.732-5.271-3.867c-0.027-0.149-0.042-0.322-0.042-0.497 0-0.168 0.014-0.332 0.040-0.492l-0.002 0.017z"></path>
<path fill="#f6c085" style="fill: var(--color3, #f6c085)" d="M4.432 12.485c0.301 1.359-0.297 2.489-1.325 2.733s-2.093-0.493-2.395-1.852 0.286-2.636 1.314-2.899 2.116 0.659 2.406 2.018z"></path>
<path fill="#f6c085" style="fill: var(--color3, #f6c085)" d="M15.546 12.485c-0.301 1.359 0.301 2.489 1.329 2.733s2.093-0.493 2.395-1.852-0.286-2.636-1.314-2.899-2.105 0.659-2.41 2.018z"></path>
<path fill="#f8c997" style="fill: var(--color5, #f8c997)" d="M9.989 0.971h-0.023l-1.073-0.041v0.087h-0.113c-2.282 0.138-4.267 1.298-5.52 3.025l-0.015 0.021c-1.314 1.788-1.487 4.036-1.386 6.19 0.267 5.539 3.389 11.755 8.129 11.8 4.763-0.045 7.865-6.261 8.129-11.8 0.105-2.154-0.072-4.401-1.386-6.19-1.269-1.747-3.256-2.906-5.518-3.041l-0.020-0.001h-0.109v-0.090l-1.069 0.041z"></path>
<path fill="#3e3b3a" style="fill: var(--color7, #3e3b3a)" d="M13.374 3.118c-0.064 0.305 0 1.932 1.883 4.432s2.022 2.715 2.022 2.715 0 4.334 0.245 3.803 0.753-3.803 0.753-3.999c0.074-0.488 0.117-1.052 0.117-1.625 0-0.857-0.095-1.692-0.274-2.494l0.014 0.076c-0.478-1.954-1.081-2.692-1.909-3.012s-2.85 0.105-2.85 0.105z"></path>
<path fill="#3e3b3a" style="fill: var(--color7, #3e3b3a)" d="M2.922 8.396c-0.324 0.377-1.374 1.25-1.374 1.25 0.309 1.487 0.58 4.232 0.934 4.458 0.154-0.403 0.29-3.114 0.441-5.708z"></path>
<path fill="#3e3b3a" style="fill: var(--color7, #3e3b3a)" d="M17.263 10.264c0.087-1.427 0.817-4.688 0.459-5.576-1.035-2.564-2.933-3.603-6.115-3.935-0.269-0.026-0.581-0.041-0.896-0.041s-0.628 0.015-0.935 0.044l0.039-0.003c1.826 3.012 3.362 7.022 7.447 9.511z"></path>
<path fill="#3e3b3a" style="fill: var(--color7, #3e3b3a)" d="M14.195 3.893c-0.64 4.014-9.138 2.726-11.936 7.568-3.11-4.706 1.657-14.349 9.955-10.625z"></path>
<path fill="#3e3b3a" style="fill: var(--color7, #3e3b3a)" d="M5.874 13.532c0.001 0 0.002 0 0.004 0 0.349 0 0.633-0.283 0.633-0.633s-0.283-0.633-0.633-0.633c-0.349 0-0.633 0.283-0.633 0.633 0 0.001 0 0.003 0 0.004v-0c0 0.347 0.282 0.629 0.629 0.629v0z"></path>
<path fill="#3e3b3a" style="fill: var(--color7, #3e3b3a)" d="M14.737 12.903c0 0.347-0.281 0.629-0.629 0.629s-0.629-0.281-0.629-0.629c0-0.347 0.281-0.629 0.629-0.629s0.629 0.281 0.629 0.629z"></path>
<path fill="#e5b17d" style="fill: var(--color9, #e5b17d)" d="M8.69 16.092s0 0 0-0.019c0.004-0.037 0.024-0.069 0.052-0.090l0-0c0.462-1.033 0.812-2.232 0.989-3.486l0.008-0.072c0.252 0-0.256 2.722-0.474 3.366 0.228-0.038 0.491-0.060 0.759-0.060 0.009 0 0.017 0 0.026 0h-0.001c0.753 0 1.363 0.151 1.363 0.335s-0.61 0.339-1.363 0.339-1.322-0.136-1.359-0.313z"></path>
<path fill="#3e3b3a" style="fill: var(--color7, #3e3b3a)" d="M11.838 10.52c-0.377 0.154 0.245-0.855 2.078-0.896 2.139-0.045 2.79 0.983 1.947 0.689-0.52-0.175-1.119-0.275-1.741-0.275-0.827 0-1.612 0.178-2.319 0.497l0.036-0.014z"></path>
<path fill="#3e3b3a" style="fill: var(--color7, #3e3b3a)" d="M8.144 10.52c0.377 0.154-0.248-0.855-2.082-0.896-2.139-0.045-2.79 0.983-1.947 0.689 0.521-0.175 1.12-0.276 1.744-0.276 0.827 0 1.613 0.178 2.321 0.497l-0.036-0.014z"></path>
<path fill="#5a5858" style="fill: var(--color32, #5a5858)" d="M15.742 10.942c0.892 0.094 1.224 0.493 1.179 1.412-0.090 1.841-0.693 2.843-2.557 3.11-1.736 0.245-2.76-0.505-3.095-2.342-0.113-0.61-0.068-1.325 0.52-1.672 0.953-0.561 2.82-0.625 3.953-0.508zM4.273 10.942c1.133-0.117 3.001-0.053 3.953 0.508 0.587 0.346 0.629 1.062 0.52 1.672-0.335 1.837-1.363 2.587-3.099 2.342-1.883-0.267-2.477-1.269-2.568-3.11-0.045-0.919 0.282-1.318 1.179-1.412v0zM9.255 11.612v0c-0.104-0.009-0.193-0.070-0.24-0.157l-0.001-0.002c-0.104-0.187-0.255-0.336-0.438-0.434l-0.006-0.003c-0.836-0.474-3.279-0.55-4.232-0.55 0 0-0.858 0-1.273 0.034-0.338 0.010-0.66 0.054-0.97 0.127l0.033-0.007c-0.054 0.036-0.088 0.097-0.088 0.166 0 0.009 0.001 0.018 0.002 0.027l-0-0.001c0 0.282 0.023 0.569 0.056 0.851 0.003 0.050 0.030 0.093 0.071 0.116l0.001 0c0.175 0.095 0.297 0.268 0.32 0.472l0 0.003c0.138 0.913 0.446 1.732 0.893 2.457l-0.016-0.028c0.244 0.35 0.581 0.621 0.976 0.778l0.015 0.005c1.054 0.456 2.636 0.538 3.603-0.218 0.472-0.475 0.828-1.065 1.021-1.726l0.007-0.029c0.093-0.254 0.186-0.575 0.26-0.904l0.011-0.056c0.014-0.058 0.025-0.13 0.033-0.203l0.001-0.008c0-0.102 0.045-0.139 0.147-0.132 0.169 0.015 0.366 0.023 0.565 0.023s0.396-0.008 0.59-0.025l-0.025 0.002c0.105 0 0.139 0.030 0.151 0.132 0.007 0.080 0.018 0.152 0.032 0.223l-0.002-0.012c0.088 0.391 0.181 0.712 0.291 1.025l-0.020-0.065c0.203 0.688 0.558 1.278 1.028 1.755l-0-0.001c0.964 0.753 2.553 0.674 3.607 0.218 0.404-0.165 0.737-0.435 0.974-0.776l0.005-0.007c0.429-0.697 0.738-1.516 0.873-2.392l0.005-0.037c0.020-0.206 0.141-0.38 0.313-0.473l0.003-0.002c0.042-0.024 0.071-0.066 0.075-0.116l0-0.001c0.034-0.282 0.045-0.569 0.053-0.851 0.002-0.009 0.002-0.020 0.002-0.030 0-0.067-0.033-0.126-0.085-0.161l-0.001-0c-0.279-0.067-0.602-0.11-0.934-0.12l-0.008-0c-0.414-0.019-1.273-0.034-1.273-0.034-0.953 0-3.389 0.068-4.232 0.55-0.188 0.102-0.339 0.251-0.441 0.431l-0.003 0.005c-0.047 0.087-0.134 0.148-0.236 0.158l-0.001 0c-0.224 0.038-0.482 0.059-0.745 0.059s-0.521-0.022-0.773-0.063l0.027 0.004z"></path>
<path fill="#d6825b" style="fill: var(--color8, #d6825b)" d="M12.681 17.534c-0.668 0.76-1.642 1.237-2.728 1.237-0.046 0-0.091-0.001-0.136-0.003l0.007 0c-0.038 0.001-0.082 0.002-0.126 0.002-1.086 0-2.060-0.477-2.724-1.233l-0.003-0.004c0.774 0.603 1.749 0.982 2.811 1.024l0.009 0c1.095-0.041 2.094-0.42 2.904-1.033l-0.013 0.009z"></path>
</symbol>
<symbol id="icon-7" viewBox="0 0 20 32">
<title>7</title>
<path fill="#e7a123" style="fill: var(--color33, #e7a123)" d="M7.366 27.29c-0.171-0.126-3.994-1.929-3.994-1.929-1.706 0.564-2.088 4.384-2.259 6.639h4.080z"></path>
<path fill="#e7a123" style="fill: var(--color33, #e7a123)" d="M14.146 27.29c0.171-0.126 3.994-1.929 3.994-1.929 1.702 0.564 2.084 4.384 2.259 6.639h-4.080z"></path>
<path fill="#f5b67e" style="fill: var(--color11, #f5b67e)" d="M10.756 21.17h-1.795v1.135c0 0.705-0.119 0.556-0.775 0.924-0.243 0.208-0.514 0.4-0.8 0.568l-0.027 0.014c0.801 2.567 1.372 5.86 2.934 8.189h0.927c1.558-2.329 2.133-5.623 2.934-8.189-0.313-0.182-0.584-0.375-0.835-0.589l0.008 0.007c-0.66-0.371-0.775-0.219-0.775-0.924v-1.135z"></path>
<path fill="#f3ab1c" style="fill: var(--color34, #f3ab1c)" d="M8.185 23.236c-0.957 0.438-4.451 1.806-4.822 2.144 0.3 0.694 0.783 3.549 1.198 6.62h12.388c0.415-3.071 0.898-5.927 1.224-6.62-0.371-0.337-3.879-1.706-4.822-2.144 0.575 3.839-5.875 3.368-5.166 0z"></path>
<path fill="#f6c085" style="fill: var(--color3, #f6c085)" d="M15.577 12.744c-0.028 0.134-0.044 0.287-0.044 0.444 0 1.15 0.858 2.1 1.969 2.244l0.011 0.001c1.324 0.241 2.596-0.482 2.863-1.821 0.030-0.142 0.047-0.306 0.047-0.474 0-1.188-0.857-2.176-1.987-2.38l-0.015-0.002c-0.122-0.021-0.263-0.034-0.406-0.034-1.208 0-2.214 0.863-2.436 2.006l-0.003 0.016z"></path>
<path fill="#f6c085" style="fill: var(--color3, #f6c085)" d="M6.305 12.744c0.029 0.135 0.045 0.289 0.045 0.448 0 1.148-0.857 2.096-1.966 2.24l-0.011 0.001c-1.328 0.241-2.596-0.482-2.863-1.821-0.031-0.144-0.048-0.31-0.048-0.48 0-1.181 0.848-2.165 1.969-2.373l0.015-0.002c0.127-0.023 0.274-0.037 0.424-0.037 1.208 0 2.214 0.865 2.433 2.009l0.002 0.015z"></path>
<path fill="#f8c997" style="fill: var(--color5, #f8c997)" d="M17.55 4.48c-1.25-1.721-3.207-2.862-5.436-2.996l-0.020-0.001h-0.111v-0.089l-1.057 0.041-1.057-0.041v0.089h-0.111c-2.249 0.134-4.206 1.276-5.441 2.976l-0.014 0.021c-1.287 1.762-1.458 3.976-1.357 6.097 0.263 5.456 0.742 11.564 8.007 11.624s7.7-6.209 7.963-11.624c0.1-2.121-0.070-4.336-1.365-6.097z"></path>
<path fill="#d6825b" style="fill: var(--color8, #d6825b)" d="M12.44 16.69c0.026 0.11 0.041 0.236 0.041 0.365 0 0.002 0 0.004 0 0.006v-0c0.004 0.040 0.006 0.087 0.006 0.134 0 0.889-0.721 1.61-1.61 1.61s-1.61-0.721-1.61-1.61c0-0.047 0.002-0.094 0.006-0.14l-0 0.006c0-0.002 0-0.004 0-0.006 0-0.129 0.015-0.255 0.043-0.376l-0.002 0.011z"></path>
<path fill="#a74125" style="fill: var(--color35, #a74125)" d="M3.338 12.239c0.096-2.010 0.122-5.645 1.88-5.645 0.045 0 5.348-2.196 11.453-2.196 1.406 0 1.754 3.991 1.78 6.617 0 0.541 0.041 1.083 0.074 1.624 0.019 0.315 0.041 0.63 0.056 0.949 0 0.13 0.041 0.471 0.208 0.441s0.208-0.742 0.226-0.883c0.109-0.883 0.172-1.904 0.172-2.94 0-0.082-0-0.165-0.001-0.247l0 0.013c0-1.443-0.041-3.675-1.294-5.786-0.441-0.742-0.742-1.639-1.643-2.248-2.155-1.446-6.476-0.827-8.946-0.007-1.739 0.567-3.483 1.272-4.095 2.993-0.675 1.888-0.656 3.364-0.434 7.102 0.022 0.408 0.070 0.812 0.126 1.216 0.037 0.267 0.070 0.541 0.134 0.801 0.141 0.571 0.337 0.163 0.334-0.193-0.011-0.541-0.030-1.079-0.030-1.613z"></path>
<path fill="#a74125" style="fill: var(--color35, #a74125)" d="M17.187 2.63c-0.234-5.378-10.659-0.879-11.994-0.634-3.312 0.601-4.662-1.528-4.662-1.528-2.129 6.071 2.225 11.145 11.82 4.781 1.762-1.168 3.861-0.404 3.861-0.404 1.706 2.225 2.44 2.596 2.789 5.66 0 0 0.256-2.136 0.701-4.358 0.464-2.325-0.586-3.779-2.515-3.516z"></path>
<path fill="#a74125" style="fill: var(--color35, #a74125)" d="M3.034 14.045c0 0.237 0.961 4.773 1.613 5.63s2.885 2.14 3.256 2.225c0.293 0.067 2.244 0.389 3.056 0.523 0.809-0.134 2.759-0.456 3.052-0.523 0.371-0.085 2.641-1.484 3.256-2.225s1.921-6.249 1.569-5.897c-1.328 2.652-1.528 6.476-6.876 6.476-0.263 0-0.79-0.412-1.001-0.586-0.215 0.174-0.742 0.586-1.005 0.586-5.348 0-5.593-3.564-6.921-6.209z"></path>
<path fill="#a74125" style="fill: var(--color35, #a74125)" d="M6.216 17.205c1.484 0.831 4.414 0.208 4.703-0.371 0.289 0.567 3.216 1.191 4.703 0.371-2.34-0.467-3.535-1.535-4.703-1.176-1.168-0.36-2.363 0.708-4.703 1.176z"></path>
<path fill="#ed8322" style="fill: var(--color36, #ed8322)" d="M5.389 24.434c0.045 0.152 0.315 7.566 0.315 7.566h1.484l-0.538-8.111z"></path>
<path fill="#ed8322" style="fill: var(--color36, #ed8322)" d="M16.178 24.434c-0.044 0.152-0.315 7.566-0.315 7.566h-1.484l0.541-8.111z"></path>
<path fill="#3e3b3a" style="fill: var(--color7, #3e3b3a)" d="M6.872 13.845c0.342 0 0.619-0.277 0.619-0.619s-0.277-0.619-0.619-0.619c-0.342 0-0.619 0.277-0.619 0.619v0c0.002 0.341 0.278 0.617 0.619 0.619h0z"></path>
<path fill="#3e3b3a" style="fill: var(--color7, #3e3b3a)" d="M14.984 13.845c0.342 0 0.619-0.277 0.619-0.619s-0.277-0.619-0.619-0.619c-0.342 0-0.619 0.277-0.619 0.619v0c0.002 0.341 0.278 0.617 0.619 0.619h0z"></path>
<path fill="#ed7f22" style="fill: var(--color13, #ed7f22)" d="M4.903 11.323c-0.2-0.345 0.875-0.508 1.966-0.501 1.828 0 2.808 0.909 1.929 0.872-0.638-0.030-3.835-0.271-3.894-0.371z"></path>
<path fill="#ed7f22" style="fill: var(--color13, #ed7f22)" d="M16.953 11.401c0.208-0.341-0.864-0.523-1.955-0.538-1.828-0.022-2.822 0.853-1.943 0.831 0.668-0.015 3.839-0.197 3.898-0.293z"></path>
<path fill="#e5b17d" style="fill: var(--color9, #e5b17d)" d="M9.599 15.607s0 0 0 0c0.002-0.037 0.020-0.069 0.048-0.089l0-0c0.457-1.015 0.802-2.194 0.978-3.427l0.008-0.071c0.252 0-0.248 2.678-0.464 3.316 0.223-0.038 0.48-0.059 0.742-0.059 0.010 0 0.021 0 0.031 0h-0.002c0.742 0 1.343 0.148 1.343 0.33s-0.601 0.334-1.343 0.334-1.298-0.159-1.343-0.334z"></path>
</symbol>
<symbol id="icon-8" viewBox="0 0 19 32">
<title>8</title>
<path fill="#bc6b4e" style="fill: var(--color37, #bc6b4e)" d="M9.661 5.184c1.783 0 3.269-1.162 3.269-2.592s-1.469-2.592-3.269-2.592-3.269 1.166-3.269 2.592 1.469 2.592 3.269 2.592z"></path>
<path fill="#f5b67e" style="fill: var(--color11, #f5b67e)" d="M12.62 27.472l3.736-2.82c1.636 0.538 2.111 5.18 2.274 7.348h-3.922z"></path>
<path fill="#f5b67e" style="fill: var(--color11, #f5b67e)" d="M9.269 21.59h-1.726v1.091c0 0.677-0.111 0.535-0.745 0.888-0.234 0.2-0.494 0.385-0.769 0.546l-0.026 0.014c0.77 2.467-2.403 5.643-0.902 7.872h8.235c1.497-2.228-1.119-5.348-0.802-7.872-0.301-0.175-0.561-0.36-0.803-0.566l0.008 0.006c-0.635-0.357-0.745-0.21-0.745-0.888v-1.091z"></path>
<path fill="#f5b67e" style="fill: var(--color11, #f5b67e)" d="M6.011 27.472l-3.736-2.82c-1.636 0.538-2.107 5.18-2.275 7.348h3.922z"></path>
<path fill="#a3465f" style="fill: var(--color38, #a3465f)" d="M6.799 23.569c-1.134 0.517-4.032 0.592-4.688 1.155 0.266 0.888 0.485 1.949 0.615 3.037l0.009 0.093c-0.239 1.554-1.144 2.67-0.488 4.146h14.153c0.656-1.476-0.253-2.592-0.488-4.146 0.139-1.183 0.358-2.245 0.659-3.273l-0.035 0.139c-0.449-0.389-4.332-0.948-4.781-1.151 2.906 8.752-8.278 8.431-4.955 0z"></path>
<path fill="#f6c085" style="fill: var(--color3, #f6c085)" d="M4.196 13.74c0.285 1.287-0.282 2.357-1.255 2.588s-1.982-0.467-2.267-1.75 0.271-2.517 1.244-2.749 2.004 0.627 2.278 1.911z"></path>
<path fill="#f6c085" style="fill: var(--color3, #f6c085)" d="M14.72 13.74c-0.285 1.287 0.285 2.357 1.258 2.588s1.982-0.467 2.267-1.75-0.271-2.517-1.244-2.749-1.993 0.627-2.282 1.911z"></path>
<path fill="#f8c997" style="fill: var(--color5, #f8c997)" d="M9.458 2.62h-0.021l-1.016-0.039v0.078h-0.107c-2.161 0.132-4.041 1.232-5.227 2.867l-0.014 0.020c-1.244 1.69-1.408 3.822-1.312 5.861 0.253 5.244 3.209 11.13 7.697 11.173 4.51-0.043 7.447-5.929 7.697-11.173 0.1-2.039-0.068-4.171-1.312-5.861-1.201-1.653-3.080-2.75-5.221-2.88l-0.019-0.001h-0.107v-0.086l-1.012 0.039z"></path>
<path fill="#a95c40" style="fill: var(--color39, #a95c40)" d="M12.87 4.824c-0.061 0.289 0 1.832 1.783 4.196s1.911 2.574 1.911 2.574 0 3.747 0 3.565 0.809-3.75 0.809-3.75c0.125-0.576 0.196-1.238 0.196-1.916s-0.071-1.34-0.207-1.978l0.011 0.062c-0.453-1.854-1.023-2.549-1.808-2.852s-2.695 0.1-2.695 0.1z"></path>
<path fill="#a95c40" style="fill: var(--color39, #a95c40)" d="M2.767 9.651c-0.307 0.357-1.070 2.246-1.070 2.246l0.663 3.241z"></path>
<path fill="#a95c40" style="fill: var(--color39, #a95c40)" d="M16.553 11.594c0.082-1.351 0.567-4.613 0.228-5.455-0.98-2.428-2.777-3.412-5.79-3.715-0.254-0.025-0.55-0.039-0.848-0.039s-0.594 0.014-0.886 0.042l0.037-0.003c1.729 2.845 3.398 6.809 7.258 9.169z"></path>
<path fill="#a95c40" style="fill: var(--color39, #a95c40)" d="M13.44 5.387c-0.606 3.811-8.652 2.581-11.301 7.166-0.56 0.973-2.906-10.082 7.358-10.153z"></path>
<path fill="#3e3b3a" style="fill: var(--color7, #3e3b3a)" d="M5.918 14.841c0.329-0 0.595-0.267 0.595-0.595s-0.267-0.595-0.595-0.595-0.595 0.267-0.595 0.595c0 0.005 0 0.010 0 0.015v-0.001c0.008 0.323 0.271 0.581 0.595 0.581 0 0 0 0 0 0v0z"></path>
<path fill="#3e3b3a" style="fill: var(--color7, #3e3b3a)" d="M13.002 14.841c0.329-0 0.595-0.267 0.595-0.595s-0.267-0.595-0.595-0.595-0.595 0.267-0.595 0.595c0 0.005 0 0.010 0 0.015v-0.001c0.008 0.323 0.271 0.581 0.595 0.581 0 0 0 0 0 0v0z"></path>
<path fill="#e5b17d" style="fill: var(--color9, #e5b17d)" d="M8.146 17.269s0 0 0 0c0.001-0.036 0.019-0.068 0.046-0.089l0-0c0.44-0.975 0.772-2.106 0.94-3.291l0.008-0.068c0.242 0-0.239 2.574-0.446 3.187 0.212-0.039 0.456-0.061 0.706-0.061 0.013 0 0.025 0 0.038 0h-0.002c0.713 0 1.291 0.143 1.291 0.321s-0.578 0.317-1.291 0.317-1.237-0.15-1.291-0.317z"></path>
<path fill="#913e22" style="fill: var(--color14, #913e22)" d="M10.866 12.717c-0.357 0.15 0.232-0.809 1.971-0.848 2.025-0.043 2.638 0.93 1.843 0.652-0.493-0.166-1.061-0.261-1.651-0.261-0.783 0-1.527 0.168-2.197 0.471l0.034-0.014z"></path>
<path fill="#913e22" style="fill: var(--color14, #913e22)" d="M8.053 12.717c0.357 0.146-0.235-0.809-1.971-0.848-2.025-0.043-2.642 0.93-1.843 0.652 0.493-0.166 1.061-0.261 1.651-0.261 0.783 0 1.527 0.168 2.197 0.471l-0.034-0.014z"></path>
<path fill="#d6825b" style="fill: var(--color8, #d6825b)" d="M10.902 19.012c-0.264 1.494-2.67 1.494-2.938 0 0.442 0.078 0.95 0.123 1.469 0.123s1.027-0.045 1.521-0.131l-0.053 0.008z"></path>
</symbol>
<symbol id="icon-9" viewBox="0 0 20 32">
<title>9</title>
<path fill="#9b5538" style="fill: var(--color40, #9b5538)" d="M6.363 27.211c-0.174-0.132-4.065-1.962-4.065-1.962-1.732 0.57-2.121 4.461-2.298 6.752h4.151z"></path>
<path fill="#9b5538" style="fill: var(--color40, #9b5538)" d="M13.262 27.211c0.174-0.132 4.065-1.962 4.065-1.962 1.732 0.57 2.121 4.461 2.298 6.752h-4.151z"></path>
<path fill="#f5b67e" style="fill: var(--color11, #f5b67e)" d="M9.812 20.984h-1.827v1.132c0 0.717-0.117 0.57-0.789 0.94-0.248 0.213-0.523 0.409-0.815 0.579l-0.026 0.014c0.811 2.615 1.4 5.974 2.985 8.333h0.944c1.585-2.359 2.174-5.718 2.985-8.333-0.319-0.184-0.594-0.38-0.849-0.599l0.007 0.006c-0.672-0.377-0.789-0.223-0.789-0.94v-1.132z"></path>
<path fill="#a95c40" style="fill: var(--color39, #a95c40)" d="M7.197 23.086c-0.974 0.442-4.529 1.834-4.906 2.178 0.321 0.706 0.811 3.612 1.234 6.737h12.59c0.423-3.125 0.913-6.038 1.234-6.737-0.377-0.343-3.948-1.736-4.906-2.178 1.23 0.966-1.955 3.657-2.63 4.465l-1.351-1.51c-0.102-0.264-2.423-2.042-1.264-2.955z"></path>
<path fill="#934d33" style="fill: var(--color41, #934d33)" d="M9.518 27.411l0.294 0.143 0.294-0.143v4.589h-0.589v-4.589z"></path>
<path fill="#f6c085" style="fill: var(--color3, #f6c085)" d="M14.719 12.639c-0.028 0.136-0.045 0.292-0.045 0.452 0 1.17 0.873 2.136 2.003 2.283l0.012 0.001c1.347 0.245 2.642-0.491 2.914-1.853 0.031-0.146 0.049-0.314 0.049-0.486 0-1.201-0.861-2.202-1.999-2.418l-0.015-0.002c-0.131-0.024-0.282-0.038-0.436-0.038-1.23 0-2.255 0.88-2.479 2.045l-0.003 0.016z"></path>
<path fill="#f6c085" style="fill: var(--color3, #f6c085)" d="M5.284 12.639c0.029 0.136 0.045 0.293 0.045 0.453 0 1.168-0.869 2.132-1.996 2.282l-0.012 0.001c-1.347 0.245-2.642-0.491-2.914-1.853-0.031-0.146-0.048-0.314-0.048-0.486 0-1.201 0.861-2.202 1.999-2.418l0.015-0.002c0.129-0.023 0.277-0.037 0.428-0.037 1.23 0 2.254 0.879 2.479 2.044l0.003 0.016z"></path>
<path fill="#f8c997" style="fill: var(--color5, #f8c997)" d="M16.727 3.997c-1.272-1.751-3.263-2.913-5.531-3.048l-0.020-0.001h-0.113v-0.091l-1.076 0.045-1.076-0.045v0.087h-0.113c-2.286 0.14-4.274 1.302-5.529 3.032l-0.015 0.021c-1.317 1.793-1.491 4.050-1.389 6.193 0.268 5.548 0.755 11.764 8.148 11.824s7.835-6.299 8.103-11.824c0.102-2.144-0.072-4.401-1.389-6.193z"></path>
<path fill="#bf9141" style="fill: var(--color25, #bf9141)" d="M17.927 13.119c0-0.215 1.159-5.952 0.879-8.393s-1.887-2.559-2.223-2.608c-0.193-0.021-0.369-0.073-0.53-0.151l0.010 0.004s-1.427-1.132-4.276-1.823-6.88 1.427-9.084 0.23c-1.057 1.102-0.438 3.261-0.438 3.261-0.541 0.262-0.925 0.773-1.007 1.38l-0.001 0.009c-0.208 1.094 0.811 8.137 0.811 8.137s0.438-5.431 1.098-6.193c0 0 4.699 0.86 13.209-2.359 1.713-0.653 1.117 6.446 1.551 8.507z"></path>
<path fill="#3e3b3a" style="fill: var(--color7, #3e3b3a)" d="M5.865 14.051c0.35 0 0.634-0.284 0.634-0.634s-0.284-0.634-0.634-0.634c-0.35 0-0.634 0.284-0.634 0.634 0 0.001 0 0.003 0 0.004v-0c0 0 0 0 0 0 0 0.348 0.282 0.63 0.63 0.63 0.001 0 0.003 0 0.004 0h-0z"></path>
<path fill="#3e3b3a" style="fill: var(--color7, #3e3b3a)" d="M14.119 14.051c0.35 0 0.634-0.284 0.634-0.634s-0.284-0.634-0.634-0.634c-0.35 0-0.634 0.284-0.634 0.634 0 0.001 0 0.003 0 0.004v-0c0 0 0 0 0 0 0 0.348 0.282 0.63 0.63 0.63 0.001 0 0.003 0 0.004 0h-0z"></path>
<path fill="#bf9141" style="fill: var(--color25, #bf9141)" d="M3.857 11.462c-0.204-0.351 0.891-0.517 2-0.509 1.861 0 2.857 0.925 1.962 0.887-0.649-0.030-3.902-0.275-3.963-0.377z"></path>
<path fill="#bf9141" style="fill: var(--color25, #bf9141)" d="M16.123 11.541c0.211-0.347-0.879-0.532-1.989-0.547-1.861-0.023-2.876 0.868-1.981 0.845 0.679-0.015 3.906-0.196 3.97-0.298z"></path>
<path fill="#d6825b" style="fill: var(--color8, #d6825b)" d="M12.386 17.738c-0.377 2.166-3.883 2.166-4.268 0 1.159 1.532 3.11 1.532 4.268 0z"></path>
<path fill="#e5b17d" style="fill: var(--color9, #e5b17d)" d="M8.827 16.606s0 0 0 0c0.003-0.039 0.023-0.073 0.052-0.094l0-0c0.466-1.033 0.818-2.232 0.996-3.488l0.008-0.071c0.257 0-0.253 2.729-0.476 3.374 0.229-0.050 0.497-0.086 0.771-0.098l0.010-0c0.755 0 1.366 0.151 1.366 0.34s-0.611 0.336-1.366 0.336-1.321-0.128-1.362-0.298z"></path>
<path fill="#d97b5a" style="fill: var(--color42, #d97b5a)" d="M6.337 25.237c1.43 1.815 3.555 2.438 3.476 2.313s-2.095-2.895-2.246-3.657c-0.024-0.092-0.037-0.198-0.037-0.308 0-0.34 0.132-0.649 0.348-0.878l-0.001 0.001c0.159-0.185 0.109-0.596 0.109-0.868-2.113-0.064-3.080 1.581-1.649 3.397z"></path>
<path fill="#d97b5a" style="fill: var(--color42, #d97b5a)" d="M13.292 25.237c-1.434 1.815-3.559 2.438-3.48 2.313s2.095-2.895 2.264-3.657c0.023-0.091 0.036-0.195 0.036-0.302 0-0.342-0.133-0.653-0.35-0.884l0.001 0.001c-0.159-0.185-0.109-0.596-0.109-0.868 2.098-0.064 3.065 1.581 1.638 3.397z"></path>
</symbol>
<symbol id="icon-10" viewBox="0 0 20 32">
<title>10</title>
<path fill="#443d47" style="fill: var(--color43, #443d47)" d="M6.414 27.172c-0.175-0.133-4.098-1.982-4.098-1.982-1.746 0.578-2.138 4.486-2.317 6.81h4.185z"></path>
<path fill="#443d47" style="fill: var(--color43, #443d47)" d="M13.369 27.172c0.175-0.133 4.098-1.982 4.098-1.982 1.746 0.578 2.138 4.486 2.317 6.81h-4.185z"></path>
<path fill="#f5b67e" style="fill: var(--color11, #f5b67e)" d="M9.892 20.895h-1.841v1.141c0 0.723-0.118 0.575-0.795 0.947-0.25 0.218-0.527 0.418-0.823 0.591l-0.026 0.014c0.822 2.663 1.412 6.034 3.009 8.412h0.951c1.598-2.378 2.188-5.749 3.009-8.412-0.321-0.185-0.599-0.383-0.856-0.603l0.007 0.006c-0.677-0.38-0.795-0.224-0.795-0.947v-1.141z"></path>
<path fill="#4d4351" style="fill: var(--color44, #4d4351)" d="M9.892 27.225c-3.044-0.24-2.602-4.185-2.637-4.212-0.982 0.445-4.565 1.849-4.946 2.195 0.323 0.711 0.818 3.641 1.244 6.791h12.692c0.426-3.15 0.921-6.087 1.244-6.791-0.38-0.346-3.98-1.75-4.946-2.195-0.049 0.019 0.392 3.972-2.652 4.212z"></path>
<path fill="#f6c085" style="fill: var(--color3, #f6c085)" d="M14.838 12.692c-0.038 0.163-0.059 0.35-0.059 0.543 0 1.223 0.873 2.242 2.029 2.468l0.016 0.003c0.156 0.036 0.335 0.056 0.519 0.056 1.226 0 2.242-0.904 2.416-2.082l0.002-0.013c0.262-1.499-0.624-2.929-1.982-3.2s-2.697 0.727-2.941 2.226z"></path>
<path fill="#f6c085" style="fill: var(--color3, #f6c085)" d="M5.326 12.692c0.038 0.164 0.060 0.351 0.060 0.544 0 1.22-0.869 2.237-2.022 2.467l-0.016 0.003c-0.156 0.036-0.335 0.056-0.519 0.056-1.226 0-2.242-0.904-2.416-2.082l-0.002-0.013c-0.263-1.491 0.624-2.929 1.982-3.2s2.678 0.727 2.933 2.226z"></path>
<path fill="#f8c997" style="fill: var(--color5, #f8c997)" d="M16.862 3.77c-1.282-1.765-3.29-2.936-5.576-3.073l-0.021-0.001h-0.114v-0.091l-1.084 0.046-1.084-0.046v0.088h-0.114c-2.304 0.141-4.309 1.313-5.574 3.056l-0.015 0.022c-1.328 1.807-1.503 4.078-1.4 6.258 0.080 1.644 0.38 4.299 0.453 5.947 2.115 7.902 13.51 8.031 15.477 0 0.084-1.647 0.38-4.303 0.453-5.947 0.103-2.18-0.072-4.451-1.4-6.258z"></path>
<path fill="#a95c40" style="fill: var(--color39, #a95c40)" d="M3.344 6.803c-0.107 0.228 0.498-2.054 1.822-2.096 1.385-0.042 9.998 0.483 10.44-0.091 1.457 1.845 2.522 9.169 2.606 9.154 0.194-0.038 0.217-0.761 0.236-0.909 0.124-0.931 0.195-2.008 0.195-3.101 0-0.061-0-0.123-0.001-0.184l0 0.009c0-2.009 0.582-5.874-3.044-8.283-2.233-1.48-6.848-1.628-9.424-0.791-1.788 0.586-3.508 2.108-4.143 3.881-0.704 1.948-0.685 3.47-0.453 7.328 0.023 0.418 0.072 0.837 0.129 1.252 0.042 0.274 0.076 0.559 0.145 0.829 0.335 1.469 0.369-5.262 1.491-6.997z"></path>
<path fill="#a95c40" style="fill: var(--color39, #a95c40)" d="M16.945 3.093c-0.282 2.815-3.934 4.995-6.643 4.995l0.791-0.761c-3.044 0.928-4.748 0.297-4.744 0.297 0.499-0.161 0.916-0.331 1.317-0.528l-0.058 0.026c-1.731 0.053-3.481 0.080-4.824-1.176l1.937-3.424z"></path>
<path fill="#3e3b3a" style="fill: var(--color7, #3e3b3a)" d="M5.912 13.921c0.353 0 0.639-0.286 0.639-0.639s-0.286-0.639-0.639-0.639c-0.353 0-0.639 0.286-0.639 0.639 0 0.001 0 0.003 0 0.004v-0c0 0 0 0 0 0 0 0.351 0.284 0.635 0.635 0.635 0.001 0 0.003 0 0.004 0h-0z"></path>
<path fill="#3e3b3a" style="fill: var(--color7, #3e3b3a)" d="M14.233 13.921c0.353 0 0.639-0.286 0.639-0.639s-0.286-0.639-0.639-0.639c-0.353 0-0.639 0.286-0.639 0.639 0 0.001 0 0.003 0 0.004v-0c0 0 0 0 0 0 0 0.351 0.284 0.635 0.635 0.635 0.001 0 0.003 0 0.004 0h-0z"></path>
<path fill="#a95c40" style="fill: var(--color39, #a95c40)" d="M3.721 11.501c-0.232-0.339 0.845-0.59 1.986-0.67 1.872-0.129 2.941 0.704 2.039 0.734-0.689 0.027-3.942 0.030-4.025-0.065z"></path>
<path fill="#a95c40" style="fill: var(--color39, #a95c40)" d="M16.051 11.551c0.244-0.327-0.833-0.62-1.944-0.761-1.864-0.205-2.968 0.59-2.070 0.654 0.673 0.065 3.941 0.202 4.014 0.107z"></path>
<path fill="#d6825b" style="fill: var(--color8, #d6825b)" d="M12.175 17.798c-0.38 2.188-3.915 2.188-4.303 0 0.647 0.115 1.391 0.181 2.151 0.181s1.505-0.066 2.228-0.193l-0.077 0.011z"></path>
<path fill="#e5b17d" style="fill: var(--color9, #e5b17d)" d="M8.655 16.512s0 0 0 0c0.003-0.039 0.023-0.073 0.053-0.095l0-0c0.47-1.042 0.824-2.251 1.004-3.516l0.008-0.072c0.259 0-0.255 2.751-0.479 3.401 0.23-0.039 0.496-0.061 0.766-0.061 0.009 0 0.018 0 0.026 0h-0.001c0.761 0 1.381 0.152 1.381 0.342s-0.62 0.339-1.381 0.339-1.335-0.16-1.377-0.339z"></path>
</symbol>
<symbol id="icon-11" viewBox="0 0 18 32">
<title>11</title>
<path fill="#34333c" style="fill: var(--color45, #34333c)" d="M5.736 27.679c-0.157-0.116-3.664-1.769-3.664-1.769-1.562 0.517-1.912 4.028-2.072 6.090h3.742z"></path>
<path fill="#34333c" style="fill: var(--color45, #34333c)" d="M11.955 27.679c0.156-0.116 3.664-1.769 3.664-1.769 1.562 0.517 1.912 4.028 2.072 6.090h-3.742z"></path>
<path fill="#f5b67e" style="fill: var(--color11, #f5b67e)" d="M8.845 22.066h-1.647v1.041c0 0.646-0.105 0.51-0.711 0.847-0.224 0.193-0.472 0.372-0.735 0.528l-0.024 0.013c0.731 2.354 1.494 4.569 2.926 6.695h0.847c1.432-2.133 1.725-4.348 2.46-6.695-0.287-0.167-0.535-0.344-0.766-0.54l0.007 0.006c-0.606-0.34-0.711-0.201-0.711-0.847v-1.048z"></path>
<path fill="#bed53b" style="fill: var(--color46, #bed53b)" d="M8.845 27.727c-2.722-0.214-2.327-3.742-2.358-3.766-0.878 0.401-4.082 1.657-4.423 1.966 0.289 0.636 0.731 3.256 1.112 6.073h11.349c0.381-2.817 0.823-5.443 1.112-6.073-0.34-0.31-3.559-1.565-4.423-1.966-0.044 0.020 0.35 3.552-2.371 3.766z"></path>
<path fill="#f6c085" style="fill: var(--color3, #f6c085)" d="M13.268 14.734c-0.033 0.145-0.052 0.312-0.052 0.483 0 1.094 0.78 2.006 1.814 2.21l0.014 0.002c0.139 0.031 0.298 0.049 0.461 0.049 1.098 0 2.007-0.809 2.164-1.864l0.001-0.012c0.235-1.337-0.558-2.62-1.773-2.858s-2.412 0.65-2.63 1.99z"></path>
<path fill="#f6c085" style="fill: var(--color3, #f6c085)" d="M4.763 14.734c0.033 0.145 0.053 0.312 0.053 0.484 0 1.092-0.777 2.002-1.807 2.208l-0.014 0.002c-0.139 0.031-0.298 0.049-0.461 0.049-1.098 0-2.007-0.809-2.164-1.864l-0.001-0.012c-0.235-1.337 0.558-2.62 1.772-2.858s2.395 0.65 2.623 1.99z"></path>
<path fill="#f8c997" style="fill: var(--color5, #f8c997)" d="M15.078 6.757c-1.146-1.579-2.942-2.626-4.986-2.748l-0.018-0.001h-0.102v-0.078l-0.97 0.037-0.97-0.037v0.078h-0.102c-2.060 0.125-3.853 1.172-4.984 2.73l-0.013 0.019c-1.187 1.613-1.344 3.647-1.252 5.593 0.071 1.473 0.34 3.848 0.405 5.317 1.888 7.070 12.081 7.182 13.84 0 0.075-1.47 0.34-3.844 0.405-5.317 0.092-1.946-0.065-3.98-1.252-5.593z"></path>
<path fill="#973823" style="fill: var(--color47, #973823)" d="M2.99 9.465c-0.095 0.204 0.446-1.837 1.63-1.871 1.238-0.037 8.941 0.432 9.335-0.085 1.303 1.653 2.256 8.202 2.33 8.189 0.174-0.034 0.194-0.68 0.211-0.813 0.111-0.833 0.174-1.797 0.174-2.775 0-0.054-0-0.108-0.001-0.162l0 0.008c0-1.796 0.521-5.253-2.722-7.406-1.997-1.327-6.124-1.46-8.427-0.708-1.693 0.578-3.024 1.831-3.693 3.43l-0.015 0.040c-0.626 1.742-0.609 3.103-0.401 6.549 0.020 0.374 0.065 0.748 0.116 1.119 0.037 0.248 0.068 0.5 0.129 0.742 0.299 1.313 0.33-4.702 1.334-6.256z"></path>
<path fill="#3e3b3a" style="fill: var(--color7, #3e3b3a)" d="M5.287 15.813c0.316 0 0.572-0.256 0.572-0.572s-0.256-0.572-0.572-0.572c-0.316 0-0.572 0.256-0.572 0.572 0 0.001 0 0.002 0 0.004v-0c0 0 0 0 0 0 0 0.314 0.254 0.568 0.568 0.568 0.001 0 0.002 0 0.004 0h-0z"></path>
<path fill="#3e3b3a" style="fill: var(--color7, #3e3b3a)" d="M13.295 15.282c0 0.314-0.254 0.568-0.568 0.568s-0.568-0.254-0.568-0.568c0-0.314 0.254-0.568 0.568-0.568s0.568 0.254 0.568 0.568z"></path>
<path fill="#973823" style="fill: var(--color47, #973823)" d="M3.327 13.666c-0.208-0.299 0.755-0.524 1.776-0.595 1.674-0.119 2.63 0.629 1.824 0.657-0.616 0.020-3.525 0.027-3.599-0.061z"></path>
<path fill="#973823" style="fill: var(--color47, #973823)" d="M14.353 13.683c0.218-0.293-0.745-0.555-1.738-0.663-1.667-0.184-2.654 0.524-1.851 0.585 0.602 0.044 3.525 0.163 3.589 0.078z"></path>
<path fill="#d6825b" style="fill: var(--color8, #d6825b)" d="M10.887 19.297c-0.34 1.956-3.501 1.956-3.848 0 0.578 0.104 1.244 0.164 1.924 0.164s1.345-0.059 1.992-0.174l-0.069 0.010z"></path>
<path fill="#e5b17d" style="fill: var(--color9, #e5b17d)" d="M7.74 18.147s0 0 0-0.017c0.004-0.034 0.022-0.063 0.047-0.081l0-0c0.419-0.931 0.736-2.012 0.897-3.143l0.008-0.065c0.231 0-0.228 2.46-0.429 3.041 0.206-0.035 0.443-0.055 0.685-0.055 0.008 0 0.016 0 0.023 0h-0.001c0.68 0 1.232 0.136 1.232 0.303s-0.551 0.306-1.232 0.306-1.194-0.129-1.232-0.289z"></path>
<path fill="#973823" style="fill: var(--color47, #973823)" d="M2.919 8.444c-0.129-0.772-0.772-0.816-0.653-1.721s1.476-2.667 2.215-3.382c0.445-0.427 0.987-0.756 1.59-0.951l0.029-0.008s-0.497 0.8-0.293 0.595 1.225-0.67 1.677-0.936 0.64-0.568 0.582-0.422-0.34 0.68-0.133 0.541 0.731-0.16 1.374-0.8c0.365-0.395 0.692-0.835 0.97-1.308l0.020-0.036c-0.058 0.146 0.929 1.296 1.238 1.881s0.371 0.932 0.439 0.772 0.364-0.759 0.364-0.759c0.6 0.526 1.143 1.082 1.641 1.677l0.019 0.024c0.47 0.643 0.572 1.092 0.629 0.932s0.174-0.555 0.174-0.555 0.626 1.562 0.452 2.347c-0.173 0.708-0.359 1.298-0.58 1.87l0.035-0.104s-4.266 1.082-5.784 1.099c-0.718 0-5.321-1.262-5.409-1.619z"></path>
<path fill="#d99e67" style="fill: var(--color48, #d99e67)" d="M8.845 27.73c-2.722-0.218-2.327-3.742-2.358-3.77h-0.024l-0.731 0.316c0 0.065 0 0.126 0 0.191v0c-0.001 0.038-0.002 0.084-0.002 0.129 0 1.153 0.405 2.211 1.080 3.040l-0.007-0.009c0.472 0.581 1.178 0.955 1.973 0.976l0.004 0c1.051 0 1.983-0.721 2.531-1.817 0.27-0.536 0.45-1.161 0.502-1.823l0.001-0.017q0.020-0.228 0.020-0.47v-0.051c0-0.065 0-0.126 0-0.191-0.252-0.105-0.463-0.197-0.612-0.265h-0.024c-0.027 0.010 0.367 3.542-2.354 3.759z"></path>
<path fill="#34333c" style="fill: var(--color45, #34333c)" d="M8.845 27.73c-2.722-0.218-2.327-3.742-2.358-3.77h-0.024l-0.731 0.316c0 0.065 0 0.126 0 0.191v0c-0.001 0.038-0.002 0.084-0.002 0.129 0 1.153 0.405 2.211 1.080 3.040l-0.007-0.009c0.472 0.581 1.178 0.955 1.973 0.976l0.004 0c1.051 0 1.983-0.721 2.531-1.817 0.27-0.536 0.45-1.161 0.502-1.823l0.001-0.017q0.020-0.228 0.020-0.47v-0.242c-0.252-0.105-0.463-0.197-0.612-0.265h-0.024c-0.027 0.010 0.367 3.542-2.354 3.759z"></path>
</symbol>
<symbol id="icon-12" viewBox="0 0 20 32">
<title>12</title>
<path fill="#402412" style="fill: var(--color49, #402412)" d="M18.852 16.83c0 2.504 1.762 4.518 0.7 7.259-1.653 4.255-5.377 3.321-8.136 3.321h-3.615c-2.835 0-6.186 0.343-7.383-3.765-0.825-2.828 0.644-4.319 0.644-6.574l-0.128-6.371c0.218-8.441 3.261-9.771 9.040-9.771 6.796-0.911 8.637 2.636 9.036 9.789z"></path>
<path fill="#9b5538" style="fill: var(--color40, #9b5538)" d="M13.329 27.218l3.946-2.978c1.728 0.569 2.229 5.471 2.402 7.764h-4.142z"></path>
<path fill="#f5b67e" style="fill: var(--color11, #f5b67e)" d="M9.789 21.006h-1.822v1.152c0 0.715-0.117 0.565-0.787 0.938-0.247 0.211-0.522 0.406-0.813 0.577l-0.027 0.015c0.813 2.605 1.397 5.96 2.978 8.317h0.941c1.581-2.353 2.169-5.708 2.978-8.313-0.318-0.185-0.592-0.38-0.848-0.598l0.008 0.007c-0.67-0.377-0.787-0.222-0.787-0.938v-1.156z"></path>
<path fill="#9b5538" style="fill: var(--color40, #9b5538)" d="M6.348 27.218l-3.946-2.978c-1.728 0.569-2.225 5.471-2.402 7.764h4.142z"></path>
<path fill="#ed8322" style="fill: var(--color36, #ed8322)" d="M8.66 25.667c-1.604-0.591-1.803-2.312-1.48-2.564-0.715 0.328-2.839 0.651-4.066 0.934h-0.855l-0.023 0.019c0.177 0.377 0.407 1.683 0.651 3.291-0.252 1.916-1.209 3.095-0.516 4.658h14.948c0.693-1.559-0.267-2.737-0.516-4.379 0.145-1.242 0.374-2.358 0.688-3.437l-0.037 0.146v-0.019h-0.817c-1.231-0.282-3.355-0.606-4.070-0.934 0.328 0.252 0.124 1.973-1.48 2.564v0l-1.13 1.883-0.12-0.343-0.049 0.083-1.13-1.883z"></path>
<path fill="#f6c085" style="fill: var(--color3, #f6c085)" d="M4.432 12.022c0.301 1.359-0.297 2.489-1.325 2.733s-2.093-0.493-2.395-1.852 0.286-2.654 1.314-2.899 2.116 0.659 2.406 2.018z"></path>
<path fill="#f6c085" style="fill: var(--color3, #f6c085)" d="M15.546 12.022c-0.301 1.359 0.301 2.489 1.329 2.733s2.093-0.493 2.395-1.852-0.286-2.654-1.314-2.899-2.105 0.659-2.41 2.018z"></path>
<path fill="#f8c997" style="fill: var(--color5, #f8c997)" d="M9.989 0.971h-0.023l-1.073-0.041v0.087h-0.113c-2.282 0.138-4.267 1.298-5.52 3.025l-0.015 0.021c-1.314 1.788-1.487 4.036-1.386 6.19 0.267 5.539 3.389 11.755 8.129 11.8 4.763-0.045 7.865-6.261 8.129-11.8 0.105-2.154-0.072-4.401-1.386-6.19-1.269-1.747-3.256-2.906-5.518-3.041l-0.020-0.001h-0.109v-0.090l-1.069 0.041z"></path>
<path fill="#402412" style="fill: var(--color49, #402412)" d="M13.374 3.118c-0.064 0.305 0 1.932 1.883 4.432s2.022 2.715 2.022 2.715 0.087 4.217 0.324 3.716 0.584-4.142 0.584-4.142c0.11-0.536 0.173-1.151 0.173-1.782 0-0.72-0.082-1.422-0.238-2.095l0.012 0.063c-0.478-1.954-1.081-2.692-1.909-3.012s-2.85 0.105-2.85 0.105z"></path>
<path fill="#402412" style="fill: var(--color49, #402412)" d="M2.922 8.396c-0.324 0.377-1.382 0.41-1.382 0.41 0.045 0.339 0.501 5.501 0.926 5.124z"></path>
<path fill="#402412" style="fill: var(--color49, #402412)" d="M17.263 10.264c0.087-1.427 0.817-4.688 0.459-5.576-1.035-2.564-2.933-3.603-6.115-3.935-0.269-0.026-0.581-0.041-0.896-0.041s-0.628 0.015-0.935 0.044l0.039-0.003c1.826 3.012 3.362 7.022 7.447 9.511z"></path>
<path fill="#402412" style="fill: var(--color49, #402412)" d="M14.195 3.893c-0.64 4.014-9.138 2.726-11.936 7.568-3.11-4.706 1.657-14.349 9.955-10.625z"></path>
<path fill="#3e3b3a" style="fill: var(--color7, #3e3b3a)" d="M6.25 13.724c0.346-0.002 0.625-0.283 0.625-0.629 0-0.347-0.282-0.629-0.629-0.629s-0.629 0.281-0.629 0.629v0c0 0 0 0 0 0 0 0.347 0.282 0.629 0.629 0.629 0.001 0 0.003 0 0.004 0h-0z"></path>
<path fill="#3e3b3a" style="fill: var(--color7, #3e3b3a)" d="M14.108 13.724c0.346-0.002 0.625-0.283 0.625-0.629 0-0.347-0.281-0.629-0.629-0.629s-0.629 0.281-0.629 0.629v0c0 0 0 0 0 0 0 0.347 0.281 0.629 0.629 0.629 0.001 0 0.003 0 0.004 0h-0z"></path>
<path fill="#e5b17d" style="fill: var(--color9, #e5b17d)" d="M8.972 16.307s0 0 0-0.019c0.005-0.042 0.029-0.078 0.063-0.098l0.001-0c0.465-1.031 0.816-2.227 0.993-3.479l0.008-0.071c0.256 0-0.252 2.722-0.474 3.366 0.228-0.038 0.492-0.060 0.76-0.060 0.010 0 0.019 0 0.029 0h-0.001c0.753 0 1.363 0.151 1.363 0.335s-0.61 0.339-1.363 0.339-1.337-0.136-1.378-0.313z"></path>
<path fill="#402412" style="fill: var(--color49, #402412)" d="M11.853 11.578c-0.377 0.154 0.245-0.858 2.082-0.896 2.139-0.049 2.786 0.979 1.947 0.685-0.519-0.174-1.117-0.274-1.739-0.274-0.829 0-1.616 0.179-2.326 0.499l0.036-0.014z"></path>
<path fill="#402412" style="fill: var(--color49, #402412)" d="M8.129 11.578c0.377 0.154-0.248-0.858-2.082-0.896-2.139-0.049-2.79 0.979-1.947 0.685 0.519-0.174 1.117-0.274 1.739-0.274 0.829 0 1.616 0.179 2.326 0.499l-0.036-0.014z"></path>
<path fill="#d6825b" style="fill: var(--color8, #d6825b)" d="M12.131 17.851c-0.377 1.702-3.874 1.702-4.258 0 0.538 0.561 1.293 0.909 2.129 0.909s1.592-0.348 2.128-0.908l0.001-0.001z"></path>
</symbol>
<symbol id="icon-13" viewBox="0 0 19 32">
<title>13</title>
<path fill="#7d7873" style="fill: var(--color50, #7d7873)" d="M7.094 23.921l-0.051-1.676h5.286l-0.051 1.621-5.184 0.055z"></path>
<path fill="#7f7a77" style="fill: var(--color51, #7f7a77)" d="M6.155 27.382c-0.168-0.128-3.932-1.902-3.932-1.902-1.676 0.54-2.052 4.304-2.223 6.52h4.016z"></path>
<path fill="#7f7a77" style="fill: var(--color51, #7f7a77)" d="M12.829 27.382c0.168-0.128 3.932-1.902 3.932-1.902 1.676 0.555 2.052 4.319 2.223 6.535h-4.016z"></path>
<path fill="#f5b67e" style="fill: var(--color11, #f5b67e)" d="M9.492 21.339h-1.767v1.117c0 0.694-0.113 0.548-0.763 0.909-0.24 0.206-0.506 0.396-0.789 0.56l-0.025 0.014c0.789 2.53 1.354 5.779 2.888 8.061h0.913c1.533-2.282 2.099-5.531 2.888-8.061-0.308-0.178-0.575-0.367-0.821-0.579l0.007 0.006c-0.65-0.365-0.763-0.215-0.763-0.909v-1.117z"></path>
<path fill="#857e79" style="fill: var(--color52, #857e79)" d="M9.649 27.48s-0.551-0.73-0.803-1.139c-0.767-1.245-1.858-2.95-1.884-2.965-0.942 0.427-4.381 1.774-4.746 2.107 0.31 0.683 0.785 3.494 1.194 6.517h12.179c0.409-3.023 0.884-5.841 1.194-6.517-0.365-0.332-3.819-1.679-4.746-2.107-0.48 1.156-0.981 2.131-1.551 3.059l0.054-0.094c-0.343 0.497-0.891 1.139-0.891 1.139z"></path>
<path fill="#f6c085" style="fill: var(--color3, #f6c085)" d="M14.238 13.472c-0.036 0.156-0.057 0.336-0.057 0.521 0 1.173 0.838 2.151 1.947 2.368l0.015 0.003c0.15 0.034 0.322 0.054 0.498 0.054 1.177 0 2.151-0.867 2.318-1.998l0.002-0.013c0.252-1.438-0.599-2.815-1.902-3.070s-2.588 0.712-2.822 2.136z"></path>
<path fill="#f6c085" style="fill: var(--color3, #f6c085)" d="M5.111 13.472c0.036 0.157 0.057 0.337 0.057 0.522 0 1.171-0.834 2.147-1.94 2.367l-0.015 0.003c-0.15 0.034-0.322 0.054-0.498 0.054-1.177 0-2.151-0.867-2.318-1.998l-0.002-0.013c-0.252-1.438 0.599-2.815 1.902-3.070s2.57 0.712 2.815 2.136z"></path>
<path fill="#f8c997" style="fill: var(--color5, #f8c997)" d="M16.181 4.91c-1.23-1.694-3.157-2.818-5.351-2.949l-0.020-0.001h-0.11v-0.088l-1.040 0.044-1.040-0.044v0.084h-0.11c-2.211 0.135-4.135 1.26-5.349 2.933l-0.014 0.021c-1.274 1.734-1.442 3.914-1.344 6.006 0.077 1.577 0.365 4.125 0.434 5.706 2.026 7.583 12.964 7.707 14.852 0 0.069-1.581 0.358-4.129 0.434-5.706 0.099-2.092-0.069-4.272-1.344-6.006z"></path>
<path fill="#402412" style="fill: var(--color49, #402412)" d="M3.209 7.82c-0.102 0.219 0.478-1.971 1.749-2.012 1.329-0.040 9.595 0.464 10.018-0.088 1.398 1.771 2.326 9.051 2.406 9.036 0.424-0.080 0.507-3.855 0.507-4.268 0-1.928 0.559-5.637-2.921-7.948-2.143-1.424-6.572-1.563-9.043-0.759-1.716 0.562-3.366 2.023-3.976 3.724-0.701 1.869-0.683 3.33-0.46 7.032 0.022 0.402 0.069 0.803 0.124 1.201 0.040 0.263 0.073 0.533 0.139 0.796 0.347 1.409 0.38-5.042 1.457-6.714z"></path>
<path fill="#402412" style="fill: var(--color49, #402412)" d="M2.705 5.86c0.055 0.164 0.27 0.96 3.041 1.902 1.557 0.554 3.352 0.887 5.222 0.916l0.014 0c-0.307-0.167-0.572-0.36-0.809-0.582l0.002 0.002s1.99 0.646 3.443 0.511 2.505-0.942 2.326-0.942c-0.377-0.105-0.701-0.23-1.010-0.38l0.035 0.015c1.106-0.553 2.052-1.249 2.86-2.079l0.002-0.002c1.051-1.205 1.387-2.348 1.252-2.234s-1.030 0.559-0.894 0.402 0.245-1.946 0.245-1.946c-0.29 0.21-0.619 0.404-0.967 0.565l-0.037 0.015c-0.226 0.047 0.245-1.46 0.245-1.46s-2.147 0.402-3.377 0.223-1.931-0.562-3.742-0.65c-0.157-0.014-0.339-0.022-0.524-0.022-0.864 0-1.688 0.172-2.439 0.482l0.042-0.016 0.307-0.581s-2.556 0.73-3.209 1.23c-0.503 0.435-0.933 0.936-1.284 1.491l-0.016 0.027c-0.342-0.114-0.736-0.185-1.146-0.193l-0.004-0c-0.001 0-0.001 0-0.002 0-0.263 0-0.513 0.054-0.74 0.151l0.012-0.005 1.161 0.365c-0.357 0.117-0.665 0.295-0.927 0.525l0.003-0.003c-0.391 0.347-0.73 0.748-0.548 0.65 0.329-0.093 0.713-0.16 1.109-0.189l0.019-0.001z"></path>
<path fill="#756e6a" style="fill: var(--color53, #756e6a)" d="M7.842 24.899c0.095 0 0.628 0.088 0.628 0.088l0.365 1.354-1.34-0.617z"></path>
<path fill="#9f9993" style="fill: var(--color54, #9f9993)" d="M7.043 22.245l1.427 2.742s-1.46 1.46-1.46 1.38-0.657-2.618-0.606-2.753 0.639-1.369 0.639-1.369z"></path>
<path fill="#756e6a" style="fill: var(--color53, #756e6a)" d="M11.526 24.899c-0.095 0-0.628 0.084-0.628 0.084l-0.365 1.358 1.34-0.621z"></path>
<path fill="#9f9993" style="fill: var(--color54, #9f9993)" d="M12.329 22.245l-1.431 2.738s1.46 1.46 1.46 1.38 0.661-2.614 0.61-2.749-0.639-1.369-0.639-1.369z"></path>
<path fill="#3e3b3a" style="fill: var(--color7, #3e3b3a)" d="M2.764 11.442c-0.279 0.299-0.486 0.668-0.591 1.078l-0.004 0.017c-0.148 0.003-0.287 0.041-0.41 0.105l0.005-0.002c-0.046 0.065-0.074 0.146-0.074 0.234s0.028 0.169 0.075 0.235l-0.001-0.001c0.106 0.040 0.229 0.063 0.357 0.063 0.014 0 0.029-0 0.043-0.001l-0.002 0c0 2.191 1.179 3.753 3.435 3.673 1.134-0.006 2.117-0.646 2.614-1.583l0.008-0.016c0.293-0.5 0.518-1.081 0.644-1.698l0.006-0.036c0.058-0.394 0.102-0.588 0.197-0.646 0.152-0.034 0.326-0.053 0.505-0.053 0.033 0 0.066 0.001 0.098 0.002l-0.005-0c0.028-0.001 0.061-0.002 0.094-0.002 0.179 0 0.353 0.019 0.521 0.056l-0.016-0.003c0.095 0.058 0.142 0.252 0.197 0.646 0.133 0.661 0.362 1.248 0.675 1.779l-0.014-0.027c0.505 0.955 1.49 1.595 2.624 1.599h0.001c2.253 0.080 3.432-1.482 3.432-3.673 0.013 0.001 0.027 0.001 0.042 0.001 0.128 0 0.25-0.023 0.363-0.065l-0.007 0.002c0.046-0.065 0.074-0.146 0.074-0.234s-0.028-0.169-0.075-0.235l0.001 0.001c-0.12-0.068-0.262-0.11-0.414-0.117l-0.002-0c-0.109-0.427-0.316-0.797-0.596-1.097l0.001 0.001c-0.307-0.34-1.048-0.591-1.953-0.664-2.249-0.179-7.462-0.164-9.715-0.026-0.986 0.062-1.804 0.325-2.132 0.69zM9.054 12.413v0c-0.055 0.044-0.131-0.095-0.139-0.139-0.077-0.434 0.026-1.059-0.584-1.172h2.665c-0.61 0.113-0.507 0.73-0.584 1.172 0 0.044-0.084 0.179-0.139 0.139-0.183-0.020-0.395-0.031-0.61-0.031s-0.427 0.011-0.636 0.034l0.026-0.002zM11.007 11.398v0c0.378-0.206 0.828-0.329 1.305-0.336l0.002-0c1.008-0.066 3.454-0.117 4.173 0.767 0.249 0.297 0.408 0.675 0.434 1.090l0 0.005c0.002 0.049 0.003 0.107 0.003 0.164 0 0.447-0.055 0.881-0.16 1.296l0.008-0.037c-0.427 1.584-1.482 2.318-3.041 2.234-2.070-0.11-3.1-2.369-3.023-4.22 0.018-0.445 0.084-0.81 0.299-0.978zM8.32 11.398v0c0.215 0.168 0.281 0.533 0.299 0.978 0.077 1.851-0.953 4.111-3.023 4.22-1.559 0.084-2.614-0.65-3.041-2.234-0.097-0.378-0.152-0.812-0.152-1.26 0-0.058 0.001-0.115 0.003-0.173l-0 0.008c0.026-0.42 0.186-0.799 0.437-1.098l-0.002 0.003c0.73-0.883 3.165-0.832 4.173-0.767 0.008-0 0.017-0 0.026-0 0.467 0 0.908 0.112 1.297 0.311l-0.016-0.008z"></path>
<path fill="#5a5858" style="fill: var(--color32, #5a5858)" d="M2.793 11.774c-0.256 0.306-0.419 0.698-0.442 1.127l-0 0.005c-0.002 0.053-0.003 0.116-0.003 0.179 0 0.455 0.057 0.897 0.164 1.318l-0.008-0.037c0.168 0.78 0.621 1.433 1.242 1.859l0.010 0.007c0.445 0.266 0.981 0.423 1.554 0.423 0.102 0 0.203-0.005 0.302-0.015l-0.013 0.001c2.103-0.113 3.154-2.413 3.074-4.297-0.018-0.453-0.084-0.825-0.303-0.997-0.385-0.208-0.841-0.333-1.326-0.343l-0.003-0c-0.836-0.051-2.629-0.095-3.651 0.365-0.236 0.091-0.437 0.229-0.598 0.404l-0.001 0.001z"></path>
<path fill="#5a5858" style="fill: var(--color32, #5a5858)" d="M10.672 12.344c-0.084 1.869 0.967 4.155 3.059 4.268 0.079 0.007 0.172 0.011 0.265 0.011 0.575 0 1.113-0.156 1.575-0.428l-0.015 0.008c0.622-0.432 1.069-1.079 1.234-1.831l0.004-0.020c0.097-0.384 0.153-0.824 0.153-1.278 0-0.064-0.001-0.128-0.003-0.192l0 0.009c-0.022-0.43-0.184-0.818-0.441-1.124l0.002 0.003c-0.154-0.176-0.346-0.315-0.563-0.405l-0.010-0.004c-1.030-0.464-2.818-0.42-3.651-0.365-0.485 0.006-0.939 0.131-1.337 0.347l0.015-0.008c-0.201 0.186-0.267 0.555-0.288 1.008z"></path>
<path fill="#d6825b" style="fill: var(--color8, #d6825b)" d="M12.778 18.766c-0.647 0.737-1.591 1.2-2.644 1.2-0.045 0-0.089-0.001-0.134-0.003l0.006 0c-0.038 0.001-0.083 0.002-0.127 0.002-1.052 0-1.996-0.463-2.64-1.196l-0.003-0.004c0.751 0.585 1.698 0.953 2.729 0.993l0.009 0c1.061-0.041 2.030-0.408 2.816-1.002l-0.013 0.009z"></path>
<path fill="#e5b17d" style="fill: var(--color9, #e5b17d)" d="M8.598 17.933s0 0 0-0.022c0.004-0.036 0.023-0.067 0.051-0.087l0-0c0.449-0.999 0.789-2.159 0.963-3.372l0.008-0.070c0.248 0-0.248 2.64-0.46 3.264 0.221-0.037 0.476-0.058 0.736-0.058 0.008 0 0.017 0 0.025 0h-0.001c0.73 0 1.322 0.146 1.322 0.325s-0.591 0.329-1.322 0.329-1.285-0.135-1.322-0.307z"></path>
</symbol>
<symbol id="icon-14" viewBox="0 0 20 32">
<title>14</title>
<path fill="#b24d26" style="fill: var(--color55, #b24d26)" d="M17.063 19.915c-0.098 0.053-1.507 1.696-1.507 1.696s-1.884-1.232-5.747-1.191-5.509 1.149-5.509 1.149c-0.705-0.59-1.231-1.372-1.499-2.265l-0.009-0.033c-0.437-1.507-0.81-5.878-0.588-5.935s15.981-0.196 15.981-0.196z"></path>
<path fill="#f5b67e" style="fill: var(--color11, #f5b67e)" d="M13.34 27.218l3.949-2.981c1.73 0.569 2.231 5.475 2.404 7.763h-4.145z"></path>
<path fill="#d8465e" style="fill: var(--color56, #d8465e)" d="M15.13 25.843l2.159-1.632c1.507 0.505 2.091 4.367 2.325 6.843h-4.484z"></path>
<path fill="#f5b67e" style="fill: var(--color11, #f5b67e)" d="M9.797 21h-1.824v1.149c0 0.716-0.117 0.569-0.788 0.942-0.247 0.211-0.522 0.407-0.813 0.577l-0.027 0.015c0.81 2.608 1.398 5.965 2.981 8.317h0.942c1.583-2.351 2.171-5.709 2.981-8.317-0.318-0.185-0.593-0.381-0.848-0.598l0.008 0.007c-0.671-0.377-0.788-0.226-0.788-0.942v-1.149z"></path>
<path fill="#f5b67e" style="fill: var(--color11, #f5b67e)" d="M6.353 27.218l-3.949-2.981c-1.73 0.569-2.227 5.475-2.404 7.763h4.145z"></path>
<path fill="#d8465e" style="fill: var(--color56, #d8465e)" d="M4.563 25.865l-2.159-1.628c-1.522 0.501-2.091 4.364-2.325 6.839h4.484z"></path>
<path fill="#e8556b" style="fill: var(--color57, #e8556b)" d="M8.667 25.662c-1.605-0.588-1.805-2.31-1.481-2.562-0.716 0.328-2.841 0.648-4.070 0.935h-0.878c0.177 0.675 0.399 1.967 0.652 3.587-0.252 1.639-1.21 2.819-0.516 4.379h14.96c0.693-1.56-0.268-2.74-0.516-4.379 0.145-1.245 0.374-2.363 0.689-3.444l-0.037 0.147h-0.335l-0.177-0.207h-0.301c-1.232-0.286-3.357-0.607-4.073-0.935 0.328 0.252 0.124 1.975-1.481 2.562v0l-0.682 2.261-0.58 2.046-1.172-4.39z"></path>
<path fill="#f8c997" style="fill: var(--color5, #f8c997)" d="M9.997 0.95h-0.023l-1.074-0.041v0.083h-0.113c-2.284 0.14-4.271 1.302-5.525 3.031l-0.015 0.021c-1.315 1.786-1.488 4.040-1.387 6.195 0.268 5.539 3.391 11.761 8.136 11.81 4.767-0.049 7.872-6.27 8.136-11.81 0.105-2.155-0.072-4.409-1.387-6.195-1.27-1.749-3.258-2.911-5.523-3.048l-0.021-0.001h-0.109v-0.087l-1.070 0.041z"></path>
<path fill="#cc5827" style="fill: var(--color6, #cc5827)" d="M13.705 3.094c-0.064 0.305 0 1.937 1.884 4.439s2.008 2.717 2.008 2.717-0.196 3.847-0.173 3.651 1.040-3.862 1.040-3.862c0.132-0.609 0.207-1.308 0.207-2.025s-0.075-1.417-0.219-2.091l0.012 0.066c-0.479-1.956-1.081-2.694-1.91-3.015s-2.849 0.121-2.849 0.121z"></path>
<path fill="#cc5827" style="fill: var(--color6, #cc5827)" d="M2.235 8.765c-0.324 0.377-1.085 1.13-1.085 1.13l0.848 3.874z"></path>
<path fill="#cc5827" style="fill: var(--color6, #cc5827)" d="M17.526 11.682c0.087-1.424 0.938-6.029 0.561-6.937-1.654-4.096-8.524-6.444-10.133-2.231-0.482 1.262 3.599 0 3.881 1.684 0.369 2.208 3.12 5.976 5.69 7.484z"></path>
<path fill="#cc5827" style="fill: var(--color6, #cc5827)" d="M14.074 3.569c1.835 1.707-3.855 5.566-11.342 7.269-3.813-3.678 1.187-13.754 9.492-10.024z"></path>
<path fill="#cc5827" style="fill: var(--color6, #cc5827)" d="M1.323 7.435c-0.475 3.346-1.236 13.739 3.241 14.538-1.681-2.333-1.794-7.537-1.839-11.618-0.030-2.8-0.173-4.473-0.204-6.719-0.637 0.829-1.055 2.811-1.198 3.798z"></path>
<path fill="#cc5827" style="fill: var(--color6, #cc5827)" d="M18.374 7.435c0.467 3.346 1.221 13.739-3.241 14.538 2.826-3.957 1.952-12.861 2.042-18.336 0.637 0.829 1.055 2.811 1.198 3.798z"></path>
<path fill="#3e3b3a" style="fill: var(--color7, #3e3b3a)" d="M7.261 13.238c0 0.348-0.282 0.629-0.629 0.629s-0.629-0.282-0.629-0.629c0-0.348 0.282-0.629 0.629-0.629s0.629 0.282 0.629 0.629z"></path>
<path fill="#3e3b3a" style="fill: var(--color7, #3e3b3a)" d="M13.995 13.238c0 0.348-0.282 0.629-0.629 0.629s-0.629-0.282-0.629-0.629c0-0.348 0.282-0.629 0.629-0.629s0.629 0.282 0.629 0.629z"></path>
<path fill="#e5b17d" style="fill: var(--color9, #e5b17d)" d="M8.791 16.456s0 0 0-0.019c0.002-0.038 0.023-0.071 0.052-0.090l0-0c0.461-1.026 0.811-2.216 0.99-3.462l0.009-0.072c0.256 0-0.252 2.721-0.475 3.369 0.24-0.046 0.519-0.075 0.803-0.079l0.004-0c0.754 0 1.364 0.151 1.364 0.335s-0.61 0.335-1.364 0.335-1.341-0.139-1.383-0.317z"></path>
<path fill="#913e22" style="fill: var(--color14, #913e22)" d="M11.486 11.719c-0.377 0.155 0.245-0.855 2.084-0.897 2.14-0.045 2.789 0.983 1.948 0.69-0.521-0.175-1.121-0.276-1.745-0.276-0.828 0-1.614 0.178-2.323 0.498l0.036-0.014z"></path>
<path fill="#913e22" style="fill: var(--color14, #913e22)" d="M8.512 11.719c0.377 0.155-0.249-0.855-2.084-0.897-2.14-0.045-2.792 0.983-1.948 0.69 0.521-0.175 1.121-0.276 1.745-0.276 0.828 0 1.614 0.178 2.323 0.498l-0.036-0.014z"></path>
<path fill="#d6825b" style="fill: var(--color8, #d6825b)" d="M7.913 17.914c0.806 0.539 3.478 0.546 4.296 0 0.546 2.242-4.88 2.242-4.296 0z"></path>
<path fill="#fff" style="fill: var(--color58, #fff)" d="M6.96 23.024l0.595-0.185 1.112 2.822s-1.066 0.98-1.982 1.048-1.032-1.839-0.656-2.694 0.931-0.991 0.931-0.991z"></path>
<path fill="#fff" style="fill: var(--color58, #fff)" d="M12.737 23.024l-0.599-0.185-1.112 2.822s1.066 0.98 1.982 1.048 1.055-1.824 0.663-2.694-0.935-0.991-0.935-0.991z"></path>
<path fill="#cc5827" style="fill: var(--color6, #cc5827)" d="M9.711 5.618c0.305 0.068 3.015 0.32 3.015 0.32s-0.667 1.413-3.177 2.966-5.325 2.122-5.253 2.042 2.359-0.946 3.546-1.978c0.654-0.548 1.206-1.19 1.643-1.91l0.019-0.034z"></path>
<path fill="#cc5827" style="fill: var(--color6, #cc5827)" d="M13.46 3.418c-0.294-0.098-2.751-1.281-2.751-1.281s-0.158 1.56 1.202 4.183 3.467 4.563 3.444 4.454-1.534-2.024-2.016-3.52c-0.267-0.745-0.422-1.605-0.422-2.501 0-0.008 0-0.017 0-0.025v0.001z"></path>
</symbol>
<symbol id="icon-15" viewBox="0 0 20 32">
<title>15</title>
<path fill="#9f2025" style="fill: var(--color59, #9f2025)" d="M6.386 27.189c-0.174-0.129-4.080-1.97-4.080-1.97-1.739 0.576-2.129 4.481-2.307 6.78h4.167z"></path>
<path fill="#9f2025" style="fill: var(--color59, #9f2025)" d="M13.311 27.189c0.174-0.129 4.080-1.97 4.080-1.97 1.739 0.576 2.129 4.481 2.307 6.78h-4.167z"></path>
<path fill="#f5b67e" style="fill: var(--color11, #f5b67e)" d="M9.848 20.939h-1.833v1.159c0 0.72-0.117 0.568-0.792 0.943-0.249 0.212-0.525 0.409-0.818 0.58l-0.027 0.015c0.814 2.625 1.405 5.996 2.996 8.364h0.947c1.591-2.367 2.182-5.739 2.996-8.364-0.32-0.186-0.596-0.383-0.853-0.601l0.008 0.007c-0.674-0.379-0.792-0.224-0.792-0.943v-1.159z"></path>
<path fill="#841b21" style="fill: var(--color60, #841b21)" d="M8.712 25.629c-1.614-0.595-1.814-2.322-1.489-2.576-0.977 0.443-4.545 1.841-4.924 2.186 0.307 0.708 0.799 3.625 1.224 6.761h12.652c0.424-3.136 0.917-6.061 1.239-6.761-0.379-0.345-3.962-1.742-4.924-2.186 0.326 0.254 0.125 1.981-1.489 2.576v0l-1.136 1.894-1.136-1.894z"></path>
<path fill="#f6c085" style="fill: var(--color3, #f6c085)" d="M14.773 12.564c-0.029 0.137-0.046 0.296-0.046 0.457 0 1.175 0.877 2.145 2.011 2.291l0.012 0.001c1.352 0.246 2.651-0.496 2.924-1.86 0.031-0.146 0.048-0.314 0.048-0.485 0-1.207-0.863-2.212-2.006-2.433l-0.016-0.002c-0.13-0.023-0.279-0.037-0.431-0.037-1.236 0-2.266 0.882-2.494 2.051l-0.003 0.016z"></path>
<path fill="#f6c085" style="fill: var(--color3, #f6c085)" d="M5.303 12.564c0.029 0.138 0.046 0.296 0.046 0.458 0 1.172-0.873 2.14-2.004 2.29l-0.012 0.001c-1.352 0.246-2.651-0.496-2.924-1.86-0.031-0.146-0.048-0.314-0.048-0.485 0-1.207 0.863-2.212 2.006-2.433l0.016-0.002c0.127-0.023 0.274-0.036 0.424-0.036 1.235 0 2.265 0.881 2.494 2.050l0.003 0.016z"></path>
<path fill="#f8c997" style="fill: var(--color5, #f8c997)" d="M16.788 3.894c-1.277-1.758-3.275-2.923-5.552-3.060l-0.020-0.001h-0.114v-0.076l-1.080 0.042-1.076-0.042v0.087h-0.114c-2.293 0.135-4.29 1.297-5.554 3.028l-0.015 0.021c-1.322 1.788-1.496 4.061-1.394 6.231 0.269 5.568 0.758 11.807 8.178 11.867s7.864-6.337 8.133-11.867c0.102-2.17-0.072-4.443-1.394-6.231z"></path>
<path fill="#d6825b" style="fill: var(--color8, #d6825b)" d="M12.205 17.326c-0.379 2.178-3.898 2.178-4.284 0 0.644 0.115 1.385 0.181 2.142 0.181s1.498-0.066 2.219-0.192l-0.077 0.011z"></path>
<path fill="#59341a" style="fill: var(--color61, #59341a)" d="M2.273 11.811c0.106-2.053 0.133-5.75 1.932-5.75 1.33 0 1.689 0.307 5.735 0.307 3.58 0 4.617-0.405 5.958-0.405 1.436 0 1.792 1.932 1.818 4.614 0 0.553 0.045 1.106 0.076 1.659 0.019 0.322 0.042 0.648 0.057 0.97 0 0.133 0.042 0.485 0.212 0.451s0.212-0.758 0.231-0.902c0.112-0.901 0.175-1.943 0.175-3.001 0-0.085-0-0.17-0.001-0.255l0 0.013c0-1.989 0.572-5.818-2.996-8.205-2.212-1.485-6.731-1.633-9.258-0.799-1.864 0.641-3.327 2.029-4.056 3.796l-0.016 0.045c-0.689 1.928-0.67 3.436-0.443 7.254 0.023 0.417 0.072 0.83 0.129 1.242 0.037 0.318 0.086 0.596 0.15 0.868l-0.010-0.050c0.144 0.587 0.341 0.17 0.337-0.193-0.011-0.557-0.030-1.106-0.030-1.659z"></path>
<path fill="#402412" style="fill: var(--color49, #402412)" d="M6.629 17.424c-0.279 0.057-0.603 0.092-0.934 0.098l-0.005 0c-0.029 0.001-0.062 0.001-0.096 0.001-1.019 0-1.932-0.451-2.552-1.164l-0.004-0.004c-0.216-0.293-0.366-0.648-0.423-1.033l-0.002-0.013c-0.038-0.284-0.189-0.989-0.212-1.231-0.129-1.394-0.436-0.39-0.451 0.693 0.015 0.285 0.061 0.553 0.135 0.809l-0.006-0.025c-0.075 0.62-0.123 1.348-0.132 2.085l-0 0.013c0.326 4.076 5.564 5.148 8.144 5.527 1.273-0.186 4.742-1.026 5.557-1.591 2.083-1.439 2.754-3.064 2.451-6.038 0.068-0.23 0.114-0.497 0.128-0.772l0-0.009c0-1.080-0.307-2.083-0.447-0.689-0.023 0.242-0.178 0.947-0.212 1.231-0.053 0.396-0.199 0.751-0.414 1.053l0.005-0.007c-0.624 0.717-1.538 1.168-2.557 1.168-0.033 0-0.066-0-0.1-0.001l0.005 0c-0.341-0.006-0.67-0.043-0.989-0.108l0.035 0.006c0.137 0.225 0.218 0.497 0.22 0.788v0c0 1.034-1.091 1.894-2.591 2.201-0.114-0.039-0.213-0.089-0.304-0.151l0.005 0.003c-0.299-0.207-0.551-0.458-0.751-0.748l-0.006-0.010c-0.205 0.301-0.457 0.553-0.748 0.751l-0.010 0.006c-0.094 0.064-0.202 0.118-0.317 0.156l-0.009 0.003c-1.515-0.28-2.652-1.167-2.652-2.212 0.007-0.293 0.095-0.564 0.242-0.794l-0.004 0.006z"></path>
<path fill="#5d331a" style="fill: var(--color62, #5d331a)" d="M10.091 15.708c-0.841-0.682-2.86 1.027-3.292 1.208-0.202 0.090-0.438 0.142-0.685 0.142-0.562 0-1.060-0.268-1.376-0.683l-0.003-0.004c0.148 0.567 0.418 1.059 0.78 1.466l-0.003-0.004c1.095 1.231 3.409 0.905 4.58-0.151 1.174 1.057 3.485 1.383 4.58 0.151 0.357-0.404 0.626-0.895 0.771-1.437l0.006-0.025c-0.319 0.42-0.819 0.688-1.381 0.688-0.248 0-0.485-0.052-0.698-0.146l0.011 0.004c-0.428-0.182-2.451-1.89-3.288-1.208z"></path>
<path fill="#3e3b3a" style="fill: var(--color7, #3e3b3a)" d="M5.818 14.371c0.348-0.002 0.629-0.285 0.629-0.633 0-0.349-0.283-0.633-0.633-0.633s-0.633 0.283-0.633 0.633v0c0 0 0 0 0 0 0 0.349 0.283 0.633 0.633 0.633 0.001 0 0.003 0 0.004 0h-0z"></path>
<path fill="#3e3b3a" style="fill: var(--color7, #3e3b3a)" d="M14.239 14.371c0.348-0.002 0.629-0.285 0.629-0.633 0-0.349-0.283-0.633-0.633-0.633s-0.633 0.283-0.633 0.633v0c0 0 0 0 0 0 0 0.349 0.283 0.633 0.633 0.633 0.001 0 0.003 0 0.004 0h-0z"></path>
<path fill="#59341a" style="fill: var(--color61, #59341a)" d="M3.788 11.803c-0.208-0.345 0.886-0.53 2-0.538 1.867 0 2.883 0.883 1.981 0.856-0.659 0-3.905-0.216-3.981-0.318z"></path>
<path fill="#59341a" style="fill: var(--color61, #59341a)" d="M16.254 11.742c0.208-0.348-0.89-0.519-2.004-0.511-1.867 0.019-2.886 0.928-1.973 0.89 0.67-0.027 3.917-0.265 3.977-0.379z"></path>
<path fill="#e5b17d" style="fill: var(--color9, #e5b17d)" d="M9.208 15.303s0 0 0 0c0.003-0.032 0.020-0.059 0.045-0.076l0-0c0.384-0.857 0.676-1.852 0.826-2.893l0.007-0.061c0.212 0-0.212 2.273-0.379 2.803 0.187-0.034 0.401-0.053 0.621-0.053 0.011 0 0.022 0 0.032 0h-0.002c0.625 0 1.136 0.129 1.136 0.28s-0.508 0.28-1.136 0.28-1.117-0.136-1.152-0.28z"></path>
</symbol>
<symbol id="icon-16" viewBox="0 0 20 32">
<title>16</title>
<path fill="#61381b" style="fill: var(--color63, #61381b)" d="M3.246 4.063c-0.574 1.062-1.188 2.385-1.73 3.744l-0.096 0.274c-0.275 0.712-0.377 5.546 2.417 9.435s8.965 3.456 9.059 3.675c0.282 0.55 0.569 0 1.13 0.591 1.65-1.66 2.842-3.777 3.373-6.143l0.016-0.084c0.817-3.886-0.256-6.649-0.256-6.649z"></path>
<path fill="#ef9095" style="fill: var(--color64, #ef9095)" d="M12.945 20.987c-0.278 0.236-0.453 0.586-0.453 0.977 0 0.054 0.003 0.107 0.010 0.158l-0.001-0.006c0.132 0.377 1.736 0.817 1.943 0.625 1.37-1.242-0.843-1.992-1.499-1.755z"></path>
<path fill="#f5b67e" style="fill: var(--color11, #f5b67e)" d="M13.329 27.218l3.946-2.978c1.728 0.569 2.229 5.471 2.402 7.764h-4.142z"></path>
<path fill="#f5b67e" style="fill: var(--color11, #f5b67e)" d="M9.789 21.006h-1.822v1.152c0 1.363-3.626 1.487-4.853 1.883 0.444 2.398-0.328 3.445 6.333 7.474h0.941c3.23-1.175 5.682-2.613 6.299-7.447-1.25-0.403-5.075-0.523-5.075-1.909v-1.152z"></path>
<path fill="#f5b67e" style="fill: var(--color11, #f5b67e)" d="M5.090 28.028c-0.173-0.132-2.688-3.788-2.688-3.788-1.728 0.569-2.225 5.471-2.402 7.764h4.142z"></path>
<path fill="#7c5e64" style="fill: var(--color65, #7c5e64)" d="M3.114 24.037v0h-0.855l-0.023 0.019c0.177 0.377 0.407 1.683 0.651 3.291-0.252 1.916-1.209 3.095-0.516 4.657h14.948c0.693-1.559-0.267-2.737-0.516-4.379 0.145-1.242 0.374-2.358 0.688-3.437l-0.037 0.146v-0.019h-0.798c-0.87 2.945-3.551 5.057-6.725 5.057s-5.854-2.112-6.712-5.008l-0.013-0.050z"></path>
<path fill="#f6c085" style="fill: var(--color3, #f6c085)" d="M4.432 12.022c0.301 1.359-0.297 2.489-1.325 2.733s-2.093-0.493-2.395-1.852 0.286-2.654 1.314-2.899 2.116 0.659 2.406 2.018z"></path>
<path fill="#f6c085" style="fill: var(--color3, #f6c085)" d="M15.546 12.022c-0.301 1.359 0.301 2.489 1.329 2.733s2.093-0.493 2.395-1.852-0.286-2.654-1.314-2.899-2.105 0.659-2.41 2.018z"></path>
<path fill="#f8c997" style="fill: var(--color5, #f8c997)" d="M9.989 0.971h-0.023l-1.073-0.041v0.087h-0.113c-2.282 0.138-4.267 1.298-5.52 3.025l-0.015 0.021c-1.314 1.788-1.487 4.036-1.386 6.19 0.267 5.539 3.389 11.755 8.129 11.8 4.763-0.045 7.865-6.261 8.129-11.8 0.105-2.154-0.072-4.401-1.386-6.19-1.269-1.747-3.256-2.906-5.518-3.041l-0.020-0.001h-0.109v-0.090l-1.069 0.041z"></path>
<path fill="#61381b" style="fill: var(--color63, #61381b)" d="M13.374 3.118c-0.064 0.305 0 1.932 1.883 4.432s2.022 2.715 2.022 2.715 0.087 4.217 0.324 3.716 0.584-4.142 0.584-4.142c0.11-0.536 0.173-1.151 0.173-1.782 0-0.72-0.082-1.422-0.238-2.095l0.012 0.063c-0.478-1.954-1.081-2.692-1.909-3.012s-2.85 0.105-2.85 0.105z"></path>
<path fill="#61381b" style="fill: var(--color63, #61381b)" d="M2.922 8.396c-0.324 0.377-1.382 0.41-1.382 0.41 0.045 0.339 0.501 5.501 0.93 5.124z"></path>
<path fill="#61381b" style="fill: var(--color63, #61381b)" d="M17.263 10.264c0.087-1.427 0.817-4.688 0.459-5.576-1.035-2.564-2.933-3.603-6.115-3.935-0.269-0.026-0.581-0.041-0.896-0.041s-0.628 0.015-0.935 0.044l0.039-0.003c1.826 3.012 3.362 7.022 7.447 9.511z"></path>
<path fill="#61381b" style="fill: var(--color63, #61381b)" d="M14.195 3.893c-0.64 4.014-9.138 2.726-11.936 7.568-3.11-4.706 1.657-14.349 9.955-10.625z"></path>
<path fill="#3e3b3a" style="fill: var(--color7, #3e3b3a)" d="M6.627 13.724c0.347 0 0.629-0.281 0.629-0.629s-0.282-0.629-0.629-0.629c-0.347 0-0.629 0.281-0.629 0.629v0c0 0.347 0.282 0.629 0.629 0.629v0z"></path>
<path fill="#3e3b3a" style="fill: var(--color7, #3e3b3a)" d="M13.732 13.724c0.347 0 0.629-0.281 0.629-0.629s-0.281-0.629-0.629-0.629c-0.347 0-0.629 0.281-0.629 0.629v0c0 0.347 0.281 0.629 0.629 0.629v0z"></path>
<path fill="#e5b17d" style="fill: var(--color9, #e5b17d)" d="M8.972 16.307s0 0 0-0.019c0.005-0.042 0.029-0.078 0.063-0.098l0.001-0c0.465-1.031 0.816-2.227 0.993-3.479l0.008-0.071c0.256 0-0.252 2.722-0.474 3.366 0.228-0.038 0.492-0.060 0.76-0.060 0.010 0 0.019 0 0.029 0h-0.001c0.753 0 1.363 0.151 1.363 0.335s-0.61 0.339-1.363 0.339-1.337-0.136-1.378-0.313z"></path>
<path fill="#402412" style="fill: var(--color49, #402412)" d="M11.672 11.578c-0.377 0.154 0.245-0.858 2.082-0.896 2.139-0.049 2.786 0.979 1.947 0.685-0.519-0.174-1.117-0.274-1.739-0.274-0.829 0-1.616 0.179-2.326 0.499l0.036-0.014z"></path>
<path fill="#402412" style="fill: var(--color49, #402412)" d="M8.694 11.578c0.377 0.154-0.248-0.858-2.082-0.896-2.139-0.049-2.79 0.979-1.947 0.685 0.519-0.174 1.117-0.274 1.739-0.274 0.829 0 1.616 0.179 2.326 0.499l-0.036-0.014z"></path>
<path fill="#d6825b" style="fill: var(--color8, #d6825b)" d="M12.357 18.11c-0.414 1.329-4.176 1.329-4.59 0 0.642 0.446 1.437 0.712 2.295 0.712s1.653-0.266 2.308-0.721l-0.013 0.009z"></path>
<path fill="#61381b" style="fill: var(--color63, #61381b)" d="M11.039 24.79c-0.975 2.47-0.241 3.246-0.241 3.246l0.113-1.389c0.169 0.797 0.303 1.759 0.372 2.738l0.004 0.071c-0.020 0.914-0.156 1.787-0.394 2.618l0.018-0.072s1.743-0.949 2.598-2.432 0.565-4.292 0.565-4.292c0.118 0.336 0.237 0.613 0.373 0.881l-0.019-0.041c0.078-0.553 0.123-1.191 0.123-1.84 0-0.187-0.004-0.373-0.011-0.559l0.001 0.027c-0.038-0.482 0.056-1.073-0.256-1.506-1.453-2.086-2.899 1.683-3.246 2.553z"></path>
</symbol>
</defs>
</svg>
