<!-- Generated by IcoMoon.io -->
<svg version="1.1" xmlns="http://www.w3.org/2000/svg" width="38" height="32" viewBox="0 0 38 32">
<title>accountingadvisoryservices</title>
<path fill="#53c7f0" d="M26.033 7.005c-0.451-0.636-1.184-0.636-1.635 0l-1.159 1.639v-4.311c0-0.011 0-0.025 0-0.038 0-0.416-0.127-0.803-0.343-1.123l0.005 0.007-1.090-1.539c-0.218-0.308-0.509-0.478-0.817-0.478h-6.617c-0.637 0-1.156 0.732-1.156 1.632v15.307c0 0.9 0.519 1.632 1.156 1.632h7.706c0.637 0 1.156-0.732 1.156-1.632v-4.838l2.794-3.949c0.452-0.638 0.452-1.67 0-2.308zM20.927 2.249c0.013-0.002 0.029-0.003 0.045-0.003 0.123 0 0.231 0.064 0.293 0.161l0.001 0.001 1.090 1.539c0.073 0.115 0.116 0.256 0.116 0.406 0 0.025-0.001 0.051-0.004 0.075l0-0.003h-1.541zM22.468 18.1c0 0.3-0.173 0.544-0.385 0.544h-7.706c-0.212 0-0.385-0.244-0.385-0.544v-15.307c0-0.3 0.173-0.544 0.385-0.544h5.78v2.72c0 0.301 0.172 0.544 0.385 0.544h1.926v4.219l-1.681 2.376c-0.042 0.061-0.074 0.132-0.092 0.209l-0.001 0.004-0.545 2.308c-0.013 0.051-0.021 0.11-0.021 0.171 0 0.143 0.042 0.277 0.115 0.389l-0.002-0.003c0.055 0.095 0.155 0.157 0.27 0.157 0.045 0 0.087-0.009 0.126-0.026l-0.002 0.001 1.635-0.77c0.062-0.031 0.113-0.076 0.15-0.13l0.001-0.001 0.047-0.066v3.749zM21.604 12.493l0.545 0.769-0.208 0.294-0.817 0.385 0.272-1.154zM22.694 12.493l-0.545-0.769 1.852-2.618 0.545 0.769zM25.488 8.545l-0.397 0.561-0.545-0.769 0.397-0.562c0.055-0.096 0.156-0.159 0.272-0.159s0.218 0.063 0.272 0.158l0.001 0.002c0.071 0.109 0.113 0.242 0.113 0.385s-0.042 0.276-0.115 0.388l0.002-0.003z"></path>
<path fill="#87e0ff" d="M20.542 6.602h-5.394c-0.213 0-0.385 0.244-0.385 0.544s0.172 0.544 0.385 0.544h5.394c0.213 0 0.385-0.244 0.385-0.544s-0.172-0.544-0.385-0.544z"></path>
<path fill="#87e0ff" d="M19.001 8.778h-3.853c-0.213 0-0.385 0.244-0.385 0.544s0.172 0.544 0.385 0.544h3.853c0.213 0 0.385-0.244 0.385-0.544s-0.172-0.544-0.385-0.544z"></path>
<path fill="#87e0ff" d="M19.001 10.954h-3.853c-0.213 0-0.385 0.244-0.385 0.544s0.172 0.544 0.385 0.544h3.853c0.213 0 0.385-0.244 0.385-0.544s-0.172-0.544-0.385-0.544z"></path>
<path fill="#87e0ff" d="M19.001 13.131h-3.853c-0.213 0-0.385 0.244-0.385 0.544s0.172 0.544 0.385 0.544h3.853c0.213 0 0.385-0.244 0.385-0.544s-0.172-0.544-0.385-0.544z"></path>
<path fill="#000" d="M20.542 16.468h-2.312c-0.213 0-0.385 0.244-0.385 0.544s0.172 0.544 0.385 0.544h2.312c0.213 0 0.385-0.244 0.385-0.544s-0.172-0.544-0.385-0.544z"></path>
<path fill="#fff" d="M16.534 0h9.838v18.572h-9.838z"></path>
<path fill="#53c7f0" d="M29.346 5.845c-0.451-0.636-1.184-0.636-1.635 0l-1.159 1.639v-4.311c0-0.011 0-0.025 0-0.038 0-0.416-0.127-0.803-0.343-1.123l0.005 0.007-1.090-1.539c-0.218-0.308-0.509-0.478-0.817-0.478h-6.617c-0.637 0-1.156 0.732-1.156 1.632v15.307c0 0.9 0.519 1.632 1.156 1.632h7.706c0.637 0 1.156-0.732 1.156-1.632v-4.838l2.794-3.949c0.452-0.638 0.452-1.67 0-2.308zM24.241 1.088c0.013-0.002 0.029-0.003 0.045-0.003 0.123 0 0.231 0.064 0.293 0.161l0.001 0.001 1.090 1.539c0.073 0.115 0.116 0.256 0.116 0.406 0 0.025-0.001 0.050-0.004 0.075l0-0.003h-1.541zM25.782 16.939c0 0.3-0.173 0.544-0.385 0.544h-7.706c-0.212 0-0.385-0.244-0.385-0.544v-15.307c0-0.3 0.173-0.544 0.385-0.544h5.78v2.72c0 0.301 0.172 0.544 0.385 0.544h1.926v4.219l-1.681 2.376c-0.042 0.061-0.074 0.132-0.092 0.209l-0.001 0.004-0.545 2.308c-0.013 0.051-0.021 0.11-0.021 0.171 0 0.143 0.042 0.277 0.115 0.389l-0.002-0.003c0.055 0.095 0.155 0.157 0.27 0.157 0.045 0 0.087-0.009 0.126-0.026l-0.002 0.001 1.635-0.77c0.062-0.031 0.113-0.076 0.15-0.13l0.001-0.001 0.047-0.066v3.749zM24.918 11.333l0.545 0.769-0.208 0.294-0.817 0.385 0.272-1.154zM26.007 11.333l-0.545-0.769 1.852-2.618 0.545 0.769zM28.801 7.384l-0.397 0.561-0.545-0.769 0.397-0.562c0.055-0.096 0.156-0.159 0.272-0.159s0.218 0.063 0.272 0.158l0.001 0.002c0.071 0.109 0.113 0.242 0.113 0.385s-0.042 0.276-0.115 0.388l0.002-0.003z"></path>
<path fill="#ff6473" d="M23.855 5.441h-5.394c-0.213 0-0.385 0.244-0.385 0.544s0.172 0.544 0.385 0.544h5.394c0.213 0 0.385-0.244 0.385-0.544s-0.172-0.544-0.385-0.544z"></path>
<path fill="#1d97c1" d="M22.314 7.617h-3.853c-0.213 0-0.385 0.244-0.385 0.544s0.172 0.544 0.385 0.544h3.853c0.213 0 0.385-0.244 0.385-0.544s-0.172-0.544-0.385-0.544z"></path>
<path fill="#1d97c1" d="M22.314 9.794h-3.853c-0.213 0-0.385 0.244-0.385 0.544s0.172 0.544 0.385 0.544h3.853c0.213 0 0.385-0.244 0.385-0.544s-0.172-0.544-0.385-0.544z"></path>
<path fill="#1d97c1" d="M22.314 11.97h-3.853c-0.213 0-0.385 0.244-0.385 0.544s0.172 0.544 0.385 0.544h3.853c0.213 0 0.385-0.244 0.385-0.544s-0.172-0.544-0.385-0.544z"></path>
<path fill="#333" d="M23.855 15.307h-2.312c-0.213 0-0.385 0.244-0.385 0.544s0.172 0.544 0.385 0.544h2.312c0.213 0 0.385-0.244 0.385-0.544s-0.172-0.544-0.385-0.544z"></path>
<path fill="#c7cfe2" d="M34.528 19.112l-5.044-2.314c-0.133-0.061-0.205-0.262-0.162-0.449l2.107-9.158c0.043-0.187 0.186-0.29 0.318-0.229l5.044 2.315c0.133 0.061 0.205 0.262 0.162 0.449l-2.107 9.158c-0.043 0.187-0.186 0.29-0.318 0.229z"></path>
<path fill="#707487" d="M36.252 12.777l-5.525-2.535 0.702-3.053c0.043-0.187 0.186-0.29 0.318-0.229l5.044 2.315c0.133 0.061 0.205 0.262 0.162 0.449l-0.702 3.053z"></path>
<path fill="#5b5d6e" d="M31.418 12.434l-0.48-0.221c-0.072-0.049-0.107-0.139-0.081-0.224l0-0 0.156-0.678c0.022-0.094 0.093-0.145 0.159-0.114l0.48 0.22c0.072 0.049 0.107 0.139 0.081 0.224l-0 0-0.156 0.678c-0.022 0.094-0.093 0.145-0.159 0.115z"></path>
<path fill="#5b5d6e" d="M30.793 15.148l-0.48-0.221c-0.072-0.049-0.107-0.139-0.081-0.224l0-0 0.156-0.678c0.022-0.094 0.093-0.145 0.159-0.114l0.48 0.22c0.072 0.049 0.107 0.139 0.081 0.224l-0 0-0.156 0.678c-0.022 0.094-0.093 0.145-0.159 0.115z"></path>
<path fill="#5b5d6e" d="M31.105 13.791l-0.48-0.221c-0.072-0.049-0.107-0.139-0.081-0.224l0-0 0.156-0.678c0.022-0.094 0.093-0.145 0.159-0.114l0.48 0.22c0.072 0.049 0.107 0.139 0.081 0.224l-0 0-0.156 0.678c-0.022 0.094-0.093 0.145-0.159 0.115z"></path>
<path fill="#ff6464" d="M30.481 16.505l-0.48-0.221c-0.072-0.049-0.107-0.139-0.081-0.224l0-0 0.156-0.678c0.022-0.094 0.093-0.145 0.159-0.114l0.48 0.22c0.072 0.049 0.107 0.139 0.081 0.224l-0 0-0.156 0.678c-0.022 0.094-0.093 0.145-0.159 0.115z"></path>
<path fill="#8f96ac" d="M32.378 12.875l-0.48-0.221c-0.072-0.049-0.107-0.139-0.081-0.224l0-0 0.156-0.678c0.022-0.094 0.093-0.145 0.159-0.114l0.48 0.22c0.072 0.049 0.107 0.139 0.081 0.224l-0 0-0.156 0.678c-0.022 0.094-0.093 0.145-0.159 0.115z"></path>
<path fill="#8f96ac" d="M31.754 15.589l-0.48-0.221c-0.072-0.049-0.107-0.139-0.081-0.224l0-0 0.156-0.678c0.022-0.094 0.093-0.145 0.159-0.114l0.48 0.22c0.072 0.049 0.107 0.139 0.081 0.224l-0 0-0.156 0.678c-0.022 0.094-0.093 0.145-0.159 0.115z"></path>
<path fill="#8f96ac" d="M32.066 14.232l-0.48-0.221c-0.072-0.049-0.107-0.139-0.081-0.224l0-0 0.156-0.678c0.022-0.094 0.093-0.145 0.159-0.114l0.48 0.22c0.072 0.049 0.107 0.139 0.081 0.224l-0 0-0.156 0.678c-0.022 0.094-0.093 0.145-0.159 0.115z"></path>
<path fill="#8f96ac" d="M31.442 16.946l-0.48-0.221c-0.072-0.049-0.107-0.139-0.081-0.224l0-0 0.156-0.678c0.022-0.094 0.093-0.145 0.159-0.114l0.48 0.22c0.072 0.049 0.107 0.139 0.081 0.224l-0 0-0.156 0.678c-0.022 0.094-0.093 0.145-0.159 0.115z"></path>
<path fill="#8f96ac" d="M33.339 13.316l-0.48-0.221c-0.072-0.049-0.107-0.139-0.081-0.224l0-0 0.156-0.678c0.022-0.094 0.093-0.145 0.159-0.114l0.48 0.22c0.072 0.049 0.107 0.139 0.081 0.224l-0 0-0.156 0.678c-0.022 0.094-0.093 0.145-0.159 0.115z"></path>
<path fill="#8f96ac" d="M32.715 16.030l-0.48-0.221c-0.072-0.049-0.107-0.139-0.081-0.224l0-0 0.156-0.678c0.022-0.094 0.093-0.145 0.159-0.114l0.48 0.22c0.072 0.049 0.107 0.139 0.081 0.224l-0 0-0.156 0.678c-0.022 0.094-0.093 0.145-0.159 0.115z"></path>
<path fill="#8f96ac" d="M33.027 14.673l-0.48-0.221c-0.072-0.049-0.107-0.139-0.081-0.224l0-0 0.156-0.678c0.022-0.094 0.093-0.145 0.159-0.114l0.48 0.22c0.072 0.049 0.107 0.139 0.081 0.224l-0 0-0.156 0.678c-0.022 0.094-0.093 0.145-0.159 0.115z"></path>
<path fill="#8f96ac" d="M32.403 17.386l-0.48-0.221c-0.072-0.049-0.107-0.139-0.081-0.224l0-0 0.156-0.678c0.022-0.094 0.093-0.145 0.159-0.114l0.48 0.22c0.072 0.049 0.107 0.139 0.081 0.224l-0 0-0.156 0.678c-0.022 0.094-0.093 0.145-0.159 0.115z"></path>
<path fill="#8f96ac" d="M34.3 13.757l-0.48-0.221c-0.072-0.049-0.107-0.139-0.081-0.224l0-0 0.156-0.678c0.022-0.094 0.093-0.145 0.159-0.114l0.48 0.22c0.072 0.049 0.107 0.139 0.081 0.224l-0 0-0.156 0.678c-0.022 0.094-0.093 0.145-0.159 0.115z"></path>
<path fill="#8f96ac" d="M33.676 16.47l-0.48-0.221c-0.072-0.049-0.107-0.139-0.081-0.224l0-0 0.156-0.678c0.022-0.094 0.093-0.145 0.159-0.114l0.48 0.22c0.072 0.049 0.107 0.139 0.081 0.224l-0 0-0.156 0.678c-0.022 0.094-0.093 0.145-0.159 0.115z"></path>
<path fill="#8f96ac" d="M33.988 15.114l-0.48-0.221c-0.072-0.049-0.107-0.139-0.081-0.224l0-0 0.156-0.678c0.022-0.094 0.093-0.145 0.159-0.114l0.48 0.22c0.072 0.049 0.107 0.139 0.081 0.224l-0 0-0.156 0.678c-0.022 0.094-0.093 0.145-0.159 0.115z"></path>
<path fill="#5b5d6e" d="M33.363 17.827l-0.48-0.221c-0.072-0.049-0.107-0.139-0.081-0.224l0-0 0.156-0.678c0.022-0.094 0.093-0.145 0.159-0.114l0.48 0.22c0.072 0.049 0.107 0.139 0.081 0.224l-0 0-0.156 0.678c-0.022 0.094-0.093 0.145-0.159 0.115z"></path>
<path fill="#5b5d6e" d="M35.261 14.198l-0.48-0.221c-0.072-0.049-0.107-0.139-0.081-0.224l0-0 0.156-0.678c0.022-0.094 0.093-0.145 0.159-0.114l0.48 0.22c0.072 0.049 0.107 0.139 0.081 0.224l-0 0-0.156 0.678c-0.022 0.094-0.093 0.145-0.159 0.115z"></path>
<path fill="#5b5d6e" d="M34.948 15.555l-0.48-0.221c-0.072-0.049-0.107-0.139-0.081-0.224l0-0 0.156-0.678c0.022-0.094 0.093-0.145 0.159-0.114l0.48 0.22c0.072 0.049 0.107 0.139 0.081 0.224l-0 0-0.156 0.678c-0.022 0.094-0.093 0.145-0.159 0.115z"></path>
<path fill="#5b5d6e" d="M34.324 18.268l-0.481-0.221c-0.072-0.049-0.107-0.139-0.081-0.224l0-0 0.468-2.035c0.022-0.094 0.093-0.145 0.159-0.114l0.48 0.22c0.072 0.049 0.107 0.139 0.081 0.224l-0 0-0.468 2.035c-0.022 0.094-0.093 0.145-0.159 0.115z"></path>
<path fill="#d7deed" d="M35.885 11.484l-4.324-1.984c-0.072-0.049-0.107-0.139-0.081-0.224l0-0 0.312-1.357c0.022-0.094 0.093-0.145 0.159-0.114l4.323 1.984c0.072 0.049 0.107 0.139 0.081 0.224l-0 0-0.312 1.357c-0.022 0.094-0.093 0.145-0.159 0.115z"></path>
<path fill="#c7cfe2" d="M32.12 9.382l-0.24-0.111c-0.072-0.049-0.107-0.139-0.081-0.224l0-0 0.156-0.678c0.022-0.094 0.093-0.145 0.159-0.114l0.24 0.11c0.072 0.049 0.107 0.139 0.081 0.225l-0 0-0.156 0.678c-0.022 0.094-0.093 0.145-0.159 0.114z"></path>
<path fill="#c7cfe2" d="M32.841 9.712l-0.24-0.111c-0.072-0.049-0.107-0.139-0.081-0.224l0-0 0.156-0.678c0.022-0.094 0.093-0.145 0.159-0.114l0.24 0.11c0.072 0.049 0.107 0.139 0.081 0.225l-0 0-0.156 0.678c-0.022 0.094-0.093 0.145-0.159 0.114z"></path>
<path fill="#c7cfe2" d="M33.561 10.043l-0.24-0.111c-0.072-0.049-0.107-0.139-0.081-0.224l0-0 0.156-0.678c0.022-0.094 0.093-0.145 0.159-0.114l0.24 0.11c0.072 0.049 0.107 0.139 0.081 0.225l-0 0-0.156 0.678c-0.022 0.094-0.093 0.145-0.159 0.114z"></path>
<path fill="#c7cfe2" d="M34.282 10.374l-0.24-0.111c-0.072-0.049-0.107-0.139-0.081-0.224l0-0 0.156-0.678c0.022-0.094 0.093-0.145 0.159-0.114l0.24 0.11c0.072 0.049 0.107 0.139 0.081 0.225l-0 0-0.156 0.678c-0.022 0.094-0.093 0.145-0.159 0.114z"></path>
<path fill="#8f96ac" d="M35.002 10.704l-0.24-0.111c-0.072-0.049-0.107-0.139-0.081-0.224l0-0 0.156-0.678c0.022-0.094 0.093-0.145 0.159-0.114l0.24 0.11c0.072 0.049 0.107 0.139 0.081 0.225l-0 0-0.156 0.678c-0.022 0.094-0.093 0.145-0.159 0.114z"></path>
<path fill="#8f96ac" d="M35.723 11.035l-0.24-0.111c-0.072-0.049-0.107-0.139-0.081-0.224l0-0 0.156-0.678c0.022-0.094 0.093-0.145 0.159-0.114l0.24 0.11c0.072 0.049 0.107 0.139 0.081 0.225l-0 0-0.156 0.678c-0.022 0.094-0.093 0.145-0.159 0.114z"></path>
<path fill="#5b5d6e" d="M30.844 9.734l5.524 2.535-0.117 0.509-5.524-2.535z"></path>
<path fill="#636e72" d="M23.503 14.744c0.411-2.025-0.469-4.159-1.967-4.765s-3.045 0.544-3.456 2.569 0.47 4.158 1.967 4.765 3.045-0.544 3.456-2.569zM20.233 16.396c-1.121-0.454-1.783-2.057-1.475-3.574s1.471-2.381 2.592-1.927 1.783 2.057 1.475 3.574-1.471 2.381-2.592 1.927z"></path>
<path fill="#2d3436" d="M24.188 19.943l-1.203-2.915c-0.337 0.409-0.752 0.712-1.215 0.905l-0.007 0.003 1.203 2.915c0.192 0.465 0.622 0.639 0.959 0.388s0.456-0.831 0.264-1.296z"></path>
<path fill="#fff" opacity="0.78" d="M20.426 16.481c-0.054-0.015-0.108-0.034-0.161-0.056-1.116-0.452-1.762-2.108-1.44-3.692 0.175-0.864 0.61-1.563 1.193-1.916 0.39-0.236 0.814-0.299 1.228-0.18 0.054 0.015 0.108 0.034 0.161 0.056 1.116 0.452 1.762 2.108 1.44 3.692-0.175 0.864-0.61 1.563-1.193 1.916-0.39 0.236-0.814 0.299-1.228 0.18z"></path>
<path fill="#707070" opacity="0.78" d="M20.442 16.425c0.398 0.114 0.807 0.054 1.182-0.174 0.271-0.165 0.519-0.417 0.717-0.729 0.21-0.331 0.361-0.718 0.449-1.15 0.078-0.383 0.1-0.777 0.066-1.169-0.033-0.379-0.116-0.741-0.247-1.075-0.131-0.333-0.302-0.621-0.509-0.858-0.212-0.242-0.452-0.418-0.715-0.524-0.051-0.021-0.104-0.039-0.156-0.054-0.398-0.114-0.807-0.054-1.182 0.174-0.271 0.165-0.519 0.417-0.717 0.729-0.21 0.331-0.361 0.718-0.449 1.15-0.078 0.383-0.1 0.777-0.066 1.169 0.033 0.379 0.116 0.741 0.247 1.075 0.131 0.333 0.302 0.621 0.509 0.858 0.212 0.242 0.452 0.418 0.715 0.524 0.051 0.021 0.104 0.039 0.156 0.054zM20.41 16.537c-0.056-0.016-0.111-0.035-0.167-0.058-1.142-0.462-1.803-2.145-1.475-3.758 0.312-1.534 1.405-2.453 2.494-2.141 0.056 0.016 0.111 0.035 0.167 0.058 1.142 0.463 1.803 2.145 1.475 3.758-0.312 1.534-1.405 2.453-2.494 2.141z"></path>
<path fill="#00d2ff" d="M8.604 20.729l-3.738 4.399-3.509-4.757c-0.84 1.235-1.358 2.909-1.358 4.757 0 3.795 2.179 6.872 4.867 6.872s4.867-3.077 4.867-6.872c0-1.674-0.425-3.207-1.129-4.399z"></path>
<path fill="#9be6d2" d="M1.357 20.37l3.51 4.758v-6.872c-1.38 0-2.623 0.812-3.51 2.114z"></path>
<path fill="#c3e678" d="M9.124 19.143v-0.001c-0.892-1.511-2.235-2.473-3.737-2.473v6.872z"></path>
<path fill="#18bdf6" d="M5.99 30.943c-2.688 0-4.867-3.077-4.867-6.872-0-0.014-0-0.030-0-0.046 0-1.147 0.211-2.244 0.595-3.256l-0.021 0.063-0.339-0.46c-0.84 1.235-1.358 2.909-1.358 4.757 0 3.795 2.179 6.872 4.867 6.872 1.239 0 2.37-0.655 3.229-1.732-0.587 0.416-1.316 0.668-2.104 0.675h-0.002z"></path>
<path fill="#78d2be" d="M2.756 18.936c-0.554 0.391-1.019 0.867-1.387 1.414l-0.012 0.019 0.34 0.461c0.273-0.725 0.631-1.351 1.071-1.91l-0.011 0.015z"></path>
<path fill="#e4af18" d="M15.624 26.845c-1.343 0-2.431-0.391-2.431-0.792v0.924c0.001 0.401 1.089 0.793 2.431 0.793s2.43-0.392 2.431-0.793v-0.924c0 0.401-1.088 0.792-2.431 0.792z"></path>
<path fill="#f4bf1a" d="M15.344 25.393c-1.343 0-2.431-0.391-2.431-0.792v0.924c0.001 0.401 1.089 0.793 2.431 0.793s2.43-0.392 2.431-0.793v-0.924c0 0.401-1.088 0.792-2.431 0.792z"></path>
<path fill="#e4af18" d="M15.905 23.941c-1.343 0-2.431-0.391-2.431-0.792v0.924c0.001 0.401 1.089 0.793 2.431 0.793s2.43-0.392 2.431-0.793v-0.924c0 0.401-1.088 0.792-2.431 0.792z"></path>
<path fill="#ffd949" d="M17.775 21.581c0 0.401-1.088 0.775-2.431 0.775s-2.431-0.374-2.431-0.775 1.088-0.677 2.431-0.677 2.431 0.276 2.431 0.677z"></path>
<path fill="#f4bf1a" d="M15.344 22.356c-1.343 0-2.431-0.391-2.431-0.792v0.924c0.001 0.401 1.089 0.793 2.431 0.793s2.43-0.392 2.431-0.793v-0.924c0 0.401-1.088 0.792-2.431 0.792z"></path>
<path fill="#dca815" d="M13.286 21.97v0.924q0.085 0.044 0.187 0.085v-0.924q-0.102-0.041-0.187-0.085z"></path>
<path fill="#dca815" d="M17.214 22.055v0.924q0.102-0.041 0.187-0.085v-0.924q-0.085 0.044-0.187 0.085z"></path>
<path fill="#dca815" d="M13.754 22.151v0.924q0.090 0.026 0.187 0.050v-0.924q-0.097-0.023-0.187-0.050z"></path>
<path fill="#dca815" d="M16.746 22.201v0.924q0.097-0.023 0.187-0.050v-0.924q-0.090 0.026-0.187 0.050z"></path>
<path fill="#dca815" d="M14.222 22.259v0.924c0.061 0.012 0.123 0.021 0.187 0.031v-0.924c-0.064-0.009-0.126-0.020-0.187-0.031z"></path>
<path fill="#dca815" d="M16.279 22.29v0.924c0.064-0.009 0.126-0.020 0.187-0.031v-0.924c-0.061 0.012-0.123 0.021-0.187 0.031z"></path>
<path fill="#dca815" d="M14.689 22.324v0.924c0.061 0.006 0.124 0.012 0.187 0.016v-0.924q-0.095-0.006-0.187-0.016z"></path>
<path fill="#dca815" d="M15.811 22.34v0.924c0.063-0.004 0.126-0.010 0.187-0.016v-0.924q-0.092 0.009-0.187 0.016z"></path>
<path fill="#dca815" d="M15.343 22.356c-0.031 0-0.062 0-0.093-0.001v0.924c0.031 0 0.062 0.001 0.093 0.001s0.062 0 0.093-0.001v-0.924c-0.031 0-0.062 0.001-0.093 0.001z"></path>
<path fill="#c49214" d="M13.848 23.554v0.924q0.085 0.044 0.187 0.085v-0.924q-0.102-0.041-0.187-0.085z"></path>
<path fill="#c49214" d="M17.775 23.639v0.924q0.102-0.041 0.187-0.085v-0.924q-0.085 0.044-0.187 0.085z"></path>
<path fill="#c49214" d="M14.315 23.735v0.924q0.090 0.026 0.187 0.050v-0.924q-0.097-0.023-0.187-0.050z"></path>
<path fill="#c49214" d="M17.307 23.785v0.924q0.097-0.023 0.187-0.050v-0.924q-0.090 0.026-0.187 0.050z"></path>
<path fill="#c49214" d="M14.783 23.844v0.924c0.061 0.012 0.123 0.021 0.187 0.031v-0.924c-0.064-0.009-0.126-0.020-0.187-0.031z"></path>
<path fill="#c49214" d="M16.84 23.875v0.924c0.064-0.009 0.126-0.020 0.187-0.031v-0.924c-0.061 0.012-0.123 0.021-0.187 0.030z"></path>
<path fill="#c49214" d="M15.25 23.909v0.924c0.061 0.006 0.124 0.012 0.187 0.016v-0.924q-0.095-0.006-0.187-0.016z"></path>
<path fill="#c49214" d="M16.372 23.924v0.924c0.063-0.004 0.126-0.010 0.187-0.016v-0.924q-0.092 0.009-0.187 0.016z"></path>
<path fill="#c49214" d="M15.904 23.94c-0.031 0-0.062 0-0.093-0.001v0.924c0.031 0 0.062 0.001 0.093 0.001s0.062 0 0.093-0.001v-0.924c-0.031 0-0.062 0.001-0.093 0.001z"></path>
<path fill="#dca815" d="M13.286 25.007v0.924q0.085 0.044 0.187 0.085v-0.924q-0.102-0.041-0.187-0.085z"></path>
<path fill="#dca815" d="M17.214 25.092v0.924q0.102-0.041 0.187-0.085v-0.924q-0.085 0.044-0.187 0.085z"></path>
<path fill="#dca815" d="M13.754 25.188v0.924q0.090 0.026 0.187 0.050v-0.924q-0.097-0.023-0.187-0.050z"></path>
<path fill="#dca815" d="M16.746 25.238v0.924q0.097-0.023 0.187-0.050v-0.924q-0.090 0.026-0.187 0.050z"></path>
<path fill="#dca815" d="M14.222 25.297v0.924c0.061 0.012 0.123 0.021 0.187 0.031v-0.924c-0.064-0.009-0.126-0.020-0.187-0.031z"></path>
<path fill="#dca815" d="M16.279 25.327v0.924c0.064-0.009 0.126-0.020 0.187-0.031v-0.924c-0.061 0.012-0.123 0.021-0.187 0.030z"></path>
<path fill="#dca815" d="M14.689 25.361v0.924c0.061 0.006 0.124 0.012 0.187 0.016v-0.924q-0.095-0.006-0.187-0.016z"></path>
<path fill="#dca815" d="M15.811 25.377v0.924c0.063-0.004 0.126-0.010 0.187-0.016v-0.924q-0.092 0.009-0.187 0.016z"></path>
<path fill="#dca815" d="M15.343 25.393c-0.031 0-0.062 0-0.093-0.001v0.924c0.031 0 0.062 0.001 0.093 0.001s0.062 0 0.093-0.001v-0.924c-0.031 0-0.062 0.001-0.093 0.001z"></path>
<path fill="#c49214" d="M13.567 26.459v0.924q0.085 0.044 0.187 0.085v-0.924q-0.102-0.041-0.187-0.085z"></path>
<path fill="#c49214" d="M17.494 26.544v0.924q0.102-0.041 0.187-0.085v-0.924q-0.085 0.044-0.187 0.085z"></path>
<path fill="#c49214" d="M14.034 26.64v0.924q0.090 0.026 0.187 0.050v-0.924q-0.097-0.023-0.187-0.050z"></path>
<path fill="#c49214" d="M17.027 26.69v0.924q0.097-0.023 0.187-0.050v-0.924q-0.090 0.026-0.187 0.050z"></path>
<path fill="#c49214" d="M14.502 26.749v0.924c0.061 0.012 0.123 0.021 0.187 0.031v-0.924c-0.064-0.009-0.126-0.020-0.187-0.031z"></path>
<path fill="#c49214" d="M16.559 26.78v0.924c0.064-0.009 0.126-0.020 0.187-0.031v-0.924c-0.061 0.012-0.123 0.021-0.187 0.030z"></path>
<path fill="#c49214" d="M14.97 26.814v0.924c0.061 0.006 0.124 0.012 0.187 0.016v-0.924q-0.095-0.006-0.187-0.016z"></path>
<path fill="#c49214" d="M16.092 26.829v0.924c0.063-0.004 0.126-0.010 0.187-0.016v-0.924q-0.092 0.009-0.187 0.016z"></path>
<path fill="#c49214" d="M15.624 26.845c-0.031 0-0.062 0-0.093-0.001v0.924c0.031 0 0.062 0.001 0.093 0.001s0.062 0 0.093-0.001v-0.924c-0.031 0-0.062 0.001-0.093 0.001z"></path>
<path fill="#fcc62d" d="M17.701 25.706c-0.266 0.33-1.22 0.611-2.357 0.611-0.889 0-1.666-0.172-2.090-0.405-0.036 0.042-0.059 0.097-0.060 0.158v0c0 0.401 1.088 0.775 2.431 0.775s2.431-0.374 2.431-0.775c0-0.138-0.129-0.262-0.354-0.364z"></path>
<path fill="#ffd949" d="M15.905 24.865c-1.235 0-2.255-0.332-2.41-0.697-0.363 0.116-0.582 0.27-0.582 0.45 0 0.401 1.088 0.775 2.431 0.775s2.431-0.374 2.431-0.775c-0-0.019-0.003-0.037-0.007-0.054l0 0.002c-0.524 0.19-1.129 0.3-1.759 0.3-0.037 0-0.073-0-0.109-0.001l0.005 0z"></path>
<path fill="#fcc62d" d="M17.68 22.693c-0.291 0.32-1.227 0.588-2.337 0.588-0.027 0-0.059 0.001-0.092 0.001-0.613 0-1.203-0.102-1.752-0.289l0.038 0.011c-0.038 0.043-0.062 0.1-0.064 0.162v0c0 0.401 1.088 0.775 2.431 0.775s2.431-0.374 2.431-0.775c0-0.192-0.249-0.355-0.655-0.473z"></path>
<path fill="#ff97a1" d="M12.546 5.179c-0.004 0.006-0.009 0.012-0.014 0.018-0.019 0.019-0.043 0.029-0.068 0.030l-0.348 0c-0.027-0.005-0.054-0.019-0.075-0.040-0.034-0.034-0.047-0.079-0.042-0.123l0-0c-0.006-0.044 0.008-0.090 0.041-0.124 0.021-0.021 0.047-0.035 0.075-0.040l-0.001 0 0.349-0.001c0.027 0.005 0.053 0.019 0.074 0.040 0.034 0.034 0.047 0.080 0.042 0.123l-0 0c0.001 0.040-0.010 0.080-0.033 0.115l-0.001 0.001z"></path>
<path fill="#ff4254" d="M11.186 12.771v-8.857h0.929l-0 8.857z"></path>
<path fill="#ff97a1" d="M11.732 15.511c-0.004 0.006-0.009 0.012-0.014 0.018-0.019 0.019-0.043 0.029-0.068 0.030h0c-0.027-0.005-0.053-0.019-0.074-0.040-0.034-0.034-0.047-0.079-0.042-0.123l0-0v-0.329c-0.006-0.044 0.008-0.090 0.041-0.124 0.021-0.021 0.047-0.035 0.075-0.040l-0.001 0c0.027 0.005 0.053 0.019 0.074 0.040 0.034 0.034 0.047 0.079 0.042 0.123l-0 0v0.329c0.001 0.040-0.010 0.080-0.033 0.115l-0.001 0.001z"></path>
<path fill="#ff97a1" d="M11.999 3.259v0.656l-0.701 0 0-0.656z"></path>
<path fill="#ff97a1" d="M12.811 8.835h-0.348l0.001-4.592 0.348 0z"></path>
<path fill="#ff97a1" d="M12.115 13.755h-0.929l0-0.984 0.929-0z"></path>
<path fill="#ff4254" d="M11.302 13.755v0l0.697 0c0.072 0.387-0.001 0.789-0.217 1.126l-0.006 0.009-0.126 0.178-0.126-0.178c-0.222-0.345-0.294-0.747-0.224-1.128l0.001-0.006z"></path>
<path fill="#b90012" d="M11.999 3.258l-0.697 0 0-0.656 0.697 0z"></path>
<path fill="#ff97a1" d="M11.65 11.459h-0.464l-0-6.232 0.465 0z"></path>
<path fill="#7383bf" d="M10.54 5.179c-0.004 0.006-0.009 0.012-0.014 0.018-0.019 0.019-0.043 0.029-0.068 0.030l-0.348 0c-0.027-0.005-0.054-0.019-0.075-0.040-0.034-0.034-0.047-0.079-0.042-0.123l0-0c-0.006-0.044 0.008-0.090 0.041-0.124 0.021-0.021 0.047-0.035 0.075-0.040l-0.001 0 0.349-0.001c0.027 0.005 0.053 0.019 0.074 0.040 0.034 0.034 0.047 0.080 0.042 0.123l-0 0c0.001 0.040-0.010 0.080-0.033 0.115l-0.001 0.001z"></path>
<path fill="#434c6d" d="M9.181 12.771v-8.857h0.929l-0 8.857z"></path>
<path fill="#7383bf" d="M9.727 15.511c-0.004 0.006-0.009 0.012-0.014 0.018-0.019 0.019-0.043 0.029-0.068 0.030h0c-0.027-0.005-0.053-0.019-0.074-0.040-0.034-0.034-0.047-0.079-0.042-0.123l0-0v-0.329c-0.006-0.044 0.008-0.090 0.041-0.124 0.021-0.021 0.047-0.035 0.075-0.040l-0.001 0c0.027 0.005 0.053 0.019 0.074 0.040 0.034 0.034 0.047 0.079 0.042 0.123l-0 0v0.329c0.001 0.040-0.010 0.080-0.033 0.115l-0.001 0.001z"></path>
<path fill="#7383bf" d="M9.994 3.259v0.656l-0.701 0 0-0.656z"></path>
<path fill="#7383bf" d="M10.806 8.835h-0.348l0.001-4.592 0.348 0z"></path>
<path fill="#7383bf" d="M10.11 13.755h-0.929l0-0.984 0.929-0z"></path>
<path fill="#434c6d" d="M9.297 13.755v0l0.697 0c0.072 0.387-0.001 0.789-0.217 1.126l-0.006 0.009-0.126 0.178-0.126-0.178c-0.222-0.345-0.294-0.747-0.224-1.128l0.001-0.006z"></path>
<path fill="#434c6d" d="M9.994 3.258l-0.697 0 0-0.656 0.697 0z"></path>
<path fill="#7383bf" d="M9.645 11.459h-0.464l-0-6.232 0.465 0z"></path>
</svg>
