<!-- Generated by IcoMoon.io -->
<svg version="1.1" xmlns="http://www.w3.org/2000/svg" width="36" height="32" viewBox="0 0 36 32">
<title>dataanalyticsevaluation</title>
<path fill="#f2f2f2" d="M34.83 20.205s-0.436-0.475-0.627-0.68c-0.024-0.028-0.039-0.064-0.039-0.104 0-0.035 0.011-0.066 0.030-0.092l-0 0c0.908-1.265 0.819-3.111-0.268-4.262-0.502-0.545-1.22-0.885-2.016-0.885-0.759 0-1.445 0.308-1.941 0.807l-0 0c-1.247 1.233-1.285 3.342-0.114 4.627 0.967 1.061 2.446 1.217 3.565 0.47 0.023-0.016 0.051-0.026 0.082-0.026 0.044 0 0.083 0.020 0.109 0.051l0 0c0.191 0.222 0.645 0.726 0.645 0.726 0.070 0.080 0.173 0.13 0.288 0.13s0.217-0.050 0.287-0.13l0-0c0.073-0.084 0.118-0.194 0.118-0.315s-0.045-0.232-0.119-0.316l0 0.001z"></path>
<path fill="#e6e6e6" d="M34.25 14.151c0.646 0 1.17-0.399 1.17-0.892s-0.523-0.892-1.17-0.892c-0.006-0-0.013-0-0.020-0-0.288 0-0.556 0.088-0.777 0.239l0.005-0.003c-0.328 0.247-0.738 0.401-1.184 0.413l-0.003 0h-3.035c-0.114 0.006-0.204 0.1-0.204 0.214 0 0.003 0 0.006 0 0.009v-0 0.041c-0 0.003-0 0.006-0 0.009 0 0.115 0.090 0.208 0.203 0.214l0.001 0h3.035c0.449 0.012 0.861 0.165 1.194 0.416l-0.005-0.004c0.217 0.148 0.484 0.236 0.773 0.236 0.006 0 0.013-0 0.019-0h-0.001z"></path>
<path fill="#d2d5d7" d="M34.203 19.524c0.178 0.191 0.569 0.618 0.621 0.674 0.63-0.771 1.012-1.767 1.012-2.852 0-0.011-0-0.022-0-0.033v0.002c0-0.012 0-0.027 0-0.042 0-1.229-0.494-2.342-1.295-3.152l0 0c-0.087 0.018-0.188 0.029-0.291 0.029h-0c-0.006 0-0.013 0-0.020 0-0.288 0-0.556-0.088-0.777-0.239l0.005 0.003c-0.328-0.248-0.739-0.401-1.186-0.413l-0.003-0h-2.165c-1.253 0.717-2.109 2.155-2.109 3.813 0 2.375 1.755 4.3 3.92 4.3 0.876-0.003 1.679-0.312 2.308-0.826l-0.007 0.005c-0.111-0.124-0.45-0.502-0.608-0.685-0.026-0.031-0.066-0.051-0.109-0.051-0.031 0-0.059 0.010-0.082 0.026l0-0c-1.118 0.747-2.598 0.591-3.565-0.47-1.171-1.285-1.133-3.394 0.115-4.626 0.496-0.498 1.183-0.807 1.941-0.807 0.797 0 1.514 0.34 2.015 0.884l0.002 0.002c1.087 1.151 1.176 2.996 0.268 4.262-0.019 0.025-0.030 0.057-0.030 0.092 0 0.040 0.015 0.076 0.039 0.104l-0-0z"></path>
<path fill="#6a3311" d="M34.201 17.361c0 1.389-1.026 2.515-2.293 2.515s-2.293-1.126-2.293-2.515c0-1.389 1.026-2.515 2.293-2.515s2.293 1.126 2.293 2.515z"></path>
<path fill="#a46f3e" d="M33.117 16.198c-0.042-0-0.079-0.019-0.104-0.047l-0-0c-0.115-0.126-0.248-0.233-0.396-0.316l-0.008-0.004c-0.050-0.030-0.082-0.084-0.082-0.145 0-0.026 0.006-0.051 0.017-0.073l-0 0.001c0.022-0.053 0.072-0.089 0.132-0.089 0.024 0 0.047 0.006 0.068 0.017l-0.001-0c0.185 0.104 0.344 0.231 0.479 0.38l0.001 0.002c0.027 0.030 0.043 0.071 0.043 0.115s-0.016 0.084-0.044 0.115l0-0c-0.026 0.029-0.063 0.047-0.104 0.047h-0z"></path>
<path fill="#a46f3e" d="M30.701 16.198c-0.042-0-0.079-0.019-0.104-0.047l-0-0c-0.027-0.030-0.043-0.071-0.043-0.115s0.016-0.084 0.044-0.115l-0 0c0.323-0.366 0.793-0.596 1.317-0.596 0.069 0 0.137 0.004 0.204 0.012l-0.008-0.001c0.076 0.013 0.133 0.079 0.133 0.157 0 0.008-0.001 0.015-0.002 0.022l0-0.001c-0.004 0.081-0.071 0.144-0.152 0.144-0.004 0-0.008-0-0.011-0l0.001 0c-0.049-0.006-0.106-0.009-0.164-0.009-0.441 0-0.836 0.193-1.107 0.499l-0.001 0.002c-0.026 0.029-0.063 0.047-0.105 0.048h-0z"></path>
<path fill="#cbb292" d="M0 10.466h9.218v13.33h-9.218v-13.33z"></path>
<path fill="#7f6e5d" d="M0 10.466h1.676v13.33h-1.676v-13.33z"></path>
<path fill="#efebde" d="M3.143 12.764h4.609v2.758h-4.609v-2.758z"></path>
<path fill="#d5d0bb" d="M3.981 13.454h2.933v0.46h-2.933v-0.46z"></path>
<path fill="#d5d0bb" d="M3.981 14.373h2.933v0.46h-2.933v-0.46z"></path>
<path fill="#eddcc7" d="M7.298 21.844l-0.001 0.002-0.417 1.675 0.974-1.068z"></path>
<path fill="#d75a4a" d="M11.331 18.638l-0.261-0.287c-0.072-0.082-0.177-0.134-0.294-0.134s-0.222 0.052-0.294 0.133l-0 0-0.75 0.823 0.555 0.609z"></path>
<path fill="#f29c21" d="M9.731 19.175l0.555 0.609-2.433 2.669-0.555-0.609z"></path>
<path fill="#d6c4b1" d="M8.482 23.146l0.002-0.002-0.63-0.691-0.974 1.068-0.028 0.112z"></path>
<path fill="#a34740" d="M10.917 20.475l0.75-0.823c0.076-0.086 0.122-0.199 0.122-0.323s-0.046-0.237-0.122-0.323l0 0.001-0.336-0.368-1.044 1.146z"></path>
<path fill="#e18c25" d="M8.483 23.144l-0.629-0.691 2.433-2.669 0.629 0.691z"></path>
<path fill="#5e5e5e" d="M6.704 24.025c-0.059-0-0.112-0.026-0.148-0.067l-0-0c-0.038-0.043-0.061-0.1-0.061-0.163s0.023-0.119 0.062-0.163l-0 0 0.462-0.507c0.036-0.041 0.089-0.067 0.148-0.067s0.112 0.026 0.148 0.067l0 0c0.038 0.043 0.061 0.1 0.061 0.163s-0.023 0.119-0.062 0.163l0-0-0.462 0.507c-0.036 0.041-0.089 0.067-0.148 0.067h-0z"></path>
<path fill="#545e73" d="M20.709 0.426h-0.777v0.639h-1.748v-0.639h-3.689v11.929h9.127v-11.929z"></path>
<path fill="#404656" d="M18.184 0h1.748v1.065h-1.748v-1.065z"></path>
<path fill="#efebde" d="M21.291 1.065v0.639h-4.466v-0.639h-1.748v10.651h7.961v-10.651z"></path>
<path fill="#8697cb" d="M19.932 0.426v0.639h-1.748v-0.639h-1.359v1.278h4.466v-1.278z"></path>
<path fill="#d5d0bb" d="M18.767 3.408h-2.524c-0.108-0.005-0.194-0.095-0.194-0.204 0-0.003 0-0.006 0-0.010l-0 0c-0-0.003-0-0.006-0-0.009 0-0.109 0.086-0.199 0.194-0.204l0-0h2.524c0.108 0.005 0.194 0.095 0.194 0.204 0 0.003-0 0.006-0 0.010l0-0c0 0.003 0 0.006 0 0.009 0 0.109-0.086 0.199-0.194 0.204l-0 0z"></path>
<path fill="#d5d0bb" d="M18.767 10.012h-2.524c-0.11-0.009-0.197-0.101-0.197-0.213s0.086-0.204 0.196-0.213l0.001-0h2.524c0.11 0.009 0.197 0.101 0.197 0.213s-0.086 0.204-0.196 0.213l-0.001 0z"></path>
<path fill="#d5d0bb" d="M21.874 4.686h-5.631c-0.11-0.009-0.197-0.101-0.197-0.213s0.086-0.204 0.196-0.213l0.001-0h5.631c0.11 0.009 0.197 0.101 0.197 0.213s-0.086 0.204-0.196 0.213l-0.001 0z"></path>
<path fill="#d5d0bb" d="M21.874 7.243h-5.631c-0.11-0.009-0.197-0.101-0.197-0.213s0.086-0.204 0.196-0.213l0.001-0h5.631c0.11 0.009 0.197 0.101 0.197 0.213s-0.086 0.204-0.196 0.213l-0.001 0z"></path>
<path fill="#d5d0bb" d="M21.874 8.734h-5.631c-0.11-0.009-0.197-0.101-0.197-0.213s0.086-0.204 0.196-0.213l0.001-0h5.631c0.11 0.009 0.197 0.101 0.197 0.213s-0.086 0.204-0.196 0.213l-0.001 0z"></path>
<path fill="#d5d0bb" d="M18.961 5.964h-2.718c-0.11-0.009-0.197-0.101-0.197-0.213s0.086-0.204 0.196-0.213l0.001-0h2.718c0.11 0.009 0.197 0.101 0.197 0.213s-0.086 0.204-0.196 0.213l-0.001 0z"></path>
<path fill="#d5d0bb" d="M21.874 5.964h-1.359c-0.11-0.009-0.197-0.101-0.197-0.213s0.086-0.204 0.196-0.213l0.001-0h1.359c0.11 0.009 0.197 0.101 0.197 0.213s-0.086 0.204-0.196 0.213l-0.001 0z"></path>
<path fill="#d5d0bb" d="M19.738 5.965c-0 0-0 0-0 0-0.055 0-0.104-0.024-0.137-0.062l-0-0c-0.035-0.040-0.056-0.093-0.056-0.151v-0c-0-0.001-0-0.003-0-0.004 0-0.057 0.021-0.108 0.056-0.148l-0 0c0.035-0.037 0.084-0.060 0.138-0.060s0.103 0.023 0.138 0.060l0 0c0.035 0.039 0.056 0.091 0.056 0.148 0 0.001 0 0.003-0 0.004v-0c0 0 0 0 0 0 0 0.058-0.021 0.111-0.056 0.152l0-0c-0.034 0.037-0.083 0.061-0.138 0.062h-0z"></path>
<path fill="#26b999" d="M24.981 9.799c0 1.412-1.043 2.556-2.33 2.556s-2.33-1.144-2.33-2.556c0-1.412 1.043-2.556 2.33-2.556s2.33 1.144 2.33 2.556z"></path>
<path fill="#fff" d="M23.927 8.559c-0.031-0.024-0.069-0.038-0.111-0.038-0.067 0-0.126 0.036-0.158 0.090l-0 0.001-1.087 1.713-0.767-0.691c-0.032-0.030-0.076-0.048-0.124-0.048-0.062 0-0.116 0.031-0.149 0.077l-0 0.001c-0.028 0.037-0.044 0.084-0.044 0.135 0 0.065 0.027 0.124 0.071 0.165l0 0 0.93 0.837c0.032 0.030 0.076 0.048 0.123 0.048h0c0.009 0 0.019-0.001 0.028-0.002l-0.001 0c0.056-0.010 0.104-0.043 0.132-0.088l0-0.001 1.207-1.902c0.022-0.034 0.035-0.076 0.035-0.121 0-0.071-0.032-0.134-0.083-0.176l-0-0z"></path>
<path fill="#424c59" d="M31.897 5.487c0.015-0.046 0.024-0.1 0.024-0.155 0-0.215-0.133-0.4-0.321-0.477l-0.003-0.001-4.141-1.436c-0.041-0.013-0.087-0.021-0.136-0.021-0.214 0-0.393 0.148-0.44 0.347l-0.001 0.003-0.435 1.511 5.016 1.743z"></path>
<path fill="#576271" d="M26.444 5.255l-1.445 5.007c-0.015 0.046-0.024 0.1-0.024 0.155 0 0.215 0.133 0.4 0.321 0.477l0.003 0.001 4.141 1.437c0.041 0.013 0.087 0.021 0.136 0.021 0.214 0 0.392-0.148 0.44-0.347l0.001-0.003 1.445-5.007z"></path>
<path fill="#73c1dd" d="M30.65 6.303l-3.178-1.103c-0.099-0.042-0.168-0.138-0.168-0.251 0-0.028 0.004-0.055 0.012-0.081l-0 0.002 0.15-0.522c0.026-0.105 0.12-0.182 0.231-0.182 0.024 0 0.048 0.004 0.070 0.011l-0.002-0 3.178 1.103c0.099 0.042 0.168 0.138 0.168 0.251 0 0.028-0.004 0.055-0.012 0.081l0-0.002-0.15 0.522c-0.025 0.105-0.119 0.182-0.23 0.182-0.025 0-0.049-0.004-0.072-0.011l0.002 0z"></path>
<path fill="#6d7a8a" d="M27.333 6.785l-0.363-0.128c-0.066-0.027-0.112-0.091-0.112-0.165 0-0.020 0.003-0.038 0.009-0.056l-0 0.001 0.116-0.399c0.017-0.070 0.079-0.121 0.152-0.121 0.017 0 0.034 0.003 0.049 0.008l-0.001-0 0.363 0.128c0.066 0.027 0.112 0.091 0.112 0.165 0 0.020-0.003 0.038-0.009 0.056l0-0.001-0.116 0.399c-0.017 0.070-0.079 0.121-0.152 0.121-0.017 0-0.034-0.003-0.049-0.008l0.001 0z"></path>
<path fill="#6d7a8a" d="M28.32 7.128l-0.363-0.128c-0.066-0.027-0.112-0.091-0.112-0.165 0-0.020 0.003-0.038 0.009-0.056l-0 0.001 0.116-0.399c0.017-0.070 0.079-0.121 0.152-0.121 0.017 0 0.034 0.003 0.049 0.008l-0.001-0 0.363 0.128c0.066 0.027 0.112 0.091 0.112 0.165 0 0.020-0.003 0.038-0.009 0.056l0-0.001-0.116 0.399c-0.016 0.070-0.078 0.121-0.152 0.121-0.017 0-0.034-0.003-0.050-0.008l0.001 0z"></path>
<path fill="#6d7a8a" d="M29.309 7.471l-0.363-0.128c-0.066-0.027-0.112-0.091-0.112-0.165 0-0.020 0.003-0.038 0.009-0.056l-0 0.001 0.116-0.399c0.017-0.070 0.079-0.121 0.152-0.121 0.017 0 0.034 0.003 0.049 0.008l-0.001-0 0.363 0.128c0.066 0.027 0.112 0.091 0.112 0.165 0 0.020-0.003 0.038-0.009 0.056l0-0.001-0.116 0.399c-0.017 0.070-0.079 0.121-0.152 0.121-0.017 0-0.034-0.003-0.049-0.008l0.001 0z"></path>
<path fill="#1277bd" d="M30.295 7.814l-0.363-0.128c-0.066-0.027-0.112-0.091-0.112-0.165 0-0.020 0.003-0.038 0.009-0.056l-0 0.001 0.116-0.399c0.017-0.070 0.079-0.121 0.152-0.121 0.017 0 0.034 0.003 0.049 0.008l-0.001-0 0.363 0.128c0.066 0.027 0.112 0.091 0.112 0.165 0 0.020-0.003 0.038-0.009 0.056l0-0.001-0.116 0.399c-0.016 0.070-0.078 0.121-0.152 0.121-0.017 0-0.034-0.003-0.050-0.008l0.001 0z"></path>
<path fill="#6d7a8a" d="M26.968 8.048l-0.363-0.128c-0.066-0.027-0.112-0.091-0.112-0.165 0-0.020 0.003-0.038 0.009-0.056l-0 0.001 0.116-0.399c0.017-0.070 0.079-0.121 0.152-0.121 0.017 0 0.034 0.003 0.049 0.008l-0.001-0 0.363 0.128c0.066 0.027 0.112 0.091 0.112 0.165 0 0.020-0.003 0.038-0.009 0.056l0-0.001-0.116 0.399c-0.016 0.070-0.078 0.121-0.152 0.121-0.017 0-0.034-0.003-0.050-0.008l0.001 0z"></path>
<path fill="#6d7a8a" d="M27.956 8.391l-0.363-0.128c-0.066-0.027-0.112-0.091-0.112-0.165 0-0.020 0.003-0.038 0.009-0.056l-0 0.001 0.116-0.399c0.017-0.070 0.079-0.121 0.152-0.121 0.017 0 0.034 0.003 0.049 0.008l-0.001-0 0.363 0.128c0.066 0.027 0.112 0.091 0.112 0.165 0 0.020-0.003 0.038-0.009 0.056l0-0.001-0.116 0.399c-0.017 0.070-0.079 0.121-0.152 0.121-0.017 0-0.034-0.003-0.049-0.008l0.001 0z"></path>
<path fill="#6d7a8a" d="M28.943 8.734l-0.363-0.128c-0.066-0.027-0.112-0.091-0.112-0.165 0-0.020 0.003-0.038 0.009-0.056l-0 0.001 0.116-0.399c0.017-0.070 0.079-0.121 0.152-0.121 0.017 0 0.034 0.003 0.049 0.008l-0.001-0 0.363 0.128c0.066 0.027 0.112 0.091 0.112 0.165 0 0.020-0.003 0.038-0.009 0.056l0-0.001-0.116 0.399c-0.016 0.070-0.078 0.121-0.152 0.121-0.017 0-0.034-0.003-0.050-0.008l0.001 0z"></path>
<path fill="#f6ab35" d="M29.932 9.077l-0.363-0.128c-0.066-0.027-0.112-0.091-0.112-0.165 0-0.020 0.003-0.038 0.009-0.056l-0 0.001 0.116-0.399c0.017-0.070 0.079-0.121 0.152-0.121 0.017 0 0.034 0.003 0.049 0.008l-0.001-0 0.363 0.128c0.066 0.027 0.112 0.091 0.112 0.165 0 0.020-0.003 0.038-0.009 0.056l0-0.001-0.116 0.399c-0.017 0.070-0.079 0.121-0.152 0.121-0.017 0-0.034-0.003-0.049-0.008l0.001 0z"></path>
<path fill="#6d7a8a" d="M26.604 9.311l-0.363-0.128c-0.066-0.027-0.112-0.091-0.112-0.165 0-0.020 0.003-0.038 0.009-0.056l-0 0.001 0.116-0.399c0.017-0.070 0.079-0.121 0.152-0.121 0.017 0 0.034 0.003 0.049 0.008l-0.001-0 0.363 0.128c0.066 0.027 0.112 0.091 0.112 0.165 0 0.020-0.003 0.038-0.009 0.056l0-0.001-0.116 0.399c-0.017 0.070-0.079 0.121-0.152 0.121-0.017 0-0.034-0.003-0.049-0.008l0.001 0z"></path>
<path fill="#6d7a8a" d="M27.591 9.654l-0.363-0.128c-0.066-0.027-0.112-0.091-0.112-0.165 0-0.020 0.003-0.038 0.009-0.056l-0 0.001 0.116-0.399c0.017-0.070 0.079-0.121 0.152-0.121 0.017 0 0.034 0.003 0.049 0.008l-0.001-0 0.363 0.128c0.066 0.027 0.112 0.091 0.112 0.165 0 0.020-0.003 0.038-0.009 0.056l0-0.001-0.116 0.399c-0.016 0.070-0.078 0.121-0.152 0.121-0.017 0-0.034-0.003-0.050-0.008l0.001 0z"></path>
<path fill="#6d7a8a" d="M28.58 9.997l-0.363-0.128c-0.066-0.027-0.112-0.091-0.112-0.165 0-0.020 0.003-0.038 0.009-0.056l-0 0.001 0.116-0.399c0.017-0.070 0.079-0.121 0.152-0.121 0.017 0 0.034 0.003 0.049 0.008l-0.001-0 0.363 0.128c0.066 0.027 0.112 0.091 0.112 0.165 0 0.020-0.003 0.038-0.009 0.056l0-0.001-0.116 0.399c-0.017 0.070-0.079 0.121-0.152 0.121-0.017 0-0.034-0.003-0.049-0.008l0.001 0z"></path>
<path fill="#d73d2b" d="M29.178 11.687l-0.363-0.128c-0.066-0.027-0.112-0.091-0.112-0.165 0-0.020 0.003-0.038 0.009-0.056l-0 0.001 0.503-1.745c0.017-0.070 0.079-0.121 0.152-0.121 0.017 0 0.034 0.003 0.049 0.008l-0.001-0 0.363 0.128c0.066 0.027 0.112 0.091 0.112 0.165 0 0.020-0.003 0.038-0.009 0.056l0-0.001-0.503 1.745c-0.016 0.070-0.078 0.121-0.152 0.121-0.017 0-0.034-0.003-0.050-0.008l0.001 0z"></path>
<path fill="#6d7a8a" d="M26.239 10.575l-0.363-0.128c-0.066-0.027-0.112-0.091-0.112-0.165 0-0.020 0.003-0.038 0.009-0.056l-0 0.001 0.116-0.399c0.017-0.070 0.079-0.121 0.152-0.121 0.017 0 0.034 0.003 0.049 0.008l-0.001-0 0.363 0.128c0.066 0.027 0.112 0.091 0.112 0.165 0 0.020-0.003 0.038-0.009 0.056l0-0.001-0.116 0.399c-0.017 0.070-0.079 0.121-0.153 0.121-0.017 0-0.033-0.003-0.049-0.008l0.001 0z"></path>
<path fill="#6d7a8a" d="M27.227 10.918l-0.363-0.128c-0.066-0.027-0.112-0.091-0.112-0.165 0-0.020 0.003-0.038 0.009-0.056l-0 0.001 0.116-0.399c0.017-0.070 0.079-0.121 0.152-0.121 0.017 0 0.034 0.003 0.049 0.008l-0.001-0 0.363 0.128c0.066 0.027 0.112 0.091 0.112 0.165 0 0.020-0.003 0.038-0.009 0.056l0-0.001-0.116 0.399c-0.017 0.070-0.080 0.121-0.154 0.121-0.017 0-0.033-0.003-0.048-0.008l0.001 0z"></path>
<path fill="#6d7a8a" d="M28.214 11.261l-0.363-0.128c-0.066-0.027-0.112-0.091-0.112-0.165 0-0.020 0.003-0.038 0.009-0.056l-0 0.001 0.116-0.399c0.017-0.070 0.079-0.121 0.152-0.121 0.017 0 0.034 0.003 0.049 0.008l-0.001-0 0.363 0.128c0.066 0.027 0.112 0.091 0.112 0.165 0 0.020-0.003 0.038-0.009 0.056l0-0.001-0.116 0.399c-0.017 0.070-0.079 0.121-0.153 0.121-0.017 0-0.033-0.003-0.049-0.008l0.001 0z"></path>
<path fill="#7383bf" d="M13.829 4.98c-0.001 0.001-0.002 0.002-0.003 0.003-0.014 0.015-0.033 0.023-0.052 0.024h0l-0.235 0.009c-0.020-0-0.039-0.007-0.055-0.022-0.018-0.016-0.026-0.039-0.026-0.061v-0c-0.002-0.022 0.006-0.045 0.022-0.063 0.015-0.016 0.034-0.024 0.054-0.026h-0l0.235-0.009c0.020 0 0.039 0.007 0.055 0.022 0.018 0.016 0.026 0.039 0.026 0.061v0c0.001 0.022-0.006 0.044-0.021 0.061l-0 0z"></path>
<path fill="#434c6d" d="M13.039 8.99l-0.148-4.637 0.626-0.024 0.148 4.637z"></path>
<path fill="#7383bf" d="M13.453 10.411c-0.001 0.001-0.002 0.002-0.003 0.003-0.014 0.015-0.033 0.023-0.052 0.024h0c-0.020-0-0.039-0.007-0.055-0.022-0.018-0.016-0.026-0.039-0.026-0.061v-0l-0.005-0.172c-0.002-0.022 0.006-0.045 0.022-0.063 0.015-0.016 0.034-0.024 0.054-0.026h-0c0.020 0 0.040 0.007 0.055 0.022 0.018 0.016 0.026 0.039 0.026 0.061v0l0.005 0.172c0.001 0.022-0.006 0.044-0.021 0.061l-0 0z"></path>
<path fill="#7383bf" d="M13.429 3.989l0.011 0.343-0.473 0.018-0.011-0.344z"></path>
<path fill="#7383bf" d="M14.070 6.888l-0.235 0.009-0.077-2.405 0.235-0.009z"></path>
<path fill="#7383bf" d="M13.682 9.482l-0.626 0.024-0.016-0.515 0.626-0.024z"></path>
<path fill="#434c6d" d="M13.134 9.503v0l0.47-0.018c0.053 0.205 0.011 0.428-0.13 0.598l-0.001 0.001-0.082 0.096-0.088-0.090c-0.153-0.162-0.209-0.38-0.17-0.585l0.001-0.003z"></path>
<path fill="#434c6d" d="M13.429 3.988l-0.47 0.018-0.011-0.344 0.469-0.018z"></path>
<path fill="#7383bf" d="M13.331 8.291l-0.313 0.012-0.104-3.263 0.313-0.012z"></path>
<path fill="#e1c3a0" d="M24.288 32h-10.009c-0.65 0-1.178-0.578-1.178-1.292v-14.855c0-0.713 0.527-1.292 1.178-1.292h10.009c0.65 0 1.178 0.578 1.178 1.292v14.856c-0.001 0.713-0.528 1.291-1.178 1.291z"></path>
<path fill="#eff2fa" d="M24.287 31.031h-10.009c-0.164-0.008-0.295-0.144-0.295-0.309 0-0.005 0-0.010 0-0.014l-0 0.001v-14.855c-0-0.004-0-0.009-0-0.014 0-0.166 0.13-0.301 0.294-0.309l0.001-0h10.009c0.164 0.008 0.295 0.144 0.295 0.309 0 0.005-0 0.010-0 0.014l0-0.001v14.856c0 0.004 0 0.009 0 0.013 0 0.166-0.13 0.301-0.294 0.309l-0.001 0z"></path>
<path fill="#c7cfe2" d="M21.049 14.561h-0.883v-0.323c0-0.535-0.395-0.969-0.883-0.969s-0.883 0.434-0.883 0.969v0.323h-0.883c-0.329 0.016-0.589 0.287-0.589 0.619 0 0.010 0 0.019 0.001 0.029l-0-0.001v0.646h4.71v-0.646c0-0.008 0.001-0.018 0.001-0.027 0-0.332-0.261-0.602-0.588-0.619l-0.001-0zM19.282 14.561c-0.165-0.008-0.295-0.143-0.295-0.309 0-0.005 0-0.010 0-0.014l-0 0.001c-0.001-0.008-0.001-0.018-0.001-0.027 0-0.163 0.132-0.296 0.296-0.296s0.296 0.132 0.296 0.296c0 0.009-0 0.019-0.001 0.028l0-0.001c0 0.004 0 0.009 0 0.014 0 0.166-0.13 0.301-0.294 0.309l-0.001 0z"></path>
<path fill="#afb9d2" d="M21.638 16.176h-4.71c-0.164-0.008-0.295-0.144-0.295-0.309 0-0.005 0-0.010 0-0.014l-0 0.001c-0-0.004-0-0.009-0-0.014 0-0.166 0.13-0.301 0.294-0.309l0.001-0h4.71c0.164 0.008 0.295 0.144 0.295 0.309 0 0.005-0 0.010-0 0.014l0-0.001c0 0.004 0 0.009 0 0.014 0 0.166-0.13 0.301-0.294 0.309l-0.001 0z"></path>
<path fill="#82889d" d="M16.338 20.697c-0.083-0.001-0.157-0.037-0.208-0.094l-0-0-0.883-0.969c-0.054-0.061-0.086-0.141-0.086-0.228s0.033-0.168 0.087-0.229l-0 0c0.051-0.058 0.125-0.094 0.208-0.094s0.157 0.036 0.208 0.094l0 0 0.675 0.741 1.264-1.386c0.051-0.058 0.125-0.094 0.208-0.094s0.157 0.036 0.208 0.094l0 0c0.054 0.061 0.086 0.141 0.086 0.228s-0.033 0.168-0.087 0.229l0-0-1.471 1.614c-0.051 0.058-0.125 0.094-0.208 0.095h-0z"></path>
<path fill="#afb9d2" opacity="0.97" d="M21.343 19.405h-2.355c-0.164-0.008-0.295-0.144-0.295-0.309 0-0.005 0-0.010 0-0.014l-0 0.001c-0-0.004-0-0.009-0-0.014 0-0.166 0.13-0.301 0.294-0.309l0.001-0h2.355c0.164 0.008 0.295 0.144 0.295 0.309 0 0.005-0 0.010-0 0.014l0-0.001c0 0.004 0 0.009 0 0.014 0 0.166-0.13 0.301-0.294 0.309l-0.001 0z"></path>
<path fill="#c7cfe2" opacity="0.97" d="M22.815 20.697h-3.827c-0.164-0.008-0.295-0.144-0.295-0.309 0-0.005 0-0.010 0-0.014l-0 0.001c-0-0.004-0-0.009-0-0.014 0-0.166 0.13-0.301 0.294-0.309l0.001-0h3.827c0.164 0.008 0.295 0.144 0.295 0.309 0 0.005-0 0.010-0 0.014l0-0.001c0 0.004 0 0.009 0 0.014 0 0.166-0.13 0.301-0.294 0.309l-0.001 0z"></path>
<path fill="#29485a" d="M15.805 21.86h1.813v0.306h-1.813z"></path>
<path fill="#29485a" d="M15.805 22.472h1.813v0.306h-1.813z"></path>
<path fill="#29485a" d="M15.805 23.084h1.255v0.306h-1.255z"></path>
<path fill="#29485a" d="M15.805 23.696h1.255v0.306h-1.255z"></path>
<path fill="#29485a" d="M15.108 29.815h8.367v0.306h-8.367z"></path>
<path fill="#ed1c24" d="M15.677 27.826l-0.024-0.306c2.914-0.277 5.41-2.401 6.379-5.428l0.335-1.047 0.263 0.101-0.335 1.047c-1.005 3.141-3.595 5.346-6.618 5.633z"></path>
<path fill="#ed1c24" d="M15.805 28.438h0.976v0.918h-0.976z"></path>
<path fill="#fbb03b" d="M17.339 27.979h0.976v1.377h-0.976z"></path>
<path fill="#f8cf26" d="M18.873 27.214h0.976v2.142h-0.976z"></path>
<path fill="#39b54a" d="M20.406 26.143h0.976v3.212h-0.976z"></path>
<path fill="#0071bc" d="M21.94 24.002h0.976v5.354h-0.976z"></path>
<path fill="#ed1c24" d="M23.056 22.472c-0.056-0.001-0.104-0.035-0.125-0.084l-0-0.001-0.495-1.086-0.99 0.544c-0.018 0.010-0.040 0.016-0.063 0.016-0.056 0-0.104-0.034-0.124-0.083l-0-0.001c-0.010-0.020-0.015-0.043-0.015-0.068 0-0.058 0.031-0.109 0.077-0.137l0.001-0 1.116-0.612c0.018-0.010 0.040-0.016 0.063-0.016 0.056 0 0.104 0.034 0.124 0.083l0 0.001 0.558 1.224c0.009 0.020 0.015 0.043 0.015 0.067 0 0.058-0.031 0.109-0.078 0.137l-0.001 0c-0.018 0.010-0.039 0.016-0.062 0.016-0 0-0 0-0 0h0z"></path>
</svg>
