<!-- Generated by IcoMoon.io -->
<svg version="1.1" xmlns="http://www.w3.org/2000/svg" width="37" height="32" viewBox="0 0 37 32">
<title>governanceriskassurance</title>
<path fill="#fdcb6e" d="M28.906 16.446c-0.033-0.215-0.377-0.377-0.674-0.377-0.961 0-1.815-0.412-2.172-1.048-0.366-0.652-0.13-1.412 0.587-1.891 0.226-0.15 0.253-0.402 0.064-0.577-0.489-0.451-1.033-0.855-1.617-1.199l-0.044-0.024c-0.104-0.059-0.229-0.094-0.362-0.094-0.163 0-0.315 0.052-0.438 0.142l0.002-0.002c-0.625 0.505-1.749 0.692-2.617 0.428-0.903-0.277-1.473-0.944-1.417-1.66 0.018-0.225-0.207-0.42-0.515-0.447-0.361-0.032-0.782-0.051-1.206-0.051-0.407 0-0.809 0.017-1.208 0.050l0.052-0.004c-0.304 0.025-0.53 0.215-0.519 0.438 0.034 0.709-0.542 1.365-1.437 1.631-0.858 0.256-1.973 0.070-2.597-0.431-0.121-0.087-0.272-0.139-0.435-0.139-0.131 0-0.254 0.034-0.361 0.092l0.004-0.002c-0.643 0.368-1.199 0.772-1.706 1.23l0.008-0.007c-0.194 0.176-0.165 0.43 0.063 0.581 0.73 0.482 0.966 1.249 0.587 1.908-0.362 0.629-1.258 1.034-2.283 1.034-0.333-0.008-0.569 0.155-0.606 0.375-0.045 0.266-0.070 0.572-0.070 0.884 0 0.302 0.024 0.598 0.070 0.887l-0.004-0.032c0.033 0.216 0.387 0.376 0.688 0.376 0.914-0.017 1.791 0.395 2.159 1.048s0.131 1.411-0.587 1.891c-0.224 0.15-0.253 0.401-0.064 0.576 0.488 0.451 1.032 0.855 1.615 1.2l0.044 0.024c0.104 0.059 0.229 0.094 0.363 0.094 0.164 0 0.315-0.053 0.438-0.142l-0.002 0.002c0.628-0.506 1.751-0.693 2.616-0.429 0.906 0.276 1.475 0.943 1.419 1.66-0.018 0.225 0.208 0.421 0.515 0.447q0.601 0.051 1.209 0.051 0.576 0 1.152-0.047c0.304-0.025 0.53-0.215 0.519-0.438-0.035-0.709 0.542-1.364 1.435-1.631 0.863-0.257 1.974-0.069 2.598 0.431 0.121 0.087 0.272 0.139 0.435 0.139 0.131 0 0.254-0.033 0.361-0.092l-0.004 0.002c0.643-0.368 1.199-0.772 1.706-1.23l-0.008 0.008c0.194-0.175 0.166-0.43-0.063-0.581-0.73-0.482-0.967-1.249-0.588-1.908 0.357-0.62 1.219-1.037 2.146-1.037l0.13 0.002c0.301 0.018 0.578-0.151 0.614-0.375 0.045-0.266 0.071-0.573 0.071-0.886 0-0.301-0.024-0.597-0.070-0.885l0.004 0.032zM18.496 19.862c-1.93 0-3.5-1.144-3.5-2.551s1.57-2.551 3.5-2.551 3.499 1.144 3.499 2.551-1.57 2.551-3.499 2.551z"></path>
<path fill="#fff" d="M23.935 17.281c0 2.194-2.44 3.972-5.45 3.972s-5.45-1.778-5.45-3.972c0-2.194 2.44-3.972 5.45-3.972s5.45 1.778 5.45 3.972z"></path>
<path fill="#3b3b3b" d="M21.755 17.67c0 1.316-1.474 2.383-3.292 2.383s-3.292-1.067-3.292-2.383c0-1.316 1.474-2.383 3.292-2.383s3.292 1.067 3.292 2.383z"></path>
<path fill="#fff" d="M1.424 8.639h34.212v9.014h-34.212v-9.014z"></path>
<path fill="#2d3436" d="M18.518 28.235c-0.475 0-0.861-0.281-0.861-0.628v-26.98c0-0.346 0.386-0.628 0.861-0.628s0.861 0.281 0.861 0.628v26.98c0 0.346-0.386 0.627-0.861 0.627z"></path>
<path fill="#0984e3" d="M0.62 19.451c-2.615-7.205 3.28-14.59 13.165-16.496 0.724-0.149 1.622-0.276 2.534-0.354l0.092-0.006c10.167-0.841 19.344 4.483 20.498 11.893 0.075 0.459 0.117 0.987 0.117 1.526 0 1.234-0.224 2.415-0.633 3.506l0.023-0.069v-0.004c-1.392-1.695-4.406-2.246-6.731-1.232-0.648 0.276-1.195 0.674-1.636 1.169l-0.004 0.005-0.057 0.062-0.511-0.597c-1.436-1.675-4.463-2.185-6.762-1.138-0.511 0.23-0.949 0.528-1.327 0.889l0.002-0.002-0.872 0.848-0.872-0.847c-1.626-1.58-4.702-1.9-6.87-0.715-0.474 0.256-0.877 0.579-1.213 0.961l-0.004 0.005-0.511 0.596-0.054-0.063c-1.436-1.675-4.464-2.185-6.762-1.138-0.638 0.283-1.176 0.688-1.604 1.189l-0.005 0.006z"></path>
<path fill="#e0632e" d="M18.518 2.51l2.315 1.841c4.603 3.659 7.155 8.442 7.155 13.406v1.694l0.619-0.593c1.838-1.447 4.937-1.534 6.921-0.194 0.276 0.186 0.516 0.391 0.731 0.621l0.002 0.002 0.203 0.012c2.502-7.222-3.502-14.555-13.41-16.379-1.359-0.261-2.922-0.411-4.52-0.411-0.006 0-0.011 0-0.017 0h0.001z"></path>
<path fill="#dfe6e9" d="M18.518 2.51l-2.315 1.841c-4.602 3.659-7.155 8.442-7.154 13.405v1.694l0.511-0.597c1.436-1.675 4.463-2.185 6.762-1.138 0.511 0.23 0.949 0.528 1.327 0.889l-0.002-0.002 0.872 0.848z"></path>
<path fill="#fdcb6e" d="M21.101 32c1.902 0 3.444-1.124 3.444-2.51v-1.255c0-0.347-0.385-0.628-0.861-0.628s-0.861 0.281-0.861 0.628v1.255c0 0.693-0.771 1.255-1.722 1.255s-1.722-0.562-1.722-1.255v-3.138h-1.722v3.138c0 1.386 1.542 2.51 3.444 2.51z"></path>
<path fill="#0984e3" d="M27.988 19.451v-1.694c0-4.963-2.552-9.746-7.154-13.404l-2.316-1.843v16.941l0.872-0.847c1.626-1.58 4.702-1.9 6.87-0.715 0.474 0.256 0.877 0.579 1.213 0.961l0.004 0.005v0.003z"></path>
<path fill="#dfe6e9" d="M36.93 14.59c-0.070-0.473-0.158-0.883-0.271-1.283l0.017 0.071c-0.014-0.051-0.026-0.102-0.041-0.153-0.133-0.462-0.27-0.84-0.427-1.207l0.026 0.068c-0.024-0.057-0.047-0.116-0.072-0.173-0.191-0.436-0.372-0.79-0.571-1.133l0.029 0.053c-0.032-0.057-0.064-0.114-0.098-0.169-0.239-0.403-0.463-0.739-0.703-1.063l0.023 0.033c-0.037-0.050-0.076-0.1-0.114-0.149q-0.383-0.506-0.822-0.986c-0.035-0.038-0.072-0.075-0.109-0.114-0.306-0.326-0.63-0.644-0.974-0.949-0.022-0.020-0.046-0.038-0.068-0.057-0.362-0.318-0.743-0.628-1.143-0.917s-0.818-0.565-1.251-0.829c-0.032-0.019-0.061-0.039-0.093-0.058-0.418-0.251-0.854-0.486-1.302-0.709-0.051-0.026-0.102-0.052-0.153-0.077-0.44-0.215-0.895-0.416-1.361-0.603-0.065-0.026-0.128-0.052-0.192-0.077q-0.698-0.273-1.433-0.502l-0.205-0.063q-0.741-0.224-1.512-0.403c-0.065-0.015-0.132-0.029-0.198-0.043-0.525-0.116-1.059-0.218-1.604-0.301l-0.155-0.021c-0.564-0.081-1.137-0.147-1.722-0.188l-0.065-0.004c-0.61-0.049-1.225-0.074-1.85-0.074l2.315 1.842c4.602 3.659 7.155 8.442 7.155 13.406v1.694l0.054-0.063c1.436-1.675 4.464-2.184 6.762-1.137 0.638 0.283 1.176 0.688 1.604 1.189l0.005 0.006v0.004c0.386-1.026 0.61-2.213 0.611-3.451v-0c0.004-0.439-0.089-1.375-0.094-1.409z"></path>
</svg>
