<!-- Generated by IcoMoon.io -->
<svg version="1.1" xmlns="http://www.w3.org/2000/svg" width="37" height="32" viewBox="0 0 37 32">
<title>hrpayrollservices</title>
<path fill="#b2bec3" d="M23.72 8.593l-0.418-0.144c-0.101-0.034-0.218-0.055-0.339-0.058l-0.002-0c-0.471 0-0.891 0.345-1.048 0.834l-0.236 0.777v-0.604c-0.007-0.090-0.046-0.17-0.105-0.23l0 0-4.296-4.572c-0.046-0.050-0.111-0.082-0.183-0.086l-0.001-0h-8.407c-0.001 0-0.002-0-0.003-0-0.144 0-0.26 0.117-0.26 0.26 0 0.010 0.001 0.019 0.002 0.029l-0-0.001v0.892h-0.969c-0.001 0-0.002-0-0.003-0-0.144 0-0.26 0.117-0.26 0.26 0 0.010 0.001 0.019 0.002 0.028l-0-0.001v17.229c-0.001 0.008-0.001 0.018-0.001 0.027 0 0.144 0.117 0.26 0.26 0.26 0.001 0 0.002 0 0.003-0h12.729c0.001 0 0.002 0 0.003 0 0.144 0 0.26-0.117 0.26-0.26 0-0.010-0.001-0.019-0.002-0.029l0 0.001v-0.892h0.969c0.001 0 0.002 0 0.003 0 0.144 0 0.26-0.117 0.26-0.26 0-0.010-0.001-0.019-0.002-0.029l0 0.001v-3.883l0.733-1.093 0.026-0.086 1.964-6.874c0.21-0.633-0.104-1.294-0.681-1.496zM17.356 5.487l3.431 3.624h-3.431zM19.923 22.917h-12.205v-16.653h0.707v15.762c-0.001 0.008-0.001 0.018-0.001 0.027 0 0.144 0.117 0.26 0.26 0.26 0.001 0 0.002 0 0.003-0h11.236v0.604zM21.18 21.737h-12.231v-16.653h7.883v4.314c-0.001 0.008-0.001 0.018-0.001 0.027 0 0.144 0.117 0.26 0.26 0.26 0.001 0 0.002 0 0.003-0h4.086v2.157l-1.231 4.257v0.086l0.052 3.653c0 0 0 0.001 0 0.001 0 0.119 0.076 0.22 0.181 0.257l0.002 0.001c0.023 0.008 0.049 0.013 0.077 0.013 0.091 0 0.17-0.051 0.211-0.127l0.001-0.001 0.707-1.035v2.79zM20.499 18.947l-0.052-2.387 1.31 0.46zM23.93 9.916l-1.886 6.587-1.519-0.546 1.886-6.558c0.105-0.316 0.419-0.518 0.707-0.403l0.419 0.144c0.248 0.084 0.423 0.315 0.423 0.586 0 0.068-0.011 0.133-0.031 0.194l0.001-0.004z"></path>
<path fill="#53c7f0" d="M10.73 9.686h3.772c0.001 0 0.002 0 0.003 0 0.144 0 0.26-0.117 0.26-0.26 0-0.010-0.001-0.019-0.002-0.028l0 0.001v-2.934c0.001-0.008 0.001-0.018 0.001-0.027 0-0.144-0.117-0.26-0.26-0.26-0.001 0-0.002 0-0.003 0h-3.771c-0.001 0-0.002-0-0.003-0-0.144 0-0.26 0.117-0.26 0.26 0 0.010 0.001 0.019 0.002 0.029l-0-0.001v2.934c0.004 0.149 0.116 0.27 0.261 0.287l0.001 0zM10.992 6.752h3.248v2.359h-3.248z"></path>
<path fill="#53c7f0" d="M10.206 14.49h7.962c0.147-0.014 0.262-0.138 0.262-0.288s-0.114-0.273-0.261-0.288l-0.001-0h-7.962c-0.147 0.014-0.262 0.138-0.262 0.288s0.114 0.273 0.261 0.288l0.001 0z"></path>
<path fill="#53c7f0" d="M10.206 16.589h7.962c0.147-0.014 0.262-0.138 0.262-0.288s-0.114-0.273-0.261-0.288l-0.001-0h-7.962c-0.147 0.014-0.262 0.138-0.262 0.288s0.114 0.273 0.261 0.288l0.001 0z"></path>
<path fill="#53c7f0" d="M18.404 18.401c0.001-0.008 0.001-0.018 0.001-0.027 0-0.144-0.117-0.26-0.26-0.26-0.001 0-0.002 0-0.003 0h-7.936c-0.147 0.014-0.262 0.138-0.262 0.288s0.114 0.273 0.261 0.288l0.001 0h7.962c0.134-0.020 0.236-0.134 0.236-0.272 0-0.005-0-0.011-0-0.016l0 0.001z"></path>
<path fill="#53c7f0" d="M19.268 20.213h-3.955c-0.147 0.014-0.262 0.138-0.262 0.288s0.114 0.273 0.261 0.288l0.001 0h3.929c0.001 0 0.002 0 0.003 0 0.144 0 0.26-0.117 0.26-0.26 0-0.010-0.001-0.019-0.002-0.029l0 0.001c0.001-0.009 0.002-0.020 0.002-0.032 0-0.135-0.104-0.246-0.237-0.256l-0.001-0z"></path>
<path fill="#ffd949" d="M5.328 8.105c-1.034 0-1.872-1.030-1.872-2.3s0.838-2.301 1.872-2.301 1.872 1.030 1.872 2.301-0.838 2.301-1.872 2.301z"></path>
<path fill="#f4bf1a" d="M3.456 5.805c0-1.176 0.717-2.144 1.642-2.283-0.069-0.011-0.148-0.018-0.229-0.018h-0c-1.034 0-1.872 1.030-1.872 2.301s0.838 2.301 1.872 2.301c0.081-0 0.16-0.007 0.238-0.019l-0.009 0.001c-0.925-0.14-1.642-1.109-1.642-2.283z"></path>
<path fill="#f4bf1a" d="M5.334 7.655h-0.007c-0.056-0-0.112-0.004-0.166-0.011l0.006 0.001c-0.039-0.007-0.068-0.040-0.068-0.080 0-0.004 0-0.008 0.001-0.012l-0 0c0.003-0.040 0.037-0.072 0.078-0.072 0.002 0 0.005 0 0.007 0l-0-0c0.043 0.006 0.092 0.009 0.142 0.009v0c0.044 0.001 0.080 0.038 0.080 0.082 0 0 0 0 0 0v0c0 0.002 0 0.004 0 0.005 0 0.041-0.032 0.075-0.073 0.077h-0zM5.778 7.567c-0.033-0.001-0.061-0.023-0.071-0.053l-0-0.001c-0.003-0.009-0.005-0.019-0.005-0.029 0-0.034 0.020-0.063 0.049-0.077l0.001-0c0.052-0.021 0.095-0.042 0.136-0.065l-0.006 0.003c0.010-0.006 0.022-0.009 0.035-0.009 0.030 0 0.056 0.018 0.068 0.044l0 0c0.005 0.011 0.009 0.024 0.009 0.037 0 0.031-0.017 0.058-0.041 0.073l-0 0c-0.040 0.022-0.088 0.046-0.137 0.066l-0.009 0.003c-0.008 0.003-0.017 0.005-0.027 0.005v0zM4.744 7.504c-0 0-0 0-0 0-0.013 0-0.025-0.003-0.035-0.009l0 0c-0.054-0.030-0.099-0.058-0.143-0.089l0.004 0.003c-0.021-0.016-0.035-0.041-0.035-0.069 0-0.017 0.005-0.032 0.013-0.045l-0 0c0.013-0.022 0.037-0.037 0.064-0.037 0.016 0 0.030 0.005 0.043 0.014l-0-0c0.035 0.025 0.075 0.051 0.117 0.074l0.007 0.003c0.025 0.015 0.042 0.042 0.042 0.073 0 0.013-0.003 0.026-0.009 0.037l0-0c-0.012 0.026-0.038 0.044-0.068 0.045h-0zM6.28 7.211c-0.021-0-0.040-0.009-0.054-0.024l-0-0c-0.014-0.015-0.022-0.036-0.022-0.058s0.008-0.043 0.022-0.058l-0 0c0.033-0.036 0.066-0.075 0.096-0.115 0.013-0.018 0.035-0.030 0.059-0.030 0.019 0 0.036 0.007 0.049 0.019l-0-0c0.018 0.016 0.029 0.039 0.029 0.064 0 0.019-0.006 0.037-0.017 0.052l0-0c-0.034 0.045-0.070 0.087-0.106 0.127-0.013 0.015-0.033 0.024-0.054 0.024h-0zM4.278 7.095c-0.024-0-0.046-0.012-0.059-0.030l-0-0c-0.033-0.044-0.065-0.090-0.095-0.137-0.008-0.013-0.013-0.029-0.013-0.046 0-0.028 0.013-0.052 0.034-0.068l0-0c0.012-0.009 0.027-0.014 0.043-0.014 0.027 0 0.050 0.014 0.063 0.036l0 0c0.027 0.043 0.056 0.085 0.086 0.124 0.011 0.014 0.018 0.033 0.018 0.052 0 0.025-0.011 0.048-0.028 0.064l-0 0c-0.013 0.011-0.030 0.019-0.048 0.019v0zM6.616 6.674c-0.011-0-0.022-0.003-0.031-0.007l0 0c-0.028-0.014-0.046-0.043-0.046-0.075 0-0.012 0.002-0.023 0.007-0.033l-0 0.001c0.019-0.047 0.037-0.096 0.052-0.145 0.009-0.032 0.038-0.056 0.073-0.056 0.009 0 0.017 0.001 0.025 0.004l-0.001-0c0.031 0.013 0.052 0.043 0.052 0.078 0 0.010-0.002 0.019-0.005 0.027l0-0.001c-0.017 0.054-0.036 0.107-0.057 0.159-0.011 0.029-0.038 0.049-0.070 0.049h-0zM3.987 6.529c-0.034-0.001-0.063-0.024-0.072-0.055l-0-0.001c-0.017-0.053-0.032-0.108-0.045-0.163-0.002-0.006-0.003-0.013-0.003-0.021 0-0.037 0.024-0.068 0.058-0.079l0.001-0c0.005-0.001 0.012-0.002 0.018-0.002 0.037 0 0.068 0.027 0.075 0.062l0 0c0.012 0.050 0.025 0.101 0.041 0.15 0.003 0.008 0.004 0.017 0.004 0.027 0 0.035-0.021 0.065-0.052 0.077l-0.001 0c-0.007 0.003-0.016 0.005-0.025 0.005v0zM6.761 6.045h-0.006c-0.040-0.005-0.070-0.039-0.070-0.080 0-0.003 0-0.006 0-0.009l-0 0c0.004-0.050 0.005-0.101 0.005-0.151-0-0.001-0-0.002-0-0.004 0-0.043 0.034-0.079 0.076-0.081h0c0.042 0 0.076 0.035 0.076 0.077 0 0.001 0 0.002-0 0.003v-0 0.004c0 0.055-0.002 0.11-0.006 0.164-0.002 0.041-0.035 0.074-0.076 0.076h-0zM3.889 5.887c-0.042-0.001-0.076-0.036-0.076-0.079 0-0.001 0-0.002 0-0.003v0-0.002c0-0.056 0.002-0.112 0.006-0.167 0.002-0.042 0.036-0.075 0.078-0.075 0.001 0 0.003 0 0.004 0h-0c0.040 0.005 0.070 0.039 0.070 0.080 0 0.003-0 0.006-0.001 0.009l0-0c-0.004 0.051-0.006 0.103-0.006 0.154 0 0.001 0 0.002 0 0.003 0 0.043-0.034 0.078-0.076 0.080h-0zM6.71 5.398c-0.037-0.001-0.067-0.027-0.074-0.062l-0-0c-0.012-0.051-0.026-0.101-0.041-0.15-0.003-0.008-0.005-0.017-0.005-0.027 0-0.035 0.021-0.065 0.051-0.077l0.001-0c0.007-0.003 0.016-0.004 0.025-0.004 0.034 0 0.063 0.023 0.072 0.055l0 0.001c0.017 0.053 0.032 0.108 0.045 0.163 0.002 0.006 0.003 0.013 0.003 0.021 0 0.037-0.024 0.068-0.058 0.079l-0.001 0c-0.005 0.002-0.012 0.003-0.018 0.003-0 0-0 0-0.001 0h0zM3.986 5.248c-0.009-0-0.017-0.002-0.025-0.005l0.001 0c-0.031-0.013-0.052-0.043-0.052-0.078 0-0.010 0.002-0.019 0.005-0.028l-0 0.001c0.017-0.053 0.036-0.107 0.057-0.158 0.011-0.029 0.038-0.049 0.070-0.049 0.011 0 0.022 0.002 0.031 0.007l-0-0c0.028 0.014 0.046 0.043 0.046 0.075 0 0.012-0.002 0.023-0.007 0.033l0-0.001c-0.019 0.047-0.037 0.096-0.052 0.145-0.009 0.032-0.038 0.055-0.072 0.056h-0zM6.466 4.805c-0.027-0-0.050-0.015-0.063-0.036l-0-0c-0.027-0.043-0.056-0.085-0.086-0.124-0.011-0.014-0.018-0.033-0.018-0.052 0-0.025 0.011-0.048 0.028-0.064l0-0c0.013-0.011 0.030-0.019 0.049-0.019 0.024 0 0.046 0.012 0.059 0.030l0 0c0.033 0.043 0.065 0.089 0.095 0.137 0.008 0.013 0.013 0.029 0.013 0.046 0 0.028-0.013 0.052-0.033 0.068l-0 0c-0.012 0.009-0.027 0.014-0.043 0.014h-0zM4.276 4.68c-0.019-0-0.035-0.007-0.048-0.019l0 0c-0.017-0.016-0.028-0.039-0.028-0.064 0-0.020 0.006-0.038 0.017-0.052l-0 0c0.034-0.044 0.070-0.087 0.106-0.127 0.013-0.015 0.033-0.024 0.054-0.024s0.041 0.009 0.054 0.024l0 0c0.014 0.015 0.022 0.036 0.022 0.058s-0.008 0.043-0.022 0.058l0-0c-0.033 0.036-0.066 0.075-0.096 0.115-0.014 0.018-0.035 0.030-0.059 0.030h-0zM6.039 4.349c-0.016-0-0.030-0.005-0.042-0.013l0 0c-0.035-0.025-0.075-0.050-0.117-0.074l-0.007-0.003c-0.025-0.015-0.042-0.042-0.042-0.073 0-0.013 0.003-0.026 0.009-0.037l-0 0c0.012-0.027 0.038-0.045 0.068-0.045 0.013 0 0.025 0.003 0.035 0.009l-0-0c0.054 0.029 0.099 0.058 0.143 0.089l-0.004-0.003c0.021 0.016 0.035 0.041 0.035 0.069 0 0.016-0.005 0.032-0.013 0.045l0-0c-0.013 0.022-0.037 0.037-0.064 0.037h-0zM4.742 4.271c-0.030-0-0.056-0.019-0.068-0.044l-0-0c-0.005-0.011-0.009-0.024-0.009-0.037 0-0.031 0.017-0.058 0.042-0.073l0-0c0.040-0.022 0.088-0.046 0.137-0.066l0.009-0.003c0.008-0.003 0.017-0.005 0.027-0.005 0.034 0 0.062 0.022 0.072 0.052l0 0.001c0.003 0.009 0.005 0.019 0.005 0.029 0 0.034-0.020 0.063-0.049 0.077l-0.001 0c-0.052 0.021-0.095 0.042-0.137 0.065l0.006-0.003c-0.010 0.006-0.022 0.009-0.035 0.009-0 0-0 0-0 0v0zM5.475 4.127c-0.001 0-0.003 0-0.004 0s-0.003-0-0.005-0h0c-0.042-0.005-0.090-0.009-0.139-0.009-0 0-0 0-0.001 0h0c-0.043-0.002-0.078-0.038-0.078-0.081 0-0 0-0.001 0-0.001v0c-0-0.001-0-0.003-0-0.004 0-0.042 0.033-0.076 0.075-0.078h0.004c0.055 0 0.11 0.004 0.163 0.010l-0.006-0.001c0.039 0.007 0.068 0.040 0.068 0.080 0 0.004-0 0.008-0.001 0.011l0-0c-0.003 0.040-0.036 0.071-0.076 0.073h-0z"></path>
<path fill="#dca815" d="M3.456 5.887h-0.458c0.002 0.055 0.004 0.11 0.009 0.164h0.459q-0.007-0.081-0.010-0.164z"></path>
<path fill="#dca815" d="M3.473 5.476h-0.458c-0.006 0.054-0.011 0.109-0.014 0.164h0.458c0.003-0.055 0.007-0.11 0.014-0.164z"></path>
<path fill="#dca815" d="M3.498 6.297h-0.458q0.015 0.083 0.035 0.164h0.458q-0.020-0.081-0.035-0.164z"></path>
<path fill="#dca815" d="M3.605 6.708h-0.459c0.020 0.056 0.041 0.111 0.064 0.164h0.458q-0.035-0.080-0.064-0.164z"></path>
<path fill="#dca815" d="M3.553 5.065h-0.458c-0.015 0.054-0.029 0.109-0.040 0.164h0.459c0.012-0.056 0.025-0.111 0.039-0.164z"></path>
<path fill="#dca815" d="M3.705 4.654h-0.458c-0.025 0.053-0.049 0.108-0.071 0.164h0.459q0.033-0.084 0.070-0.164z"></path>
<path fill="#dca815" d="M4.017 4.161h-0.459q-0.065 0.078-0.124 0.164h0.459q0.059-0.086 0.124-0.164z"></path>
<path fill="#dca815" d="M4.484 3.75h-0.459c-0.085 0.053-0.158 0.107-0.227 0.166l0.002-0.002h0.459c0.066-0.057 0.14-0.111 0.217-0.16l0.008-0.004z"></path>
<path fill="#dca815" d="M3.839 7.201h-0.459q0.053 0.085 0.112 0.164h0.459q-0.059-0.079-0.113-0.164z"></path>
<path fill="#dca815" d="M3.711 7.612c0.059 0.057 0.122 0.111 0.188 0.161l0.005 0.004h0.459c-0.072-0.053-0.135-0.107-0.194-0.165l0 0z"></path>
<path fill="#ffd949" d="M6.621 11.362c-1.034 0-1.872-1.030-1.872-2.3s0.838-2.301 1.872-2.301 1.872 1.030 1.872 2.301-0.838 2.301-1.872 2.301z"></path>
<path fill="#f4bf1a" d="M4.75 9.062c0-1.176 0.717-2.144 1.642-2.283-0.069-0.011-0.148-0.018-0.229-0.018h-0c-1.034 0-1.872 1.030-1.872 2.301s0.838 2.301 1.872 2.301c0.081-0 0.16-0.007 0.238-0.019l-0.009 0.001c-0.925-0.14-1.642-1.109-1.642-2.283z"></path>
<path fill="#f4bf1a" d="M6.628 10.912h-0.007c-0.056-0-0.112-0.004-0.166-0.011l0.006 0.001c-0.039-0.007-0.068-0.040-0.068-0.080 0-0.004 0-0.008 0.001-0.012l-0 0c0.003-0.040 0.037-0.072 0.078-0.072 0.002 0 0.005 0 0.007 0l-0-0c0.043 0.006 0.092 0.009 0.142 0.009v0c0.044 0.001 0.080 0.038 0.080 0.082 0 0 0 0 0 0v0c0 0.002 0 0.004 0 0.005 0 0.041-0.032 0.075-0.073 0.077h-0zM7.072 10.824c-0.033-0.001-0.061-0.023-0.071-0.053l-0-0.001c-0.003-0.009-0.005-0.019-0.005-0.029 0-0.034 0.020-0.063 0.049-0.076l0.001-0c0.052-0.021 0.095-0.042 0.136-0.065l-0.006 0.003c0.010-0.006 0.022-0.009 0.035-0.009 0.030 0 0.056 0.018 0.068 0.044l0 0c0.005 0.011 0.009 0.024 0.009 0.037 0 0.031-0.017 0.058-0.041 0.073l-0 0c-0.040 0.022-0.088 0.046-0.137 0.066l-0.009 0.003c-0.008 0.003-0.017 0.005-0.027 0.005v0zM6.037 10.761c-0 0-0 0-0 0-0.013 0-0.025-0.003-0.035-0.009l0 0c-0.054-0.030-0.099-0.058-0.143-0.089l0.004 0.003c-0.021-0.016-0.035-0.041-0.035-0.069 0-0.017 0.005-0.032 0.013-0.045l-0 0c0.013-0.022 0.037-0.037 0.064-0.037 0.016 0 0.030 0.005 0.043 0.014l-0-0c0.035 0.025 0.075 0.050 0.117 0.074l0.007 0.003c0.025 0.015 0.042 0.042 0.042 0.073 0 0.013-0.003 0.026-0.009 0.037l0-0.001c-0.012 0.026-0.038 0.044-0.068 0.045h-0zM7.574 10.469c-0.021-0-0.040-0.009-0.054-0.024l-0-0c-0.014-0.015-0.022-0.036-0.022-0.058s0.008-0.043 0.022-0.058l-0 0c0.033-0.036 0.066-0.075 0.096-0.115 0.013-0.018 0.035-0.030 0.059-0.030 0.019 0 0.036 0.007 0.049 0.019l-0-0c0.018 0.016 0.029 0.039 0.029 0.064 0 0.019-0.006 0.037-0.017 0.052l0-0c-0.034 0.044-0.070 0.087-0.106 0.127-0.013 0.015-0.033 0.024-0.054 0.024h-0zM5.572 10.353c-0.024-0-0.046-0.012-0.059-0.030l-0-0c-0.033-0.044-0.065-0.090-0.095-0.137-0.008-0.013-0.013-0.029-0.013-0.046 0-0.028 0.013-0.052 0.034-0.068l0-0c0.012-0.009 0.027-0.014 0.043-0.014 0.027 0 0.050 0.014 0.063 0.036l0 0c0.027 0.043 0.056 0.085 0.086 0.124 0.011 0.014 0.018 0.033 0.018 0.052 0 0.025-0.011 0.048-0.028 0.064l-0 0c-0.013 0.011-0.030 0.019-0.048 0.019v0zM7.91 9.931c-0.011-0-0.022-0.003-0.031-0.007l0 0c-0.028-0.014-0.046-0.043-0.046-0.075 0-0.012 0.002-0.023 0.007-0.033l-0 0.001c0.019-0.047 0.037-0.096 0.052-0.145 0.009-0.032 0.038-0.056 0.073-0.056 0.009 0 0.017 0.001 0.025 0.004l-0.001-0c0.031 0.013 0.052 0.043 0.052 0.078 0 0.010-0.002 0.019-0.005 0.027l0-0.001c-0.017 0.054-0.036 0.107-0.057 0.159-0.011 0.029-0.038 0.049-0.070 0.049h-0zM5.281 9.786c-0.034-0.001-0.063-0.024-0.072-0.055l-0-0.001c-0.017-0.053-0.032-0.108-0.045-0.163-0.002-0.006-0.003-0.013-0.003-0.021 0-0.037 0.024-0.068 0.058-0.079l0.001-0c0.005-0.001 0.012-0.002 0.018-0.002 0.037 0 0.068 0.027 0.075 0.062l0 0c0.012 0.050 0.025 0.101 0.041 0.15 0.003 0.008 0.004 0.017 0.004 0.027 0 0.035-0.021 0.065-0.052 0.077l-0.001 0c-0.007 0.003-0.016 0.005-0.025 0.005v0zM8.055 9.302h-0.006c-0.040-0.005-0.070-0.039-0.070-0.080 0-0.003 0-0.006 0-0.009l-0 0c0.004-0.050 0.005-0.101 0.005-0.151-0-0.001-0-0.002-0-0.004 0-0.043 0.034-0.079 0.076-0.081h0c0.042 0 0.076 0.035 0.076 0.077 0 0.001 0 0.002-0 0.003v-0 0.004c0 0.055-0.002 0.11-0.006 0.164-0.002 0.041-0.035 0.074-0.076 0.076h-0zM5.182 9.145c-0.042-0.001-0.076-0.036-0.076-0.079 0-0.001 0-0.002 0-0.003v0-0.002c0-0.056 0.002-0.112 0.006-0.167 0.002-0.042 0.036-0.075 0.078-0.075 0.001 0 0.003 0 0.004 0h-0c0.040 0.005 0.070 0.039 0.070 0.080 0 0.003-0 0.006-0 0.009l0-0c-0.004 0.051-0.006 0.103-0.006 0.154 0 0.001 0 0.002 0 0.003 0 0.043-0.034 0.078-0.076 0.080h-0zM8.004 8.655c-0.037-0.001-0.067-0.027-0.074-0.062l-0-0.001c-0.012-0.051-0.026-0.101-0.041-0.15-0.003-0.008-0.005-0.017-0.005-0.027 0-0.035 0.021-0.065 0.051-0.077l0.001-0c0.007-0.003 0.016-0.004 0.025-0.004 0.034 0 0.063 0.023 0.072 0.055l0 0.001c0.017 0.053 0.032 0.108 0.045 0.163 0.002 0.006 0.003 0.013 0.003 0.021 0 0.037-0.024 0.068-0.057 0.079l-0.001 0c-0.005 0.002-0.012 0.003-0.018 0.003-0 0-0 0-0.001 0h0zM5.279 8.506c-0.009-0-0.017-0.002-0.025-0.005l0 0c-0.031-0.013-0.052-0.043-0.052-0.078 0-0.010 0.002-0.019 0.005-0.028l-0 0.001c0.017-0.053 0.036-0.107 0.057-0.158 0.011-0.029 0.038-0.049 0.070-0.049 0.011 0 0.022 0.002 0.031 0.007l-0-0c0.028 0.014 0.046 0.043 0.046 0.075 0 0.012-0.002 0.023-0.007 0.033l0-0.001c-0.019 0.047-0.037 0.096-0.052 0.145-0.009 0.032-0.038 0.055-0.072 0.056h-0zM7.76 8.062c-0.027-0-0.050-0.015-0.063-0.036l-0-0c-0.027-0.043-0.056-0.085-0.086-0.124-0.011-0.014-0.018-0.033-0.018-0.052 0-0.025 0.011-0.048 0.028-0.064l0-0c0.013-0.011 0.030-0.019 0.049-0.019 0.024 0 0.046 0.012 0.059 0.030l0 0c0.033 0.043 0.065 0.089 0.095 0.137 0.008 0.013 0.013 0.029 0.013 0.046 0 0.028-0.013 0.052-0.033 0.068l-0 0c-0.012 0.009-0.027 0.014-0.043 0.014h-0zM5.569 7.938c-0.019-0-0.035-0.007-0.048-0.019l0 0c-0.017-0.016-0.028-0.039-0.028-0.064 0-0.020 0.006-0.038 0.017-0.052l-0 0c0.034-0.044 0.070-0.087 0.106-0.127 0.013-0.015 0.033-0.024 0.054-0.024s0.041 0.009 0.054 0.024l0 0c0.014 0.015 0.022 0.036 0.022 0.058s-0.008 0.043-0.022 0.058l0-0c-0.033 0.036-0.066 0.075-0.096 0.115-0.014 0.018-0.035 0.030-0.059 0.030h-0zM7.332 7.606c-0.016-0-0.030-0.005-0.042-0.013l0 0c-0.035-0.025-0.075-0.050-0.117-0.074l-0.007-0.003c-0.025-0.015-0.042-0.042-0.042-0.073 0-0.013 0.003-0.026 0.009-0.037l-0 0c0.012-0.027 0.038-0.045 0.068-0.045 0.013 0 0.025 0.003 0.035 0.009l-0-0c0.054 0.029 0.099 0.058 0.143 0.089l-0.004-0.003c0.021 0.016 0.035 0.041 0.035 0.069 0 0.016-0.005 0.032-0.013 0.045l0-0c-0.013 0.022-0.037 0.037-0.064 0.037h-0zM6.035 7.528c-0.030-0-0.056-0.019-0.068-0.044l-0-0c-0.005-0.011-0.009-0.024-0.009-0.037 0-0.031 0.017-0.058 0.042-0.073l0-0c0.040-0.022 0.088-0.046 0.137-0.066l0.009-0.003c0.008-0.003 0.017-0.005 0.027-0.005 0.034 0 0.062 0.022 0.072 0.052l0 0.001c0.003 0.009 0.005 0.019 0.005 0.029 0 0.034-0.020 0.063-0.049 0.077l-0.001 0c-0.052 0.021-0.095 0.042-0.137 0.065l0.006-0.003c-0.010 0.006-0.022 0.009-0.035 0.009-0 0-0 0-0 0v0zM6.769 7.384c-0.001 0-0.003 0-0.004 0s-0.003-0-0.005-0h0c-0.042-0.005-0.090-0.009-0.139-0.009-0 0-0 0-0.001 0h0c-0.043-0.002-0.078-0.038-0.078-0.081 0-0 0-0.001 0-0.001v0c-0-0.001-0-0.003-0-0.004 0-0.042 0.033-0.076 0.075-0.078h0.004c0.055 0 0.11 0.004 0.163 0.010l-0.006-0.001c0.039 0.007 0.068 0.040 0.068 0.080 0 0.004-0 0.008-0.001 0.011l0-0c-0.003 0.040-0.036 0.071-0.076 0.073h-0z"></path>
<path fill="#dca815" d="M4.75 9.144h-0.458c0.002 0.055 0.004 0.11 0.009 0.164h0.459q-0.007-0.081-0.010-0.164z"></path>
<path fill="#dca815" d="M4.767 8.733h-0.458c-0.006 0.054-0.011 0.109-0.014 0.164h0.458c0.003-0.055 0.007-0.11 0.014-0.164z"></path>
<path fill="#dca815" d="M4.792 9.555h-0.458q0.015 0.083 0.035 0.164h0.458q-0.020-0.081-0.035-0.164z"></path>
<path fill="#dca815" d="M4.898 9.966h-0.459c0.020 0.056 0.041 0.111 0.064 0.164h0.458q-0.035-0.080-0.064-0.164z"></path>
<path fill="#dca815" d="M4.847 8.322h-0.458c-0.015 0.054-0.029 0.109-0.040 0.164h0.459c0.012-0.056 0.025-0.111 0.039-0.164z"></path>
<path fill="#dca815" d="M4.999 7.912h-0.458c-0.025 0.053-0.049 0.108-0.071 0.164h0.459q0.033-0.084 0.070-0.164z"></path>
<path fill="#dca815" d="M5.311 7.419h-0.459q-0.065 0.078-0.124 0.164h0.459q0.059-0.086 0.124-0.164z"></path>
<path fill="#dca815" d="M5.778 7.008h-0.459c-0.085 0.053-0.158 0.107-0.227 0.166l0.002-0.002h0.459c0.066-0.057 0.14-0.111 0.217-0.16l0.008-0.004z"></path>
<path fill="#dca815" d="M5.133 10.459h-0.459q0.053 0.085 0.112 0.164h0.459q-0.059-0.079-0.113-0.164z"></path>
<path fill="#dca815" d="M5.004 10.869c0.059 0.057 0.122 0.111 0.188 0.161l0.005 0.004h0.459c-0.072-0.053-0.135-0.107-0.194-0.165l0 0z"></path>
<path fill="#ffd949" d="M8.073 7.932c-1.034 0-1.872-1.030-1.872-2.3s0.838-2.301 1.872-2.301 1.872 1.030 1.872 2.301-0.838 2.301-1.872 2.301z"></path>
<path fill="#f4bf1a" d="M6.201 5.632c0-1.176 0.717-2.144 1.642-2.283-0.069-0.011-0.148-0.018-0.229-0.018h-0c-1.034 0-1.872 1.030-1.872 2.301s0.838 2.301 1.872 2.301c0.081-0 0.16-0.007 0.238-0.019l-0.009 0.001c-0.925-0.14-1.642-1.109-1.642-2.283z"></path>
<path fill="#f4bf1a" d="M8.079 7.482h-0.007c-0.056-0-0.112-0.004-0.166-0.011l0.006 0.001c-0.039-0.007-0.068-0.040-0.068-0.080 0-0.004 0-0.008 0.001-0.012l-0 0c0.003-0.040 0.037-0.072 0.078-0.072 0.002 0 0.005 0 0.007 0l-0-0c0.043 0.006 0.092 0.009 0.142 0.009v0c0.044 0.001 0.080 0.038 0.080 0.082 0 0 0 0 0 0v0c0 0.002 0 0.004 0 0.005 0 0.041-0.032 0.075-0.073 0.077h-0zM8.523 7.393c-0.033-0.001-0.061-0.023-0.071-0.053l-0-0.001c-0.003-0.009-0.005-0.019-0.005-0.029 0-0.034 0.020-0.063 0.049-0.077l0.001-0c0.052-0.021 0.095-0.042 0.136-0.065l-0.006 0.003c0.010-0.006 0.022-0.009 0.035-0.009 0.030 0 0.056 0.018 0.068 0.044l0 0c0.005 0.011 0.009 0.024 0.009 0.037 0 0.031-0.017 0.058-0.041 0.073l-0 0c-0.040 0.022-0.088 0.046-0.137 0.066l-0.009 0.003c-0.008 0.003-0.017 0.005-0.027 0.005v0zM7.489 7.33c-0 0-0 0-0 0-0.013 0-0.025-0.003-0.035-0.009l0 0c-0.054-0.030-0.099-0.058-0.143-0.089l0.004 0.003c-0.021-0.016-0.035-0.041-0.035-0.069 0-0.017 0.005-0.032 0.013-0.045l-0 0c0.013-0.022 0.037-0.037 0.064-0.037 0.016 0 0.030 0.005 0.043 0.014l-0-0c0.035 0.025 0.075 0.051 0.117 0.074l0.007 0.003c0.025 0.015 0.042 0.042 0.042 0.073 0 0.013-0.003 0.026-0.009 0.037l0-0c-0.012 0.026-0.038 0.044-0.068 0.045h-0zM9.025 7.038c-0.021-0-0.040-0.009-0.054-0.024l-0-0c-0.014-0.015-0.022-0.036-0.022-0.058s0.008-0.043 0.022-0.058l-0 0c0.033-0.036 0.066-0.075 0.096-0.115 0.013-0.018 0.035-0.030 0.059-0.030 0.019 0 0.036 0.007 0.049 0.019l-0-0c0.018 0.016 0.029 0.039 0.029 0.064 0 0.019-0.006 0.037-0.017 0.052l0-0c-0.034 0.045-0.070 0.087-0.106 0.127-0.013 0.015-0.033 0.024-0.054 0.024h-0zM7.023 6.922c-0.024-0-0.046-0.012-0.059-0.030l-0-0c-0.033-0.044-0.065-0.090-0.095-0.137-0.008-0.013-0.013-0.029-0.013-0.046 0-0.028 0.013-0.052 0.034-0.068l0-0c0.012-0.009 0.027-0.014 0.043-0.014 0.027 0 0.050 0.014 0.063 0.036l0 0c0.027 0.043 0.056 0.085 0.086 0.124 0.011 0.014 0.018 0.033 0.018 0.052 0 0.025-0.011 0.048-0.028 0.064l-0 0c-0.013 0.011-0.030 0.019-0.048 0.019v0zM9.362 6.5c-0.011-0-0.022-0.003-0.031-0.007l0 0c-0.028-0.014-0.046-0.043-0.046-0.075 0-0.012 0.002-0.023 0.007-0.033l-0 0.001c0.019-0.047 0.037-0.096 0.052-0.145 0.009-0.032 0.038-0.056 0.073-0.056 0.009 0 0.017 0.001 0.025 0.004l-0.001-0c0.031 0.013 0.052 0.043 0.052 0.078 0 0.010-0.002 0.019-0.005 0.027l0-0.001c-0.017 0.054-0.036 0.107-0.057 0.159-0.011 0.029-0.038 0.049-0.070 0.049h-0zM6.732 6.356c-0.034-0.001-0.063-0.024-0.072-0.055l-0-0.001c-0.017-0.053-0.032-0.108-0.045-0.163-0.002-0.006-0.003-0.013-0.003-0.021 0-0.037 0.024-0.068 0.058-0.079l0.001-0c0.005-0.001 0.012-0.002 0.018-0.002 0.037 0 0.068 0.027 0.075 0.062l0 0c0.012 0.050 0.025 0.101 0.041 0.15 0.003 0.008 0.004 0.017 0.004 0.027 0 0.035-0.021 0.065-0.052 0.077l-0.001 0c-0.007 0.003-0.016 0.005-0.025 0.005v0zM9.507 5.872h-0.006c-0.040-0.005-0.070-0.039-0.070-0.080 0-0.003 0-0.006 0-0.009l-0 0c0.004-0.050 0.005-0.101 0.005-0.151-0-0.001-0-0.002-0-0.004 0-0.043 0.034-0.079 0.076-0.081h0c0.042 0 0.076 0.035 0.076 0.077 0 0.001 0 0.002-0 0.003v-0 0.004c0 0.055-0.002 0.11-0.006 0.164-0.002 0.041-0.035 0.074-0.076 0.076h-0zM6.634 5.714c-0.042-0.001-0.076-0.036-0.076-0.079 0-0.001 0-0.002 0-0.003v0-0.002c0-0.056 0.002-0.112 0.006-0.167 0.002-0.042 0.036-0.075 0.078-0.075 0.001 0 0.003 0 0.004 0h-0c0.040 0.005 0.070 0.039 0.070 0.080 0 0.003-0 0.006-0 0.009l0-0c-0.004 0.051-0.006 0.103-0.006 0.154 0 0.001 0 0.002 0 0.003 0 0.043-0.034 0.078-0.076 0.080h-0zM9.455 5.224c-0.037-0.001-0.067-0.027-0.074-0.062l-0-0c-0.012-0.051-0.026-0.101-0.041-0.15-0.003-0.008-0.005-0.017-0.005-0.027 0-0.035 0.021-0.065 0.051-0.077l0.001-0c0.007-0.003 0.016-0.004 0.025-0.004 0.034 0 0.063 0.023 0.072 0.055l0 0.001c0.017 0.053 0.032 0.108 0.045 0.163 0.002 0.006 0.003 0.013 0.003 0.021 0 0.037-0.024 0.068-0.057 0.079l-0.001 0c-0.005 0.002-0.012 0.003-0.018 0.003-0 0-0 0-0.001 0h0zM6.731 5.075c-0.009-0-0.017-0.002-0.025-0.005l0 0c-0.031-0.013-0.052-0.043-0.052-0.078 0-0.010 0.002-0.019 0.005-0.028l-0 0.001c0.017-0.053 0.036-0.107 0.057-0.158 0.011-0.029 0.038-0.049 0.070-0.049 0.011 0 0.022 0.002 0.031 0.007l-0-0c0.028 0.014 0.046 0.043 0.046 0.075 0 0.012-0.002 0.023-0.007 0.033l0-0.001c-0.019 0.047-0.037 0.096-0.052 0.145-0.009 0.032-0.038 0.055-0.072 0.056h-0zM9.211 4.632c-0.027-0-0.050-0.015-0.063-0.036l-0-0c-0.027-0.043-0.056-0.085-0.086-0.124-0.011-0.014-0.018-0.033-0.018-0.052 0-0.025 0.011-0.048 0.028-0.064l0-0c0.013-0.011 0.030-0.019 0.049-0.019 0.024 0 0.046 0.012 0.059 0.030l0 0c0.033 0.043 0.065 0.089 0.095 0.137 0.008 0.013 0.013 0.029 0.013 0.046 0 0.028-0.013 0.052-0.033 0.068l-0 0c-0.012 0.009-0.027 0.014-0.043 0.014h-0zM7.021 4.507c-0.019-0-0.035-0.007-0.048-0.019l0 0c-0.017-0.016-0.028-0.039-0.028-0.064 0-0.020 0.006-0.038 0.017-0.052l-0 0c0.034-0.044 0.070-0.087 0.106-0.127 0.013-0.015 0.033-0.024 0.054-0.024s0.041 0.009 0.054 0.024l0 0c0.014 0.015 0.022 0.036 0.022 0.058s-0.008 0.043-0.022 0.058l0-0c-0.033 0.036-0.066 0.075-0.096 0.115-0.014 0.018-0.035 0.030-0.059 0.030h-0zM8.784 4.176c-0.016-0-0.030-0.005-0.042-0.013l0 0c-0.035-0.025-0.075-0.050-0.117-0.074l-0.007-0.003c-0.025-0.015-0.042-0.042-0.042-0.073 0-0.013 0.003-0.026 0.009-0.037l-0 0.001c0.012-0.027 0.038-0.045 0.068-0.045 0.013 0 0.025 0.003 0.035 0.009l-0-0c0.054 0.029 0.099 0.058 0.143 0.089l-0.004-0.003c0.021 0.016 0.035 0.041 0.035 0.069 0 0.016-0.005 0.032-0.013 0.045l0-0c-0.013 0.022-0.037 0.037-0.064 0.037h-0zM7.487 4.098c-0.030-0-0.056-0.019-0.068-0.044l-0-0c-0.005-0.011-0.009-0.024-0.009-0.037 0-0.031 0.017-0.058 0.042-0.073l0-0c0.040-0.022 0.088-0.046 0.137-0.066l0.009-0.003c0.008-0.003 0.017-0.005 0.027-0.005 0.034 0 0.062 0.022 0.072 0.052l0 0.001c0.003 0.009 0.005 0.018 0.005 0.029 0 0.034-0.020 0.063-0.049 0.077l-0.001 0c-0.052 0.021-0.095 0.042-0.137 0.065l0.006-0.003c-0.010 0.006-0.022 0.009-0.035 0.009-0 0-0 0-0 0v0zM8.22 3.954c-0.001 0-0.003 0-0.004 0s-0.003-0-0.005-0h0c-0.042-0.005-0.090-0.009-0.139-0.009-0 0-0 0-0.001 0h0c-0.043-0.002-0.078-0.038-0.078-0.081 0-0 0-0.001 0-0.001v0c-0-0.001-0-0.003-0-0.004 0-0.042 0.033-0.076 0.075-0.078h0.004c0.055 0 0.11 0.004 0.163 0.010l-0.006-0.001c0.039 0.007 0.068 0.040 0.068 0.080 0 0.004-0 0.008-0.001 0.011l0-0c-0.003 0.040-0.036 0.071-0.076 0.073h-0z"></path>
<path fill="#dca815" d="M6.201 5.713h-0.458c0.002 0.055 0.004 0.11 0.009 0.164h0.459q-0.007-0.081-0.010-0.164z"></path>
<path fill="#dca815" d="M6.218 5.303h-0.458c-0.006 0.054-0.011 0.109-0.014 0.164h0.458c0.003-0.055 0.007-0.11 0.014-0.164z"></path>
<path fill="#dca815" d="M6.243 6.124h-0.458q0.015 0.083 0.035 0.164h0.458q-0.020-0.081-0.035-0.164z"></path>
<path fill="#dca815" d="M6.35 6.535h-0.459c0.020 0.056 0.041 0.111 0.064 0.164h0.458q-0.035-0.080-0.064-0.164z"></path>
<path fill="#dca815" d="M6.298 4.892h-0.458c-0.015 0.054-0.029 0.109-0.040 0.164h0.459c0.012-0.056 0.025-0.111 0.039-0.164z"></path>
<path fill="#dca815" d="M6.451 4.481h-0.458c-0.025 0.053-0.049 0.108-0.071 0.164h0.459q0.033-0.084 0.070-0.164z"></path>
<path fill="#dca815" d="M6.762 3.988h-0.459q-0.065 0.078-0.124 0.164h0.459q0.059-0.086 0.124-0.164z"></path>
<path fill="#dca815" d="M7.229 3.577h-0.459c-0.085 0.053-0.158 0.107-0.227 0.166l0.002-0.002h0.459c0.066-0.057 0.14-0.111 0.217-0.16l0.008-0.004z"></path>
<path fill="#dca815" d="M6.585 7.028h-0.459q0.053 0.085 0.112 0.164h0.459q-0.059-0.079-0.113-0.164z"></path>
<path fill="#dca815" d="M6.456 7.439c0.059 0.057 0.122 0.111 0.188 0.161l0.005 0.004h0.459c-0.072-0.053-0.135-0.107-0.194-0.165l0 0z"></path>
<path fill="#ffd949" d="M5.959 19.837c-0.768 0-1.39-0.765-1.39-1.709s0.622-1.708 1.39-1.708 1.39 0.765 1.39 1.708-0.622 1.708-1.39 1.708z"></path>
<path fill="#f4bf1a" d="M4.569 18.128c0-0.872 0.532-1.592 1.22-1.695-0.051-0.008-0.11-0.013-0.17-0.013h-0c-0.768 0-1.39 0.765-1.39 1.708s0.622 1.708 1.39 1.708c0.060-0 0.119-0.005 0.177-0.014l-0.006 0.001c-0.687-0.103-1.22-0.823-1.22-1.696z"></path>
<path fill="#f4bf1a" d="M5.964 19.503h-0.005c-0.042 0-0.083-0.003-0.124-0.008l0.005 0c-0.029-0.005-0.050-0.030-0.050-0.059 0-0.003 0-0.006 0.001-0.009l-0 0c0.002-0.030 0.027-0.054 0.058-0.054 0.002 0 0.004 0 0.005 0l-0-0c0.032 0.004 0.068 0.007 0.105 0.007v0c0.033 0.001 0.059 0.028 0.059 0.061 0 0 0 0 0 0v0c0 0.001 0 0.003 0 0.004 0 0.031-0.024 0.056-0.054 0.057h-0zM6.294 19.437c-0.025-0.001-0.046-0.017-0.053-0.039l-0-0c-0.002-0.006-0.004-0.014-0.004-0.022 0-0.025 0.015-0.047 0.037-0.057l0-0c0.039-0.016 0.071-0.032 0.101-0.049l-0.005 0.002c0.008-0.004 0.017-0.007 0.026-0.007 0.022 0 0.042 0.013 0.050 0.033l0 0c0.004 0.008 0.006 0.018 0.006 0.028 0 0.023-0.012 0.043-0.031 0.054l-0 0c-0.029 0.017-0.065 0.034-0.102 0.049l-0.007 0.002c-0.006 0.003-0.013 0.004-0.020 0.004-0 0-0 0-0 0v0zM5.526 19.39c-0.009 0-0.018-0.002-0.026-0.007l0 0c-0.040-0.022-0.074-0.043-0.106-0.066l0.003 0.002c-0.016-0.012-0.026-0.030-0.026-0.051 0-0.012 0.003-0.024 0.009-0.034l-0 0c0.010-0.017 0.027-0.027 0.047-0.027 0.012 0 0.023 0.004 0.031 0.010l-0-0c0.026 0.019 0.056 0.038 0.087 0.055l0.005 0.002c0.019 0.011 0.031 0.031 0.031 0.055 0 0.010-0.002 0.019-0.006 0.028l0-0c-0.009 0.020-0.028 0.033-0.051 0.033h-0zM6.667 19.174c-0.016-0-0.030-0.007-0.040-0.018l-0-0c-0.010-0.011-0.017-0.027-0.017-0.043s0.006-0.032 0.017-0.043l-0 0c0.025-0.027 0.049-0.056 0.071-0.086 0.010-0.014 0.026-0.022 0.044-0.022 0.014 0 0.026 0.005 0.036 0.014l-0-0c0.013 0.012 0.021 0.029 0.021 0.047 0 0.014-0.005 0.028-0.013 0.039l0-0c-0.025 0.033-0.051 0.065-0.079 0.094-0.010 0.011-0.024 0.018-0.040 0.018h-0zM5.18 19.088c-0.018-0-0.034-0.009-0.044-0.022l-0-0c-0.025-0.032-0.048-0.066-0.070-0.102-0.006-0.010-0.010-0.021-0.010-0.034 0-0.021 0.010-0.039 0.025-0.051l0-0c0.009-0.006 0.020-0.010 0.032-0.010 0.020 0 0.037 0.011 0.047 0.027l0 0c0.020 0.032 0.042 0.063 0.064 0.093 0.008 0.011 0.013 0.024 0.013 0.039 0 0.019-0.008 0.036-0.021 0.047l-0 0c-0.010 0.009-0.022 0.014-0.036 0.014v0zM6.917 18.775c-0.008-0-0.016-0.002-0.023-0.005l0 0c-0.021-0.011-0.034-0.032-0.034-0.056 0-0.009 0.002-0.017 0.005-0.025l-0 0c0.014-0.035 0.027-0.071 0.039-0.108 0.007-0.024 0.028-0.041 0.054-0.041 0.006 0 0.013 0.001 0.018 0.003l-0-0c0.023 0.010 0.039 0.032 0.039 0.058 0 0.007-0.001 0.014-0.003 0.020l0-0c-0.012 0.040-0.027 0.079-0.042 0.118-0.008 0.021-0.028 0.036-0.052 0.037h-0zM4.964 18.667c-0.025-0.001-0.047-0.018-0.054-0.041l-0-0c-0.013-0.040-0.023-0.080-0.033-0.121-0.001-0.005-0.002-0.010-0.002-0.015 0-0.027 0.018-0.051 0.043-0.058l0-0c0.004-0.001 0.009-0.002 0.013-0.002 0.027 0 0.050 0.020 0.055 0.046l0 0c0.009 0.037 0.019 0.075 0.030 0.111 0.002 0.006 0.003 0.013 0.003 0.020 0 0.026-0.016 0.048-0.038 0.057l-0 0c-0.005 0.002-0.012 0.003-0.018 0.003v0zM7.025 18.306h-0.004c-0.030-0.004-0.053-0.029-0.053-0.059 0-0.002 0-0.004 0-0.007l-0 0c0.003-0.037 0.004-0.075 0.004-0.112-0-0.001-0-0.002-0-0.002 0-0.032 0.025-0.058 0.057-0.061h0c0.031 0 0.057 0.026 0.057 0.057 0 0.001 0 0.001-0 0.002v-0 0.003c0 0.041-0.002 0.081-0.004 0.122-0.001 0.031-0.026 0.055-0.056 0.056h-0zM4.892 18.19c-0.032-0.001-0.057-0.026-0.057-0.058 0-0.001 0-0.002 0-0.002v0-0.002c0-0.042 0.002-0.083 0.005-0.124 0.001-0.031 0.027-0.056 0.058-0.056 0.001 0 0.002 0 0.003 0h-0c0.030 0.004 0.052 0.029 0.052 0.059 0 0.002-0 0.004-0 0.007l0-0c-0.003 0.038-0.004 0.076-0.004 0.115 0 0.001 0 0.001 0 0.002 0 0.032-0.025 0.058-0.057 0.060h-0zM6.986 17.826c-0.027-0.001-0.050-0.020-0.055-0.046l-0-0c-0.009-0.038-0.019-0.075-0.031-0.111-0.002-0.006-0.003-0.013-0.003-0.020 0-0.026 0.016-0.048 0.038-0.057l0-0c0.005-0.002 0.012-0.003 0.018-0.003 0.026 0 0.047 0.017 0.054 0.041l0 0c0.013 0.039 0.023 0.080 0.033 0.121 0.001 0.005 0.002 0.010 0.002 0.015 0 0.027-0.018 0.051-0.043 0.059l-0 0c-0.004 0.001-0.009 0.002-0.013 0.002-0 0-0 0-0.001 0h0zM4.962 17.715c-0.007-0-0.013-0.001-0.019-0.003l0 0c-0.023-0.009-0.039-0.032-0.039-0.058 0-0.007 0.001-0.014 0.003-0.020l-0 0c0.013-0.040 0.027-0.079 0.042-0.118 0.008-0.021 0.028-0.036 0.052-0.036 0.008 0 0.016 0.002 0.023 0.005l-0-0c0.020 0.011 0.034 0.032 0.034 0.056 0 0.009-0.002 0.017-0.005 0.025l0-0c-0.014 0.035-0.027 0.072-0.039 0.108-0.007 0.024-0.028 0.041-0.054 0.041h-0zM6.805 17.386c-0.020-0-0.037-0.011-0.046-0.027l-0-0c-0.020-0.032-0.042-0.063-0.064-0.092-0.008-0.011-0.013-0.024-0.013-0.039 0-0.019 0.008-0.035 0.021-0.047l0-0c0.010-0.009 0.022-0.014 0.036-0.014 0.018 0 0.034 0.009 0.044 0.022l0 0c0.025 0.032 0.048 0.066 0.070 0.101 0.006 0.010 0.010 0.021 0.010 0.034 0 0.021-0.010 0.039-0.025 0.051l-0 0c-0.009 0.006-0.020 0.010-0.032 0.010v0zM5.178 17.293c-0 0-0 0-0 0-0.014 0-0.027-0.005-0.036-0.014l0 0c-0.013-0.012-0.021-0.029-0.021-0.047 0-0.015 0.005-0.028 0.013-0.039l-0 0c0.025-0.033 0.052-0.065 0.079-0.094 0.010-0.011 0.024-0.018 0.040-0.018s0.030 0.007 0.040 0.018l0 0c0.010 0.011 0.017 0.027 0.017 0.043s-0.006 0.032-0.017 0.043l0-0c-0.025 0.027-0.049 0.056-0.072 0.086-0.010 0.014-0.026 0.022-0.044 0.022h-0zM6.488 17.047c-0.012 0-0.022-0.004-0.031-0.010l0 0c-0.026-0.018-0.056-0.037-0.087-0.054l-0.005-0.002c-0.019-0.011-0.031-0.031-0.031-0.055 0-0.010 0.002-0.019 0.006-0.028l-0 0c0.009-0.020 0.028-0.033 0.051-0.033 0.009 0 0.018 0.002 0.026 0.007l-0-0c0.040 0.022 0.074 0.043 0.106 0.066l-0.003-0.002c0.016 0.012 0.026 0.030 0.026 0.051 0 0.012-0.003 0.024-0.009 0.033l0-0c-0.010 0.016-0.027 0.027-0.048 0.028h-0zM5.523 16.989c-0.022-0-0.042-0.014-0.051-0.033l-0-0c-0.004-0.008-0.006-0.018-0.006-0.028 0-0.023 0.012-0.043 0.031-0.054l0-0c0.029-0.017 0.065-0.034 0.102-0.049l0.007-0.002c0.006-0.002 0.013-0.004 0.020-0.004 0.025 0 0.046 0.016 0.053 0.039l0 0c0.002 0.006 0.004 0.014 0.004 0.021 0 0.025-0.015 0.047-0.037 0.057l-0 0c-0.039 0.016-0.071 0.031-0.101 0.049l0.004-0.002c-0.007 0.004-0.016 0.006-0.025 0.006-0 0-0.001 0-0.001 0h0zM6.068 16.882c-0.001 0-0.002 0-0.003 0s-0.002-0-0.003-0h0c-0.031-0.004-0.067-0.006-0.103-0.006-0 0-0 0-0 0v0c-0.032-0.001-0.058-0.027-0.058-0.060 0-0 0-0.001 0-0.001v0c-0-0.001-0-0.002-0-0.003 0-0.031 0.025-0.057 0.056-0.058h0.003c0 0 0 0 0 0 0.041 0 0.081 0.003 0.121 0.008l-0.005-0c0.029 0.005 0.050 0.030 0.050 0.059 0 0.003-0 0.006-0.001 0.009l0-0c-0.002 0.030-0.026 0.053-0.056 0.054h-0z"></path>
<path fill="#dca815" d="M4.569 18.189h-0.34c0.001 0.041 0.003 0.081 0.007 0.122h0.341q-0.005-0.060-0.007-0.122z"></path>
<path fill="#dca815" d="M4.582 17.884h-0.34c-0.005 0.040-0.008 0.081-0.010 0.122h0.34c0.002-0.041 0.006-0.081 0.010-0.122z"></path>
<path fill="#dca815" d="M4.6 18.494h-0.34q0.012 0.062 0.026 0.122h0.341q-0.015-0.060-0.025-0.122z"></path>
<path fill="#dca815" d="M4.679 18.799h-0.341c0.015 0.042 0.030 0.082 0.048 0.122h0.341q-0.026-0.060-0.047-0.122z"></path>
<path fill="#dca815" d="M4.641 17.579h-0.34c-0.012 0.040-0.021 0.081-0.030 0.122h0.341c0.009-0.041 0.018-0.082 0.029-0.122z"></path>
<path fill="#dca815" d="M4.754 17.274h-0.34c-0.019 0.040-0.036 0.080-0.053 0.122h0.341q0.024-0.062 0.052-0.122z"></path>
<path fill="#dca815" d="M4.985 16.908h-0.341q-0.048 0.058-0.092 0.122h0.341q0.044-0.064 0.092-0.122z"></path>
<path fill="#dca815" d="M5.332 16.602h-0.341c-0.063 0.039-0.117 0.080-0.168 0.124l0.002-0.002h0.341c0.049-0.042 0.104-0.083 0.161-0.119l0.006-0.003z"></path>
<path fill="#dca815" d="M4.853 19.166h-0.341q0.040 0.063 0.084 0.122h0.341q-0.044-0.058-0.084-0.122z"></path>
<path fill="#dca815" d="M4.758 19.471c0.044 0.043 0.090 0.082 0.139 0.119l0.004 0.003h0.341c-0.053-0.040-0.1-0.080-0.144-0.122l0 0z"></path>
<path fill="#ffd949" d="M6.92 22.256c-0.768 0-1.39-0.765-1.39-1.709s0.622-1.708 1.39-1.708 1.39 0.765 1.39 1.708-0.622 1.708-1.39 1.708z"></path>
<path fill="#f4bf1a" d="M5.53 20.547c0-0.872 0.532-1.592 1.22-1.695-0.051-0.008-0.11-0.013-0.17-0.013h-0c-0.768 0-1.39 0.765-1.39 1.708s0.622 1.708 1.39 1.708c0.060-0 0.119-0.005 0.177-0.014l-0.006 0.001c-0.687-0.103-1.22-0.823-1.22-1.696z"></path>
<path fill="#f4bf1a" d="M6.925 21.922h-0.005c-0.042 0-0.083-0.003-0.124-0.008l0.005 0c-0.029-0.005-0.050-0.030-0.050-0.059 0-0.003 0-0.006 0.001-0.009l-0 0c0.002-0.030 0.027-0.054 0.058-0.054 0.002 0 0.004 0 0.005 0l-0-0c0.032 0.004 0.068 0.007 0.105 0.007v0c0.033 0.001 0.059 0.028 0.059 0.061 0 0 0 0 0 0v0c0 0.001 0 0.003 0 0.004 0 0.031-0.024 0.056-0.054 0.057h-0zM7.255 21.856c-0.025-0.001-0.046-0.017-0.053-0.039l-0-0c-0.002-0.006-0.004-0.014-0.004-0.022 0-0.025 0.015-0.047 0.037-0.057l0-0c0.039-0.016 0.071-0.032 0.101-0.049l-0.005 0.002c0.008-0.004 0.017-0.007 0.026-0.007 0.022 0 0.042 0.013 0.050 0.033l0 0c0.004 0.008 0.006 0.018 0.006 0.028 0 0.023-0.012 0.043-0.031 0.054l-0 0c-0.029 0.017-0.065 0.034-0.102 0.049l-0.007 0.002c-0.006 0.003-0.013 0.004-0.020 0.004-0 0-0 0-0 0v0zM6.487 21.81c-0.009 0-0.018-0.002-0.026-0.007l0 0c-0.040-0.022-0.074-0.043-0.106-0.066l0.003 0.002c-0.016-0.012-0.026-0.030-0.026-0.051 0-0.012 0.003-0.024 0.009-0.034l-0 0c0.010-0.017 0.027-0.027 0.047-0.027 0.012 0 0.023 0.004 0.031 0.010l-0-0c0.026 0.019 0.056 0.038 0.087 0.055l0.005 0.002c0.019 0.011 0.031 0.031 0.031 0.055 0 0.010-0.002 0.019-0.006 0.028l0-0c-0.009 0.020-0.028 0.033-0.051 0.033h-0zM7.628 21.593c-0.016-0-0.030-0.007-0.040-0.018l-0-0c-0.010-0.011-0.017-0.027-0.017-0.043s0.006-0.032 0.017-0.043l-0 0c0.025-0.027 0.049-0.056 0.071-0.086 0.010-0.014 0.026-0.022 0.044-0.022 0.014 0 0.026 0.005 0.036 0.014l-0-0c0.013 0.012 0.021 0.029 0.021 0.047 0 0.014-0.005 0.028-0.013 0.039l0-0c-0.025 0.033-0.051 0.065-0.079 0.094-0.010 0.011-0.024 0.018-0.040 0.018h-0zM6.141 21.507c-0.018-0-0.034-0.009-0.044-0.022l-0-0c-0.025-0.032-0.048-0.066-0.070-0.102-0.006-0.010-0.010-0.021-0.010-0.034 0-0.021 0.010-0.039 0.025-0.051l0-0c0.009-0.006 0.020-0.010 0.032-0.010 0.020 0 0.037 0.011 0.047 0.027l0 0c0.020 0.032 0.042 0.063 0.064 0.093 0.008 0.011 0.013 0.024 0.013 0.039 0 0.019-0.008 0.036-0.021 0.047l-0 0c-0.010 0.009-0.022 0.014-0.036 0.014v0zM7.878 21.194c-0.008-0-0.016-0.002-0.023-0.005l0 0c-0.021-0.011-0.034-0.032-0.034-0.056 0-0.009 0.002-0.017 0.005-0.025l-0 0c0.014-0.035 0.027-0.071 0.039-0.108 0.007-0.024 0.028-0.041 0.054-0.041 0.006 0 0.013 0.001 0.018 0.003l-0-0c0.023 0.010 0.039 0.032 0.039 0.058 0 0.007-0.001 0.014-0.003 0.020l0-0c-0.012 0.040-0.027 0.079-0.042 0.118-0.008 0.021-0.028 0.036-0.052 0.037h-0zM5.925 21.086c-0.025-0.001-0.047-0.018-0.054-0.041l-0-0c-0.013-0.040-0.023-0.080-0.033-0.121-0.001-0.005-0.002-0.010-0.002-0.015 0-0.027 0.018-0.051 0.043-0.058l0-0c0.004-0.001 0.009-0.002 0.013-0.002 0.027 0 0.050 0.020 0.055 0.046l0 0c0.009 0.037 0.019 0.075 0.030 0.111 0.002 0.006 0.003 0.013 0.003 0.020 0 0.026-0.016 0.048-0.038 0.057l-0 0c-0.005 0.002-0.012 0.003-0.018 0.003v0zM7.986 20.726h-0.004c-0.030-0.004-0.053-0.029-0.053-0.059 0-0.002 0-0.004 0-0.007l-0 0c0.003-0.037 0.004-0.075 0.004-0.112-0-0.001-0-0.002-0-0.002 0-0.032 0.025-0.058 0.057-0.061h0c0.031 0 0.057 0.026 0.057 0.057 0 0.001 0 0.001-0 0.002v-0 0.003c0 0.041-0.002 0.081-0.004 0.122-0.001 0.031-0.026 0.055-0.056 0.056h-0zM5.853 20.609c-0.032-0.001-0.057-0.026-0.057-0.058 0-0.001 0-0.002 0-0.002v0-0.002c0-0.042 0.002-0.083 0.005-0.124 0.001-0.031 0.027-0.056 0.058-0.056 0.001 0 0.002 0 0.003 0h-0c0.030 0.004 0.052 0.029 0.052 0.059 0 0.002-0 0.004-0 0.007l0-0c-0.003 0.038-0.004 0.076-0.004 0.115 0 0.001 0 0.001 0 0.002 0 0.032-0.025 0.058-0.057 0.060h-0zM7.947 20.245c-0.027-0.001-0.050-0.020-0.055-0.046l-0-0c-0.009-0.038-0.019-0.075-0.031-0.111-0.002-0.006-0.003-0.013-0.003-0.020 0-0.026 0.016-0.048 0.038-0.057l0-0c0.005-0.002 0.012-0.003 0.018-0.003 0.026 0 0.047 0.017 0.054 0.041l0 0c0.013 0.039 0.023 0.080 0.033 0.121 0.001 0.005 0.002 0.010 0.002 0.015 0 0.027-0.018 0.051-0.043 0.059l-0 0c-0.004 0.001-0.009 0.002-0.013 0.002-0 0-0 0-0.001 0h0zM5.923 20.135c-0.007-0-0.013-0.001-0.019-0.003l0 0c-0.023-0.009-0.039-0.032-0.039-0.058 0-0.007 0.001-0.014 0.003-0.020l-0 0c0.013-0.040 0.027-0.079 0.042-0.118 0.008-0.021 0.028-0.036 0.052-0.036 0.008 0 0.016 0.002 0.023 0.005l-0-0c0.020 0.011 0.034 0.032 0.034 0.056 0 0.009-0.002 0.017-0.005 0.025l0-0c-0.014 0.035-0.027 0.072-0.039 0.108-0.007 0.024-0.028 0.041-0.054 0.041h-0zM7.766 19.806c-0.020-0-0.037-0.011-0.046-0.027l-0-0c-0.020-0.032-0.042-0.063-0.064-0.092-0.008-0.011-0.013-0.024-0.013-0.039 0-0.019 0.008-0.035 0.021-0.047l0-0c0.010-0.009 0.022-0.014 0.036-0.014 0.018 0 0.034 0.009 0.044 0.022l0 0c0.025 0.032 0.048 0.066 0.070 0.101 0.006 0.010 0.010 0.021 0.010 0.034 0 0.021-0.010 0.039-0.025 0.051l-0 0c-0.009 0.006-0.020 0.010-0.032 0.010v0zM6.139 19.713c-0 0-0 0-0 0-0.014 0-0.027-0.005-0.036-0.014l0 0c-0.013-0.012-0.021-0.029-0.021-0.047 0-0.015 0.005-0.028 0.013-0.039l-0 0c0.025-0.033 0.052-0.065 0.079-0.094 0.010-0.011 0.024-0.018 0.040-0.018s0.030 0.007 0.040 0.018l0 0c0.010 0.011 0.017 0.027 0.017 0.043s-0.006 0.032-0.017 0.043l0-0c-0.025 0.027-0.049 0.056-0.072 0.086-0.010 0.014-0.026 0.022-0.044 0.022h-0zM7.449 19.466c-0.012 0-0.022-0.004-0.031-0.010l0 0c-0.026-0.018-0.056-0.037-0.087-0.054l-0.005-0.002c-0.019-0.011-0.031-0.031-0.031-0.055 0-0.010 0.002-0.019 0.006-0.028l-0 0c0.009-0.020 0.028-0.033 0.051-0.033 0.009 0 0.018 0.002 0.026 0.007l-0-0c0.040 0.022 0.074 0.043 0.106 0.066l-0.003-0.002c0.016 0.012 0.026 0.030 0.026 0.051 0 0.012-0.003 0.024-0.009 0.033l0-0c-0.010 0.016-0.027 0.027-0.048 0.028h-0zM6.484 19.408c-0.022-0-0.042-0.014-0.051-0.033l-0-0c-0.004-0.008-0.006-0.018-0.006-0.028 0-0.023 0.012-0.043 0.031-0.054l0-0c0.029-0.017 0.065-0.034 0.102-0.049l0.007-0.002c0.006-0.002 0.013-0.004 0.020-0.004 0.025 0 0.046 0.016 0.053 0.039l0 0c0.002 0.006 0.004 0.014 0.004 0.021 0 0.025-0.015 0.047-0.037 0.057l-0 0c-0.039 0.016-0.071 0.031-0.101 0.049l0.004-0.002c-0.007 0.004-0.016 0.006-0.025 0.006-0 0-0.001 0-0.001 0h0zM7.029 19.302c-0.001 0-0.002 0-0.003 0s-0.002-0-0.003-0h0c-0.031-0.004-0.067-0.006-0.103-0.006-0 0-0 0-0 0v0c-0.032-0.001-0.058-0.027-0.058-0.060 0-0 0-0.001 0-0.001v0c-0-0.001-0-0.002-0-0.003 0-0.031 0.025-0.057 0.056-0.058h0.003c0 0 0 0 0 0 0.041 0 0.081 0.003 0.121 0.008l-0.005-0c0.029 0.005 0.050 0.030 0.050 0.059 0 0.003-0 0.006-0.001 0.009l0-0c-0.002 0.030-0.026 0.053-0.056 0.054h-0z"></path>
<path fill="#dca815" d="M5.53 20.609h-0.34c0.001 0.041 0.003 0.081 0.007 0.122h0.341q-0.005-0.060-0.007-0.122z"></path>
<path fill="#dca815" d="M5.542 20.304h-0.34c-0.005 0.040-0.008 0.081-0.010 0.122h0.34c0.002-0.041 0.006-0.081 0.010-0.122z"></path>
<path fill="#dca815" d="M5.561 20.914h-0.34q0.012 0.062 0.026 0.122h0.341q-0.015-0.060-0.025-0.122z"></path>
<path fill="#dca815" d="M5.64 21.219h-0.341c0.015 0.042 0.030 0.082 0.048 0.122h0.34q-0.026-0.060-0.047-0.122z"></path>
<path fill="#dca815" d="M5.602 19.998h-0.34c-0.012 0.040-0.021 0.081-0.030 0.122h0.341c0.009-0.041 0.018-0.082 0.029-0.122z"></path>
<path fill="#dca815" d="M5.715 19.693h-0.34c-0.019 0.040-0.036 0.080-0.053 0.122h0.341q0.024-0.062 0.052-0.122z"></path>
<path fill="#dca815" d="M5.946 19.327h-0.341q-0.048 0.058-0.092 0.122h0.341q0.044-0.064 0.092-0.122z"></path>
<path fill="#dca815" d="M6.293 19.022h-0.341c-0.063 0.039-0.117 0.080-0.168 0.124l0.002-0.002h0.341c0.049-0.042 0.104-0.083 0.161-0.119l0.006-0.003z"></path>
<path fill="#dca815" d="M5.814 21.585h-0.341q0.040 0.063 0.084 0.122h0.341q-0.044-0.058-0.084-0.122z"></path>
<path fill="#dca815" d="M5.719 21.89c0.044 0.043 0.090 0.082 0.139 0.119l0.004 0.003h0.341c-0.053-0.040-0.1-0.080-0.144-0.122l0 0z"></path>
<path fill="#ffd949" d="M7.998 19.708c-0.768 0-1.39-0.765-1.39-1.709s0.622-1.708 1.39-1.708 1.39 0.765 1.39 1.708-0.622 1.708-1.39 1.708z"></path>
<path fill="#f4bf1a" d="M6.608 17.999c0-0.872 0.532-1.592 1.22-1.695-0.051-0.008-0.11-0.013-0.17-0.013h-0c-0.768 0-1.39 0.765-1.39 1.708s0.622 1.708 1.39 1.708c0.060-0 0.119-0.005 0.177-0.014l-0.006 0.001c-0.687-0.103-1.22-0.823-1.22-1.696z"></path>
<path fill="#f4bf1a" d="M8.003 19.374h-0.005c-0.042 0-0.083-0.003-0.124-0.008l0.005 0c-0.029-0.005-0.050-0.030-0.050-0.059 0-0.003 0-0.006 0.001-0.009l-0 0c0.002-0.030 0.027-0.054 0.058-0.054 0.002 0 0.004 0 0.005 0l-0-0c0.032 0.004 0.068 0.007 0.105 0.007v0c0.033 0.001 0.059 0.028 0.059 0.061 0 0 0 0 0 0v0c0 0.001 0 0.003 0 0.004 0 0.031-0.024 0.056-0.054 0.057h-0zM8.333 19.308c-0.025-0.001-0.046-0.017-0.053-0.039l-0-0c-0.002-0.006-0.004-0.014-0.004-0.022 0-0.025 0.015-0.047 0.037-0.057l0-0c0.039-0.016 0.071-0.032 0.101-0.049l-0.005 0.002c0.008-0.004 0.017-0.007 0.026-0.007 0.022 0 0.042 0.013 0.050 0.033l0 0c0.004 0.008 0.006 0.018 0.006 0.028 0 0.023-0.012 0.043-0.031 0.054l-0 0c-0.029 0.017-0.065 0.034-0.102 0.049l-0.007 0.002c-0.006 0.003-0.013 0.004-0.020 0.004-0 0-0 0-0 0v0zM7.565 19.262c-0.009 0-0.018-0.002-0.026-0.007l0 0c-0.040-0.022-0.074-0.043-0.106-0.066l0.003 0.002c-0.016-0.012-0.026-0.030-0.026-0.051 0-0.012 0.003-0.024 0.009-0.034l-0 0c0.010-0.017 0.027-0.027 0.047-0.027 0.012 0 0.023 0.004 0.031 0.010l-0-0c0.026 0.019 0.056 0.038 0.087 0.055l0.005 0.002c0.019 0.011 0.031 0.031 0.031 0.055 0 0.010-0.002 0.019-0.006 0.028l0-0c-0.009 0.020-0.028 0.033-0.051 0.033h-0zM8.706 19.045c-0.016-0-0.030-0.007-0.040-0.018l-0-0c-0.010-0.011-0.017-0.027-0.017-0.043s0.006-0.032 0.017-0.043l-0 0c0.025-0.027 0.049-0.056 0.071-0.086 0.010-0.014 0.026-0.022 0.044-0.022 0.014 0 0.026 0.005 0.036 0.014l-0-0c0.013 0.012 0.021 0.029 0.021 0.047 0 0.014-0.005 0.028-0.013 0.039l0-0c-0.025 0.033-0.051 0.065-0.079 0.094-0.010 0.011-0.024 0.018-0.040 0.018h-0zM7.219 18.959c-0.018-0-0.034-0.009-0.044-0.022l-0-0c-0.025-0.032-0.048-0.066-0.070-0.102-0.006-0.010-0.010-0.021-0.010-0.034 0-0.021 0.010-0.039 0.025-0.051l0-0c0.009-0.006 0.020-0.010 0.032-0.010 0.020 0 0.037 0.011 0.047 0.027l0 0c0.020 0.032 0.042 0.063 0.064 0.093 0.008 0.011 0.013 0.024 0.013 0.039 0 0.019-0.008 0.036-0.021 0.047l-0 0c-0.010 0.009-0.022 0.014-0.036 0.014v0zM8.956 18.646c-0.008-0-0.016-0.002-0.023-0.005l0 0c-0.021-0.011-0.034-0.032-0.034-0.056 0-0.009 0.002-0.017 0.005-0.025l-0 0c0.014-0.035 0.027-0.071 0.039-0.108 0.007-0.024 0.028-0.041 0.054-0.041 0.006 0 0.013 0.001 0.018 0.003l-0-0c0.023 0.010 0.039 0.032 0.039 0.058 0 0.007-0.001 0.014-0.003 0.020l0-0c-0.012 0.040-0.027 0.079-0.042 0.118-0.008 0.021-0.028 0.036-0.052 0.037h-0zM7.003 18.538c-0.025-0.001-0.047-0.018-0.054-0.041l-0-0c-0.013-0.040-0.023-0.080-0.033-0.121-0.001-0.005-0.002-0.010-0.002-0.015 0-0.027 0.018-0.051 0.043-0.058l0-0c0.004-0.001 0.009-0.002 0.013-0.002 0.027 0 0.050 0.020 0.055 0.046l0 0c0.009 0.037 0.019 0.075 0.030 0.111 0.002 0.006 0.003 0.013 0.003 0.020 0 0.026-0.016 0.048-0.038 0.057l-0 0c-0.005 0.002-0.012 0.003-0.018 0.003v0zM9.064 18.178h-0.004c-0.030-0.004-0.053-0.029-0.053-0.059 0-0.002 0-0.004 0-0.007l-0 0c0.003-0.037 0.004-0.075 0.004-0.112-0-0.001-0-0.002-0-0.002 0-0.032 0.025-0.058 0.057-0.061h0c0.031 0 0.057 0.026 0.057 0.057 0 0.001 0 0.001-0 0.002v-0 0.003c0 0.041-0.002 0.081-0.004 0.122-0.001 0.031-0.026 0.055-0.056 0.056h-0zM6.931 18.061c-0.032-0.001-0.057-0.026-0.057-0.058 0-0.001 0-0.002 0-0.002v0-0.002c0-0.042 0.002-0.083 0.005-0.124 0.001-0.031 0.027-0.056 0.058-0.056 0.001 0 0.002 0 0.003 0h-0c0.030 0.004 0.052 0.029 0.052 0.059 0 0.002-0 0.004-0 0.007l0-0c-0.003 0.038-0.004 0.076-0.004 0.115 0 0.001 0 0.001 0 0.002 0 0.032-0.025 0.058-0.057 0.060h-0zM9.025 17.697c-0.027-0.001-0.050-0.020-0.055-0.046l-0-0c-0.009-0.038-0.019-0.075-0.031-0.111-0.002-0.006-0.003-0.013-0.003-0.020 0-0.026 0.016-0.048 0.038-0.057l0-0c0.005-0.002 0.012-0.003 0.018-0.003 0.026 0 0.047 0.017 0.054 0.041l0 0c0.013 0.039 0.023 0.080 0.033 0.121 0.001 0.005 0.002 0.010 0.002 0.015 0 0.027-0.018 0.051-0.043 0.059l-0 0c-0.004 0.001-0.009 0.002-0.013 0.002-0 0-0 0-0.001 0h0zM7.001 17.587c-0.007-0-0.013-0.001-0.019-0.003l0 0c-0.023-0.009-0.039-0.032-0.039-0.058 0-0.007 0.001-0.014 0.003-0.020l-0 0c0.013-0.040 0.027-0.079 0.042-0.118 0.008-0.021 0.028-0.036 0.052-0.036 0.008 0 0.016 0.002 0.023 0.005l-0-0c0.020 0.011 0.034 0.032 0.034 0.056 0 0.009-0.002 0.017-0.005 0.025l0-0c-0.014 0.035-0.027 0.072-0.039 0.108-0.007 0.024-0.028 0.041-0.054 0.041h-0zM8.844 17.258c-0.020-0-0.037-0.011-0.046-0.027l-0-0c-0.020-0.032-0.042-0.063-0.064-0.092-0.008-0.011-0.013-0.024-0.013-0.039 0-0.019 0.008-0.035 0.021-0.047l0-0c0.010-0.009 0.022-0.014 0.036-0.014 0.018 0 0.034 0.009 0.044 0.022l0 0c0.025 0.032 0.048 0.066 0.070 0.101 0.006 0.010 0.010 0.021 0.010 0.034 0 0.021-0.010 0.039-0.025 0.051l-0 0c-0.009 0.006-0.020 0.010-0.032 0.010v0zM7.217 17.164c-0 0-0 0-0 0-0.014 0-0.027-0.005-0.036-0.014l0 0c-0.013-0.012-0.021-0.029-0.021-0.047 0-0.015 0.005-0.028 0.013-0.039l-0 0c0.025-0.033 0.052-0.065 0.079-0.094 0.010-0.011 0.024-0.018 0.040-0.018s0.030 0.007 0.040 0.018l0 0c0.010 0.011 0.017 0.027 0.017 0.043s-0.006 0.032-0.017 0.043l0-0c-0.025 0.027-0.049 0.056-0.072 0.086-0.010 0.014-0.026 0.022-0.044 0.022h-0zM8.527 16.918c-0.012 0-0.022-0.004-0.031-0.010l0 0c-0.026-0.018-0.056-0.037-0.087-0.054l-0.005-0.002c-0.019-0.011-0.031-0.031-0.031-0.055 0-0.010 0.002-0.019 0.006-0.028l-0 0c0.009-0.020 0.028-0.033 0.051-0.033 0.009 0 0.018 0.002 0.026 0.007l-0-0c0.040 0.022 0.074 0.043 0.106 0.066l-0.003-0.002c0.016 0.012 0.026 0.030 0.026 0.051 0 0.012-0.003 0.024-0.009 0.033l0-0c-0.010 0.016-0.027 0.027-0.048 0.028h-0zM7.562 16.86c-0.022-0-0.042-0.014-0.051-0.033l-0-0c-0.004-0.008-0.006-0.018-0.006-0.028 0-0.023 0.012-0.043 0.031-0.054l0-0c0.029-0.017 0.065-0.034 0.102-0.049l0.007-0.002c0.006-0.002 0.013-0.004 0.020-0.004 0.025 0 0.046 0.016 0.053 0.039l0 0c0.002 0.006 0.004 0.014 0.004 0.021 0 0.025-0.015 0.047-0.037 0.057l-0 0c-0.039 0.016-0.071 0.031-0.101 0.049l0.004-0.002c-0.007 0.004-0.016 0.006-0.025 0.006-0 0-0.001 0-0.001 0h0zM8.107 16.753c-0.001 0-0.002 0-0.003 0s-0.002-0-0.003-0h0c-0.031-0.004-0.067-0.006-0.103-0.006-0 0-0 0-0 0v0c-0.032-0.001-0.058-0.027-0.058-0.060 0-0 0-0.001 0-0.001v0c-0-0.001-0-0.002-0-0.003 0-0.031 0.025-0.057 0.056-0.058h0.003c0 0 0 0 0 0 0.041 0 0.081 0.003 0.121 0.008l-0.005-0c0.029 0.005 0.050 0.030 0.050 0.059 0 0.003-0 0.006-0.001 0.009l0-0c-0.002 0.030-0.026 0.053-0.056 0.054h-0z"></path>
<path fill="#dca815" d="M6.608 18.061h-0.34c0.001 0.041 0.003 0.081 0.007 0.122h0.341q-0.005-0.060-0.007-0.122z"></path>
<path fill="#dca815" d="M6.621 17.755h-0.34c-0.005 0.040-0.008 0.081-0.010 0.122h0.34c0.002-0.041 0.006-0.081 0.010-0.122z"></path>
<path fill="#dca815" d="M6.639 18.366h-0.341q0.012 0.062 0.026 0.122h0.341q-0.015-0.060-0.025-0.122z"></path>
<path fill="#dca815" d="M6.718 18.671h-0.341c0.015 0.042 0.030 0.082 0.048 0.122h0.341q-0.026-0.060-0.047-0.122z"></path>
<path fill="#dca815" d="M6.68 17.45h-0.34c-0.012 0.040-0.021 0.081-0.030 0.122h0.341c0.009-0.041 0.018-0.082 0.029-0.122z"></path>
<path fill="#dca815" d="M6.793 17.145h-0.34c-0.019 0.040-0.036 0.080-0.053 0.122h0.341q0.024-0.062 0.052-0.122z"></path>
<path fill="#dca815" d="M7.025 16.779h-0.341q-0.048 0.058-0.092 0.122h0.341q0.044-0.064 0.092-0.122z"></path>
<path fill="#dca815" d="M7.371 16.474h-0.341c-0.063 0.039-0.117 0.080-0.168 0.124l0.002-0.002h0.341c0.049-0.042 0.104-0.083 0.161-0.119l0.006-0.003z"></path>
<path fill="#dca815" d="M6.893 19.037h-0.341q0.040 0.063 0.084 0.122h0.341q-0.044-0.058-0.084-0.122z"></path>
<path fill="#dca815" d="M6.797 19.342c0.044 0.043 0.090 0.082 0.139 0.119l0.004 0.003h0.341c-0.053-0.040-0.1-0.080-0.144-0.122l0 0z"></path>
<path fill="#ffd949" d="M21.642 23.401c-0.95 0-1.72-0.946-1.72-2.114s0.77-2.114 1.72-2.114 1.72 0.946 1.72 2.114-0.77 2.114-1.72 2.114z"></path>
<path fill="#f4bf1a" d="M19.922 21.287c0-1.080 0.659-1.97 1.509-2.098-0.063-0.010-0.136-0.016-0.21-0.016h-0c-0.95 0-1.72 0.946-1.72 2.114s0.77 2.114 1.72 2.114c0.075-0 0.147-0.006 0.219-0.017l-0.008 0.001c-0.85-0.128-1.509-1.018-1.509-2.098z"></path>
<path fill="#f4bf1a" d="M21.648 22.988h-0.006c-0.052-0-0.103-0.003-0.153-0.010l0.006 0.001c-0.036-0.006-0.062-0.037-0.062-0.074 0-0.004 0-0.007 0.001-0.011l-0 0c0.003-0.037 0.034-0.066 0.072-0.066 0.002 0 0.004 0 0.007 0l-0-0c0.039 0.005 0.084 0.008 0.13 0.008 0 0 0 0 0 0h-0c0.041 0.001 0.073 0.035 0.073 0.075 0 0 0 0 0 0v0c0 0.002 0 0.003 0 0.005 0 0.038-0.030 0.069-0.067 0.070h-0zM22.056 22.906c-0.031-0.001-0.056-0.021-0.066-0.048l-0-0c-0.003-0.008-0.005-0.017-0.005-0.027 0-0.031 0.019-0.058 0.045-0.070l0-0c0.048-0.020 0.087-0.039 0.125-0.060l-0.006 0.003c0.009-0.005 0.020-0.008 0.032-0.008 0.028 0 0.052 0.017 0.062 0.040l0 0c0.005 0.010 0.008 0.022 0.008 0.034 0 0.029-0.015 0.053-0.038 0.067l-0 0c-0.036 0.021-0.081 0.042-0.126 0.061l-0.008 0.003c-0.007 0.003-0.016 0.005-0.025 0.005-0 0-0 0-0 0v0zM21.106 22.848c-0.012-0-0.023-0.003-0.032-0.008l0 0c-0.050-0.027-0.091-0.053-0.131-0.082l0.004 0.003c-0.019-0.015-0.032-0.038-0.032-0.063 0-0.015 0.004-0.029 0.012-0.041l-0 0c0.012-0.020 0.034-0.034 0.059-0.034 0.015 0 0.028 0.005 0.039 0.012l-0-0c0.032 0.023 0.069 0.046 0.108 0.068l0.006 0.003c0.023 0.014 0.039 0.039 0.039 0.067 0 0.012-0.003 0.024-0.008 0.034l0-0c-0.011 0.024-0.035 0.041-0.063 0.041h-0zM22.517 22.579c-0.020-0-0.037-0.009-0.049-0.022l-0-0c-0.013-0.014-0.021-0.033-0.021-0.053s0.008-0.039 0.021-0.053l-0 0c0.031-0.033 0.060-0.069 0.088-0.106 0.012-0.017 0.032-0.028 0.054-0.028 0.017 0 0.033 0.006 0.045 0.017l-0-0c0.016 0.015 0.026 0.035 0.026 0.059 0 0.018-0.006 0.034-0.016 0.048l0-0c-0.031 0.041-0.064 0.080-0.098 0.117-0.012 0.014-0.030 0.022-0.050 0.022h-0zM20.677 22.473c-0.022-0-0.042-0.011-0.054-0.027l-0-0c-0.030-0.040-0.060-0.082-0.087-0.126-0.008-0.012-0.012-0.026-0.012-0.042 0-0.025 0.012-0.048 0.031-0.063l0-0c0.011-0.008 0.025-0.013 0.039-0.013 0.025 0 0.046 0.013 0.058 0.033l0 0c0.025 0.040 0.051 0.078 0.079 0.114 0.010 0.013 0.016 0.030 0.016 0.048 0 0.023-0.010 0.044-0.026 0.058l-0 0c-0.012 0.011-0.027 0.017-0.044 0.017v0zM22.826 22.085c-0.010-0-0.020-0.002-0.028-0.006l0 0c-0.025-0.013-0.042-0.039-0.042-0.069 0-0.011 0.002-0.021 0.006-0.031l-0 0c0.018-0.043 0.034-0.088 0.048-0.134 0.008-0.030 0.035-0.051 0.067-0.051 0.008 0 0.015 0.001 0.022 0.004l-0-0c0.028 0.012 0.048 0.039 0.048 0.071 0 0.009-0.001 0.017-0.004 0.025l0-0.001c-0.015 0.049-0.033 0.098-0.052 0.146-0.010 0.026-0.035 0.045-0.064 0.045h-0zM20.409 21.952c-0.031-0.001-0.058-0.022-0.066-0.051l-0-0c-0.015-0.049-0.029-0.099-0.041-0.15-0.002-0.006-0.002-0.012-0.002-0.019 0-0.034 0.022-0.063 0.053-0.072l0.001-0c0.005-0.001 0.011-0.002 0.017-0.002 0.034 0 0.062 0.024 0.068 0.057l0 0c0.011 0.047 0.023 0.093 0.038 0.137 0.003 0.007 0.004 0.016 0.004 0.025 0 0.032-0.020 0.059-0.047 0.071l-0 0c-0.007 0.003-0.015 0.004-0.023 0.004-0 0-0 0-0 0h0zM22.958 21.507h-0.005c-0.037-0.005-0.065-0.036-0.065-0.073 0-0.003 0-0.006 0-0.008l-0 0c0.003-0.046 0.005-0.093 0.005-0.139-0-0.001-0-0.002-0-0.003 0-0.040 0.031-0.072 0.070-0.075h0c0.039 0.001 0.070 0.032 0.070 0.071 0 0.001 0 0.002-0 0.002v-0 0.005c0 0.050-0.002 0.101-0.005 0.151-0.001 0.038-0.032 0.068-0.070 0.070h-0zM20.319 21.363c-0.039-0.001-0.070-0.033-0.070-0.072 0-0.001 0-0.002 0-0.003v0-0.002c0-0.051 0.002-0.103 0.006-0.154 0.001-0.039 0.033-0.070 0.072-0.070 0.001 0 0.002 0 0.004 0h-0c0.037 0.005 0.065 0.036 0.065 0.073 0 0.003-0 0.006-0 0.008l0-0c-0.003 0.047-0.005 0.094-0.005 0.142 0 0.001 0 0.002 0 0.003 0 0.039-0.031 0.072-0.070 0.074h-0zM22.913 20.913c-0.034-0.001-0.062-0.025-0.068-0.056l-0-0c-0.011-0.047-0.023-0.093-0.038-0.137-0.003-0.007-0.004-0.016-0.004-0.025 0-0.032 0.019-0.059 0.047-0.071l0-0c0.007-0.002 0.015-0.004 0.023-0.004 0.031 0 0.058 0.021 0.066 0.050l0 0c0.016 0.049 0.029 0.099 0.041 0.149 0.002 0.006 0.002 0.012 0.002 0.019 0 0.034-0.022 0.063-0.053 0.072l-0.001 0c-0.005 0.001-0.011 0.002-0.017 0.002-0 0-0 0-0.001 0h0zM20.409 20.776c-0.008-0-0.016-0.002-0.023-0.004l0 0c-0.028-0.012-0.048-0.039-0.048-0.071 0-0.009 0.001-0.017 0.004-0.025l-0 0.001c0.015-0.049 0.033-0.098 0.052-0.146 0.010-0.027 0.035-0.045 0.064-0.045 0.010 0 0.020 0.002 0.029 0.006l-0-0c0.025 0.013 0.042 0.039 0.042 0.069 0 0.011-0.002 0.021-0.006 0.031l0-0c-0.018 0.044-0.034 0.089-0.048 0.134-0.009 0.029-0.035 0.051-0.066 0.051h-0zM22.688 20.369c-0.025-0-0.046-0.013-0.058-0.033l-0-0c-0.025-0.039-0.051-0.078-0.079-0.114-0.010-0.013-0.016-0.030-0.016-0.048 0-0.023 0.010-0.044 0.026-0.058l0-0c0.012-0.011 0.028-0.017 0.045-0.017 0.022 0 0.042 0.011 0.054 0.027l0 0c0.031 0.040 0.060 0.082 0.087 0.125 0.008 0.012 0.012 0.026 0.012 0.042 0 0.025-0.012 0.048-0.031 0.063l-0 0c-0.011 0.008-0.024 0.013-0.039 0.013v0zM20.675 20.254c-0.017-0-0.033-0.007-0.044-0.017l0 0c-0.016-0.015-0.026-0.035-0.026-0.059 0-0.018 0.006-0.035 0.016-0.048l-0 0c0.031-0.041 0.064-0.080 0.098-0.116 0.012-0.014 0.030-0.022 0.050-0.022s0.037 0.009 0.050 0.022l0 0c0.013 0.014 0.021 0.033 0.021 0.053s-0.008 0.039-0.021 0.053l0-0c-0.031 0.033-0.060 0.069-0.089 0.106-0.012 0.017-0.032 0.028-0.054 0.028h-0zM22.295 19.95c-0.014 0-0.028-0.005-0.038-0.012l0 0c-0.032-0.023-0.069-0.046-0.108-0.067l-0.006-0.003c-0.023-0.014-0.039-0.039-0.039-0.068 0-0.012 0.003-0.024 0.008-0.034l-0 0c0.011-0.024 0.035-0.041 0.063-0.041 0.012 0 0.023 0.003 0.032 0.008l-0-0c0.050 0.027 0.091 0.053 0.131 0.081l-0.004-0.003c0.020 0.015 0.032 0.038 0.032 0.064 0 0.015-0.004 0.029-0.012 0.041l0-0c-0.012 0.020-0.034 0.034-0.059 0.034h-0zM21.103 19.878c-0.028-0-0.052-0.017-0.062-0.041l-0-0c-0.005-0.010-0.008-0.022-0.008-0.034 0-0.029 0.015-0.054 0.038-0.067l0-0c0.036-0.020 0.081-0.042 0.127-0.061l0.008-0.003c0.007-0.003 0.016-0.005 0.024-0.005 0.031 0 0.057 0.020 0.066 0.048l0 0c0.003 0.008 0.005 0.017 0.005 0.026 0 0.031-0.019 0.058-0.045 0.070l-0 0c-0.048 0.019-0.087 0.038-0.126 0.060l0.006-0.003c-0.009 0.005-0.020 0.008-0.032 0.008v0zM21.777 19.746c-0.001 0-0.003 0-0.004 0s-0.003-0-0.004-0h0c-0.038-0.005-0.083-0.008-0.128-0.008-0 0-0 0-0 0h0c-0.040-0.001-0.072-0.034-0.072-0.074 0-0 0-0.001 0-0.001v0c-0-0.001-0-0.002-0-0.004 0-0.039 0.030-0.070 0.069-0.072h0.003c0.051 0 0.101 0.003 0.15 0.010l-0.006-0.001c0.036 0.006 0.062 0.037 0.062 0.073 0 0.004-0 0.007-0.001 0.011l0-0c-0.003 0.037-0.033 0.066-0.070 0.067h-0z"></path>
<path fill="#dca815" d="M19.921 21.363h-0.421c0.001 0.051 0.004 0.101 0.008 0.151h0.422q-0.006-0.075-0.009-0.151z"></path>
<path fill="#dca815" d="M19.937 20.985h-0.421c-0.006 0.050-0.010 0.1-0.013 0.151h0.421c0.003-0.051 0.007-0.101 0.013-0.151z"></path>
<path fill="#dca815" d="M19.96 21.74h-0.421q0.014 0.077 0.032 0.151h0.421q-0.018-0.074-0.032-0.151z"></path>
<path fill="#dca815" d="M20.058 22.118h-0.422c0.018 0.051 0.038 0.102 0.059 0.151h0.421q-0.032-0.074-0.058-0.151z"></path>
<path fill="#dca815" d="M20.011 20.608h-0.421c-0.014 0.050-0.026 0.1-0.037 0.151h0.422c0.011-0.051 0.023-0.102 0.036-0.151z"></path>
<path fill="#dca815" d="M20.151 20.23h-0.421c-0.023 0.049-0.045 0.099-0.065 0.151h0.421q0.030-0.077 0.065-0.151z"></path>
<path fill="#dca815" d="M20.437 19.777h-0.421q-0.060 0.072-0.114 0.151h0.421q0.054-0.079 0.114-0.151z"></path>
<path fill="#dca815" d="M20.866 19.4h-0.422c-0.078 0.049-0.145 0.099-0.208 0.153l0.002-0.002h0.422c0.061-0.052 0.128-0.102 0.199-0.147l0.007-0.004z"></path>
<path fill="#dca815" d="M20.274 22.571h-0.421q0.049 0.078 0.103 0.151h0.422q-0.055-0.073-0.104-0.151z"></path>
<path fill="#dca815" d="M20.155 22.948c0.054 0.053 0.112 0.102 0.173 0.148l0.005 0.003h0.422c-0.066-0.049-0.124-0.098-0.179-0.151l0 0z"></path>
<path fill="#ffd949" d="M22.83 26.395c-0.95 0-1.72-0.946-1.72-2.114s0.77-2.114 1.72-2.114 1.72 0.946 1.72 2.114-0.77 2.114-1.72 2.114z"></path>
<path fill="#f4bf1a" d="M21.11 24.281c0-1.080 0.659-1.97 1.509-2.098-0.063-0.010-0.136-0.016-0.21-0.016h-0c-0.95 0-1.72 0.946-1.72 2.114s0.77 2.114 1.72 2.114c0.075-0 0.147-0.006 0.219-0.017l-0.008 0.001c-0.85-0.128-1.509-1.018-1.509-2.098z"></path>
<path fill="#f4bf1a" d="M22.837 25.981h-0.006c-0.052-0-0.103-0.003-0.153-0.010l0.006 0.001c-0.036-0.006-0.062-0.037-0.062-0.074 0-0.004 0-0.007 0.001-0.011l-0 0c0.003-0.037 0.034-0.066 0.072-0.066 0.002 0 0.004 0 0.007 0l-0-0c0.039 0.005 0.084 0.008 0.13 0.008 0 0 0 0 0 0h-0c0.041 0.001 0.073 0.035 0.073 0.075 0 0 0 0 0 0v0c0 0.002 0 0.003 0 0.005 0 0.038-0.030 0.069-0.067 0.070h-0zM23.245 25.9c-0.031-0.001-0.056-0.021-0.066-0.048l-0-0c-0.003-0.008-0.005-0.017-0.005-0.027 0-0.031 0.019-0.058 0.045-0.070l0-0c0.048-0.020 0.087-0.039 0.125-0.060l-0.006 0.003c0.009-0.005 0.020-0.008 0.032-0.008 0.028 0 0.052 0.017 0.062 0.040l0 0c0.005 0.010 0.008 0.022 0.008 0.034 0 0.029-0.015 0.053-0.038 0.067l-0 0c-0.036 0.021-0.081 0.042-0.126 0.061l-0.008 0.003c-0.007 0.003-0.016 0.005-0.025 0.005-0 0-0 0-0 0v0zM22.294 25.842c-0.012-0-0.023-0.003-0.032-0.008l0 0c-0.050-0.027-0.091-0.053-0.131-0.082l0.004 0.003c-0.019-0.015-0.032-0.038-0.032-0.063 0-0.015 0.004-0.029 0.012-0.041l-0 0c0.012-0.020 0.034-0.034 0.059-0.034 0.015 0 0.028 0.005 0.039 0.012l-0-0c0.032 0.023 0.069 0.046 0.108 0.068l0.006 0.003c0.023 0.014 0.039 0.039 0.039 0.067 0 0.012-0.003 0.024-0.008 0.034l0-0c-0.011 0.024-0.035 0.041-0.063 0.041h-0zM23.706 25.573c-0.020-0-0.037-0.009-0.049-0.022l-0-0c-0.013-0.014-0.021-0.033-0.021-0.053s0.008-0.039 0.021-0.053l-0 0c0.031-0.033 0.060-0.069 0.088-0.106 0.012-0.017 0.032-0.028 0.054-0.028 0.017 0 0.033 0.006 0.045 0.017l-0-0c0.016 0.015 0.026 0.035 0.026 0.059 0 0.018-0.006 0.034-0.016 0.048l0-0c-0.031 0.041-0.064 0.080-0.098 0.117-0.012 0.014-0.030 0.022-0.050 0.022h-0zM21.866 25.466c-0.022-0-0.042-0.011-0.054-0.027l-0-0c-0.030-0.040-0.060-0.082-0.087-0.126-0.008-0.012-0.012-0.026-0.012-0.042 0-0.025 0.012-0.048 0.031-0.063l0-0c0.011-0.008 0.025-0.013 0.039-0.013 0.025 0 0.046 0.013 0.058 0.033l0 0c0.025 0.040 0.051 0.078 0.079 0.114 0.010 0.013 0.016 0.030 0.016 0.048 0 0.023-0.010 0.044-0.026 0.058l-0 0c-0.012 0.011-0.027 0.017-0.044 0.017v0zM24.015 25.079c-0.010-0-0.020-0.002-0.028-0.006l0 0c-0.025-0.013-0.042-0.039-0.042-0.069 0-0.011 0.002-0.021 0.006-0.031l-0 0c0.018-0.043 0.034-0.088 0.048-0.134 0.008-0.030 0.035-0.051 0.067-0.051 0.008 0 0.015 0.001 0.022 0.004l-0-0c0.028 0.012 0.048 0.039 0.048 0.071 0 0.009-0.001 0.017-0.004 0.025l0-0.001c-0.015 0.049-0.033 0.098-0.052 0.146-0.010 0.026-0.035 0.045-0.064 0.045h-0zM21.598 24.945c-0.031-0.001-0.058-0.022-0.066-0.051l-0-0c-0.015-0.049-0.029-0.099-0.041-0.15-0.002-0.006-0.002-0.012-0.002-0.019 0-0.034 0.022-0.063 0.053-0.072l0.001-0c0.005-0.001 0.011-0.002 0.017-0.002 0.034 0 0.062 0.024 0.068 0.057l0 0c0.011 0.047 0.023 0.093 0.038 0.137 0.003 0.007 0.004 0.016 0.004 0.025 0 0.032-0.020 0.059-0.047 0.071l-0 0c-0.007 0.003-0.015 0.004-0.023 0.004-0 0-0 0-0 0h0zM24.147 24.5h-0.005c-0.037-0.005-0.065-0.036-0.065-0.073 0-0.003 0-0.006 0-0.008l-0 0c0.003-0.046 0.005-0.093 0.005-0.139-0-0.001-0-0.002-0-0.003 0-0.040 0.031-0.072 0.070-0.075h0c0.039 0.001 0.070 0.032 0.070 0.071 0 0.001 0 0.002-0 0.002v-0 0.005c0 0.050-0.002 0.101-0.005 0.151-0.001 0.038-0.032 0.068-0.070 0.070h-0zM21.508 24.357c-0.039-0.001-0.070-0.033-0.070-0.072 0-0.001 0-0.002 0-0.003v0-0.002c0-0.051 0.002-0.103 0.006-0.154 0.001-0.039 0.033-0.070 0.072-0.070 0.001 0 0.002 0 0.004 0h-0c0.037 0.005 0.065 0.036 0.065 0.073 0 0.003-0 0.006-0 0.008l0-0c-0.003 0.047-0.005 0.094-0.005 0.142 0 0.001 0 0.002 0 0.003 0 0.039-0.031 0.072-0.070 0.074h-0zM24.102 23.906c-0.034-0.001-0.062-0.025-0.068-0.056l-0-0c-0.011-0.047-0.023-0.093-0.038-0.137-0.003-0.007-0.004-0.016-0.004-0.025 0-0.032 0.019-0.059 0.047-0.071l0-0c0.007-0.002 0.015-0.004 0.023-0.004 0.031 0 0.058 0.021 0.066 0.050l0 0c0.016 0.049 0.029 0.099 0.041 0.149 0.002 0.006 0.002 0.012 0.002 0.019 0 0.034-0.022 0.063-0.053 0.072l-0.001 0c-0.005 0.001-0.011 0.002-0.017 0.002-0 0-0 0-0.001 0h0zM21.597 23.769c-0.008-0-0.016-0.002-0.023-0.004l0 0c-0.028-0.012-0.048-0.039-0.048-0.071 0-0.009 0.001-0.017 0.004-0.025l-0 0.001c0.015-0.049 0.033-0.098 0.052-0.146 0.010-0.027 0.035-0.045 0.064-0.045 0.010 0 0.020 0.002 0.029 0.006l-0-0c0.025 0.013 0.042 0.039 0.042 0.069 0 0.011-0.002 0.021-0.006 0.031l0-0c-0.018 0.044-0.034 0.089-0.048 0.134-0.009 0.029-0.035 0.051-0.066 0.051h-0zM23.877 23.362c-0.025-0-0.046-0.013-0.058-0.033l-0-0c-0.025-0.039-0.051-0.078-0.079-0.114-0.010-0.013-0.016-0.030-0.016-0.048 0-0.023 0.010-0.044 0.026-0.058l0-0c0.012-0.011 0.028-0.017 0.045-0.017 0.022 0 0.042 0.011 0.054 0.027l0 0c0.031 0.040 0.060 0.082 0.087 0.125 0.008 0.012 0.012 0.026 0.012 0.042 0 0.025-0.012 0.048-0.031 0.063l-0 0c-0.011 0.008-0.024 0.013-0.039 0.013v0zM21.864 23.248c-0.017-0-0.033-0.007-0.044-0.017l0 0c-0.016-0.015-0.026-0.035-0.026-0.059 0-0.018 0.006-0.035 0.016-0.048l-0 0c0.031-0.041 0.064-0.080 0.098-0.116 0.012-0.014 0.030-0.022 0.050-0.022s0.037 0.009 0.050 0.022l0 0c0.013 0.014 0.021 0.033 0.021 0.053s-0.008 0.039-0.021 0.053l0-0c-0.031 0.033-0.060 0.069-0.089 0.106-0.012 0.017-0.032 0.028-0.054 0.028h-0zM23.484 22.943c-0.014 0-0.028-0.005-0.038-0.012l0 0c-0.032-0.023-0.069-0.046-0.108-0.067l-0.006-0.003c-0.023-0.014-0.039-0.039-0.039-0.068 0-0.012 0.003-0.024 0.008-0.034l-0 0c0.011-0.024 0.035-0.041 0.063-0.041 0.012 0 0.023 0.003 0.032 0.008l-0-0c0.050 0.027 0.091 0.053 0.131 0.081l-0.004-0.003c0.020 0.015 0.032 0.038 0.032 0.064 0 0.015-0.004 0.029-0.012 0.041l0-0c-0.012 0.020-0.034 0.034-0.059 0.034h-0zM22.292 22.871c-0.028-0-0.052-0.017-0.062-0.041l-0-0c-0.005-0.010-0.008-0.022-0.008-0.034 0-0.029 0.015-0.054 0.038-0.067l0-0c0.036-0.020 0.081-0.042 0.127-0.061l0.008-0.003c0.007-0.003 0.016-0.005 0.024-0.005 0.031 0 0.057 0.020 0.066 0.048l0 0c0.003 0.008 0.005 0.017 0.005 0.026 0 0.031-0.019 0.058-0.045 0.070l-0 0c-0.048 0.019-0.087 0.038-0.126 0.060l0.006-0.003c-0.009 0.005-0.020 0.008-0.032 0.008v0zM22.966 22.74c-0.001 0-0.003 0-0.004 0s-0.003-0-0.004-0h0c-0.038-0.005-0.083-0.008-0.128-0.008-0 0-0 0-0 0h0c-0.040-0.001-0.072-0.034-0.072-0.074 0-0 0-0.001 0-0.001v0c-0-0.001-0-0.002-0-0.004 0-0.039 0.030-0.070 0.069-0.072h0.003c0.051 0 0.101 0.003 0.15 0.010l-0.006-0.001c0.036 0.006 0.062 0.037 0.062 0.073 0 0.004-0 0.007-0.001 0.011l0-0c-0.003 0.037-0.033 0.066-0.070 0.067h-0z"></path>
<path fill="#dca815" d="M21.11 24.356h-0.421c0.001 0.051 0.004 0.101 0.008 0.151h0.422q-0.006-0.075-0.009-0.151z"></path>
<path fill="#dca815" d="M21.126 23.979h-0.421c-0.006 0.050-0.010 0.1-0.013 0.151h0.421c0.003-0.051 0.007-0.101 0.013-0.151z"></path>
<path fill="#dca815" d="M21.149 24.734h-0.421q0.014 0.077 0.032 0.151h0.421q-0.018-0.074-0.032-0.151z"></path>
<path fill="#dca815" d="M21.247 25.111h-0.421c0.018 0.051 0.038 0.102 0.059 0.151h0.421q-0.032-0.074-0.058-0.151z"></path>
<path fill="#dca815" d="M21.2 23.601h-0.421c-0.014 0.050-0.026 0.1-0.037 0.151h0.422c0.011-0.051 0.023-0.102 0.036-0.151z"></path>
<path fill="#dca815" d="M21.34 23.224h-0.421c-0.023 0.049-0.045 0.099-0.065 0.151h0.421q0.030-0.077 0.065-0.151z"></path>
<path fill="#dca815" d="M21.626 22.77h-0.421q-0.060 0.072-0.114 0.151h0.421q0.054-0.079 0.114-0.151z"></path>
<path fill="#dca815" d="M22.055 22.393h-0.422c-0.078 0.049-0.145 0.099-0.208 0.153l0.002-0.002h0.422c0.061-0.052 0.128-0.102 0.199-0.147l0.007-0.004z"></path>
<path fill="#dca815" d="M21.463 25.564h-0.421q0.049 0.078 0.103 0.151h0.422q-0.055-0.073-0.104-0.151z"></path>
<path fill="#dca815" d="M21.344 25.942c0.054 0.053 0.112 0.102 0.173 0.148l0.005 0.003h0.422c-0.066-0.049-0.124-0.098-0.179-0.151l0 0z"></path>
<path fill="#ffd949" d="M24.164 23.242c-0.95 0-1.72-0.946-1.72-2.114s0.77-2.114 1.72-2.114 1.72 0.946 1.72 2.114-0.77 2.114-1.72 2.114z"></path>
<path fill="#f4bf1a" d="M22.444 21.128c0-1.080 0.659-1.97 1.509-2.098-0.063-0.010-0.136-0.016-0.21-0.016h-0c-0.95 0-1.72 0.946-1.72 2.114s0.77 2.114 1.72 2.114c0.075-0 0.147-0.006 0.219-0.017l-0.008 0.001c-0.85-0.128-1.509-1.018-1.509-2.098z"></path>
<path fill="#f4bf1a" d="M24.17 22.829h-0.006c-0.052-0-0.103-0.003-0.153-0.010l0.006 0.001c-0.036-0.006-0.062-0.037-0.062-0.074 0-0.004 0-0.007 0.001-0.011l-0 0c0.003-0.037 0.034-0.066 0.072-0.066 0.002 0 0.004 0 0.007 0l-0-0c0.039 0.005 0.084 0.008 0.13 0.008 0 0 0 0 0 0h-0c0.041 0.001 0.073 0.035 0.073 0.075 0 0 0 0 0 0v0c0 0.002 0 0.003 0 0.005 0 0.038-0.030 0.069-0.067 0.070h-0zM24.578 22.747c-0.031-0.001-0.056-0.021-0.066-0.048l-0-0c-0.003-0.008-0.005-0.017-0.005-0.027 0-0.031 0.019-0.058 0.045-0.070l0-0c0.048-0.020 0.087-0.039 0.125-0.060l-0.006 0.003c0.009-0.005 0.020-0.008 0.032-0.008 0.028 0 0.052 0.017 0.062 0.040l0 0c0.005 0.010 0.008 0.022 0.008 0.034 0 0.029-0.015 0.053-0.038 0.067l-0 0c-0.036 0.021-0.081 0.042-0.126 0.061l-0.008 0.003c-0.007 0.003-0.016 0.005-0.025 0.005-0 0-0 0-0 0v0zM23.628 22.689c-0.012-0-0.023-0.003-0.032-0.008l0 0c-0.050-0.027-0.091-0.053-0.131-0.082l0.004 0.003c-0.019-0.015-0.032-0.038-0.032-0.063 0-0.015 0.004-0.029 0.012-0.041l-0 0c0.012-0.020 0.034-0.034 0.059-0.034 0.015 0 0.028 0.005 0.039 0.012l-0-0c0.032 0.023 0.069 0.046 0.108 0.068l0.006 0.003c0.023 0.014 0.039 0.039 0.039 0.067 0 0.012-0.003 0.024-0.008 0.034l0-0c-0.011 0.024-0.035 0.041-0.063 0.041h-0zM25.040 22.42c-0.020-0-0.037-0.009-0.049-0.022l-0-0c-0.013-0.014-0.021-0.033-0.021-0.053s0.008-0.039 0.021-0.053l-0 0c0.031-0.033 0.060-0.069 0.088-0.106 0.012-0.017 0.032-0.028 0.054-0.028 0.017 0 0.033 0.006 0.045 0.017l-0-0c0.016 0.015 0.026 0.035 0.026 0.059 0 0.018-0.006 0.034-0.016 0.048l0-0c-0.031 0.041-0.064 0.080-0.098 0.117-0.012 0.014-0.030 0.022-0.050 0.022h-0zM23.2 22.314c-0.022-0-0.042-0.011-0.054-0.027l-0-0c-0.030-0.040-0.060-0.082-0.087-0.126-0.008-0.012-0.012-0.026-0.012-0.042 0-0.025 0.012-0.048 0.031-0.063l0-0c0.011-0.008 0.025-0.013 0.039-0.013 0.025 0 0.046 0.013 0.058 0.033l0 0c0.025 0.040 0.051 0.078 0.079 0.114 0.010 0.013 0.016 0.030 0.016 0.048 0 0.023-0.010 0.044-0.026 0.058l-0 0c-0.012 0.011-0.027 0.017-0.044 0.017v0zM25.349 21.926c-0.010-0-0.020-0.002-0.028-0.006l0 0c-0.025-0.013-0.042-0.039-0.042-0.069 0-0.011 0.002-0.021 0.006-0.031l-0 0c0.018-0.043 0.034-0.088 0.048-0.134 0.008-0.030 0.035-0.051 0.067-0.051 0.008 0 0.015 0.001 0.022 0.004l-0-0c0.028 0.012 0.048 0.039 0.048 0.071 0 0.009-0.001 0.017-0.004 0.025l0-0.001c-0.015 0.049-0.033 0.098-0.052 0.146-0.010 0.026-0.035 0.045-0.064 0.045h-0zM22.932 21.793c-0.031-0.001-0.058-0.022-0.066-0.051l-0-0c-0.015-0.049-0.029-0.099-0.041-0.15-0.002-0.006-0.002-0.012-0.002-0.019 0-0.034 0.022-0.063 0.053-0.072l0.001-0c0.005-0.001 0.011-0.002 0.017-0.002 0.034 0 0.062 0.024 0.068 0.057l0 0c0.011 0.047 0.023 0.093 0.038 0.137 0.003 0.007 0.004 0.016 0.004 0.025 0 0.032-0.020 0.059-0.047 0.071l-0 0c-0.007 0.003-0.015 0.004-0.023 0.004-0 0-0 0-0 0h0zM25.481 21.348h-0.005c-0.037-0.005-0.065-0.036-0.065-0.073 0-0.003 0-0.006 0-0.008l-0 0c0.003-0.046 0.005-0.093 0.005-0.139-0-0.001-0-0.002-0-0.003 0-0.040 0.031-0.072 0.070-0.075h0c0.039 0.001 0.070 0.032 0.070 0.071 0 0.001 0 0.002-0 0.002v-0 0.005c0 0.050-0.002 0.101-0.005 0.151-0.001 0.038-0.032 0.068-0.070 0.070h-0zM22.842 21.204c-0.039-0.001-0.070-0.033-0.070-0.072 0-0.001 0-0.002 0-0.003v0-0.002c0-0.051 0.002-0.103 0.006-0.154 0.001-0.039 0.033-0.070 0.072-0.070 0.001 0 0.002 0 0.004 0h-0c0.037 0.005 0.065 0.036 0.065 0.073 0 0.003-0 0.006-0 0.008l0-0c-0.003 0.047-0.005 0.094-0.005 0.142 0 0.001 0 0.002 0 0.003 0 0.039-0.031 0.072-0.070 0.074h-0zM25.436 20.754c-0.034-0.001-0.062-0.025-0.068-0.056l-0-0c-0.011-0.047-0.023-0.093-0.038-0.137-0.003-0.007-0.004-0.016-0.004-0.025 0-0.032 0.019-0.059 0.047-0.071l0-0c0.007-0.002 0.015-0.004 0.023-0.004 0.031 0 0.058 0.021 0.066 0.050l0 0c0.016 0.049 0.029 0.099 0.041 0.149 0.002 0.006 0.002 0.012 0.002 0.019 0 0.034-0.022 0.063-0.053 0.072l-0.001 0c-0.005 0.001-0.011 0.002-0.017 0.002-0 0-0 0-0.001 0h0zM22.931 20.616c-0.008-0-0.016-0.002-0.023-0.004l0 0c-0.028-0.012-0.048-0.039-0.048-0.071 0-0.009 0.001-0.017 0.004-0.025l-0 0.001c0.015-0.049 0.033-0.098 0.052-0.146 0.010-0.027 0.035-0.045 0.064-0.045 0.010 0 0.020 0.002 0.029 0.006l-0-0c0.025 0.013 0.042 0.039 0.042 0.069 0 0.011-0.002 0.021-0.006 0.031l0-0c-0.018 0.044-0.034 0.089-0.048 0.134-0.009 0.029-0.035 0.051-0.066 0.051h-0zM25.211 20.21c-0.025-0-0.046-0.013-0.058-0.033l-0-0c-0.025-0.039-0.051-0.078-0.079-0.114-0.010-0.013-0.016-0.030-0.016-0.048 0-0.023 0.010-0.044 0.026-0.058l0-0c0.012-0.011 0.028-0.017 0.045-0.017 0.022 0 0.042 0.011 0.054 0.027l0 0c0.031 0.040 0.060 0.082 0.087 0.125 0.008 0.012 0.012 0.026 0.012 0.042 0 0.025-0.012 0.048-0.031 0.063l-0 0c-0.011 0.008-0.024 0.013-0.039 0.013v0zM23.197 20.095c-0.017-0-0.033-0.007-0.044-0.017l0 0c-0.016-0.015-0.026-0.035-0.026-0.059 0-0.018 0.006-0.035 0.016-0.048l-0 0c0.031-0.041 0.064-0.080 0.098-0.116 0.012-0.014 0.030-0.022 0.050-0.022s0.037 0.009 0.050 0.022l0 0c0.013 0.014 0.021 0.033 0.021 0.053s-0.008 0.039-0.021 0.053l0-0c-0.031 0.033-0.060 0.069-0.089 0.106-0.012 0.017-0.032 0.028-0.054 0.028h-0zM24.818 19.79c-0.014 0-0.028-0.005-0.038-0.012l0 0c-0.032-0.023-0.069-0.046-0.108-0.067l-0.006-0.003c-0.023-0.014-0.039-0.039-0.039-0.068 0-0.012 0.003-0.024 0.008-0.034l-0 0c0.011-0.024 0.035-0.041 0.063-0.041 0.012 0 0.023 0.003 0.032 0.008l-0-0c0.050 0.027 0.091 0.053 0.131 0.081l-0.004-0.003c0.020 0.015 0.032 0.038 0.032 0.064 0 0.015-0.004 0.029-0.012 0.041l0-0c-0.012 0.020-0.034 0.034-0.059 0.034h-0zM23.626 19.719c-0.028-0-0.052-0.017-0.062-0.041l-0-0c-0.005-0.010-0.008-0.022-0.008-0.034 0-0.029 0.015-0.054 0.038-0.067l0-0c0.036-0.020 0.081-0.042 0.127-0.061l0.008-0.003c0.007-0.003 0.016-0.005 0.024-0.005 0.031 0 0.057 0.020 0.066 0.048l0 0c0.003 0.008 0.005 0.017 0.005 0.026 0 0.031-0.019 0.058-0.045 0.070l-0 0c-0.048 0.019-0.087 0.038-0.126 0.060l0.006-0.003c-0.009 0.005-0.020 0.008-0.032 0.008v0zM24.3 19.587c-0.001 0-0.003 0-0.004 0s-0.003-0-0.004-0h0c-0.038-0.005-0.083-0.008-0.128-0.008-0 0-0 0-0 0h0c-0.040-0.001-0.072-0.034-0.072-0.074 0-0 0-0.001 0-0.001v0c-0-0.001-0-0.002-0-0.004 0-0.039 0.030-0.070 0.069-0.072h0.003c0.051 0 0.101 0.003 0.15 0.010l-0.006-0.001c0.036 0.006 0.062 0.037 0.062 0.073 0 0.004-0 0.007-0.001 0.011l0-0c-0.003 0.037-0.033 0.066-0.070 0.067h-0z"></path>
<path fill="#dca815" d="M22.444 21.203h-0.421c0.001 0.051 0.004 0.101 0.008 0.151h0.422q-0.006-0.075-0.009-0.151z"></path>
<path fill="#dca815" d="M22.46 20.826h-0.421c-0.006 0.050-0.010 0.1-0.013 0.151h0.421c0.003-0.051 0.007-0.101 0.013-0.151z"></path>
<path fill="#dca815" d="M22.483 21.581h-0.421q0.014 0.077 0.032 0.151h0.421q-0.018-0.074-0.032-0.151z"></path>
<path fill="#dca815" d="M22.581 21.959h-0.422c0.018 0.051 0.038 0.102 0.059 0.151h0.421q-0.032-0.074-0.058-0.151z"></path>
<path fill="#dca815" d="M22.534 20.448h-0.421c-0.014 0.050-0.026 0.1-0.037 0.151h0.422c0.011-0.051 0.023-0.102 0.036-0.151z"></path>
<path fill="#dca815" d="M22.673 20.071h-0.421c-0.023 0.049-0.045 0.099-0.065 0.151h0.421q0.030-0.077 0.065-0.151z"></path>
<path fill="#dca815" d="M22.96 19.618h-0.421q-0.060 0.072-0.114 0.151h0.421q0.054-0.079 0.114-0.151z"></path>
<path fill="#dca815" d="M23.389 19.24h-0.422c-0.078 0.049-0.145 0.099-0.208 0.153l0.002-0.002h0.422c0.061-0.052 0.128-0.102 0.199-0.147l0.007-0.004z"></path>
<path fill="#dca815" d="M22.797 22.412h-0.421q0.049 0.078 0.103 0.151h0.422q-0.055-0.073-0.104-0.151z"></path>
<path fill="#dca815" d="M22.678 22.789c0.054 0.053 0.112 0.102 0.173 0.148l0.005 0.003h0.422c-0.066-0.049-0.124-0.098-0.179-0.151l0 0z"></path>
<path fill="#4b9587" d="M6.892 20.965l-0.572-3.071c-0.015-0.086-0.089-0.151-0.179-0.151-0.007 0-0.014 0-0.021 0.001l0.001-0-5.319 1.161c-0.081 0.026-0.139 0.1-0.139 0.188 0 0.011 0.001 0.021 0.002 0.031l-0-0.001 0.572 3.071c0.015 0.086 0.089 0.151 0.179 0.151 0.007 0 0.014-0 0.021-0.001l-0.001 0c0.081-0.026 0.139-0.1 0.139-0.188 0-0.011-0.001-0.021-0.002-0.031l0 0.001-0.535-2.894 4.983-1.092 0.535 2.894c0.015 0.086 0.089 0.151 0.179 0.151 0.007 0 0.014-0 0.021-0.001l-0.001 0c0.081-0.029 0.138-0.105 0.138-0.195 0-0.008-0-0.017-0.001-0.025l0 0.001z"></path>
<path fill="#53a697" d="M7.948 16.407c-0.005-0.092-0.081-0.164-0.173-0.164-0.005 0-0.009 0-0.013 0.001l0.001-0-5.394 0.573c-0.086 0.015-0.151 0.090-0.151 0.179 0 0.009 0.001 0.018 0.002 0.027l-0-0.001 0.286 3.125c0.005 0.092 0.081 0.164 0.173 0.164 0.005 0 0.009-0 0.014-0.001l-0.001 0c0.086-0.015 0.151-0.090 0.151-0.179 0-0.009-0.001-0.018-0.002-0.027l0 0.001-0.261-2.934 5.058-0.532 0.261 2.934c0.005 0.092 0.081 0.164 0.173 0.164 0.005 0 0.009-0 0.014-0.001l-0.001 0c0.086-0.015 0.151-0.090 0.151-0.179 0-0.009-0.001-0.018-0.002-0.027l0 0.001s-0.285-3.126-0.285-3.126z"></path>
<path fill="#81cec0" d="M4.841 22.030c0 1.515 1.118 2.73 2.486 2.73s2.486-1.228 2.486-2.73c0-1.377-0.941-2.524-2.16-2.706-0.096-0.015-0.208-0.023-0.321-0.023-0.002 0-0.003 0-0.005 0h0c-1.367-0-2.485 1.228-2.485 2.729zM5.997 21.962h0.186c0.019-0.294 0.171-0.549 0.395-0.708l0.003-0.002c0.025-0.015 0.055-0.024 0.086-0.027l0.001-0c0.096 0 0.174 0.079 0.174 0.175 0 0.001 0 0.002-0 0.002v-0c0 0.003 0 0.006 0 0.009 0 0.058-0.029 0.11-0.074 0.141l-0.001 0c-0.15 0.146-0.244 0.348-0.249 0.572v0.001c0 0.314 0.099 0.464 0.298 0.464 0.485 0 0.261-1.269 1.056-1.269 0.298 0 0.547 0.191 0.597 0.642h0.186c0.090 0 0.164 0.073 0.164 0.164s-0.073 0.164-0.164 0.164h-0.186c-0.037 0.273-0.137 0.505-0.298 0.628-0.026 0.026-0.062 0.041-0.101 0.041-0.004 0-0.008-0-0.012-0l0.001 0c-0.097-0.002-0.175-0.081-0.175-0.179 0-0.004 0-0.009 0-0.013l-0 0.001c0.004-0.060 0.032-0.113 0.074-0.15l0-0c0.108-0.128 0.174-0.295 0.174-0.477 0-0.005-0-0.010-0-0.015v0.001c0-0.287-0.124-0.396-0.261-0.396-0.435 0-0.236 1.269-1.056 1.269-0.36 0-0.596-0.246-0.646-0.71h-0.186c-0 0-0 0-0.001 0-0.089 0-0.161-0.072-0.161-0.161 0-0.001 0-0.002 0-0.003v0c0.009-0.090 0.082-0.16 0.173-0.163h0zM10.123 26.124c-0.104 0.008-0.186 0.095-0.186 0.201 0 0.001 0 0.003 0 0.004v-0 2.115h-5.22v-2.115c0.001-0.005 0.001-0.011 0.001-0.017 0-0.103-0.084-0.187-0.187-0.187s-0.187 0.084-0.187 0.187c0 0.006 0 0.012 0.001 0.018l-0-0.001v2.32c-0 0.001-0 0.003-0 0.004 0 0.106 0.082 0.192 0.185 0.201l0.001 0h5.592c0.104-0.008 0.186-0.095 0.186-0.201 0-0.001-0-0.003-0-0.004v0-2.32c0-0.001 0-0.003 0-0.004 0-0.106-0.081-0.192-0.185-0.201l-0.001-0zM10.123 15.206h-5.592c-0.104 0.008-0.186 0.095-0.186 0.201 0 0.001 0 0.003 0 0.004v-0 2.32c-0.001 0.005-0.001 0.011-0.001 0.017 0 0.103 0.084 0.187 0.187 0.187s0.187-0.084 0.187-0.187c0-0.006-0-0.012-0.001-0.018l0 0.001v-2.115h5.22v2.115c-0.001 0.005-0.001 0.011-0.001 0.017 0 0.103 0.084 0.187 0.187 0.187s0.187-0.084 0.187-0.187c0-0.006-0-0.012-0.001-0.018l0 0.001v-2.32c0-0.001 0-0.003 0-0.004 0-0.106-0.082-0.193-0.186-0.201l-0.001-0zM6.955 26.67c0.018 0.191 0.178 0.339 0.373 0.339 0.207 0 0.374-0.168 0.374-0.374s-0.168-0.374-0.374-0.374v0c-0.208 0.011-0.373 0.183-0.373 0.393 0 0.006 0 0.011 0 0.017l-0-0.001zM7.7 17.39c0.001-0.010 0.002-0.023 0.002-0.035 0-0.207-0.168-0.374-0.374-0.374s-0.374 0.168-0.374 0.374c0 0.012 0.001 0.024 0.002 0.036l-0-0.002c-0.001 0.010-0.002 0.023-0.002 0.035 0 0.207 0.168 0.374 0.374 0.374s0.374-0.168 0.374-0.374c0-0.012-0.001-0.024-0.002-0.036l0 0.002z"></path>
<path fill="#2b8272" d="M0.268 18.386l6.288-1.365c0.018-0.003 0.038-0.005 0.059-0.005 0.171 0 0.313 0.126 0.338 0.29l0 0.002 2.461 12.884c0.005 0.023 0.008 0.050 0.008 0.078 0 0.169-0.112 0.312-0.266 0.359l-0.003 0.001-6.301 1.365c-0.018 0.003-0.038 0.005-0.059 0.005-0.171 0-0.313-0.126-0.338-0.29l-0-0.002-2.448-12.883c-0.006-0.026-0.010-0.055-0.010-0.085 0-0.168 0.114-0.309 0.268-0.351l0.003-0.001z"></path>
<path fill="#359685" d="M1.871 16.243l6.388-0.682c0.006-0 0.013-0.001 0.020-0.001 0.186 0 0.339 0.144 0.353 0.327l0 0.001 1.529 13.757c0.002 0.015 0.004 0.032 0.004 0.049 0 0.176-0.13 0.322-0.3 0.346l-0.002 0-6.388 0.682c-0.006 0-0.013 0.001-0.020 0.001-0.186 0-0.339-0.144-0.353-0.327l-0-0.001-1.529-13.757c-0.001-0.010-0.002-0.022-0.002-0.034 0-0.179 0.128-0.328 0.297-0.361l0.002-0z"></path>
<path fill="#3db39e" d="M4.071 14.524h6.524c0.194 0.009 0.348 0.169 0.348 0.365 0 0.006-0 0.012-0 0.018l0-0.001v14.262c0 0.005 0 0.011 0 0.017 0 0.196-0.154 0.356-0.347 0.365l-0.001 0h-6.524c-0.194-0.009-0.348-0.169-0.348-0.365 0-0.006 0-0.012 0-0.018l-0 0.001v-14.262c-0.001-0.007-0.001-0.016-0.001-0.025 0-0.194 0.155-0.353 0.348-0.358h0z"></path>
<path fill="#81cec0" d="M7.352 19.306c1.377 0 2.493 1.226 2.493 2.738 0 1.255-0.769 2.313-1.827 2.639-0.198 0.063-0.426 0.099-0.662 0.099-0.001 0-0.002 0-0.004 0h0c-1.377 0-2.493-1.226-2.493-2.738s1.116-2.738 2.493-2.738z"></path>
<path fill="#3db39e" d="M8.033 23.005v-0.359c0.060-0.019 0.111-0.041 0.16-0.069l-0.004 0.002v0.426c-0 0.003-0 0.007-0 0.010 0 0.128 0.101 0.233 0.228 0.24l0.001 0c0.127-0.007 0.228-0.111 0.228-0.24 0-0.004-0-0.007-0-0.011l0 0.001v-1.631c0-0.003 0-0.007 0-0.010 0-0.128-0.101-0.233-0.228-0.24l-0.001-0c-0.127 0.007-0.228 0.111-0.228 0.24 0 0.004 0 0.007 0 0.011l-0-0v0.384c0 0.001 0 0.002 0 0.002 0 0.134-0.060 0.255-0.155 0.335l-0.001 0.001v-0.723c0-0.003 0-0.007 0-0.010 0-0.128-0.101-0.233-0.228-0.24l-0.001-0c-0.127 0.007-0.228 0.111-0.228 0.24 0 0.004 0 0.007 0 0.011l-0-0v0.723c-0.096-0.081-0.156-0.202-0.156-0.336 0-0.001 0-0.002 0-0.003v0-0.384c0-0.003 0-0.007 0-0.011 0-0.128-0.1-0.232-0.226-0.239l-0.001-0c-0.066 0.001-0.126 0.031-0.165 0.079l-0 0-1.085 1.079c-0.046 0.048-0.075 0.114-0.075 0.186 0 0.064 0.022 0.122 0.059 0.168l-0-0.001c0.038 0.047 0.094 0.078 0.157 0.082l0.001 0c0.003 0 0.007 0 0.011 0 0.060 0 0.115-0.025 0.154-0.065l0-0 0.731-0.727c0.044 0.269 0.198 0.495 0.414 0.635l0.004 0.002c0.006 0.004 0.014 0.006 0.022 0.006 0.017 0 0.032-0.010 0.039-0.025l0-0c0.004-0.007 0.006-0.015 0.006-0.024 0-0.018-0.009-0.034-0.023-0.043l-0-0c-0.219-0.142-0.367-0.379-0.383-0.652l-0-0.002c-0.001-0.019-0.012-0.034-0.028-0.042l-0-0c-0.005-0.002-0.011-0.003-0.016-0.003-0.012 0-0.022 0.005-0.030 0.013v0l-0.794 0.79c-0.024 0.024-0.056 0.039-0.093 0.039-0.002 0-0.005-0-0.007-0h0c-0.039-0.003-0.073-0.021-0.095-0.049l-0-0c-0.022-0.028-0.036-0.063-0.036-0.102 0-0.044 0.017-0.083 0.045-0.113l-0 0 1.089-1.083c0.024-0.030 0.060-0.049 0.101-0.049h0c0.076 0.004 0.137 0.067 0.137 0.145 0 0.002-0 0.005-0 0.007v-0 0.385c-0 0.002-0 0.005-0 0.007 0 0.198 0.108 0.371 0.269 0.462l0.003 0.001c0.006 0.003 0.012 0.005 0.019 0.005 0.009 0 0.017-0.003 0.024-0.008l-0 0c0.013-0.009 0.021-0.024 0.021-0.041 0-0 0-0 0-0.001v0-0.81c-0-0.002-0-0.004-0-0.006 0-0.078 0.061-0.142 0.138-0.145h0c0.077 0.004 0.138 0.067 0.138 0.145 0 0.002-0 0.004-0 0.006v-0 0.81c0 0 0 0 0 0.001 0 0.017 0.008 0.032 0.021 0.041l0 0c0.007 0.005 0.015 0.008 0.024 0.008 0.007 0 0.014-0.002 0.020-0.005l-0 0c0.163-0.093 0.272-0.265 0.272-0.463 0-0.002-0-0.005-0-0.007v0-0.384c-0-0.002-0-0.004-0-0.006 0-0.078 0.061-0.141 0.138-0.145h0c0.077 0.004 0.138 0.067 0.138 0.145 0 0.002-0 0.004-0 0.007v-0 1.631c0 0.002 0 0.004 0 0.006 0 0.078-0.061 0.141-0.138 0.145h-0c-0.077-0.004-0.138-0.067-0.138-0.145 0-0.002 0-0.004 0-0.006v0-0.512c0-0 0-0.001 0-0.001 0-0.018-0.009-0.033-0.023-0.042l-0-0c-0.006-0.004-0.014-0.006-0.021-0.006-0.009 0-0.018 0.003-0.025 0.008l0-0c-0.066 0.048-0.143 0.085-0.227 0.107l-0.005 0.001c-0.020 0.006-0.035 0.025-0.035 0.047 0 0 0 0.001 0 0.002v-0 0.397c0 0.002 0 0.004 0 0.006 0 0.078-0.061 0.141-0.138 0.145h-0c-0.077-0.004-0.138-0.067-0.138-0.145 0-0.002 0-0.004 0-0.006v0-0.399c0-0.001 0-0.003 0-0.005 0-0.025-0.020-0.045-0.045-0.045s-0.045 0.020-0.045 0.045c0 0.002 0 0.003 0 0.005l-0-0v0.399c-0 0.003-0 0.007-0 0.010 0 0.128 0.101 0.233 0.228 0.24l0.001 0c0.127-0.007 0.228-0.112 0.228-0.24 0-0.004-0-0.007-0-0.011l0 0.001z"></path>
<path fill="#434c6d" d="M30.996 18.26l-3.439 5.817-0.784-0.56 3.439-5.817z"></path>
<path fill="#7383bf" d="M26.616 24.018l0.255-0.43 0.592 0.422-0.255 0.431z"></path>
<path fill="#7383bf" d="M30.593 17.054l0.784 0.56-0.382 0.646-0.784-0.56z"></path>
<path fill="#434c6d" d="M26.615 24.019l0.588 0.42-0.254 0.431-0.588-0.42z"></path>
<path fill="#7383bf" d="M26.899 22.428c0.001-0 0.001-0 0.002-0 0.031-0.007 0.062 0.001 0.086 0.018l0 0 0.294 0.21c0.025 0.019 0.043 0.047 0.050 0.080 0.007 0.035 0.001 0.069-0.016 0.098l0-0c-0.015 0.028-0.041 0.049-0.075 0.056-0.031 0.007-0.063-0.001-0.087-0.018l-0-0-0.294-0.21c-0.025-0.019-0.044-0.047-0.051-0.080-0.007-0.035-0.001-0.069 0.016-0.098l-0 0c0.015-0.027 0.041-0.048 0.074-0.056l0-0z"></path>
<path fill="#7383bf" d="M31.598 16.131c0.001-0 0.001-0 0.002-0 0.031-0.007 0.062 0.001 0.086 0.018l0 0c0.025 0.019 0.044 0.047 0.051 0.080 0.007 0.035 0.001 0.069-0.016 0.098l0-0-0.127 0.215c-0.015 0.028-0.041 0.049-0.075 0.056-0.032 0.007-0.063-0.001-0.087-0.018l-0-0c-0.025-0.019-0.044-0.047-0.051-0.080-0.007-0.035-0.001-0.069 0.016-0.098l-0 0 0.127-0.215c0.015-0.027 0.041-0.048 0.073-0.056l0-0z"></path>
<path fill="#7383bf" d="M28.094 19.866l0.294 0.21-1.783 3.016-0.294-0.21z"></path>
<path fill="#434c6d" d="M31.28 17.544v0l-0.588-0.42c0.087-0.294 0.317-0.53 0.626-0.61l0.002-0 0.176-0.041 0.037 0.193c0.066 0.327-0.037 0.65-0.25 0.876l-0.003 0.003z"></path>
<path fill="#7383bf" d="M30.094 18.842l0.392 0.28-2.42 4.094-0.392-0.28z"></path>
<path fill="#424c59" d="M34.76 3.13c0.023-0.069 0.036-0.149 0.036-0.232 0-0.322-0.198-0.598-0.479-0.712l-0.005-0.002-6.185-2.148c-0.061-0.020-0.131-0.031-0.203-0.031-0.319 0-0.587 0.221-0.657 0.519l-0.001 0.005-0.65 2.259 7.491 2.606z"></path>
<path fill="#576271" d="M26.616 2.783l-2.158 7.485c-0.023 0.069-0.036 0.149-0.036 0.232 0 0.322 0.198 0.598 0.479 0.712l0.005 0.002 6.185 2.149c0.061 0.020 0.131 0.031 0.203 0.031 0.319 0 0.587-0.221 0.657-0.519l0.001-0.005 2.158-7.485z"></path>
<path fill="#73c1dd" d="M32.898 4.35l-4.746-1.649c-0.148-0.062-0.251-0.206-0.251-0.374 0-0.042 0.006-0.082 0.018-0.12l-0.001 0.003 0.224-0.78c0.039-0.157 0.179-0.272 0.346-0.272 0.037 0 0.072 0.006 0.105 0.016l-0.003-0.001 4.746 1.649c0.148 0.062 0.251 0.206 0.251 0.374 0 0.042-0.006 0.082-0.018 0.12l0.001-0.003-0.224 0.78c-0.037 0.157-0.177 0.273-0.343 0.273-0.038 0-0.074-0.006-0.108-0.017l0.002 0.001z"></path>
<path fill="#6d7a8a" d="M27.944 5.070l-0.543-0.191c-0.099-0.040-0.168-0.136-0.168-0.247 0-0.029 0.005-0.057 0.013-0.084l-0.001 0.002 0.174-0.596c0.025-0.105 0.117-0.181 0.228-0.181 0.026 0 0.050 0.004 0.074 0.012l-0.002-0 0.543 0.191c0.099 0.040 0.167 0.136 0.167 0.247 0 0.029-0.005 0.057-0.013 0.084l0.001-0.002-0.174 0.596c-0.025 0.105-0.117 0.181-0.228 0.181-0.026 0-0.050-0.004-0.074-0.012l0.002 0z"></path>
<path fill="#6d7a8a" d="M29.418 5.583l-0.543-0.191c-0.099-0.040-0.167-0.136-0.167-0.247 0-0.029 0.005-0.057 0.013-0.084l-0.001 0.002 0.174-0.596c0.025-0.104 0.117-0.181 0.228-0.181 0.026 0 0.050 0.004 0.074 0.012l-0.002-0 0.543 0.191c0.099 0.040 0.167 0.136 0.167 0.247 0 0.029-0.005 0.057-0.013 0.084l0.001-0.002-0.174 0.596c-0.024 0.105-0.116 0.182-0.227 0.182-0.026 0-0.051-0.004-0.075-0.012l0.002 0z"></path>
<path fill="#6d7a8a" d="M30.894 6.096l-0.543-0.191c-0.099-0.040-0.167-0.136-0.167-0.247 0-0.029 0.005-0.057 0.013-0.084l-0.001 0.002 0.174-0.596c0.025-0.105 0.117-0.181 0.228-0.181 0.026 0 0.050 0.004 0.074 0.012l-0.002-0 0.543 0.191c0.099 0.040 0.167 0.136 0.167 0.247 0 0.029-0.005 0.057-0.013 0.084l0.001-0.002-0.174 0.596c-0.025 0.105-0.117 0.181-0.228 0.181-0.026 0-0.050-0.004-0.074-0.012l0.002 0z"></path>
<path fill="#1277bd" d="M32.368 6.609l-0.543-0.191c-0.099-0.040-0.168-0.136-0.168-0.247 0-0.029 0.005-0.057 0.013-0.084l-0.001 0.002 0.174-0.596c0.025-0.105 0.117-0.181 0.228-0.181 0.026 0 0.050 0.004 0.074 0.012l-0.002-0 0.543 0.191c0.099 0.040 0.167 0.136 0.167 0.247 0 0.029-0.005 0.057-0.013 0.084l0.001-0.002-0.173 0.596c-0.024 0.105-0.116 0.181-0.227 0.181-0.026 0-0.051-0.004-0.074-0.012l0.002 0z"></path>
<path fill="#6d7a8a" d="M27.398 6.959l-0.543-0.191c-0.099-0.040-0.167-0.136-0.167-0.247 0-0.029 0.005-0.057 0.013-0.084l-0.001 0.002 0.174-0.596c0.025-0.104 0.117-0.181 0.228-0.181 0.026 0 0.050 0.004 0.074 0.012l-0.002-0 0.543 0.191c0.099 0.040 0.167 0.136 0.167 0.247 0 0.029-0.005 0.057-0.013 0.084l0.001-0.002-0.174 0.596c-0.024 0.105-0.116 0.182-0.227 0.182-0.026 0-0.051-0.004-0.075-0.012l0.002 0z"></path>
<path fill="#6d7a8a" d="M28.875 7.472l-0.543-0.191c-0.099-0.040-0.168-0.136-0.168-0.247 0-0.029 0.005-0.057 0.013-0.084l-0.001 0.002 0.174-0.596c0.025-0.105 0.117-0.181 0.228-0.181 0.026 0 0.050 0.004 0.074 0.012l-0.002-0 0.543 0.191c0.099 0.040 0.168 0.136 0.168 0.247 0 0.029-0.005 0.057-0.013 0.084l0.001-0.002-0.174 0.596c-0.025 0.105-0.117 0.181-0.228 0.181-0.026 0-0.050-0.004-0.074-0.012l0.002 0z"></path>
<path fill="#6d7a8a" d="M30.349 7.985l-0.543-0.191c-0.099-0.040-0.167-0.136-0.167-0.247 0-0.029 0.005-0.057 0.013-0.084l-0.001 0.002 0.174-0.596c0.025-0.105 0.117-0.181 0.228-0.181 0.026 0 0.050 0.004 0.074 0.012l-0.002-0 0.543 0.191c0.099 0.040 0.167 0.136 0.167 0.247 0 0.029-0.005 0.057-0.013 0.084l0.001-0.002-0.174 0.596c-0.024 0.105-0.116 0.182-0.227 0.182-0.026 0-0.051-0.004-0.075-0.012l0.002 0z"></path>
<path fill="#f6ab35" d="M31.825 8.497l-0.543-0.191c-0.099-0.040-0.168-0.136-0.168-0.247 0-0.029 0.005-0.057 0.013-0.084l-0.001 0.002 0.174-0.596c0.025-0.105 0.117-0.181 0.228-0.181 0.026 0 0.050 0.004 0.074 0.012l-0.002-0 0.543 0.191c0.099 0.040 0.168 0.136 0.168 0.247 0 0.029-0.005 0.057-0.013 0.084l0.001-0.002-0.173 0.596c-0.025 0.105-0.117 0.181-0.228 0.181-0.026 0-0.050-0.004-0.074-0.012l0.002 0z"></path>
<path fill="#6d7a8a" d="M26.856 8.847l-0.543-0.191c-0.099-0.040-0.167-0.136-0.167-0.247 0-0.029 0.005-0.057 0.013-0.084l-0.001 0.002 0.174-0.596c0.025-0.105 0.117-0.181 0.228-0.181 0.026 0 0.050 0.004 0.074 0.012l-0.002-0 0.543 0.191c0.099 0.040 0.167 0.136 0.167 0.247 0 0.029-0.005 0.057-0.013 0.084l0.001-0.002-0.174 0.596c-0.025 0.105-0.117 0.181-0.228 0.181-0.026 0-0.050-0.004-0.074-0.012l0.002 0z"></path>
<path fill="#6d7a8a" d="M28.329 9.36l-0.543-0.191c-0.099-0.040-0.168-0.136-0.168-0.247 0-0.029 0.005-0.057 0.013-0.084l-0.001 0.002 0.174-0.596c0.025-0.105 0.117-0.181 0.228-0.181 0.026 0 0.051 0.004 0.074 0.012l-0.002-0 0.543 0.191c0.099 0.040 0.168 0.136 0.168 0.247 0 0.029-0.005 0.057-0.013 0.084l0.001-0.002-0.174 0.596c-0.024 0.105-0.116 0.182-0.227 0.182-0.026 0-0.051-0.004-0.075-0.012l0.002 0z"></path>
<path fill="#6d7a8a" d="M29.806 9.873l-0.543-0.191c-0.099-0.040-0.167-0.136-0.167-0.247 0-0.029 0.005-0.057 0.013-0.084l-0.001 0.002 0.174-0.596c0.025-0.105 0.117-0.181 0.228-0.181 0.026 0 0.050 0.004 0.074 0.012l-0.002-0 0.543 0.191c0.099 0.040 0.168 0.136 0.168 0.247 0 0.029-0.005 0.057-0.013 0.084l0.001-0.002-0.174 0.596c-0.025 0.105-0.117 0.181-0.228 0.181-0.026 0-0.051-0.004-0.074-0.012l0.002 0z"></path>
<path fill="#d73d2b" d="M30.699 12.399l-0.543-0.191c-0.099-0.040-0.168-0.136-0.168-0.247 0-0.029 0.005-0.057 0.013-0.084l-0.001 0.002 0.751-2.609c0.025-0.105 0.117-0.181 0.228-0.181 0.026 0 0.051 0.004 0.074 0.012l-0.002-0 0.543 0.191c0.099 0.040 0.168 0.136 0.168 0.247 0 0.029-0.005 0.057-0.013 0.084l0.001-0.002-0.751 2.609c-0.024 0.105-0.116 0.181-0.227 0.181-0.026 0-0.051-0.004-0.075-0.012l0.002 0z"></path>
<path fill="#6d7a8a" d="M26.31 10.736l-0.543-0.191c-0.099-0.040-0.167-0.136-0.167-0.247 0-0.029 0.005-0.057 0.013-0.084l-0.001 0.002 0.174-0.596c0.025-0.105 0.117-0.181 0.228-0.181 0.026 0 0.050 0.004 0.074 0.012l-0.002-0 0.543 0.191c0.099 0.040 0.167 0.136 0.167 0.247 0 0.029-0.005 0.057-0.013 0.084l0.001-0.002-0.174 0.596c-0.025 0.104-0.118 0.181-0.229 0.181-0.025 0-0.050-0.004-0.073-0.011l0.002 0z"></path>
<path fill="#6d7a8a" d="M27.786 11.249l-0.543-0.191c-0.099-0.040-0.168-0.136-0.168-0.247 0-0.029 0.005-0.057 0.013-0.084l-0.001 0.002 0.174-0.596c0.025-0.105 0.117-0.181 0.228-0.181 0.026 0 0.050 0.004 0.074 0.012l-0.002-0 0.543 0.191c0.099 0.040 0.167 0.136 0.167 0.247 0 0.029-0.005 0.057-0.013 0.084l0.001-0.002-0.174 0.596c-0.026 0.104-0.119 0.18-0.229 0.18-0.025 0-0.049-0.004-0.072-0.011l0.002 0z"></path>
<path fill="#6d7a8a" d="M29.26 11.762l-0.543-0.191c-0.099-0.040-0.167-0.136-0.167-0.247 0-0.029 0.005-0.057 0.013-0.084l-0.001 0.002 0.174-0.596c0.025-0.104 0.117-0.181 0.228-0.181 0.026 0 0.050 0.004 0.074 0.012l-0.002-0 0.543 0.191c0.099 0.040 0.167 0.136 0.167 0.247 0 0.029-0.005 0.057-0.013 0.084l0.001-0.002-0.174 0.596c-0.025 0.104-0.118 0.181-0.229 0.181-0.025 0-0.050-0.004-0.073-0.011l0.002 0z"></path>
<path fill="#fff" d="M32.554 18.602v6.393l0.281-0.447 0.278 0.447 0.281-0.447 0.281 0.447 0.278-0.447 0.281 0.447 0.278-0.447 0.281 0.447 0.278-0.447 0.281 0.447 0.278-0.447 0.281 0.447 0.281-0.447 0.278 0.447 0.281-0.447 0.278 0.447v-6.393z"></path>
<path fill="#424c59" d="M32.785 18.952h4.051v1.549h-4.051v-1.549z"></path>
<path fill="#fff" d="M34.239 19.614c0.044 0.035 0.079 0.079 0.104 0.129l0.001 0.002c0.024 0.048 0.038 0.105 0.038 0.164 0 0.001 0 0.001 0 0.002v-0c0 0.002 0 0.004 0 0.006 0 0.052-0.012 0.101-0.032 0.145l0.001-0.002c-0.021 0.047-0.050 0.087-0.085 0.121l-0 0c-0.036 0.034-0.077 0.062-0.123 0.082l-0.003 0.001c-0.044 0.020-0.095 0.031-0.149 0.031-0.001 0-0.001 0-0.002 0h-0.304v-1.137h0.275c0.002-0 0.004-0 0.006-0 0.042 0 0.082 0.009 0.118 0.025l-0.002-0.001c0.039 0.017 0.072 0.039 0.101 0.066l-0-0c0.027 0.028 0.050 0.060 0.069 0.095l0.001 0.002c0.016 0.036 0.025 0.077 0.025 0.121v0c0 0.002 0 0.004 0 0.006 0 0.052-0.014 0.1-0.039 0.141l0.001-0.001zM33.924 19.42v0.104h0.038c0.021 0 0.041-0.006 0.057-0.018l-0 0c0.012-0.007 0.021-0.020 0.022-0.035v-0c0-0.010-0.006-0.021-0.022-0.035-0.014-0.011-0.031-0.018-0.050-0.018-0.002 0-0.005 0-0.007 0l0-0zM33.987 20.033c0.001 0 0.001 0 0.002 0 0.021 0 0.041-0.004 0.059-0.011l-0.001 0c0.019-0.008 0.036-0.017 0.051-0.028l-0.001 0c0.014-0.010 0.026-0.023 0.035-0.038l0-0.001c0.008-0.013 0.013-0.028 0.013-0.045 0-0.001-0-0.003-0-0.004v0c0-0 0-0.001 0-0.002 0-0.017-0.005-0.033-0.013-0.047l0 0c-0.010-0.016-0.022-0.029-0.035-0.041l-0-0c-0.015-0.011-0.031-0.020-0.049-0.027l-0.002-0.001c-0.017-0.007-0.037-0.010-0.058-0.010-0.001 0-0.001 0-0.002 0h-0.066v0.25h0.066z"></path>
<path fill="#fff" d="M34.706 20.297h-0.237v-1.133h0.237z"></path>
<path fill="#fff" d="M35.457 20.297h-0.612v-1.133h0.237v0.87h0.375z"></path>
<path fill="#fff" d="M36.167 20.297h-0.612v-1.133h0.237v0.87h0.375z"></path>
<path fill="#424c59" d="M32.785 20.962h2.493v0.139h-2.493v-0.139z"></path>
<path fill="#424c59" d="M32.785 21.645h2.493v0.139h-2.493v-0.139z"></path>
<path fill="#424c59" d="M32.785 22.331h2.493v0.139h-2.493v-0.139z"></path>
<path fill="#424c59" d="M32.785 23.013h2.493v0.139h-2.493v-0.139z"></path>
<path fill="#424c59" d="M32.785 23.696h2.493v0.139h-2.493v-0.139z"></path>
<path fill="#424c59" d="M36.962 21.502h-0.357c-0.022-0.201-0.128-0.373-0.28-0.485l-0.002-0.001h0.639c0 0 0 0 0.001 0 0.038 0 0.070-0.031 0.070-0.070 0 0 0 0 0 0v0c0 0 0 0 0 0 0-0.038-0.031-0.070-0.070-0.070-0 0-0 0-0.001 0h-1.488c-0 0-0 0-0.001 0-0.038 0-0.070 0.031-0.070 0.070 0 0 0 0 0 0v0c0 0 0 0 0 0 0 0.038 0.031 0.070 0.070 0.070 0 0 0 0 0.001 0h0.426c0.001 0 0.002 0 0.003 0 0.284 0 0.52 0.21 0.56 0.483l0 0.003h-0.989c-0.002-0-0.004-0-0.006-0-0.038 0-0.070 0.031-0.070 0.070s0.031 0.070 0.070 0.070c0.002 0 0.004-0 0.007-0l-0 0h0.989c-0.038 0.28-0.275 0.493-0.562 0.493-0 0-0.001 0-0.001 0h-0.425c-0.039 0-0.070 0.032-0.070 0.071 0 0.020 0.008 0.038 0.022 0.051l0 0 1.064 0.994c0.013 0.012 0.029 0.019 0.048 0.019 0.039 0 0.070-0.031 0.070-0.070 0-0.020-0.008-0.038-0.022-0.051l-0-0-0.936-0.874h0.249c0.001 0 0.001 0 0.002 0 0.364 0 0.664-0.275 0.703-0.629l0-0.003h0.357c0.002 0 0.004 0 0.006 0 0.038 0 0.070-0.031 0.070-0.070s-0.031-0.070-0.070-0.070c-0.002 0-0.004 0-0.007 0l0-0z"></path>
</svg>
