<!-- Generated by IcoMoon.io -->
<svg version="1.1" xmlns="http://www.w3.org/2000/svg" width="37" height="32" viewBox="0 0 37 32">
<title>legalcompliances</title>
<path fill="#53c7f0" d="M29.222 12.265c-0.27-4.013-4.056-7.222-8.618-7.222-2.771 0-5.453 1.188-7.115 3.125-0.038-0.017-0.079-0.029-0.117-0.045-0.101-0.043-0.204-0.083-0.308-0.12-0.058-0.020-0.116-0.038-0.175-0.056-0.104-0.032-0.209-0.060-0.316-0.085-0.058-0.014-0.117-0.028-0.176-0.040-0.115-0.023-0.232-0.040-0.351-0.056-0.051-0.007-0.102-0.016-0.154-0.021-0.169-0.016-0.341-0.027-0.515-0.027-2.532 0-4.592 1.8-4.592 4.013 0 0.057 0.004 0.112 0.008 0.168v0.002c-2.122 1.011-3.579 3.13-3.579 5.25 0 3.159 2.94 5.729 6.553 5.729h12.504c0.053 0 0.106-0.003 0.159-0.006l0.032-0.004 0.068 0.004c0.052 0.004 0.105 0.006 0.158 0.006h5.001c3.384 0 6.137-2.406 6.137-5.364-0-2.448-1.953-4.643-4.604-5.252zM27.69 21.989h-5.002c-0.030 0-0.059-0.002-0.089-0.004l-0.138-0.005-0.101 0.005c-0.029 0.002-0.058 0.004-0.088 0.004h-12.504c-3.051 0-5.533-2.17-5.533-4.837 0-1.852 1.38-3.775 3.282-4.572l0.289-0.121v-0.281c0-0.057 0.004-0.114 0.008-0.172l0.005-0.071-0.006-0.094c-0.003-0.036-0.006-0.072-0.006-0.109 0-1.721 1.602-3.122 3.571-3.122 0.166 0.001 0.328 0.012 0.488 0.032l-0.020-0.002c0.040 0.004 0.080 0.010 0.119 0.016 0.16 0.023 0.296 0.050 0.43 0.085l-0.027-0.006c0.018 0.004 0.036 0.008 0.054 0.012 0.172 0.047 0.314 0.096 0.451 0.152l-0.025-0.009c0.036 0.014 0.071 0.030 0.107 0.045 0.145 0.062 0.263 0.121 0.377 0.186l-0.019-0.010c0.983 0.557 1.637 1.522 1.637 2.62 0.035 0.253 0.25 0.446 0.51 0.446s0.475-0.193 0.51-0.443l0-0.003c0-1.228-0.636-2.327-1.633-3.064 1.463-1.672 3.871-2.733 6.268-2.733 3.951 0 7.233 2.736 7.575 6.193-0.224-0.016-0.484-0.025-0.747-0.025-0.471 0-0.935 0.029-1.39 0.086l0.054-0.006c-0.241 0.015-0.43 0.214-0.43 0.457 0 0.018 0.001 0.035 0.003 0.053l-0-0.002c0.053 0.219 0.248 0.38 0.48 0.38 0.008 0 0.016-0 0.024-0.001l-0.001 0c0.027 0 0.054-0.002 0.080-0.006l-0.003 0c0.36-0.043 0.777-0.067 1.199-0.067 0.42 0 0.833 0.024 1.24 0.071l-0.050-0.005c2.375 0.395 4.166 2.307 4.166 4.453 0 2.466-2.295 4.472-5.116 4.472z"></path>
<path fill="#5e6161" d="M9.133 31.489h0.173c0.025 0 0.049 0.004 0.072 0.010l-0.002-0c0.020 0.009 0.037 0.020 0.052 0.033l-0-0c0.013 0.013 0.024 0.029 0.032 0.045l0 0.001c0.005 0.017 0.008 0.036 0.009 0.056l0 0c0 0.002 0 0.004 0 0.006 0 0.027-0.007 0.052-0.019 0.075l0-0.001c-0.014 0.023-0.033 0.042-0.056 0.056l-0.001 0 0.103 0.187h-0.117l-0.084-0.169h-0.056v0.169h-0.103v-0.468zM9.302 31.7c0.001 0 0.002 0 0.003 0 0.017 0 0.033-0.007 0.044-0.019l0-0c0.010-0.011 0.017-0.026 0.019-0.042l0-0c0-0.001 0-0.002 0-0.003 0-0.017-0.007-0.033-0.019-0.044l-0-0c-0.012-0.011-0.028-0.018-0.046-0.019h-0.066v0.122h0.066z"></path>
<path fill="#5e6161" d="M9.555 31.489h0.319v0.094h-0.211v0.089h0.164v0.089h-0.164v0.098h0.229v0.094h-0.332v-0.464z"></path>
<path fill="#5e6161" d="M10.271 31.939c-0.015 0.009-0.032 0.015-0.051 0.019l-0.001 0c-0.014 0.003-0.030 0.005-0.047 0.005-0.003 0-0.007-0-0.010-0l0 0c-0.002 0-0.004 0-0.007 0-0.031 0-0.061-0.007-0.088-0.019l0.001 0.001c-0.029-0.012-0.054-0.030-0.075-0.052l-0-0c-0.022-0.022-0.039-0.049-0.051-0.078l-0.001-0.002c-0.012-0.026-0.019-0.057-0.019-0.089 0-0.003 0-0.007 0-0.010l-0 0c-0-0.001-0-0.003-0-0.004 0-0.034 0.007-0.066 0.019-0.096l-0.001 0.002c0.014-0.031 0.031-0.057 0.052-0.080l-0 0c0.021-0.021 0.046-0.038 0.073-0.051l0.002-0.001c0.028-0.012 0.060-0.019 0.094-0.019s0.066 0.007 0.095 0.019l-0.002-0.001c0.029 0.012 0.054 0.030 0.075 0.052l0 0c0.022 0.022 0.039 0.049 0.051 0.078l0.001 0.002c0.012 0.029 0.019 0.063 0.019 0.098s-0.007 0.069-0.019 0.1l0.001-0.002c-0.016 0.030-0.033 0.056-0.052 0.080l0.001-0.001 0.046 0.061-0.056 0.047zM10.154 31.794l0.056-0.047 0.052 0.066c0.009-0.012 0.017-0.026 0.023-0.041l0-0.001c0.005-0.015 0.008-0.033 0.009-0.051l0-0c-0.001-0.020-0.004-0.040-0.010-0.058l0 0.002c-0.005-0.018-0.015-0.034-0.028-0.046l-0-0c-0.012-0.013-0.026-0.024-0.041-0.032l-0.001-0c-0.013-0.006-0.028-0.010-0.044-0.010-0.004 0-0.008 0-0.013 0.001l0.001-0c-0.020 0.001-0.040 0.004-0.058 0.010l0.002-0c-0.016 0.009-0.030 0.020-0.042 0.033l-0 0c-0.009 0.013-0.019 0.028-0.027 0.044l-0.001 0.002c-0.006 0.017-0.009 0.036-0.009 0.056s0.003 0.039 0.010 0.057l-0-0.001c0.005 0.018 0.015 0.034 0.028 0.046l0 0c0.011 0.014 0.025 0.026 0.042 0.033l0.001 0c0.016 0.009 0.034 0.014 0.054 0.014 0.001 0 0.001 0 0.002-0h0.023c0.005 0 0.014-0.005 0.019-0.005z"></path>
<path fill="#5e6161" d="M10.473 31.489h0.108v0.276c-0 0.002-0 0.005-0 0.007 0 0.012 0.002 0.025 0.005 0.036l-0-0.001c0.004 0.013 0.009 0.024 0.015 0.034l-0.001-0.001c0.006 0.010 0.016 0.016 0.028 0.019l0 0c0.012 0.006 0.026 0.009 0.041 0.009 0 0 0.001 0 0.001 0h-0c0.015-0.001 0.030-0.004 0.043-0.010l-0.001 0c0.009-0.005 0.019-0.014 0.028-0.019 0.007-0.009 0.012-0.020 0.014-0.032l0-0c0.003-0.011 0.005-0.023 0.005-0.035 0-0.003-0-0.005-0-0.007v0-0.276h0.108v0.291c0 0.001 0 0.002 0 0.002 0 0.026-0.005 0.051-0.015 0.074l0-0.001c-0.010 0.023-0.023 0.043-0.038 0.061l0-0c-0.017 0.016-0.037 0.029-0.060 0.037l-0.001 0c-0.024 0.009-0.051 0.014-0.080 0.014s-0.056-0.005-0.081-0.015l0.002 0.001c-0.024-0.009-0.044-0.022-0.061-0.038l0 0c-0.016-0.017-0.029-0.037-0.037-0.060l-0-0.001c-0.009-0.021-0.014-0.046-0.014-0.073 0-0.001 0-0.002 0-0.002v0-0.291z"></path>
<path fill="#5e6161" d="M10.951 31.489h0.103v0.464h-0.103z"></path>
<path fill="#5e6161" d="M11.143 31.489h0.173c0.025 0 0.049 0.004 0.072 0.010l-0.002-0c0.020 0.009 0.037 0.020 0.052 0.033l-0-0c0.013 0.013 0.024 0.029 0.032 0.045l0 0.001c0.005 0.017 0.008 0.036 0.009 0.056l0 0c0 0.002 0 0.004 0 0.006 0 0.027-0.007 0.052-0.019 0.075l0-0.001c-0.014 0.023-0.033 0.042-0.056 0.056l-0.001 0 0.103 0.187h-0.117l-0.084-0.169h-0.056v0.169h-0.103v-0.468zM11.312 31.7c0.001 0 0.002 0 0.003 0 0.017 0 0.033-0.007 0.044-0.019l0-0c0.010-0.011 0.017-0.026 0.019-0.042l0-0c0-0.001 0-0.002 0-0.003 0-0.017-0.007-0.033-0.019-0.044l-0-0c-0.012-0.011-0.028-0.018-0.046-0.019h-0.066v0.122h0.066z"></path>
<path fill="#5e6161" d="M11.569 31.489h0.319v0.094h-0.211v0.089h0.164v0.089h-0.164v0.098h0.229v0.094h-0.332v-0.464z"></path>
<path fill="#5e6161" d="M11.986 31.489h0.098l0.122 0.221 0.117-0.221h0.103l0.023 0.464h-0.103l-0.014-0.305-0.098 0.183h-0.056l-0.103-0.178-0.014 0.3h-0.098z"></path>
<path fill="#5e6161" d="M12.53 31.489h0.319v0.094h-0.211v0.089h0.164v0.089h-0.164v0.098h0.229v0.094h-0.332v-0.464z"></path>
<path fill="#5e6161" d="M12.933 31.489h0.098l0.201 0.3v-0.3h0.103v0.464h-0.094l-0.206-0.309v0.309h-0.103z"></path>
<path fill="#5e6161" d="M13.552 31.583h-0.15v-0.094h0.408v0.094h-0.15v0.37h-0.108z"></path>
<path fill="#5e6161" d="M13.889 31.813c0.007 0.007 0.014 0.013 0.023 0.018l0 0c0.009 0.005 0.019 0.014 0.028 0.019s0.020 0.010 0.031 0.014l0.002 0c0.009 0.003 0.020 0.005 0.031 0.005 0.002 0 0.004-0 0.007-0h-0c0.001 0 0.002 0 0.004 0 0.007 0 0.014-0.002 0.020-0.005l-0 0c0.009 0 0.014-0.005 0.023-0.009 0.005-0.005 0.014-0.009 0.014-0.014 0.003-0.005 0.005-0.011 0.005-0.018 0-0.002-0-0.004-0-0.005l0 0c0-0 0-0 0-0 0-0.018-0.009-0.033-0.023-0.042l-0-0c-0.023-0.011-0.049-0.021-0.077-0.028l-0.003-0c-0.018-0.004-0.033-0.010-0.047-0.019l0.001 0c-0.014-0.009-0.026-0.018-0.038-0.028l0 0c-0.010-0.010-0.018-0.023-0.023-0.037l-0-0.001c-0.006-0.014-0.009-0.030-0.009-0.046v-0c0.001-0.020 0.004-0.040 0.010-0.058l-0 0.002c0.007-0.019 0.018-0.034 0.033-0.046l0-0c0.028-0.027 0.066-0.043 0.108-0.043 0.007 0 0.013 0 0.020 0.001l-0.001-0c0.022 0 0.043 0.004 0.062 0.010l-0.001-0c0.018 0.004 0.033 0.010 0.047 0.019l-0.001-0c0.009 0.006 0.020 0.013 0.031 0.018l0.002 0.001c0.009 0.005 0.014 0.014 0.019 0.019l-0.061 0.066c-0.005-0.006-0.011-0.010-0.018-0.014l-0-0c-0.007-0.005-0.014-0.010-0.023-0.014l-0.001-0c-0.008-0.005-0.018-0.008-0.028-0.009l-0-0c-0.008-0.003-0.017-0.005-0.026-0.005-0.002 0-0.005 0-0.007 0l0-0c-0.001-0-0.002-0-0.004-0-0.007 0-0.014 0.002-0.020 0.005l0-0c-0.008 0-0.014 0.004-0.019 0.009l-0 0-0.014 0.014c-0.005 0.005-0.005 0.009-0.005 0.019 0.001 0.016 0.010 0.030 0.023 0.037l0 0c0.020 0.011 0.044 0.019 0.069 0.023l0.001 0c0.020 0.005 0.037 0.011 0.053 0.019l-0.001-0.001c0.016 0.008 0.030 0.017 0.042 0.028l-0-0c0.013 0.012 0.024 0.026 0.032 0.041l0 0.001c0.009 0.017 0.014 0.037 0.014 0.059 0 0.001 0 0.002-0 0.002v-0c0 0.001 0 0.001 0 0.002 0 0.020-0.005 0.039-0.014 0.055l0-0.001c-0.010 0.018-0.023 0.033-0.037 0.046l-0 0c-0.015 0.014-0.034 0.024-0.056 0.028l-0.001 0c-0.018 0.006-0.038 0.010-0.059 0.010-0.004 0-0.008-0-0.011-0l0.001 0c-0.003 0-0.007 0-0.011 0-0.019 0-0.038-0.002-0.056-0.005l0.002 0c-0.019-0.004-0.037-0.010-0.052-0.019l0.001 0c-0.014-0.009-0.028-0.014-0.042-0.023-0.012-0.009-0.023-0.018-0.033-0.028l-0-0z"></path>
<path fill="#56b46d" d="M13.772 28.771c0 1.17-0.948 2.118-2.118 2.118s-2.118-0.948-2.118-2.118c0-1.17 0.948-2.118 2.118-2.118s2.118 0.948 2.118 2.118z"></path>
<path fill="#fff" d="M10.576 27.398h2.151v2.858h-2.151v-2.858z"></path>
<path fill="#d3d3d3" d="M10.782 29.104h0.389v0.389h-0.389v-0.389z"></path>
<path fill="#7f8080" d="M11.382 29.137h1.139v0.070h-1.139v-0.070z"></path>
<path fill="#7f8080" d="M11.382 29.338h0.572v0.070h-0.572v-0.070z"></path>
<path fill="#56b46d" d="M10.993 29.446l-0.173-0.178 0.052-0.052 0.122 0.117 0.234-0.23 0.056 0.052z"></path>
<path fill="#d3d3d3" d="M10.782 28.575h0.389v0.389h-0.389v-0.389z"></path>
<path fill="#7f8080" d="M11.382 28.612h1.139v0.070h-1.139v-0.070z"></path>
<path fill="#7f8080" d="M11.382 28.809h0.572v0.070h-0.572v-0.070z"></path>
<path fill="#56b46d" d="M10.993 28.917l-0.173-0.173 0.052-0.056 0.122 0.122 0.234-0.234 0.056 0.056z"></path>
<path fill="#d3d3d3" d="M10.782 29.629h0.389v0.389h-0.389v-0.389z"></path>
<path fill="#7f8080" d="M11.382 29.666h1.139v0.070h-1.139v-0.070z"></path>
<path fill="#7f8080" d="M11.382 29.863h0.572v0.070h-0.572v-0.070z"></path>
<path fill="#56b46d" d="M10.993 29.971l-0.173-0.173 0.052-0.056 0.122 0.122 0.234-0.234 0.056 0.056z"></path>
<path fill="#7f8080" d="M11.532 27.708h0.989v0.131h-0.989v-0.131z"></path>
<path fill="#7f8080" d="M11.532 27.965h0.989v0.131h-0.989v-0.131z"></path>
<path fill="#7f8080" d="M11.532 28.223h0.558v0.131h-0.558v-0.131z"></path>
<path fill="#d3d3d3" d="M10.782 27.708h0.651v0.651h-0.651v-0.651z"></path>
<path fill="#5e6161" d="M1.434 27.384h0.103v0.37h0.221v0.094h-0.329v-0.464z"></path>
<path fill="#5e6161" d="M1.968 27.384h0.117l0.169 0.464h-0.117l-0.038-0.108h-0.164l-0.038 0.108h-0.108zM2.076 27.661l-0.056-0.173-0.056 0.173z"></path>
<path fill="#5e6161" d="M2.226 27.384h0.112l0.070 0.337 0.080-0.323h0.094l0.084 0.323 0.066-0.337h0.108l-0.117 0.464h-0.112l-0.080-0.305-0.080 0.305h-0.112z"></path>
<path fill="#d3d3d3" d="M4.236 24.667c0 1.17-0.948 2.118-2.118 2.118s-2.118-0.948-2.118-2.118c0-1.17 0.948-2.118 2.118-2.118s2.118 0.948 2.118 2.118z"></path>
<path fill="#d77a1d" d="M2.301 26.068h-1.457c-0 0-0.001 0-0.001 0-0.041 0-0.074-0.033-0.074-0.074 0-0 0-0.001 0-0.001v0-0.009c0-0 0-0.001 0-0.001 0-0.041 0.033-0.074 0.074-0.074 0 0 0.001 0 0.001 0h1.457c0 0 0.001 0 0.001 0 0.041 0 0.074 0.033 0.074 0.074 0 0 0 0.001 0 0.001v-0 0.009c0 0 0 0.001 0 0.001 0 0.041-0.033 0.074-0.074 0.074-0 0-0.001 0-0.001 0h0z"></path>
<path fill="#d77a1d" d="M2.301 25.557h-1.457c-0 0-0.001 0-0.001 0-0.041 0-0.074-0.033-0.074-0.074 0-0 0-0.001 0-0.001v0-0.009c0-0 0-0.001 0-0.001 0-0.041 0.033-0.074 0.074-0.074 0 0 0.001 0 0.001 0h1.457c0 0 0.001 0 0.001 0 0.041 0 0.074 0.033 0.074 0.074 0 0 0 0.001 0 0.001v-0 0.009c0 0 0 0.001 0 0.001 0 0.041-0.033 0.074-0.074 0.074-0 0-0.001 0-0.001 0h0z"></path>
<path fill="#f8c963" d="M0.895 25.557h1.359v0.347h-1.359v-0.347z"></path>
<path fill="#d77a1d" d="M3.439 25.238l-0.131 0.131c-0.012 0.013-0.030 0.021-0.049 0.021s-0.037-0.008-0.049-0.021l-0.759-0.759c-0.013-0.012-0.021-0.030-0.021-0.049s0.008-0.037 0.021-0.049l0.131-0.131c0.012-0.013 0.030-0.021 0.049-0.021s0.037 0.008 0.049 0.021l0.759 0.759c0.011 0.013 0.018 0.030 0.018 0.049s-0.007 0.036-0.018 0.049l0-0z"></path>
<path fill="#ba661a" d="M2.348 24.406l0.129-0.129 0.109 0.109-0.129 0.129-0.109-0.109z"></path>
<path fill="#f39323" d="M1.63 24.14l0.58-0.58 0.494 0.494-0.58 0.58-0.494-0.494z"></path>
<path fill="#ba661a" d="M2.165 24.774v0c-0.012 0.013-0.028 0.021-0.047 0.021s-0.035-0.008-0.047-0.021l-0.581-0.581c-0.013-0.012-0.021-0.028-0.021-0.047s0.008-0.035 0.021-0.047l0-0c0.012-0.013 0.028-0.021 0.047-0.021s0.035 0.008 0.047 0.021l0.581 0.581c0.013 0.012 0.021 0.028 0.021 0.047s-0.008 0.035-0.021 0.047l-0 0z"></path>
<path fill="#ba661a" d="M2.015 24.924l-0.019 0.019c-0.014 0.015-0.034 0.025-0.056 0.025s-0.042-0.009-0.056-0.025l-0-0-0.562-0.562c-0.015-0.014-0.025-0.034-0.025-0.056s0.009-0.042 0.025-0.056l0-0 0.019-0.019c0.014-0.015 0.034-0.025 0.056-0.025s0.042 0.009 0.056 0.025l0 0 0.562 0.562c0.013 0.015 0.021 0.035 0.021 0.056s-0.008 0.041-0.021 0.056l0-0z"></path>
<path fill="#ba661a" d="M3.013 23.926l-0.019 0.019c-0.014 0.015-0.034 0.025-0.056 0.025s-0.042-0.009-0.056-0.025l-0-0-0.562-0.562c-0.015-0.014-0.025-0.034-0.025-0.056s0.009-0.042 0.025-0.056l0-0 0.019-0.019c0.014-0.015 0.034-0.025 0.056-0.025s0.042 0.009 0.056 0.025l0 0 0.562 0.562c0.015 0.014 0.025 0.034 0.025 0.056s-0.009 0.042-0.025 0.056l-0 0z"></path>
<path fill="#ba661a" d="M2.84 24.095v0c-0.012 0.013-0.028 0.021-0.047 0.021s-0.035-0.008-0.047-0.021l-0.581-0.581c-0.013-0.012-0.021-0.028-0.021-0.047s0.008-0.035 0.021-0.047l0-0c0.012-0.013 0.028-0.021 0.047-0.021s0.035 0.008 0.047 0.021l0.581 0.581c0.013 0.012 0.021 0.028 0.021 0.047s-0.008 0.035-0.021 0.047l-0 0z"></path>
<path fill="#5e6161" d="M1.12 9.372h0.173c0.025 0 0.049 0.004 0.072 0.010l-0.002-0c0.020 0.009 0.037 0.020 0.052 0.033l-0-0c0.013 0.013 0.024 0.029 0.032 0.045l0 0.001c0.005 0.017 0.008 0.036 0.009 0.056l0 0.001c0 0.002 0 0.004 0 0.006 0 0.027-0.007 0.052-0.019 0.075l0-0.001c-0.014 0.023-0.033 0.042-0.056 0.056l-0.001 0 0.103 0.187h-0.117l-0.084-0.169h-0.056v0.169h-0.103v-0.468zM1.289 9.583c0.001 0 0.002 0 0.003 0 0.017 0 0.033-0.007 0.044-0.019l0-0c0.010-0.011 0.017-0.026 0.019-0.042l0-0c0-0.001 0-0.002 0-0.003 0-0.017-0.007-0.033-0.019-0.044l-0-0c-0.012-0.011-0.028-0.018-0.046-0.019h-0.066v0.122h0.066z"></path>
<path fill="#5e6161" d="M1.537 9.372h0.108v0.276c-0 0.002-0 0.005-0 0.007 0 0.012 0.002 0.025 0.005 0.036l-0-0.001c0.004 0.013 0.009 0.024 0.015 0.034l-0.001-0.001c0.006 0.010 0.016 0.016 0.028 0.019l0 0c0.012 0.006 0.026 0.009 0.041 0.009 0 0 0.001 0 0.001 0h-0c0.015-0.001 0.030-0.004 0.043-0.010l-0.001 0c0.009-0.005 0.019-0.014 0.028-0.019 0.007-0.009 0.012-0.020 0.014-0.032l0-0c0.003-0.011 0.005-0.023 0.005-0.035 0-0.002-0-0.005-0-0.007v0-0.276h0.108v0.291c0 0.001 0 0.002 0 0.002 0 0.026-0.005 0.051-0.015 0.074l0-0.001c-0.010 0.023-0.023 0.043-0.038 0.061l0-0c-0.017 0.016-0.037 0.029-0.060 0.037l-0.001 0c-0.024 0.009-0.051 0.014-0.080 0.014s-0.056-0.005-0.081-0.015l0.002 0.001c-0.024-0.009-0.044-0.022-0.061-0.038l0 0c-0.016-0.017-0.029-0.037-0.037-0.060l-0-0.001c-0.009-0.021-0.014-0.046-0.014-0.073 0-0.001 0-0.002 0-0.002v0-0.291z"></path>
<path fill="#5e6161" d="M2.015 9.372h0.103v0.37h0.221v0.094h-0.329v-0.464z"></path>
<path fill="#5e6161" d="M2.404 9.372h0.319v0.094h-0.211v0.089h0.164v0.089h-0.164v0.098h0.229v0.094h-0.332v-0.464z"></path>
<path fill="#5e6161" d="M2.844 9.7c0.007 0.007 0.014 0.013 0.023 0.018l0 0c0.009 0.005 0.019 0.014 0.028 0.019s0.020 0.010 0.031 0.014l0.002 0.001c0.009 0.003 0.020 0.005 0.031 0.005 0.002 0 0.004-0 0.007-0h-0c0.001 0 0.002 0 0.004 0 0.007 0 0.014-0.002 0.020-0.005l-0 0c0.009 0 0.014-0.005 0.023-0.009l0.014-0.014c0.003-0.005 0.005-0.011 0.005-0.018 0-0.002-0-0.004-0-0.005l0 0c0-0 0-0 0-0 0-0.018-0.009-0.033-0.023-0.042l-0-0c-0.023-0.011-0.049-0.021-0.077-0.028l-0.003-0.001c-0.018-0.004-0.033-0.010-0.047-0.019l0.001 0c-0.014-0.009-0.026-0.018-0.038-0.028l0 0c-0.010-0.010-0.018-0.023-0.023-0.037l-0-0.001c-0.006-0.014-0.009-0.030-0.009-0.046v-0c0.001-0.020 0.004-0.040 0.010-0.058l-0 0.002c0.007-0.019 0.018-0.034 0.033-0.046l0-0c0.028-0.027 0.066-0.043 0.108-0.043 0.007 0 0.013 0 0.019 0.001l-0.001-0c0.022 0 0.043 0.004 0.062 0.010l-0.001-0c0.018 0.004 0.033 0.010 0.047 0.019l-0.001-0c0.013 0.006 0.023 0.012 0.033 0.019l-0.001-0 0.019 0.019-0.061 0.066c-0.005-0.006-0.011-0.010-0.018-0.014l-0-0c-0.007-0.005-0.014-0.010-0.023-0.014l-0.001-0c-0.008-0.005-0.018-0.008-0.028-0.009l-0-0c-0.008-0.003-0.017-0.005-0.026-0.005-0.002 0-0.005 0-0.007 0l0-0c-0.001-0-0.002-0-0.004-0-0.007 0-0.014 0.002-0.020 0.005l0-0c-0.008 0-0.014 0.004-0.019 0.009l-0 0-0.014 0.014c-0.005 0.005-0.005 0.009-0.005 0.019 0.001 0.016 0.010 0.030 0.023 0.037l0 0c0.020 0.011 0.044 0.019 0.069 0.023l0.001 0c0.020 0.005 0.037 0.011 0.053 0.019l-0.001-0.001c0.016 0.008 0.030 0.017 0.042 0.028l-0-0c0.013 0.012 0.024 0.026 0.032 0.041l0 0.001c0.009 0.017 0.014 0.037 0.014 0.059 0 0.001 0 0.002-0 0.002v-0c0 0.001 0 0.001 0 0.002 0 0.020-0.005 0.039-0.014 0.055l0-0.001c-0.010 0.018-0.023 0.033-0.037 0.046l-0 0c-0.015 0.014-0.034 0.024-0.056 0.028l-0.001 0c-0.021 0.005-0.045 0.008-0.069 0.009l-0.001 0c-0.003 0-0.007 0-0.011 0-0.019 0-0.038-0.002-0.056-0.005l0.002 0c-0.019-0.004-0.037-0.010-0.052-0.019l0.001 0c-0.014-0.009-0.028-0.014-0.042-0.023-0.012-0.009-0.023-0.018-0.033-0.028l-0-0z"></path>
<path fill="#e61d46" d="M4.246 6.71c0 1.17-0.948 2.118-2.118 2.118s-2.118-0.948-2.118-2.118c0-1.17 0.948-2.118 2.118-2.118s2.118 0.948 2.118 2.118z"></path>
<path fill="#d3d3d3" d="M0.975 5.59v1.279c0 0.539 0.464 1.022 1.153 1.279 0.684-0.258 1.153-0.74 1.153-1.279v-1.279z"></path>
<path fill="#f39323" d="M1.232 5.848v1.021c0 0.436 0.36 0.82 0.895 1.021 0.535-0.206 0.895-0.586 0.895-1.021v-1.021z"></path>
<path fill="#344e5d" d="M2.127 6.106c-0.001-0-0.002-0-0.003-0-0.068 0-0.123 0.055-0.123 0.123 0 0.001 0 0.002 0 0.004v-0l0.066 0.895h0.127l0.066-0.895c-0-0.070-0.057-0.127-0.127-0.127-0.002 0-0.003 0-0.005 0h0zM2.127 7.254c-0.001-0-0.002-0-0.003-0-0.068 0-0.123 0.055-0.123 0.123 0 0.001 0 0.002 0 0.004v-0c0.001 0.069 0.057 0.125 0.126 0.127h0c0.069-0.003 0.123-0.058 0.127-0.126v-0c0-0.001 0-0.002 0-0.003 0-0.068-0.055-0.123-0.123-0.123-0.001 0-0.002 0-0.004 0h0z"></path>
<path fill="#5e6161" d="M28.443 6.021h0.178v0.202c-0.024 0.020-0.052 0.036-0.083 0.046l-0.002 0c-0.033 0.011-0.072 0.018-0.112 0.019h-0c-0.002 0-0.005 0-0.008 0-0.034 0-0.067-0.007-0.097-0.019l0.002 0.001c-0.029-0.012-0.054-0.030-0.075-0.051l-0-0c-0.019-0.021-0.035-0.046-0.046-0.073l-0.001-0.002c-0.009-0.028-0.014-0.060-0.014-0.093 0-0.002 0-0.004 0-0.006v0c-0-0.001-0-0.003-0-0.005 0-0.034 0.007-0.066 0.019-0.095l-0.001 0.002c0.012-0.031 0.029-0.058 0.051-0.080l0-0c0.021-0.021 0.046-0.038 0.073-0.051l0.002-0.001c0.026-0.012 0.057-0.019 0.089-0.019 0.003 0 0.007 0 0.010 0l-0-0c0 0 0 0 0 0 0.041 0 0.079 0.009 0.114 0.024l-0.002-0.001c0.032 0.016 0.059 0.038 0.079 0.065l0 0.001-0.070 0.066c-0.013-0.016-0.028-0.030-0.046-0.042l-0.001-0c-0.019-0.011-0.041-0.017-0.065-0.019l-0-0c-0.001-0-0.003-0-0.005-0-0.019 0-0.037 0.005-0.052 0.014l0-0c-0.017 0.007-0.031 0.018-0.042 0.033l-0 0c-0.009 0.013-0.019 0.028-0.027 0.044l-0.001 0.002c-0.006 0.018-0.009 0.038-0.009 0.059s0.003 0.041 0.010 0.060l-0-0.001c0.007 0.018 0.017 0.033 0.028 0.047l-0-0c0.011 0.012 0.026 0.022 0.041 0.028l0.001 0c0.017 0.005 0.036 0.008 0.056 0.009l0 0c0.003 0 0.007 0 0.010 0 0.015 0 0.029-0.002 0.043-0.005l-0.001 0c0.017-0.004 0.031-0.012 0.042-0.023l-0 0v-0.056h-0.084v-0.080z"></path>
<path fill="#5e6161" d="M28.931 6.288c-0.002 0-0.004 0-0.007 0-0.031 0-0.061-0.007-0.088-0.019l0.001 0.001c-0.029-0.012-0.054-0.030-0.075-0.051l-0-0c-0.022-0.022-0.039-0.049-0.051-0.078l-0.001-0.002c-0.012-0.026-0.019-0.057-0.019-0.089 0-0.003 0-0.007 0-0.010l-0 0c-0-0.001-0-0.003-0-0.004 0-0.034 0.007-0.066 0.019-0.096l-0.001 0.002c0.013-0.031 0.030-0.057 0.051-0.080l-0 0c0.021-0.021 0.046-0.038 0.073-0.051l0.002-0.001c0.028-0.012 0.060-0.019 0.094-0.019s0.066 0.007 0.095 0.019l-0.002-0.001c0.029 0.012 0.054 0.030 0.075 0.051l0 0c0.022 0.022 0.039 0.049 0.051 0.078l0.001 0.002c0.012 0.026 0.019 0.057 0.019 0.089 0 0.003-0 0.007-0 0.010l0-0c0 0.001 0 0.003 0 0.004 0 0.034-0.007 0.066-0.019 0.096l0.001-0.002c-0.014 0.031-0.031 0.057-0.052 0.080l0-0c-0.021 0.021-0.046 0.038-0.073 0.051l-0.002 0.001c-0.026 0.012-0.056 0.019-0.088 0.019-0.002 0-0.004-0-0.006-0h0zM28.931 6.19c0.021-0 0.040-0.005 0.057-0.014l-0.001 0c0.016-0.010 0.030-0.021 0.042-0.033l-0 0c0.009-0.013 0.019-0.028 0.027-0.044l0.001-0.002c0.006-0.014 0.010-0.030 0.010-0.047 0-0.003-0-0.006-0-0.010l0 0c-0.001-0.020-0.004-0.040-0.010-0.058l0 0.002c-0.005-0.019-0.015-0.034-0.028-0.046l-0-0c-0.011-0.014-0.025-0.026-0.042-0.033l-0.001-0c-0.013-0.006-0.029-0.010-0.046-0.010-0.004 0-0.007 0-0.011 0.001l0-0c-0.020 0.001-0.040 0.004-0.058 0.010l0.002-0c-0.019 0.005-0.028 0.019-0.042 0.033-0.009 0.013-0.019 0.028-0.027 0.044l-0.001 0.002c-0.006 0.017-0.009 0.036-0.009 0.056s0.003 0.039 0.010 0.057l-0-0.001c0.005 0.019 0.015 0.034 0.028 0.046l0 0c0.011 0.014 0.025 0.026 0.042 0.033l0.001 0c0.016 0.009 0.036 0.014 0.056 0.014h0z"></path>
<path fill="#5e6161" d="M29.184 5.81h0.117l0.113 0.337 0.113-0.337h0.113l-0.169 0.464h-0.113z"></path>
<path fill="#5e6161" d="M29.685 5.81h0.319v0.094h-0.211v0.089h0.164v0.089h-0.164v0.098h0.229v0.094h-0.332v-0.464z"></path>
<path fill="#5e6161" d="M30.093 5.81h0.173c0.025 0 0.049 0.004 0.072 0.010l-0.002-0c0.020 0.009 0.037 0.020 0.052 0.033l-0-0c0.013 0.013 0.024 0.029 0.032 0.045l0 0.001c0.005 0.017 0.008 0.036 0.009 0.056l0 0.001c0 0.002 0 0.004 0 0.006 0 0.027-0.007 0.052-0.019 0.075l0-0.001c-0.014 0.023-0.033 0.042-0.056 0.056l-0.001 0 0.103 0.187h-0.117l-0.084-0.169h-0.056v0.169h-0.107zM30.257 6.021c0.001 0 0.002 0 0.003 0 0.017 0 0.033-0.007 0.044-0.019l0-0c0.010-0.011 0.017-0.026 0.019-0.042l0-0c0-0 0-0.001 0-0.002 0-0.035-0.029-0.064-0.064-0.064-0.001 0-0.001 0-0.002 0h-0.066v0.122h0.066z"></path>
<path fill="#5e6161" d="M30.515 5.81h0.098l0.201 0.3v-0.3h0.103v0.464h-0.094l-0.206-0.309v0.309h-0.103z"></path>
<path fill="#5e6161" d="M31.143 5.81h0.117l0.169 0.464h-0.117l-0.038-0.108h-0.164l-0.038 0.108h-0.112zM31.255 6.087l-0.056-0.173-0.056 0.173z"></path>
<path fill="#5e6161" d="M31.48 5.81h0.098l0.201 0.3v-0.3h0.103v0.464h-0.094l-0.206-0.309v0.309h-0.103v-0.464z"></path>
<path fill="#5e6161" d="M32.398 6.19c-0.010 0.015-0.023 0.027-0.037 0.037l-0 0c-0.013 0.013-0.029 0.024-0.045 0.032l-0.001 0c-0.016 0.008-0.035 0.014-0.054 0.018l-0.002 0c-0.018 0.005-0.039 0.008-0.060 0.009l-0.001 0c-0.002 0-0.005 0-0.007 0-0.033 0-0.064-0.007-0.093-0.019l0.001 0.001c-0.029-0.012-0.054-0.030-0.075-0.051l-0-0c-0.021-0.020-0.037-0.045-0.046-0.074l-0-0.001c-0.011-0.029-0.018-0.063-0.019-0.098v-0c-0-0.001-0-0.003-0-0.005 0-0.034 0.007-0.066 0.019-0.095l-0.001 0.002c0.012-0.031 0.027-0.057 0.047-0.080l-0 0c0.021-0.021 0.046-0.038 0.073-0.051l0.002-0.001c0.026-0.012 0.057-0.019 0.089-0.019 0.003 0 0.007 0 0.010 0l-0-0c0 0 0 0 0 0 0.041 0 0.079 0.009 0.114 0.024l-0.002-0.001c0.034 0.014 0.061 0.038 0.079 0.069l0 0.001-0.070 0.070c-0.013-0.020-0.030-0.036-0.051-0.046l-0.001-0c-0.018-0.012-0.039-0.019-0.063-0.019-0.002 0-0.005 0-0.007 0l0-0c-0.020 0.001-0.040 0.004-0.058 0.010l0.002-0c-0.017 0.007-0.031 0.018-0.042 0.033l-0 0c-0.009 0.013-0.019 0.028-0.027 0.044l-0.001 0.002c-0.006 0.017-0.009 0.036-0.009 0.056s0.003 0.039 0.010 0.057l-0-0.001c0.005 0.019 0.015 0.034 0.028 0.046l0 0c0.021 0.026 0.053 0.043 0.088 0.043 0.004 0 0.007-0 0.011-0l-0 0c0.003 0 0.006 0 0.010 0 0.012 0 0.023-0.002 0.033-0.005l-0.001 0c0.013-0.004 0.024-0.009 0.034-0.015l-0.001 0.001c0.009-0.005 0.017-0.011 0.023-0.019l0.023-0.023z"></path>
<path fill="#5e6161" d="M32.45 5.81h0.319v0.094h-0.211v0.089h0.164v0.089h-0.164v0.098h0.229v0.094h-0.332v-0.464z"></path>
<path fill="#f8c963" d="M32.6 3.149c0 1.17-0.948 2.118-2.118 2.118s-2.118-0.948-2.118-2.118c0-1.17 0.948-2.118 2.118-2.118s2.118 0.948 2.118 2.118z"></path>
<path fill="#e61d46" d="M30.083 3.247h0.792l0.005 1.42-0.384-0.244-0.408 0.244z"></path>
<path fill="#7f8080" d="M29.399 2.559c0-0.112 0.108-0.206 0.141-0.305 0.033-0.103 0-0.244 0.066-0.328 0.066-0.089 0.206-0.098 0.295-0.164 0.089-0.061 0.141-0.197 0.244-0.23 0.098-0.033 0.221 0.042 0.333 0.042s0.234-0.075 0.333-0.042c0.103 0.033 0.159 0.169 0.244 0.23 0.089 0.066 0.23 0.075 0.295 0.164 0.061 0.089 0.028 0.225 0.066 0.328 0.033 0.098 0.141 0.192 0.141 0.305s-0.108 0.206-0.141 0.305c-0.033 0.103 0 0.244-0.066 0.328-0.066 0.089-0.206 0.098-0.295 0.164-0.089 0.061-0.141 0.197-0.244 0.23-0.098 0.033-0.221-0.042-0.333-0.042s-0.234 0.075-0.333 0.042c-0.103-0.033-0.159-0.169-0.244-0.23-0.089-0.066-0.23-0.075-0.295-0.164-0.061-0.089-0.028-0.225-0.066-0.328-0.028-0.098-0.141-0.192-0.141-0.305z"></path>
<path fill="#d3d3d3" d="M31.161 2.559c0 0.375-0.304 0.679-0.68 0.679s-0.68-0.304-0.68-0.679c0-0.375 0.304-0.679 0.68-0.679s0.68 0.304 0.68 0.679z"></path>
<path fill="#5e6161" d="M29.132 29.985h0.173c0.025 0 0.049 0.004 0.072 0.010l-0.002-0c0.020 0.009 0.037 0.020 0.052 0.033l-0-0c0.013 0.013 0.024 0.029 0.032 0.045l0 0.001c0.005 0.017 0.009 0.036 0.009 0.056l0 0c0 0.002 0 0.004 0 0.006 0 0.027-0.007 0.052-0.019 0.075l0-0.001c-0.014 0.023-0.033 0.042-0.056 0.056l-0.001 0 0.103 0.187h-0.117l-0.084-0.169h-0.056v0.169h-0.103v-0.468zM29.301 30.196c0.001 0 0.002 0 0.003 0 0.017 0 0.033-0.007 0.044-0.019l0-0c0.010-0.011 0.017-0.026 0.019-0.042l0-0c0-0.001 0-0.002 0-0.003 0-0.017-0.007-0.033-0.019-0.044l-0-0c-0.012-0.011-0.029-0.018-0.046-0.019h-0.066v0.122h0.066z"></path>
<path fill="#5e6161" d="M29.554 29.985h0.319v0.094h-0.211v0.089h0.164v0.089h-0.164v0.098h0.229v0.094h-0.332v-0.464z"></path>
<path fill="#5e6161" d="M30.177 30.196h0.178v0.201c-0.024 0.020-0.052 0.036-0.083 0.046l-0.002 0c-0.033 0.011-0.072 0.018-0.112 0.019h-0c-0.002 0-0.005 0-0.008 0-0.034 0-0.067-0.007-0.097-0.019l0.002 0.001c-0.029-0.012-0.054-0.030-0.075-0.052l-0-0c-0.019-0.021-0.035-0.046-0.046-0.073l-0.001-0.002c-0.009-0.028-0.014-0.060-0.014-0.093 0-0.002 0-0.004 0-0.006v0c-0-0.001-0-0.003-0-0.004 0-0.034 0.007-0.066 0.019-0.096l-0.001 0.002c0.011-0.031 0.029-0.058 0.051-0.080l0-0c0.021-0.021 0.046-0.038 0.073-0.051l0.002-0.001c0.026-0.012 0.057-0.019 0.089-0.019 0.003 0 0.007 0 0.010 0l-0-0c0 0 0 0 0 0 0.041 0 0.079 0.009 0.114 0.024l-0.002-0.001c0.032 0.016 0.059 0.038 0.079 0.065l0 0.001-0.070 0.066c-0.013-0.017-0.028-0.030-0.046-0.042l-0.001-0c-0.019-0.011-0.041-0.017-0.065-0.019l-0-0c-0.001-0-0.003-0-0.005-0-0.019 0-0.037 0.005-0.052 0.014l0-0c-0.017 0.007-0.031 0.018-0.042 0.033l-0 0c-0.009 0.013-0.019 0.028-0.027 0.044l-0.001 0.002c-0.006 0.017-0.009 0.038-0.009 0.059s0.003 0.041 0.010 0.060l-0-0.001c0.007 0.018 0.017 0.033 0.028 0.047l-0-0c0.011 0.012 0.026 0.022 0.041 0.028l0.001 0c0.017 0.005 0.036 0.008 0.056 0.009l0 0c0.003 0 0.007 0 0.010 0 0.015 0 0.029-0.002 0.043-0.005l-0.001 0c0.017-0.004 0.031-0.012 0.042-0.023l-0 0v-0.052h-0.084v-0.084z"></path>
<path fill="#5e6161" d="M30.435 29.985h0.108v0.276c-0 0.002-0 0.005-0 0.007 0 0.012 0.002 0.025 0.005 0.036l-0-0.001c0.004 0.013 0.009 0.024 0.015 0.034l-0.001-0.001c0.006 0.010 0.016 0.016 0.028 0.019l0 0c0.012 0.006 0.026 0.009 0.041 0.009 0 0 0.001 0 0.001 0h-0c0.015-0.001 0.030-0.004 0.043-0.010l-0.001 0c0.011-0.005 0.020-0.011 0.028-0.019l-0 0c0.007-0.009 0.012-0.020 0.014-0.032l0-0c0.003-0.011 0.005-0.023 0.005-0.035 0-0.003-0-0.005-0-0.007v0-0.276h0.108v0.291c0 0.001 0 0.002 0 0.002 0 0.026-0.005 0.051-0.015 0.074l0-0.001c-0.010 0.023-0.023 0.043-0.038 0.061l0-0c-0.017 0.016-0.037 0.029-0.060 0.037l-0.001 0c-0.024 0.009-0.051 0.014-0.080 0.014s-0.056-0.005-0.081-0.015l0.002 0.001c-0.024-0.009-0.044-0.022-0.061-0.038l0 0c-0.016-0.017-0.029-0.037-0.037-0.060l-0-0.001c-0.009-0.021-0.014-0.046-0.014-0.073 0-0.001 0-0.002 0-0.002v0-0.291z"></path>
<path fill="#5e6161" d="M30.913 29.985h0.103v0.37h0.221v0.094h-0.329v-0.464z"></path>
<path fill="#5e6161" d="M31.447 29.985h0.117l0.169 0.464h-0.117l-0.038-0.108h-0.164l-0.038 0.108h-0.112zM31.56 30.261l-0.056-0.173-0.056 0.173z"></path>
<path fill="#5e6161" d="M31.831 30.079h-0.15v-0.094h0.408v0.094h-0.15v0.37h-0.108z"></path>
<path fill="#5e6161" d="M32.145 29.985h0.103v0.464h-0.103z"></path>
<path fill="#5e6161" d="M32.562 30.463c-0.002 0-0.004 0-0.007 0-0.031 0-0.061-0.007-0.088-0.019l0.001 0.001c-0.029-0.012-0.054-0.030-0.075-0.052l-0-0c-0.022-0.022-0.039-0.049-0.051-0.078l-0.001-0.002c-0.012-0.026-0.019-0.057-0.019-0.089 0-0.003 0-0.007 0-0.010l-0 0c-0-0.001-0-0.003-0-0.004 0-0.034 0.007-0.066 0.019-0.096l-0.001 0.002c0.014-0.031 0.031-0.057 0.052-0.080l-0 0c0.021-0.021 0.046-0.038 0.073-0.051l0.002-0.001c0.028-0.012 0.060-0.019 0.094-0.019s0.066 0.007 0.095 0.019l-0.002-0.001c0.029 0.012 0.054 0.030 0.075 0.052l0 0c0.022 0.022 0.039 0.049 0.051 0.078l0.001 0.002c0.012 0.026 0.019 0.057 0.019 0.089 0 0.003-0 0.007-0 0.010l0-0c0 0.001 0 0.003 0 0.004 0 0.034-0.007 0.066-0.019 0.096l0.001-0.002c-0.014 0.031-0.031 0.057-0.052 0.080l0-0c-0.021 0.021-0.046 0.038-0.073 0.051l-0.002 0.001c-0.028 0.012-0.060 0.018-0.094 0.019h-0zM32.562 30.365c0.021-0 0.040-0.005 0.057-0.014l-0.001 0c0.016-0.010 0.030-0.021 0.042-0.033l-0 0c0.009-0.013 0.019-0.028 0.027-0.044l0.001-0.002c0.006-0.017 0.009-0.036 0.009-0.056s-0.003-0.039-0.010-0.057l0 0.001c-0.005-0.018-0.015-0.034-0.028-0.046l-0-0c-0.011-0.014-0.025-0.026-0.042-0.033l-0.001-0c-0.013-0.006-0.029-0.010-0.046-0.010-0.004 0-0.007 0-0.011 0.001l0-0c-0.020 0.001-0.040 0.004-0.058 0.010l0.002-0c-0.016 0.009-0.030 0.020-0.042 0.033l-0 0c-0.009 0.013-0.019 0.028-0.027 0.044l-0.001 0.002c-0.006 0.017-0.009 0.036-0.009 0.056s0.003 0.039 0.010 0.057l-0-0.001c0.005 0.018 0.015 0.034 0.028 0.046l0 0c0.011 0.014 0.025 0.026 0.042 0.033l0.001 0c0.016 0.009 0.036 0.014 0.056 0.014h0z"></path>
<path fill="#5e6161" d="M32.881 29.985h0.098l0.202 0.3v-0.3h0.103v0.464h-0.094l-0.206-0.309v0.309h-0.103z"></path>
<path fill="#5e6161" d="M33.41 30.313c0.007 0.007 0.014 0.013 0.023 0.018l0 0c0.009 0.005 0.019 0.014 0.028 0.019s0.020 0.010 0.031 0.014l0.002 0c0.009 0.003 0.020 0.005 0.031 0.005 0.002 0 0.004-0 0.007-0h-0c0.001 0 0.002 0 0.004 0 0.007 0 0.014-0.002 0.020-0.005l-0 0c0.009 0 0.014-0.005 0.023-0.009 0.005-0.005 0.014-0.009 0.014-0.014 0.003-0.005 0.005-0.011 0.005-0.018 0-0.002-0-0.004-0-0.005l0 0c0-0 0-0 0-0 0-0.018-0.009-0.033-0.023-0.042l-0-0c-0.023-0.012-0.050-0.022-0.078-0.028l-0.002-0c-0.018-0.004-0.033-0.010-0.047-0.019l0.001 0c-0.014-0.009-0.026-0.018-0.038-0.028l0 0c-0.010-0.010-0.018-0.023-0.023-0.037l-0-0.001c-0.006-0.014-0.009-0.030-0.009-0.046v-0c0.001-0.020 0.004-0.040 0.010-0.058l-0 0.002c0.007-0.019 0.018-0.034 0.033-0.046l0-0c0.028-0.027 0.066-0.043 0.108-0.043 0.007 0 0.013 0 0.020 0.001l-0.001-0c0.022 0 0.043 0.004 0.062 0.010l-0.001-0c0.018 0.004 0.033 0.010 0.047 0.019l-0.001-0c0.013 0.006 0.023 0.012 0.033 0.019l-0.001-0 0.019 0.019-0.061 0.066c-0.005-0.006-0.011-0.010-0.018-0.014l-0-0c-0.007-0.005-0.014-0.010-0.023-0.014l-0.001-0c-0.008-0.005-0.018-0.008-0.028-0.009l-0-0c-0.008-0.003-0.017-0.005-0.026-0.005-0.002 0-0.005 0-0.007 0l0-0c-0.001-0-0.002-0-0.004-0-0.007 0-0.014 0.002-0.020 0.005l0-0c-0.008 0-0.014 0.004-0.019 0.009l-0 0-0.014 0.014c-0.005 0.005-0.005 0.009-0.005 0.019 0.001 0.016 0.010 0.030 0.023 0.037l0 0c0.020 0.011 0.044 0.019 0.069 0.023l0.001 0c0.020 0.005 0.037 0.011 0.053 0.019l-0.001-0.001c0.016 0.008 0.030 0.017 0.042 0.028l-0-0c0.013 0.012 0.024 0.026 0.032 0.041l0 0.001c0.009 0.017 0.014 0.037 0.014 0.059 0 0.001 0 0.002-0 0.002v-0c0 0.001 0 0.001 0 0.002 0 0.020-0.005 0.039-0.014 0.055l0-0.001c-0.012 0.017-0.024 0.033-0.038 0.047l0-0c-0.015 0.014-0.034 0.024-0.056 0.028l-0.001 0c-0.018 0.006-0.038 0.010-0.059 0.010-0.004 0-0.008-0-0.011-0l0.001 0c-0.003 0-0.007 0-0.011 0-0.019 0-0.038-0.002-0.056-0.005l0.002 0c-0.019-0.004-0.037-0.010-0.052-0.019l0.001 0c-0.014-0.009-0.028-0.014-0.042-0.023-0.012-0.009-0.023-0.018-0.033-0.028l-0-0z"></path>
<path fill="#d77a1d" d="M33.528 27.305c0 1.17-0.948 2.118-2.118 2.118s-2.118-0.948-2.118-2.118c0-1.17 0.948-2.118 2.118-2.118s2.118 0.948 2.118 2.118z"></path>
<path fill="#107397" d="M30.576 26.143h0.67c0.020 0.001 0.036 0.017 0.038 0.037v2.315c-0.001 0.020-0.017 0.036-0.037 0.038h-0.67c-0.020-0.001-0.036-0.017-0.038-0.037v-2.315c0-0 0-0 0-0.001 0-0.020 0.017-0.037 0.037-0.037 0 0 0 0 0.001 0h-0z"></path>
<path fill="#fff" d="M30.688 26.288h0.45c0.020 0.001 0.036 0.017 0.038 0.037v1.57c-0.001 0.020-0.017 0.036-0.037 0.038h-0.45c-0.020-0.001-0.036-0.017-0.038-0.037v-1.57c0.001-0.020 0.017-0.036 0.037-0.038h0z"></path>
<path fill="#fff" d="M31.025 28.233c0 0.062-0.050 0.113-0.113 0.113s-0.113-0.050-0.113-0.113c0-0.062 0.050-0.113 0.113-0.113s0.113 0.050 0.113 0.113z"></path>
<path fill="#535455" d="M30.763 26.424h0.299c0.020 0.001 0.036 0.017 0.038 0.037v0c-0.001 0.020-0.017 0.036-0.037 0.038h-0.3c-0.020-0.001-0.036-0.017-0.038-0.037v-0c0.001-0.020 0.018-0.036 0.038-0.038h0z"></path>
<path fill="#535455" d="M30.763 26.611h0.299c0.020 0.001 0.036 0.017 0.038 0.037v0c-0.001 0.020-0.017 0.036-0.037 0.038h-0.3c-0.020-0.001-0.036-0.017-0.038-0.037v-0c0.001-0.020 0.018-0.036 0.038-0.038h0z"></path>
<path fill="#535455" d="M30.763 26.799h0.299c0.020 0.001 0.036 0.017 0.038 0.037v0c-0.001 0.020-0.017 0.036-0.037 0.038h-0.3c-0.020-0.001-0.036-0.017-0.038-0.037v-0c0-0 0-0 0-0.001 0-0.020 0.017-0.037 0.037-0.037 0 0 0.001 0 0.001 0h-0z"></path>
<path fill="#107397" d="M31.321 26.152l0.67-0.070c0.020 0 0.037 0.014 0.042 0.032l0 0 0.248 2.301c-0.001 0.020-0.014 0.037-0.032 0.042l-0 0-0.67 0.070c-0.020-0-0.037-0.014-0.042-0.032l-0-0-0.248-2.301c-0.005-0.018 0.014-0.037 0.033-0.042z"></path>
<path fill="#fff" d="M31.447 26.292l0.445-0.047c0.020 0 0.037 0.014 0.042 0.032l0 0 0.169 1.56c-0.001 0.020-0.014 0.037-0.032 0.042l-0 0-0.445 0.047c-0.020-0-0.037-0.014-0.042-0.032l-0-0-0.169-1.56c-0-0.002-0-0.003-0-0.005 0-0.019 0.014-0.035 0.033-0.038l0-0z"></path>
<path fill="#fff" d="M31.99 28.182c0.007 0.062-0.038 0.117-0.1 0.124s-0.117-0.038-0.124-0.1c-0.007-0.062 0.038-0.117 0.1-0.124s0.117 0.038 0.124 0.1z"></path>
<path fill="#535455" d="M31.536 26.415l0.295-0.033c0.020 0 0.037 0.014 0.042 0.032l0 0c-0 0.020-0.014 0.037-0.032 0.042l-0 0-0.295 0.033c-0.020-0-0.037-0.014-0.042-0.032l-0-0c-0.005-0.019 0.014-0.037 0.033-0.042z"></path>
<path fill="#535455" d="M31.555 26.602l0.295-0.033c0.020 0 0.037 0.014 0.042 0.032l0 0c-0 0.020-0.014 0.037-0.032 0.042l-0 0-0.295 0.033c-0.020-0-0.037-0.014-0.042-0.032l-0-0c-0-0.001-0-0.001-0-0.002 0-0.020 0.014-0.036 0.033-0.040l0-0z"></path>
<path fill="#535455" d="M31.574 26.789l0.295-0.033c0.020 0 0.037 0.014 0.042 0.032l0 0c-0 0.020-0.014 0.037-0.032 0.042l-0 0-0.295 0.033c-0.020-0-0.037-0.014-0.042-0.032l-0-0c-0-0.001-0-0.003-0-0.005 0-0.019 0.014-0.035 0.033-0.038l0-0z"></path>
<path fill="#5e6161" d="M12.272 4.873h-0.15v-0.094h0.408v0.094h-0.15v0.37h-0.108z"></path>
<path fill="#5e6161" d="M12.591 4.78h0.173c0.025 0 0.049 0.004 0.072 0.010l-0.002-0c0.020 0.009 0.037 0.020 0.052 0.033l-0-0c0.013 0.013 0.024 0.029 0.032 0.045l0 0.001c0.005 0.017 0.008 0.036 0.009 0.056l0 0c0 0.002 0 0.004 0 0.006 0 0.027-0.007 0.052-0.019 0.075l0-0.001c-0.014 0.023-0.033 0.042-0.056 0.056l-0.001 0 0.103 0.187h-0.117l-0.084-0.169h-0.056v0.169h-0.103v-0.468zM12.755 4.99c0.001 0 0.002 0 0.003 0 0.017 0 0.033-0.007 0.044-0.019l0-0c0.010-0.011 0.017-0.026 0.019-0.042l0-0c0-0.001 0-0.002 0-0.003 0-0.017-0.007-0.033-0.019-0.044l-0-0c-0.012-0.011-0.028-0.018-0.046-0.019h-0.066v0.122h0.066z"></path>
<path fill="#5e6161" d="M13.144 4.78h0.117l0.169 0.464h-0.113l-0.038-0.108h-0.164l-0.038 0.108h-0.108zM13.256 5.056l-0.056-0.173-0.056 0.173z"></path>
<path fill="#5e6161" d="M13.481 4.78h0.098l0.201 0.3v-0.3h0.103v0.464h-0.094l-0.206-0.309v0.309h-0.103z"></path>
<path fill="#5e6161" d="M14.016 5.107c0.007 0.007 0.014 0.013 0.023 0.018l0 0c0.009 0.005 0.019 0.014 0.028 0.019s0.020 0.010 0.031 0.014l0.002 0c0.009 0.003 0.020 0.005 0.031 0.005 0.002 0 0.004-0 0.007-0h-0c0.001 0 0.002 0 0.004 0 0.007 0 0.014-0.002 0.020-0.005l-0 0c0.009 0 0.014-0.005 0.023-0.009 0.005-0.005 0.014-0.009 0.014-0.014 0.003-0.005 0.005-0.011 0.005-0.018 0-0.002-0-0.004-0-0.005l0 0c0-0 0-0 0-0 0-0.018-0.009-0.033-0.023-0.042l-0-0c-0.023-0.011-0.049-0.021-0.077-0.028l-0.003-0c-0.018-0.004-0.033-0.010-0.047-0.019l0.001 0c-0.014-0.009-0.026-0.018-0.038-0.028l0 0c-0.010-0.010-0.018-0.023-0.023-0.037l-0-0.001c-0.006-0.014-0.009-0.030-0.009-0.046v-0c0.001-0.020 0.004-0.040 0.010-0.058l-0 0.002c0.007-0.019 0.018-0.034 0.033-0.046l0-0c0.028-0.027 0.066-0.043 0.108-0.043 0.007 0 0.013 0 0.020 0.001l-0.001-0c0.022 0 0.043 0.004 0.062 0.010l-0.001-0c0.018 0.004 0.033 0.010 0.047 0.019l-0.001-0c0.013 0.006 0.023 0.012 0.033 0.019l-0.001-0 0.019 0.019-0.061 0.066c-0.005-0.006-0.011-0.010-0.018-0.014l-0-0c-0.007-0.005-0.014-0.010-0.023-0.014l-0.001-0c-0.008-0.005-0.018-0.008-0.028-0.009l-0-0c-0.008-0.003-0.017-0.005-0.026-0.005-0.002 0-0.005 0-0.007 0l0-0c-0.001-0-0.002-0-0.004-0-0.007 0-0.014 0.002-0.020 0.005l0-0c-0.008 0-0.014 0.004-0.019 0.009l-0 0-0.014 0.014c-0.005 0.005-0.005 0.009-0.005 0.019 0.001 0.016 0.010 0.030 0.023 0.037l0 0c0.020 0.011 0.044 0.019 0.069 0.023l0.001 0c0.020 0.005 0.037 0.011 0.053 0.019l-0.001-0.001c0.016 0.008 0.030 0.017 0.042 0.028l-0-0c0.013 0.012 0.024 0.026 0.032 0.041l0 0.001c0.009 0.017 0.014 0.037 0.014 0.059 0 0.001 0 0.002-0 0.002v-0c0 0.001 0 0.001 0 0.002 0 0.020-0.005 0.039-0.014 0.055l0-0.001c-0.010 0.018-0.023 0.033-0.037 0.046l-0 0c-0.015 0.014-0.034 0.024-0.056 0.028l-0.001 0c-0.021 0.005-0.044 0.008-0.069 0.009l-0.001 0c-0.003 0-0.007 0-0.011 0-0.019 0-0.038-0.002-0.056-0.005l0.002 0c-0.019-0.004-0.037-0.010-0.052-0.019l0.001 0c-0.014-0.009-0.028-0.014-0.042-0.023-0.012-0.008-0.023-0.018-0.033-0.028l-0-0z"></path>
<path fill="#5e6161" d="M14.39 4.78h0.169c0.002-0 0.003-0 0.005-0 0.047 0 0.089 0.018 0.121 0.047l-0-0c0.013 0.012 0.023 0.028 0.028 0.046l0 0.001c0.005 0.017 0.008 0.036 0.009 0.056l0 0c0 0.001 0 0.001 0 0.002 0 0.023-0.005 0.045-0.014 0.064l0-0.001c-0.009 0.018-0.020 0.033-0.033 0.046v0c-0.014 0.013-0.031 0.023-0.051 0.028l-0.001 0c-0.018 0.005-0.039 0.009-0.061 0.009h-0.070v0.164h-0.104zM14.554 4.995c0.001 0 0.002 0 0.003 0 0.017 0 0.033-0.007 0.044-0.019l0-0c0.010-0.013 0.017-0.029 0.019-0.046l0-0c0-0 0-0.001 0-0.002 0-0.035-0.029-0.064-0.064-0.064-0.001 0-0.001 0-0.002 0h-0.061v0.131z"></path>
<path fill="#5e6161" d="M14.868 4.78h0.117l0.169 0.464h-0.117l-0.038-0.108h-0.164l-0.038 0.108h-0.108zM14.981 5.056l-0.056-0.173-0.056 0.173z"></path>
<path fill="#5e6161" d="M15.206 4.78h0.173c0.025 0 0.049 0.004 0.072 0.010l-0.002-0c0.020 0.009 0.037 0.020 0.052 0.033l-0-0c0.013 0.013 0.024 0.029 0.032 0.045l0 0.001c0.005 0.017 0.008 0.036 0.009 0.056l0 0c0 0.002 0 0.004 0 0.006 0 0.027-0.007 0.052-0.019 0.075l0-0.001c-0.014 0.023-0.033 0.042-0.056 0.056l-0.001 0 0.103 0.187h-0.117l-0.084-0.169h-0.056v0.169h-0.103v-0.468zM15.374 4.99c0.001 0 0.002 0 0.003 0 0.017 0 0.033-0.007 0.044-0.019l0-0c0.010-0.011 0.017-0.026 0.019-0.042l0-0c0-0.001 0-0.002 0-0.003 0-0.017-0.007-0.033-0.019-0.044l-0-0c-0.012-0.011-0.028-0.018-0.046-0.019h-0.066v0.122h0.066z"></path>
<path fill="#5e6161" d="M15.627 4.78h0.319v0.094h-0.211v0.089h0.164v0.089h-0.164v0.098h0.229v0.094h-0.332v-0.464z"></path>
<path fill="#5e6161" d="M16.030 4.78h0.098l0.201 0.3v-0.3h0.103v0.464h-0.094l-0.206-0.309v0.309h-0.103z"></path>
<path fill="#5e6161" d="M16.949 5.159c-0.010 0.015-0.023 0.027-0.037 0.037l-0 0c-0.013 0.013-0.029 0.024-0.045 0.032l-0.001 0c-0.016 0.008-0.035 0.014-0.055 0.018l-0.002 0c-0.018 0.005-0.039 0.008-0.060 0.009l-0.001 0c-0.002 0-0.005 0-0.007 0-0.033 0-0.064-0.007-0.093-0.019l0.001 0.001c-0.029-0.012-0.054-0.030-0.075-0.051l-0-0c-0.021-0.020-0.037-0.045-0.046-0.074l-0-0.001c-0.011-0.029-0.018-0.063-0.019-0.098v-0c-0-0.001-0-0.003-0-0.004 0-0.034 0.007-0.066 0.019-0.096l-0.001 0.002c0.012-0.031 0.027-0.057 0.047-0.080l-0 0c0.021-0.021 0.046-0.038 0.073-0.051l0.002-0.001c0.026-0.012 0.057-0.019 0.089-0.019 0.003 0 0.007 0 0.010 0l-0-0c0 0 0 0 0 0 0.041 0 0.079 0.009 0.114 0.024l-0.002-0.001c0.034 0.014 0.061 0.039 0.079 0.069l0 0.001-0.070 0.070c-0.013-0.020-0.030-0.036-0.051-0.046l-0.001-0c-0.018-0.012-0.039-0.019-0.063-0.019-0.003 0-0.005 0-0.007 0l0-0c-0.020 0.001-0.040 0.004-0.058 0.010l0.002-0c-0.017 0.007-0.031 0.018-0.042 0.033l-0 0c-0.009 0.013-0.019 0.028-0.027 0.044l-0.001 0.002c-0.006 0.017-0.009 0.036-0.009 0.056s0.003 0.039 0.010 0.057l-0-0.001c0.005 0.019 0.015 0.034 0.028 0.046l0 0c0.021 0.026 0.053 0.043 0.088 0.043 0.004 0 0.007-0 0.011-0l-0 0c0.003 0 0.006 0 0.010 0 0.012 0 0.023-0.002 0.033-0.005l-0.001 0c0.013-0.004 0.024-0.009 0.034-0.015l-0.001 0.001c0.009-0.005 0.017-0.011 0.023-0.019l0.023-0.023z"></path>
<path fill="#5e6161" d="M17.127 5.051l-0.164-0.272h0.117l0.103 0.173 0.098-0.173h0.113l-0.164 0.272v0.197h-0.108v-0.197z"></path>
<path fill="#7f8080" d="M16.935 2.118c0 1.17-0.948 2.118-2.118 2.118s-2.118-0.948-2.118-2.118c0-1.17 0.948-2.118 2.118-2.118s2.118 0.948 2.118 2.118z"></path>
<path fill="#344e5d" d="M15.979 3.463c-0.051-0.001-0.097-0.020-0.131-0.052l0 0-0.881-0.881c-0.033-0.033-0.053-0.079-0.053-0.129 0-0.101 0.082-0.182 0.182-0.182 0.050 0 0.096 0.020 0.129 0.053l0.881 0.881c0.033 0.033 0.053 0.079 0.053 0.129s-0.020 0.096-0.053 0.129l0-0c-0.030 0.032-0.072 0.052-0.119 0.052-0.003 0-0.005-0-0.008-0h0z"></path>
<path fill="#1198d6" d="M15.087 1.296c0.302 0.302 0.302 0.791 0 1.093s-0.791 0.302-1.093 0c-0.302-0.302-0.302-0.791 0-1.093s0.791-0.302 1.093 0z"></path>
<path fill="#fff" d="M14.54 1.068c0.426 0.002 0.77 0.347 0.77 0.773 0 0.427-0.346 0.773-0.773 0.773s-0.773-0.346-0.773-0.773c0-0.214 0.087-0.408 0.228-0.548l0-0c0.141-0.139 0.335-0.224 0.548-0.225h0zM14.54 0.773c-0.001 0-0.001 0-0.002 0-0.294 0-0.561 0.12-0.753 0.314l-0 0c-0.193 0.194-0.313 0.461-0.313 0.757s0.12 0.563 0.313 0.757l-0-0c0.193 0.194 0.46 0.314 0.754 0.314s0.562-0.12 0.754-0.314l0-0c0.193-0.194 0.313-0.461 0.313-0.757s-0.12-0.563-0.313-0.757l0 0c-0.191-0.194-0.456-0.314-0.749-0.314-0.002 0-0.004 0-0.005 0h0z"></path>
<path fill="#5e6161" d="M20.566 29.376h0.169c0.002-0 0.003-0 0.005-0 0.047 0 0.089 0.018 0.121 0.047l-0-0c0.013 0.012 0.023 0.028 0.028 0.046l0 0.001c0.005 0.017 0.009 0.036 0.009 0.056l0 0c0 0.001 0 0.001 0 0.002 0 0.023-0.005 0.045-0.014 0.064l0-0.001c-0.009 0.018-0.020 0.033-0.033 0.047v0c-0.014 0.013-0.031 0.023-0.051 0.028l-0.001 0c-0.018 0.006-0.039 0.009-0.061 0.009h-0.070v0.164h-0.104zM20.73 29.591c0.001 0 0.002 0 0.003 0 0.017 0 0.033-0.007 0.044-0.019l0-0c0.010-0.013 0.017-0.029 0.019-0.046l0-0c0-0 0-0.001 0-0.002 0-0.035-0.029-0.064-0.064-0.064-0.001 0-0.001 0-0.002 0h-0.061v0.131z"></path>
<path fill="#5e6161" d="M21.194 29.854c-0.002 0-0.004 0-0.007 0-0.031 0-0.061-0.007-0.088-0.019l0.001 0.001c-0.029-0.012-0.054-0.030-0.075-0.052l-0-0c-0.022-0.022-0.039-0.049-0.051-0.078l-0.001-0.002c-0.012-0.026-0.019-0.057-0.019-0.089 0-0.003 0-0.007 0-0.010l-0 0c-0-0.001-0-0.003-0-0.004 0-0.034 0.007-0.066 0.019-0.096l-0.001 0.002c0.014-0.031 0.031-0.057 0.052-0.080l-0 0c0.021-0.021 0.046-0.038 0.073-0.051l0.002-0.001c0.028-0.012 0.060-0.019 0.094-0.019s0.066 0.007 0.095 0.019l-0.002-0.001c0.029 0.012 0.054 0.030 0.075 0.052l0 0c0.022 0.022 0.039 0.049 0.051 0.078l0.001 0.002c0.012 0.026 0.019 0.057 0.019 0.089 0 0.003-0 0.007-0 0.010l0-0c0 0.001 0 0.003 0 0.005 0 0.034-0.007 0.066-0.019 0.096l0.001-0.002c-0.014 0.031-0.031 0.057-0.052 0.080l0-0c-0.021 0.021-0.046 0.038-0.073 0.051l-0.002 0.001c-0.028 0.011-0.060 0.017-0.093 0.019l-0.001 0zM21.194 29.751c0.021-0 0.040-0.005 0.057-0.014l-0.001 0c0.016-0.010 0.030-0.021 0.042-0.033l-0 0c0.009-0.013 0.019-0.028 0.027-0.044l0.001-0.002c0.006-0.017 0.009-0.036 0.009-0.056s-0.003-0.039-0.010-0.057l0 0.001c-0.005-0.018-0.015-0.034-0.028-0.046l-0-0c-0.021-0.026-0.053-0.043-0.088-0.043-0.004 0-0.007 0-0.011 0l0-0c-0.020 0.001-0.040 0.004-0.058 0.010l0.002-0c-0.019 0.005-0.028 0.019-0.042 0.033-0.009 0.013-0.019 0.028-0.027 0.044l-0.001 0.002c-0.006 0.017-0.009 0.036-0.009 0.056s0.003 0.039 0.010 0.057l-0-0.001c0.005 0.018 0.015 0.034 0.028 0.046l0 0c0.011 0.014 0.025 0.026 0.042 0.033l0.001 0c0.013 0.009 0.029 0.015 0.046 0.015 0.004 0 0.007-0 0.011-0.001l-0 0z"></path>
<path fill="#5e6161" d="M21.508 29.376h0.103v0.37h0.221v0.094h-0.329v-0.464z"></path>
<path fill="#5e6161" d="M21.897 29.376h0.103v0.464h-0.103z"></path>
<path fill="#5e6161" d="M22.511 29.755c-0.010 0.015-0.023 0.027-0.037 0.037l-0 0c-0.013 0.013-0.029 0.024-0.045 0.032l-0.001 0c-0.016 0.008-0.035 0.014-0.055 0.018l-0.002 0c-0.018 0.005-0.039 0.009-0.060 0.009l-0.001 0c-0.002 0-0.005 0-0.007 0-0.033 0-0.064-0.007-0.093-0.019l0.001 0.001c-0.029-0.012-0.054-0.030-0.075-0.052l-0-0c-0.021-0.020-0.037-0.045-0.046-0.074l-0-0.001c-0.011-0.029-0.018-0.063-0.019-0.098v-0c-0-0.001-0-0.003-0-0.004 0-0.034 0.007-0.066 0.019-0.096l-0.001 0.002c0.012-0.031 0.027-0.057 0.047-0.080l-0 0c0.021-0.021 0.046-0.038 0.073-0.051l0.002-0.001c0.026-0.012 0.057-0.019 0.089-0.019 0.003 0 0.007 0 0.010 0l-0-0c0 0 0 0 0 0 0.041 0 0.079 0.009 0.114 0.024l-0.002-0.001c0.034 0.014 0.061 0.039 0.079 0.069l0 0.001-0.070 0.070c-0.013-0.020-0.030-0.036-0.051-0.046l-0.001-0c-0.018-0.012-0.039-0.019-0.063-0.019-0.003 0-0.005 0-0.007 0l0-0c-0.020 0.001-0.040 0.004-0.058 0.010l0.002-0c-0.017 0.007-0.031 0.018-0.042 0.033l-0 0c-0.009 0.013-0.019 0.028-0.027 0.044l-0.001 0.002c-0.006 0.017-0.009 0.036-0.009 0.056s0.003 0.039 0.010 0.057l-0-0.001c0.005 0.018 0.015 0.034 0.028 0.046l0 0c0.021 0.026 0.053 0.043 0.088 0.043 0.004 0 0.007-0 0.011-0l-0 0c0.003 0 0.006 0 0.010 0 0.012 0 0.023-0.002 0.033-0.005l-0.001 0c0.013-0.004 0.024-0.009 0.034-0.015l-0.001 0.001c0.009-0.005 0.017-0.012 0.023-0.019l0.023-0.023z"></path>
<path fill="#5e6161" d="M22.567 29.376h0.103v0.464h-0.103z"></path>
<path fill="#5e6161" d="M22.764 29.376h0.319v0.094h-0.211v0.089h0.164v0.089h-0.164v0.098h0.229v0.094h-0.332v-0.464z"></path>
<path fill="#5e6161" d="M23.205 29.699c0.007 0.007 0.014 0.013 0.023 0.018l0 0c0.009 0.005 0.019 0.014 0.028 0.019s0.020 0.010 0.031 0.014l0.002 0c0.009 0.003 0.020 0.005 0.031 0.005 0.002 0 0.004-0 0.007-0h-0c0.001 0 0.002 0 0.004 0 0.007 0 0.014-0.002 0.020-0.005l-0 0c0.009 0 0.014-0.005 0.023-0.009l0.014-0.014c0.003-0.005 0.005-0.011 0.005-0.018 0-0.002-0-0.004-0-0.005l0 0c0-0 0-0 0-0 0-0.018-0.009-0.033-0.023-0.042l-0-0c-0.023-0.011-0.049-0.021-0.077-0.028l-0.003-0c-0.018-0.004-0.033-0.010-0.047-0.019l0.001 0c-0.014-0.009-0.026-0.018-0.038-0.028l0 0c-0.010-0.010-0.018-0.023-0.023-0.037l-0-0.001c-0.006-0.014-0.009-0.030-0.009-0.046v-0c0.001-0.020 0.004-0.040 0.010-0.058l-0 0.002c0.007-0.019 0.018-0.034 0.033-0.046l0-0c0.028-0.027 0.066-0.043 0.108-0.043 0.007 0 0.013 0 0.020 0.001l-0.001-0c0.022 0 0.043 0.004 0.062 0.010l-0.001-0c0.018 0.004 0.033 0.010 0.047 0.019l-0.001-0c0.013 0.006 0.023 0.012 0.033 0.019l-0.001-0 0.019 0.019-0.061 0.066c-0.005-0.006-0.011-0.010-0.018-0.014l-0-0c-0.007-0.005-0.014-0.010-0.023-0.014l-0.001-0c-0.008-0.005-0.018-0.008-0.028-0.009l-0-0c-0.008-0.003-0.017-0.005-0.026-0.005-0.002 0-0.005 0-0.007 0l0-0c-0.001-0-0.002-0-0.004-0-0.007 0-0.014 0.002-0.020 0.005l0-0c-0.009 0.005-0.014 0.005-0.019 0.009l-0.014 0.014c-0.005 0.005-0.005 0.009-0.005 0.019 0.001 0.016 0.010 0.030 0.023 0.037l0 0c0.020 0.011 0.044 0.019 0.069 0.023l0.001 0c0.020 0.005 0.037 0.011 0.053 0.019l-0.001-0.001c0.016 0.008 0.030 0.017 0.042 0.028l-0-0c0.013 0.012 0.024 0.026 0.032 0.041l0 0.001c0.009 0.017 0.014 0.037 0.014 0.059 0 0.001 0 0.002-0 0.002v-0c0 0.001 0 0.001 0 0.002 0 0.020-0.005 0.039-0.014 0.055l0-0.001c-0.010 0.018-0.023 0.033-0.037 0.046l-0 0c-0.015 0.014-0.034 0.024-0.056 0.028l-0.001 0c-0.018 0.006-0.038 0.010-0.059 0.010-0.004 0-0.008-0-0.011-0l0.001 0c-0.003 0-0.007 0-0.011 0-0.019 0-0.038-0.002-0.056-0.005l0.002 0c-0.019-0.004-0.037-0.010-0.052-0.019l0.001 0c-0.014-0.009-0.028-0.014-0.042-0.023-0.012-0.009-0.023-0.018-0.033-0.028l-0-0z"></path>
<path fill="#344e5d" d="M24.142 26.714c0 1.17-0.948 2.118-2.118 2.118s-2.118-0.948-2.118-2.118c0-1.17 0.948-2.118 2.118-2.118s2.118 0.948 2.118 2.118z"></path>
<path fill="#fff" d="M21.049 25.435h1.776v2.427h-1.776v-2.427z"></path>
<path fill="#7f8080" d="M21.26 26.002h1.359v0.131h-1.359v-0.131z"></path>
<path fill="#7f8080" d="M21.26 25.735h1.359v0.131h-1.359v-0.131z"></path>
<path fill="#7f8080" d="M21.26 26.264h1.359v0.131h-1.359v-0.131z"></path>
<path fill="#7f8080" d="M21.26 26.532h1.359v0.131h-1.359v-0.131z"></path>
<path fill="#7f8080" d="M21.26 26.799h1.359v0.131h-1.359v-0.131z"></path>
<path fill="#7f8080" d="M21.26 27.066h1.359v0.131h-1.359v-0.131z"></path>
<path fill="#7f8080" d="M21.26 27.328h0.801v0.131h-0.801v-0.131z"></path>
<path fill="#e61d46" d="M23.237 27.272v-1.359h-0.295v1.359z"></path>
<path fill="#d3d3d3" d="M23.237 27.323l-0.145 0.197-0.15-0.197z"></path>
<path fill="#f8c963" d="M23.237 25.861v-0.15c-0-0.054-0.044-0.098-0.098-0.098h-0.098c-0.054 0-0.098 0.044-0.098 0.098v0.15z"></path>
<path fill="#5e6161" d="M33.003 12.315c0.007 0.007 0.014 0.013 0.023 0.018l0 0c0.009 0.005 0.019 0.014 0.028 0.019s0.020 0.010 0.031 0.014l0.002 0.001c0.009 0.003 0.020 0.005 0.031 0.005 0.002 0 0.004-0 0.007-0h-0c0.001 0 0.002 0 0.004 0 0.007 0 0.014-0.002 0.020-0.005l-0 0c0.009 0 0.014-0.005 0.023-0.009l0.014-0.014c0.003-0.005 0.005-0.011 0.005-0.018 0-0.002-0-0.004-0-0.005l0 0c0-0 0-0 0-0 0-0.018-0.009-0.033-0.023-0.042l-0-0c-0.023-0.011-0.049-0.021-0.077-0.028l-0.003-0.001c-0.018-0.004-0.033-0.010-0.047-0.019l0.001 0c-0.014-0.009-0.026-0.018-0.038-0.028l0 0c-0.010-0.010-0.018-0.023-0.023-0.037l-0-0.001c-0.005-0.014-0.009-0.030-0.009-0.046v-0c0.001-0.020 0.004-0.040 0.010-0.058l-0 0.002c0.007-0.019 0.018-0.034 0.033-0.046l0-0c0.028-0.027 0.066-0.043 0.108-0.043 0.007 0 0.013 0 0.020 0.001l-0.001-0c0.022 0 0.043 0.004 0.062 0.010l-0.001-0c0.018 0.004 0.033 0.010 0.047 0.019l-0.001-0c0.013 0.006 0.023 0.012 0.033 0.019l-0.001-0 0.019 0.019-0.061 0.066c-0.005-0.006-0.011-0.010-0.018-0.014l-0-0c-0.007-0.005-0.014-0.010-0.023-0.014l-0.001-0c-0.008-0.005-0.018-0.008-0.028-0.009l-0-0c-0.008-0.003-0.017-0.005-0.026-0.005-0.002 0-0.005 0-0.007 0l0-0c-0.001-0-0.002-0-0.004-0-0.007 0-0.014 0.002-0.020 0.005l0-0c-0.008 0-0.014 0.004-0.019 0.009l-0 0-0.014 0.014c-0.005 0.005-0.005 0.009-0.005 0.019 0.001 0.016 0.010 0.030 0.023 0.037l0 0c0.020 0.011 0.044 0.019 0.069 0.023l0.001 0c0.020 0.005 0.037 0.011 0.053 0.019l-0.001-0.001c0.016 0.008 0.030 0.017 0.042 0.028l-0-0c0.013 0.012 0.024 0.026 0.032 0.041l0 0.001c0.009 0.017 0.014 0.037 0.014 0.059 0 0.001 0 0.002-0 0.002v-0c0 0.001 0 0.001 0 0.002 0 0.020-0.005 0.039-0.014 0.055l0-0.001c-0.010 0.018-0.023 0.033-0.037 0.046l-0 0c-0.015 0.014-0.034 0.024-0.056 0.028l-0.001 0c-0.018 0.006-0.038 0.010-0.059 0.010-0.004 0-0.008-0-0.011-0l0.001 0c-0.003 0-0.007 0-0.011 0-0.019 0-0.038-0.002-0.056-0.005l0.002 0c-0.019-0.004-0.037-0.010-0.052-0.019l0.001 0c-0.014-0.009-0.028-0.014-0.042-0.023-0.012-0.009-0.023-0.018-0.033-0.028l-0-0z"></path>
<path fill="#5e6161" d="M33.476 12.080h-0.15v-0.094h0.408v0.094h-0.15v0.37h-0.108z"></path>
<path fill="#5e6161" d="M33.851 11.986h0.117l0.169 0.464h-0.117l-0.038-0.108h-0.164l-0.038 0.108h-0.112zM33.964 12.263l-0.056-0.173-0.056 0.173z"></path>
<path fill="#5e6161" d="M34.188 11.986h0.098l0.202 0.3v-0.3h0.103v0.464h-0.094l-0.206-0.309v0.309h-0.103v-0.464z"></path>
<path fill="#5e6161" d="M34.685 11.986h0.173c0.002-0 0.004-0 0.006-0 0.033 0 0.065 0.005 0.095 0.015l-0.002-0.001c0.030 0.010 0.057 0.024 0.080 0.043l-0.001-0c0.023 0.020 0.041 0.045 0.051 0.074l0 0.001c0.012 0.027 0.019 0.059 0.019 0.093 0 0.004-0 0.007-0 0.011l0-0.001c0 0.003 0 0.006 0 0.010 0 0.032-0.007 0.063-0.019 0.090l0.001-0.001c-0.012 0.028-0.030 0.051-0.051 0.070l-0 0c-0.022 0.019-0.049 0.033-0.078 0.042l-0.002 0c-0.029 0.009-0.063 0.014-0.098 0.014h-0.173zM34.854 12.357c0.002 0 0.005 0 0.008 0 0.038 0 0.073-0.014 0.1-0.038l-0 0c0.023-0.024 0.038-0.057 0.038-0.093 0-0.002-0-0.004-0-0.005v0c-0-0.020-0.004-0.039-0.010-0.057l0 0.001c-0.011-0.036-0.039-0.064-0.074-0.075l-0.001-0c-0.020-0.006-0.042-0.009-0.066-0.009h-0.066v0.276h0.070z"></path>
<path fill="#5e6161" d="M35.299 11.986h0.117l0.169 0.464h-0.117l-0.038-0.108h-0.164l-0.038 0.108h-0.112zM35.407 12.263l-0.056-0.173-0.056 0.173z"></path>
<path fill="#5e6161" d="M35.636 11.986h0.173c0.025 0 0.049 0.004 0.072 0.010l-0.002-0c0.020 0.009 0.037 0.020 0.052 0.033l-0-0c0.013 0.013 0.024 0.029 0.032 0.045l0 0.001c0.005 0.017 0.008 0.036 0.009 0.056l0 0.001c0 0.002 0 0.004 0 0.006 0 0.027-0.007 0.052-0.019 0.075l0-0.001c-0.014 0.023-0.033 0.042-0.056 0.056l-0.001 0 0.103 0.187h-0.117l-0.084-0.169h-0.056v0.169h-0.103v-0.468zM35.8 12.197c0.001 0 0.002 0 0.003 0 0.017 0 0.033-0.007 0.044-0.019l0-0c0.010-0.011 0.017-0.026 0.019-0.042l0-0c0-0.001 0-0.002 0-0.003 0-0.017-0.007-0.033-0.019-0.044l-0-0c-0.012-0.011-0.029-0.018-0.046-0.019h-0.066v0.122h0.066z"></path>
<path fill="#5e6161" d="M36.058 11.986h0.173c0.002-0 0.004-0 0.006-0 0.033 0 0.065 0.005 0.095 0.015l-0.002-0.001c0.030 0.010 0.057 0.024 0.080 0.043l-0.001-0c0.023 0.020 0.041 0.045 0.051 0.074l0 0.001c0.012 0.027 0.019 0.059 0.019 0.093 0 0.004-0 0.007-0 0.011l0-0.001c0 0.003 0 0.006 0 0.010 0 0.032-0.007 0.063-0.019 0.090l0.001-0.001c-0.012 0.028-0.030 0.051-0.051 0.070l-0 0c-0.022 0.019-0.049 0.033-0.078 0.042l-0.002 0c-0.029 0.009-0.063 0.014-0.098 0.014h-0.173zM36.227 12.357c0.002 0 0.005 0 0.008 0 0.038 0 0.073-0.014 0.1-0.038l-0 0c0.023-0.024 0.038-0.057 0.038-0.093 0-0.002-0-0.004-0-0.005v0c-0-0.020-0.003-0.039-0.010-0.057l0 0.001c-0.011-0.036-0.039-0.064-0.074-0.075l-0.001-0c-0.020-0.006-0.042-0.009-0.066-0.009h-0.066v0.276h0.070z"></path>
<path fill="#5e6161" d="M36.583 12.315c0.007 0.007 0.014 0.013 0.023 0.018l0 0c0.009 0.005 0.019 0.014 0.028 0.019s0.020 0.010 0.031 0.014l0.002 0.001c0.009 0.003 0.020 0.005 0.031 0.005 0.002 0 0.004-0 0.007-0h-0c0.001 0 0.002 0 0.004 0 0.007 0 0.014-0.002 0.020-0.005l-0 0c0.009 0 0.014-0.005 0.023-0.009l0.014-0.014c0.003-0.005 0.005-0.011 0.005-0.018 0-0.002-0-0.004-0-0.005l0 0c0-0 0-0 0-0 0-0.018-0.009-0.033-0.023-0.042l-0-0c-0.023-0.011-0.049-0.021-0.077-0.028l-0.003-0.001c-0.018-0.004-0.033-0.010-0.047-0.019l0.001 0c-0.014-0.009-0.026-0.018-0.038-0.028l0 0c-0.010-0.010-0.018-0.023-0.023-0.037l-0-0.001c-0.005-0.014-0.009-0.030-0.009-0.046v-0c0.001-0.020 0.004-0.040 0.010-0.058l-0 0.002c0.007-0.019 0.018-0.034 0.033-0.046l0-0c0.028-0.027 0.066-0.043 0.108-0.043 0.007 0 0.013 0 0.020 0.001l-0.001-0c0.022 0 0.043 0.004 0.062 0.010l-0.001-0c0.018 0.004 0.033 0.010 0.047 0.019l-0.001-0c0.013 0.006 0.023 0.012 0.033 0.019l-0.001-0 0.019 0.019-0.061 0.066c-0.005-0.006-0.011-0.010-0.018-0.014l-0-0c-0.007-0.005-0.014-0.010-0.023-0.014l-0.001-0c-0.008-0.005-0.018-0.008-0.028-0.009l-0-0c-0.008-0.003-0.017-0.005-0.026-0.005-0.002 0-0.005 0-0.007 0l0-0c-0.001-0-0.002-0-0.004-0-0.007 0-0.014 0.002-0.020 0.005l0-0c-0.008 0-0.014 0.004-0.019 0.009l-0 0-0.014 0.014c-0.005 0.005-0.005 0.009-0.005 0.019 0.001 0.016 0.010 0.030 0.023 0.037l0 0c0.020 0.011 0.044 0.019 0.069 0.023l0.001 0c0.020 0.005 0.037 0.011 0.053 0.019l-0.001-0.001c0.016 0.008 0.030 0.017 0.042 0.028l-0-0c0.013 0.012 0.024 0.026 0.032 0.041l0 0.001c0.009 0.017 0.014 0.037 0.014 0.059 0 0.001 0 0.002-0 0.002v-0c0 0.001 0 0.001 0 0.002 0 0.020-0.005 0.039-0.014 0.055l0-0.001c-0.010 0.018-0.023 0.033-0.037 0.046l-0 0c-0.015 0.014-0.034 0.024-0.056 0.028l-0.001 0c-0.018 0.006-0.038 0.010-0.059 0.010-0.004 0-0.008-0-0.011-0l0.001 0c-0.003 0-0.007 0-0.011 0-0.019 0-0.038-0.002-0.056-0.005l0.002 0c-0.019-0.004-0.037-0.010-0.052-0.019l0.001 0c-0.014-0.009-0.028-0.014-0.042-0.023-0.012-0.008-0.023-0.018-0.033-0.028l-0-0z"></path>
<path fill="#1198d6" d="M37.033 9.325c0 1.17-0.948 2.118-2.118 2.118s-2.118-0.948-2.118-2.118c0-1.17 0.948-2.118 2.118-2.118s2.118 0.948 2.118 2.118z"></path>
<path fill="#d77a1d" d="M35.782 10.675h-1.729c-0.124-0-0.225-0.101-0.225-0.225v0-2.427c0-0.124 0.101-0.225 0.225-0.225h1.729c0.124 0 0.225 0.101 0.225 0.225v0 2.427c-0.002 0.124-0.101 0.223-0.225 0.225h-0z"></path>
<path fill="#fff" d="M34.029 8.036h1.776v2.427h-1.776v-2.427z"></path>
<path fill="#344e5d" d="M35.257 7.671h-0.886v0.333c0.001 0.112 0.092 0.202 0.204 0.202 0.001 0 0.001 0 0.002 0h0.679c0.001 0 0.001 0 0.002 0 0.112 0 0.203-0.090 0.204-0.201v-0.333z"></path>
<path fill="#7f8080" d="M34.235 8.599h1.359v0.131h-1.359v-0.131z"></path>
<path fill="#7f8080" d="M34.235 8.866h1.359v0.131h-1.359v-0.131z"></path>
<path fill="#7f8080" d="M34.235 9.133h1.359v0.131h-1.359v-0.131z"></path>
<path fill="#7f8080" d="M34.235 9.4h1.359v0.131h-1.359v-0.131z"></path>
<path fill="#7f8080" d="M34.235 9.667h1.359v0.131h-1.359v-0.131z"></path>
</svg>
