<!-- Generated by IcoMoon.io -->
<svg version="1.1" xmlns="http://www.w3.org/2000/svg" width="37" height="32" viewBox="0 0 37 32">
<title>managementconsulting</title>
<path fill="#a8e3f7" d="M30.436 18.318c0 7.556-6.813 13.682-15.218 13.682s-15.218-6.125-15.218-13.682c0-7.556 6.813-13.682 15.218-13.682s15.218 6.125 15.218 13.682z"></path>
<path fill="#e6af78" d="M18.085 20.504v-2.018h-5.771v2.018l2.885 2.306z"></path>
<path fill="#eff2fa" d="M22.547 21.448l-3.968-0.839c-0.063-0.014-0.119-0.035-0.17-0.062l0.004 0.002-3.213 1.685-3.088-1.766c-0.081 0.068-0.179 0.118-0.287 0.141l-0.004 0.001-3.967 0.839c-0.579 0.123-0.989 0.587-0.989 1.122v2.257c0.019 0.323 0.285 0.577 0.61 0.577 0.011 0 0.022-0 0.032-0.001l-0.002 0h15.389c0.009 0 0.020 0.001 0.031 0.001 0.326 0 0.592-0.255 0.61-0.576l0-0.002v-2.257c0-0.535-0.409-0.999-0.988-1.122z"></path>
<path fill="#d29b6e" d="M12.315 18.487v2.129c3.635 1.177 5.771-1.769 5.771-1.769v-0.359h-5.771z"></path>
<path fill="#f0c087" d="M11.032 11.857l0.279 5.526c0.037 0.548 0.331 1.020 0.761 1.301l0.006 0.004 1.326 0.894c0.322 0.217 0.719 0.346 1.146 0.346 0.003 0 0.006 0 0.009-0h1.283c0.003 0 0.006 0 0.009 0 0.427 0 0.823-0.129 1.153-0.351l-0.007 0.005 1.326-0.894c0.436-0.285 0.73-0.757 0.767-1.3l0-0.005 0.279-5.526z"></path>
<path fill="#e6af78" d="M14.238 13.010c1.282 0 3.206-0.288 3.662-1.153h-6.868l0.279 5.526c0.037 0.548 0.331 1.020 0.761 1.301l0.006 0.004 1.326 0.894c0.322 0.217 0.719 0.346 1.146 0.346 0.003 0 0.006 0 0.009-0h0.641c-0.641 0-1.924-1.153-1.924-2.594v-3.459c0.055-0.488 0.465-0.864 0.963-0.865h0z"></path>
<path fill="#e4eaf6" d="M9.218 23.534l-2.077-1.678c-0.17 0.189-0.274 0.439-0.276 0.714v2.258c0.019 0.323 0.285 0.577 0.61 0.577 0.011 0 0.022-0 0.032-0.001l-0.002 0h2.244v-0.799c-0.006-0.435-0.211-0.82-0.529-1.070l-0.003-0.002z"></path>
<path fill="#e4eaf6" d="M21.182 23.534l2.077-1.678c0.17 0.189 0.274 0.439 0.276 0.714v2.258c-0.019 0.323-0.285 0.577-0.61 0.577-0.011 0-0.022-0-0.032-0.001l0.002 0h-2.244v-0.799c0.006-0.435 0.211-0.82 0.529-1.070l0.003-0.002z"></path>
<path fill="#5b5d6e" d="M16.002 25.404h-1.603l0.2-2.594h1.202z"></path>
<path fill="#515262" d="M16.002 22.233h-1.603v0.542c0.010 0.18 0.159 0.323 0.341 0.323 0.006 0 0.012-0 0.018-0l-0.001 0h0.886c0.005 0 0.011 0 0.017 0 0.182 0 0.331-0.142 0.341-0.322l0-0.001v-0.542z"></path>
<path fill="#e4eaf6" d="M12.27 19.862l2.93 2.371c-0.7 0.345-1.301 0.718-1.861 1.143l0.028-0.020c-0.072 0.054-0.162 0.087-0.261 0.087-0.16 0-0.299-0.086-0.375-0.214l-0.001-0.002-1.377-2.723 0.436-0.587c0.063-0.079 0.16-0.128 0.268-0.128 0.081 0 0.155 0.028 0.214 0.075l-0.001-0.001z"></path>
<path fill="#e4eaf6" d="M18.13 19.862l-2.931 2.371c0.7 0.345 1.301 0.718 1.861 1.143l-0.028-0.020c0.072 0.054 0.162 0.087 0.261 0.087 0.16 0 0.299-0.086 0.375-0.214l0.001-0.002 1.377-2.723-0.436-0.587c-0.063-0.079-0.16-0.129-0.268-0.129-0.081 0-0.155 0.028-0.214 0.075l0.001-0.001z"></path>
<path fill="#785550" d="M17.144 9.947l0.3 1.91c1.372 0.247 1.57 2.182 1.598 2.735 0.006 0.107 0.044 0.203 0.102 0.283l-0.001-0.001 0.523 0.73s-0.179-1.207 0.641-2.018c0.001 0 0.282-4.792-3.164-3.639z"></path>
<path fill="#f0c087" d="M19.989 15.481l-0.362 1.302c-0.051 0.154-0.194 0.263-0.361 0.263-0.004 0-0.009-0-0.013-0l0.001 0c-0.005 0-0.010 0-0.015 0-0.182 0-0.333-0.13-0.367-0.302l-0-0.002-0.185-1.331c-0.049-0.356 0.259-0.671 0.659-0.671v0c0.432 0 0.749 0.365 0.645 0.742z"></path>
<path fill="#694b4b" d="M11.339 9.431l0.474 0.291c-2.144 1.423-1.743 3.864-1.743 3.864 0.641 0.576 0.641 2.018 0.641 2.018l0.641-0.576s-0.247-1.665 0.962-2.306c1.122-0.595 2.103-0.288 3.106-0.288 2.685 0 3.436-0.91 3.306-2.018-0.067-0.573-1.042-1.767-3.527-1.729-1.002 0.015-2.885 0.288-3.86 0.745z"></path>
<path fill="#5a4146" d="M11.152 12.181s-0.341-1.207 0.661-2.459c-2.144 1.423-1.743 3.864-1.743 3.864 0.641 0.576 0.641 2.018 0.641 2.018l0.641-0.576s-0.247-1.665 0.962-2.306c1.122-0.595 2.103-0.288 3.106-0.288 0.012 0 0.026 0 0.040 0 0.393 0 0.781-0.026 1.16-0.076l-0.045 0.005c-2.067 0.062-3.286-1.346-5.424-0.181z"></path>
<path fill="#e6af78" d="M10.411 15.481l0.362 1.302c0.051 0.154 0.194 0.263 0.361 0.263 0.004 0 0.009-0 0.013-0l-0.001 0c0.005 0 0.010 0 0.015 0 0.182 0 0.333-0.13 0.367-0.302l0-0.002 0.185-1.331c0.050-0.356-0.259-0.671-0.659-0.671v0c-0.432 0-0.749 0.365-0.645 0.742z"></path>
<path fill="#e4eaf6" d="M19.368 24.828h-2.244c-0.005-0-0.010-0-0.015-0-0.163 0-0.296 0.127-0.305 0.288l-0 0.001v0.288h2.885v-0.288c-0.009-0.161-0.142-0.289-0.305-0.289-0.005 0-0.011 0-0.016 0l0.001-0z"></path>
<path fill="#fdcb6e" d="M29.416 8.908q1.685-0.639 2.66-1.739t0.975-2.396-0.975-2.396-2.66-1.738c-1.060-0.405-2.286-0.64-3.566-0.64-0.035 0-0.070 0-0.105 0.001l0.005-0c-0.030-0-0.064-0-0.099-0-1.281 0-2.506 0.235-3.637 0.663l0.071-0.023q-1.685 0.639-2.66 1.739t-0.975 2.395c0.007 0.793 0.283 1.52 0.742 2.095l-0.005-0.007c0.54 0.688 1.215 1.244 1.988 1.635l0.034 0.015q-0.104 0.224-0.213 0.41c-0.080 0.136-0.166 0.253-0.262 0.361l0.002-0.003q-0.15 0.173-0.233 0.27t-0.27 0.275-0.238 0.232c0-0.006-0.014 0.008-0.041 0.042s-0.043 0.050-0.047 0.046-0.017 0.012-0.041 0.046l-0.036 0.051-0.026 0.046c-0.009 0.016-0.017 0.035-0.020 0.055l-0 0.001c-0.003 0.018-0.005 0.038-0.005 0.058 0 0.001 0 0.001 0 0.002v-0c0 0.001 0 0.001 0 0.002 0 0.021 0.004 0.041 0.011 0.060l-0-0.001c0.013 0.081 0.057 0.149 0.118 0.195l0.001 0.001c0.058 0.046 0.132 0.074 0.213 0.074h0.031q0.518-0.065 0.892-0.149c1.091-0.251 2.055-0.663 2.919-1.215l-0.037 0.022c0.548 0.094 1.179 0.148 1.823 0.149h0.001c0.031 0 0.068 0.001 0.104 0.001 1.279 0 2.503-0.234 3.632-0.662l-0.070 0.023zM23.614 8.129l-0.456 0.289q-0.291 0.177-0.643 0.364l0.363-0.783-1.006-0.522c-0.613-0.306-1.127-0.72-1.539-1.222l-0.006-0.008c-0.332-0.397-0.538-0.91-0.55-1.471l-0-0.002q0-0.951 0.814-1.781t2.194-1.314c0.863-0.307 1.858-0.485 2.895-0.485 0.025 0 0.049 0 0.074 0l-0.004-0c0.021-0 0.045-0 0.070-0 1.037 0 2.032 0.178 2.957 0.504l-0.062-0.019q1.379 0.485 2.193 1.315t0.813 1.781-0.813 1.781-2.193 1.314c-0.863 0.307-1.858 0.485-2.895 0.485-0.025 0-0.050-0-0.075-0l0.004 0c-0.561-0.001-1.11-0.049-1.645-0.139l0.058 0.008z"></path>
<path fill="#1d97c1" d="M36.296 9.252c0.459-0.568 0.736-1.298 0.736-2.093 0-0.818-0.294-1.568-0.782-2.149l0.004 0.005c-0.566-0.697-1.273-1.258-2.079-1.644l-0.036-0.016c0.15 0.422 0.238 0.909 0.238 1.417v0c-0.002 0.879-0.261 1.698-0.705 2.385l0.010-0.017c-0.521 0.8-1.186 1.461-1.965 1.961l-0.026 0.016c-0.787 0.512-1.698 0.924-2.671 1.187l-0.068 0.016c-0.947 0.266-2.035 0.42-3.159 0.42-0.016 0-0.032-0-0.048-0h0.002q-0.311 0-0.912-0.037 2.084 1.23 4.894 1.231c0.645-0.002 1.277-0.056 1.892-0.159l-0.068 0.009c0.828 0.53 1.791 0.942 2.82 1.181l0.062 0.012q0.373 0.084 0.892 0.149c0.008 0.001 0.018 0.001 0.028 0.001 0.076 0 0.145-0.025 0.202-0.067l-0.001 0.001c0.067-0.049 0.116-0.12 0.134-0.203l0-0.002c-0.003-0.037 0-0.058 0.010-0.061s0.008-0.023-0.005-0.060-0.021-0.056-0.021-0.056l-0.026-0.046c-0.012-0.019-0.024-0.036-0.037-0.052l0.001 0.001c-0.013-0.017-0.027-0.032-0.041-0.046l-0-0c-0.010-0.009-0.026-0.025-0.047-0.046s-0.035-0.036-0.041-0.042q-0.052-0.056-0.238-0.233c-0.095-0.088-0.183-0.177-0.266-0.271l-0.003-0.004q-0.083-0.098-0.233-0.27c-0.093-0.106-0.179-0.223-0.253-0.348l-0.006-0.011q-0.109-0.186-0.213-0.41c0.806-0.406 1.481-0.961 2.013-1.634l0.010-0.013z"></path>
</svg>
