<!-- Generated by IcoMoon.io -->
<svg version="1.1" xmlns="http://www.w3.org/2000/svg" width="35" height="32" viewBox="0 0 35 32">
<title>taxationservices</title>
<path fill="#2b8272" d="M0.878 24.14l3.208-3.858c0.012-0.015 0.026-0.029 0.044-0.042 0.096-0.072 0.227-0.063 0.312 0.016l0.001 0.001 6.774 6.371c0.009 0.009 0.018 0.019 0.026 0.030 0.080 0.107 0.076 0.251-0.002 0.351l-0.001 0.002-3.216 3.864c-0.012 0.015-0.026 0.029-0.044 0.042-0.096 0.072-0.227 0.063-0.312-0.016l-0.001-0.001-6.766-6.378c-0.010-0.010-0.021-0.022-0.031-0.035-0.080-0.106-0.073-0.249 0.007-0.347l0.001-0.001z"></path>
<path fill="#4b9587" d="M5.91 22.435l-1.606-1.526c-0.045-0.041-0.113-0.045-0.163-0.008-0.007 0.005-0.013 0.011-0.018 0.017l0.001-0.001-2.711 3.266c-0.040 0.054-0.042 0.129-0 0.185 0.003 0.004 0.006 0.007 0.008 0.010l-0-0 1.606 1.526c0.045 0.041 0.113 0.045 0.163 0.008 0.007-0.005 0.013-0.011 0.018-0.017l-0.001 0.001c0.040-0.054 0.042-0.129 0-0.185-0.003-0.004-0.006-0.007-0.009-0.010l0 0-1.51-1.44 2.538-3.063 1.51 1.44c0.045 0.041 0.113 0.045 0.163 0.008 0.007-0.005 0.013-0.011 0.018-0.017l-0.001 0.001c0.039-0.056 0.040-0.132-0.003-0.189-0.002-0.002-0.003-0.004-0.005-0.006l0 0z"></path>
<path fill="#359685" d="M0.958 22.102l3.549-3.505c0.007-0.007 0.016-0.015 0.026-0.023 0.103-0.078 0.248-0.062 0.332 0.034l0.001 0.001 6.574 7.337c0.003 0.004 0.007 0.009 0.011 0.013 0.084 0.112 0.071 0.267-0.026 0.363l-0.001 0.001-3.549 3.505c-0.007 0.007-0.016 0.015-0.026 0.023-0.103 0.078-0.248 0.062-0.332-0.034l-0.001-0.001-6.574-7.338c-0.001-0.001-0.002-0.002-0.003-0.004-0.086-0.114-0.075-0.271 0.018-0.372l0.001-0.001z"></path>
<path fill="#53a697" d="M4.669 19.245c-0.041-0.049-0.113-0.057-0.165-0.019-0.005 0.004-0.011 0.009-0.015 0.014l0-0-2.997 2.958c-0.048 0.051-0.054 0.129-0.011 0.186 0.002 0.003 0.004 0.005 0.006 0.007l-0-0 1.457 1.697c0.041 0.049 0.113 0.057 0.165 0.019 0.006-0.004 0.011-0.009 0.015-0.014l-0.001 0c0.048-0.051 0.054-0.129 0.011-0.186-0.002-0.003-0.004-0.005-0.006-0.008l0 0-1.363-1.597 2.813-2.771 1.363 1.597c0.041 0.049 0.113 0.057 0.165 0.019 0.005-0.004 0.011-0.009 0.015-0.014l-0 0c0.048-0.051 0.054-0.129 0.011-0.186-0.002-0.003-0.004-0.005-0.006-0.007l0 0s-1.457-1.697-1.457-1.697z"></path>
<path fill="#3db39e" d="M1.569 20.023l3.911-3.171c0.002-0.002 0.005-0.004 0.008-0.006 0.11-0.083 0.266-0.061 0.348 0.049 0.003 0.004 0.006 0.009 0.010 0.014l-0-0.001 5.866 8.377c0.087 0.125 0.064 0.295-0.051 0.393l-0.001 0-3.911 3.171c-0.002 0.002-0.005 0.004-0.008 0.006-0.11 0.083-0.266 0.061-0.348-0.049-0.003-0.004-0.006-0.009-0.010-0.014l0 0.001-5.866-8.377c-0.090-0.124-0.067-0.297 0.051-0.393l0-0z"></path>
<path fill="#81cec0" d="M9.969 23.895c-0.060 0.054-0.072 0.143-0.028 0.21l0 0 0.87 1.242-3.129 2.537-0.87-1.242c-0.001-0.001-0.002-0.003-0.003-0.004-0.045-0.060-0.131-0.072-0.191-0.027-0.001 0-0.001 0.001-0.002 0.001l0-0c-0.060 0.054-0.072 0.143-0.028 0.21l0 0 0.954 1.363c0.001 0.001 0.002 0.003 0.003 0.004 0.045 0.060 0.131 0.072 0.191 0.027 0.001-0 0.001-0.001 0.002-0.001l-0 0 3.353-2.718c0.060-0.054 0.072-0.143 0.028-0.21l-0-0-0.954-1.363c-0.001-0.001-0.002-0.003-0.003-0.004-0.045-0.060-0.131-0.072-0.191-0.027-0.001 0-0.001 0.001-0.002 0.001l0-0zM5.478 17.482l-3.352 2.718c-0.060 0.054-0.072 0.143-0.028 0.21l0 0 0.954 1.363c0.001 0.001 0.002 0.003 0.003 0.004 0.045 0.060 0.131 0.072 0.191 0.027 0.001-0 0.001-0.001 0.002-0.001l-0 0c0.060-0.054 0.072-0.143 0.028-0.21l-0-0-0.87-1.242 3.129-2.537 0.87 1.242c0.001 0.001 0.002 0.003 0.003 0.004 0.045 0.060 0.131 0.072 0.191 0.027 0.001-0 0.001-0.001 0.002-0.001l-0 0c0.060-0.054 0.072-0.143 0.028-0.21l-0-0-0.954-1.363c-0.001-0.001-0.002-0.003-0.003-0.004-0.045-0.060-0.131-0.072-0.192-0.027-0.001 0-0.001 0.001-0.002 0.001l0-0zM8.294 25.756c0.003 0.005 0.008 0.011 0.012 0.017 0.087 0.116 0.252 0.139 0.368 0.052 0.004-0.003 0.009-0.007 0.013-0.010l-0.001 0c0.127-0.104 0.151-0.288 0.055-0.422l-0-0c-0.003-0.005-0.008-0.011-0.012-0.017-0.087-0.116-0.252-0.139-0.368-0.052-0.004 0.003-0.009 0.007-0.013 0.010l0.001-0c-0.123 0.106-0.148 0.288-0.056 0.421l0 0.001zM4.924 19.942c-0.003-0.005-0.008-0.011-0.012-0.017-0.087-0.116-0.252-0.139-0.368-0.052-0.004 0.003-0.009 0.007-0.013 0.010l0.001-0c-0.127 0.104-0.151 0.288-0.055 0.422l0 0c0.003 0.005 0.008 0.011 0.012 0.017 0.087 0.116 0.252 0.139 0.368 0.052 0.004-0.003 0.009-0.007 0.013-0.010l-0.001 0c0.127-0.104 0.151-0.288 0.055-0.421l-0-0z"></path>
<path fill="#81cec0" d="M5.798 21.382c0.015-0.013 0.033-0.027 0.052-0.041 0.723-0.545 1.75-0.4 2.295 0.323 0.021 0.028 0.041 0.057 0.061 0.086l-0.003-0.004c0.57 0.823 0.422 1.94-0.334 2.584l-0.004 0.003c-0.015 0.013-0.033 0.027-0.052 0.041-0.723 0.545-1.75 0.4-2.295-0.323-0.021-0.028-0.041-0.057-0.061-0.086l0.003 0.004c-0.57-0.823-0.422-1.94 0.334-2.584l0.004-0.003z"></path>
<path fill="#f8f8f8" d="M9.8 0.999l15.636-0.359c0.795 0.015 1.085-0.185 1.071 0.679l0.006 19.754c-0.003 0.181-0.163 0.501-0.424 0.896-0.971 1.468-3.498 3.959-4.126 3.947l-11.66 0.008c-0.795-0.015-1.059-0.133-1.045-0.997l-0.007-23.596c0.013-0.864-0.246-0.346 0.549-0.331z"></path>
<path fill="#424c59" d="M26.191 0h-16.416c-0.665 0-1.206 0.582-1.206 1.297v23.846c0 0.715 0.541 1.297 1.206 1.297h12.723c0.108-0.001 0.204-0.047 0.272-0.121l0-0 4.514-4.858c0.070-0.076 0.112-0.178 0.112-0.29 0-0.001 0-0.002 0-0.002v0-19.872c0-0.715-0.541-1.297-1.205-1.297zM22.883 25.027v-2.975c-0-0.005-0-0.010-0-0.015 0-0.245 0.193-0.444 0.436-0.454l0.001-0h2.765zM26.627 20.755h-3.309c-0.665 0-1.206 0.582-1.206 1.297v3.56h-12.338c-0.243-0.010-0.436-0.209-0.436-0.454 0-0.005 0-0.011 0-0.016l-0 0.001v-23.846c-0-0.005-0-0.010-0-0.015 0-0.245 0.193-0.444 0.435-0.454l0.001-0h16.416c0.243 0.010 0.436 0.209 0.436 0.454 0 0.005-0 0.011-0 0.016l0-0.001v19.458z"></path>
<path fill="#ff6473" d="M15.521 3.533h-3.283c-0.216 0.016-0.385 0.195-0.385 0.414s0.169 0.398 0.384 0.414l0.001 0h1.257v4.002c-0.001 0.009-0.001 0.019-0.001 0.029 0 0.213 0.173 0.386 0.386 0.386s0.386-0.173 0.386-0.386c0-0.010-0-0.020-0.001-0.030l0 0.001v-4.002h1.257c0.216-0.016 0.385-0.195 0.385-0.414s-0.169-0.398-0.384-0.414l-0.001-0z"></path>
<path fill="#1d97c1" d="M19.583 8.244l-1.143-4.101c-0.087-0.348-0.394-0.602-0.761-0.61h-0.211c-0.368 0.007-0.674 0.262-0.76 0.604l-0.001 0.006-1.143 4.101c-0.011 0.036-0.018 0.078-0.018 0.121 0 0.18 0.114 0.334 0.273 0.393l0.003 0.001c0.032 0.010 0.070 0.016 0.108 0.016 0.179 0 0.33-0.124 0.37-0.291l0.001-0.003 0.164-0.588h2.218l0.164 0.588c0.043 0.168 0.191 0.291 0.368 0.295h0c0.040-0 0.078-0.006 0.113-0.018l-0.003 0.001c0.162-0.061 0.276-0.214 0.276-0.394 0-0.043-0.007-0.085-0.019-0.124l0.001 0.003zM16.695 7.066l0.749-2.685c0.003-0.011 0.013-0.019 0.024-0.020h0.211c0.012 0 0.022 0.008 0.025 0.019l0 0 0.749 2.685z"></path>
<path fill="#1d97c1" d="M23.634 8.125l-1.282-1.97 1.282-1.97c0.044-0.067 0.070-0.148 0.070-0.236 0-0.138-0.064-0.26-0.164-0.34l-0.001-0.001c-0.061-0.047-0.138-0.075-0.222-0.075-0.132 0-0.248 0.070-0.313 0.174l-0.001 0.002-1.121 1.723-1.121-1.723c-0.066-0.106-0.182-0.176-0.314-0.176-0.084 0-0.161 0.028-0.223 0.075l0.001-0.001c-0.101 0.080-0.165 0.203-0.165 0.34 0 0.088 0.026 0.17 0.071 0.238l-0.001-0.002 1.282 1.97-1.282 1.97c-0.044 0.067-0.070 0.148-0.070 0.236 0 0.137 0.064 0.26 0.164 0.34l0.001 0.001c0.060 0.046 0.137 0.075 0.22 0.075h0c0.133-0.001 0.248-0.071 0.315-0.175l0.001-0.002 1.121-1.723 1.121 1.723c0.067 0.106 0.183 0.175 0.315 0.177h0c0.083-0 0.16-0.028 0.221-0.075l-0.001 0.001c0.101-0.080 0.164-0.203 0.164-0.34 0-0.088-0.026-0.17-0.071-0.238l0.001 0.002z"></path>
<path fill="#000" d="M12.238 11.040h-0.821c-0.216 0.016-0.385 0.195-0.385 0.414s0.169 0.398 0.384 0.414l0.001 0h0.821c0.216-0.016 0.385-0.195 0.385-0.414s-0.169-0.398-0.384-0.414l-0.001-0z"></path>
<path fill="#000" d="M12.238 12.806h-0.821c-0.216 0.016-0.385 0.195-0.385 0.414s0.169 0.398 0.384 0.414l0.001 0h0.821c0.216-0.016 0.385-0.195 0.385-0.414s-0.169-0.398-0.384-0.414l-0.001-0z"></path>
<path fill="#000" d="M12.238 14.573h-0.821c-0.216 0.016-0.385 0.195-0.385 0.414s0.169 0.398 0.384 0.414l0.001 0h0.821c0.216-0.016 0.385-0.195 0.385-0.414s-0.169-0.398-0.384-0.414l-0.001-0z"></path>
<path fill="#000" d="M24.55 11.040h-0.821c-0.216 0.016-0.385 0.195-0.385 0.414s0.169 0.398 0.384 0.414l0.001 0h0.821c0.216-0.016 0.385-0.195 0.385-0.414s-0.169-0.398-0.384-0.414l-0.001-0z"></path>
<path fill="#000" d="M24.55 12.806h-0.821c-0.216 0.016-0.385 0.195-0.385 0.414s0.169 0.398 0.384 0.414l0.001 0h0.821c0.216-0.016 0.385-0.195 0.385-0.414s-0.169-0.398-0.384-0.414l-0.001-0z"></path>
<path fill="#000" d="M24.55 14.573h-0.821c-0.216 0.016-0.385 0.195-0.385 0.414s0.169 0.398 0.384 0.414l0.001 0h0.821c0.216-0.016 0.385-0.195 0.385-0.414s-0.169-0.398-0.384-0.414l-0.001-0z"></path>
<path fill="#000" d="M18.804 11.040h-4.925c-0.216 0.016-0.385 0.195-0.385 0.414s0.169 0.398 0.384 0.414l0.001 0h4.925c0.216-0.016 0.385-0.195 0.385-0.414s-0.169-0.398-0.384-0.414l-0.001-0z"></path>
<path fill="#000" d="M17.163 12.806h-3.283c-0.216 0.016-0.385 0.195-0.385 0.414s0.169 0.398 0.384 0.414l0.001 0h3.283c0.216-0.016 0.385-0.195 0.385-0.414s-0.169-0.398-0.384-0.414l-0.001-0z"></path>
<path fill="#000" d="M18.804 14.573h-4.925c-0.216 0.016-0.385 0.195-0.385 0.414s0.169 0.398 0.384 0.414l0.001 0h4.925c0.216-0.016 0.385-0.195 0.385-0.414s-0.169-0.398-0.384-0.414l-0.001-0z"></path>
<path fill="#000" d="M18.394 18.105h-2.873c-0.216 0.016-0.385 0.195-0.385 0.414s0.169 0.398 0.384 0.414l0.001 0h2.873c0.216-0.016 0.385-0.195 0.385-0.414s-0.169-0.398-0.384-0.414l-0.001-0z"></path>
<path fill="#000" d="M17.163 21.638h-1.642c-0.216 0.016-0.385 0.195-0.385 0.414s0.169 0.398 0.384 0.414l0.001 0h1.642c0.216-0.016 0.385-0.195 0.385-0.414s-0.169-0.398-0.384-0.414l-0.001-0z"></path>
<path fill="#000" d="M19.625 21.638h-0.821c-0.216 0.016-0.385 0.195-0.385 0.414s0.169 0.398 0.384 0.414l0.001 0h0.821c0.216-0.016 0.385-0.195 0.385-0.414s-0.169-0.398-0.384-0.414l-0.001-0z"></path>
<path fill="#000" d="M20.856 19.872h-5.335c-0.216 0.016-0.385 0.195-0.385 0.414s0.169 0.398 0.384 0.414l0.001 0h5.335c0.216-0.016 0.385-0.195 0.385-0.414s-0.169-0.398-0.384-0.414l-0.001-0z"></path>
<path fill="#000" d="M19.189 13.22c0 0.229-0.172 0.414-0.385 0.414s-0.385-0.185-0.385-0.414c0-0.229 0.172-0.414 0.385-0.414s0.385 0.185 0.385 0.414z"></path>
<path fill="#000" d="M20.83 13.22c0 0.229-0.172 0.414-0.385 0.414s-0.385-0.185-0.385-0.414c0-0.229 0.172-0.414 0.385-0.414s0.385 0.185 0.385 0.414z"></path>
<path fill="#000" d="M22.472 13.22c0 0.229-0.172 0.414-0.385 0.414s-0.385-0.185-0.385-0.414c0-0.229 0.172-0.414 0.385-0.414s0.385 0.185 0.385 0.414z"></path>
<path fill="#000" d="M20.83 11.454c0 0.229-0.172 0.414-0.385 0.414s-0.385-0.185-0.385-0.414c0-0.229 0.172-0.414 0.385-0.414s0.385 0.185 0.385 0.414z"></path>
<path fill="#000" d="M22.472 11.454c0 0.229-0.172 0.414-0.385 0.414s-0.385-0.185-0.385-0.414c0-0.229 0.172-0.414 0.385-0.414s0.385 0.185 0.385 0.414z"></path>
<path fill="#000" d="M20.83 14.987c0 0.229-0.172 0.414-0.385 0.414s-0.385-0.185-0.385-0.414c0-0.229 0.172-0.414 0.385-0.414s0.385 0.185 0.385 0.414z"></path>
<path fill="#000" d="M22.472 14.987c0 0.229-0.172 0.414-0.385 0.414s-0.385-0.185-0.385-0.414c0-0.229 0.172-0.414 0.385-0.414s0.385 0.185 0.385 0.414z"></path>
<path fill="#1d97c1" d="M14.468 18.294h-0.768c-0.050-0.424-0.276-0.788-0.601-1.020l-0.004-0.003h1.374c0.001 0 0.001 0 0.002 0 0.081 0 0.147-0.065 0.149-0.146v-0c-0.002-0.081-0.068-0.146-0.149-0.146-0.001 0-0.001 0-0.002 0h-3.197c-0.001 0-0.001 0-0.002 0-0.081 0-0.147 0.065-0.149 0.146v0c0.002 0.081 0.068 0.146 0.149 0.146 0.001 0 0.001 0 0.002 0h0.916c0.005-0 0.011-0 0.016-0 0.602 0 1.101 0.44 1.193 1.017l0.001 0.007h-2.126c-0.081 0-0.146 0.065-0.146 0.146s0.065 0.146 0.146 0.146h2.126c-0.087 0.59-0.59 1.038-1.198 1.038-0.005 0-0.009-0-0.014-0h-0.914c-0 0-0 0-0 0-0.083 0-0.151 0.067-0.151 0.151v0c0.001 0.042 0.019 0.079 0.047 0.105l0 0 2.286 2.092c0.027 0.025 0.064 0.040 0.104 0.040 0.043 0 0.082-0.017 0.11-0.046v0c0.025-0.026 0.041-0.062 0.041-0.102 0-0.042-0.018-0.081-0.047-0.107l-0-0-2.011-1.84h0.535c0.005 0 0.012 0 0.018 0 0.77 0 1.406-0.577 1.497-1.323l0.001-0.007h0.768c0.081 0 0.146-0.065 0.146-0.146s-0.065-0.146-0.146-0.146v0z"></path>
<path fill="#3db39e" d="M7.721 23.412l-0.219-0.324c0.143-0.151 0.212-0.348 0.201-0.544l-0-0.003 0.391 0.579c0.001 0.002 0.002 0.004 0.004 0.006 0.021 0.030 0.062 0.037 0.092 0.016l0-0c0.029-0.027 0.034-0.072 0.011-0.105v0l-0.911-1.349c-0.001-0.002-0.002-0.004-0.004-0.006-0.021-0.030-0.062-0.037-0.092-0.016l-0 0c-0.029 0.027-0.034 0.072-0.011 0.105v0l0.261 0.386c0.178 0.246 0.16 0.575-0.025 0.799l-0.003 0.003-0.605-0.896c-0.001-0.002-0.002-0.004-0.004-0.006-0.021-0.030-0.062-0.037-0.092-0.016l-0 0c-0.029 0.027-0.034 0.072-0.011 0.105v0l0.606 0.897c-0.237 0.137-0.547 0.044-0.723-0.215l-0.26-0.385c-0.001-0.002-0.002-0.004-0.004-0.006-0.022-0.030-0.064-0.037-0.094-0.015-0 0-0 0-0 0h0c-0.015 0.013-0.024 0.031-0.025 0.050v0l-0.111 1.56c-0.002 0.019 0.003 0.039 0.016 0.056s0.029 0.027 0.047 0.032l-0-0c0.016 0.003 0.034-0.001 0.048-0.011 0.017-0.012 0.026-0.031 0.026-0.051v-0l0.098-1.373 0.152 0.226c0.225 0.333 0.623 0.441 0.916 0.26l0.219 0.324c0.001 0.002 0.002 0.004 0.004 0.006 0.021 0.030 0.062 0.037 0.092 0.016l0-0c0.029-0.027 0.034-0.072 0.011-0.105-0-0-0-0-0.001-0.001l0 0z"></path>
</svg>
