<!-- Generated by IcoMoon.io -->
<svg version="1.1" xmlns="http://www.w3.org/2000/svg" width="32" height="32" viewBox="0 0 32 32">
<title>pdf</title>
<path fill="#e4eaf8" d="M6.38 1.57c0-0.59 0.479-1.069 1.069-1.069h16.033l5.344 5.344v24.585c0 0.59-0.479 1.069-1.069 1.069h-20.309c-0.59 0-1.069-0.479-1.069-1.069v-28.86z"></path>
<path fill="#d5dced" d="M18.672 29.361h-12.292v-10.689h12.292c1.476 0 2.672 1.196 2.672 2.672v5.345c0 1.476-1.196 2.672-2.672 2.672z"></path>
<path fill="#d5dced" d="M23.482 0.501v4.276c0 0.59 0.479 1.069 1.069 1.069h4.276l-5.344-5.344z"></path>
<path fill="#ff5050" d="M18.672 27.758h-14.43c-0.59 0-1.069-0.479-1.069-1.069v-5.345c0-0.59 0.478-1.069 1.069-1.069h14.43c0.59 0 1.069 0.479 1.069 1.069v5.345c0 0.59-0.479 1.069-1.069 1.069z"></path>
<path fill="#ff5050" d="M22.948 11.724c0 2.952-2.393 5.344-5.344 5.344s-5.344-2.393-5.344-5.344c0-2.952 2.393-5.344 5.344-5.344s5.344 2.393 5.344 5.344z"></path>
<path fill="#000" d="M29.181 5.491l-5.345-5.345c-0.094-0.094-0.221-0.147-0.354-0.147h-16.033c-0.866 0-1.57 0.704-1.57 1.57v18.205h-1.637c-0.866 0-1.57 0.704-1.57 1.57v5.345c0 0.866 0.704 1.57 1.57 1.57h1.637v2.171c0 0.866 0.704 1.57 1.57 1.57h20.309c0.866 0 1.57-0.704 1.57-1.57v-24.585c-0-0.133-0.053-0.26-0.147-0.354zM23.983 1.711l3.634 3.634h-3.066c-0.313 0-0.568-0.255-0.568-0.568v-3.066zM3.674 26.689v-5.345c0-0.313 0.255-0.568 0.568-0.568h14.43c0.313 0 0.568 0.255 0.568 0.568v5.345c0 0.313-0.255 0.568-0.568 0.568h-14.43c-0.313 0-0.568-0.255-0.568-0.568zM27.758 30.998h-20.309c-0.313 0-0.568-0.255-0.568-0.568v-2.171h11.791c0.866 0 1.57-0.704 1.57-1.57v-5.345c0-0.866-0.704-1.57-1.57-1.57h-11.791v-18.205c0-0.313 0.255-0.568 0.568-0.568h15.532v3.775c0 0.866 0.704 1.57 1.57 1.57h3.774v24.084c0 0.313-0.255 0.568-0.568 0.568z"></path>
<path fill="#000" d="M5.812 25.052h1.637c0.866 0 1.57-0.704 1.57-1.57s-0.704-1.57-1.57-1.57h-2.138c-0.277 0-0.501 0.224-0.501 0.501v3.207c0 0.277 0.224 0.501 0.501 0.501s0.501-0.224 0.501-0.501v-0.568zM8.017 23.482c0 0.313-0.255 0.568-0.568 0.568h-1.637v-1.136h1.637c0.313 0 0.568 0.255 0.568 0.568z"></path>
<path fill="#000" d="M10.121 26.121h1.603c1.16 0 2.104-0.944 2.104-2.104s-0.944-2.104-2.104-2.104h-1.603c-0.277 0-0.501 0.224-0.501 0.501v3.207c0 0.277 0.224 0.501 0.501 0.501zM10.622 22.914h1.102c0.608 0 1.102 0.494 1.102 1.102s-0.495 1.102-1.102 1.102h-1.102v-2.205z"></path>
<path fill="#000" d="M14.931 26.121c0.277 0 0.501-0.224 0.501-0.501v-1.102h1.102c0.277 0 0.501-0.224 0.501-0.501s-0.224-0.501-0.501-0.501h-1.102v-0.601h2.171c0.277 0 0.501-0.224 0.501-0.501s-0.224-0.501-0.501-0.501h-2.672c-0.277 0-0.501 0.224-0.501 0.501v3.207c0 0.277 0.224 0.501 0.501 0.501z"></path>
<path fill="#000" d="M17.603 5.879c-3.223 0-5.846 2.622-5.846 5.846s2.622 5.846 5.846 5.846 5.846-2.622 5.846-5.846-2.622-5.846-5.846-5.846zM17.603 16.568c-2.671 0-4.843-2.173-4.843-4.843s2.173-4.843 4.843-4.843 4.843 2.173 4.843 4.843-2.173 4.843-4.843 4.843z"></path>
<path fill="#000" d="M17.609 9.553c0.277 0 0.501-0.224 0.501-0.501s-0.224-0.501-0.501-0.501h-0.005c-0.277 0-0.498 0.224-0.498 0.501s0.227 0.501 0.504 0.501z"></path>
<path fill="#000" d="M18.138 11.157c0.277 0 0.501-0.224 0.501-0.501s-0.224-0.501-0.501-0.501h-1.069c-0.277 0-0.501 0.224-0.501 0.501s0.224 0.501 0.501 0.501h0.033v2.739h-0.033c-0.277 0-0.501 0.224-0.501 0.501s0.224 0.501 0.501 0.501h1.069c0.277 0 0.501-0.224 0.501-0.501s-0.224-0.501-0.501-0.501h-0.033v-2.739h0.033z"></path>
</svg>
