<!-- Generated by IcoMoon.io -->
<svg version="1.1" xmlns="http://www.w3.org/2000/svg" width="33" height="32" viewBox="0 0 33 32">
<title>powerpoint</title>
<path fill="#000" d="M23.088 7.178c-0.397 0.009-0.715 0.332-0.715 0.73 0 0.005 0 0.010 0 0.015v-0.001 4.468c-0 0.004-0 0.009-0 0.015 0 0.398 0.318 0.722 0.714 0.73h4.289c0.397-0.009 0.715-0.332 0.715-0.73 0-0.005-0-0.010-0-0.015v0.001c-0-2.879-2.24-5.212-5.003-5.212z"></path>
<path fill="#ff5722" d="M23.285 7.577c-0.358 0-0.648 0.29-0.648 0.648v0 3.889c0 0.358 0.29 0.648 0.648 0.648v0h3.889c0.358-0 0.648-0.29 0.648-0.648v0c-0-2.506-2.031-4.537-4.537-4.537v0z"></path>
<path fill="#000" d="M23.583 14.079c-1.127 0.019-2.057-0.899-2.076-2.050l-0.058-3.404c-2.591 0.422-4.356 2.91-3.941 5.558s2.852 4.452 5.443 4.031c2.088-0.34 3.703-2.048 3.965-4.191z"></path>
<path fill="#ff5722" d="M23.284 14.073c-1.074-0.018-1.93-0.904-1.911-1.978v0l0.054-3.175c-2.216 0.286-3.927 2.14-3.966 4.416-0.043 2.5 1.95 4.561 4.45 4.604 2.275 0.039 4.187-1.608 4.545-3.789l0.003-0.024z"></path>
<path fill="#000" d="M19.213 0.156c-0.119-0.097-0.272-0.156-0.439-0.156-0.054 0-0.106 0.006-0.156 0.018l0.005-0.001-18.084 4.173c-0.311 0.073-0.54 0.349-0.54 0.678 0 0.002 0 0.005 0 0.007v-0 23.648c0 0.347 0.254 0.634 0.586 0.687l0.004 0.001 18.084 2.782c0.032 0.005 0.068 0.008 0.105 0.008 0.384 0 0.695-0.311 0.696-0.695v-30.604c0-0.001 0-0.001 0-0.002 0-0.219-0.101-0.415-0.26-0.542l-0.001-0.001z"></path>
<path fill="#ff5722" d="M18.504 1.235c-0.111-0.090-0.253-0.145-0.409-0.145-0.050 0-0.099 0.006-0.145 0.016l0.004-0.001-16.852 3.889c-0.29 0.068-0.503 0.325-0.503 0.632 0 0.002 0 0.004 0 0.006v-0 22.037c0 0.323 0.237 0.591 0.546 0.64l0.004 0 16.852 2.593c0.030 0.005 0.064 0.008 0.099 0.008 0.358 0 0.648-0.29 0.648-0.648v-28.518c0-0.001 0-0.001 0-0.002 0-0.204-0.095-0.387-0.242-0.505l-0.001-0.001z"></path>
<path fill="#000" d="M31.902 29.077h-13.762c-0.377-0.004-0.682-0.31-0.682-0.688s0.304-0.684 0.681-0.688h13.074v-23.396h-13.074c-0.38 0-0.688-0.308-0.688-0.688s0.308-0.688 0.688-0.688h13.762c0.38 0 0.688 0.308 0.688 0.688v0 24.772c0 0 0 0 0 0 0 0.38-0.308 0.688-0.688 0.688-0 0-0 0-0 0v0z"></path>
<path fill="#ff5722" d="M31.063 28.317h-12.963c-0.358 0-0.648-0.29-0.648-0.648s0.29-0.648 0.648-0.648v0h12.315v-22.037h-12.315c-0.002 0-0.004 0-0.006 0-0.358 0-0.648-0.29-0.648-0.648s0.29-0.648 0.648-0.648c0.002 0 0.004 0 0.007 0h12.962c0.358 0 0.648 0.29 0.648 0.648v0 23.333c0 0.358-0.29 0.648-0.648 0.648v0z"></path>
<path fill="#000" d="M27.427 24.689h-9.78c-0.386 0-0.699-0.403-0.699-0.9s0.313-0.9 0.699-0.9h9.78c0.386 0 0.699 0.403 0.699 0.9s-0.313 0.9-0.699 0.9z"></path>
<path fill="#ff5722" d="M27.174 24.428h-9.074c-0.358 0-0.648-0.29-0.648-0.648s0.29-0.648 0.648-0.648v0h9.074c0.358 0 0.648 0.29 0.648 0.648s-0.29 0.648-0.648 0.648v0z"></path>
<path fill="#000" d="M27.427 20.839h-9.78c-0.386 0-0.699-0.409-0.699-0.914s0.313-0.914 0.699-0.914h9.78c0.386 0 0.699 0.409 0.699 0.914s-0.313 0.914-0.699 0.914z"></path>
<path fill="#ff5722" d="M27.174 20.54h-9.074c-0.358 0-0.648-0.29-0.648-0.648s0.29-0.648 0.648-0.648v0h9.074c0.358 0 0.648 0.29 0.648 0.648s-0.29 0.648-0.648 0.648v0z"></path>
<path fill="#fafafa" d="M6.433 21.836c-0.358 0-0.648-0.29-0.648-0.648v0-10.37c0-0.358 0.29-0.648 0.648-0.648v0h2.593c1.79 0 3.241 1.451 3.241 3.241v0 1.296c0 1.79-1.451 3.241-3.241 3.241v0h-1.944v3.241c0 0 0 0 0 0 0 0.358-0.29 0.648-0.648 0.648v0zM7.082 16.651h1.944c1.074 0 1.944-0.871 1.944-1.944v0-1.296c0-1.074-0.871-1.944-1.944-1.944v0h-1.944v5.185z"></path>
<path fill="#ff5722" d="M15.305 2.913h3.464v3.16h-3.464v-3.16z"></path>
<path fill="#ff5722" d="M15.305 18.347h3.464v3.16h-3.464v-3.16z"></path>
<path fill="#ff5722" d="M15.305 22.114h3.464v3.16h-3.464v-3.16z"></path>
<path fill="#ff5722" d="M15.305 25.517h3.464v3.95h-3.464v-3.95z"></path>
</svg>
