<!-- Generated by IcoMoon.io -->
<svg version="1.1" xmlns="http://www.w3.org/2000/svg" width="33" height="32" viewBox="0 0 33 32">
<title>word</title>
<path fill="#000" d="M32.123 27.82h-14.59c-0.578-0.009-1.042-0.479-1.042-1.058 0-0.006 0-0.012 0-0.018v0.001-21.506c-0-0.005-0-0.011-0-0.016 0-0.579 0.465-1.050 1.041-1.059h14.591c0.578 0.010 1.042 0.48 1.042 1.059 0 0.006-0 0.011-0 0.017v-0.001 21.506c0 0.005 0 0.011 0 0.017 0 0.579-0.465 1.049-1.042 1.058h-0.001z"></path>
<path fill="#eceff1" d="M31.547 27.041h-14.052c-0 0-0.001 0-0.001 0-0.554 0-1.003-0.449-1.003-1.003 0-0 0-0.001 0-0.001v0-20.074c0-0.554 0.449-1.003 1.004-1.004h14.052c0.554 0 1.004 0.449 1.004 1.004v20.074c0 0 0 0.001 0 0.001 0 0.554-0.449 1.003-1.003 1.003-0 0-0.001 0-0.001 0h0z"></path>
<path fill="#000" d="M27.653 11.318h-12.156c-0.671 0-1.216-0.603-1.216-1.351s0.545-1.351 1.216-1.351h12.156c0.671 0 1.216 0.605 1.216 1.351s-0.545 1.351-1.216 1.351z"></path>
<path fill="#1976d2" d="M27.532 10.981h-10.037c-0.554 0-1.004-0.449-1.004-1.004s0.449-1.004 1.004-1.004v0h10.037c0.554 0 1.004 0.449 1.004 1.004s-0.449 1.004-1.004 1.004v0z"></path>
<path fill="#000" d="M27.741 15.305h-11.276c-0.622 0-1.128-0.58-1.128-1.3s0.505-1.3 1.128-1.3h11.276c0.622 0 1.128 0.582 1.128 1.3s-0.505 1.3-1.128 1.3z"></path>
<path fill="#1976d2" d="M27.532 14.996h-10.037c-0.554 0-1.004-0.449-1.004-1.004s0.449-1.004 1.004-1.004v0h10.037c0.554 0 1.004 0.449 1.004 1.004s-0.449 1.004-1.004 1.004v0z"></path>
<path fill="#000" d="M27.642 19.337h-12.259c-0.677 0-1.226-0.586-1.226-1.314s0.549-1.314 1.226-1.314h12.259c0.677 0 1.226 0.588 1.226 1.314s-0.549 1.314-1.226 1.314z"></path>
<path fill="#1976d2" d="M27.532 19.011h-10.037c-0.554 0-1.004-0.449-1.004-1.004s0.449-1.004 1.004-1.004v0h10.037c0.554 0 1.004 0.449 1.004 1.004s-0.449 1.004-1.004 1.004v0z"></path>
<path fill="#000" d="M27.653 23.326h-12.156c-0.671 0-1.216-0.578-1.216-1.296s0.545-1.296 1.216-1.296h12.156c0.671 0 1.216 0.581 1.216 1.296s-0.545 1.296-1.216 1.296z"></path>
<path fill="#1976d2" d="M27.532 23.026h-10.037c-0.554 0-1.004-0.449-1.004-1.004s0.449-1.004 1.004-1.004v0h10.037c0.554 0 1.004 0.449 1.004 1.004s-0.449 1.004-1.004 1.004v0z"></path>
<path fill="#000" d="M18.813 0.248c-0.181-0.154-0.418-0.247-0.677-0.247-0.071 0-0.14 0.007-0.207 0.020l0.007-0.001-17.066 3.2c-0.498 0.096-0.87 0.528-0.87 1.047v23.466c0 0 0 0 0 0 0 0.519 0.372 0.952 0.864 1.046l0.007 0.001 17.066 3.2c0.059 0.012 0.127 0.019 0.196 0.019h0c0.589 0 1.066-0.477 1.066-1.066v0-29.867c0-0 0-0.001 0-0.001 0-0.329-0.15-0.622-0.384-0.817l-0.002-0.001z"></path>
<path fill="#1565c0" d="M18.135 1.177c-0.171-0.145-0.394-0.233-0.637-0.233-0.067 0-0.132 0.007-0.194 0.019l0.006-0.001-16.059 3.011c-0.469 0.090-0.818 0.497-0.819 0.985v22.082c0 0 0 0 0 0 0 0.489 0.35 0.896 0.813 0.985l0.006 0.001 16.059 3.011c0.055 0.011 0.119 0.018 0.185 0.018h0c0.554 0 1.004-0.449 1.004-1.004v0-28.104c0-0 0-0.001 0-0.001 0-0.309-0.141-0.586-0.362-0.768l-0.002-0.001z"></path>
<path fill="#000" d="M13.7 21.007c-0.066 0.458-0.433 0.812-0.891 0.859l-0.004 0c-0.036 0.005-0.078 0.008-0.121 0.008-0.002 0-0.005 0-0.007-0h0c-0.003 0-0.008 0-0.012 0-0.426 0-0.791-0.258-0.949-0.626l-0.003-0.007-2.124-5.376-2.124 5.376c-0.158 0.376-0.523 0.635-0.949 0.635-0.044 0-0.088-0.003-0.13-0.008l0.005 0.001c-0.46-0.039-0.83-0.384-0.907-0.828l-0.001-0.006-1.029-6.837c-0.080-0.531 0.311-1.028 0.872-1.104 0.564-0.078 1.084 0.295 1.165 0.828l0.459 3.055 1.673-4.237c0.3-0.762 1.626-0.762 1.928 0l1.576 3.989 0.554-4.731c0.064-0.535 0.586-0.92 1.136-0.863 0.566 0.063 0.971 0.545 0.91 1.080z"></path>
<path fill="#fafafa" d="M13.474 21.132c-0.054 0.461-0.413 0.824-0.868 0.883l-0.005 0.001c-0.034 0.005-0.074 0.008-0.114 0.008-0.004 0-0.007-0-0.011-0h0.001c-0.427-0.001-0.792-0.268-0.937-0.644l-0.002-0.007-2.072-5.524-2.072 5.524c-0.147 0.383-0.512 0.65-0.939 0.65-0.505 0-0.922-0.372-0.993-0.857l-0.001-0.005-1.004-7.026c-0.006-0.041-0.009-0.089-0.009-0.137 0-0.554 0.449-1.004 1.004-1.004 0.503 0 0.919 0.37 0.992 0.852l0.001 0.006 0.448 3.14 1.632-4.354c0.293-0.783 1.586-0.783 1.881 0l1.538 4.099 0.54-4.862c0.058-0.504 0.482-0.892 0.998-0.892 0.554 0 1.004 0.449 1.004 1.004 0 0.039-0.002 0.078-0.007 0.116l0-0.005z"></path>
</svg>
