<svg aria-hidden="true" style="position: absolute; width: 0; height: 0; overflow: hidden;" version="1.1" xmlns="http://www.w3.org/2000/svg" xmlns:xlink="http://www.w3.org/1999/xlink">
<defs>
<symbol id="icon-analysis" viewBox="0 0 32 32">
<title>analysis</title>
<path fill="#fff" style="fill: var(--color1, #fff)" d="M20.414 8.313c0.001 0 0.001 0 0.002 0 0.864 0 1.564-0.7 1.564-1.564s-0.7-1.564-1.564-1.564c-0.864 0-1.564 0.7-1.564 1.564 0 0.355 0.118 0.682 0.317 0.944l-0.003-0.004-2.567 3.588c-0.145-0.049-0.313-0.078-0.487-0.078-0.412 0-0.786 0.16-1.064 0.42l0.001-0.001-1.711-0.971c0.022-0.099 0.035-0.213 0.035-0.329 0-0.863-0.7-1.563-1.563-1.563s-1.563 0.7-1.563 1.563c0 0.117 0.013 0.23 0.037 0.34l-0.002-0.010-1.711 0.971c-0.278-0.258-0.651-0.417-1.061-0.417-0.862 0-1.56 0.699-1.56 1.56s0.699 1.56 1.56 1.56c0.862 0 1.56-0.699 1.56-1.56 0-0.117-0.013-0.23-0.037-0.339l0.002 0.010 1.711-0.971c0.278 0.26 0.652 0.419 1.064 0.419s0.786-0.16 1.064-0.42l-0.001 0.001 1.711 0.971c-0.022 0.099-0.035 0.213-0.035 0.33 0 0.863 0.7 1.563 1.563 1.563s1.563-0.7 1.563-1.563c0-0.354-0.118-0.681-0.317-0.943l0.003 0.004 2.567-3.588c0.145 0.049 0.313 0.078 0.486 0.078h0zM20.414 6.125c0.345 0 0.625 0.28 0.625 0.625s-0.28 0.625-0.625 0.625c-0.345 0-0.625-0.28-0.625-0.625v0c0-0.345 0.28-0.625 0.625-0.625h0zM7.507 13.386c-0.345 0-0.625-0.28-0.625-0.625s0.28-0.625 0.625-0.625c0.345 0 0.625 0.28 0.625 0.625v0c-0 0.345-0.28 0.625-0.625 0.625h-0zM11.809 10.943c-0.345 0-0.625-0.28-0.625-0.625s0.28-0.625 0.625-0.625c0.345 0 0.625 0.28 0.625 0.625v0c-0 0.345-0.28 0.625-0.625 0.625h-0zM16.112 13.386c-0.345 0-0.625-0.28-0.625-0.625s0.28-0.625 0.625-0.625c0.345 0 0.625 0.28 0.625 0.625v0c-0 0.345-0.28 0.625-0.625 0.625h-0z"></path>
<path fill="#fff" style="fill: var(--color1, #fff)" d="M26.175 23.557h-24.849c-0.214-0-0.388-0.174-0.388-0.388v-19.339c0-0.214 0.174-0.388 0.388-0.388h2.21c0.259 0 0.469-0.21 0.469-0.469s-0.21-0.469-0.469-0.469v0h-2.21c-0.732 0.001-1.325 0.594-1.326 1.326v19.339c0.001 0.732 0.594 1.325 1.326 1.326h3.232v1.032c0.001 0.588 0.477 1.065 1.066 1.066h4.692l-2.209 4.313c-0.034 0.063-0.054 0.138-0.054 0.218 0 0.259 0.21 0.469 0.469 0.469 0.182 0 0.34-0.104 0.418-0.256l0.001-0.003 2.428-4.74h5.183l2.428 4.74c0.079 0.155 0.237 0.259 0.419 0.259 0.259 0 0.469-0.21 0.469-0.469 0-0.080-0.020-0.154-0.055-0.22l0.001 0.003-2.209-4.313h4.692c0.588-0.001 1.065-0.477 1.066-1.066v-1.032h2.812c0.259 0 0.469-0.21 0.469-0.469s-0.21-0.469-0.469-0.469v0zM22.426 25.526c-0 0.071-0.057 0.128-0.128 0.128h-16.674c-0.071-0-0.128-0.057-0.128-0.128v0-1.032h16.93z"></path>
<path fill="#fff" style="fill: var(--color1, #fff)" d="M5.411 3.441h21.184c0.214 0 0.388 0.174 0.388 0.388v4.457c0 0.259 0.21 0.469 0.469 0.469s0.469-0.21 0.469-0.469v0-4.457c-0.001-0.732-0.594-1.325-1.326-1.326h-10.033v-0.921c-0.001-0.649-0.527-1.175-1.176-1.176h-2.851c-0.649 0.001-1.175 0.527-1.176 1.176v0.921h-5.948c-0.259 0-0.469 0.21-0.469 0.469s0.21 0.469 0.469 0.469v0zM12.296 1.582c0-0.132 0.107-0.238 0.239-0.238h2.851c0.132 0 0.238 0.107 0.239 0.238v0.921h-3.328v-0.921z"></path>
<path fill="#fff" style="fill: var(--color1, #fff)" d="M6.556 16.72c-0.259 0-0.469 0.21-0.469 0.469v0 4.142c0 0.259 0.21 0.469 0.469 0.469v0h1.902c0.259 0 0.469-0.21 0.469-0.469v0-4.142c0-0.259-0.21-0.469-0.469-0.469v0zM7.989 20.862h-0.964v-3.204h0.964z"></path>
<path fill="#fff" style="fill: var(--color1, #fff)" d="M10.859 14.324c-0.259 0-0.469 0.21-0.469 0.469v0 6.537c0 0.259 0.21 0.469 0.469 0.469v0h1.902c0.259 0 0.469-0.21 0.469-0.469v0-6.537c0-0.259-0.21-0.469-0.469-0.469v0zM12.292 20.862h-0.964v-5.6h0.964z"></path>
<path fill="#fff" style="fill: var(--color1, #fff)" d="M15.161 16.72c-0.259 0-0.469 0.21-0.469 0.469v0 4.142c0 0.259 0.21 0.469 0.469 0.469v0h1.902c0.259 0 0.469-0.21 0.469-0.469v0-4.142c0-0.259-0.21-0.469-0.469-0.469v0zM16.594 20.862h-0.964v-3.204h0.964z"></path>
<path fill="#fff" style="fill: var(--color1, #fff)" d="M19.463 19.486c-0.259 0-0.469 0.21-0.469 0.469v0 1.376c0 0.259 0.21 0.469 0.469 0.469v0h1.902c0.259 0 0.469-0.21 0.469-0.469s-0.21-0.469-0.469-0.469v0h-1.433v-0.907c0-0.259-0.21-0.469-0.469-0.469v0z"></path>
<path fill="#fff" style="fill: var(--color1, #fff)" d="M31.761 23.998l-2.689-4.658c1.026-1.093 1.656-2.568 1.656-4.191 0-3.385-2.744-6.13-6.13-6.13s-6.13 2.744-6.13 6.13c0 2.821 1.905 5.196 4.499 5.91l0.043 0.010c0.478 0.134 1.028 0.211 1.595 0.211h0c0 0 0 0 0 0 0.489 0 0.965-0.058 1.421-0.168l-0.041 0.008 2.689 4.658c0.314 0.536 0.887 0.891 1.543 0.891 0.984 0 1.782-0.798 1.782-1.782 0-0.328-0.089-0.635-0.243-0.899l0.005 0.008zM23.253 20.164c-2.233-0.613-3.846-2.624-3.846-5.012 0-2.866 2.323-5.189 5.189-5.189s5.189 2.323 5.189 5.189c0 1.911-1.033 3.58-2.57 4.481l-0.024 0.013c-0.742 0.439-1.636 0.698-2.59 0.698-0.479 0-0.944-0.065-1.384-0.188l0.036 0.009zM30.64 25.62c-0.121 0.071-0.267 0.113-0.422 0.113-0.311 0-0.583-0.168-0.729-0.418l-0.002-0.004-2.587-4.481c0.558-0.23 1.040-0.514 1.475-0.855l-0.013 0.010 2.587 4.482c0.071 0.121 0.113 0.267 0.113 0.423 0 0.311-0.168 0.582-0.418 0.729l-0.004 0.002z"></path>
<path fill="#fff" style="fill: var(--color1, #fff)" d="M28.846 16.472c0.128-0.395 0.202-0.85 0.202-1.322 0-0.687-0.156-1.338-0.435-1.918l0.012 0.027c-0.076-0.163-0.238-0.273-0.426-0.273-0.259 0-0.469 0.21-0.469 0.469 0 0.074 0.017 0.145 0.048 0.207l-0.001-0.003c0.21 0.437 0.332 0.949 0.332 1.49 0 1.939-1.572 3.511-3.511 3.511s-3.511-1.572-3.511-3.511c0-1.939 1.572-3.511 3.511-3.511 0.8 0 1.538 0.268 2.129 0.719l-0.009-0.006c0.078 0.061 0.179 0.098 0.287 0.098 0.259 0 0.469-0.21 0.469-0.469 0-0.154-0.074-0.291-0.189-0.376l-0.001-0.001c-0.738-0.564-1.673-0.903-2.688-0.903-2.458 0-4.451 1.993-4.451 4.451s1.993 4.451 4.451 4.451c1.987 0 3.669-1.302 4.242-3.098l0.009-0.032z"></path>
</symbol>
<symbol id="icon-communication" viewBox="0 0 32 32">
<title>communication</title>
<path fill="#fff" style="fill: var(--color1, #fff)" d="M5.625 17.938c-1.553 0-2.813 1.259-2.813 2.813s1.259 2.813 2.813 2.813c1.553 0 2.813-1.259 2.813-2.813v0c-0.002-1.553-1.26-2.811-2.812-2.813h-0z"></path>
<path fill="#fff" style="fill: var(--color1, #fff)" d="M7.5 23.563h-3.75c-2.070 0.002-3.748 1.68-3.75 3.75v3.75c0 0 0 0 0 0.001 0 0.517 0.419 0.937 0.937 0.937 0 0 0 0 0.001 0h9.375c0 0 0 0 0.001 0 0.517 0 0.937-0.419 0.937-0.937 0-0 0-0 0-0.001v0-3.75c-0.002-2.070-1.68-3.748-3.75-3.75h-0z"></path>
<path fill="#fff" style="fill: var(--color1, #fff)" d="M26.375 17.938c-1.553 0-2.813 1.259-2.813 2.813s1.259 2.813 2.813 2.813c1.553 0 2.813-1.259 2.813-2.813v0c-0.002-1.553-1.26-2.811-2.812-2.813h-0z"></path>
<path fill="#fff" style="fill: var(--color1, #fff)" d="M28.25 23.563h-3.75c-2.070 0.002-3.748 1.68-3.75 3.75v3.75c0 0 0 0 0 0.001 0 0.517 0.419 0.937 0.937 0.937 0 0 0 0 0.001 0h9.375c0 0 0 0 0.001 0 0.517 0 0.937-0.419 0.937-0.937 0-0 0-0 0-0.001v0-3.75c-0.002-2.070-1.68-3.748-3.75-3.75h-0z"></path>
<path fill="#fff" style="fill: var(--color1, #fff)" d="M16 0h-7.5c-2.589 0-4.688 2.099-4.688 4.688v0 5.625c0.003 2.256 1.597 4.139 3.719 4.588l0.031 0.005v2.907c0 0.518 0.42 0.937 0.938 0.937 0.259 0 0.493-0.105 0.663-0.275l3.475-3.475h3.362c2.589 0 4.688-2.099 4.688-4.688v0-5.625c0-2.589-2.099-4.688-4.688-4.688v0zM15.725 5.35l-3.75 3.75c-0.17 0.17-0.404 0.275-0.663 0.275s-0.493-0.105-0.663-0.275l-1.875-1.875c-0.175-0.171-0.284-0.409-0.284-0.672 0-0.518 0.42-0.938 0.938-0.938 0.264 0 0.502 0.109 0.672 0.284l1.213 1.212 3.088-3.088c0.171-0.178 0.411-0.289 0.677-0.289 0.518 0 0.938 0.42 0.938 0.937 0 0.266-0.111 0.507-0.289 0.677l-0 0z"></path>
<path fill="#fff" style="fill: var(--color1, #fff)" d="M23.5 1.875h-1.596c0.41 0.821 0.653 1.788 0.658 2.811v5.627c0 2.147-1.052 4.039-2.651 5.238l2.925 2.925c0.17 0.17 0.404 0.275 0.663 0.275 0.518 0 0.937-0.42 0.938-0.937v0-2.907c2.153-0.454 3.747-2.337 3.75-4.593v-3.75c0-2.589-2.099-4.688-4.688-4.688v0z"></path>
</symbol>
<symbol id="icon-hand-shake" viewBox="0 0 32 32">
<title>hand-shake</title>
<path fill="#fff" style="fill: var(--color1, #fff)" d="M7.733 8.467c-1.067-1.067-5.6-1.333-7.067-1.467-0.133 0-0.267 0-0.4 0.133s-0.267 0.4-0.267 0.533v12c0 0.4 0.267 0.667 0.667 0.667h4c0.004 0 0.009 0 0.013 0 0.283 0 0.529-0.161 0.651-0.396l0.002-0.004c0-0.4 2.4-7.467 2.667-10.933-0-0.133-0-0.4-0.267-0.533z"></path>
<path fill="#fff" style="fill: var(--color1, #fff)" d="M22 11.667c-1.333-0.4-2.533-0.933-3.6-1.333-2.4-1.067-3.467-0.533-5.6 1.6-0.933 0.933-1.6 2.267-1.467 2.8 0 0.133 0 0.133 0.267 0.267 0.667 0.267 1.6 0.4 2.533-1.067 0.133-0.133 0.267-0.267 0.533-0.267 0.4 0 0.533-0.133 0.933-0.267 0.26-0.14 0.568-0.275 0.888-0.386l0.046-0.014h0.267c0.133 0 0.4 0.133 0.533 0.133 0.667 0.667 1.867 1.6 3.067 2.667 1.867 1.467 3.733 3.067 4.667 4.267h0.133c-0.933-2.667-2.533-7.2-3.2-8.4z"></path>
<path fill="#fff" style="fill: var(--color1, #fff)" d="M31.333 8.333c-5.2 0-8.133 1.333-8.267 1.333l-0.4 0.4c0 0.133 0 0.4 0.133 0.533 0.8 1.333 3.467 8.667 3.867 10.533 0.133 0.267 0.4 0.533 0.667 0.533h4c0.4 0 0.667-0.267 0.667-0.667v-12c0-0.4-0.267-0.667-0.667-0.667z"></path>
<path fill="#fff" style="fill: var(--color1, #fff)" d="M23.008 20.713c-0.533-1.2-2.8-2.933-4.8-4.533-1.067-0.933-2.133-1.733-2.933-2.4-0.133 0.133-0.4 0.133-0.4 0.267-0.4 0.133-0.533 0.267-1.067 0.267-1.067 1.333-2.4 1.867-3.867 1.333-0.667-0.133-1.067-0.667-1.2-1.2-0.267-1.333 0.933-3.2 1.867-4.133h-2.667c-0.533 2.667-1.467 6.133-2.133 8 0.533 0.533 1.067 1.2 1.467 1.467 2.533 2.133 5.467 4.267 6 4.667 0.4 0.267 1.2 0.533 1.6 0.533h0.4l-2.133-2.133c-0.119-0.119-0.193-0.284-0.193-0.467 0-0.364 0.295-0.66 0.66-0.66 0.182 0 0.347 0.074 0.467 0.193l2.667 2.667c0.267 0.267 0.533 0.133 0.8 0.133 0.4-0.133 0.533-0.4 0.667-0.8l-3.067-3.067c-0.119-0.119-0.193-0.284-0.193-0.467 0-0.364 0.295-0.66 0.66-0.66 0.182 0 0.347 0.074 0.467 0.193l3.333 3.333c0.133 0.133 0.667 0.133 1.067 0 0.133-0.133 0.4-0.267 0.533-0.533l-3.733-3.733c-0.119-0.119-0.193-0.284-0.193-0.467 0-0.364 0.295-0.66 0.66-0.66 0.182 0 0.347 0.074 0.467 0.193v0l3.867 3.867c0.267 0.133 0.533 0 0.8-0.133 0.133-0.133 0.4-0.533 0.133-1.067z"></path>
</symbol>
<symbol id="icon-progress-report" viewBox="0 0 32 32">
<title>progress-report</title>
<path fill="#fff" style="fill: var(--color1, #fff)" d="M8.151 24.163c-0.292 0.324-0.48 0.748-0.505 1.215l-0 0.005v5.138h2.982v-8.121c0-0.394-0.226-0.489-0.505-0.209z"></path>
<path fill="#fff" style="fill: var(--color1, #fff)" d="M21.253 19.295c-0.292 0.324-0.479 0.748-0.505 1.215l-0 0.005v10.006h2.983v-12.992c0-0.394-0.226-0.488-0.505-0.209z"></path>
<path fill="#fff" style="fill: var(--color1, #fff)" d="M25.619 14.922c-0.293 0.324-0.48 0.747-0.506 1.214l-0 0.005v14.379h2.773v-17.147c0-0.394-0.227-0.489-0.506-0.209z"></path>
<path fill="#fff" style="fill: var(--color1, #fff)" d="M16.974 23.573s-0.133 0.134-0.297 0.298-0.297 0.618-0.297 1.013v5.637h2.983v-8.62c0-0.394-0.227-0.489-0.506-0.209z"></path>
<path fill="#fff" style="fill: var(--color1, #fff)" d="M12.519 22.058c-0.279-0.279-0.506-0.185-0.506 0.209v8.254h2.983v-5.277c0-0.394-0.214-0.928-0.479-1.192l-0.479-0.477z"></path>
<path fill="#fff" style="fill: var(--color1, #fff)" d="M4.398 27.919l-0.963 0.965c-0.279 0.279-0.505 0.759-0.505 1.072v0.566h3.329v-3.752c0-0.394-0.226-0.488-0.505-0.209z"></path>
<path fill="#fff" style="fill: var(--color1, #fff)" d="M31.483 13.242c0.279 0.279 0.505 0.185 0.505-0.209v-10.211c0-0.731-0.7-1.371-1.427-1.371h-10.152c-0.394 0-0.489 0.227-0.209 0.506l3.611 3.614-1.473 1.466-6.831 6.837-3.613-3.612c-0.129-0.129-0.308-0.209-0.505-0.209s-0.376 0.080-0.505 0.209l-10.047 10.054c-0.517 0.517-0.837 1.232-0.837 2.021s0.32 1.504 0.838 2.022l0.070 0.070c0.517 0.517 1.231 0.837 2.021 0.837s1.504-0.32 2.021-0.838l6.439-6.443 3.613 3.609c0.13 0.129 0.308 0.209 0.505 0.209s0.376-0.080 0.505-0.209l11.91-11.912z"></path>
</symbol>
<symbol id="icon-settings-work-tool" viewBox="0 0 32 32">
<title>settings-work-tool</title>
<path fill="#fff" style="fill: var(--color1, #fff)" d="M31.899 14.223c-0.051-0.45-0.575-0.788-1.029-0.788-0.013 0-0.029 0-0.044 0-1.951 0-3.533-1.582-3.533-3.533 0-1.036 0.446-1.967 1.156-2.614l0.003-0.003c0.178-0.163 0.289-0.396 0.289-0.656 0-0.209-0.072-0.401-0.193-0.553l0.001 0.002c-0.756-0.956-1.588-1.796-2.505-2.536l-0.030-0.024c-0.151-0.121-0.345-0.195-0.556-0.195-0.262 0-0.497 0.113-0.66 0.292l-0.001 0.001c-0.954 1.056-2.667 1.449-3.991 0.896-1.284-0.555-2.167-1.81-2.167-3.272 0-0.071 0.002-0.141 0.006-0.211l-0 0.010c0.001-0.016 0.002-0.034 0.002-0.052 0-0.455-0.342-0.83-0.783-0.881l-0.004-0c-0.554-0.068-1.194-0.107-1.844-0.107-0.618 0-1.228 0.035-1.829 0.103l0.073-0.007c-0.448 0.051-0.793 0.428-0.793 0.885 0 0.011 0 0.021 0.001 0.032l-0-0.002c0.001 0.038 0.002 0.082 0.002 0.127 0 1.473-0.894 2.737-2.17 3.278l-0.023 0.009c-1.308 0.535-3.009 0.146-3.961-0.902-0.164-0.179-0.398-0.29-0.659-0.29-0.208 0-0.399 0.071-0.551 0.19l0.002-0.001c-0.968 0.763-1.817 1.603-2.565 2.529l-0.024 0.030c-0.122 0.151-0.196 0.346-0.196 0.557 0 0.261 0.112 0.495 0.291 0.658l0.001 0.001c0.718 0.651 1.167 1.588 1.167 2.629 0 0.492-0.1 0.96-0.281 1.386l0.009-0.023c-0.552 1.315-1.918 2.163-3.481 2.163-0.018-0.001-0.038-0.002-0.059-0.002-0.451 0-0.822 0.344-0.865 0.784l-0 0.004c-0.068 0.555-0.107 1.198-0.107 1.85 0 0.63 0.036 1.252 0.107 1.864l-0.007-0.075c0.050 0.452 0.591 0.787 1.049 0.787 0.012-0 0.026-0 0.039-0 1.464 0 2.718 0.896 3.244 2.169l0.009 0.023c0.164 0.395 0.259 0.853 0.259 1.334 0 1.037-0.444 1.97-1.151 2.621l-0.003 0.002c-0.177 0.163-0.288 0.396-0.288 0.655 0 0.209 0.072 0.401 0.192 0.552l-0.001-0.002c0.756 0.957 1.587 1.797 2.502 2.538l0.030 0.023c0.151 0.122 0.346 0.197 0.558 0.197 0.261 0 0.497-0.113 0.659-0.292l0.001-0.001c0.957-1.059 2.67-1.451 3.989-0.897 1.286 0.552 2.171 1.808 2.171 3.27 0 0.071-0.002 0.142-0.006 0.213l0-0.010c-0.001 0.015-0.002 0.034-0.002 0.052 0 0.455 0.342 0.83 0.783 0.882l0.004 0c0.553 0.068 1.193 0.107 1.842 0.107 0.619 0 1.23-0.035 1.831-0.104l-0.073 0.007c0.448-0.051 0.793-0.428 0.793-0.885 0-0.011-0-0.022-0.001-0.033l0 0.002c-0.001-0.038-0.002-0.083-0.002-0.128 0-1.471 0.894-2.734 2.168-3.275l0.023-0.009c1.317-0.538 3.011-0.144 3.963 0.902 0.164 0.178 0.398 0.289 0.659 0.289 0.208 0 0.399-0.071 0.551-0.19l-0.002 0.001c0.968-0.763 1.817-1.603 2.565-2.529l0.024-0.030c0.123-0.151 0.197-0.346 0.197-0.558 0-0.261-0.112-0.495-0.291-0.658l-0.001-0.001c-0.719-0.651-1.168-1.588-1.168-2.63 0-0.491 0.1-0.959 0.28-1.384l-0.009 0.023c0.56-1.281 1.813-2.161 3.272-2.169h0.001l0.198 0.005c0.016 0.001 0.034 0.002 0.052 0.002 0.455 0 0.83-0.341 0.884-0.782l0-0.004c0.068-0.555 0.107-1.198 0.107-1.849 0-0.631-0.036-1.253-0.107-1.864l0.007 0.074zM16.026 21.371c-0 0-0 0-0 0-2.947 0-5.337-2.389-5.337-5.337s2.389-5.337 5.337-5.337c2.947 0 5.337 2.389 5.337 5.337v0c-0.003 2.946-2.391 5.334-5.336 5.337h-0z"></path>
</symbol>
<symbol id="icon-tax" viewBox="0 0 32 32">
<title>tax</title>
<path fill="#fff" style="fill: var(--color1, #fff)" d="M5.361 0.719c-1.047 0.376-1.782 1.36-1.782 2.516 0 0.33 0.060 0.646 0.17 0.938l-0.006-0.018 8.952 24.362c0.791 2.155 3.179 3.308 5.332 2.512 1.588-0.599 2.697-2.106 2.697-3.873 0-2.28-1.849-4.129-4.129-4.129-0.983 0-1.886 0.344-2.595 0.918l0.008-0.006-8.646-23.218zM15.939 25.369c0.195-0.074 0.42-0.117 0.656-0.117 1.051 0 1.903 0.852 1.903 1.903s-0.852 1.903-1.903 1.903c-0.815 0-1.511-0.513-1.782-1.234l-0.004-0.013c-0.074-0.195-0.117-0.42-0.117-0.656 0-0.815 0.513-1.511 1.234-1.782l0.013-0.004z"></path>
<path fill="#e2e2e2" style="fill: var(--color2, #e2e2e2)" d="M14.007 23.937v0l-8.646-23.218c-0.066 0.023-0.13 0.050-0.193 0.077v0q-0.053 0.023-0.104 0.048c-0.015 0.007-0.029 0.015-0.044 0.022q-0.056 0.029-0.11 0.060c-0.009 0.005-0.018 0.010-0.027 0.016q-0.070 0.041-0.136 0.086l-0.004 0.003q-0.063 0.043-0.123 0.090c-0.008 0.006-0.016 0.012-0.024 0.019q-0.053 0.042-0.103 0.086c-0.006 0.006-0.013 0.011-0.019 0.017-0.081 0.072-0.155 0.147-0.225 0.225l-0.002 0.003 9.038 24.346q0.070-0.056 0.142-0.109c0.668-0.805 1.668-1.314 2.788-1.314 1.996 0 3.615 1.618 3.615 3.615 0 1.139-0.527 2.155-1.35 2.818l-0.007 0.005c0.468-0.241 0.866-0.551 1.197-0.921l0.003-0.004c0.003-0.004 0.007-0.008 0.011-0.012 0.037-0.041 0.072-0.084 0.107-0.126 0.006-0.007 0.012-0.015 0.018-0.022 0.033-0.041 0.065-0.082 0.096-0.124 0.007-0.010 0.015-0.020 0.022-0.030q0.045-0.061 0.087-0.123c0.008-0.012 0.016-0.023 0.024-0.035q0.041-0.061 0.079-0.124c0.008-0.013 0.016-0.026 0.024-0.039 0.025-0.041 0.049-0.083 0.072-0.125 0.008-0.014 0.015-0.028 0.023-0.042 0.023-0.042 0.045-0.084 0.066-0.127 0.007-0.014 0.013-0.028 0.020-0.043 0.021-0.043 0.041-0.087 0.060-0.131 0.006-0.013 0.011-0.026 0.017-0.040 0.019-0.046 0.038-0.092 0.056-0.138 0.003-0.008 0.006-0.017 0.009-0.026 0.052-0.132 0.104-0.297 0.145-0.467l0.006-0.028c0.002-0.007 0.004-0.014 0.005-0.020 0.009-0.040 0.017-0.080 0.025-0.12 0.005-0.024 0.010-0.048 0.015-0.072 0.007-0.036 0.012-0.072 0.017-0.108 0.004-0.029 0.009-0.057 0.013-0.086 0.005-0.034 0.008-0.069 0.012-0.103 0.003-0.031 0.007-0.062 0.009-0.093 0.003-0.033 0.005-0.067 0.007-0.1s0.004-0.065 0.005-0.098 0.002-0.065 0.002-0.098c0-0.034 0.001-0.067 0-0.101-0-0.032-0.001-0.064-0.002-0.096q-0.002-0.052-0.005-0.104c-0.002-0.031-0.004-0.063-0.007-0.094-0.003-0.036-0.007-0.071-0.011-0.107-0.003-0.031-0.007-0.061-0.011-0.092-0.005-0.037-0.011-0.073-0.017-0.11-0.005-0.030-0.009-0.060-0.015-0.090-0.007-0.038-0.015-0.076-0.023-0.113-0.006-0.029-0.012-0.057-0.019-0.086-0.009-0.040-0.020-0.079-0.031-0.119-0.007-0.027-0.014-0.053-0.021-0.080-0.012-0.044-0.027-0.088-0.041-0.132-0.007-0.022-0.014-0.044-0.021-0.066q-0.034-0.099-0.073-0.197c-0.134-0.331-0.294-0.617-0.484-0.879l0.008 0.012c-0.059-0.081-0.121-0.16-0.185-0.236-0.057-0.068-0.115-0.134-0.176-0.198-0.004-0.004-0.007-0.008-0.011-0.012q-0.067-0.069-0.137-0.135t-0.142-0.129q-0.145-0.125-0.301-0.236c-0.538-0.388-1.189-0.654-1.894-0.744l-0.021-0.002c-0.013-0.002-0.027-0.003-0.040-0.005-0.122-0.014-0.245-0.023-0.368-0.026-0.029-0.001-0.063-0.001-0.097-0.001-0.38 0-0.748 0.052-1.097 0.15l0.029-0.007q-0.097 0.026-0.193 0.058-0.185 0.060-0.359 0.136v0c-0.052 0.023-0.104 0.046-0.155 0.071-0.015 0.007-0.030 0.015-0.045 0.022q-0.056 0.028-0.111 0.057c-0.015 0.008-0.029 0.016-0.044 0.023-0.197 0.109-0.365 0.221-0.524 0.343l0.010-0.007c-0.027 0.021-0.055 0.041-0.082 0.063z"></path>
<path fill="#fff" style="fill: var(--color1, #fff)" d="M31.248 20.183h-29.060c-0.415 0-0.752-0.337-0.752-0.752 0-0 0-0 0-0v0-14.525c0-0.415 0.337-0.752 0.752-0.752h29.060c0 0 0 0 0 0 0.415 0 0.752 0.337 0.752 0.752v0 14.525c0 0 0 0 0 0 0 0.415-0.337 0.752-0.752 0.752-0 0-0 0-0 0v0z"></path>
<path fill="#e2e2e2" style="fill: var(--color2, #e2e2e2)" d="M31.248 4.154h-2.137v14c0 0.415-0.337 0.752-0.752 0.752h-26.923v0.525c0 0.415 0.337 0.752 0.752 0.752v0h29.060c0 0 0 0 0 0 0.415 0 0.752-0.337 0.752-0.752v-14.525c0-0 0-0 0-0 0-0.415-0.337-0.752-0.752-0.752-0 0-0 0-0 0v0z"></path>
<path fill="#e2e2e2" style="fill: var(--color2, #e2e2e2)" d="M9.913 4.154h0.929v16.029h-0.929v-16.029z"></path>
<path fill="#e2e2e2" style="fill: var(--color2, #e2e2e2)" d="M15.363 0.719l-8.646 23.218c-0.701-0.568-1.604-0.911-2.587-0.911-2.28 0-4.129 1.849-4.129 4.129 0 1.766 1.109 3.273 2.668 3.863l0.028 0.009c2.153 0.796 4.54-0.358 5.332-2.512l8.952-24.362c0.104-0.273 0.163-0.589 0.163-0.919 0-1.156-0.735-2.14-1.763-2.51l-0.019-0.006zM5.916 27.811c-0.275 0.734-0.971 1.247-1.786 1.247-1.051 0-1.903-0.852-1.903-1.903s0.852-1.903 1.903-1.903c0.235 0 0.461 0.043 0.669 0.121l-0.013-0.004c0.734 0.275 1.247 0.971 1.247 1.786 0 0.235-0.043 0.461-0.121 0.669l0.004-0.013z"></path>
<path fill="#fff" style="fill: var(--color1, #fff)" d="M15.599 0.815c0.251 0.399 0.4 0.884 0.4 1.404 0 0.33-0.060 0.646-0.17 0.937l0.006-0.018-8.952 24.361c-0.791 2.155-3.179 3.308-5.332 2.512-0.265-0.099-0.492-0.211-0.706-0.34l0.018 0.010c0.468 0.603 1.089 1.067 1.805 1.336l0.028 0.009c2.153 0.796 4.54-0.358 5.332-2.512l8.952-24.362c0.103-0.273 0.163-0.589 0.163-0.919 0-1.066-0.625-1.986-1.529-2.413l-0.016-0.007z"></path>
<path fill="#2ed573" style="fill: var(--color3, #2ed573)" d="M18.595 10.152h-2.321c-0.169 0-0.258 0.166-0.258 0.331 0 0.195 0.109 0.337 0.258 0.337h0.804v3.287c0 0.152 0.148 0.258 0.359 0.258 0.178 0 0.359-0.089 0.359-0.258v-3.287h0.799c0.152 0 0.258-0.141 0.258-0.342-0-0.157-0.081-0.325-0.258-0.325z"></path>
<path fill="#2ed573" style="fill: var(--color3, #2ed573)" d="M22.25 10.362c-0.049-0.148-0.222-0.244-0.44-0.244-0.214 0-0.385 0.096-0.434 0.245l-1.113 3.622c-0.006 0.018-0.009 0.039-0.009 0.061 0 0.003 0 0.006 0 0.009l-0-0c0 0.182 0.227 0.309 0.432 0.309 0.177 0 0.243-0.091 0.267-0.168l0.216-0.749h1.288l0.217 0.75c0.034 0.108 0.126 0.167 0.261 0.167 0.206 0 0.437-0.132 0.437-0.309-0.001-0.025-0.006-0.048-0.014-0.070l0 0.001zM21.334 12.847l0.476-1.632 0.476 1.632z"></path>
<path fill="#2ed573" style="fill: var(--color3, #2ed573)" d="M27.97 13.879l-0.949-1.624 0.922-1.613c0.031-0.050 0.050-0.111 0.053-0.175l0-0.001c0-0.195-0.227-0.331-0.431-0.331-0.127 0.005-0.235 0.085-0.278 0.198l-0.001 0.002-0.728 1.331-0.717-1.33c-0.088-0.166-0.2-0.201-0.279-0.201-0.207 0-0.437 0.136-0.437 0.331 0.003 0.066 0.022 0.126 0.054 0.178l-0.001-0.002 0.922 1.613-0.951 1.628c-0.023 0.042-0.038 0.092-0.040 0.145l-0 0.001c0 0.196 0.242 0.353 0.443 0.353 0.108-0.008 0.199-0.073 0.244-0.165l0.001-0.002 0.762-1.388 0.771 1.386c0.042 0.095 0.133 0.161 0.24 0.169l0.001 0c0.207 0 0.448-0.154 0.448-0.353-0.005-0.056-0.022-0.106-0.049-0.15l0.001 0.002z"></path>
<path fill="#2ed573" style="fill: var(--color3, #2ed573)" d="M8.019 9.233c-0-0.111-0.090-0.202-0.202-0.202h-4.278c-0.112 0-0.202 0.090-0.202 0.202s0.090 0.202 0.202 0.202v0h1.224c0.825 0 1.508 0.612 1.62 1.406l0.001 0.009h-2.843c-0.112 0-0.202 0.090-0.202 0.202s0.090 0.202 0.202 0.202h2.843c-0.103 0.812-0.789 1.433-1.62 1.434h-1.225c-0.112 0.001-0.202 0.092-0.202 0.204 0 0.058 0.024 0.11 0.063 0.147l0 0 3.057 2.889c0.036 0.034 0.085 0.055 0.139 0.055 0.058 0 0.11-0.024 0.148-0.063l0-0c0.034-0.037 0.055-0.086 0.055-0.14 0-0.058-0.024-0.111-0.063-0.149l-0-0-2.688-2.54h0.715c1.054-0.002 1.92-0.803 2.026-1.83l0.001-0.009h1.027c0.112 0 0.202-0.090 0.202-0.202s-0.090-0.202-0.202-0.202h-1.026c-0.063-0.582-0.365-1.083-0.805-1.411l-0.005-0.004h1.837c0.111-0 0.202-0.091 0.202-0.202v-0z"></path>
</symbol>
</defs>
</svg>
