<svg xmlns="http://www.w3.org/2000/svg" viewBox="1310 109.924 395.957 324.151">
  <defs>
    <style>
      .cls-1 {
        fill: #8ad8f4;
      }

      .cls-2 {
        fill: #e4eaf6;
      }

      .cls-3 {
        fill: #e6af78;
      }

      .cls-4 {
        fill: #707487;
      }

      .cls-5 {
        fill: #d29b6e;
      }

      .cls-6 {
        fill: #f0c087;
      }

      .cls-7 {
        fill: #5b5d6e;
      }

      .cls-8 {
        fill: #515262;
      }

      .cls-9 {
        fill: #785550;
      }

      .cls-10 {
        fill: #694b4b;
      }

      .cls-11 {
        fill: #5a4146;
      }

      .cls-12 {
        fill: #eff2fa;
      }

      .cls-13 {
        fill: #65b8d4;
      }

      .cls-14 {
        fill: #e6e9ee;
      }

      .cls-15 {
        fill: #fff;
      }

      .cls-16 {
        fill: #ced5e0;
      }

      .cls-17 {
        fill: #acb3ba;
      }

      .cls-18 {
        fill: #324a5e;
      }

      .cls-19 {
        fill: #4cdbc4;
      }

      .cls-20 {
        fill: #ff7058;
      }

      .cls-21 {
        fill: #84dbff;
      }
    </style>
  </defs>
  <g id="group" transform="translate(1029 -34.076)">
    <circle id="Ellipse_25" data-name="Ellipse 25" class="cls-1" cx="162.076" cy="162.076" r="162.076" transform="translate(352.806 144)"/>
    <g id="collaboration" transform="translate(404.608 169.788)">
      <path id="Path_304" data-name="Path 304" class="cls-2" d="M214.159,267.752V228.285h-8.331v39.467L165.22,295.669l4.719,6.867L209.994,275l40.055,27.539,4.719-6.867Z" transform="translate(-97.518 -120.931)"/>
      <path id="Path_305" data-name="Path 305" class="cls-3" d="M258.241,152.478V139.02H223.633v13.458l17.3,15.381Z" transform="translate(-128.461 -73.644)"/>
      <path id="Path_306" data-name="Path 306" class="cls-4" d="M248.177,173.655l-23.791-5.6a3.812,3.812,0,0,1-1-.4L204.117,178.9,185.6,167.112a3.826,3.826,0,0,1-1.75.946l-23.791,5.6a7.691,7.691,0,0,0-5.93,7.487V196.2a3.845,3.845,0,0,0,3.845,3.845H250.26a3.845,3.845,0,0,0,3.845-3.845V181.142A7.69,7.69,0,0,0,248.177,173.655Z" transform="translate(-91.641 -88.525)"/>
      <path id="Path_307" data-name="Path 307" class="cls-5" d="M223.633,139.02v14.2c21.8,7.853,34.608-11.8,34.608-11.8v-2.4Z" transform="translate(-128.461 -73.644)"/>
      <path id="Path_308" data-name="Path 308" class="cls-6" d="M207.28,44.985l1.676,36.86a11.537,11.537,0,0,0,4.6,8.705l7.95,5.962a11.535,11.535,0,0,0,6.921,2.307h7.691a11.537,11.537,0,0,0,6.921-2.307l7.95-5.962a11.536,11.536,0,0,0,4.6-8.705l1.676-36.86Z" transform="translate(-119.798 -23.83)"/>
      <path id="Path_309" data-name="Path 309" class="cls-3" d="M226.506,52.676c7.691,0,19.227-1.922,21.963-7.691H207.28l1.675,36.86a11.537,11.537,0,0,0,4.6,8.705l7.95,5.962a11.535,11.535,0,0,0,6.921,2.307h3.845c-3.845,0-11.536-7.691-11.536-17.3V58.443C220.738,56.521,222.661,52.676,226.506,52.676Z" transform="translate(-119.798 -23.83)"/>
      <g id="Group_327" data-name="Group 327" transform="translate(62.487 87.85)">
        <path id="Path_310" data-name="Path 310" class="cls-7" d="M333.123,198l12.459-11.192a7.677,7.677,0,0,1,1.656,4.766v15.058a3.845,3.845,0,0,1-3.845,3.845H329.934v-5.327A9.615,9.615,0,0,1,333.123,198Z" transform="translate(-247.259 -186.81)"/>
        <path id="Path_311" data-name="Path 311" class="cls-7" d="M168.244,198,155.785,186.81a7.677,7.677,0,0,0-1.656,4.766v15.058a3.845,3.845,0,0,0,3.845,3.845h13.458v-5.327A9.612,9.612,0,0,0,168.244,198Z" transform="translate(-154.129 -186.81)"/>
        <path id="Path_312" data-name="Path 312" class="cls-7" d="M259.822,217.651h-9.614l1.2-17.3h7.21Z" transform="translate(-205.025 -193.981)"/>
      </g>
      <path id="Path_313" data-name="Path 313" class="cls-8" d="M259.822,192.17h-9.614v1.111a4.657,4.657,0,0,0,4.658,4.657h.3a4.657,4.657,0,0,0,4.658-4.657V192.17Z" transform="translate(-142.539 -101.8)"/>
      <g id="Group_328" data-name="Group 328" transform="translate(89.404 74.06)">
        <path id="Path_314" data-name="Path 314" class="cls-7" d="M216.866,157.98,234.44,173.8a66.316,66.316,0,0,0-11,7.492,2.467,2.467,0,0,1-3.82-.864l-8.256-18.164,2.612-3.918A1.924,1.924,0,0,1,216.866,157.98Z" transform="translate(-211.368 -157.487)"/>
        <path id="Path_315" data-name="Path 315" class="cls-7" d="M278,157.98,260.43,173.8a66.315,66.315,0,0,1,11,7.492,2.467,2.467,0,0,0,3.82-.864l8.256-18.164-2.612-3.918A1.924,1.924,0,0,0,278,157.98Z" transform="translate(-237.358 -157.487)"/>
      </g>
      <path id="Path_316" data-name="Path 316" class="cls-9" d="M285.216,16.554l1.8,12.738c8.228,1.645,9.414,14.558,9.584,18.246a3.793,3.793,0,0,0,.608,1.879l3.139,4.87s-1.075-8.051,3.845-13.458C304.2,40.827,305.885,8.863,285.216,16.554Z" transform="translate(-161.084 -8.136)"/>
      <path id="Path_317" data-name="Path 317" class="cls-6" d="M312.659,90.816,310.488,99.5a2.312,2.312,0,0,1-2.243,1.751h0a2.312,2.312,0,0,1-2.294-2.024l-1.11-8.883a3.98,3.98,0,0,1,3.949-4.474h.008A3.98,3.98,0,0,1,312.659,90.816Z" transform="translate(-171.463 -45.489)"/>
      <path id="Path_318" data-name="Path 318" class="cls-10" d="M202.424,4.973l2.844,1.943c-12.857,9.493-10.454,25.776-10.454,25.776,3.845,3.845,3.845,13.458,3.845,13.458L202.5,42.3S201.02,31.2,208.273,26.923C215,22.958,220.89,25,226.9,25c16.1,0,20.608-6.068,19.827-13.458-.4-3.824-6.251-11.789-21.149-11.536C219.564.108,208.272,1.929,202.424,4.973Z" transform="translate(-113.1 0)"/>
      <path id="Path_319" data-name="Path 319" class="cls-11" d="M201.3,31.108s-2.043-8.051,3.965-16.4c-12.857,9.493-10.454,25.776-10.454,25.776,3.845,3.845,3.845,13.458,3.845,13.458l3.845-3.845s-1.484-11.108,5.768-15.381C215,30.748,220.89,32.79,226.9,32.79a47.25,47.25,0,0,0,6.934-.476C221.431,32.73,214.12,23.337,201.3,31.108Z" transform="translate(-113.1 -7.79)"/>
      <path id="Path_320" data-name="Path 320" class="cls-3" d="M199.223,90.816l2.171,8.685a2.312,2.312,0,0,0,2.243,1.751h0a2.312,2.312,0,0,0,2.294-2.024l1.11-8.883a3.98,3.98,0,0,0-3.949-4.474h-.008A3.98,3.98,0,0,0,199.223,90.816Z" transform="translate(-115.466 -45.489)"/>
      <path id="Path_321" data-name="Path 321" class="cls-7" d="M294.331,228.967h-9.614a3.845,3.845,0,0,0-3.845,3.845h17.3A3.846,3.846,0,0,0,294.331,228.967Z" transform="translate(-158.783 -121.292)"/>
      <path id="Path_322" data-name="Path 322" class="cls-3" d="M125.366,427.088V413.629H90.758v13.459l17.3,15.381Z" transform="translate(-58.072 -219.114)"/>
      <path id="Path_323" data-name="Path 323" class="cls-12" d="M115.3,448.265l-23.791-5.6a3.8,3.8,0,0,1-1-.4l-19.27,11.241L52.724,441.722a3.826,3.826,0,0,1-1.75.946l-23.791,5.6a7.691,7.691,0,0,0-5.93,7.487V470.81a3.845,3.845,0,0,0,3.845,3.845h92.288a3.845,3.845,0,0,0,3.845-3.845V455.752A7.69,7.69,0,0,0,115.3,448.265Z" transform="translate(-21.253 -233.996)"/>
      <path id="Path_324" data-name="Path 324" class="cls-5" d="M90.758,413.629v14.2c21.8,7.853,34.608-11.8,34.608-11.8v-2.4Z" transform="translate(-58.072 -219.114)"/>
      <path id="Path_325" data-name="Path 325" class="cls-6" d="M74.4,319.595l1.676,36.86a11.537,11.537,0,0,0,4.6,8.705l7.95,5.962a11.535,11.535,0,0,0,6.921,2.307h7.691a11.537,11.537,0,0,0,6.921-2.307l7.95-5.962a11.536,11.536,0,0,0,4.6-8.705l1.676-36.86H74.4Z" transform="translate(-49.409 -169.301)"/>
      <path id="Path_326" data-name="Path 326" class="cls-3" d="M93.631,327.285c7.691,0,19.227-1.922,21.963-7.691H74.4l1.675,36.86a11.537,11.537,0,0,0,4.6,8.705l7.95,5.962a11.535,11.535,0,0,0,6.921,2.307H99.4c-3.845,0-11.536-7.691-11.536-17.3V333.052C87.862,331.13,89.785,327.285,93.631,327.285Z" transform="translate(-49.409 -169.301)"/>
      <g id="Group_329" data-name="Group 329" transform="translate(0 216.989)">
        <path id="Path_327" data-name="Path 327" class="cls-2" d="M200.247,472.611l12.459-11.192a7.677,7.677,0,0,1,1.656,4.766v15.058a3.845,3.845,0,0,1-3.845,3.845H197.058v-5.327A9.616,9.616,0,0,1,200.247,472.611Z" transform="translate(-114.384 -461.419)"/>
        <path id="Path_328" data-name="Path 328" class="cls-2" d="M35.369,472.611,22.91,461.419a7.677,7.677,0,0,0-1.656,4.766v15.058a3.845,3.845,0,0,0,3.845,3.845H38.558v-5.327A9.612,9.612,0,0,0,35.369,472.611Z" transform="translate(-21.254 -461.419)"/>
      </g>
      <path id="Path_329" data-name="Path 329" class="cls-7" d="M126.947,492.26h-9.614l1.2-17.3h7.21Z" transform="translate(-72.15 -251.601)"/>
      <path id="Path_330" data-name="Path 330" class="cls-8" d="M126.947,466.78h-9.614v1.111a4.657,4.657,0,0,0,4.657,4.658h.3a4.657,4.657,0,0,0,4.658-4.658V466.78Z" transform="translate(-72.15 -247.27)"/>
      <g id="Group_330" data-name="Group 330" transform="translate(26.917 203.199)">
        <path id="Path_331" data-name="Path 331" class="cls-2" d="M83.99,432.589l17.574,15.816a66.316,66.316,0,0,0-11,7.492,2.467,2.467,0,0,1-3.82-.864l-8.256-18.164,2.612-3.918A1.924,1.924,0,0,1,83.99,432.589Z" transform="translate(-78.492 -432.095)"/>
        <path id="Path_332" data-name="Path 332" class="cls-2" d="M145.129,432.589l-17.574,15.816a66.316,66.316,0,0,1,11,7.492,2.467,2.467,0,0,0,3.82-.864l8.256-18.164-2.612-3.918A1.924,1.924,0,0,0,145.129,432.589Z" transform="translate(-104.482 -432.095)"/>
      </g>
      <path id="Path_333" data-name="Path 333" class="cls-9" d="M152.341,291.162l1.8,12.738c8.228,1.645,9.414,14.558,9.584,18.246a3.793,3.793,0,0,0,.608,1.879l3.139,4.87s-1.075-8.051,3.845-13.458C171.32,315.436,173.01,283.472,152.341,291.162Z" transform="translate(-90.695 -153.607)"/>
      <path id="Path_334" data-name="Path 334" class="cls-6" d="M179.783,365.424l-2.171,8.685a2.312,2.312,0,0,1-2.243,1.751h0a2.312,2.312,0,0,1-2.294-2.024l-1.11-8.883a3.98,3.98,0,0,1,3.949-4.474h.008A3.98,3.98,0,0,1,179.783,365.424Z" transform="translate(-101.074 -190.959)"/>
      <path id="Path_335" data-name="Path 335" class="cls-10" d="M69.549,279.582l2.844,1.943C59.536,291.018,61.939,307.3,61.939,307.3c3.845,3.845,3.845,13.458,3.845,13.458l3.845-3.845s-1.484-11.108,5.768-15.381c6.729-3.965,12.618-1.922,18.626-1.922,16.1,0,20.608-6.068,19.827-13.458-.4-3.824-6.251-11.789-21.149-11.536C86.689,274.717,75.4,276.538,69.549,279.582Z" transform="translate(-42.711 -145.471)"/>
      <path id="Path_336" data-name="Path 336" class="cls-11" d="M68.428,305.716s-2.043-8.051,3.965-16.4c-12.857,9.493-10.454,25.776-10.454,25.776,3.845,3.845,3.845,13.458,3.845,13.458l3.845-3.845s-1.484-11.108,5.768-15.381c6.729-3.965,12.618-1.922,18.626-1.922a47.257,47.257,0,0,0,6.934-.476C88.555,307.338,81.245,297.945,68.428,305.716Z" transform="translate(-42.711 -153.26)"/>
      <path id="Path_337" data-name="Path 337" class="cls-3" d="M66.348,365.425l2.171,8.685a2.312,2.312,0,0,0,2.243,1.751h0a2.312,2.312,0,0,0,2.294-2.025l1.11-8.883a3.98,3.98,0,0,0-3.949-4.474h-.008A3.979,3.979,0,0,0,66.348,365.425Z" transform="translate(-45.077 -190.959)"/>
      <path id="Path_338" data-name="Path 338" class="cls-2" d="M161.456,503.575h-9.614A3.845,3.845,0,0,0,148,507.42h17.3A3.846,3.846,0,0,0,161.456,503.575Z" transform="translate(-88.394 -266.762)"/>
      <path id="Path_339" data-name="Path 339" class="cls-10" d="M363.264,277.513c-38.786,0-34.486,47.167-34.309,81.348a3.649,3.649,0,0,0,1.789,3.121,65.465,65.465,0,0,0,65.04,0,3.651,3.651,0,0,0,1.789-3.121C397.75,324.68,402.051,277.513,363.264,277.513Z" transform="translate(-184.135 -147.009)"/>
      <path id="Path_340" data-name="Path 340" class="cls-11" d="M360.768,277.72c-36.073,2.023-31.983,47.831-31.81,81.25a3.649,3.649,0,0,0,1.789,3.121,64.288,64.288,0,0,0,32.52,8.649l9.8-68.613" transform="translate(-184.139 -147.118)"/>
      <path id="Path_341" data-name="Path 341" class="cls-10" d="M375.6,277.513c-22.054,0-23.586,26.648-23.586,26.648,12.712-2.144,20.523,3.216,33.388-2.144l-9.8,68.613a64.287,64.287,0,0,0,32.52-8.649,3.651,3.651,0,0,0,1.789-3.121C410.082,324.68,414.382,277.513,375.6,277.513Z" transform="translate(-196.467 -147.009)"/>
      <path id="Path_342" data-name="Path 342" class="cls-9" d="M451.6,361.86c.152-29.371,3.323-68.3-20.39-78.685-.413,2.149-1.163,8.147.784,12.04,4.9,9.8,9.8,9.8,14.7,17.153,4.9,26.955-9.364,55.565-14.1,59.46h0a61.626,61.626,0,0,0,17.217-6.847A3.651,3.651,0,0,0,451.6,361.86Z" transform="translate(-238.158 -150.008)"/>
      <path id="Path_343" data-name="Path 343" class="cls-3" d="M392.372,444.276l-21.865-9.11a4.9,4.9,0,0,1-3.016-4.524V424.72h-24.5v5.922a4.9,4.9,0,0,1-3.016,4.524l-21.865,9.11a7.352,7.352,0,0,0-4.524,6.786v9.8a4.9,4.9,0,0,0,4.9,4.9H392a4.9,4.9,0,0,0,4.9-4.9v-9.8A7.351,7.351,0,0,0,392.372,444.276Z" transform="translate(-176.11 -224.99)"/>
      <path id="Path_344" data-name="Path 344" class="cls-12" d="M392.371,456.382l-21.141-8.809-15.992,6.9-15.992-6.9L318.1,456.382a7.351,7.351,0,0,0-4.524,6.786v9.8a4.9,4.9,0,0,0,4.9,4.9h73.513a4.9,4.9,0,0,0,4.9-4.9v-9.8A7.35,7.35,0,0,0,392.371,456.382Z" transform="translate(-176.109 -237.096)"/>
      <path id="Path_345" data-name="Path 345" class="cls-5" d="M393.369,424.718h-24.5v5.922a4.9,4.9,0,0,1-3.016,4.524l-3.415,1.423C388.567,443.25,393.369,424.718,393.369,424.718Z" transform="translate(-201.988 -224.989)"/>
      <g id="Group_331" data-name="Group 331" transform="translate(137.471 206.469)">
        <path id="Path_346" data-name="Path 346" class="cls-2" d="M325.524,477.649l-9.836-7.824a7.334,7.334,0,0,0-2.108,5.13v9.8a4.9,4.9,0,0,0,4.9,4.9h9.8V483.39A7.354,7.354,0,0,0,325.524,477.649Z" transform="translate(-313.58 -455.352)"/>
        <path id="Path_347" data-name="Path 347" class="cls-2" d="M474.185,484.791v-9.8a7.334,7.334,0,0,0-2.076-5.1l-9.867,7.793a7.351,7.351,0,0,0-2.759,5.741v6.269h9.8A4.9,4.9,0,0,0,474.185,484.791Z" transform="translate(-390.87 -455.386)"/>
        <path id="Path_348" data-name="Path 348" class="cls-2" d="M399.771,480.75h-.735a2.083,2.083,0,0,1-2.083-2.083V462.262h4.9v16.406A2.083,2.083,0,0,1,399.771,480.75Z" transform="translate(-357.746 -451.346)"/>
        <path id="Path_349" data-name="Path 349" class="cls-2" d="M380.081,449.959l-14.025-10.518a1.96,1.96,0,0,0-2.807.481l-2.771,4.157,8.6,12.038a1.961,1.961,0,0,0,2.82.392Z" transform="translate(-338.424 -439.049)"/>
        <path id="Path_350" data-name="Path 350" class="cls-2" d="M402.164,449.959l14.025-10.518a1.96,1.96,0,0,1,2.807.481l2.771,4.157-8.6,12.038a1.961,1.961,0,0,1-2.82.392Z" transform="translate(-360.506 -439.049)"/>
      </g>
      <path id="Path_351" data-name="Path 351" class="cls-6" d="M387.329,324.41c-12.252,12.252-36.3,2.451-36.3,22.054l1.522,14.44a9.8,9.8,0,0,0,5,7.681l13.952,7.751a7.351,7.351,0,0,0,7.14,0l13.952-7.751a9.8,9.8,0,0,0,5-7.681l1.756-17.15a27.069,27.069,0,0,0,.111-3.669C398.551,333.848,389.78,329.311,387.329,324.41Z" transform="translate(-195.949 -171.852)"/>
      <path id="Path_352" data-name="Path 352" class="cls-3" d="M351.032,346.465l1.522,14.44a9.8,9.8,0,0,0,5,7.681l13.952,7.751a7.322,7.322,0,0,0,4.99.746h0s-7.034-2.132-11.221-13.465c-1.282-3.471-3.063-21.85-1.532-24.1,3.027-4.44,19.91-4.9,24.9-13.137q-.37-.459-.681-.918c-.016-.024-.037-.049-.054-.074a9.36,9.36,0,0,1-.577-.98C375.078,336.663,351.032,326.861,351.032,346.465Z" transform="translate(-195.949 -171.852)"/>
      <path id="Path_353" data-name="Path 353" class="cls-2" d="M428.334,501.577h-6.371a4.166,4.166,0,0,0-4.166,4.166v.735h14.7v-.735A4.166,4.166,0,0,0,428.334,501.577Z" transform="translate(-231.317 -265.704)"/>
    </g>
    <g id="laptop" transform="translate(281 160.669)">
      <circle id="Ellipse_26" data-name="Ellipse 26" class="cls-13" cx="64.753" cy="64.753" r="64.753"/>
      <path id="Path_354" data-name="Path 354" class="cls-13" d="M31.1,373.9a64.753,64.753,0,0,0,113.555,0Z" transform="translate(-23.124 -278.014)"/>
      <path id="Path_355" data-name="Path 355" class="cls-14" d="M178.67,161.718h-75.7a.679.679,0,0,1-.667-.667V107.967a.679.679,0,0,1,.667-.667h75.7a.679.679,0,0,1,.667.667v53.111A.657.657,0,0,1,178.67,161.718Z" transform="translate(-76.065 -79.783)"/>
      <rect id="Rectangle_67" data-name="Rectangle 67" class="cls-15" width="68.651" height="43.648" transform="translate(30.44 32.902)"/>
      <path id="Path_356" data-name="Path 356" class="cls-16" d="M156.736,327.911H55.9l9.617-6.873a8.2,8.2,0,0,1,4.77-1.539h72.036a8.14,8.14,0,0,1,4.77,1.539Z" transform="translate(-41.565 -237.565)"/>
      <path id="Path_357" data-name="Path 357" class="cls-17" d="M55.9,352.3a5.669,5.669,0,0,0,5.668,5.668h89.449a5.669,5.669,0,0,0,5.668-5.668Z" transform="translate(-41.565 -261.953)"/>
      <rect id="Rectangle_68" data-name="Rectangle 68" class="cls-18" width="14.9" height="1.923" transform="translate(57.291 92.091)"/>
      <rect id="Rectangle_69" data-name="Rectangle 69" class="cls-19" width="5.232" height="5.232" transform="translate(34.031 36.57)"/>
      <rect id="Rectangle_70" data-name="Rectangle 70" class="cls-20" width="5.232" height="5.232" transform="translate(34.031 44.263)"/>
      <path id="Path_358" data-name="Path 358" class="cls-21" d="M197.7,173.851h3.334a11.646,11.646,0,0,1,10.078-9.617V160.9A14.942,14.942,0,0,0,197.7,173.851Z" transform="translate(-147 -119.637)"/>
      <path id="Path_359" data-name="Path 359" class="cls-19" d="M200.634,222.5H197.3a14.979,14.979,0,0,0,13.515,14v-3.334A11.644,11.644,0,0,1,200.634,222.5Z" transform="translate(-146.703 -165.44)"/>
      <path id="Path_360" data-name="Path 360" class="cls-21" d="M271.307,222.5A11.645,11.645,0,0,1,261.1,233.168V236.5a14.957,14.957,0,0,0,13.515-14Z" transform="translate(-194.141 -165.44)"/>
      <path id="Path_361" data-name="Path 361" class="cls-20" d="M274.512,173.851A14.967,14.967,0,0,0,261.1,160.9v12.951h13.412Z" transform="translate(-194.141 -119.637)"/>
      <g id="Group_332" data-name="Group 332" transform="translate(39.262 38.416)">
        <path id="Path_362" data-name="Path 362" class="cls-18" d="M308.729,149.8l-5.129,5.155,1.41,1.41,4.565-4.539h6.847V149.8Z" transform="translate(-265.004 -149.8)"/>
        <path id="Path_363" data-name="Path 363" class="cls-18" d="M160.152,266.767H153.1v2.026h7.873l4.283-4.283-1.436-1.41Z" transform="translate(-153.1 -234.044)"/>
        <rect id="Rectangle_71" data-name="Rectangle 71" class="cls-18" width="4.719" height="2.026" transform="translate(9.723 2.351) rotate(45)"/>
        <rect id="Rectangle_72" data-name="Rectangle 72" class="cls-18" width="4.744" height="2.026" transform="translate(39.032 29.047) rotate(45)"/>
      </g>
    </g>
  </g>
</svg>
