<?xml version="1.0" encoding="iso-8859-1"?>
<!-- Generator: Adobe Illustrator 19.0.0, SVG Export Plug-In . SVG Version: 6.00 Build 0)  -->
<svg version="1.1" id="Capa_1" xmlns="http://www.w3.org/2000/svg" xmlns:xlink="http://www.w3.org/1999/xlink" x="0px" y="0px"
	 viewBox="0 0 496.485 496.485" style="enable-background:new 0 0 496.485 496.485;" xml:space="preserve">
<circle style="fill:#4FBF9F;" cx="248.242" cy="248.242" r="248.242"/>
<polygon style="fill:#FFFFFF;" points="224.97,38.012 394.085,38.012 394.085,146.618 354.521,146.618 354.521,183.855 
	294.788,146.618 224.97,146.618 "/>
<path style="fill:#193651;" d="M354.521,191.612c-1.552,0-3.103-0.776-3.879-1.552L293.236,153.6H224.97
	c-4.655,0-7.758-3.103-7.758-7.758V37.236c0-4.655,3.103-7.758,7.758-7.758h169.115c4.655,0,7.758,3.103,7.758,7.758v108.606
	c0,4.655-3.103,7.758-7.758,7.758h-31.806c0,31.806,0,30.255,0,30.255C362.279,188.509,358.4,191.612,354.521,191.612
	L354.521,191.612z M232.727,138.861h62.061c1.552,0,3.103,0.776,3.879,1.552l47.321,30.255v-23.273c0-2.327,0.776-3.879,2.327-5.43
	c1.552-1.552,3.103-2.327,5.43-2.327h31.806V46.545H232.727V138.861z"/>
<polygon style="fill:#FDBF5E;" points="303.321,119.467 252.121,119.467 252.121,65.164 366.933,65.164 366.933,119.467 
	327.37,119.467 327.37,134.206 "/>
<polygon style="fill:#FFFFFF;" points="255.224,62.836 93.091,62.836 93.091,172.994 127.224,172.994 127.224,209.455 
	183.855,172.994 255.224,172.994 "/>
<path style="fill:#193651;" d="M123.345,215.661c-2.327-1.552-3.879-3.879-3.879-6.982v-28.703H93.091
	c-4.655,0-7.758-3.103-7.758-7.758V62.836c0-4.655,3.103-7.758,7.758-7.758H256c4.655,0,7.758,3.103,7.758,7.758v110.158
	c0,4.655-3.103,7.758-7.758,7.758h-69.818l-55.079,34.909C128.776,217.212,125.673,217.212,123.345,215.661z M100.848,165.236
	h26.376c2.327,0,3.879,0.776,5.43,2.327c1.552,1.552,2.327,3.103,2.327,5.43v22.497l44.994-28.703
	c1.552-0.776,2.327-1.552,3.879-1.552h64.388V70.594H100.848V165.236z"/>
<polygon style="fill:#E1E6E9;" points="154.376,145.842 120.242,145.842 120.242,89.988 228.073,89.988 228.073,145.842 
	176.097,145.842 154.376,159.806 "/>
<circle style="fill:#FFFFFF;" cx="123.345" cy="283.927" r="42.667"/>
<path style="fill:#193651;" d="M123.345,335.127c-27.927,0-50.424-22.497-50.424-50.424c0-27.927,22.497-50.424,50.424-50.424
	s50.424,22.497,50.424,50.424C174.545,311.855,151.273,335.127,123.345,335.127z M123.345,249.018
	c-19.394,0-34.909,15.515-34.909,34.909c0,19.394,15.515,34.909,34.909,34.909s34.909-15.515,34.909-34.909
	C159.03,264.533,142.739,249.018,123.345,249.018z"/>
<path style="fill:#FDBF5E;" d="M166.788,341.333c-12.412,9.309-27.152,14.739-42.667,14.739s-31.03-5.43-42.667-14.739
	c-24.048,0.776-42.667,20.945-42.667,44.994v72.145h170.667v-72.145C209.455,362.279,190.836,342.885,166.788,341.333z"/>
<path style="fill:#193651;" d="M209.455,466.23H38.012c-4.655,0-7.758-3.103-7.758-7.758v-72.145
	c0-27.927,21.721-51.2,50.424-52.751c1.552,0,3.879,0.776,4.655,1.552c10.861,8.533,24.824,13.188,38.012,13.188
	c13.964,0,27.152-4.655,38.012-13.188c1.552-0.776,3.103-1.552,4.655-1.552c27.927,1.552,50.424,24.048,50.424,52.751v72.145
	C217.212,463.127,214.109,466.23,209.455,466.23z M45.77,450.715h155.927v-64.388c0-18.618-13.964-34.909-32.582-36.461
	c-13.188,9.309-28.703,13.964-44.994,13.964s-31.806-4.655-44.994-13.964c-18.618,2.327-32.582,17.842-32.582,36.461v64.388H45.77z"
	/>
<g>
	<path style="fill:#FFFFFF;" d="M66.715,429.77v-43.442c0-6.206,3.103-10.861,8.533-13.964
		c14.739,8.533,31.806,12.412,48.873,12.412s34.133-4.655,48.873-12.412c4.655,2.327,8.533,7.758,8.533,13.964v43.442H66.715z"/>
	<circle style="fill:#FFFFFF;" cx="373.139" cy="283.927" r="42.667"/>
</g>
<path style="fill:#193651;" d="M373.139,335.127c-27.927,0-50.424-22.497-50.424-50.424c0-27.927,22.497-50.424,50.424-50.424
	c27.927,0,50.424,22.497,50.424,50.424C423.564,311.855,401.067,335.127,373.139,335.127z M373.139,249.018
	c-19.394,0-34.909,15.515-34.909,34.909c0,19.394,15.515,34.909,34.909,34.909c19.394,0,34.909-15.515,34.909-34.909
	C408.048,264.533,392.533,249.018,373.139,249.018z"/>
<path style="fill:#E1E6E9;" d="M415.806,341.333c-12.412,9.309-27.152,14.739-42.667,14.739c-16.291,0-31.03-5.43-42.667-14.739
	c-24.048,0.776-42.667,20.945-42.667,44.994v72.145h171.442v-72.145C458.473,362.279,439.855,342.885,415.806,341.333z"/>
<path style="fill:#193651;" d="M458.473,466.23H287.03c-4.655,0-7.758-3.103-7.758-7.758v-72.145
	c0-27.927,21.721-51.2,50.424-52.751c1.552,0,3.879,0.776,4.655,1.552c10.861,8.533,24.824,13.188,38.012,13.188
	c13.964,0,27.152-4.655,38.012-13.188c1.552-0.776,3.103-1.552,4.655-1.552c27.927,1.552,50.424,24.048,50.424,52.751v72.145
	C466.23,463.127,463.127,466.23,458.473,466.23z M294.788,450.715h155.927v-64.388c0-18.618-13.964-34.909-32.582-36.461
	c-13.188,9.309-28.703,13.964-44.994,13.964s-31.806-4.655-44.994-13.964c-18.618,2.327-32.582,17.842-32.582,36.461v64.388H294.788
	z"/>
<path style="fill:#FFFFFF;" d="M315.733,429.77v-43.442c0-6.206,3.103-10.861,8.533-13.964
	c14.739,8.533,31.806,12.412,48.873,12.412c17.067,0,34.133-4.655,48.873-12.412c4.655,2.327,8.533,7.758,8.533,13.964v43.442
	H315.733z"/>
<g>
	<rect x="133.43" y="110.933" style="fill:#193651;" width="15.515" height="13.964"/>
	<rect x="166.788" y="110.933" style="fill:#193651;" width="15.515" height="13.964"/>
</g>
<g>
	<rect x="199.37" y="110.933" style="fill:#193651;" width="15.515" height="13.964"/>
	<rect x="83.006" y="398.739" style="fill:#193651;" width="15.515" height="13.964"/>
	<rect x="115.588" y="398.739" style="fill:#193651;" width="15.515" height="13.964"/>
	<rect x="148.945" y="398.739" style="fill:#193651;" width="15.515" height="13.964"/>
	<rect x="332.024" y="398.739" style="fill:#193651;" width="15.515" height="13.964"/>
	<rect x="365.382" y="398.739" style="fill:#193651;" width="15.515" height="13.964"/>
	<rect x="397.964" y="398.739" style="fill:#193651;" width="15.515" height="13.964"/>
	<rect x="274.618" y="86.109" style="fill:#193651;" width="15.515" height="13.964"/>
	<rect x="307.976" y="86.109" style="fill:#193651;" width="15.515" height="13.964"/>
	<rect x="340.558" y="86.109" style="fill:#193651;" width="15.515" height="13.964"/>
</g>
<g>
</g>
<g>
</g>
<g>
</g>
<g>
</g>
<g>
</g>
<g>
</g>
<g>
</g>
<g>
</g>
<g>
</g>
<g>
</g>
<g>
</g>
<g>
</g>
<g>
</g>
<g>
</g>
<g>
</g>
</svg>
