<svg xmlns="http://www.w3.org/2000/svg" viewBox="593.618 578.341 318.665 275.359">
  <defs>
    <style>
      .cls-1 {
        fill: #53c7f0;
      }

      .cls-2 {
        fill: #5e6161;
      }

      .cls-3 {
        fill: #56b46d;
      }

      .cls-4 {
        fill: #fff;
      }

      .cls-5 {
        fill: #d3d3d3;
      }

      .cls-6 {
        fill: #7f8080;
      }

      .cls-7 {
        fill: #d77a1d;
      }

      .cls-8 {
        fill: #f8c963;
      }

      .cls-9 {
        fill: #ba661a;
      }

      .cls-10 {
        fill: #f39323;
      }

      .cls-11 {
        fill: #e61d46;
      }

      .cls-12 {
        fill: #344e5d;
      }

      .cls-13 {
        fill: #107397;
      }

      .cls-14 {
        fill: #535455;
      }

      .cls-15 {
        fill: #1198d6;
      }
    </style>
  </defs>
  <g id="Legal_Compliances" data-name="Legal Compliances" transform="translate(4.818 344.541)">
    <path id="cloud" class="cls-1" d="M223.8,72.142C221.473,37.606,188.9,10,149.641,10,125.8,10,102.718,20.219,88.415,36.892c-.329-.15-.676-.253-1.01-.391-.869-.368-1.752-.718-2.652-1.032-.5-.173-1-.33-1.506-.484-.891-.272-1.8-.514-2.718-.733-.5-.119-1.005-.242-1.515-.342-.988-.2-2-.345-3.016-.48-.443-.058-.878-.134-1.326-.177-1.458-.142-2.933-.23-4.43-.23-21.789,0-39.512,15.491-39.512,34.536,0,.487.035.967.07,1.447v.015C12.543,77.725,0,95.952,0,114.2c0,27.18,25.3,49.294,56.392,49.294h107.6c.457,0,.909-.023,1.365-.054l.272-.031.588.031c.448.031.9.054,1.357.054h43.037c29.116,0,52.805-20.706,52.805-46.155C263.413,96.275,246.612,77.383,223.8,72.142Zm-13.188,83.677H167.57c-.259,0-.509-.019-.764-.035l-1.19-.042-.869.042c-.25.015-.5.035-.759.035H56.392c-26.253,0-47.612-18.669-47.612-41.62,0-15.94,11.876-32.487,28.242-39.344l2.489-1.04V71.4c0-.487.035-.982.066-1.481l.04-.614-.053-.806c-.026-.311-.053-.622-.053-.936C39.512,52.752,53.3,40.7,70.243,40.7a35.057,35.057,0,0,1,4.026.257c.342.038.685.088,1.023.138a33.653,33.653,0,0,1,3.464.679c.154.038.312.065.465.1a32.661,32.661,0,0,1,3.666,1.232c.312.123.615.257.922.388a32.391,32.391,0,0,1,3.082,1.52c8.46,4.789,14.084,13.1,14.084,22.544a4.43,4.43,0,0,0,8.78,0c0-10.568-5.47-20.027-14.049-26.366,12.587-14.39,33.313-23.519,53.934-23.519,34,0,62.24,23.542,65.186,53.293a95.847,95.847,0,0,0-17.925.476,3.944,3.944,0,0,0-3.679,4.371,4.25,4.25,0,0,0,4.333,3.262,4.815,4.815,0,0,0,.663-.046,92.164,92.164,0,0,1,20.564-.008c20.441,3.4,35.851,19.854,35.851,38.316C254.633,138.554,234.881,155.818,210.607,155.818Z" transform="translate(616.458 267.194)"/>
    <g id="compliance_graphic" transform="translate(588.8 233.8)">
      <g id="Group_106" data-name="Group 106" transform="translate(0 0)">
        <g id="Group_111" data-name="Group 111" transform="translate(78.588 229.351)">
          <g id="Group_23" data-name="Group 23" transform="translate(0 41.411)">
            <path id="Path_64" data-name="Path 64" class="cls-2" d="M20.7,223.8h1.492a2.441,2.441,0,0,1,.6.081,1.664,1.664,0,0,1,.444.282,1.448,1.448,0,0,1,.282.4,2.024,2.024,0,0,1,.081.484,1.325,1.325,0,0,1-.161.685,1.39,1.39,0,0,1-.484.484l.887,1.613H22.837l-.726-1.452h-.484v1.452H20.74V223.8Zm1.452,1.814a.518.518,0,0,0,.4-.161.6.6,0,0,0,.161-.363.518.518,0,0,0-.161-.4.616.616,0,0,0-.4-.161h-.565v1.048h.565Z" transform="translate(-20.7 -223.598)"/>
            <path id="Path_65" data-name="Path 65" class="cls-2" d="M29.7,223.8h2.742v.806H30.627v.766h1.411v.766H30.627v.847H32.6v.806H29.74V223.8Z" transform="translate(-26.071 -223.598)"/>
            <path id="Path_66" data-name="Path 66" class="cls-2" d="M40.584,227.373a1.444,1.444,0,0,1-.444.161,1.962,1.962,0,0,1-.484.04,1.805,1.805,0,0,1-.806-.161,1.842,1.842,0,0,1-.645-.444,2.012,2.012,0,0,1-.444-.685,1.87,1.87,0,0,1-.161-.847,2.106,2.106,0,0,1,.161-.847,2.5,2.5,0,0,1,.444-.685,2.3,2.3,0,0,1,.645-.444,2.1,2.1,0,0,1,1.613,0,1.843,1.843,0,0,1,.645.444,2.013,2.013,0,0,1,.444.685,2.3,2.3,0,0,1,0,1.694,4,4,0,0,1-.444.685l.4.524-.484.4Zm-1.008-1.25.484-.4.444.564a1.635,1.635,0,0,0,.2-.363,1.715,1.715,0,0,0,.081-.444,2.024,2.024,0,0,0-.081-.484.837.837,0,0,0-.242-.4,1.255,1.255,0,0,0-.363-.282.873.873,0,0,0-.484-.081,2.024,2.024,0,0,0-.484.081,1.255,1.255,0,0,0-.363.282,3.546,3.546,0,0,0-.242.4,1.492,1.492,0,0,0,0,.968.837.837,0,0,0,.242.4.878.878,0,0,0,.363.282.958.958,0,0,0,.484.121h.2c.04,0,.121-.04.161-.04Z" transform="translate(-30.786 -223.3)"/>
            <path id="Path_67" data-name="Path 67" class="cls-2" d="M49.3,223.8h.927v2.379a1.116,1.116,0,0,0,.04.363,1.967,1.967,0,0,0,.121.282.37.37,0,0,0,.242.161.805.805,0,0,0,.363.081,1.178,1.178,0,0,0,.363-.081c.081-.04.161-.121.242-.161a.6.6,0,0,0,.121-.282,1.116,1.116,0,0,0,.04-.363V223.8h.927v2.5a1.672,1.672,0,0,1-.121.645,2.286,2.286,0,0,1-.323.524,1.422,1.422,0,0,1-.524.323,2,2,0,0,1-1.371,0,1.657,1.657,0,0,1-.524-.323,1.423,1.423,0,0,1-.323-.524,1.672,1.672,0,0,1-.121-.645v-2.5Z" transform="translate(-37.768 -223.598)"/>
            <path id="Path_68" data-name="Path 68" class="cls-2" d="M59.5,223.8h.887v3.992H59.5Z" transform="translate(-43.855 -223.598)"/>
            <path id="Path_69" data-name="Path 69" class="cls-2" d="M63.6,223.8h1.492a2.441,2.441,0,0,1,.6.081,1.664,1.664,0,0,1,.444.282,1.448,1.448,0,0,1,.282.4,2.024,2.024,0,0,1,.081.484,1.325,1.325,0,0,1-.161.685,1.39,1.39,0,0,1-.484.484l.887,1.613H65.737l-.726-1.452h-.484v1.452H63.64V223.8Zm1.452,1.814a.518.518,0,0,0,.4-.161.6.6,0,0,0,.161-.363.518.518,0,0,0-.161-.4.616.616,0,0,0-.4-.161h-.565v1.048h.565Z" transform="translate(-46.302 -223.598)"/>
            <path id="Path_70" data-name="Path 70" class="cls-2" d="M72.7,223.8h2.742v.806H73.627v.766h1.411v.766H73.627v.847H75.6v.806H72.74V223.8Z" transform="translate(-51.733 -223.598)"/>
            <path id="Path_71" data-name="Path 71" class="cls-2" d="M81.3,223.8h.847l1.048,1.9,1.008-1.9h.887l.2,3.992h-.887l-.121-2.621-.847,1.573h-.484l-.887-1.532-.121,2.581H81.1Z" transform="translate(-56.746 -223.598)"/>
            <path id="Path_72" data-name="Path 72" class="cls-2" d="M93.2,223.8h2.742v.806H94.127v.766h1.411v.766H94.127v.847H96.1v.806H93.24V223.8Z" transform="translate(-63.967 -223.598)"/>
            <path id="Path_73" data-name="Path 73" class="cls-2" d="M101.8,223.8h.847l1.734,2.581V223.8h.887v3.992h-.806l-1.774-2.661v2.661H101.8Z" transform="translate(-69.099 -223.598)"/>
            <path id="Path_74" data-name="Path 74" class="cls-2" d="M113.09,224.606H111.8V223.8h3.508v.806h-1.29v3.185h-.927Z" transform="translate(-75.067 -223.598)"/>
            <path id="Path_75" data-name="Path 75" class="cls-2" d="M121.364,226.344a.88.88,0,0,0,.2.161c.081.04.161.121.242.161a1.968,1.968,0,0,0,.282.121.888.888,0,0,0,.323.04.364.364,0,0,0,.2-.04c.081,0,.121-.04.2-.081.04-.04.121-.081.121-.121a.3.3,0,0,0,.04-.2.423.423,0,0,0-.2-.363,3.211,3.211,0,0,0-.685-.242,1.208,1.208,0,0,1-.4-.161,2.237,2.237,0,0,1-.323-.242.878.878,0,0,1-.2-.323,1.193,1.193,0,0,1-.081-.4,2.024,2.024,0,0,1,.081-.484.922.922,0,0,1,.282-.4,1.34,1.34,0,0,1,1.089-.363,1.79,1.79,0,0,1,.524.081,1.208,1.208,0,0,1,.4.161,2.314,2.314,0,0,0,.282.161c.081.04.121.121.161.161l-.524.565a.557.557,0,0,0-.161-.121.881.881,0,0,0-.2-.121.573.573,0,0,0-.242-.081.6.6,0,0,0-.282-.04.363.363,0,0,0-.2.04.209.209,0,0,0-.161.081l-.121.121c-.04.04-.04.081-.04.161a.411.411,0,0,0,.2.323,1.761,1.761,0,0,0,.6.2,1.965,1.965,0,0,1,.444.161,1.407,1.407,0,0,1,.363.242,1.256,1.256,0,0,1,.282.363,1.116,1.116,0,0,1,.121.524.958.958,0,0,1-.121.484,1.579,1.579,0,0,1-.323.4.92.92,0,0,1-.484.242,1.567,1.567,0,0,1-.6.081,2.662,2.662,0,0,1-.565-.04,1.444,1.444,0,0,1-.444-.161c-.121-.081-.242-.121-.363-.2a1.754,1.754,0,0,1-.282-.242Z" transform="translate(-80.438 -223.36)"/>
          </g>
          <circle id="Ellipse_1" data-name="Ellipse 1" class="cls-3" cx="18.226" cy="18.226" r="18.226" transform="translate(3.468 0)"/>
          <rect id="Rectangle_2" data-name="Rectangle 2" class="cls-4" width="18.508" height="24.596" transform="translate(12.419 6.411)"/>
          <g id="Group_25" data-name="Group 25" transform="translate(14.193 21.088)">
            <rect id="Rectangle_3" data-name="Rectangle 3" class="cls-5" width="3.347" height="3.347"/>
            <rect id="Rectangle_4" data-name="Rectangle 4" class="cls-6" width="9.798" height="0.605" transform="translate(5.161 0.282)"/>
            <rect id="Rectangle_5" data-name="Rectangle 5" class="cls-6" width="4.919" height="0.605" transform="translate(5.161 2.016)"/>
            <g id="Group_24" data-name="Group 24" transform="translate(0.323)">
              <path id="Path_76" data-name="Path 76" class="cls-3" d="M58.192,175.844,56.7,174.311l.444-.444,1.048,1.008,2.016-1.976.484.444Z" transform="translate(-56.7 -172.9)"/>
            </g>
          </g>
          <g id="Group_27" data-name="Group 27" transform="translate(14.193 16.532)">
            <rect id="Rectangle_6" data-name="Rectangle 6" class="cls-5" width="3.347" height="3.347"/>
            <rect id="Rectangle_7" data-name="Rectangle 7" class="cls-6" width="9.798" height="0.605" transform="translate(5.161 0.323)"/>
            <rect id="Rectangle_8" data-name="Rectangle 8" class="cls-6" width="4.919" height="0.605" transform="translate(5.161 2.016)"/>
            <g id="Group_26" data-name="Group 26" transform="translate(0.323)">
              <path id="Path_77" data-name="Path 77" class="cls-3" d="M58.192,164.544,56.7,163.052l.444-.484,1.048,1.048,2.016-2.016.484.484Z" transform="translate(-56.7 -161.6)"/>
            </g>
          </g>
          <g id="Group_29" data-name="Group 29" transform="translate(14.193 25.604)">
            <rect id="Rectangle_9" data-name="Rectangle 9" class="cls-5" width="3.347" height="3.347"/>
            <rect id="Rectangle_10" data-name="Rectangle 10" class="cls-6" width="9.798" height="0.605" transform="translate(5.161 0.323)"/>
            <rect id="Rectangle_11" data-name="Rectangle 11" class="cls-6" width="4.919" height="0.605" transform="translate(5.161 2.016)"/>
            <g id="Group_28" data-name="Group 28" transform="translate(0.323)">
              <path id="Path_78" data-name="Path 78" class="cls-3" d="M58.192,187.044,56.7,185.552l.444-.484,1.048,1.048,2.016-2.016.484.484Z" transform="translate(-56.7 -184.1)"/>
            </g>
          </g>
          <rect id="Rectangle_12" data-name="Rectangle 12" class="cls-6" width="8.508" height="1.129" transform="translate(20.645 9.072)"/>
          <rect id="Rectangle_13" data-name="Rectangle 13" class="cls-6" width="8.508" height="1.129" transform="translate(20.645 11.29)"/>
          <rect id="Rectangle_14" data-name="Rectangle 14" class="cls-6" width="4.798" height="1.129" transform="translate(20.645 13.508)"/>
          <rect id="Rectangle_15" data-name="Rectangle 15" class="cls-5" width="5.605" height="5.605" transform="translate(14.193 9.072)"/>
        </g>
        <g id="Group_110" data-name="Group 110" transform="translate(0 194.029)">
          <g id="Group_31" data-name="Group 31" transform="translate(12.298 41.612)">
            <path id="Path_79" data-name="Path 79" class="cls-2" d="M211.34,103.2h.887v3.185h1.9v.806H211.3V103.2Z" transform="translate(-211.3 -103.2)"/>
            <path id="Path_80" data-name="Path 80" class="cls-2" d="M220.532,103.2h1.008l1.452,3.992h-1.008l-.323-.927H220.25l-.323.927H219Zm.927,2.379-.484-1.492-.484,1.492Z" transform="translate(-215.895 -103.2)"/>
            <path id="Path_81" data-name="Path 81" class="cls-2" d="M228.3,103.2h.968l.6,2.9.685-2.782h.806l.726,2.782.564-2.9h.927l-1.008,3.992h-.968l-.685-2.621-.685,2.621h-.968Z" transform="translate(-221.445 -103.2)"/>
          </g>
          <g id="Group_32" data-name="Group 32" transform="translate(0 0)">
            <circle id="Ellipse_2" data-name="Ellipse 2" class="cls-5" cx="18.226" cy="18.226" r="18.226"/>
          </g>
          <g id="Group_33" data-name="Group 33" transform="translate(6.613 24.516)">
            <path id="Path_82" data-name="Path 82" class="cls-7" d="M210.385,73.071h-12.54a.637.637,0,0,1-.645-.645v-.081a.637.637,0,0,1,.645-.645h12.54a.637.637,0,0,1,.645.645v.081A.637.637,0,0,1,210.385,73.071Z" transform="translate(-197.2 -67.305)"/>
            <path id="Path_83" data-name="Path 83" class="cls-7" d="M210.385,62.171h-12.54a.637.637,0,0,1-.645-.645v-.081a.637.637,0,0,1,.645-.645h12.54a.637.637,0,0,1,.645.645v.081A.637.637,0,0,1,210.385,62.171Z" transform="translate(-197.2 -60.8)"/>
            <rect id="Rectangle_16" data-name="Rectangle 16" class="cls-8" width="11.693" height="2.984" transform="translate(1.089 1.371)"/>
          </g>
          <g id="Group_36" data-name="Group 36" transform="translate(11.159 5.837)">
            <path id="Path_84" data-name="Path 84" class="cls-7" d="M241.339,46.21l-1.129,1.129a.585.585,0,0,1-.847,0l-6.532-6.532a.585.585,0,0,1,0-.847l1.129-1.129a.585.585,0,0,1,.847,0l6.532,6.532A.668.668,0,0,1,241.339,46.21Z" transform="translate(-222.902 -28.902)"/>
            <rect id="Rectangle_17" data-name="Rectangle 17" class="cls-9" width="1.573" height="1.331" transform="translate(9.045 10.147) rotate(-45)"/>
            <rect id="Rectangle_18" data-name="Rectangle 18" class="cls-10" width="7.056" height="6.008" transform="translate(2.868 7.861) rotate(-45)"/>
            <g id="Group_34" data-name="Group 34" transform="translate(0 7.329)">
              <path id="Path_85" data-name="Path 85" class="cls-9" d="M218.138,38.638h0a.539.539,0,0,1-.806,0l-5-5a.539.539,0,0,1,0-.806h0a.539.539,0,0,1,.806,0l5,5A.538.538,0,0,1,218.138,38.638Z" transform="translate(-210.668 -32.65)"/>
              <path id="Path_86" data-name="Path 86" class="cls-9" d="M214.654,41.793l-.161.161a.659.659,0,0,1-.968,0l-4.839-4.839a.659.659,0,0,1,0-.968l.161-.161a.659.659,0,0,1,.968,0l4.839,4.839A.735.735,0,0,1,214.654,41.793Z" transform="translate(-208.475 -34.515)"/>
            </g>
            <g id="Group_35" data-name="Group 35" transform="translate(7.288)">
              <path id="Path_87" data-name="Path 87" class="cls-9" d="M235.954,20.493l-.161.161a.659.659,0,0,1-.968,0l-4.839-4.839a.659.659,0,0,1,0-.968l.161-.161a.659.659,0,0,1,.968,0l4.839,4.839A.658.658,0,0,1,235.954,20.493Z" transform="translate(-228.475 -14.475)"/>
              <path id="Path_88" data-name="Path 88" class="cls-9" d="M232.538,24.138h0a.539.539,0,0,1-.806,0l-5-5a.539.539,0,0,1,0-.806h0a.539.539,0,0,1,.806,0l5,5A.538.538,0,0,1,232.538,24.138Z" transform="translate(-226.55 -16.668)"/>
            </g>
          </g>
        </g>
        <g id="Group_112" data-name="Group 112" transform="translate(0.081 39.516)">
          <g id="Group_38" data-name="Group 38" transform="translate(9.556 41.007)">
            <path id="Path_89" data-name="Path 89" class="cls-2" d="M23.7,401.8h1.492a2.439,2.439,0,0,1,.6.081,1.665,1.665,0,0,1,.444.282,1.448,1.448,0,0,1,.282.4,2.024,2.024,0,0,1,.081.484,1.325,1.325,0,0,1-.161.685,1.39,1.39,0,0,1-.484.484l.887,1.613H25.837l-.726-1.452h-.484v1.452H23.74V401.8Zm1.452,1.815a.518.518,0,0,0,.4-.161.6.6,0,0,0,.161-.363.518.518,0,0,0-.161-.4.616.616,0,0,0-.4-.161h-.565v1.048h.565Z" transform="translate(-23.7 -401.679)"/>
            <path id="Path_90" data-name="Path 90" class="cls-2" d="M32.6,401.8h.927v2.379a1.116,1.116,0,0,0,.04.363,1.968,1.968,0,0,0,.121.282.37.37,0,0,0,.242.161.805.805,0,0,0,.363.081,1.178,1.178,0,0,0,.363-.081c.081-.04.161-.121.242-.161a.6.6,0,0,0,.121-.282,1.116,1.116,0,0,0,.04-.363V401.8h.927v2.5a1.672,1.672,0,0,1-.121.645,2.286,2.286,0,0,1-.323.524,1.422,1.422,0,0,1-.524.323,2,2,0,0,1-1.371,0,1.656,1.656,0,0,1-.524-.323,1.423,1.423,0,0,1-.323-.524,1.672,1.672,0,0,1-.121-.645v-2.5Z" transform="translate(-29.011 -401.679)"/>
            <path id="Path_91" data-name="Path 91" class="cls-2" d="M42.74,401.8h.887v3.185h1.9v.806H42.7V401.8Z" transform="translate(-35.039 -401.679)"/>
            <path id="Path_92" data-name="Path 92" class="cls-2" d="M51.1,401.8h2.742v.806H52.027v.766h1.411v.766H52.027v.847H54v.806H51.14V401.8Z" transform="translate(-40.052 -401.679)"/>
            <path id="Path_93" data-name="Path 93" class="cls-2" d="M59.664,404.443a.88.88,0,0,0,.2.161c.081.04.161.121.242.161a1.966,1.966,0,0,0,.282.121.887.887,0,0,0,.323.04.363.363,0,0,0,.2-.04c.081,0,.121-.04.2-.081l.121-.121a.3.3,0,0,0,.04-.2.423.423,0,0,0-.2-.363,3.209,3.209,0,0,0-.685-.242,1.208,1.208,0,0,1-.4-.161,2.237,2.237,0,0,1-.323-.242.878.878,0,0,1-.2-.323,1.193,1.193,0,0,1-.081-.4,2.024,2.024,0,0,1,.081-.484.922.922,0,0,1,.282-.4,1.341,1.341,0,0,1,1.089-.363,1.788,1.788,0,0,1,.524.081,1.206,1.206,0,0,1,.4.161,1.753,1.753,0,0,1,.282.161l.161.161-.524.565a.556.556,0,0,0-.161-.121.88.88,0,0,0-.2-.121.573.573,0,0,0-.242-.081.6.6,0,0,0-.282-.04.363.363,0,0,0-.2.04.209.209,0,0,0-.161.081l-.121.121c-.04.04-.04.081-.04.161a.411.411,0,0,0,.2.323,1.76,1.76,0,0,0,.6.2,1.967,1.967,0,0,1,.444.161,1.407,1.407,0,0,1,.363.242,1.256,1.256,0,0,1,.282.363,1.116,1.116,0,0,1,.121.524.958.958,0,0,1-.121.484,1.577,1.577,0,0,1-.323.4.919.919,0,0,1-.484.242,3.111,3.111,0,0,1-.6.081,2.661,2.661,0,0,1-.565-.04,1.444,1.444,0,0,1-.444-.161c-.121-.081-.242-.121-.363-.2a1.754,1.754,0,0,1-.282-.242Z" transform="translate(-44.826 -401.5)"/>
          </g>
          <circle id="Ellipse_3" data-name="Ellipse 3" class="cls-11" cx="18.226" cy="18.226" r="18.226" transform="translate(0)"/>
          <g id="Group_39" data-name="Group 39" transform="translate(8.306 8.589)">
            <path id="Path_94" data-name="Path 94" class="cls-5" d="M20.6,1349.5v11.008c0,4.637,3.992,8.79,9.919,11.008,5.887-2.218,9.919-6.371,9.919-11.008V1349.5Z" transform="translate(-20.6 -1349.5)"/>
            <path id="Path_95" data-name="Path 95" class="cls-10" d="M26.1,1355v8.79c0,3.75,3.1,7.056,7.7,8.79,4.6-1.774,7.7-5.04,7.7-8.79V1355Z" transform="translate(-23.882 -1352.782)"/>
            <path id="Path_96" data-name="Path 96" class="cls-12" d="M43.589,1360.5a1.06,1.06,0,0,0-1.089,1.089l.565,7.7h1.089l.565-7.7A1.092,1.092,0,0,0,43.589,1360.5Zm0,9.879a1.06,1.06,0,0,0-1.089,1.089,1.111,1.111,0,0,0,1.089,1.089,1.139,1.139,0,0,0,1.089-1.089A1.06,1.06,0,0,0,43.589,1370.379Z" transform="translate(-33.669 -1356.065)"/>
          </g>
        </g>
        <g id="Group_113" data-name="Group 113" transform="translate(242.537 8.871)">
          <g id="Group_52" data-name="Group 52" transform="translate(0 40.967)">
            <path id="Path_108" data-name="Path 108" class="cls-2" d="M561.518,403.435h1.532v1.734a2.115,2.115,0,0,1-.726.4,3.465,3.465,0,0,1-.968.161,2.17,2.17,0,0,1-.887-.161,1.842,1.842,0,0,1-.645-.444,2.165,2.165,0,0,1-.4-.645,2.679,2.679,0,0,1-.121-.847,2.1,2.1,0,0,1,.161-.847,1.822,1.822,0,0,1,.443-.685,2.305,2.305,0,0,1,.645-.444,1.87,1.87,0,0,1,.847-.161,2.436,2.436,0,0,1,.968.2,1.844,1.844,0,0,1,.685.564l-.6.565a1.638,1.638,0,0,0-.4-.363,1.313,1.313,0,0,0-.565-.161.86.86,0,0,0-.484.121.878.878,0,0,0-.363.282,3.538,3.538,0,0,0-.242.4,1.613,1.613,0,0,0,0,1.008,1.341,1.341,0,0,0,.242.4.952.952,0,0,0,.363.242,2.024,2.024,0,0,0,.484.081,1.512,1.512,0,0,0,.444-.04.824.824,0,0,0,.363-.2v-.484h-.726v-.685Z" transform="translate(-559.3 -401.46)"/>
            <path id="Path_109" data-name="Path 109" class="cls-2" d="M572.156,405.674a1.805,1.805,0,0,1-.806-.161,1.841,1.841,0,0,1-.645-.444,2.013,2.013,0,0,1-.444-.685,1.871,1.871,0,0,1-.161-.847,2.106,2.106,0,0,1,.161-.847A2.5,2.5,0,0,1,570.7,402a2.305,2.305,0,0,1,.645-.444,2.1,2.1,0,0,1,1.613,0,1.843,1.843,0,0,1,.645.444,2.014,2.014,0,0,1,.444.686,1.871,1.871,0,0,1,.161.847,2.106,2.106,0,0,1-.161.847,2.5,2.5,0,0,1-.444.685,2.3,2.3,0,0,1-.645.444A1.806,1.806,0,0,1,572.156,405.674Zm0-.847a1.074,1.074,0,0,0,.484-.121,2.215,2.215,0,0,0,.363-.282,3.529,3.529,0,0,0,.242-.4,1.022,1.022,0,0,0,.081-.484,2.021,2.021,0,0,0-.081-.484.836.836,0,0,0-.242-.4.878.878,0,0,0-.363-.282.945.945,0,0,0-.484-.081,2.023,2.023,0,0,0-.484.081c-.161.04-.242.161-.363.282a3.544,3.544,0,0,0-.242.4,1.491,1.491,0,0,0,0,.968.836.836,0,0,0,.242.4.878.878,0,0,0,.363.282A1.074,1.074,0,0,0,572.156,404.827Z" transform="translate(-565.745 -401.4)"/>
            <path id="Path_110" data-name="Path 110" class="cls-2" d="M580.6,401.8h1.008l.968,2.9.968-2.9h.968l-1.452,3.992h-.968Z" transform="translate(-572.011 -401.639)"/>
            <path id="Path_111" data-name="Path 111" class="cls-2" d="M591.3,401.8h2.742v.806h-1.815v.766h1.411v.766h-1.411v.847H594.2v.806H591.34V401.8Z" transform="translate(-578.397 -401.639)"/>
            <path id="Path_112" data-name="Path 112" class="cls-2" d="M600,401.8h1.492a2.438,2.438,0,0,1,.6.081,1.665,1.665,0,0,1,.444.282,1.45,1.45,0,0,1,.282.4,2.026,2.026,0,0,1,.081.484,1.325,1.325,0,0,1-.161.685,1.39,1.39,0,0,1-.484.484l.887,1.613h-1.008l-.726-1.452h-.484v1.452H600Zm1.411,1.815a.518.518,0,0,0,.4-.161.6.6,0,0,0,.161-.363.551.551,0,0,0-.565-.565h-.565v1.048h.565Z" transform="translate(-583.589 -401.639)"/>
            <path id="Path_113" data-name="Path 113" class="cls-2" d="M609,401.8h.847l1.734,2.581V401.8h.887v3.992h-.807l-1.774-2.661v2.661H609Z" transform="translate(-588.96 -401.639)"/>
            <path id="Path_114" data-name="Path 114" class="cls-2" d="M620.073,401.8h1.008l1.452,3.992h-1.008l-.323-.927H619.79l-.323.927H618.5Zm.968,2.379-.484-1.492-.484,1.492Z" transform="translate(-594.629 -401.639)"/>
            <path id="Path_115" data-name="Path 115" class="cls-2" d="M629.6,401.8h.847l1.734,2.581V401.8h.887v3.992h-.806l-1.774-2.661v2.661H629.6V401.8Z" transform="translate(-601.254 -401.639)"/>
            <path id="Path_116" data-name="Path 116" class="cls-2" d="M643.59,404.887a1.228,1.228,0,0,1-.323.323,1.448,1.448,0,0,1-.4.282,2.273,2.273,0,0,1-.484.161,2.359,2.359,0,0,1-.524.081,1.983,1.983,0,0,1-.847-.161,1.843,1.843,0,0,1-.645-.444,1.578,1.578,0,0,1-.4-.645,2.633,2.633,0,0,1-.161-.847,2.1,2.1,0,0,1,.161-.847,2.359,2.359,0,0,1,.4-.685,2.305,2.305,0,0,1,.645-.444,1.871,1.871,0,0,1,.847-.161,2.436,2.436,0,0,1,.968.2,1.423,1.423,0,0,1,.686.6l-.6.6a1.073,1.073,0,0,0-.444-.4.972.972,0,0,0-.6-.161,2.025,2.025,0,0,0-.484.081.878.878,0,0,0-.363.282,3.547,3.547,0,0,0-.242.4,1.491,1.491,0,0,0,0,.968.836.836,0,0,0,.242.4.968.968,0,0,0,.847.363.9.9,0,0,0,.363-.04,1.975,1.975,0,0,0,.282-.121.878.878,0,0,0,.2-.161l.2-.2Z" transform="translate(-607.341 -401.46)"/>
            <path id="Path_117" data-name="Path 117" class="cls-2" d="M650.3,401.8h2.742v.806h-1.814v.766h1.411v.766h-1.411v.847H653.2v.806H650.34V401.8Z" transform="translate(-613.607 -401.639)"/>
          </g>
          <g id="Group_53" data-name="Group 53" transform="translate(1.532)">
            <circle id="Ellipse_5" data-name="Ellipse 5" class="cls-8" cx="18.226" cy="18.226" r="18.226"/>
          </g>
          <path id="Path_118" data-name="Path 118" class="cls-11" d="M599.8,347.1h6.814l.04,12.218-3.306-2.1-3.508,2.1Z" transform="translate(-583.47 -328.028)"/>
          <g id="Group_55" data-name="Group 55" transform="translate(10.443 4.243)">
            <g id="Group_54" data-name="Group 54">
              <path id="Path_119" data-name="Path 119" class="cls-6" d="M585.2,319.225c0-.968.927-1.774,1.21-2.621.282-.887,0-2.1.565-2.823.565-.766,1.774-.847,2.54-1.411.766-.524,1.21-1.694,2.1-1.976.847-.282,1.9.363,2.863.363s2.016-.645,2.863-.363c.887.282,1.371,1.452,2.1,1.976.766.565,1.976.645,2.54,1.411.524.766.242,1.935.565,2.823.282.847,1.21,1.653,1.21,2.621s-.927,1.774-1.21,2.621c-.282.887,0,2.1-.565,2.823-.565.766-1.774.847-2.54,1.411-.766.524-1.21,1.694-2.1,1.976-.847.282-1.9-.363-2.863-.363s-2.016.645-2.863.363c-.887-.282-1.371-1.452-2.1-1.976-.766-.565-1.976-.645-2.54-1.411-.524-.766-.242-1.935-.565-2.823C586.168,321,585.2,320.193,585.2,319.225Z" transform="translate(-585.2 -310.323)"/>
            </g>
            <circle id="Ellipse_6" data-name="Ellipse 6" class="cls-5" cx="5.847" cy="5.847" r="5.847" transform="translate(3.468 3.055)"/>
          </g>
        </g>
        <g id="Group_109" data-name="Group 109" transform="translate(250.682 216.731)">
          <g id="Group_57" data-name="Group 57" transform="translate(0 41.128)">
            <path id="Path_120" data-name="Path 120" class="cls-2" d="M371.5,116.7h1.492a2.44,2.44,0,0,1,.6.081,1.665,1.665,0,0,1,.444.282,1.448,1.448,0,0,1,.282.4,2.023,2.023,0,0,1,.081.484,1.325,1.325,0,0,1-.161.685,1.39,1.39,0,0,1-.484.484l.887,1.613h-1.008l-.726-1.452h-.484v1.452h-.887V116.7Zm1.452,1.814a.518.518,0,0,0,.4-.161.6.6,0,0,0,.161-.363.518.518,0,0,0-.161-.4.616.616,0,0,0-.4-.161h-.565v1.048h.565Z" transform="translate(-371.5 -116.539)"/>
            <path id="Path_121" data-name="Path 121" class="cls-2" d="M380.5,116.7h2.742v.806h-1.815v.766h1.411v.766h-1.411v.847H383.4v.806H380.54V116.7Z" transform="translate(-376.871 -116.539)"/>
            <path id="Path_122" data-name="Path 122" class="cls-2" d="M390.518,118.335h1.532v1.734a2.114,2.114,0,0,1-.726.4,3.466,3.466,0,0,1-.968.161,2.17,2.17,0,0,1-.887-.161,1.843,1.843,0,0,1-.645-.444,2.167,2.167,0,0,1-.4-.645,2.679,2.679,0,0,1-.121-.847,2.107,2.107,0,0,1,.161-.847A1.823,1.823,0,0,1,388.9,117a2.305,2.305,0,0,1,.645-.444,1.87,1.87,0,0,1,.847-.161,2.436,2.436,0,0,1,.968.2,1.844,1.844,0,0,1,.685.565l-.6.565a1.637,1.637,0,0,0-.4-.363,1.312,1.312,0,0,0-.565-.161.86.86,0,0,0-.484.121.879.879,0,0,0-.363.282,3.537,3.537,0,0,0-.242.4,1.612,1.612,0,0,0,0,1.008,1.341,1.341,0,0,0,.242.4.952.952,0,0,0,.363.242,2.025,2.025,0,0,0,.484.081,1.512,1.512,0,0,0,.444-.04.824.824,0,0,0,.363-.2v-.444h-.726v-.726Z" transform="translate(-381.526 -116.36)"/>
            <path id="Path_123" data-name="Path 123" class="cls-2" d="M399.3,116.7h.927v2.379a1.116,1.116,0,0,0,.04.363,1.969,1.969,0,0,0,.121.282.37.37,0,0,0,.242.161.805.805,0,0,0,.363.081,1.177,1.177,0,0,0,.363-.081.844.844,0,0,0,.242-.161.6.6,0,0,0,.121-.282,1.116,1.116,0,0,0,.04-.363V116.7h.927v2.5a1.671,1.671,0,0,1-.121.645,2.285,2.285,0,0,1-.323.524,1.423,1.423,0,0,1-.524.323,2,2,0,0,1-1.371,0,1.658,1.658,0,0,1-.524-.323,1.423,1.423,0,0,1-.323-.524,1.672,1.672,0,0,1-.121-.645v-2.5Z" transform="translate(-388.09 -116.539)"/>
            <path id="Path_124" data-name="Path 124" class="cls-2" d="M409.44,116.7h.887v3.185h1.9v.806H409.4V116.7Z" transform="translate(-394.118 -116.539)"/>
            <path id="Path_125" data-name="Path 125" class="cls-2" d="M418.573,116.7h1.008l1.452,3.992h-1.008l-.323-.927H418.29l-.323.927H417Zm.968,2.379-.484-1.492-.484,1.492Z" transform="translate(-398.654 -116.539)"/>
            <path id="Path_126" data-name="Path 126" class="cls-2" d="M427.19,117.506H425.9V116.7h3.508v.806h-1.29v3.185h-.927Z" transform="translate(-403.965 -116.539)"/>
            <path id="Path_127" data-name="Path 127" class="cls-2" d="M435.8,116.7h.887v3.992H435.8Z" transform="translate(-409.873 -116.539)"/>
            <path id="Path_128" data-name="Path 128" class="cls-2" d="M441.656,120.574a1.805,1.805,0,0,1-.806-.161,1.842,1.842,0,0,1-.645-.444,2.011,2.011,0,0,1-.444-.685,1.87,1.87,0,0,1-.161-.847,2.106,2.106,0,0,1,.161-.847,2.5,2.5,0,0,1,.444-.685,2.3,2.3,0,0,1,.645-.444,2.1,2.1,0,0,1,1.613,0,1.842,1.842,0,0,1,.645.444,2.013,2.013,0,0,1,.444.685,1.871,1.871,0,0,1,.161.847,2.106,2.106,0,0,1-.161.847,2.5,2.5,0,0,1-.444.685,2.3,2.3,0,0,1-.645.444A2.193,2.193,0,0,1,441.656,120.574Zm0-.847a1.074,1.074,0,0,0,.484-.121,2.216,2.216,0,0,0,.363-.282,3.546,3.546,0,0,0,.242-.4,1.492,1.492,0,0,0,0-.968.837.837,0,0,0-.242-.4.878.878,0,0,0-.363-.282.945.945,0,0,0-.484-.081,2.025,2.025,0,0,0-.484.081,1.256,1.256,0,0,0-.363.282,3.55,3.55,0,0,0-.242.4,1.492,1.492,0,0,0,0,.968.837.837,0,0,0,.242.4.878.878,0,0,0,.363.282A1.074,1.074,0,0,0,441.656,119.727Z" transform="translate(-412.141 -116.3)"/>
            <path id="Path_129" data-name="Path 129" class="cls-2" d="M451.5,116.7h.847l1.734,2.581V116.7h.887v3.992h-.806l-1.774-2.661v2.661H451.5Z" transform="translate(-419.242 -116.539)"/>
            <path id="Path_130" data-name="Path 130" class="cls-2" d="M461.965,119.344a.879.879,0,0,0,.2.161c.081.04.161.121.242.161a1.965,1.965,0,0,0,.282.121.888.888,0,0,0,.323.04.363.363,0,0,0,.2-.04c.081,0,.121-.04.2-.081.04-.04.121-.081.121-.121a.3.3,0,0,0,.04-.2.423.423,0,0,0-.2-.363,2.537,2.537,0,0,0-.685-.242,1.207,1.207,0,0,1-.4-.161,2.235,2.235,0,0,1-.323-.242.878.878,0,0,1-.2-.323,1.193,1.193,0,0,1-.081-.4,2.024,2.024,0,0,1,.081-.484.922.922,0,0,1,.282-.4,1.34,1.34,0,0,1,1.089-.363,1.789,1.789,0,0,1,.524.081,1.208,1.208,0,0,1,.4.161,1.754,1.754,0,0,1,.282.161l.161.161-.524.564a.557.557,0,0,0-.161-.121.882.882,0,0,0-.2-.121.573.573,0,0,0-.242-.081.6.6,0,0,0-.282-.04.364.364,0,0,0-.2.04.209.209,0,0,0-.161.081l-.121.121c-.04.04-.04.081-.04.161a.411.411,0,0,0,.2.323,1.76,1.76,0,0,0,.6.2,1.965,1.965,0,0,1,.444.161,1.407,1.407,0,0,1,.363.242,1.255,1.255,0,0,1,.282.363,1.116,1.116,0,0,1,.121.524.958.958,0,0,1-.121.484,2.823,2.823,0,0,1-.323.4.92.92,0,0,1-.484.242,1.567,1.567,0,0,1-.6.081,2.662,2.662,0,0,1-.565-.04,1.445,1.445,0,0,1-.444-.161c-.121-.081-.242-.121-.363-.2a1.756,1.756,0,0,1-.282-.242Z" transform="translate(-425.151 -116.36)"/>
          </g>
          <g id="Group_61" data-name="Group 61" transform="translate(1.371 0)">
            <circle id="Ellipse_7" data-name="Ellipse 7" class="cls-7" cx="18.226" cy="18.226" r="18.226"/>
            <g id="Group_60" data-name="Group 60" transform="translate(10.726 7.702)">
              <g id="Group_58" data-name="Group 58" transform="translate(0 0.524)">
                <path id="Path_131" data-name="Path 131" class="cls-13" d="M401.823,34.7h5.766a.347.347,0,0,1,.323.323V54.942a.347.347,0,0,1-.323.323h-5.766a.347.347,0,0,1-.323-.323V35.023A.318.318,0,0,1,401.823,34.7Z" transform="translate(-401.5 -34.7)"/>
                <path id="Path_132" data-name="Path 132" class="cls-4" d="M404.223,37.8h3.871a.347.347,0,0,1,.323.323V51.63a.347.347,0,0,1-.323.323h-3.871a.347.347,0,0,1-.323-.323V38.123A.347.347,0,0,1,404.223,37.8Z" transform="translate(-402.932 -36.55)"/>
                <circle id="Ellipse_8" data-name="Ellipse 8" class="cls-4" cx="0.968" cy="0.968" r="0.968" transform="translate(2.258 17.016)"/>
                <path id="Path_133" data-name="Path 133" class="cls-14" d="M405.823,40.7H408.4a.347.347,0,0,1,.323.323h0a.347.347,0,0,1-.323.323h-2.581a.347.347,0,0,1-.323-.323h0A.347.347,0,0,1,405.823,40.7Z" transform="translate(-403.887 -38.281)"/>
                <path id="Path_134" data-name="Path 134" class="cls-14" d="M405.823,44.7H408.4a.347.347,0,0,1,.323.323h0a.347.347,0,0,1-.323.323h-2.581a.347.347,0,0,1-.323-.323h0A.347.347,0,0,1,405.823,44.7Z" transform="translate(-403.887 -40.668)"/>
                <path id="Path_135" data-name="Path 135" class="cls-14" d="M405.823,48.7H408.4a.347.347,0,0,1,.323.323h0a.347.347,0,0,1-.323.323h-2.581a.347.347,0,0,1-.323-.323h0A.318.318,0,0,1,405.823,48.7Z" transform="translate(-403.887 -43.055)"/>
              </g>
              <g id="Group_59" data-name="Group 59" transform="translate(6.445)">
                <path id="Path_136" data-name="Path 136" class="cls-13" d="M417.773,34l5.766-.6a.387.387,0,0,1,.363.282l2.137,19.8a.387.387,0,0,1-.282.363l-5.766.6a.387.387,0,0,1-.363-.282l-2.137-19.8C417.45,34.206,417.612,34.045,417.773,34Z" transform="translate(-417.484 -33.4)"/>
                <path id="Path_137" data-name="Path 137" class="cls-4" d="M420.482,37.3l3.831-.4a.387.387,0,0,1,.363.282l1.452,13.427a.387.387,0,0,1-.282.363l-3.831.4a.387.387,0,0,1-.363-.282L420.2,37.666A.326.326,0,0,1,420.482,37.3Z" transform="translate(-419.105 -35.489)"/>
                <circle id="Ellipse_9" data-name="Ellipse 9" class="cls-4" cx="0.968" cy="0.968" r="0.968" transform="translate(4.018 17.318) rotate(-6.114)"/>
                <path id="Path_138" data-name="Path 138" class="cls-14" d="M422.373,40.082l2.54-.282a.387.387,0,0,1,.363.282h0a.387.387,0,0,1-.282.363l-2.54.282a.387.387,0,0,1-.363-.282h0C422.05,40.284,422.212,40.123,422.373,40.082Z" transform="translate(-420.23 -37.219)"/>
                <path id="Path_139" data-name="Path 139" class="cls-14" d="M422.782,44.082l2.54-.282a.387.387,0,0,1,.363.282h0a.387.387,0,0,1-.282.363l-2.54.282a.387.387,0,0,1-.363-.282h0A.353.353,0,0,1,422.782,44.082Z" transform="translate(-420.478 -39.607)"/>
                <path id="Path_140" data-name="Path 140" class="cls-14" d="M423.182,48.082l2.54-.282a.387.387,0,0,1,.363.282h0a.387.387,0,0,1-.282.363l-2.54.282a.387.387,0,0,1-.363-.282h0A.326.326,0,0,1,423.182,48.082Z" transform="translate(-420.716 -41.994)"/>
              </g>
            </g>
          </g>
        </g>
        <g id="Group_115" data-name="Group 115" transform="translate(104.313 0)">
          <g id="Group_63" data-name="Group 63" transform="translate(0 41.007)">
            <path id="Path_141" data-name="Path 141" class="cls-2" d="M169.79,490.606H168.5V489.8h3.508v.806h-1.29v3.185h-.927Z" transform="translate(-168.5 -489.679)"/>
            <path id="Path_142" data-name="Path 142" class="cls-2" d="M178.5,489.8h1.492a2.439,2.439,0,0,1,.6.081,1.665,1.665,0,0,1,.444.282,1.448,1.448,0,0,1,.282.4,2.024,2.024,0,0,1,.081.484,1.325,1.325,0,0,1-.161.685,1.39,1.39,0,0,1-.484.484l.887,1.613h-1.008l-.726-1.452h-.484v1.452h-.887V489.8Zm1.411,1.815a.518.518,0,0,0,.4-.161.6.6,0,0,0,.161-.363.518.518,0,0,0-.161-.4.616.616,0,0,0-.4-.161h-.564v1.048h.564Z" transform="translate(-174.468 -489.679)"/>
            <path id="Path_143" data-name="Path 143" class="cls-2" d="M188.092,489.8H189.1l1.452,3.992h-.968l-.323-.927H187.85l-.323.927H186.6Zm.968,2.379-.484-1.492-.484,1.492Z" transform="translate(-179.302 -489.679)"/>
            <path id="Path_144" data-name="Path 144" class="cls-2" d="M197.5,489.8h.847l1.734,2.581V489.8h.887v3.992h-.806l-1.774-2.661v2.661H197.5Z" transform="translate(-185.807 -489.679)"/>
            <path id="Path_145" data-name="Path 145" class="cls-2" d="M208.065,492.443a.881.881,0,0,0,.2.161c.081.04.161.121.242.161a1.965,1.965,0,0,0,.282.121.887.887,0,0,0,.323.04.363.363,0,0,0,.2-.04c.081,0,.121-.04.2-.081.04-.04.121-.081.121-.121a.3.3,0,0,0,.04-.2.424.424,0,0,0-.2-.363,3.212,3.212,0,0,0-.685-.242,1.207,1.207,0,0,1-.4-.161,2.237,2.237,0,0,1-.323-.242.879.879,0,0,1-.2-.323,1.193,1.193,0,0,1-.081-.4,2.025,2.025,0,0,1,.081-.484.921.921,0,0,1,.282-.4,1.34,1.34,0,0,1,1.089-.363,1.789,1.789,0,0,1,.524.081,1.207,1.207,0,0,1,.4.161,1.749,1.749,0,0,1,.282.161l.161.161-.524.565a.556.556,0,0,0-.161-.121.881.881,0,0,0-.2-.121.573.573,0,0,0-.242-.081.6.6,0,0,0-.282-.04.363.363,0,0,0-.2.04.209.209,0,0,0-.161.081l-.121.121c-.04.04-.04.081-.04.161a.411.411,0,0,0,.2.323,1.76,1.76,0,0,0,.6.2,1.965,1.965,0,0,1,.444.161,1.407,1.407,0,0,1,.363.242,1.256,1.256,0,0,1,.282.363,1.116,1.116,0,0,1,.121.524.958.958,0,0,1-.121.484,1.579,1.579,0,0,1-.323.4.92.92,0,0,1-.484.242,3.111,3.111,0,0,1-.6.081,2.662,2.662,0,0,1-.564-.04,1.446,1.446,0,0,1-.444-.161c-.121-.081-.242-.121-.363-.2a1.752,1.752,0,0,1-.282-.242Z" transform="translate(-191.774 -489.5)"/>
            <path id="Path_146" data-name="Path 146" class="cls-2" d="M216.9,489.8h1.452a1.56,1.56,0,0,1,1.089.4.837.837,0,0,1,.242.4,2.024,2.024,0,0,1,.081.484,1.288,1.288,0,0,1-.121.565,1.448,1.448,0,0,1-.282.4.961.961,0,0,1-.444.242,2.042,2.042,0,0,1-.524.081h-.6v1.411H216.9Zm1.411,1.855a.518.518,0,0,0,.4-.161.716.716,0,0,0,.161-.4.551.551,0,0,0-.565-.564h-.524v1.129Z" transform="translate(-197.384 -489.679)"/>
            <path id="Path_147" data-name="Path 147" class="cls-2" d="M224.832,489.8h1.008l1.452,3.992h-1.008l-.323-.927H224.55l-.323.927H223.3Zm.968,2.379-.484-1.492-.484,1.492Z" transform="translate(-201.204 -489.679)"/>
            <path id="Path_148" data-name="Path 148" class="cls-2" d="M234.3,489.8h1.492a2.439,2.439,0,0,1,.6.081,1.665,1.665,0,0,1,.444.282,1.448,1.448,0,0,1,.282.4,2.023,2.023,0,0,1,.081.484,1.325,1.325,0,0,1-.161.685,1.39,1.39,0,0,1-.484.484l.887,1.613h-1.008l-.726-1.452h-.484v1.452h-.887V489.8Zm1.452,1.815a.518.518,0,0,0,.4-.161.6.6,0,0,0,.161-.363.518.518,0,0,0-.161-.4.616.616,0,0,0-.4-.161h-.565v1.048h.565Z" transform="translate(-207.768 -489.679)"/>
            <path id="Path_149" data-name="Path 149" class="cls-2" d="M243.3,489.8h2.742v.806h-1.814v.766h1.411v.766h-1.411v.847H246.2v.806H243.34V489.8Z" transform="translate(-213.139 -489.679)"/>
            <path id="Path_150" data-name="Path 150" class="cls-2" d="M251.9,489.8h.847l1.734,2.581V489.8h.887v3.992h-.806l-1.774-2.661v2.661H251.9Z" transform="translate(-218.271 -489.679)"/>
            <path id="Path_151" data-name="Path 151" class="cls-2" d="M265.89,492.887a1.228,1.228,0,0,1-.323.323,1.45,1.45,0,0,1-.4.282,2.274,2.274,0,0,1-.484.161,2.362,2.362,0,0,1-.524.081,1.984,1.984,0,0,1-.847-.161,1.842,1.842,0,0,1-.645-.444,1.578,1.578,0,0,1-.4-.645,2.636,2.636,0,0,1-.161-.847,2.106,2.106,0,0,1,.161-.847,2.36,2.36,0,0,1,.4-.685,2.3,2.3,0,0,1,.645-.444,1.871,1.871,0,0,1,.847-.161,2.436,2.436,0,0,1,.968.2,1.423,1.423,0,0,1,.685.6l-.6.6a1.073,1.073,0,0,0-.444-.4.972.972,0,0,0-.6-.161,2.023,2.023,0,0,0-.484.081.878.878,0,0,0-.363.282,3.544,3.544,0,0,0-.242.4,1.492,1.492,0,0,0,0,.968.837.837,0,0,0,.242.4.968.968,0,0,0,.847.363.9.9,0,0,0,.363-.04,1.965,1.965,0,0,0,.282-.121.88.88,0,0,0,.2-.161l.2-.2Z" transform="translate(-224.359 -489.5)"/>
            <path id="Path_152" data-name="Path 152" class="cls-2" d="M273.211,492.139,271.8,489.8h1.008l.887,1.492.847-1.492h.968l-1.411,2.339v1.694h-.927v-1.694Z" transform="translate(-230.147 -489.679)"/>
          </g>
          <g id="Group_64" data-name="Group 64" transform="translate(4.96 0)">
            <circle id="Ellipse_10" data-name="Ellipse 10" class="cls-6" cx="18.226" cy="18.226" r="18.226"/>
          </g>
          <g id="Group_68" data-name="Group 68" transform="translate(11.395 6.448)">
            <g id="Group_65" data-name="Group 65" transform="translate(12.627 12.654)">
              <path id="Path_153" data-name="Path 153" class="cls-12" d="M237.238,445.87a1.733,1.733,0,0,1-1.129-.444l-7.581-7.581a1.568,1.568,0,1,1,2.218-2.218l7.581,7.581a1.582,1.582,0,0,1,0,2.218A1.4,1.4,0,0,1,237.238,445.87Z" transform="translate(-228.075 -435.175)"/>
            </g>
            <g id="Group_66" data-name="Group 66" transform="translate(0 0)">
              <circle id="Ellipse_11" data-name="Ellipse 11" class="cls-15" cx="6.653" cy="6.653" r="6.653" transform="translate(0 9.409) rotate(-45)"/>
            </g>
            <g id="Group_67" data-name="Group 67" transform="translate(0.228 0.205)">
              <path id="Path_154" data-name="Path 154" class="cls-4" d="M206.508,406.84a6.653,6.653,0,1,1-4.718,1.935,6.756,6.756,0,0,1,4.718-1.935m0-2.54a9.121,9.121,0,0,0-6.492,2.7,9.224,9.224,0,0,0,0,13.024,9.151,9.151,0,0,0,12.984,0A9.224,9.224,0,0,0,213,407a9.052,9.052,0,0,0-6.492-2.7Z" transform="translate(-197.325 -404.3)"/>
            </g>
          </g>
        </g>
        <g id="Group_114" data-name="Group 114" transform="translate(171.288 211.65)">
          <g id="Group_73" data-name="Group 73" transform="translate(0 0)">
            <g id="Group_70" data-name="Group 70" transform="translate(5.685 40.967)">
              <path id="Path_155" data-name="Path 155" class="cls-2" d="M398.7,489.7h1.452a1.559,1.559,0,0,1,1.089.4.837.837,0,0,1,.242.4,2.022,2.022,0,0,1,.081.484,1.288,1.288,0,0,1-.121.565,1.448,1.448,0,0,1-.282.4.961.961,0,0,1-.444.242,2.043,2.043,0,0,1-.524.081h-.6v1.411H398.7Zm1.411,1.855a.518.518,0,0,0,.4-.161.716.716,0,0,0,.161-.4.551.551,0,0,0-.564-.565h-.524v1.129Z" transform="translate(-398.7 -489.539)"/>
              <path id="Path_156" data-name="Path 156" class="cls-2" d="M409.056,493.574a1.805,1.805,0,0,1-.806-.161,1.842,1.842,0,0,1-.645-.444,2.013,2.013,0,0,1-.444-.685,1.87,1.87,0,0,1-.161-.847,2.106,2.106,0,0,1,.161-.847,2.5,2.5,0,0,1,.444-.685,2.3,2.3,0,0,1,.645-.444,2.1,2.1,0,0,1,1.613,0,1.842,1.842,0,0,1,.645.444,2.012,2.012,0,0,1,.444.685,1.87,1.87,0,0,1,.161.847,2.105,2.105,0,0,1-.161.847,2.5,2.5,0,0,1-.444.685,2.3,2.3,0,0,1-.645.444A2.606,2.606,0,0,1,409.056,493.574Zm0-.887a1.074,1.074,0,0,0,.484-.121,2.217,2.217,0,0,0,.363-.282,3.544,3.544,0,0,0,.242-.4,1.492,1.492,0,0,0,0-.968.837.837,0,0,0-.242-.4.968.968,0,0,0-.847-.363,2.026,2.026,0,0,0-.484.081c-.161.04-.242.161-.363.282a3.55,3.55,0,0,0-.242.4,1.492,1.492,0,0,0,0,.968.837.837,0,0,0,.242.4.878.878,0,0,0,.363.282A.676.676,0,0,0,409.056,492.687Z" transform="translate(-403.653 -489.3)"/>
              <path id="Path_157" data-name="Path 157" class="cls-2" d="M418.74,489.7h.887v3.185h1.9v.806H418.7V489.7Z" transform="translate(-410.636 -489.539)"/>
              <path id="Path_158" data-name="Path 158" class="cls-2" d="M427.1,489.7h.887v3.992H427.1Z" transform="translate(-415.649 -489.539)"/>
              <path id="Path_159" data-name="Path 159" class="cls-2" d="M434.59,492.787a1.227,1.227,0,0,1-.323.323,1.449,1.449,0,0,1-.4.282,2.273,2.273,0,0,1-.484.161,2.358,2.358,0,0,1-.524.081,1.983,1.983,0,0,1-.847-.161,1.842,1.842,0,0,1-.645-.444,1.578,1.578,0,0,1-.4-.645,2.635,2.635,0,0,1-.161-.847,2.106,2.106,0,0,1,.161-.847,2.359,2.359,0,0,1,.4-.685,2.3,2.3,0,0,1,.645-.444,1.87,1.87,0,0,1,.847-.161,2.437,2.437,0,0,1,.968.2,1.424,1.424,0,0,1,.685.6l-.6.6a1.073,1.073,0,0,0-.444-.4.972.972,0,0,0-.6-.161,2.024,2.024,0,0,0-.484.081.878.878,0,0,0-.363.282,3.548,3.548,0,0,0-.242.4,1.492,1.492,0,0,0,0,.968.837.837,0,0,0,.242.4.968.968,0,0,0,.847.363.894.894,0,0,0,.363-.04,1.965,1.965,0,0,0,.282-.121.88.88,0,0,0,.2-.161l.2-.2Z" transform="translate(-417.857 -489.36)"/>
              <path id="Path_160" data-name="Path 160" class="cls-2" d="M441.4,489.7h.887v3.992H441.4Z" transform="translate(-424.183 -489.539)"/>
              <path id="Path_161" data-name="Path 161" class="cls-2" d="M445.6,489.7h2.742v.806h-1.814v.766h1.411v.766h-1.411v.847H448.5v.806H445.64V489.7Z" transform="translate(-426.689 -489.539)"/>
              <path id="Path_162" data-name="Path 162" class="cls-2" d="M454.165,492.243a.878.878,0,0,0,.2.161c.081.04.161.121.242.161a1.955,1.955,0,0,0,.282.121.887.887,0,0,0,.323.04.363.363,0,0,0,.2-.04c.081,0,.121-.04.2-.081l.121-.121a.3.3,0,0,0,.04-.2.423.423,0,0,0-.2-.363,3.211,3.211,0,0,0-.685-.242,1.207,1.207,0,0,1-.4-.161,2.233,2.233,0,0,1-.323-.242.878.878,0,0,1-.2-.323,1.193,1.193,0,0,1-.081-.4,2.025,2.025,0,0,1,.081-.484.922.922,0,0,1,.282-.4,1.34,1.34,0,0,1,1.089-.363,1.79,1.79,0,0,1,.524.081,1.209,1.209,0,0,1,.4.161,1.754,1.754,0,0,1,.282.161l.161.161-.524.564a.558.558,0,0,0-.161-.121.88.88,0,0,0-.2-.121.573.573,0,0,0-.242-.081.6.6,0,0,0-.282-.04.364.364,0,0,0-.2.04c-.081.04-.121.04-.161.081l-.121.121c-.04.04-.04.081-.04.161a.411.411,0,0,0,.2.323,1.76,1.76,0,0,0,.6.2,1.968,1.968,0,0,1,.444.161,1.406,1.406,0,0,1,.363.242,1.255,1.255,0,0,1,.282.363,1.116,1.116,0,0,1,.121.524.958.958,0,0,1-.121.484,1.578,1.578,0,0,1-.323.4.92.92,0,0,1-.484.242,1.568,1.568,0,0,1-.6.081,2.663,2.663,0,0,1-.565-.04,1.445,1.445,0,0,1-.444-.161c-.121-.081-.242-.121-.363-.2a1.754,1.754,0,0,1-.282-.242Z" transform="translate(-431.463 -489.3)"/>
            </g>
            <g id="Group_72" data-name="Group 72">
              <g id="Group_71" data-name="Group 71">
                <circle id="Ellipse_12" data-name="Ellipse 12" class="cls-12" cx="18.226" cy="18.226" r="18.226"/>
              </g>
            </g>
          </g>
          <rect id="Rectangle_25" data-name="Rectangle 25" class="cls-4" width="15.282" height="20.887" transform="translate(9.839 7.218)"/>
          <g id="Group_74" data-name="Group 74" transform="translate(11.653 12.097)">
            <rect id="Rectangle_26" data-name="Rectangle 26" class="cls-6" width="11.693" height="1.129"/>
          </g>
          <g id="Group_75" data-name="Group 75" transform="translate(11.653 9.798)">
            <rect id="Rectangle_27" data-name="Rectangle 27" class="cls-6" width="11.693" height="1.129"/>
          </g>
          <g id="Group_76" data-name="Group 76" transform="translate(11.653 14.355)">
            <rect id="Rectangle_28" data-name="Rectangle 28" class="cls-6" width="11.693" height="1.129"/>
          </g>
          <g id="Group_77" data-name="Group 77" transform="translate(11.653 16.653)">
            <rect id="Rectangle_29" data-name="Rectangle 29" class="cls-6" width="11.693" height="1.129"/>
          </g>
          <g id="Group_78" data-name="Group 78" transform="translate(11.653 18.951)">
            <rect id="Rectangle_30" data-name="Rectangle 30" class="cls-6" width="11.693" height="1.129"/>
          </g>
          <g id="Group_79" data-name="Group 79" transform="translate(11.653 21.25)">
            <rect id="Rectangle_31" data-name="Rectangle 31" class="cls-6" width="11.693" height="1.129"/>
          </g>
          <g id="Group_80" data-name="Group 80" transform="translate(11.653 23.508)">
            <rect id="Rectangle_32" data-name="Rectangle 32" class="cls-6" width="6.895" height="1.129"/>
          </g>
          <path id="Path_163" data-name="Path 163" class="cls-11" d="M451.94,427.493V415.8H449.4v11.693Z" transform="translate(-423.271 -404.47)"/>
          <path id="Path_164" data-name="Path 164" class="cls-5" d="M451.94,445.9l-1.25,1.694L449.4,445.9Z" transform="translate(-423.271 -422.433)"/>
          <path id="Path_165" data-name="Path 165" class="cls-8" d="M451.94,411.537v-1.29a.852.852,0,0,0-.847-.847h-.847a.852.852,0,0,0-.847.847v1.29Z" transform="translate(-423.271 -400.65)"/>
        </g>
        <g id="Group_108" data-name="Group 108" transform="translate(282.214 62.015)">
          <g id="Group_41" data-name="Group 41" transform="translate(1.21 41.007)">
            <path id="Path_97" data-name="Path 97" class="cls-2" d="M525.264,225.244a.878.878,0,0,0,.2.161c.081.04.161.121.242.161a1.968,1.968,0,0,0,.282.121.888.888,0,0,0,.323.04.364.364,0,0,0,.2-.04c.081,0,.121-.04.2-.081l.121-.121a.3.3,0,0,0,.04-.2.423.423,0,0,0-.2-.363,3.213,3.213,0,0,0-.685-.242,1.208,1.208,0,0,1-.4-.161,2.238,2.238,0,0,1-.323-.242.878.878,0,0,1-.2-.323,1.194,1.194,0,0,1-.081-.4,2.023,2.023,0,0,1,.081-.484.922.922,0,0,1,.282-.4,1.34,1.34,0,0,1,1.089-.363,1.789,1.789,0,0,1,.524.081,1.207,1.207,0,0,1,.4.161,1.751,1.751,0,0,1,.282.161l.161.161-.524.564a.557.557,0,0,0-.161-.121.881.881,0,0,0-.2-.121.573.573,0,0,0-.242-.081.6.6,0,0,0-.282-.04.363.363,0,0,0-.2.04.21.21,0,0,0-.161.081l-.121.121c-.04.04-.04.081-.04.161a.411.411,0,0,0,.2.323,1.76,1.76,0,0,0,.6.2,1.968,1.968,0,0,1,.444.161,1.407,1.407,0,0,1,.363.242,1.254,1.254,0,0,1,.282.363,1.116,1.116,0,0,1,.121.524.957.957,0,0,1-.121.484,1.576,1.576,0,0,1-.323.4.919.919,0,0,1-.484.242,1.567,1.567,0,0,1-.6.081,2.663,2.663,0,0,1-.565-.04,1.443,1.443,0,0,1-.443-.161c-.121-.081-.242-.121-.363-.2a1.755,1.755,0,0,1-.282-.242Z" transform="translate(-524.7 -222.3)"/>
            <path id="Path_98" data-name="Path 98" class="cls-2" d="M534.29,223.406H533V222.6h3.508v.806h-1.29v3.185h-.927Z" transform="translate(-529.653 -222.479)"/>
            <path id="Path_99" data-name="Path 99" class="cls-2" d="M541.873,222.6h1.008l1.452,3.992h-1.008l-.323-.927H541.59l-.323.927H540.3Zm.968,2.379-.484-1.492-.484,1.492Z" transform="translate(-534.01 -222.479)"/>
            <path id="Path_100" data-name="Path 100" class="cls-2" d="M551.4,222.6h.847l1.734,2.581V222.6h.887v3.992h-.806l-1.774-2.661v2.661H551.4V222.6Z" transform="translate(-540.634 -222.479)"/>
            <path id="Path_101" data-name="Path 101" class="cls-2" d="M562,222.6h1.492a2.681,2.681,0,0,1,.847.121,2.242,2.242,0,0,1,.685.363,1.535,1.535,0,0,1,.444.645,2.052,2.052,0,0,1,.161.887,1.87,1.87,0,0,1-.161.847,1.685,1.685,0,0,1-.444.6,1.859,1.859,0,0,1-.685.363,3.069,3.069,0,0,1-.847.121H562Zm1.452,3.185a1.29,1.29,0,0,0,.927-.323,1.155,1.155,0,0,0,.323-.847,1.505,1.505,0,0,0-.081-.484.97.97,0,0,0-.645-.645,2.1,2.1,0,0,0-.565-.081h-.565v2.379h.6Z" transform="translate(-546.96 -222.479)"/>
            <path id="Path_102" data-name="Path 102" class="cls-2" d="M572.773,222.6h1.008l1.452,3.992h-1.008l-.323-.927H572.49l-.323.927H571.2Zm.927,2.379-.484-1.492-.484,1.492Z" transform="translate(-552.45 -222.479)"/>
            <path id="Path_103" data-name="Path 103" class="cls-2" d="M582.3,222.6h1.492a2.442,2.442,0,0,1,.6.081,1.664,1.664,0,0,1,.443.282,1.447,1.447,0,0,1,.282.4,2.023,2.023,0,0,1,.081.484,1.325,1.325,0,0,1-.161.685,1.39,1.39,0,0,1-.484.484l.887,1.613h-1.008l-.726-1.452h-.484v1.452h-.887V222.6Zm1.411,1.814a.518.518,0,0,0,.4-.161.6.6,0,0,0,.161-.363.518.518,0,0,0-.161-.4.616.616,0,0,0-.4-.161h-.565v1.048h.565Z" transform="translate(-559.074 -222.479)"/>
            <path id="Path_104" data-name="Path 104" class="cls-2" d="M591.3,222.6h1.492a2.68,2.68,0,0,1,.847.121,2.242,2.242,0,0,1,.685.363,1.534,1.534,0,0,1,.443.645,2.05,2.05,0,0,1,.161.887,1.869,1.869,0,0,1-.161.847,1.683,1.683,0,0,1-.443.6,1.859,1.859,0,0,1-.685.363,3.07,3.07,0,0,1-.847.121H591.3Zm1.452,3.185a1.29,1.29,0,0,0,.927-.323,1.155,1.155,0,0,0,.323-.847,1.5,1.5,0,0,0-.081-.484.969.969,0,0,0-.645-.645,2.1,2.1,0,0,0-.565-.081h-.565v2.379h.6Z" transform="translate(-564.445 -222.479)"/>
            <path id="Path_105" data-name="Path 105" class="cls-2" d="M601.664,225.244a.879.879,0,0,0,.2.161c.081.04.161.121.242.161a1.967,1.967,0,0,0,.282.121.888.888,0,0,0,.323.04.364.364,0,0,0,.2-.04c.081,0,.121-.04.2-.081l.121-.121a.3.3,0,0,0,.04-.2.423.423,0,0,0-.2-.363,3.209,3.209,0,0,0-.685-.242,1.208,1.208,0,0,1-.4-.161,2.234,2.234,0,0,1-.323-.242.877.877,0,0,1-.2-.323,1.194,1.194,0,0,1-.081-.4,2.023,2.023,0,0,1,.081-.484.921.921,0,0,1,.282-.4,1.34,1.34,0,0,1,1.089-.363,1.789,1.789,0,0,1,.524.081,1.207,1.207,0,0,1,.4.161,1.754,1.754,0,0,1,.282.161l.161.161-.524.564a.557.557,0,0,0-.161-.121.88.88,0,0,0-.2-.121.573.573,0,0,0-.242-.081.6.6,0,0,0-.282-.04.363.363,0,0,0-.2.04.209.209,0,0,0-.161.081l-.121.121c-.04.04-.04.081-.04.161a.411.411,0,0,0,.2.323,1.76,1.76,0,0,0,.6.2,1.965,1.965,0,0,1,.444.161,1.4,1.4,0,0,1,.363.242,1.254,1.254,0,0,1,.282.363,1.116,1.116,0,0,1,.121.524.957.957,0,0,1-.121.484,1.579,1.579,0,0,1-.323.4.919.919,0,0,1-.484.242,1.568,1.568,0,0,1-.6.081,2.663,2.663,0,0,1-.565-.04,1.445,1.445,0,0,1-.443-.161c-.121-.081-.242-.121-.363-.2a1.752,1.752,0,0,1-.282-.242Z" transform="translate(-570.294 -222.3)"/>
          </g>
          <g id="Group_42" data-name="Group 42" transform="translate(0 0)">
            <circle id="Ellipse_4" data-name="Ellipse 4" class="cls-15" cx="18.226" cy="18.226" r="18.226"/>
          </g>
          <g id="Group_50" data-name="Group 50" transform="translate(8.871 3.992)">
            <path id="Path_106" data-name="Path 106" class="cls-7" d="M560.514,157.958H545.635a1.936,1.936,0,0,1-1.935-1.935V135.135a1.936,1.936,0,0,1,1.935-1.935h14.879a1.936,1.936,0,0,1,1.935,1.935v20.887A1.962,1.962,0,0,1,560.514,157.958Z" transform="translate(-543.7 -132.111)"/>
            <rect id="Rectangle_19" data-name="Rectangle 19" class="cls-4" width="15.282" height="20.887" transform="translate(1.734 3.145)"/>
            <g id="Group_44" data-name="Group 44" transform="translate(4.677)">
              <g id="Group_43" data-name="Group 43">
                <path id="Path_107" data-name="Path 107" class="cls-12" d="M562.921,130.5H555.3v2.863a1.756,1.756,0,0,0,1.774,1.734h5.847a1.756,1.756,0,0,0,1.774-1.734V130.5Z" transform="translate(-555.3 -130.5)"/>
              </g>
            </g>
            <g id="Group_45" data-name="Group 45" transform="translate(3.508 7.984)">
              <rect id="Rectangle_20" data-name="Rectangle 20" class="cls-6" width="11.693" height="1.129"/>
            </g>
            <g id="Group_46" data-name="Group 46" transform="translate(3.508 10.282)">
              <rect id="Rectangle_21" data-name="Rectangle 21" class="cls-6" width="11.693" height="1.129"/>
            </g>
            <g id="Group_47" data-name="Group 47" transform="translate(3.508 12.58)">
              <rect id="Rectangle_22" data-name="Rectangle 22" class="cls-6" width="11.693" height="1.129"/>
            </g>
            <g id="Group_48" data-name="Group 48" transform="translate(3.508 14.879)">
              <rect id="Rectangle_23" data-name="Rectangle 23" class="cls-6" width="11.693" height="1.129"/>
            </g>
            <g id="Group_49" data-name="Group 49" transform="translate(3.508 17.177)">
              <rect id="Rectangle_24" data-name="Rectangle 24" class="cls-6" width="11.693" height="1.129"/>
            </g>
          </g>
        </g>
      </g>
    </g>
  </g>
</svg>
