<svg height="512pt" viewBox="0 -38 512.0002 512" width="512pt" xmlns="http://www.w3.org/2000/svg"><path d="m188.535156 178.617188c-8.285156 0-15.003906-6.71875-15.003906-15.003907v-75.296875c0-8.289062 6.71875-15.003906 15.003906-15.003906s15.003906 6.714844 15.003906 15.003906v75.296875c0 8.285157-6.714843 15.003907-15.003906 15.003907zm0 0" fill="#52adff"/><path d="m308.726562 18.554688v66.207031c0 10.234375-8.320312 18.554687-18.554687 18.554687h-116.640625v-84.761718c0-10.230469 8.320312-18.554688 18.554688-18.554688h98.085937c10.234375 0 18.554687 8.324219 18.554687 18.554688zm0 0" fill="#ff664d"/><path d="m308.726562 18.554688v66.207031c0 10.234375-8.320312 18.554687-18.554687 18.554687h-49.042969v-103.316406h49.042969c10.234375 0 18.554687 8.324219 18.554687 18.554688zm0 0" fill="#dd311b"/><path d="m509.09375 421.234375c-4.414062 8.59375-13.074219 13.933594-22.597656 13.933594h-459.617188c-10 0-19.113281-5.640625-23.773437-14.714844-4.8125-9.359375-3.972657-20.902344 2.117187-29.417969l160.675782-221.75c11.152343-15.394531 34.078124-15.453125 45.300781-.109375l44.804687 61.207031 48.121094 65.738282 45.921875-64.058594c4.851563-6.769531 12.363281-10.652344 20.597656-10.652344 8.230469 0 15.734375 3.882813 20.59375 10.652344l115.851563 161.59375c5.722656 7.984375 6.511718 18.804688 2.003906 27.578125zm0 0" fill="#d1dee8"/><path d="m391.238281 232.0625c-4.859375-6.769531-12.363281-10.652344-20.59375-10.652344-8.234375 0-15.746093 3.882813-20.597656 10.652344l-45.921875 64.058594-48.121094-65.738282-44.804687-61.207031c-5.605469-7.667969-14.136719-11.488281-22.664063-11.472656v277.464844h297.960938c9.523437 0 18.183594-5.339844 22.597656-13.933594 4.507812-8.773437 3.71875-19.59375-2.003906-27.578125zm0 0" fill="#9fb1bc"/><path d="m509.09375 421.234375c-4.414062 8.59375-13.074219 13.933594-22.597656 13.933594h-80.601563l-101.769531-139.046875 45.921875-64.058594c4.851563-6.769531 12.363281-10.652344 20.597656-10.652344 8.230469 0 15.734375 3.882813 20.59375 10.652344l115.851563 161.59375c5.722656 7.984375 6.511718 18.804688 2.003906 27.578125zm0 0" fill="#6a8491"/></svg>