<svg xmlns="http://www.w3.org/2000/svg" viewBox="649.124 31.059 536.343 526.632">
  <defs>
    <style>
      .cls-1 {
        fill: #ff5722;
      }

      .cls-2 {
        fill: #fafafa;
      }
    </style>
  </defs>
  <g id="powerpoint" transform="translate(151 -168)">
    <g id="powerpoint-2" data-name="powerpoint">
      <g id="powerpoint-3" data-name="powerpoint" transform="translate(508 206.374)">
        <g id="Group_1" data-name="Group 1">
          <path id="Path_22" data-name="Path 22" d="M374.431,117.377a12.017,12.017,0,0,0-11.764,12.255v73.526a12.017,12.017,0,0,0,11.764,12.255h70.58a12.017,12.017,0,0,0,11.764-12.255C456.774,155.783,419.908,117.377,374.431,117.377Z" transform="translate(-4.338 -6.556)"/>
          <path id="Path_1" data-name="Path 1" class="cls-1" d="M373.334,117.377a10.667,10.667,0,0,0-10.667,10.667v64a10.667,10.667,0,0,0,10.667,10.667h64A10.667,10.667,0,0,0,448,192.044,74.668,74.668,0,0,0,373.334,117.377Z"/>
          <path id="Path_21" data-name="Path 21" d="M378.1,230.135c-18.55,0-33.588-15.363-33.588-34.314V139.8c-42.754,6.213-72.482,46.658-66.4,90.336s45.671,74.049,88.425,67.836c34.44-5.005,61.5-32.651,66.4-67.836Z" transform="matrix(1, -0.017, 0.017, 1, -3.773, 0.672)"/>
          <path id="Path_2" data-name="Path 2" class="cls-1" d="M373.334,224.044a32,32,0,0,1-32-32V139.8a74.5,74.5,0,1,0,84.245,84.245Z" transform="matrix(1, 0.017, -0.017, 1, 3.787, -6.101)"/>
          <path id="Path_19" data-name="Path 19" d="M316.2,13.189a11.447,11.447,0,0,0-9.706-2.289L8.883,79.579A11.448,11.448,0,0,0,0,90.843V480.027a11.447,11.447,0,0,0,9.706,11.31l297.611,45.787A11.447,11.447,0,0,0,320.5,525.815V22.163A11.441,11.441,0,0,0,316.2,13.189Z" transform="translate(-9.876 -17.941)"/>
          <path id="Path_3" data-name="Path 3" class="cls-1" d="M294.656,13.014a10.667,10.667,0,0,0-9.045-2.133l-277.333,64A10.668,10.668,0,0,0,0,85.377V448.044a10.667,10.667,0,0,0,9.045,10.539L286.378,501.25a10.667,10.667,0,0,0,12.288-10.538V21.377A10.661,10.661,0,0,0,294.656,13.014Z"/>
          <path id="Path_20" data-name="Path 20" d="M515.143,483.7H288.658a11.325,11.325,0,0,1,0-22.649H503.819V76.025H288.658a11.324,11.324,0,1,1,0-22.648H515.142A11.325,11.325,0,0,1,526.467,64.7V472.375A11.323,11.323,0,0,1,515.143,483.7Z" transform="translate(0 -12.494)"/>
          <path id="Path_4" data-name="Path 4" class="cls-1" d="M501.334,458.71H288a10.667,10.667,0,0,1,0-21.334H490.667V74.71H288a10.667,10.667,0,1,1,0-21.333H501.333A10.667,10.667,0,0,1,512,64.044v384A10.666,10.666,0,0,1,501.334,458.71Z"/>
          <path id="Path_24" data-name="Path 24" d="M449.781,403.009H288.83c-6.349,0-11.5-6.634-11.5-14.817s5.148-14.817,11.5-14.817H449.78c6.349,0,11.5,6.634,11.5,14.817S456.131,403.009,449.781,403.009Z" transform="translate(-8.284 -4.012)"/>
          <path id="Path_5" data-name="Path 5" class="cls-1" d="M437.334,394.71H288a10.667,10.667,0,0,1,0-21.334H437.333a10.667,10.667,0,0,1,0,21.334Z"/>
          <path id="Path_23" data-name="Path 23" d="M449.781,339.451H288.83c-6.349,0-11.5-6.733-11.5-15.037s5.148-15.038,11.5-15.038H449.78c6.349,0,11.5,6.733,11.5,15.038S456.131,339.451,449.781,339.451Z" transform="translate(-8.284 -3.809)"/>
          <path id="Path_6" data-name="Path 6" class="cls-1" d="M437.334,330.71H288a10.667,10.667,0,0,1,0-21.334H437.333a10.667,10.667,0,0,1,0,21.334Z"/>
        </g>
        <path id="Path_7" data-name="Path 7" class="cls-2" d="M96,352.044a10.667,10.667,0,0,1-10.667-10.667V170.71A10.667,10.667,0,0,1,96,160.043h42.667A53.333,53.333,0,0,1,192,213.376v21.333a53.333,53.333,0,0,1-53.333,53.333h-32v53.333A10.667,10.667,0,0,1,96,352.044Zm10.667-85.334h32a32,32,0,0,0,32-32V213.377a32,32,0,0,0-32-32h-32V266.71Z"/>
      </g>
    </g>
    <rect id="Rectangle_1" data-name="Rectangle 1" class="cls-1" width="57" height="52" transform="translate(750 247)"/>
    <rect id="Rectangle_2" data-name="Rectangle 2" class="cls-1" width="57" height="52" transform="translate(750 501)"/>
    <rect id="Rectangle_3" data-name="Rectangle 3" class="cls-1" width="57" height="52" transform="translate(750 563)"/>
    <rect id="Rectangle_4" data-name="Rectangle 4" class="cls-1" width="57" height="65" transform="translate(750 619)"/>
  </g>
</svg>
