<svg xmlns="http://www.w3.org/2000/svg" viewBox="159.115 448.952 528.682 510.105">
  <defs>
    <style>
      .cls-1 {
        fill: #eceff1;
      }

      .cls-2 {
        fill: #1976d2;
      }

      .cls-3 {
        fill: #1565c0;
      }

      .cls-4 {
        fill: #fafafa;
      }
    </style>
  </defs>
  <g id="word" transform="translate(166 448.005)">
    <path id="Path_12" data-name="Path 12" d="M505.185,457.114H272.612A16.867,16.867,0,0,1,256,439.973V97.145A16.889,16.889,0,0,1,272.612,80H505.185A16.889,16.889,0,0,1,521.8,97.145V439.973A16.867,16.867,0,0,1,505.185,457.114Z" transform="translate(0 -12.696)"/>
    <path id="Path_27" data-name="Path 27" class="cls-1" d="M496,432H272a15.985,15.985,0,0,1-16-16V96a16.006,16.006,0,0,1,16-16H496a16.006,16.006,0,0,1,16,16V416A15.985,15.985,0,0,1,496,432Z"/>
    <g id="Group_3" data-name="Group 3">
      <path id="Path_13" data-name="Path 13" d="M469.149,187.081H275.377c-10.7,0-19.377-9.606-19.377-21.538S264.681,144,275.377,144H469.149c10.7,0,19.377,9.649,19.377,21.538S479.845,187.081,469.149,187.081Z" transform="translate(-35.23 -5.721)"/>
      <path id="Path_31" data-name="Path 31" class="cls-2" d="M432,176H272a16,16,0,0,1,0-32H432a16,16,0,0,1,0,32Z"/>
      <path id="Path_14" data-name="Path 14" d="M453.73,249.453H273.975c-9.922,0-17.975-9.243-17.975-20.725S264.053,208,273.975,208H453.73c9.922,0,17.975,9.285,17.975,20.725S463.652,249.453,453.73,249.453Z" transform="translate(-18.408 -4.527)"/>
      <path id="Path_30" data-name="Path 30" class="cls-2" d="M432,240H272a16,16,0,0,1,0-32H432a16,16,0,0,1,0,32Z"/>
      <path id="Path_15" data-name="Path 15" d="M470.959,313.883H275.542c-10.787,0-19.542-9.339-19.542-20.94S264.755,272,275.542,272H470.959c10.787,0,19.542,9.381,19.542,20.939S481.746,313.883,470.959,313.883Z" transform="translate(-37.204 -4.685)"/>
      <path id="Path_29" data-name="Path 29" class="cls-2" d="M432,304H272a16,16,0,0,1,0-32H432a16,16,0,0,1,0,32Z"/>
      <path id="Path_16" data-name="Path 16" d="M469.149,377.325H275.377c-10.7,0-19.377-9.215-19.377-20.66S264.681,336,275.377,336H469.149c10.7,0,19.377,9.256,19.377,20.66S479.845,377.325,469.149,377.325Z" transform="translate(-35.23 -4.543)"/>
      <path id="Path_28" data-name="Path 28" class="cls-2" d="M432,368H272a16,16,0,0,1,0-32H432a16,16,0,0,1,0,32Z"/>
    </g>
    <path id="Path_17" data-name="Path 17" d="M299.9,19.949a16.727,16.727,0,0,0-13.977-3.639L13.875,67.32A17.015,17.015,0,0,0,0,84.017V458.088a16.982,16.982,0,0,0,13.875,16.7l272.051,51.01a16.263,16.263,0,0,0,3.129.306,17,17,0,0,0,17-17V33.008A16.889,16.889,0,0,0,299.9,19.949Z" transform="translate(-6.885 -15.048)"/>
    <path id="Path_25" data-name="Path 25" class="cls-3" d="M282.208,19.716a15.74,15.74,0,0,0-13.152-3.424l-256,48A16.011,16.011,0,0,0,0,80V432a15.98,15.98,0,0,0,13.056,15.712l256,48A15.3,15.3,0,0,0,272,496a16,16,0,0,0,16-16V32A15.893,15.893,0,0,0,282.208,19.716Z"/>
    <path id="Path_18" data-name="Path 18" d="M211.509,333.449a16,16,0,0,1-14.269,13.7,14.854,14.854,0,0,1-2.034.125,16.442,16.442,0,0,1-15.351-10.09L146,251.488l-33.851,85.7a16.365,16.365,0,0,1-17.122,10,16.007,16.007,0,0,1-14.466-13.3l-16.4-108.992c-1.279-8.47,4.953-16.38,13.908-17.594,8.988-1.246,17.286,4.7,18.566,13.2l7.315,48.7,26.668-67.544c4.789-12.145,25.913-12.145,30.735,0l25.126,63.589,8.824-75.422c1.017-8.533,9.348-14.667,18.107-13.764,9.02,1,15.482,8.688,14.5,17.221Z" transform="translate(0 2.364)"/>
    <path id="Path_26" data-name="Path 26" class="cls-4" d="M207.9,337.8a16.008,16.008,0,0,1-13.92,14.08A13.77,13.77,0,0,1,192,352a16.044,16.044,0,0,1-14.976-10.368L144,253.572l-33.024,88.064a16,16,0,0,1-30.816-3.392l-16-112a16,16,0,0,1,31.68-4.512l7.136,50.048,26.016-69.408c4.672-12.48,25.28-12.48,29.984,0l24.512,65.344,8.608-77.5a16,16,0,1,1,31.808,3.552Z"/>
  </g>
</svg>
