<svg aria-hidden="true" style="position: absolute; width: 0; height: 0; overflow: hidden;" version="1.1" xmlns="http://www.w3.org/2000/svg" xmlns:xlink="http://www.w3.org/1999/xlink">
<defs>
<symbol id="icon-powerpoint" viewBox="0 0 33 32">
<title>powerpoint</title>
<path fill="#000" style="fill: var(--color1, #000)" d="M23.088 7.178c-0.397 0.009-0.715 0.332-0.715 0.73 0 0.005 0 0.010 0 0.015v-0.001 4.468c-0 0.004-0 0.009-0 0.015 0 0.398 0.318 0.722 0.714 0.73h4.289c0.397-0.009 0.715-0.332 0.715-0.73 0-0.005-0-0.010-0-0.015v0.001c-0-2.879-2.24-5.212-5.003-5.212z"></path>
<path fill="#ff5722" style="fill: var(--color2, #ff5722)" d="M23.285 7.577c-0.358 0-0.648 0.29-0.648 0.648v0 3.889c0 0.358 0.29 0.648 0.648 0.648v0h3.889c0.358-0 0.648-0.29 0.648-0.648v0c-0-2.506-2.031-4.537-4.537-4.537v0z"></path>
<path fill="#000" style="fill: var(--color1, #000)" d="M23.583 14.079c-1.127 0.019-2.057-0.899-2.076-2.050l-0.058-3.404c-2.591 0.422-4.356 2.91-3.941 5.558s2.852 4.452 5.443 4.031c2.088-0.34 3.703-2.048 3.965-4.191z"></path>
<path fill="#ff5722" style="fill: var(--color2, #ff5722)" d="M23.284 14.073c-1.074-0.018-1.93-0.904-1.911-1.978v0l0.054-3.175c-2.216 0.286-3.927 2.14-3.966 4.416-0.043 2.5 1.95 4.561 4.45 4.604 2.275 0.039 4.187-1.608 4.545-3.789l0.003-0.024z"></path>
<path fill="#000" style="fill: var(--color1, #000)" d="M19.213 0.156c-0.119-0.097-0.272-0.156-0.439-0.156-0.054 0-0.106 0.006-0.156 0.018l0.005-0.001-18.084 4.173c-0.311 0.073-0.54 0.349-0.54 0.678 0 0.002 0 0.005 0 0.007v-0 23.648c0 0.347 0.254 0.634 0.586 0.687l0.004 0.001 18.084 2.782c0.032 0.005 0.068 0.008 0.105 0.008 0.384 0 0.695-0.311 0.696-0.695v-30.604c0-0.001 0-0.001 0-0.002 0-0.219-0.101-0.415-0.26-0.542l-0.001-0.001z"></path>
<path fill="#ff5722" style="fill: var(--color2, #ff5722)" d="M18.504 1.235c-0.111-0.090-0.253-0.145-0.409-0.145-0.050 0-0.099 0.006-0.145 0.016l0.004-0.001-16.852 3.889c-0.29 0.068-0.503 0.325-0.503 0.632 0 0.002 0 0.004 0 0.006v-0 22.037c0 0.323 0.237 0.591 0.546 0.64l0.004 0 16.852 2.593c0.030 0.005 0.064 0.008 0.099 0.008 0.358 0 0.648-0.29 0.648-0.648v-28.518c0-0.001 0-0.001 0-0.002 0-0.204-0.095-0.387-0.242-0.505l-0.001-0.001z"></path>
<path fill="#000" style="fill: var(--color1, #000)" d="M31.902 29.077h-13.762c-0.377-0.004-0.682-0.31-0.682-0.688s0.304-0.684 0.681-0.688h13.074v-23.396h-13.074c-0.38 0-0.688-0.308-0.688-0.688s0.308-0.688 0.688-0.688h13.762c0.38 0 0.688 0.308 0.688 0.688v0 24.772c0 0 0 0 0 0 0 0.38-0.308 0.688-0.688 0.688-0 0-0 0-0 0v0z"></path>
<path fill="#ff5722" style="fill: var(--color2, #ff5722)" d="M31.063 28.317h-12.963c-0.358 0-0.648-0.29-0.648-0.648s0.29-0.648 0.648-0.648v0h12.315v-22.037h-12.315c-0.002 0-0.004 0-0.006 0-0.358 0-0.648-0.29-0.648-0.648s0.29-0.648 0.648-0.648c0.002 0 0.004 0 0.007 0h12.962c0.358 0 0.648 0.29 0.648 0.648v0 23.333c0 0.358-0.29 0.648-0.648 0.648v0z"></path>
<path fill="#000" style="fill: var(--color1, #000)" d="M27.427 24.689h-9.78c-0.386 0-0.699-0.403-0.699-0.9s0.313-0.9 0.699-0.9h9.78c0.386 0 0.699 0.403 0.699 0.9s-0.313 0.9-0.699 0.9z"></path>
<path fill="#ff5722" style="fill: var(--color2, #ff5722)" d="M27.174 24.428h-9.074c-0.358 0-0.648-0.29-0.648-0.648s0.29-0.648 0.648-0.648v0h9.074c0.358 0 0.648 0.29 0.648 0.648s-0.29 0.648-0.648 0.648v0z"></path>
<path fill="#000" style="fill: var(--color1, #000)" d="M27.427 20.839h-9.78c-0.386 0-0.699-0.409-0.699-0.914s0.313-0.914 0.699-0.914h9.78c0.386 0 0.699 0.409 0.699 0.914s-0.313 0.914-0.699 0.914z"></path>
<path fill="#ff5722" style="fill: var(--color2, #ff5722)" d="M27.174 20.54h-9.074c-0.358 0-0.648-0.29-0.648-0.648s0.29-0.648 0.648-0.648v0h9.074c0.358 0 0.648 0.29 0.648 0.648s-0.29 0.648-0.648 0.648v0z"></path>
<path fill="#fafafa" style="fill: var(--color3, #fafafa)" d="M6.433 21.836c-0.358 0-0.648-0.29-0.648-0.648v0-10.37c0-0.358 0.29-0.648 0.648-0.648v0h2.593c1.79 0 3.241 1.451 3.241 3.241v0 1.296c0 1.79-1.451 3.241-3.241 3.241v0h-1.944v3.241c0 0 0 0 0 0 0 0.358-0.29 0.648-0.648 0.648v0zM7.082 16.651h1.944c1.074 0 1.944-0.871 1.944-1.944v0-1.296c0-1.074-0.871-1.944-1.944-1.944v0h-1.944v5.185z"></path>
<path fill="#ff5722" style="fill: var(--color2, #ff5722)" d="M15.305 2.913h3.464v3.16h-3.464v-3.16z"></path>
<path fill="#ff5722" style="fill: var(--color2, #ff5722)" d="M15.305 18.347h3.464v3.16h-3.464v-3.16z"></path>
<path fill="#ff5722" style="fill: var(--color2, #ff5722)" d="M15.305 22.114h3.464v3.16h-3.464v-3.16z"></path>
<path fill="#ff5722" style="fill: var(--color2, #ff5722)" d="M15.305 25.517h3.464v3.95h-3.464v-3.95z"></path>
</symbol>
<symbol id="icon-word" viewBox="0 0 33 32">
<title>word</title>
<path fill="#000" style="fill: var(--color1, #000)" d="M32.123 27.82h-14.59c-0.578-0.009-1.042-0.479-1.042-1.058 0-0.006 0-0.012 0-0.018v0.001-21.506c-0-0.005-0-0.011-0-0.016 0-0.579 0.465-1.050 1.041-1.059h14.591c0.578 0.010 1.042 0.48 1.042 1.059 0 0.006-0 0.011-0 0.017v-0.001 21.506c0 0.005 0 0.011 0 0.017 0 0.579-0.465 1.049-1.042 1.058h-0.001z"></path>
<path fill="#eceff1" style="fill: var(--color4, #eceff1)" d="M31.547 27.041h-14.052c-0 0-0.001 0-0.001 0-0.554 0-1.003-0.449-1.003-1.003 0-0 0-0.001 0-0.001v0-20.074c0-0.554 0.449-1.003 1.004-1.004h14.052c0.554 0 1.004 0.449 1.004 1.004v20.074c0 0 0 0.001 0 0.001 0 0.554-0.449 1.003-1.003 1.003-0 0-0.001 0-0.001 0h0z"></path>
<path fill="#000" style="fill: var(--color1, #000)" d="M27.653 11.318h-12.156c-0.671 0-1.216-0.603-1.216-1.351s0.545-1.351 1.216-1.351h12.156c0.671 0 1.216 0.605 1.216 1.351s-0.545 1.351-1.216 1.351z"></path>
<path fill="#1976d2" style="fill: var(--color5, #1976d2)" d="M27.532 10.981h-10.037c-0.554 0-1.004-0.449-1.004-1.004s0.449-1.004 1.004-1.004v0h10.037c0.554 0 1.004 0.449 1.004 1.004s-0.449 1.004-1.004 1.004v0z"></path>
<path fill="#000" style="fill: var(--color1, #000)" d="M27.741 15.305h-11.276c-0.622 0-1.128-0.58-1.128-1.3s0.505-1.3 1.128-1.3h11.276c0.622 0 1.128 0.582 1.128 1.3s-0.505 1.3-1.128 1.3z"></path>
<path fill="#1976d2" style="fill: var(--color5, #1976d2)" d="M27.532 14.996h-10.037c-0.554 0-1.004-0.449-1.004-1.004s0.449-1.004 1.004-1.004v0h10.037c0.554 0 1.004 0.449 1.004 1.004s-0.449 1.004-1.004 1.004v0z"></path>
<path fill="#000" style="fill: var(--color1, #000)" d="M27.642 19.337h-12.259c-0.677 0-1.226-0.586-1.226-1.314s0.549-1.314 1.226-1.314h12.259c0.677 0 1.226 0.588 1.226 1.314s-0.549 1.314-1.226 1.314z"></path>
<path fill="#1976d2" style="fill: var(--color5, #1976d2)" d="M27.532 19.011h-10.037c-0.554 0-1.004-0.449-1.004-1.004s0.449-1.004 1.004-1.004v0h10.037c0.554 0 1.004 0.449 1.004 1.004s-0.449 1.004-1.004 1.004v0z"></path>
<path fill="#000" style="fill: var(--color1, #000)" d="M27.653 23.326h-12.156c-0.671 0-1.216-0.578-1.216-1.296s0.545-1.296 1.216-1.296h12.156c0.671 0 1.216 0.581 1.216 1.296s-0.545 1.296-1.216 1.296z"></path>
<path fill="#1976d2" style="fill: var(--color5, #1976d2)" d="M27.532 23.026h-10.037c-0.554 0-1.004-0.449-1.004-1.004s0.449-1.004 1.004-1.004v0h10.037c0.554 0 1.004 0.449 1.004 1.004s-0.449 1.004-1.004 1.004v0z"></path>
<path fill="#000" style="fill: var(--color1, #000)" d="M18.813 0.248c-0.181-0.154-0.418-0.247-0.677-0.247-0.071 0-0.14 0.007-0.207 0.020l0.007-0.001-17.066 3.2c-0.498 0.096-0.87 0.528-0.87 1.047v23.466c0 0 0 0 0 0 0 0.519 0.372 0.952 0.864 1.046l0.007 0.001 17.066 3.2c0.059 0.012 0.127 0.019 0.196 0.019h0c0.589 0 1.066-0.477 1.066-1.066v0-29.867c0-0 0-0.001 0-0.001 0-0.329-0.15-0.622-0.384-0.817l-0.002-0.001z"></path>
<path fill="#1565c0" style="fill: var(--color6, #1565c0)" d="M18.135 1.177c-0.171-0.145-0.394-0.233-0.637-0.233-0.067 0-0.132 0.007-0.194 0.019l0.006-0.001-16.059 3.011c-0.469 0.090-0.818 0.497-0.819 0.985v22.082c0 0 0 0 0 0 0 0.489 0.35 0.896 0.813 0.985l0.006 0.001 16.059 3.011c0.055 0.011 0.119 0.018 0.185 0.018h0c0.554 0 1.004-0.449 1.004-1.004v0-28.104c0-0 0-0.001 0-0.001 0-0.309-0.141-0.586-0.362-0.768l-0.002-0.001z"></path>
<path fill="#000" style="fill: var(--color1, #000)" d="M13.7 21.007c-0.066 0.458-0.433 0.812-0.891 0.859l-0.004 0c-0.036 0.005-0.078 0.008-0.121 0.008-0.002 0-0.005 0-0.007-0h0c-0.003 0-0.008 0-0.012 0-0.426 0-0.791-0.258-0.949-0.626l-0.003-0.007-2.124-5.376-2.124 5.376c-0.158 0.376-0.523 0.635-0.949 0.635-0.044 0-0.088-0.003-0.13-0.008l0.005 0.001c-0.46-0.039-0.83-0.384-0.907-0.828l-0.001-0.006-1.029-6.837c-0.080-0.531 0.311-1.028 0.872-1.104 0.564-0.078 1.084 0.295 1.165 0.828l0.459 3.055 1.673-4.237c0.3-0.762 1.626-0.762 1.928 0l1.576 3.989 0.554-4.731c0.064-0.535 0.586-0.92 1.136-0.863 0.566 0.063 0.971 0.545 0.91 1.080z"></path>
<path fill="#fafafa" style="fill: var(--color3, #fafafa)" d="M13.474 21.132c-0.054 0.461-0.413 0.824-0.868 0.883l-0.005 0.001c-0.034 0.005-0.074 0.008-0.114 0.008-0.004 0-0.007-0-0.011-0h0.001c-0.427-0.001-0.792-0.268-0.937-0.644l-0.002-0.007-2.072-5.524-2.072 5.524c-0.147 0.383-0.512 0.65-0.939 0.65-0.505 0-0.922-0.372-0.993-0.857l-0.001-0.005-1.004-7.026c-0.006-0.041-0.009-0.089-0.009-0.137 0-0.554 0.449-1.004 1.004-1.004 0.503 0 0.919 0.37 0.992 0.852l0.001 0.006 0.448 3.14 1.632-4.354c0.293-0.783 1.586-0.783 1.881 0l1.538 4.099 0.54-4.862c0.058-0.504 0.482-0.892 0.998-0.892 0.554 0 1.004 0.449 1.004 1.004 0 0.039-0.002 0.078-0.007 0.116l0-0.005z"></path>
</symbol>
<symbol id="icon-pdf" viewBox="0 0 32 32">
<title>pdf</title>
<path fill="#e4eaf8" style="fill: var(--color7, #e4eaf8)" d="M6.38 1.57c0-0.59 0.479-1.069 1.069-1.069h16.033l5.344 5.344v24.585c0 0.59-0.479 1.069-1.069 1.069h-20.309c-0.59 0-1.069-0.479-1.069-1.069v-28.86z"></path>
<path fill="#d5dced" style="fill: var(--color8, #d5dced)" d="M18.672 29.361h-12.292v-10.689h12.292c1.476 0 2.672 1.196 2.672 2.672v5.345c0 1.476-1.196 2.672-2.672 2.672z"></path>
<path fill="#d5dced" style="fill: var(--color8, #d5dced)" d="M23.482 0.501v4.276c0 0.59 0.479 1.069 1.069 1.069h4.276l-5.344-5.344z"></path>
<path fill="#ff5050" style="fill: var(--color9, #ff5050)" d="M18.672 27.758h-14.43c-0.59 0-1.069-0.479-1.069-1.069v-5.345c0-0.59 0.478-1.069 1.069-1.069h14.43c0.59 0 1.069 0.479 1.069 1.069v5.345c0 0.59-0.479 1.069-1.069 1.069z"></path>
<path fill="#ff5050" style="fill: var(--color9, #ff5050)" d="M22.948 11.724c0 2.952-2.393 5.344-5.344 5.344s-5.344-2.393-5.344-5.344c0-2.952 2.393-5.344 5.344-5.344s5.344 2.393 5.344 5.344z"></path>
<path fill="#000" style="fill: var(--color1, #000)" d="M29.181 5.491l-5.345-5.345c-0.094-0.094-0.221-0.147-0.354-0.147h-16.033c-0.866 0-1.57 0.704-1.57 1.57v18.205h-1.637c-0.866 0-1.57 0.704-1.57 1.57v5.345c0 0.866 0.704 1.57 1.57 1.57h1.637v2.171c0 0.866 0.704 1.57 1.57 1.57h20.309c0.866 0 1.57-0.704 1.57-1.57v-24.585c-0-0.133-0.053-0.26-0.147-0.354zM23.983 1.711l3.634 3.634h-3.066c-0.313 0-0.568-0.255-0.568-0.568v-3.066zM3.674 26.689v-5.345c0-0.313 0.255-0.568 0.568-0.568h14.43c0.313 0 0.568 0.255 0.568 0.568v5.345c0 0.313-0.255 0.568-0.568 0.568h-14.43c-0.313 0-0.568-0.255-0.568-0.568zM27.758 30.998h-20.309c-0.313 0-0.568-0.255-0.568-0.568v-2.171h11.791c0.866 0 1.57-0.704 1.57-1.57v-5.345c0-0.866-0.704-1.57-1.57-1.57h-11.791v-18.205c0-0.313 0.255-0.568 0.568-0.568h15.532v3.775c0 0.866 0.704 1.57 1.57 1.57h3.774v24.084c0 0.313-0.255 0.568-0.568 0.568z"></path>
<path fill="#000" style="fill: var(--color1, #000)" d="M5.812 25.052h1.637c0.866 0 1.57-0.704 1.57-1.57s-0.704-1.57-1.57-1.57h-2.138c-0.277 0-0.501 0.224-0.501 0.501v3.207c0 0.277 0.224 0.501 0.501 0.501s0.501-0.224 0.501-0.501v-0.568zM8.017 23.482c0 0.313-0.255 0.568-0.568 0.568h-1.637v-1.136h1.637c0.313 0 0.568 0.255 0.568 0.568z"></path>
<path fill="#000" style="fill: var(--color1, #000)" d="M10.121 26.121h1.603c1.16 0 2.104-0.944 2.104-2.104s-0.944-2.104-2.104-2.104h-1.603c-0.277 0-0.501 0.224-0.501 0.501v3.207c0 0.277 0.224 0.501 0.501 0.501zM10.622 22.914h1.102c0.608 0 1.102 0.494 1.102 1.102s-0.495 1.102-1.102 1.102h-1.102v-2.205z"></path>
<path fill="#000" style="fill: var(--color1, #000)" d="M14.931 26.121c0.277 0 0.501-0.224 0.501-0.501v-1.102h1.102c0.277 0 0.501-0.224 0.501-0.501s-0.224-0.501-0.501-0.501h-1.102v-0.601h2.171c0.277 0 0.501-0.224 0.501-0.501s-0.224-0.501-0.501-0.501h-2.672c-0.277 0-0.501 0.224-0.501 0.501v3.207c0 0.277 0.224 0.501 0.501 0.501z"></path>
<path fill="#000" style="fill: var(--color1, #000)" d="M17.603 5.879c-3.223 0-5.846 2.622-5.846 5.846s2.622 5.846 5.846 5.846 5.846-2.622 5.846-5.846-2.622-5.846-5.846-5.846zM17.603 16.568c-2.671 0-4.843-2.173-4.843-4.843s2.173-4.843 4.843-4.843 4.843 2.173 4.843 4.843-2.173 4.843-4.843 4.843z"></path>
<path fill="#000" style="fill: var(--color1, #000)" d="M17.609 9.553c0.277 0 0.501-0.224 0.501-0.501s-0.224-0.501-0.501-0.501h-0.005c-0.277 0-0.498 0.224-0.498 0.501s0.227 0.501 0.504 0.501z"></path>
<path fill="#000" style="fill: var(--color1, #000)" d="M18.138 11.157c0.277 0 0.501-0.224 0.501-0.501s-0.224-0.501-0.501-0.501h-1.069c-0.277 0-0.501 0.224-0.501 0.501s0.224 0.501 0.501 0.501h0.033v2.739h-0.033c-0.277 0-0.501 0.224-0.501 0.501s0.224 0.501 0.501 0.501h1.069c0.277 0 0.501-0.224 0.501-0.501s-0.224-0.501-0.501-0.501h-0.033v-2.739h0.033z"></path>
</symbol>
</defs>
</svg>
