<!-- Generated by IcoMoon.io -->
<svg version="1.1" xmlns="http://www.w3.org/2000/svg" width="32" height="32" viewBox="0 0 32 32">
<title>facebook</title>
<path fill="#4e598f" d="M32 16c0 8.837-7.163 16-16 16s-16-7.163-16-16c0-8.837 7.163-16 16-16s16 7.163 16 16z"></path>
<path fill="#364270" d="M31.975 15.106l-7.536-7.538c-0.125 0.038-0.436-0.107-0.573-0.080-3.232 0.539-6.357 0-9.481 0.862-1.508 0.431-1.616 2.263-2.155 3.448-0.754 2.155-0.646 4.525-1.616 6.572-0.646 1.401-2.155 2.263-2.694 3.879-0.18 0.674-0.169 1.524-0.372 2.168l7.561 7.558c0.295 0.016 0.592 0.025 0.892 0.025 8.836 0 16-7.163 16-16 0-0.3-0.009-0.598-0.025-0.894z"></path>
<path fill="#fff" d="M22.69 6.842h-13.38c-1.363 0-2.468 1.105-2.468 2.468v13.38c0 1.363 1.105 2.468 2.468 2.468h6.599l0.011-6.545h-1.701c-0.221 0-0.4-0.179-0.401-0.4l-0.008-2.11c-0.001-0.222 0.179-0.403 0.401-0.403h1.698v-2.039c0-2.366 1.445-3.654 3.555-3.654h1.732c0.221 0 0.401 0.18 0.401 0.401v1.779c0 0.222-0.18 0.401-0.401 0.401l-1.063 0.001c-1.148 0-1.37 0.545-1.37 1.346v1.765h2.522c0.241 0 0.427 0.21 0.398 0.448l-0.25 2.11c-0.024 0.202-0.195 0.354-0.398 0.354h-2.261l-0.011 6.545h3.927c1.363 0 2.468-1.105 2.468-2.468v-13.381c0-1.363-1.105-2.468-2.468-2.468v0z"></path>
<path fill="#fff" d="M15.909 25.158l0.011-6.545h-0.028v6.545z"></path>
<path fill="#d1d1d1" d="M22.69 6.842h-6.798v8.859h0.017v-2.039c0-2.366 1.445-3.654 3.555-3.654h1.732c0.221 0 0.401 0.18 0.401 0.401v1.779c0 0.222-0.18 0.401-0.401 0.401l-1.063 0.001c-1.148 0-1.37 0.545-1.37 1.346v1.765h2.522c0.241 0 0.427 0.21 0.398 0.448l-0.25 2.11c-0.024 0.202-0.195 0.354-0.398 0.354h-2.261l-0.011 6.545h3.927c1.363 0 2.468-1.105 2.468-2.468v-13.38c0-1.363-1.105-2.468-2.468-2.468z"></path>
</svg>
