<!-- Generated by IcoMoon.io -->
<svg version="1.1" xmlns="http://www.w3.org/2000/svg" width="32" height="32" viewBox="0 0 32 32">
<title>google-plus</title>
<path fill="#cf4c3c" d="M32 16c0 8.837-7.163 16-16 16s-16-7.163-16-16c0-8.837 7.163-16 16-16s16 7.163 16 16z"></path>
<path fill="#ad3228" d="M23.311 13.469l-2.283 2.746-4.298-4.47h-5.938l-2.403 2.602v5.62l11.539 11.546c5.225-1.319 9.426-5.207 11.182-10.243l-7.8-7.801z"></path>
<path fill="#fff" d="M13.268 17.209h2.862c-0.502 1.42-1.863 2.438-3.455 2.427-1.932-0.014-3.531-1.56-3.606-3.491-0.080-2.070 1.58-3.78 3.633-3.78 0.939 0 1.795 0.358 2.441 0.944 0.153 0.139 0.386 0.14 0.536-0.002l1.051-0.989c0.164-0.155 0.165-0.416 0.001-0.571-1.024-0.97-2.397-1.575-3.912-1.604-3.231-0.063-5.954 2.586-5.976 5.817-0.023 3.256 2.609 5.902 5.86 5.902 3.126 0 5.679-2.447 5.85-5.53 0.005-0.039 0.008-1.345 0.008-1.345h-5.291c-0.217 0-0.393 0.176-0.393 0.393v1.439c-0 0.217 0.176 0.393 0.393 0.393v0z"></path>
<path fill="#d1d1d1" d="M23.408 15.115v-1.406c0-0.19-0.154-0.344-0.344-0.344h-1.183c-0.19 0-0.344 0.154-0.344 0.344v1.406h-1.406c-0.19 0-0.344 0.154-0.344 0.344v1.183c0 0.19 0.154 0.344 0.344 0.344h1.406v1.406c0 0.19 0.154 0.344 0.344 0.344h1.183c0.19 0 0.344-0.154 0.344-0.344v-1.406h1.406c0.19 0 0.344-0.154 0.344-0.344v-1.183c0-0.19-0.154-0.344-0.344-0.344h-1.406z"></path>
</svg>
