<!-- Generated by IcoMoon.io -->
<svg version="1.1" xmlns="http://www.w3.org/2000/svg" width="32" height="32" viewBox="0 0 32 32">
<title>google-plus1</title>
<path fill="#f34a38" d="M11.227 18.112h5c-0.878 2.481-3.254 4.26-6.037 4.239-3.376-0.025-6.168-2.726-6.299-6.1-0.14-3.617 2.761-6.603 6.347-6.603 1.64 0 3.136 0.625 4.264 1.648 0.267 0.243 0.674 0.244 0.937-0.003l1.836-1.728c0.287-0.27 0.288-0.727 0.002-0.998-1.789-1.695-4.189-2.751-6.835-2.803-5.644-0.11-10.402 4.517-10.441 10.163-0.040 5.688 4.559 10.311 10.237 10.311 5.461 0 9.922-4.276 10.221-9.662 0.008-0.068 0.013-2.35 0.013-2.35h-9.244c-0.379 0-0.686 0.307-0.686 0.686v2.514c0 0.379 0.307 0.686 0.686 0.686z"></path>
<path fill="#f34a38" d="M28.943 14.454v-2.456c0-0.332-0.269-0.601-0.601-0.601h-2.067c-0.332 0-0.601 0.269-0.601 0.601v2.456h-2.456c-0.332 0-0.601 0.269-0.601 0.601v2.067c0 0.332 0.269 0.601 0.601 0.601h2.456v2.456c0 0.332 0.269 0.601 0.601 0.601h2.067c0.332 0 0.601-0.269 0.601-0.601v-2.456h2.456c0.332 0 0.601-0.269 0.601-0.601v-2.067c0-0.332-0.269-0.601-0.601-0.601h-2.456z"></path>
</svg>
