<!-- Generated by IcoMoon.io -->
<svg version="1.1" xmlns="http://www.w3.org/2000/svg" width="32" height="32" viewBox="0 0 32 32">
<title>instagram</title>
<path fill="#6c27b3" d="M32 16c0 8.837-7.163 16-16 16s-16-7.163-16-16c0-8.837 7.163-16 16-16s16 7.163 16 16z"></path>
<path fill="#501a96" d="M23.419 8.308c-1.912 0.242-3.905 0.234-5.911 0.043-2.801-0.216-6.896-1.508-8.404 1.077-2.423 4.14-1.228 9.44-0.663 14.13l8.421 8.419c8.149-0.433 14.68-6.963 15.114-15.112l-8.557-8.557z"></path>
<path fill="#fff" d="M19.702 6.842h-7.403c-3.009 0-5.457 2.448-5.457 5.456v7.403c0 3.009 2.448 5.457 5.457 5.457h7.403c3.009 0 5.457-2.448 5.457-5.457v-7.403c-0-3.009-2.448-5.457-5.457-5.457v0zM23.316 19.702c0 1.996-1.618 3.614-3.614 3.614h-7.403c-1.996 0-3.614-1.618-3.614-3.614v-7.403c0-1.996 1.618-3.614 3.614-3.614h7.403c1.996 0 3.614 1.618 3.614 3.614v7.403z"></path>
<path fill="#fff" d="M16 11.263c-2.612 0-4.737 2.125-4.737 4.737s2.125 4.737 4.737 4.737 4.737-2.125 4.737-4.737-2.125-4.737-4.737-4.737v0zM16 18.895c-1.599 0-2.895-1.296-2.895-2.895s1.296-2.895 2.895-2.895 2.895 1.296 2.895 2.895c0 1.599-1.296 2.895-2.895 2.895v0z"></path>
<path fill="#d1d1d1" d="M21.881 11.298c0 0.627-0.508 1.135-1.135 1.135s-1.135-0.508-1.135-1.135c0-0.627 0.508-1.135 1.135-1.135s1.135 0.508 1.135 1.135v0z"></path>
<path fill="#d1d1d1" d="M19.702 6.842h-3.738v1.843h3.738c1.996 0 3.614 1.618 3.614 3.614v7.403c0 1.996-1.618 3.614-3.614 3.614h-3.738v1.843h3.738c3.009 0 5.457-2.448 5.457-5.457v-7.403c0-3.009-2.448-5.457-5.456-5.457z"></path>
<path fill="#d1d1d1" d="M16 11.263c-0.012 0-0.024 0.001-0.036 0.001v1.843c0.012-0 0.024-0.001 0.036-0.001 1.599 0 2.895 1.296 2.895 2.895s-1.296 2.895-2.895 2.895c-0.012 0-0.024-0.001-0.036-0.001v1.843c0.012 0 0.024 0.001 0.036 0.001 2.612 0 4.737-2.125 4.737-4.737s-2.125-4.737-4.737-4.737z"></path>
</svg>
