<!-- Generated by IcoMoon.io -->
<svg version="1.1" xmlns="http://www.w3.org/2000/svg" width="32" height="32" viewBox="0 0 32 32">
<title>linkedin</title>
<path fill="#4376b1" d="M32 16c0 8.837-7.163 16-16 16s-16-7.163-16-16c0-8.837 7.163-16 16-16s16 7.163 16 16z"></path>
<path fill="#369" d="M31.938 14.602l-7.268-7.277c-4.44 0.577-9.079 0.491-13.519 0.594-1.832 0-3.663 0.862-3.34 2.909 0.646 4.094 0.97 8.081 0.216 12.283-0.119 0.534-0.369 1.068-0.695 1.566l7.26 7.26c0.464 0.040 0.933 0.062 1.407 0.062 8.836 0 16-7.163 16-16 0-0.471-0.021-0.937-0.061-1.398z"></path>
<path fill="#fff" d="M23.501 6.842h-15.003c-0.915 0-1.657 0.742-1.657 1.657v15.003c0 0.915 0.742 1.657 1.657 1.657h15.003c0.915 0 1.657-0.742 1.657-1.657v-15.003c0-0.915-0.742-1.657-1.657-1.657v0zM12.51 22.657c0 0.266-0.216 0.482-0.482 0.482h-2.052c-0.266 0-0.482-0.216-0.482-0.482v-8.604c0-0.266 0.216-0.482 0.482-0.482h2.052c0.266 0 0.482 0.216 0.482 0.482v8.604h-0zM11.001 12.76c-1.077 0-1.95-0.873-1.95-1.95s0.873-1.95 1.95-1.95c1.077 0 1.95 0.873 1.95 1.95s-0.873 1.95-1.95 1.95v0zM23.236 22.696c0 0.245-0.198 0.444-0.443 0.444h-2.203c-0.245 0-0.443-0.199-0.443-0.444v-4.036c0-0.602 0.177-2.638-1.573-2.638-1.357 0-1.633 1.394-1.688 2.019v4.655c0 0.245-0.198 0.444-0.443 0.444h-2.13c-0.245 0-0.444-0.199-0.444-0.444v-8.681c0-0.245 0.199-0.444 0.444-0.444h2.13c0.245 0 0.443 0.199 0.443 0.444v0.751c0.503-0.755 1.251-1.338 2.844-1.338 3.527 0 3.507 3.295 3.507 5.105v4.164h-0z"></path>
<path fill="#d1d1d1" d="M23.501 6.842h-7.537v6.729h0.478c0.245 0 0.443 0.199 0.443 0.444v0.751c0.503-0.755 1.251-1.338 2.844-1.338 3.527 0 3.507 3.295 3.507 5.105v4.164c0 0.245-0.198 0.444-0.443 0.444h-2.203c-0.245 0-0.443-0.199-0.443-0.444v-4.036c0-0.602 0.177-2.638-1.573-2.638-1.357 0-1.633 1.394-1.688 2.019v4.655c0 0.245-0.198 0.444-0.443 0.444h-0.478v2.019h7.537c0.915 0 1.657-0.742 1.657-1.657v-15.003c-0-0.915-0.742-1.657-1.657-1.657z"></path>
</svg>
