<!-- Generated by IcoMoon.io -->
<svg version="1.1" xmlns="http://www.w3.org/2000/svg" width="32" height="32" viewBox="0 0 32 32">
<title>twitter</title>
<path fill="#65a2d9" d="M32 16c0 8.837-7.163 16-16 16s-16-7.163-16-16c0-8.837 7.163-16 16-16s16 7.163 16 16z"></path>
<path fill="#3a7ca5" d="M24.563 8.708c-1.669 1.448-3.328 2.717-4.685 4.491-3.336 4.023-7.413 9.731-12.962 8.88l9.913 9.9c8.404-0.43 15.094-7.343 15.168-15.836l-7.435-7.435z"></path>
<path fill="#fff" d="M24.867 10.154c-0.407 0.181-0.829 0.323-1.263 0.426 0.478-0.454 0.837-1.022 1.039-1.655 0.058-0.181-0.139-0.337-0.302-0.241-0.603 0.358-1.253 0.626-1.931 0.798-0.039 0.010-0.080 0.015-0.121 0.015-0.124 0-0.244-0.046-0.338-0.129-0.721-0.636-1.649-0.986-2.613-0.986-0.417 0-0.838 0.065-1.251 0.193-1.28 0.397-2.268 1.453-2.579 2.756-0.116 0.489-0.148 0.978-0.094 1.454 0.006 0.055-0.020 0.093-0.036 0.111-0.028 0.031-0.068 0.049-0.109 0.049-0.005 0-0.009-0-0.014-0.001-2.803-0.261-5.33-1.611-7.117-3.802-0.091-0.112-0.266-0.098-0.338 0.026-0.35 0.6-0.535 1.287-0.535 1.985 0 1.070 0.43 2.079 1.177 2.815-0.314-0.075-0.618-0.192-0.901-0.349-0.137-0.076-0.305 0.022-0.307 0.178-0.019 1.59 0.912 3.005 2.307 3.643-0.028 0.001-0.056 0.001-0.084 0.001-0.221 0-0.445-0.021-0.665-0.063-0.154-0.029-0.283 0.117-0.236 0.266 0.453 1.414 1.67 2.456 3.126 2.692-1.209 0.811-2.616 1.239-4.081 1.239l-0.457-0c-0.141 0-0.26 0.092-0.296 0.228-0.035 0.134 0.030 0.276 0.15 0.346 1.651 0.961 3.534 1.468 5.446 1.468 1.674 0 3.24-0.332 4.654-0.987 1.297-0.601 2.442-1.459 3.405-2.552 0.897-1.018 1.599-2.193 2.085-3.492 0.464-1.239 0.709-2.56 0.709-3.822v-0.060c0-0.203 0.092-0.393 0.252-0.523 0.607-0.493 1.135-1.072 1.57-1.723 0.115-0.172-0.066-0.387-0.255-0.303v0z"></path>
<path fill="#d1d1d1" d="M24.867 10.154c-0.407 0.181-0.829 0.323-1.263 0.426 0.478-0.454 0.837-1.022 1.040-1.655 0.058-0.181-0.139-0.337-0.302-0.241-0.603 0.358-1.253 0.626-1.931 0.798-0.039 0.010-0.080 0.015-0.121 0.015-0.124 0-0.244-0.046-0.338-0.129-0.721-0.636-1.649-0.986-2.613-0.986-0.417 0-0.838 0.065-1.251 0.193-0.895 0.278-1.646 0.878-2.124 1.659v12.842c0.389-0.127 0.768-0.275 1.137-0.446 1.297-0.601 2.442-1.459 3.405-2.552 0.897-1.018 1.599-2.193 2.085-3.492 0.464-1.239 0.709-2.56 0.709-3.822v-0.060c0-0.203 0.092-0.393 0.252-0.523 0.607-0.493 1.135-1.072 1.57-1.723 0.115-0.172-0.066-0.387-0.255-0.303z"></path>
</svg>
