<!-- Generated by IcoMoon.io -->
<svg version="1.1" xmlns="http://www.w3.org/2000/svg" width="32" height="32" viewBox="0 0 32 32">
<title>whatsapp</title>
<path fill="#75b73b" d="M32 16c0 8.837-7.163 16-16 16s-16-7.163-16-16c0-8.837 7.163-16 16-16s16 7.163 16 16z"></path>
<path fill="#52891d" d="M22.515 9.489c-0.928-0.232-2.292-1.033-3.175-1.354-3.448-1.077-8.081-0.215-9.374 3.771-0.108 0.108-0.323 0.108-0.431 0.108-2.586 3.017-0.862 6.68-1.077 10.020-0.074 1.177-0.693 2.219-1.489 3.099l6.705 6.698c0.76 0.111 1.536 0.169 2.326 0.169 7.902 0 14.466-5.729 15.765-13.26l-9.25-9.251z"></path>
<path fill="#fff" d="M15.552 6.778c-4.877 0.232-8.725 4.293-8.711 9.176 0.005 1.487 0.364 2.891 0.997 4.131l-0.972 4.72c-0.053 0.255 0.178 0.479 0.431 0.419l4.625-1.096c1.188 0.592 2.523 0.934 3.935 0.955 4.985 0.076 9.141-3.882 9.296-8.864 0.166-5.341-4.242-9.696-9.601-9.44v0zM21.071 20.996c-1.354 1.354-3.155 2.1-5.071 2.1-1.121 0-2.195-0.252-3.192-0.748l-0.644-0.321-2.836 0.672 0.597-2.897-0.317-0.621c-0.517-1.013-0.78-2.108-0.78-3.255 0-1.915 0.746-3.716 2.1-5.071 1.342-1.342 3.172-2.1 5.071-2.1 1.915 0 3.716 0.746 5.070 2.1s2.1 3.155 2.1 5.070c0 1.898-0.758 3.729-2.1 5.071v0z"></path>
<path fill="#fff" d="M20.445 17.911l-1.774-0.509c-0.233-0.067-0.484-0.001-0.654 0.172l-0.434 0.442c-0.183 0.186-0.46 0.246-0.703 0.148-0.839-0.34-2.604-1.909-3.055-2.694-0.13-0.226-0.109-0.509 0.051-0.716l0.379-0.49c0.148-0.192 0.18-0.45 0.082-0.672l-0.746-1.688c-0.179-0.404-0.695-0.522-1.033-0.236-0.495 0.419-1.082 1.055-1.154 1.76-0.126 1.243 0.407 2.81 2.423 4.691 2.329 2.174 4.193 2.461 5.408 2.166 0.689-0.167 1.239-0.835 1.586-1.383 0.237-0.374 0.050-0.869-0.375-0.991v0z"></path>
<path fill="#d1d1d1" d="M22.25 9.232l-1.389 1.424c0.071 0.065 0.141 0.131 0.209 0.199 1.354 1.354 2.1 3.155 2.1 5.070 0 1.898-0.758 3.729-2.1 5.071-1.354 1.354-3.155 2.1-5.071 2.1-1.121 0-2.195-0.252-3.192-0.748l-0.644-0.321-2.836 0.672 0.059-0.285-2.511 2.573c0.055 0.166 0.232 0.28 0.421 0.235l4.625-1.096c1.188 0.592 2.523 0.934 3.935 0.955 4.985 0.076 9.141-3.882 9.296-8.864 0.086-2.758-1.048-5.253-2.903-6.986z"></path>
<path fill="#d1d1d1" d="M20.445 17.911l-1.774-0.509c-0.233-0.067-0.484-0.001-0.654 0.172l-0.434 0.442c-0.183 0.186-0.46 0.246-0.703 0.148-0.485-0.196-1.278-0.803-1.949-1.431l-1.233 1.264c0.042 0.041 0.085 0.081 0.128 0.122 2.329 2.174 4.193 2.461 5.408 2.166 0.689-0.167 1.239-0.835 1.586-1.383 0.237-0.374 0.050-0.869-0.375-0.991z"></path>
</svg>
