<!-- Generated by IcoMoon.io -->
<svg version="1.1" xmlns="http://www.w3.org/2000/svg" width="32" height="32" viewBox="0 0 32 32">
<title>youtube</title>
<path fill="#d22215" d="M32 16c0 8.837-7.163 16-16 16s-16-7.163-16-16c0-8.837 7.163-16 16-16s16 7.163 16 16z"></path>
<path fill="#a81411" d="M24.054 10.646c-0.48 0.146-0.98 0.272-1.481 0.398-3.556 0.754-8.296-1.293-10.343 2.047-1.707 2.656-2.246 5.979-4.189 8.354l10.374 10.374c6.904-1.045 12.361-6.502 13.405-13.407l-7.765-7.766z"></path>
<path fill="#fff" d="M21.353 9.521h-10.706c-2.101 0-3.803 1.703-3.803 3.803v5.352c0 2.101 1.703 3.803 3.803 3.803h10.706c2.101 0 3.803-1.703 3.803-3.803v-5.352c0-2.1-1.703-3.803-3.803-3.803v0zM18.781 16.26l-5.008 2.388c-0.133 0.064-0.288-0.034-0.288-0.181v-4.926c0-0.15 0.158-0.247 0.292-0.179l5.008 2.538c0.149 0.075 0.146 0.289-0.004 0.361v0z"></path>
<path fill="#d1d1d1" d="M21.353 9.521h-5.461v4.913l2.893 1.466c0.149 0.075 0.146 0.289-0.004 0.361l-2.889 1.378v4.841h5.461c2.101 0 3.803-1.703 3.803-3.803v-5.352c0-2.1-1.703-3.803-3.803-3.803z"></path>
</svg>
